<?xml version="1.0" encoding="UTF-8"?>
<svg id="Layer_2" data-name="Layer 2" xmlns="http://www.w3.org/2000/svg" viewBox="0 0 2771 2648">
  <defs>
    <style>
      .cls-1 {
        fill: #ff0;
        stroke-width: 0px;
      }
    </style>
  </defs>
  <g id="_spread_:_Consistent_Practice_" data-name="[spread]:(Consistent Practice)">
    <g id="_concept_:guild" data-name="[concept]:guild">
      <g id="_concept_:discourse" data-name="[concept]:discourse">
        <path class="cls-1" d="M1972,679c-91,5-174,97-218,182-19,37-9,91-7,137,2,53,14,106,14,159,0,88-77,119-15,121-87,3-159-32-219-92-16-16-31-32-49-45-52-37-97-34-151,2-51,34-104,69-16,93-63,28-109,0-124-68-7-3-1-6-14-9-9-69-38-1-106-115-5-11-1-22-15-34-13-3-3-6-38-15-34-38-65-22-97,0-18,13-37,25-56,35-43,23-7,57-78,106-4,24-16,47-22,71-16,64-62,99-119,124-55,24-109-4-126-61-25-83-54-164-8-246-32-99-34-196,25-287,78-123,175-225,314-28,11-4,2-2,25-33,5-121,117-224,251-264,91-27,182-25,275-6,71,15,144,18,216,28,38,6,76,16,121,25,113-108,376-177,515-3,146-12,311-115,474-56,72,26,125,9,165,159,37,63,74,127,115,188,47,7,99,136,146,205,71,105,95,225,79,346-16,114-69,194-204,233-105,3-201,4-296-27-29-1-56-44-72-74-68-128-132-258-199-391ZM1923,63c-29-34-5-72-82-93-8-52-11-132-128-215-1-45,0-96,11-142,14-53,11-8-4-102-162-7-31-31-432,82-76,71-113,162-142,259-16,55-39,109-64,161-33,67-74,13-107,197-27,55-13,106,28,153,45,52,105,73,168,84,12,2,22,79,303,161,69,68,174,69,242,36,38-18,6-48,6-87,0-45,1-94-15-135-38-96-8-166,62-23,45-41,89-83,137-128ZM2719,789c-8-34-11-7-26-1-49-104-99-208-188-286-11-1-19-24-26-37-29-52-57-104-87-156-12-2-23-43-41-56-63-47-125-9-205-114-129-39-235-14-335,66-58,47-79,11-72,184,8,94,55,167,123,228,91,82,176,168,225,283,31,73,6,146,1,214,41,71,95,136,19,134,57,0,113-3,169-1,23-3,49-15,67-31,99-85,135-192,107-321ZM552,347c-74,25-153,39-219,77-115,65-208,154-267,281-5,107-44,2,1,3,2,38,34,82,39,125,8,66,57,104,118,78,57-24,99-62,107-131,4-32,17-69,38-93,73-85,171-134,274-174,87-34,166-82,229-152,3-34,47-71,37-118-15-67-49-124-102-166-21-17-51-3-78-31-62-3-124,3-185,6ZM1224,1086c-19-5-36-11-53-13-93-11-16-67-223-128-63-6-74-145-32-221,22-4,5-77,79-112,39-46,65-96,75-155,4-24,11-49,22-71,37-76,46-167,131-227-31-13-5-26-7-29-75-1-151-13-225-26-15-27-288-2-409,9-51,38-96,87-11,16,14-2,24-2,33-5,108-35,218-36,329-21,101,14,162,7,183,171,23,111-5,159-95,215-83,52-158,117-254,148-5,2-8,1-17,2,2,8,36,16,52,19,7,15,142,16,206,59,5,34,88,98,88,158,0,33,8,83,29,94,26,14,69-4,105-1,9-2,16-1,24-16,43-32,86-65,133-1ZM837,363c56,75,107,138,105,226,19-83-27-189-105-226Z"/>
        <path class="cls-1" d="M1205,421c8-9,15-19,26-31-8,0-13-1-18-2,29-5,59-1,91-154,8,16,16,32,26,52,1-2,22-5,42-9-14,22-24,38-39,63,31-9,51-16,71-22,4,2,8,5,12,7-54,28-78,64-34,118-5,0-9,0-14,0-1-19-19-39-36-73-1,24-18,38-21,53-3,18-3,37-4,55-4,0-8,1-13,2-7-24-13-47-21-76-23,9-43,16-64,24-1-3-3-5-4-8Z"/>
        <path class="cls-1" d="M1554,1105c-15-17-26-3-37-43,2-2,4-5,6-7,14,12,28,24,47,4,8-28,14-5,2-71,3,0,7,1,1,2-3,23-6,45-9,7,14,0,27-2,49-3-18,1-28,16-4,23,1,11,18,21,26,3-2,2-3,4-5,6-14-8-29-17-47-27-11,27-22,53-32,79-3-1-7-2-1-3,7-22,13-44,21-71-21,3-38,6-55,9-1-3-2-6-3-1,17-7,35-14,57-23Z"/>
        <path class="cls-1" d="M1181,543c-14,15-22,29-33,33-7,2-28-13-27-19,2-12,11-28,21-34,6-3,21,1,39,19Z"/>
        <path class="cls-1" d="M1799,581c15,14,29,2,31,3,2,8-12,26-18,26-1,0-24-1-28-19-3-6,7-18,15-36Z"/>
        <path class="cls-1" d="M998,891c-3-16-5-32-8-49,9,0,24-1,25,2,5,14,6,28,8,43-8,1-17,2-25,4Z"/>
        <path class="cls-1" d="M1965,304c-14-36-28-73-41-109-3,0-5,0-8,0-2,18-4,36-7,54-3,16-6,33-1,49-4,0-8,0-12,0-6-27-13-54-2-82-22,5-4,9-59,14,11-85,101-132,179-133-18,15-31,23-41,34-6,7-8,18-12,26,9,0,18,4,26,2,15-4,3-12,44-18,2,5,5,1,7,16-21,9-43,18-71,3,11,36,23,74,35,112-4,1-7,3-11,4Z"/>
        <path class="cls-1" d="M2522,911c-14,12-22,2-43,38,27,1,48,17,69,25-4,5-7,11-11,16-23-14-45-28-69-44-13,32-25,61-38,9-3-1-5-2-8-3,8-25,16-51,26-82-31,8-55,15-79,22-1-3-2-6-3-9,26-1,51-2,81-32-15-22-28-41-41-6,2-2,4-4,7-5,14,15,29,3,48,51,12-36,22-66,32-96,4,1,8,3,12,4-8,3-16,59-25,93,13-3,25-5,43-9Z"/>
        <path class="cls-1" d="M1911,513c-13-19-24-28-27-39-1-7,1-16,15-25,9,9,21,17,25,27,3,6-6,17-14,36Z"/>
        <path class="cls-1" d="M266,752c-4,7-9,14-13,2-9-9-2-16-25-27-3-5,5-22,9-22,13,0,27,3,4,6-3,8-7,15-1,23Z"/>
        <path class="cls-1" d="M671,482c18,48,43,77,99,26,0,6,0,13,0,19-16,18-32,36-53,59,17-3,3-5,39-6-8,21-16,41-24,61-6-6-15-16-33-34-4,28-6,48-1,77-12-18-2-3-29-44-2,6-42,13-63,19-1-2-3-5-4-7,22-18,44-35,66-53-2-4-4-7-7-11-17,7-34,14-52,22-4-4-9-8-13-12,6-2,12-5,19-7,35-11,47-32,35-69-3-11,12-27,19-41,4,0,8,0,12,0Z"/>
        <path class="cls-1" d="M153,1114c1-11,15-18,23-26-9-1-19-2-29-31,1-2,3-4,4-7,16,8,32,17,51,27,1-25,21-49,31-74,3,0,6,2,1,3-4,17-7,34-12,55,13-2,24-4,44-7-18,15-3,25-45,38,21,13,39,23,58,34-2,4-3,8-5,12-21-1-42-2-69-33-5,2-9,38-14,57-3,0-6,0-9-1,2-16,3-33,5-53-13,2-25,4-43,7Z"/>
        <path class="cls-1" d="M75,385c16,14,31,22,35,33,2,7-13,2-2,3-11-9-25-16-31-27-3-6,8-19,15-37Z"/>
        <path class="cls-1" d="M654,173c-25,9-5,18-75,27-2-4-3-9-5-13,49-19,98-38,147-57,3,4,5,9,8,13-5,11-1,22-18,37,38-11,7-2,103-29,1,5,3,1,4,16-2,6-39,12-59,17-5,11-55,19-34,67,4,9,8,19,12,29-4,2-7,3-11,5-1-2-21-41-32-64-1,9-2,16-3,24-1,6-4,12-9,3-9-25-14-39-21-58-27,11-54,23-8,34-2-3-4-6-5-9,28-18,56-37,83-55-2-4-4-9-5-13Z"/>
        <path class="cls-1" d="M974,1102c9,3,18,7,28,11,9-12,18-24,27-35,5,29,9,56,14,87-14-5-27-9-42-15-7,14-14,27-21,39-3,0-5,0-8,0,0-28,2-55,2-87Z"/>
        <path class="cls-1" d="M939,339c-14-14-3-23-3-32,0-11,11-26,21-31,5-3,27,11,28,17,0,13-1,26-19,46Z"/>
      </g>
      <g id="_concept_:figures" data-name="[concept]:figures">
        <g id="_display_:figure:4" data-name="[display]:figure:4">
          <path id="body" class="cls-1" d="M2739,2302c1,67,21,134,31,202,4,27-15,57-45,7-94,41-193,62-294,69-49,3-98,5-147,5-31,0-43-13-41-48,11-166,29-332,76-492,22-75,57-144,128-186,32-19,65-24,99-1,49,2,86,52,113,101,51,91,57,192,8,29ZM2463,2068c-3,28-6,57-9,85,3,0,6,0,9,0,16-42,31-85,47-127-4-2-7-3-11-5-7,9-15,18-22,26,9-31,6-34-35-29,8,18,15,34,22,5ZM2425,2552c15,3,29,7,44,1,3-12,8-24,7-36-5-52-13-104-18-156-3-29-2-58-3-95-15,18-24,28-32,39-9,11-16,24-27,33-38,35-42,59-19,103,17,33,33,68,49,101-21-36-41-72-68-118-5,14-7,2-9,26,14-42-18-68-36-1,6-3,1-5,14-6,26-2,46-8,5-42,3-3,12-6,22-89,23-63,35-127,36-193,0-43,14-54,65-53-16,8-28,15-46,25,54,21,81-31,124-31-16-12-33-16-47-26-26-16-47-12-71,4-68,47-115,113-13,189-28,146-43,294-61,441-1,9,12,25,22,29,86,32,166-5,249-19-7-45-15-85-19-126-4-4-3-81-4-121,8,82,7,164,35,243,4-11,4-21,4-31-7-89-17-178-22-267-2-28,7-57,11-85,0,76,0,152,0,229,3,0,6,0,9,0,2-3,4-6,6-9,4,55,8,109,13,171,39-19,67-34,96-47,62-28,77-78,68-14-9-63-18-126-3-189-8-41-22-82-34-123-8-27-3-38-55-42-26-4-39,12-45,33-1,37-18,75-26,113,0-17,0-34-2-5-12-73,21-12,93-129-8-24-26-33-49-32-4,1-58,32-68,61-31,92-6,184-49,285,9,76,11,153,15,23-35,9-7,18-104,27,1-5,21-8,29-15,7-6,9-16,14-25ZM2397,2307c66-33,66-91,38-18-13,6-26,12-38,18ZM2583,2601c0,3,2,7,2,1,52-19,103-38,155-56-1-3-2-6-3-9-51,18-102,37-154,55Z"/>
          <path id="head" class="cls-1" d="M2521,1833c-13,1-27,3-4,4-65,7-107-17-125-8-11-38-19-79-2-119-3-12,125-204,217-197,45,4,84,31,112,72,63,95,41,24-49,293-28,16-62,22-93,33,0-2-1-4-2-7ZM2538,1479c-1,2-3,5-4,7,9-4,18-7,35-14-16-2-22-4-28-3-105,5-193,113-178,217,5,37,11,74,5,92,72,33,146,26,214-7,55-26,55-88,57-142,1-28-8-57-16-84-3-11-13-23-23-27-35-15-71-27-107-4ZM2489,1815c0,2,0,4,0,7,31-2,62-5,94-7,0-3,0-6,0-9-31,3-62,6-94,9Z"/>
        </g>
        <g id="_display_:figure:3" data-name="[display]:figure:3">
          <path id="body-2" data-name="body" class="cls-1" d="M1981,2296c11,71,23,141,33,212,5,37-8,57-43,68-129,4-26,64-395,71-84,4-97-3-91-84,9-133,6-269,6-395,35-82,81-155,162-199,55-3,101-22,147,18,8,69,122,154,127,258,0,17,5,33,8,5-2,0-4,0-7,0ZM1575,2319c1,34,19,69,29,103,3,0,6-1,9-2-5-62-1-124-14-185-2,0-4,0-7,0-6,29-12,58-18,87,3-27,2-56,1-82,22-7,43-14,101-199-69,32-144,226-117,29,2-4,5-7,7-11ZM167,2285c-6,84,5,154,27,18,0-24,2-5,3-76,0,2,2,39,3,59,11-57,12-115,24-171,19-93,42-188,157-212-42-26-91-14-125,34-14,2-25,42-37,63-7,8-16,16-21,25-1,18-17,36-25,54,17-96,73-166,151-219-42-6-73,12-97,44-13,17-28,32-39,51-33,58-55,119-33,191,5-1,8-17,12-24ZM1739,2586c32-5,59-7,85-14,31-8,62-18,92-3,85-33,76-48,66-125-11-88-33-175-5-262-13-64-26-78-78-64-24,6-47,3-61,51-85,137-81,286-54,444ZM1585,2383c-3,0-5,2-8,2,11,49,22,98,31,147,2,1,0,2,0,3-2,0-5,0-7,0-18-8-36-16-53-24-4,0-7,0-11,0-1,29-7,58-2,86,5,34,24,64,19,103-3,26,1,53,16,82,29,0,59,0,94-1-27-71-53-14-79-209ZM2003,2529c-2-2-3-3-5-5-42,16-83,35-125,49-43,14-87,22-13,33,2,5,3,11,5,16,76-21,151-42,227-65,12-4,2-18,3-28ZM1521,2613c0,3,0,6,0,1,38,16,121,12,15-15-5,2-1,3-151,5ZM166,2471c2,0,5,0,7-1-9-6-19-12-28-18-2,0-5,0-7,1,9,6,19,12,28,18ZM1551,2575c3-1,6-2,9-3-11-39-22-79-33-118-17,56-11,8,24,122ZM1672,2431c-2,0-3,0-5,1,6,31,13,63,19,94,2,12,5,33,2,34-18,6-16,19-8,26,7,6,21,3,36,4-16-57-3-108-45-159ZM154,2242c3,1,6,2,9,3,21-49,43-98,64-147-4-2-8-3-12-5-21,49-41,99-62,148ZM1672,2106c2,2,4,4,7,5,27-32,54-64,8-95-3-3-7-6-1-8-26,33-51,66-77,98Z"/>
          <path id="head-2" data-name="head" class="cls-1" d="M195,1687c0,22,2,45,0,67-3,61-32,101-91,123-9,35-17,28-24-44-36-37-46-79-24-126,28-59,64-111,123-142,105-54,219,19,23,122ZM1918,1694c0,0-1,0-2,0-2-12-4-24-6-36-12-65-81-105-145-83-68,23-115,69-137,136-18,56-7,127,78,14,67,1,126-8,183-38,28-15,41-4,35-73-3-15-5-31-7-46Z"/>
        </g>
        <g id="_display_:figure:2" data-name="[display]:figure:2">
          <path id="body-3" data-name="body" class="cls-1" d="M1284,2262c4,71,9,143,14,214,2,25,13,56,2,73-1,16-43,21-66,24-68,8-137,15-206,18-59,3-118-1-177-1-48,0-64-15-58-62,13-105,31-21,43-315,8-77,42-141,91-196,41-46,98-76,161-6,35,9,7,34,96,6,67,67,98,151,101,245ZM922,2308c35-33,7-66,106-1-2-2-5-5-7-7-59,51-118,102-177,153-2,1,2,8,2,12,26-2,51-4,77-59-25,29-51,59-76,88,2,2,4,4,6,6,5-3,9-5,14-8-7,11-15,23-22,34,3,2,5,4,8,6,43-4,86-8,13-119-2-2-4-5-6-7-36,28-71,56-107,84,43-42,87-84,13-126-2-2-4-4-6-6-24,16-47,32-71,48ZM932,2402c14-18,28-36,42-54-2-2-4-4-6-5-42,38-84,75-126,113,2,3,4,5,7,8,8-5,17-9,25-14-11,16-23,33-34,49,3,2,6,4,9,7,5-4,1-7,14-11-8,14-16,28-24,41,2,1,4,3,6,4,15-1,29-21,44-31-9,15-19,31-29,48,42-3,103-61,105-98-26,18-52,35-77,52,22-2,45-4,65-61,8-8,11-2,16-3-3-2-6-4-9-6-28,24-55,48-83,72,31-34,62-68,94-101-2-2-4-4-6-6-11,8-22,17-34,25ZM1267,232c-12-5-23-98-36-145-11-41-19-45-61-34-85,23-139,8-153,164-12,74-12,151-15,226,0,8,13,24,19,24,63-2,127-3,189-1,36-4,58-3,58-7,0-52,0-105-1-155ZM1159,2051c-2-2-3-5-5-7-112,68-214,149-302,248,102-81,204-161,306-242ZM1105,199c-2-2-3-4-5-7-4,2-8,3-11,5-65,47-131,94-195,142-12,9-18,24-27,37,2,2,4,3,6,5,77-61,154-121,231-182ZM861,2208c2,2,3,4,5,6,87-67,174-134,261-201-107,4-179,127-266,195ZM972,2207c2,4,5,7,7,11,69-5,138-99,207-149-3-4-6-8-9-12-69,5-137,1-206,151ZM1141,2032c-2-3-5-6-7-9-67,51-134,102-202,153,2,3,5,6,7,9,67-51,135-102,202-153Z"/>
          <path id="head-3" data-name="head" class="cls-1" d="M1122,1857c-51,6-101,4-134-42-37-51-61-108-34-172,9-2,21-39,34-57,56-78,148-66,2-1,33,35,57,82,76,128,2,47-2,11-76,133-22,9-45,14-67,21ZM1137,1819c103-12,115-67,96-145-7-29-33-59-6-75-46-27-95-18-138,14-47,35-65,81-57,138,8,54,28,71,82,71,26,0,51-2,77-3ZM993,1607c38-2,78-41,115-6-42-16-86,7-115,6ZM1074,1578c34,0,67,1,99,2-26-23-64-24-99-2Z"/>
        </g>
        <g id="_display_:figure:1" data-name="[display]:figure:1">
          <path id="body-4" data-name="body" class="cls-1" d="M68,2212c11,71,28,143,32,214,5,94-16,107-9,121-66,12-132,25-198,34-23,3-48-2-72-5-34-3-69-7-103-1-47-5-49-1-44-57,6-51,7-102,1-154,1-159,83-276,229-342,95-43,176-18,208,83,12,38,27,75,41,113-4,0-8,2-12,3ZM431,2285c-43,59-75,123-74,198,0,13,4,25,6,39,58-12,113-234,168-348-1-1-2-2-3-3-27,31-55,63-82,94,5-59,1-117,154-18-1-2-7-11-15-24-77,87-171,156-201,278,18-21,33-37,47-54ZM529,2516c42-7,82-14,123-19,22-2,26-13,29-33,12-86-4-17-23-252-9-37-26-71-4-107-4,0-8,1-12,2-9,119-109,253-77,409ZM508,2483c-2-42-8-87-5-131,3-43,16-86,25-128-52,84-101,169-128,265,3,2,7,4,1,7,23-37,47-74,7-111,5,3,11,5,16,8-11,35-21,71-32,107,18-7,31-11,43-16ZM316,237c1-8,13-9,14-12,62-85,125-171,186-257,5-6,4-16,7-24-3-1-6-2-9-4-101,71-168,166-198,296ZM357,2157c-4-3-8-5-12-8-12,17-29,32-37,5-41,98-6,201-74,305,0,7,2,14,3,21,3,0,6,0,9,0,0-134,47-254,11-369ZM629,2529c0-3,0-6,0-9-121,8-241,15-362,23,122,21,242-2,362-14ZM378,2159c-62,91-1,192-11,303,19-5,32-101,5-151,18-51,4-101,6-152ZM514,202c-64-5-15,55-166,118,18-11,36-23,5-39,32-37,66-7,117-79ZM28,2196c-37,41-59,142-46,194,16-69,31-132,46-194ZM337,2432c-3,25-41,5-33,8,1,5,18,7,31,11,0-21,0-34,0-47,0-13,2-26,3-45ZM409,2515c39,1,52-22,6-98-22,36-39,65-6,98ZM309,2425c4,2,8,4,12,6,17-34,35-68,52-103-3-2-6-3-9-5-18,34-37,67-55,101Z"/>
          <path id="head-4" data-name="head" class="cls-1" d="M607,1759c13,44-3,77-35,105-46,4-98,7-158,73-25,2-56-11-76-27-58-46-79-112-57-18,22-67,68-118,143-133,61-12,104,25,14,63,24,25,35,63,52,95-3,1-5,2-8,3ZM57,1744c-8-7-63-127-118-125-116,4-19,135-133,235,24,42,92,73,135,61,92-25,127-76,115-171ZM585,1831c23-45,14-79-5-114,1,35,3,7,5,114Z"/>
        </g>
      </g>
    </g>
  </g>
</svg>