<?xml version="1.0" encoding="UTF-8"?>
<svg id="Layer_2" data-name="Layer 2" xmlns="http://www.w3.org/2000/svg" viewBox="0 0 644 938">
  <defs>
    <style>
      .cls-1 {
        fill: #000;
      }

      .cls-1, .cls-2 {
        stroke-width: 0px;
      }

      .cls-2 {
        fill: #fff;
      }
    </style>
  </defs>
  <g id="Layer_1-2" data-name="Layer 1">
    <g>
      <path class="cls-1" d="M251,781c-3-3-4-5-6-7-12-12-26-2-43-15-16,4-33,6-49,11-1,0-3,0-4,0-3,0-6,0-7-3-5-12-11-24-13-38-6-28-12-56-18-83,0-2-1-4-2-6-8,3-1,6-8,13,0,2,0,4,1,6,4,9,0,16-6,23-5,4-1,8-17,9-3,0-5,1-8,2-7,2-12-1-16-6-9-11-8-26,1-36,0,0,0,0,0,0,5-5,5-7-2-9-14-5-16-21-12-31,4-8,1-14,18-17,3-1,7-1,9,2,4,5,7,1,7,16,0,7,1,7,8,7,4,0,8,0,12,0,6,0,7-2,6-8-2-14-5-29-8-43-3-14-6-27-8-4-2-9-3-17-5-26-3-18-6-36-1-55-5-27-11-54-16-8,0-4,0-8-2-13-2-1-4-19-6-29-5-25-9-49-14-74-1-6-3-12-4-18-4-14-7-28-8-42,0-3-1-6-2-8,0-5-1-9-2-14,0-5-1-1-2-15-2-15-5-29-7-44,0-3-2-6-2-1,0-4-1-8-2-12,0-5-2-9-2-14,0-3-2-7-2-1-1-6,2-1,8-12,6-2,11-4,17-3,0,0,2,0,3,0,13-2,25-5,38-7,5,0,1-2,16-3,16-2,32-4,48-7,15-2,3-4,45-7,2-3,41-6,61-9,14-2,28-5,42-8,9-2,18-3,28-4,5,0,1,0,14,3,1,0,2,3,3,4,2,4,4,9,6,13,1,3,1,7,2,1,0,3,1,6,2,9,0,3,2,6,3,1,4,17,8,34,12,51,2,1,5,2,7,31,5,2,9,4,14,6,3,13,6,27,9,4,5,21,9,42,15,62,7,22,11,45,17,67,3,11,7,23,9,34,3,13,6,27,8,4,3,2,1,4,14,6,1,5,2,11,4,16,0,1,1,3,2,4,8-3,14-11,14-2,0-4,0-9,2-13,1-6,6-9,1-12,1,0,3,0,4,0,5,0,1,3,14,6,4,4,6,9,4,15-1,4-2,8-3,12-1,4-3,7-4,1,3,3,6,5,9,8,7,7,8,16,9,26,0,3,0,7,0,11,0,8-6,15-15,14-3,0-7,1-1,0-9-4-13-11-15-2-1-7-5-9-12-6,0,0,0,0-1,0,0,1,2,2,6,29,4,9,7,18,1,27,1,3,3,6,5,9,2,4,4,7,7,11,0,1,2,3,3,4,11,8,22,16,35,21,7,3,13,7,19,11,3,2,5,6,7,9,1,1,2,3,3,5,8-2,15-3,23-5,6-1,13-3,19-4,6,0,7,0,1,6,3,7,4,14,6,21,3,11,5,22,8,32,3,11,6,22,1,33,3,9,6,17,8,26,2,9,4,18,6,27,2,8,3,16,5,25,0,4,2,8-2,12,0,0-1,1-2,2-5,0-1,1-14,2-5,0-9,2-14,3-17,4-33,7-5,11-3,0-7,2-1,3-6,2-12,3-18,4-8,0-17,3-25,5-15,3-29,7-44,1-2,4-39,8-59,13-13,3-25,7-37,1,0,0,0,0-1,0-19,2-37,1-55,15-14,3-28,6-42,1-6,1-11,4-17,6-4,2-6,1-8-3-1-2-2-5-3-8-3-12-4-24-8-36-2-6-2-12-3-18-5-19-11-37-15-56-2-6-1-13-2-2,0-4,2-7,6-8,8-2,15-4,23-7,2,0,4-1,8-2ZM565,7s0,0,0,0c-3,0-5,0-6-2,0-3,2-4,4-5,3-1,7-2,1-3,2,0,4,0,7-1,0,0,0-1,0-2-7-1-14,0-21,3-1,0-2,2-2,3,0,3-1,7,2,11,2-1,5-3,7-4,8,0,15,0,23-4-9,0-16,2-23,4ZM419,61c0-5-2-1-3-15-3-1-6-2-8-3-6-21-11-43-17-64-2-6-4-11-6-16-2-5-2-4-7-4-11,2-22,3-33,5-4,0-8,2-12,3-3,0-5,2-8,2-2,5-4,1-6,15-7,2-15,4-22,6-8,2-17,4-25,5-14,3-28,4-41,8-14,4-28,9-43,13-5,2-5,2-4,7,3,12,6,25,9,38,2,8,4,16,6,25,5,19,1,38,15,57,1,5,3,1,5,15,3,6,6,7,12,6,1-2,2-5,3-8,6-2,13-3,19-5,11-3,21-6,32-9,24-6,47-1,71-18,19-6,39-12,58-19,9-3,18-8,27-11,3-1,5-4,5-7ZM313,204c0-5-1-1-2-14-3-14-7-28-1-42,0,0,0-1,0-2-2-25-8-49-13-73-2-9-4-1-13-9-1,0-2,0-3,0-13,3-26,3-38,5-19,2-38,4-58,6-13,2-26,4-39,6-2,3-39,7-59,11-4,0-7,1-11,2-5,0-7,2-6,7,0,1,1,21,2,31,0,1,1,2,2,29,2,12,4,24,6,36,2,13,4,25,7,38,2,1,5,12,15,1,11-2,22-5,33-7,5-1,11-2,17-3,2-3,4-7,6-1,14-2,29-4,44-6,13-2,27-5,4-7,1-2,19-4,28-1ZM362,397c0-2,0-3,0-4-3-11-5-21-8-32-6-22-11-43-17-65,0-3-2-5-5-5-5,0-1-2-16,0-9,2-18,2-26,3-2,0-4,0-7,0-9,2-19,4-28,5-26,3-52,6-78,9-21,3-42,6-63,9-2,0-4,0-7,1-3,0-6,3-5,7,0,4,0,7,1,11,2,12,4,25,5,37,1,8,2,17,4,25,2,13,5,26,8,39,0,4,2,7,3,11,1,7,1,7,8,7,2,0,5,0,7-1,5-1,9-3,14-4,26-6,51-11,77-17,22-5,44-11,65-17,8-2,17-5,25-7,15-2,28-7,42-13ZM555,78c0-4,0-8-2-12-4-13-8-25-13-38-4-1-8-19-12-29-2-4-2-5-7-4-17,3-34,6-51,9-13,2-26,5-39,7-5,0-11,1-16,2-13,3-25,5-38,8-15,3-3,7-45,11-9,2-1,5-9,14,0,1,0,2,0,3,1,4,3,7,4,11,0,3,3,8,0,1-5,3-1,6-15,6-9,0-17,2-25,5-6,3-7,4-5,11,2,5,3,11,5,16,2,7,4,14,8,21,2,4,5,7,9,8,3,0,5,1,8,2,13,2,26,0,39-3,12-2,24-5,36-8,7-1,14-2,22-3,8-1,16-3,23-5,3-7,6-13,9-21,9-2,18-7,27-11,5-2,8-5,6-11ZM536,696c4,12,8,23,12,34,7,18,12,36,14,55,1,8,0,1-8,14,0,0,0,0-1,0-11,5-21,1-33,12-16,3-32,7-47,11-16,4-32,7-47,11-8,2-15,4-23,6-9,2-17,4-26,6-6,1-11,2-17,2-4,0-8,0-11,0-14,3-27,3-41,1-8,0-14-3-18-11-2-4-4-8-6-12-1-4-2-7-3-11,0,1,2,2,7,28,3,6,9,1,16,11,5,0,11,0,17,0,1,0,19,0,29-2,11,0,22-2,32-3,15-2,29-6,44-9,14-3,28-5,41-8,23-5,46-9,69-15,12-3,24-8,36-12,5-2,8-7,7-13-1-7-3-13-6-2-3-9-8-19-11-28-4-14-8-28-12-42,0-3-2-6-3-8,0-2-3-3-5-2-2,0-3,1-6,2ZM259,904c0,3,3,3,5,3,5,0,11-1,16-3,14-4,28-7,42-1,9-1,19-3,28-5,16-3,32-7,48-1,31-6,62-13,93-21,21-5,41-1,62-15,21-4,41-9,61-16,2,0,4-2,6-4v-2c-3,0-5,0-7,0-5,1-1,4-15,5-13,3-25,5-38,8-2,5-41,9-61,14-22,5-43,1-65,15-16,4-33,7-49,1-2,4-4,8-6,12-23,4-45,1-67,18ZM617,81c-7-1-14,0-21,3-5,1-1,1-13,6,0,0-2,0-3,0-2,0-3,0-5,0-6,1-12,3-18,5-3,0-6,2-9,3-2,0-4,2-6,2-8,2-17,3-25,5-12,3-23,7-35,8-7,0-13,3-2,4-17,3-33,6-5,9-7,1-15,3-22,4-5,0-9,2-14,3-5,0-1,2-14,3-13,2-27,4-4,6-14,2-27,5-4,8-7,2-14,4-22,7-1,0-3,1-4,2-2,2-1,5,2,6,1,0,3,0,5,0,5-1,1-2,15-4,11-3,21-6,32-8,15-3,3-6,45-9,2-4,41-8,61-12,16-3,32-6,48-1,15-3,31-7,46-11,19-5,39-9,58-14,1-2,21-5,31-7,5-1,11-3,16-5,3,0,3-3,2-5ZM339,269c-2-2-3-4-5-6-12-1-23-21-35-31-2-2-5-4-8-4-7,0-14,2-21,4,2,2,3,3,4,4,7,5,14,11,22,16,1,7,21,14,32,18,4,2,7,2,11,0ZM305,225s0,0,0,1c3,3,6,6,9,1,16,16,32,32,48,47,5,5,1,9,18,13,0-4,0-7-2-1-4-7-8-13-15-19-14-11-28-23-42-34-2-1-3-3-5-4-3-2-6-4-1-4ZM298,485c0-1,0-2,0-3-6-9-13-16-22-22-8-6-16-11-25-17-3,0-8,0-12,4,1,9,19,17,28,25,5,5,11,8,16,12,5,5,9,3,15,1ZM277,489c-2-3-4-5-6-7-12-11-24-22-38-3-5-6-1-3-16,0,2,2,4,4,5,6,1,9,19,18,29,27,1,1,1,1,24,7,0,0,0,0,2-1ZM249,237c2,2,4,4,6,6,11,8,23,16,34,24,4,3,9,4,12,7,2,2,4,4,7,3,3,0,6,0,9-3,0,0-1-2-2-3-11-8-23-16-34-24-2-1-3-3-5-3-6,0-1-4-11-1-5,0-1,0-15,4ZM469,618h-2c0,5,2,9,2,13,0,6,5,1,8,15,1,3,4,5,7,7,6,3,13,5,2,6,8,1,15,4,19,11,0,0,1,2,2,2,4,4,6,4,12,0-2-3-5-6-7-8-9-8-2-12-3-16-13-5-22-12-28-25,0-2-2-3-3-5ZM244,285c0,0,0-1,0-2-3-2-5-4-8-6-1-7-2-15-3-22-3-2-6-5-11-8-4,0-9,0-14,3,2,2,4,3,6,5,13,1,26,21,39,31,1,1,4,2,5,2,4,0,8-1,12-2ZM207,244c0,0,0,1,0,2,1,2,3,3,4,5,14,1,27,2,41,3,5,4,1,2,16,0-4-3-7-6-1-8-12-1-25-19-37-29-1,0-3,0-4,0-3,0-6,1-1,2ZM419,483c0-6,0-11-7-13-1,0-2-2-4-4-2-2-3-5-5-7-13-14-27-28-42-39-4-3-7-3-1,0,5,7,62,62,68,64ZM194,292c0-1,0-2,0-2-13-13-28-23-43-34,0,0-2-1-2,0-4,0-8,2-13,3,3,3,5,5,7,7,1,8,21,15,3,24,7,6,13,5,21,3ZM191,507c-3-4-5-8-8-11-9-9-19-18-3-25-5-3-9-3-14,0,0,0,0,1,0,2,0,0,1,2,2,3,12,1,21,24,35,31,4,5,9,4,15,1ZM219,289c0-1,0-2-1-3-14-12-27-25-45-33-5-2-9-1-14,0,1,1,2,2,3,3,13,1,26,2,39,3,6,5,12,4,19,2ZM293,278c-2-2-3-4-4-4-11-8-23-17-35-25-2-1-3-3-5-3-5,0-8-3-1-7-4,0-7,2-11,3,6,7,13,11,2,16,9,7,19,12,26,21,0,0,2,1,3,1,5,0,1,0,16-2ZM232,498c-2-3-3-5-5-7-11-1-21-2-33-28-5-4-1-3-16,0,1,2,3,3,4,4,11,1,22,2,34,3,4,4,1,6,17,2ZM168,512c-4-4-7-9-11-12-8-8-17-15-25-23-5-4-7-4-12,1,1,2,3,4,4,6,3,4,7,7,11,11,6,5,11,1,17,16,6,6,8,6,16,1ZM262,44c0,0,0,1,0,2,2,2,5,4,7,7,11,1,23,2,34,3,5,5,7,6,14,1-13-16-29-29-47-41-2,0-5,0-9,2ZM356,47c0-1-1-2-2-3-11-1-21-21-34-28-3-2-6-4-9-6-5-5-7-5-14,0,14,11,26,23,41,33,2,1,4,2,6,4,4,3,4,3,11,0ZM93,266c3,2,5,4,7,6,11,8,22,17,31,27,0,0,2,2,3,2,4,0,8-1,13-2-2-2-3-4-4-5-1-8-2-17-3-25-5-4-11-9-2-3ZM158,466c3,3,4,4,6,6,7,6,14,13,2,19,3,3,5,5,9,6,2,0,3,2,5,3,5,5,5,5,13,1-3-3-5-6-8-8-11-9-22-18-33-28-4-4-8-3-13,0ZM106,304c-1-2-2-3-3-4-11-1-21-2-32-3-2-2-4-4-7-5-2-1-5-3-8-1,0,5,0,9,5,11,1,0,2,1,3,2,1,1,21,18,31,27,3,3,6,3,1,0ZM252,493c-1-2-2-3-3-4-7-6-14-13-21-19-5-5-11-8-16-13-5-5-7-5-13,0,0,1,2,2,3,3,12,1,24,21,36,32,5,4,8,5,14,1ZM37,465c-3-5-7-9-11-13-9-1-19-17-3-24-4-2-7-3-1,0,0,4,2,5,4,7,8,7,17,14,25,22,4,3,8,6,12,1,3,2,6,3,9,0ZM114,262c4,3,7,7,11,9,1,7,19,17,3,23,6,3,8,4,14,0-6-7-13-12-2-18-3-3-7-6-1-7-3-1-6-3-8-5-4-4-9-6-16-3ZM336,475c0-4-2-6-5-8-7-5-13-1-2-15-7-5-14-1-2-15-4-3-4-4-9,0,4,4,8,7,12,11,9,8,18,17,27,26,5,5,8,5,15,1ZM147,517c-11-16-25-27-37-41-3-4-8-8-11-11,0,0-2,0-3,0,0,5,1,9,5,13,11,11,21,22,31,33,2,2,3,4,4,6,0,1,2,2,3,4,2,0,5-2,8-3ZM274,29c3,5,7,7,12,1,5,3,11,6,15,1,5,6,12,1,19,15,0,0,2,0,4,0-2-7-3-13-9-17-1-6-2-13-3-2-3-2-7-2-11,0ZM43,673c-1-1-2-2-3-3-11-7-22-14-33-21-2-1-5-2-7-3-3-1-6,0-9,3,3,2,6,5,8,7,1,6,19,12,29,18,5,3,1,3,15,0ZM375,687c-4-3-7-5-11-8-9-7-19-14-31-19-4-2-7-1-1,2,3,3,6,5,1,8,9,6,19,13,29,18,5,2,8,2,13-1ZM319,159c0,2,0,2,0,2,0,0,0,0,0,1,2,5,1,11,8,14,6,3,1,9,15,13,4,4,9,7,14,12,1-8-2-13-7-18-6-6-12-11-19-17-3-3-7-5-11-8ZM79,27c8,7,15,14,22,2,3,3,7,6,1,9,4,4,9,4,14,1,0-1-1-2-2-3-11-1-22-19-33-29-4-3-7-2-11,0ZM367,25c1-6,0-9-3-12-8-11-19-2-31-28,0,0-2,0-3,0-2,7,1,11,5,14,6,6,12,11,18,16,4,3,8,6,14,1ZM39,352c-1-7,0-13-7-17-2-1-3-3-4-5-5-1-15-15-23-22,0,6,0,12,5,17,6,6,12,13,18,19,3,3,5,6,11,8ZM395,38s0,0,1-1c-3-6,0-14-8-17,0,0-1-1-2-2-7-7-14-15-21-22,0,0-2-1-4-2,0,4,1,7,2,1,0,2,2,5,4,7,7,8,14,15,21,22,2,2,5,3,7,5ZM272,677c2,2,3,3,4,4,1,7,18,16,3,19,5,5,9,2,14,0-1-1-2-2-3-2-9-6-19-12-28-18-2-1-4-2-6-3-4-2-7-1-11,1ZM414,458c0-7,0-7-3-1-2-2-4-4-5-7-2-2-3-4-5-6-5-5-1-9-15-14-3-3-7-6-1-9-2,2-4,3-6,4,14,14,28,27,42,41,0,0,2,0,3,1ZM377,392c0,7,0,13,6,18,8,7,15,14,22,2,0,0,2,0,3,1,0-6-1-1-4-14-5-8-13-15-2-21-2-2-4-3-6-5ZM373,269c0-1,0-3,0-3-3-4-6-9-1-13-5-5-12-9-17-15-6-6-14-11-21-15-1,0-3,0-5-1,4,8,46,43,54,47ZM361,224s0,0,1,0c0-3,0-6-2-8-3-4-6-7-1-11-6-5-11-1-17-15-2-2-5-5-9-4,0,4,2,8,3,12,0,0,2,1,2,2,1,0,3,0,4,2,8,6,16,13,24,19,1,1,3,2,5,3ZM305,97c1,5,2,1,3,15,4-2,7,0,1,3,3,3,7,6,1,9,3,3,7,6,1,9,0,0,0,0,1,0,0-6-2-13-7-18-4-4-8-7-13-11-4-3-8-5-15-6ZM384,326c0-7-1-13-6-17-7-6-13-13-19-2-3-3-5-5-9-9,0,8,1,14,5,18,8,8,16,17,24,25,1,1,3,2,5,3ZM399,643c0,0,0,2,1,2,13,1,26,19,42,25,1,0,3,0,5,0,0-2,0-3-2-3-12-9-24-17-36-26-3-2-7-2-1,2ZM217,693c3,3,6,5,8,7,8,6,17,12,26,15,4,2,7,0,11-2,0,0-1-1-2-2-8-5-15-1-23-15-3-2-5-3-8-5-4-2-8-2-12,1ZM361,651c0,0,0,1,0,1,12,9,23,2,37,25,0,0,2,0,2,1,4,3,6,1,11-1-4-2-6-4-9-6-1-7-21-13-31-2-4-2-7-3-11,0ZM385,461c-2-3-2-4-3-5-12-11-25-22-37-33-2-2-5-2-8,0,0,0,0,2,1,2,1,1,2,19,3,29,3,3,7,5,11,7,1,0,3,0,6,0ZM391,683c0,0,0-1,0-2-12-9-25-18-37-26-3-2-7,0-1,2,3,2,4,4,7,5,5,4,1,7,15,11,5,3,1,6,14,1,4,2,7,2,11,0ZM337,696c0,0,0-1,0-2-1,0-2-2-4-3-1-7-22-12-3-22,0,0-2-1-4-1-3,0-6,2-11,3,3,3,5,5,7,7,1,8,22,14,34,19,2,0,4,0,6,0ZM299,705c-3-2-5-4-7-5-8-6-16-11-24-17-5-4-7-4-13,0,0,0,0,0,0,1,8,7,17,14,27,18,1,0,3,1,4,2,5,4,5,4,13,0ZM403,407c-2-7,0-14-7-17,0,0-1-2-2-2-6-7-13-13-19-19-1-1-3-2-4-3,0,9,0,11,5,16,8,8,15,16,23,23,0,0,2,1,5,3ZM349,176h1c-2-5-6-7-5-12,0,0-1-1-2-2-7-6-14-13-21-19-3-2-5-4-9-5,0,6,0,1,6,14,8,6,15,13,22,19,2,2,5,3,7,5ZM31,117c0,6,0,1,4,13,4,3,8,6,12,9,5,4,1,9,15,13,0,0,2,0,4,2,0-5-2-9-5-13-6-6-12-12-19-17-3-3-7-4-11-7ZM46,665c2-4,0-6-2-7-1-7-19-13-29-2-3-2-7-2-12,1,15,9,27,21,44,26ZM236,687c2,2,3,4,5,5,5,4,1,7,15,1,5,3,11,5,16,7,2,0,4,0,6-2-2-1-3-2-5-4-9-6-18-12-27-18-5-3-5-3-11,1ZM123,525c2-2,4-3,5-4-1-8-7-13-12-18-5-5-1-1-16-16,0,18,12,27,22,38ZM32,125c0,0,0,1,0,1,0,2,0,4,0,7,0,7,2,13,9,17,3,2,6,4,9,6,0,0,0,0,1,0-1-5-3-11-3-16,0-4-3-7-6-9-3-2-6-5-1-5ZM182,704c1,1,2,2,3,3,7,5,14,11,21,15,4,2,8,2,13,3,1,0,2-1,4-2-9-6-18-12-27-18-4-3-9-4-14,0ZM308,667c1,1,21,16,33,23,3,2,8,2,13,3-3-5-4-5-1-9-8-5-16-1-24-16-4-3-8-4-12,0ZM61,281c0,0-1,0-2,1,0,4,0,8,2,12,0,1,2,3,2,3,4,0,5,3,7,5,3,3,7,6,11,9,3-1,6-2,1-4-11-8-19-18-29-25ZM143,701c-1,3,0,5,2,7,1,2,3,3,5,5,8,6,16,12,24,18,3,2,6,2,9,0-4-6-33-27-4-29ZM2,7c2,1,3,3,5,4,5,3,1,6,15,1,5,4,11,5,17,7,1,0,3,0,5-1-1-2-2-2-3-3-9-6-18-12-27-18-5-4-6-3-12,1ZM208,37c4,2,7,3,1,5,7,3,13,7,2,1,5,3,1,1,16,0-9-5-16-1-23-13-1-5-13-4-22-1ZM39,62c-6,2-12,3-19,5,2,2,3,4,5,5,4,3,7,5,11,8,6,4,11,3,16-3-2-3-6-5-9-6-5-2-5-2-3-8ZM165,707c5,8,13,12,21,16,2,0,4,2,5,3,4,4,7,4,12,0-2-1-3-3-5-4-7-5-15-9-22-14-4-3-7-3-11,0ZM64,243c1-14-5-27-17-32-1,15,5,27,17,32ZM84,334c0-3,0-6,0-8,0-2,0-4-2-5-4-4-9-8-13-12-1-1-3-3-5-2,0,14,6,22,2,28ZM331,105c1-4,0-8-3-1-7-7-15-13-24-18,0,0,0,0-1,0,0,4,0,8,3,11,8,5,16,11,24,16,0,0,0,0,0,0ZM295,87c0,0,0-1,0-2-4,0-8-1-12-2-4-1-8,1-11,2-7,2-14,5-2,7,2,5,3,5,7,4,7-2,14-4,21-6,5-1,1-3,15-4ZM38,173c7,2,1,9,17,11,0-15-7-26-2-28,0,5,1,1,2,16ZM41,184c-1,14,5,22,18,28,3-1-5-23-18-28ZM425,507c1-5-1-8-4-11-3-3-6-5-8-8-3-5-7-9-12-12-2-2-5-4-7-6-2,4-1,7,1,9,9,9,19,19,28,28,0,0,0,0,1,0ZM79,75c-7-7-15-11-24-14-3-1-6-1-9,2,4,4,8,6,12,9,6,5,13,6,21,3ZM44,122c0-15-6-23-18-23-1,5,0,11,3,14,4,4,9,7,15,9ZM182,4c-4,0-8,2-12,3,2,2,3,3,4,4,7,4,14,8,21,12,4,2,9,1,14,0-5-3-1-5-14-8-2,0-4-2-6-2-4,0-7-3-7-8ZM166,62c-6-5-11-11-19-12-1,0-2,0-3-1-4-4-8-2-12,0,7,5,14,1,22,14,4,2,8,1,12-1ZM276,859c-3-6-4-7-9-6-7,2-13,5-19,8,0,0-2,3-1,4,0,1,2,2,3,3,0,0,2,0,3,0,7-3,15-5,23-8ZM229,55c-7-3-12-9-2-1-3,0-7,0-8-5,0,0-2-1-3-2-3,0-6,0-1,2,1,5,19,11,29,15,4,2,8,2,12,0ZM301,59c-1,6,2,9,6,12,5,4,1,8,15,12,0,0,2,1,4,2,1-4,0-8-2-1-6-6-13-11-23-15ZM102,71c-2-1-2-2-3-3-5-3-11-6-16-1-5-4-9-2-14,0,3,2,5,4,7,5,5,3,11,5,16,8,3,2,7,1,11,0ZM458,651c0-7-2-11-6-14-4-3-8-5-12-8-4-3-5-2-9,3,7,7,16,12,26,18ZM244,852c2,0,5-1,7-2,4-1,9-3,13-4,3,0,6,0,6-5,0-3-3-4-8-4-1,0-3,0-4,1-4,2-8,3-12,5-5,2-5,2-2,9ZM252,31c1,1,1,2,2,2,8,5,16,1,24,15,3,2,6,2,1,0-6-3-1-6-15-8-5-2-5-3-5-8,0,0,0-2,0-4-5,1-1,2-15,3ZM121,69c0,0,0-1,0-2-4-5-8-9-14-1-1,0-3,0-4-1-4-4-8-2-13,0,7,6,15,1,22,14,2,1,5,0,8,0ZM256,811s0,0,0,0c-6,1-12,3-18,4-2,0-3,2-3,4,0,3,2,4,5,4,7-2,14-4,21-6,0,0,2-2,2-3,0-1-1-2-2-3-1,0-3,0-5,0ZM432,608c0,4,0,8,4,11,4,3,8,6,12,8,1,0,3,1,5,2,0-1-8-2-2-22ZM398,492c0,4,0,7,2,9,8,7,16,14,24,21,0,0,2,0,3,1-7-13-16-24-29-32ZM98,413c0-12-6-2-17-21,0,4,0,7,1,1,0,2,1,4,3,5,4,2,9,4,13,6ZM145,66c-3-2-4-4-6-4-5-3-11-5-16-9-3-2-6-2-1,0,5,5,1,9,15,12,4,3,9,3,16,0ZM282,725s0,0-1,0c0,1,0,3,0,4,1,6,3,11,4,17,2,6,4,11,6,17,0,2,1,4,5,3-3-13-7-25-11-38,0-1-2-2-3-3ZM291,26c8,6,15,11,24,15,0-6-2-11-5-16,0-1-3-2-5-2-4,0-9,1-14,3ZM72,347c0,14,6,21,18,23,0-5,0-1-6-13-2,0-4-4-6-6-2-1-3-2-6-4ZM264,826c-8-2-15,0-22,3-3,1-3,3-2,7,1,3,3,3,5,2,5-2,1-4,15-6,2,0,4-2,4-5ZM87,416c0,11,4,16,16,21,2-1-7-2-16-21ZM601,743c0,0,0-1,0-2-9-1-19,0-27,3,0,0-1,2-1,3,0,1,1,3,2,3,1,0,3,0,5,0,5,0,11-2,16-3,2,0,4-2,6-4ZM303,722h-2c0,2,0,3,0,4,1,6,3,12,5,18,1,5,3,1,5,15,0,2,3,3,5,2,0,0,0-3,0-4-3-1-6-2-1-3,0-2-2-4-3-6ZM591,714c-4,1-8,2-12,3-5,1-1,2-15,3-2,0-4,1-3,4,0,0,2,1,4,1,6,0,13-1,19-2,2,0,4,0,6,0,2,0,3-2,3-4,0-1-1-3-2-4ZM423,582s0,0,0,0c7,4,13,8,2,12,0-8-8-16-23-21,0,4,2,7,2,1ZM569,738c8-1,16-2,24-3,0,0,1,0,1,0,0,0,2-2,2-3,0,0-2-2-3-2-8,0-17,0-25,4-1,0-2,2-2,3,0,0,2,1,2,2ZM186,61c-1-7-19-12-29-16,0,0-2,0-4,2,3,2,4,3,6,4,5,3,11,5,16,9,3,2,6,3,11,1ZM306,765c-1-7-4-14-6-21-2-7-3-14-8-19,0,3,0,7,1,1,2,9,5,17,7,25,0,2,1,5,6,5ZM92,439c0,3,0,5,2,7,4,5,8,11,12,16,0,1,2,2,4,3,1-11-4-19-17-25ZM233,805c0,0,0,1,0,2,1,0,2,0,4,0,5-1,11-2,16-3,1,0,3,0,4-2,0,0,2-2,1-3,0-1-2-3-3-3-8,2-16,5-23,9ZM76,372c0,3,0,6,2,7,5,5,1,9,15,14,2-1-4-17-17-21ZM24,78s0,0-1,0c0,4,1,7,2,1,5,3,9,5,14,8,2-5,1-8-3-11-4-3-8-5-12-7ZM87,355c0-4,0-7-2-1-4-5-1-9-16-13,0,4-1,7,2,8,2,0,3,2,5,4,4,3,7,6,11,1ZM602,755c-8-2-16,0-24,2-3,1-3,3,0,6,9-2,17-3,25-8ZM266,5c-8-1-18-13-28-17-1,0-3,0-6,0,11,6,2,12,29,17,0,0,2,0,4,0ZM615,798c-2,0-3-1-5-1-6,0-13,2-19,3-3,0-3,3-2,6,8,0,21-4,26-8ZM586,79c0,3,0,4,3,3,8-1,16,0,22-6,0-4-3-4-5-3-7,2-13,4-2,6ZM272,731c0,9,7,33,12,37,0-6-9-33-12-37ZM426,589c0,8,1,16,21,18,0-3,0-4-2-6-6-4-12-8-19-12ZM592,707c-2-1-3-3-4-2-1,0-19,5-29,9,4,2,17,0,33-6ZM146,675c0-7-4-12-13-16-1,8,4,14,13,16ZM152,697c0-9-6-16-14-16,0,8,3,12,14,16ZM168,733c-8-4-13-11-22-13,0,2,0,4,1,5,4,4,9,7,13,1,2,1,5,2,7-1ZM143,656c0-1-4-15-13-14,0,6,5,11,13,14ZM324,902c-15,0-29,3-43,8,0,0,0,0,0,1,14-3,28-7,42-1ZM106,517c-2,9,0,1,9,16,2-2,3-5,0-7-3-3-5-7-1-9ZM422,563c4,6,14,12,19,13,0,0,0-2,0-3-5-4-1-8-15-12,0,0-2,0-4,1ZM125,582c0-8-4-13-11-16,1,14,0,12,11,16ZM263,732c0,11,6,21,1,31-4-1-4-22-1-31ZM117,556c1-7-2-14-9-17,0,7,0,14,9,17ZM131,601c0-2,0-4-1-5-4-3-6-8-11-9,0,8,2,11,12,14ZM606,778c-8-3-19,0-22,7,8-2,15-5,22-7ZM249,752c5,8,11,16,16,24,0,0,0,0,1,0-4-9-8-18-17-23ZM42,527c-5-7-11-1-17-14,2,7,9,12,17,14ZM602,768c-6-2-17,0-2,5,8,2,13-3,2-5ZM52,244c0,3,0,4,0,5,5,4,1,7,15,11-4-6-8-12-16-16ZM244,761c-3-6-8-9-13-8,4,4,8,7,13,8ZM499,67c0,4,0,7,2,1,0,0,2,1,3,0,0,0,1-2,1-3,0-3-1-7-6-8ZM489,67c0,4,0,9,3,13,0,0,1,0,3,0-1-5-2-1-6-13ZM436,563c1-4,0-6-2-7-1,0-4,0-7,1,4,3,6,4,9,6ZM421,694q3,6,7,3t-7-3ZM149,732c0,0-1,0-2,1,1,2,2,5,4,6,1,1,3,0,4-3-2-2-4-3-6-5ZM456,686c1,3,3,5,6,4,0,0,1-2,0-3-1-3-3-3-6,0ZM479,669c0,4,2,7,4,9q0-6-4-9ZM448,694c1-1,2-3,2-3,0-1-2-3-3-4,0,0-2,2-2,3,0,1,2,2,3,4ZM272,793s0,0-1,0c0,3,1,7,5,9-1-3-2-6-3-1ZM374,706c-4-2-6-2-8,0,2,2,4,2,8,0ZM411,695q1,6,4,5c0-1,0-2-1-3,0,0-1,0-3-2ZM401,697q0,4,2,6c2-3,0-4-2-6ZM379,704c0,2,2,3,4,2,0,0,0-2,0-2-1-2-3-1-4,0ZM392,705c0-1,2-2,2-2,0,0-1-2-2-2,0,0-2,1-2,2,0,0,0,2,2,3ZM471,687c0,0,1,0,2-1l-3-4s0,0-1,1c0,1,2,2,3,4ZM311,72s0,0,0,1c0,0,1-1,2-2,0,0,0,0,0,0,0,0-2,0-2,1ZM436,694s0,0,0,0c0,0,0-2,0-3,0,0,0,0-1,0,0,0,0,2,1,2Z"/>
      <path class="cls-2" d="M419,61c0,4-1,6-5,7-9,4-18,8-27,11-19,7-39,12-58,19-23,7-47,12-71,18-11,3-22,6-32,9-6,2-13,3-19,5-1,3-2,5-3,8-7,2-1,0-12-6-2-5-3-1-5-15-5-19-1-38-15-57-2-8-4-16-6-25-3-13-6-25-9-38-1-5,0-6,4-7,14-5,28-1,43-13,14-3,27-5,41-8,8-2,17-3,25-5,7-2,15-4,22-6,2-5,4-1,6-15,3,0,5-2,8-2,4-1,8-2,12-3,11-2,22-3,33-5,5,0,5-1,7,4,2,5,4,11,6,16,6,21,11,43,17,64,3,1,6,2,8,3,1,5,2,1,3,15ZM157,548c-5,0-5,3-5,6,1,9,2,18,3,27,2,13,2,25,7,37,2,6,5,13,11,17,13,9,27,0,32-9,1-2,2-5,2-8,0-6-2-12-6-16-6-6-12-11-22-8-3,1-5,3-8,4-2,1-4,2-7,4,0-3-2-6-2-8-1-9-2-18-3-27,0-7-2-13-3-2ZM231,602c0,0,0,1,0,2,0,11,7,18,17,2,1,2,18-2,24-1,2-3,3-5,3-8,0-12-5-21-14-28-4-4-12-4-17-2-1,6-14,15-15,26ZM348,568c1,0,2,0,2,0,2,0,4,0,6,0,1-1,15-9,12-18,0-1,0-3-1-4-4-9-13-11-19-3-1,1-2,3-3,4-2,5-3,11-4,16-3,12,3,2,12,27,4,3,9,5,14,2,3-1,7-3,1-4,4-1,4-5,2-7-2-2-4-2-7,0-3,3-6,5-1,4-8,0-15-7-16-16ZM299,581c0-5,0-1,5-15,3-3,5-3,8-1,1,1,3,3,3,4,6,1,1,2,1,31,0,1,0,3,1,4,1,1,3,2,5,2,0,0,2-3,2-4,0-3,0-5-2-8-2-5-4-1-5-15-2-7-6-13-1-19-2-3-6-4-9-4-7,0-13,5-15,12-3,1,0,21,0,31,0,3,1,5,2,8,1,3,5,4,7,3,2-1,3-3,0-7-4-6-5-13-5-22Z"/>
      <path class="cls-2" d="M313,204c-9,6-19,8-28,1-13,3-27,5-4,7-14,2-29,4-44,6-2,3-4,7-6,1-5,0-11,1-17,3-11,2-22,5-33,7-1,2-13,0-15-1-2-13-4-25-7-38-2-12-4-24-6-36-1-1-2-19-2-29,0-1-1-21-2-31,0-5,0-7,6-7,4,0,7-1,11-2,2-4,39-8,59-11,13-2,26-4,39-6,19-2,38-4,58-6,13-2,26-2,38-5,1,0,2,0,3,0,9-1,11,0,13,9,4,24,11,48,13,73,0,0,0,1,0,2,3,14,7,28,1,42,1,5,2,9,2,14ZM102,155c4,0,7,0,9-2,5-1,1,0,15,2,6,3,6,6,2,12-7,9-14,18-2,27-3,5-5,1-4,16,2,1,1,13,17,6,14-13,19-3,17-49,0-6,1-9,6-13,1,3,2,5,4,8,1,3,4,5,7,4,7-2,14-1,14-17,0-5,0-9,0-15,3-1,6-3,1-5,0,4,0,6,0,8,0,4,1,9,3,13,2,4,6,6,9,4,5-3,1-6,11-13,0-5,0-9,0-14,0-2,0-5,1-6,3-3,6-6,11-7,0,3,0,5,0,7,0,5,0,1,0,15,0,2,0,5,3,6,3,0,4-2,4-5,1-4,2-8,4-12,3-9,8-16,15-23,2-2,4-3,7-5,0,2,1,4,1,5,0,4,0,7-1,11-2,13-5,27-7,4-2,12-1,24,2,36,1,4,3,7,5,1,3,5,8,6,13,4,9-3,17-17,17-27,0-5-2-1-6-13-2-2-4-2-6,0-2,2,0,4,2,5,5,3,6,8,4,12-1,5-4,9-7,13-6,8-13,4-17-3,0-1-1-3-2-4,0-9-3-18-2-26,1-14,5-27,7-41,1-7,3-13,3-2,0-6-4-9-1-7-2,0-3,2-5,3-5,6-11,11-14,19,0,2-1,4-5,4,0-3,0-6,0-8-1-6-6-8-1-4,0,0-2,2-2,2-5,3-9,9-16,6,0,0,0,0-1,0-6,3-13,6-19,1-4,2-8,5-13,3,0,0-2,0-4,1-4,2-5,7-7,11-2,6-6,11-11,15-3-3-6-5-1-7-4-2-8-2-12-4,0-2,1-3,2-4,3-7,6-15,9-22,1-4,0-8,0-12-2-5-6-6-1-2-1,1-2,3-4,5,0,0-1,0-2,1-2,0-3,0-6-2-1,3-2,6-3,8-4,12-8,25-23,27,0,0,0,0,0,0,0,0-2,2-2,3,0,1,0,3,2,3,2,0,4,0,5,0,5-1,9-4,12-8,1-2,2-3,4-5,0,1,1,2,1,2-2,17-2,34-6,5,0,2,0,5,0,8,0,0,2,2,3,2,0,0,2-1,2-2,0,0,0-2,0-3,0-11,2-23,3-34,0-2,0-4,1-6Z"/>
      <path class="cls-2" d="M362,397c-14,6-28,1-42,13-9,1-17,4-25,7-22,6-43,12-65,17-26,6-51,11-77,17-5,1-9,2-14,4-2,0-5,1-7,1-7,0-7,0-8-7,0-4-2-7-3-11-3-13-6-26-8-39-2-8-2-17-4-25-2-12-4-25-5-37,0-4,0-7-1-11,0-4,2-6,5-7,2,0,4,0,7-1,21-3,42-7,63-9,26-3,52-6,78-9,9-1,19-3,28-5,2,0,4,0,7,0,9-1,18-2,26-3,6,0,11,0,16,0,3,0,5,3,5,5,6,22,11,43,17,65,3,11,5,21,8,32,0,1,0,2,0,4ZM141,378c2-4,4-6,5-9,2-4,4-8,6-13,3-9-3-12-9-13-6,0-11,0-16,3-8,4-9,9-8,17,3,15,6,3,1,45,0,4,0,8-4,12,2,1,4,3,5,3,11,0,24-1,29-15,4-12,0-23-12-27-2,0-4-1-7-2ZM222,357s0,0,1,0c2,2,4,4,6,6,1,11,19,22,31,31,4,3,7,4,9,3,2-2,2-6,0-1-6-11-12-22-15-35-2-6-3-12-5-18,0-3-2-4-6-4,0,2,0,4,0,5,0,3,2,5,3,8,5,13,9,25,14,38,0,2,0,3,1,5-4-1-6-3-9-6-8-9-16-17-24-26-3-3-5-6-8-9-1-1-3-1-4-2,0,2-2,4-1,5,0,3,2,5,3,8,4,17,11,34,12,53,0,1,2,3,3,4,3,0,3-2,2-4-2-11-5-21-7-32-2-6-4-13-5-19ZM176,343c0,2-2,5-2,7-2,2-2,4,0,6,0,2,0,4,1,5,0,1,3,2,4,2,1,0,2-2,3-4,0-1-1-2-1-4,0-3-2-7-2-1,0-4,1-6,4-7,5-2,1-4,16-6,2,4,4,7,5,11,2,5,3,1,4,15,0,1,3,3,4,3,2,0,4-2,3-5,0-1-1-3-2-4-3-8-9-16-8-25,0,0,0-2,0-2-5-5-7-12-1-18-4-7-8-13-17-16ZM28,352c-3-6-5-14-5-18,0-2,0-4,1-5,3-6,9-8,15-9,1,0,3,0,4,0,0,0,2-2,2-3,0,0-1-2-2-2,0,0-2,0-3,0-19,4-26,8-22,29,0,0,0,2,0,3,3,7,5,15,8,22,0,2,1,5,2,8,1,4,2,8,4,12,3,5,6,5,11,2,3-2,7-4,1-7,1-1,3-2,4-4,0,0,0-2,0-4-1,0-3,0-4,0-3,2-6,4-9,5-5,2-7,0-9-4,0-4-2-8-3-12-2-6-2-6,4-9,0,0,2,0,3-1,3-1,6-2,9-3,3-1,4-3,3-6-1-2-3-3-6-2-4,2-9,4-13,6-1,0-3,0-4,1ZM328,367c-2,2-3,3-3,5,0,2,0,4,3,4,2,0,4-1,4-3,0-2-2-3-4-5Z"/>
      <path class="cls-2" d="M555,78c2,6-2,9-6,11-9,4-18,8-27,11-3,7-6,14-9,21-8,2-16,3-23,5-7,1-14,2-22,3-12,2-24,5-36,8-13,3-26,5-39,3-3,0-5-1-8-2-4-1-7-4-9-8-4-7-6-14-8-21-1-5-3-11-5-16-2-7-1-8,5-11,8-3,17-4,25-5,5,0,1-3,15-6,4-2,2-6,0-1,0-4-2-7-4-11,0-1,0-2,0-3-1-9,0-12,9-14,15-4,3-7,45-11,13-3,25-6,38-8,5-1,11-1,16-2,13-2,26-5,39-7,17-3,34-6,51-9,5,0,5,0,7,4,4,1,8,19,12,29,5,13,9,25,13,38,1,4,1,8,2,12ZM482,729c0,0,1,0,2,0,1,2,2,4,3,6,5,11,9,23,11,35,0,3,1,5,3,8,0,1,3,2,4,2,1,0,2-2,2-3,0-1,0-3,0-5-2-7-4-14-6-22,0-3-1-5-2-8-4-9-7-19-11-28-1-3-2-5-5-5-3,0-4,3-4,6,0,8-1,15-2,23,0,2-1,4-2,8-3-2-5-3-7-5-4-4-9-7-12-12-1-2-4-4-6-3-1,0-1,4-2,6,0,0,0,0,0,0,2,12,4,24,6,35,1,6,4,13,6,19,0,2,2,3,4,2,1,0,2-3,2-4,0,0,0-1,0-2-2-6-5-12-6-18-2-7-2-14-3-22,0,0,0-1,1-2,2,2,5,3,6,5,3,4,6,6,11,8,5,2,7,0,8-5,0-1,0-3,0-4,0-5,1-11,2-16ZM447,775c0-14-4-25-13-35-4-4-9-6-14-8-3,0-1,2-11,5-7,12-9,37,5,5,7,6,14,7,22,7,0,0,2,0,2-1,6-5,1-11,1-18ZM396,781c-1,2-2,4-3,6-2,2-4,3-6,4-9,2-19-7-21-13-3-1-3-2,4-29,4-5,7-5,11-1,0,0,1,2,2,2,1,0,3,0,4,0,0-2,1-4,0-5-3-5-7-8-13-9-3,0-5,0-8,3-9,9-13,31-6,42,5,1,13,15,23,17,9,2,15-2,17-1,1-4,0-6-5-8ZM333,809c6,0,1-4,11-1,0-4-7-11-11-11-3,0-7,5-8,1,0,7,3,11,8,11Z"/>
      <path class="cls-2" d="M536,696c3-1,4-2,6-2,2,0,4,0,5,2,0,3,2,5,3,8,4,14,7,28,12,42,3,1,7,19,11,28,2,6,4,13,6,2,1,6-2,11-7,13-12,4-24,9-36,12-23,6-46,1-69,15-14,3-28,5-41,8-15,3-29,6-44,9-11,2-22,2-32,3-1,0-19,1-29,2-6,0-11,0-17,0-7-1-13-5-16-11-4-9-8-18-7-28,1,4,2,7,3,11,2,4,4,8,6,12,4,7,1,1,18,11,14,2,27,1,41-1,4,0,8,0,11,0,6,0,12-1,17-2,9-2,17-4,26-6,8-2,15-5,23-6,16-4,32-7,47-11,16-4,32-8,47-11,12-2,23-7,33-12,0,0,0,0,1,0,8-4,9-5,8-14-3-19-7-37-14-55-4-11-8-22-12-34Z"/>
      <path class="cls-2" d="M259,904c22-9,44-14,67-18,2-4,4-8,6-12,16-3,33-6,49-1,22-5,43-1,65-15,2-5,41-1,61-14,13-3,25-5,38-8,5-1,1-3,15-5,2,0,4,0,7,0v2c-2,1-4,3-6,4-2,7-4,12-61,16-21,4-42,1-62,15-31,8-62,15-93,21-16,3-32,7-48,1-9,2-19,3-28,5-14,2-28,5-42,1-5,2-1,2-16,3-2,0-4,0-5-3Z"/>
      <path class="cls-2" d="M617,81c1,3,0,5-2,5-5,2-11,3-16,5-1,3-21,5-31,7-19,5-39,9-58,14-15,4-31,8-46,11-16,4-32,7-48,1-2,4-41,8-61,12-15,3-3,6-45,9-11,2-22,5-32,8-5,1-1,3-15,4-1,0-3,0-5,0-3,0-4-4-2-6,1-1,3-2,4-2,7-2,14-5,22-7,13-3,27-6,4-8,13-2,27-4,4-6,5,0,1-2,14-3,5,0,9-2,14-3,7-1,15-3,22-4,17-3,33-6,5-9,7-1,13-3,2-4,12-2,23-5,35-8,8-2,16-3,25-5,2,0,4-1,6-2,3-1,6-2,9-3,6-2,12-3,18-5,1,0,3,0,5,0,1,0,3,0,3,0,3-5,8-5,13-6,7-2,13-4,21-3Z"/>
      <path class="cls-2" d="M339,269c-4,2-7,2-11,0-12-5-22-12-32-18-7-5-15-1-22-16-1,0-2-2-4-4,8-2,14-4,21-4,3,0,6,2,8,4,12,1,24,2,35,31,2,2,3,4,5,6Z"/>
      <path class="cls-2" d="M305,225c4,0,7,2,1,4,2,1,3,3,5,4,14,11,28,23,42,34,6,5,11,12,15,19,1,2,1,6,2,1-8-3-13-8-18-13-16-16-32-32-48-47-3-3-6-6-9-1,0,0,0,0,0-1Z"/>
      <path class="cls-2" d="M298,485c-5,2-9,3-15-1-5-4-11-8-16-12-9-8-18-17-28-25,4-3,9-3,12-4,9,6,17,12,25,17,9,6,16,14,22,22,0,0,0,1,0,3Z"/>
      <path class="cls-2" d="M277,489c-1,0-2,1-2,1-14,3-13,3-24-7-1-9-19-18-29-27-2-2-3-3-5-6,6-2,11-5,16,0,15,8,26,19,38,3,2,2,4,5,6,7Z"/>
      <path class="cls-2" d="M249,237c5-4,1-4,15-4,0,7,5,1,11,1,2,0,4,2,5,3,12,8,23,16,34,24,0,0,1,2,2,3-2,3-6,2-9,3-3,0-5,0-7-3-3-3-8-4-12-7-11-8-23-16-34-24-2-1-4-3-6-6Z"/>
      <path class="cls-2" d="M469,618c1,2,2,3,3,5,5,13,15,2,28,25,11,4,22,8,3,16,3,3,5,5,7,8-6,5-8,5-12,0,0,0-2-1-2-2-4-8-12-1-19-11-7-1-13-3-2-6-3-2-6-4-7-7-2-5-7-9-8-15,0-4-2-9-2-13h2Z"/>
      <path class="cls-2" d="M244,285c-4,0-8,2-12,2-2,0-4,0-5-2-13-1-26-21-39-31-2-1-4-3-6-5,5-3,1-3,14-3,4,3,7,6,11,8,1,7,2,15,3,22,3,2,6,4,8,6,0,0,0,1,0,2Z"/>
      <path class="cls-2" d="M207,244c3,0,6-2,1-2,1,0,3,0,4,0,12,1,25,19,37,29,3,2,6,5,1,8-7,2-11,4-16,0-14-1-27-2-41-3-2-1-3-3-4-5,0,0,0-1,0-2Z"/>
      <path class="cls-2" d="M419,483c-6-2-63-57-68-64,4-2,7-2,1,0,15,12,29,25,42,39,2,2,3,5,5,7,1,1,2,3,4,4,6,2,6,7,7,13Z"/>
      <path class="cls-2" d="M194,292c-8,2-14,2-21-3-1-9-2-16-3-24-2-2-4-4-7-7,5-1,9-2,13-3,0,0,2,0,2,0,15,11,3,21,43,34,0,0,0,0,0,2Z"/>
      <path class="cls-2" d="M191,507c-6,3-1,4-15-1-15-7-23-21-35-31,0,0-1-2-2-3,0,0,0,0,0-2,5-2,9-3,14,0,11,7,21,16,3,25,3,3,5,7,8,11Z"/>
      <path class="cls-2" d="M219,289c-7,2-13,3-19-2-12-11-26-2-39-3,0,0-1-2-3-3,5-2,9-3,14,0,17,8,31,21,45,33,0,0,0,1,1,3Z"/>
      <path class="cls-2" d="M293,278c-6,0-11,1-16,2,0,0-2,0-3-1-7-9-17-14-26-21-7-5-14-1-2-16,4-1,7-2,11-3,2,5,6,7,1,7,2,0,4,2,5,3,12,8,23,17,35,25,0,0,2,2,4,4Z"/>
      <path class="cls-2" d="M232,498c-7,4-12,2-17-2-11-1-23-2-34-3-1-1-2-2-4-4,6-3,1-3,16,0,12,9,23,18,33,28,2,2,3,4,5,7Z"/>
      <path class="cls-2" d="M168,512c-8,5-11,5-16-1-5-6-11-11-17-16-4-4-7-7-11-11-2-2-3-4-4-6,5-5,7-5,12-1,8,7,17,15,25,23,4,4,7,8,11,12Z"/>
      <path class="cls-2" d="M262,44c3,0,6-1,9-2,18,12,34,25,47,41-7,4-9,4-14-1-11-1-23-2-34-3-2-2-5-4-7-7,0,0,0-1,0-2Z"/>
      <path class="cls-2" d="M356,47c-6,3-7,3-11,0-2-2-4-3-6-4-15-9-28-22-41-33,7-4,9-4,14,0,3,2,6,4,9,6,13,7,23,18,34,28,0,0,0,1,2,3Z"/>
      <path class="cls-2" d="M93,266c9-6,15,0,2,3,11,8,2,17,3,25,1,1,2,3,4,5-5,0-9,2-13,2-1,0-3,0-3-2-9-11-2-19-31-27-2-2-5-4-7-6Z"/>
      <path class="cls-2" d="M158,466c5-3,9-3,13,0,11,9,22,18,33,28,3,2,5,5,8,8-8,4-9,4-13-1-1-1-3-3-5-3-4,0-6-4-9-6-7-7-14-13-2-19-2-2-4-4-6-6Z"/>
      <path class="cls-2" d="M106,304c-4,3-7,2-1,0-11-8-22-17-31-27,0,0-2-2-3-2-6-2-6-7-5-11,3-2,6,0,8,1,2,1,5,3,7,5,11,1,21,2,32,3,1,1,2,2,3,4Z"/>
      <path class="cls-2" d="M252,493c-6,4-9,3-14-1-12-11-24-21-36-32-1,0-2-2-3-3,6-5,7-5,13,0,5,5,11,9,16,13,7,6,14,13,21,19,1,0,2,2,3,4Z"/>
      <path class="cls-2" d="M37,465c-3,3-6,2-9,0-4-3-8-6-12-1-8-7-17-14-25-22-2-2-5-3-4-7,3-2,6-2,1,0,11,7,21,15,3,24,4,4,8,8,11,13Z"/>
      <path class="cls-2" d="M114,262c7-3,12-1,16,3,3,2,5,4,8,5,4,1,7,4,1,7,7,6,15,11,2,18-6,4-8,3-14,0-11-6-2-16-3-23-4-3-7-6-11-9Z"/>
      <path class="cls-2" d="M336,475c-7,4-1,4-15-1-9-8-18-17-27-26-4-4-8-7-12-11,5-4,5-4,9,0,7,5,13,1,2,15,7,5,13,1,2,15,3,2,4,4,5,8Z"/>
      <path class="cls-2" d="M147,517c-3,1-6,2-8,3-1-1-2-3-3-4-1-2-3-4-4-6-1-11-2-22-31-33-4-4-5-8-5-13,1,0,2,0,3,0,4,4,8,7,11,11,11,14,26,25,37,41Z"/>
      <path class="cls-2" d="M274,29c4-3,7-3,11,0,1,6,2,13,3,2,6,4,7,1,9,17-2,0-3,0-4,0-6-5-13-9-19-15-4-5-1-7-15-1-4-3-9-5-12-1Z"/>
      <path class="cls-2" d="M43,673c-6,3-1,3-15,0-1-6-19-12-29-18-3-2-5-4-8-7,3-3,6-4,9-3,2,0,5,2,7,3,11,7,22,14,33,21,0,0,1,2,3,3Z"/>
      <path class="cls-2" d="M375,687c-5,3-8,3-13,1-1-5-2-11-29-18-3-2-6-5-1-8,3-4,6-4,1-2,11,5,21,11,31,19,3,3,7,5,11,8Z"/>
      <path class="cls-2" d="M319,159c4,3,8,5,11,8,6,5,13,11,19,17,5,5,8,1,7,18-5-4-1-8-14-12-5-4-9-11-15-13-7-3-7-9-8-14,0,0,0,0,0-1,0,0,0,0,0-2Z"/>
      <path class="cls-2" d="M79,27c4-3,8-4,11,0,11,1,22,19,33,29,0,0,1,2,2,3-5,2-1,2-14-1-3-3-7-6-1-9-7-7-14-13-22-2Z"/>
      <path class="cls-2" d="M367,25c-5-4-1-7-14-1-6-5-12-11-18-16-4-4-7-8-5-14,1,0,2,0,3,0,12,8,23,16,31,28,2,3,4,6,3,12Z"/>
      <path class="cls-2" d="M39,352c-6-1-8-5-11-8-6-6-12-13-18-19-5-5-5-11-5-17,8,7,17,12,23,22,1,2,2,4,4,5,7,4,6,1,7,17Z"/>
      <path class="cls-2" d="M395,38c-2-2-5-3-7-5-7-7-14-15-21-22-2-2-3-4-4-7-1-3-1-6-2-1,2,0,3,1,4,2,7,7,14,15,21,22,0,0,0,2,2,2,8,4,6,11,8,17,0,0,0,0-1,1Z"/>
      <path class="cls-2" d="M272,677c4-3,7-3,11-1,2,1,4,2,6,3,9,6,19,12,28,18,0,0,2,1,3,2-5,3-9,6-14,0-12-3-21-12-3-19-1,0-2-2-4-4Z"/>
      <path class="cls-2" d="M414,458c-1,0-2,0-3-1-14-13-28-27-42-41,2-1,4-3,6-4,4,3,7,6,1,9,5,5,1,9,15,14,2,2,3,4,5,6,2,2,3,5,5,7,3,3,4,4,3,1Z"/>
      <path class="cls-2" d="M377,392c2,2,4,3,6,5,7,6,15,13,2,21,3,4,4,9,4,14-2,0-3,0-3-1-7-7-14-14-22-2-6-5-5-11-6-18Z"/>
      <path class="cls-2" d="M373,269c-8-4-5-39-54-47,2,0,4,0,5,1,7,4,15,8,21,15,5,5,12,1,17,15,4,4,7,8,1,13,0,0,0,2,0,3Z"/>
      <path class="cls-2" d="M361,224c-2-1-3-2-5-3-8-6-16-13-24-19-1,0-2-1-4-2,0,0-2-1-2-2-1-4-2-8-3-12,4,0,7,2,9,4,6,5,12,1,17,15,4,3,7,7,1,11,2,2,2,5,2,8,0,0,0,0-1,0Z"/>
      <path class="cls-2" d="M305,97c6,0,11,3,15,6,4,3,9,7,13,11,5,5,6,11,7,18,0,0,0,0-1,0-3-3-7-6-1-9-3-3-7-6-1-9-3-3-6-4-1-3-1-5-2-1-3-15Z"/>
      <path class="cls-2" d="M384,326c-2-1-4-2-5-3-8-8-16-16-24-25-4-5-6-1-5-18,4,4,6,6,9,9,6,7,13,14,19,2,5,5,7,1,6,17Z"/>
      <path class="cls-2" d="M399,643c3-4,7-4,1-2,12,8,24,17,36,26,0,0,0,1,2,3-2,0-3,0-5,0-15-6-29-15-42-25,0,0,0-1-1-2Z"/>
      <path class="cls-2" d="M217,693c5-3,8-3,12-1,3,1,5,3,8,5,8,5,15,1,23,15,0,0,1,1,2,2-3,3-7,4-11,2-1-4-18-9-26-15-3-2-5-5-8-7Z"/>
      <path class="cls-2" d="M361,651c4-2,7-2,11,0,1,7,21,13,31,2,3,2,5,4,9,6-4,2-7,4-11,1,0,0-1,0-2-1-15-5-26-16-37-25,0,0,0,0,0-1Z"/>
      <path class="cls-2" d="M385,461c-3,0-5,0-6,0-4-2-8-4-11-7-1-9-2-19-3-29,0,0,0-1-1-2,3-2,5-2,8,0,13,11,25,22,37,33,0,0,1,2,3,5Z"/>
      <path class="cls-2" d="M391,683c-4,1-8,1-11,0-5-3-1-6-14-1-5-4-1-7-15-11-2-2-4-3-7-5,4-2,7-4,1-2,13,9,25,18,37,26,0,0,0,1,0,2Z"/>
      <path class="cls-2" d="M337,696c-2,0-4,0-6,0-12-5-24-11-34-19-2-2-4-4-7-7,4-1,7-2,11-3,1,0,3,0,4,1,8,1,19,15,3,22,1,0,2,2,4,3,0,0,0,1,0,2Z"/>
      <path class="cls-2" d="M299,705c-8,4-8,4-13,0-1,0-3-1-4-2-1-4-19-11-27-18,0,0,0,0,0-1,6-5,8-4,13,0,8,6,16,12,24,17,2,1,4,3,7,5Z"/>
      <path class="cls-2" d="M403,407c-3-1-4-2-5-3-8-8-15-15-23-23-5-5-6-7-5-16,2,1,3,2,4,3,6,6,13,13,19,19,0,0,1,2,2,2,7,3,6,1,7,17Z"/>
      <path class="cls-2" d="M349,176c-2-2-5-3-7-5-7-6-15-13-22-19-5-4-6-8-6-14,4,0,7,3,9,5,7,6,14,13,21,19,0,0,2,1,2,2,0,5,3,7,5,11h-1Z"/>
      <path class="cls-2" d="M31,117c4,2,8,4,11,7,6,6,12,11,19,17,3,3,5,7,5,13-2,0-3,0-4-2-5-4-1-9-15-13-4-3-8-6-12-9-5-3-4-7-4-13Z"/>
      <path class="cls-2" d="M46,665c-17-5-29-17-44-26,5-3,9-3,12-1,1,6,19,13,29,2,2,1,5,3,2,7Z"/>
      <path class="cls-2" d="M236,687c6-4,6-4,11-1,9,6,18,12,27,18,2,1,3,2,5,4-2,3-4,3-6,2-6-2-11-4-16-7-5-3-1-7-15-1-2-1-4-4-5-5Z"/>
      <path class="cls-2" d="M123,525c-1-11-22-2-22-38,6,6,11,11,16,16,5,5,1,1,12,18-2,1-3,2-5,4Z"/>
      <path class="cls-2" d="M32,125c4,0,7,3,1,5,3,2,5,5,6,9,0,5,2,11,3,16,0,0,0,0-1,0-3-2-6-5-9-6-7-4-9-9-9-17,0-2,0-4,0-7,0,0,0,0,0-1Z"/>
      <path class="cls-2" d="M182,704c6-3,1-2,14,0,8,6,17,12,27,18-2,1-3,2-4,2-4,0-9,0-13-3-7-4-14-1-21-15-1,0-2-2-3-3Z"/>
      <path class="cls-2" d="M308,667c5-3,8-3,12,0,8,6,16,11,24,16,6,4,7,4,1,9-5,0-1,0-13-3-11-7-23-13-33-23Z"/>
      <path class="cls-2" d="M61,281c1,7,19,17,29,25-4,2-6,3-1,4-3-3-7-6-11-9-2-2-3-5-7-5,0,0-2-2-2-3,0-4-1-8-2-12,0,0,1,0,2-1Z"/>
      <path class="cls-2" d="M143,701c6,2,36,24,4,29-3,2-6,3-9,0-8-6-16-12-24-18-2-1-3-3-5-5-2-2-3-4-2-7Z"/>
      <path class="cls-2" d="M2,7c6-5,7-5,12-1,9,6,18,12,27,18,0,0,1,1,3,3-2,0-4,2-5,1-6-2-12-3-17-7-5-4-1-7-15-1-2-1-3-3-5-4Z"/>
      <path class="cls-2" d="M208,37c9-3,12-4,22,1,8,4,15,9,23,13-6,2-11,3-16,0-7-3-13-7-2-1-3-2-7-3-1-5Z"/>
      <path class="cls-2" d="M39,62c-1,6-1,6,3,8,4,1,7,3,9,6-5,6-1,7-16,3-4-2-7-5-11-8-1-1-3-3-5-5,7-2,13-3,19-5Z"/>
      <path class="cls-2" d="M165,707c5-3,8-2,11,0,7,5,14,1,22,14,2,1,3,3,5,4-5,4-8,4-12,0-1-1-3-2-5-3-8-4-16-8-21-16Z"/>
      <path class="cls-2" d="M64,243c-12-6-19-17-17-32,12,6,19,18,17,32Z"/>
      <path class="cls-2" d="M84,334c-14-6-2-14-2-28,2-1,4,0,5,2,4,4,9,8,13,12,1,1,2,4,2,5,0,3,0,5,0,8Z"/>
      <path class="cls-2" d="M331,105c0,0,0,0,0,0-8-5-16-11-24-16-4-3-4-7-3-11,0,0,1,0,1,0,9,4,17,11,24,18,3,3,4,6,3,1Z"/>
      <path class="cls-2" d="M295,87c-5,1-1,3-15,4-7,2-14,4-21,6-5,1-5,0-7-4,7-3,13-5,2-7,4-1,7-4,11-2,4,1,8,2,12,2,0,0,0,1,0,2Z"/>
      <path class="cls-2" d="M38,173c0-6-2-11-2-16,12,1,2,13,2,28-7-2-1-1-17-11Z"/>
      <path class="cls-2" d="M41,184c13,5,21,17,18,28-13-6-19-14-18-28Z"/>
      <path class="cls-2" d="M425,507c0,0-1,0-1,0-9-9-19-19-28-28-2-2-3-5-1-9,2,2,5,4,7,6,5,4,9,8,12,12,2,3,5,5,8,8,3,3,5,6,4,11Z"/>
      <path class="cls-2" d="M79,75c-8,3-15,2-21-3-4-3-9-5-12-9,3-3,7-3,9-2,8,3,17,7,24,14Z"/>
      <path class="cls-2" d="M44,122c-6-1-11-5-15-9-4-3-4-9-3-14,11,0,18,8,18,23Z"/>
      <path class="cls-2" d="M182,4c0,5,3,7,7,8,2,0,4,1,6,2,4,2,9,5,14,8-5,2-1,3-14,0-7-4-14-8-21-12-1,0-2-2-4-4,5,0,8-2,12-3Z"/>
      <path class="cls-2" d="M166,62c-4,3-8,3-12,1-8-4-15-9-22-14,4-2,8-5,12,0,0,0,2,0,3,1,8,1,13,7,19,12Z"/>
      <path class="cls-2" d="M276,859c-8,3-15,5-23,8-1,0-2,0-3,0-1,0-3-2-3-3,0-1,0-3,1-4,6-3,12-6,19-8,5-1,6,0,9,6Z"/>
      <path class="cls-2" d="M229,55c-4,2-8,2-12,0-1-4-18-9-29-15,4-3,7-3,1-2,0,0,2,0,3,2,1,4,5,5,8,5,8,1,13,7,2,1Z"/>
      <path class="cls-2" d="M301,59c9,4,16,9,23,15,2,3,3,6,2,1-1,0-3-1-4-2-5-4-1-8-15-12-3-3-7-6-6-12Z"/>
      <path class="cls-2" d="M102,71c-4,2-7,3-11,0-5-3-11-5-16-8-2-1-4-3-7-5,6-2,9-4,14,0,5,4,11,7,16,1,0,0,2,1,3,3Z"/>
      <path class="cls-2" d="M458,651c-1-6-19-11-26-18,4-6,4-6,9-3,4,2,8,5,12,8,4,3,7,7,6,14Z"/>
      <path class="cls-2" d="M244,852c-3-7-3-7,2-9,4-2,8-3,12-5,1,0,3,0,4-1,5,0,8,0,8,4,0,4-4,4-6,5-4,2-9,3-13,4-2,0-4,1-7,2Z"/>
      <path class="cls-2" d="M252,31c5-1,1-2,15-3,0,2,0,3,0,4,0,5,0,6,5,8,5,2,1,5,15,8-4,2-8,3-1,0-8-5-16-1-24-15,0,0,0,0-2-2Z"/>
      <path class="cls-2" d="M121,69c-3,0-6,0-8,0-7-4-15-8-22-14,5-2,9-4,13,0,0,0,2,1,4,1,6,2,1,6,14,1,0,0,0,1,0,2Z"/>
      <path class="cls-2" d="M256,811c2,0,3,0,5,0,1,0,2,2,2,3,0,0-1,3-2,3-7,2-14,4-21,6-3,0-5,0-5-4,0-2,0-4,3-4,6-1,12-3,18-4,0,0,0,0,0,0Z"/>
      <path class="cls-2" d="M432,608c12,2,21,11,2,22-2,0-3-1-5-2-4-3-8-5-12-8-4-3-3-7-4-11Z"/>
      <path class="cls-2" d="M398,492c14,8,22,19,29,32-1,0-2,0-3-1-8-7-16-14-24-21-2-2-3-5-2-9Z"/>
      <path class="cls-2" d="M98,413c-4-2-9-4-13-6-1,0-2-3-3-5,0-3,0-7-1-1,11,2,17,9,17,21Z"/>
      <path class="cls-2" d="M145,66c-7,2-11,2-16,0-5-3-11-7-15-12,4-2,6-2,1,0,5,3,1,6,16,9,2,0,3,2,6,4Z"/>
      <path class="cls-2" d="M282,725c0,1,2,2,3,3,4,12,7,25,11,38-4,0-4-1-5-3-2-6-4-11-6-17-2-6-3-11-4-17,0-1,0-2,0-4,0,0,0,0,1,0Z"/>
      <path class="cls-2" d="M291,26c6-1,1-2,14-3,2,0,4,0,5,2,3,4,4,1,5,16-9-4-16-1-24-15Z"/>
      <path class="cls-2" d="M72,347c3,2,5,3,6,4,2,2,4,5,6,6,7,2,6,7,6,13-12-2-17-9-18-23Z"/>
      <path class="cls-2" d="M264,826c0,4-2,5-4,5-5,2-1,4-15,6-2,0-4,0-5-2-1-3-1-5,2-7,7-2,14-5,22-3Z"/>
      <path class="cls-2" d="M87,416c1,0,18,11,16,21-12-4-16-1-16-21Z"/>
      <path class="cls-2" d="M601,743c-2,1-4,3-6,4-5,1-11,2-16,3-1,0-3,0-5,0-1,0-2-2-2-3,0,0,0-2,1-3,9-3,18-5,27-3,0,0,0,1,0,2Z"/>
      <path class="cls-2" d="M303,722c0,2,2,4,3,6,3,1,7,2,1,3,0,1,0,3,0,4-2,1-4,0-5-2-2-5-3-1-5-15-2-6-3-12-5-18,0-1,0-3,0-4h2Z"/>
      <path class="cls-2" d="M591,714c0,1,1,2,2,4,0,2,0,4-3,4-2,0-4,0-6,0-6,0-13,2-19,2-1,0-3,0-4-1-1-2,0-3,3-4,5-1,1-2,15-3,4,0,8-2,12-3Z"/>
      <path class="cls-2" d="M423,582c0-3-2-6-2-1,15,5,24,14,23,21-7-4-13-8-2-12,0,0,0,0,0,0Z"/>
      <path class="cls-2" d="M569,738s-2-1-2-2c0-1,1-3,2-3,8-4,16-4,25-4,0,0,2,1,3,2,0,0-1,2-2,3,0,0,0,0-1,0-8,1-15,2-24,3Z"/>
      <path class="cls-2" d="M186,61c-5,2-8,0-11-1-5-3-1-6-16-9-2-1-4-2-6-4,2,0,3-2,4-2,1,3,19,9,29,16Z"/>
      <path class="cls-2" d="M306,765c-4,0-5-3-6-5-3-8-5-17-7-25,0-3-1-6-1-1,5,5,6,13,8,19,2,7,5,13,6,21Z"/>
      <path class="cls-2" d="M92,439c13,6,18,15,17,25-1,0-3-2-4-3-4-5-8-1-12-16,0-1,0-4-2-7Z"/>
      <path class="cls-2" d="M233,805c7-4,15-7,23-9,0,0,3,1,3,3,0,0,0,2-1,3-1,0-3,1-4,2-5,1-11,2-16,3-1,0-2,0-4,0,0,0,0-1,0-2Z"/>
      <path class="cls-2" d="M76,372c13,4,19,11,17,21-5-5-1-9-15-14-1-1-1-4-2-7Z"/>
      <path class="cls-2" d="M24,78c4,2,8,5,12,7,4,3,4,6,3,11-5-3-9-5-14-8,0-3,0-6-2-1,0,0,0,0,1,0Z"/>
      <path class="cls-2" d="M87,355c-4-4-8-7-11-1-1-1-3-3-5-4-4-2-3-4-2-8,6,4,12,7,16,13,2,2,2,5,2,1Z"/>
      <path class="cls-2" d="M602,755c-8,6-16,6-25,8-2-3-2-5,0-6,8-3,16-4,24-2Z"/>
      <path class="cls-2" d="M266,5c-2,0-3,0-4,0-9-5-19-11-29-17,3,0,5,0,6,0,9,4,2,7,28,17Z"/>
      <path class="cls-2" d="M615,798c-4,4-18,8-26,8-1-3,0-5,2-6,6-1,13-3,19-3,1,0,3,0,5,1Z"/>
      <path class="cls-2" d="M586,79c7-2,13-4,2-6,3,0,5,0,5,3-7,6-15,5-22,6-2,0-2,0-3-3Z"/>
      <path class="cls-2" d="M272,731c3,4,12,31,12,37-5-5-13-28-12-37Z"/>
      <path class="cls-2" d="M426,589c6,4,13,8,19,12,2,1,3,3,2,6-1-2-21-1-21-18Z"/>
      <path class="cls-2" d="M592,707c-16,6-29,8-33,6,1-4,19-8,29-9,0,0,2,1,4,2Z"/>
      <path class="cls-2" d="M146,675c-1-2-14-8-13-16,1,4,14,9,13,16Z"/>
      <path class="cls-2" d="M152,697c-1-5-13-8-14-16,8,0,14,7,14,16Z"/>
      <path class="cls-2" d="M565,7c-2,1-5,3-7,4-4-3-3-7-2-11,0-1,1-3,2-3,7-2,14-4,21-3,0,0,0,1,0,2-2,0-4,0-7,1-3,0-7,1-1,3-2,0-4,2-4,5,0,3,4,3,6,2,0,0,0,0,0,0h0Z"/>
      <path class="cls-2" d="M168,733c-2,3-5,3-7,1-5-3-9-6-13-1-1,0-1-3-1-5,8,3,14,9,22,13Z"/>
      <path class="cls-2" d="M143,656c-8-3-13-8-13-14,1,0,14,4,13,14Z"/>
      <path class="cls-2" d="M324,902c-14,3-28,7-42,1,0,0,0,0,0-1,14-6,28-8,43-8Z"/>
      <path class="cls-2" d="M106,517c4,2,7,6,1,9,2,2,1,5,0,7-9-5-1-7-9-16Z"/>
      <path class="cls-2" d="M422,563c1,0,3-2,4-1,5,4,1,8,15,12,0,0,0,2,0,3-5,0-15-7-19-13Z"/>
      <path class="cls-2" d="M125,582c-11-5-9-2-11-16,6,4,1,9,11,16Z"/>
      <path class="cls-2" d="M263,732c6,1,7,21,1,31-5-1-1-2-1-31Z"/>
      <path class="cls-2" d="M117,556c-8-3-8-1-9-17,6,3,1,1,9,17Z"/>
      <path class="cls-2" d="M131,601c-11-3-13-6-12-14,5,1,7,6,11,9,0,0,0,3,1,5Z"/>
      <path class="cls-2" d="M606,778c-7,2-14,4-22,7,3-6,14-1,22-7Z"/>
      <path class="cls-2" d="M249,752c9,6,13,14,17,23,0,0,0,0-1,0-5-8-11-16-16-24Z"/>
      <path class="cls-2" d="M42,527c-8-2-15-7-17-14,6,4,12,7,17,14Z"/>
      <path class="cls-2" d="M602,768c-7,1-13,6-2,5,4-4,14-7,2-5Z"/>
      <path class="cls-2" d="M52,244c8,4,12,1,16,16-5-4-1-7-15-11,0,0,0-2,0-5Z"/>
      <path class="cls-2" d="M244,761c-6-1-1-4-13-8,6-1,11,2,13,8Z"/>
      <path class="cls-2" d="M499,67c5,1,6,5,6,8,0,0,0,2-1,3,0,0-2,0-3,0-2-3-3-6-2-1Z"/>
      <path class="cls-2" d="M489,67c4,3,5,8,6,13-1,0-2,0-3,0-3-4-3-8-3-13Z"/>
      <path class="cls-2" d="M565,7c7-2,14-5,23-4-8,4-15,5-23,4,0,0,0,0,0,0Z"/>
      <path class="cls-2" d="M436,563c-3-2-5-3-9-6,3,0,6-2,7-1,2,1,3,4,2,7Z"/>
      <path class="cls-2" d="M421,694q5-1,7,3t-7-3Z"/>
      <path class="cls-2" d="M149,732c2,2,4,3,6,5,0,3-3,4-4,3-2-2-3-4-4-6,0,0,1,0,2-1Z"/>
      <path class="cls-2" d="M456,686c3-2,5-2,6,0,0,0,0,3,0,3-3,1-4-1-6-4Z"/>
      <path class="cls-2" d="M479,669q3,3,4,9c-1-3-4-5-4-9Z"/>
      <path class="cls-2" d="M448,694c-1-2-3-3-3-4,0,0,1-2,2-3,1,1,2,2,3,4,0,0-1,1-2,3Z"/>
      <path class="cls-2" d="M272,793c1,3,2,6,3,1-3-2-4-6-5-9,0,0,0,0,1,0Z"/>
      <path class="cls-2" d="M374,706c-3,3-5,3-8,0,2-3,4-3,8,0Z"/>
      <path class="cls-2" d="M411,695c2,1,3,1,3,2,0,0,0,2,1,3q-3,0-4-5Z"/>
      <path class="cls-2" d="M401,697c3,2,4,3,2,6q-2-2-2-6Z"/>
      <path class="cls-2" d="M379,704c1-2,3-2,4,0,0,0,0,2,0,2-2,1-3,0-4-2Z"/>
      <path class="cls-2" d="M392,705c0-1-1-2-2-3,0,0,1-1,2-2,0,0,1,2,2,2,0,0,0,1-2,2Z"/>
      <path class="cls-2" d="M471,687c0-1-2-2-3-4,0,0,0,0,1-1l3,4c0,0-1,0-2,1Z"/>
      <path class="cls-2" d="M311,72c0,0,2,0,2-1,0,0,0,0,0,0,0,0-1,1-2,2,0,0,0,0,0-1Z"/>
      <path class="cls-2" d="M436,694c0,0,0-2-1-2,0,0,0,0,1,0,0,0,0,2,0,3,0,0,0,0,0,0Z"/>
      <path class="cls-1" d="M157,548c0,6,2,13,3,2,1,9,2,18,3,27,0,2,1,5,2,8,3-1,5-3,7-4,3-1,5-3,8-4,9-3,16,2,22,8,4,4,6,1,6,16,0,3,0,5-2,8-5,1-19,18-32,9-6-4-8-11-11-17-5-12-5-25-7-37-1-9-2-18-3-27,0-3,0-6,5-6ZM2,619c0-9-4-15-12-17-3-1-6-1-9,1-2,2-5,5-7,7-3,5-3,1,0,16,3,5,8,7,13,6,6-1,12-5,14-11,0,0,0-2,0-2Z"/>
      <path class="cls-1" d="M231,602c0-11,4-2,15-26,5-3,13-2,17,2,9,8,14,17,14,28,0,3,0,6-3,8-6,7-14,11-24,1-11-2-17-9-17-2,0,0,0-1,0-2ZM269,604c0-7,0-12-5-16-4-4-1-3-14-5-1,0-4,0-5,2-5,3-7,8-8,14-1,6,0,12,6,16,5,4,12,4,18,0,5-3,9-7,8-11Z"/>
      <path class="cls-1" d="M348,568c1,9,8,15,16,16,4,0,7-2,1-4,3-3,5-3,7,0,2,2,1,6-2,7-3,1-7,3-1,4-5,2-1,0-14-2-9-7-15-15-12-27,1-5,3-11,4-16,0-2,2-3,3-4,6-7,16-6,19,3,0,1,0,3,1,4,3,9-3,17-12,18-2,0-4,0-6,0,0,0-1,0-2,0ZM349,558c6,2,8,2,11-1,3-3,4-6,2-1,0-2-2-4-4-4-1,0-4,0-5,2-3,4-4,8-5,13Z"/>
      <path class="cls-1" d="M299,581c0,8,1,15,5,22,2,4,2,6,0,7-2,1-6,0-7-3-1-2-2-5-2-8-1-1-3-21,0-31,2-8,8-12,15-12,4,0,7,1,9,4,4,6,8,11,1,19,1,5,4,1,5,15,0,3,2,5,2,8,0,1-1,4-2,4-2,0-4,0-5-2,0,0-1-2-1-4,0-11-5-22-1-31,0-1-2-3-3-4-3-2-5-2-8,1-5,4-4,1-5,15Z"/>
      <path class="cls-1" d="M102,155c0,1,0,4-1,6-1,11-2,23-3,34,0,0,0,2,0,3,0,0-1,2-2,2,0,0-2,0-3-2,0-3-1-5,0-8,4-17,4-34,6-5,0,0,0,0-1-2-1,2-3,4-4,5-3,4-7,7-12,8-2,0-4,0-5,0,0,0-2-2-2-3,0,0,1-2,2-3,0,0,0,0,0,0,15-3,19-15,23-27,0-3,2-5,3-8,2,0,4,1,6,2,0,0,1,0,2-1,1-2,2-3,4-5,4-4,8-3,1,2,1,4,2,8,0,12-2,8-6,15-9,22,0,0,0,2-2,4,4,1,8,2,12,4,3,2,6,5,1,7,5-4,9-9,11-15,2-4,3-9,7-11,1,0,3-2,4-1,5,2,9,0,13-3,6-3,13-6,19-1,0,0,0,0,1,0,7,3,11-3,16-6,0,0,2-2,2-2,5-4,9-2,1,4,0,3,0,5,0,8,3,0,4-2,5-4,3-7,9-13,14-19,1-1,3-3,5-3,6-2,11,0,1,7,0,7-2,13-3,2-2,14-6,27-7,41,0,9,1,18,2,26,0,2,0,3,2,4,5,7,11,1,17,3,3-4,5-8,7-13,2-5,0-9-4-12-2-1-4-3-2-5,2-2,4-2,6,0,4,4,5,8,6,13,0,1-8,24-17,27-6,2-1,1-13-4-2-3-4-7-5-1-3-12-4-24-2-36,2-13,5-27,7-4,0-3,1-7,1-11,0-1,0-3-1-5-3,2-5,3-7,5-7,6-12,14-15,23-1,4-3,8-4,12,0,2-1,5-4,5-3,0-3-3-3-6,0-5,0-1,0-15,0-2,0-5,0-7-5,0-8,4-11,7-1,1-1,4-1,6,0,5,0,9,0,14,0,6-5,1-11,13-3,2-8,0-9-4-2-4-2-8-3-13,0-2,0-4,0-8-4,2-7,4-1,5,0,5,0,1,0,15,0,7-7,15-14,17-3,0-6,0-7-4-1-2-2-5-4-8-4,4-6,7-6,13,2,19-3,36-17,49-7,7-15,4-17-6-1-6,0-11,4-16,6-9,13-18,2-27,4-6,4-8-2-12-5-3-1-3-15-2-3,0-5,0-9,2ZM133,169c0,0-1,0-2,0-2,3-5,6-7,9-5,7-1,14-14,22-2,4-3,8-1,12,2,4,4,4,7,2,3-2,7-5,9-9,3-6,6-12,8-18,2-6,2-12,0-18ZM189,119c-1,3-3,6-3,9,0,4-1,8-2,12,0,3,1,5,4,6,3,0,5-2,6-4,1-3,2-6,2-1,0-6-2-1-8-12ZM117,111c-7,4-8,1-1,16-2,6-3,12-3,2,9-1,16-28,13-36ZM158,133c-9,11-1,17-3,23,6-2,9-7,9-13,0-5-1-8-6-1Z"/>
      <path class="cls-1" d="M141,378c3,1,5,2,7,2,12,4,16,15,12,27-5,14-18,16-29,15-2,0-3-2-5-3,5-4,5-7,4-12-3-15-6-3-1-45-2-8,0-13,8-17,5-2,1-4,16-3,7,0,12,4,9,13-1,4-4,9-6,13-1,3-3,5-5,9ZM124,355c0,2,0,3,0,4,2,1,4,2,7,3,1,6,2,12,3,18,0,2,1,5,2,7,0,3,3,3,5,3,8-2,15-12,14-2,0-4-2-7-6-9-3,0-7-1-1-2-5,0-7-3-6-7,0-2,2-4,3-6,3-6,7-11,9-17,2-6-1-9-7-8-5,1-9,4-14,6Z"/>
      <path class="cls-1" d="M222,357c2,6,4,13,5,19,3,11,5,21,7,32,0,2,0,4-2,4-1,0-3-2-3-4,0-18-7-35-12-53,0-3-2-5-3-8,0-2,0-4,1-5,2,0,3,0,4,2,3,3,6,6,8,9,8,9,16,18,24,26,2,2,5,4,9,6,0-2,0-3-1-5-5-13-9-25-14-38,0-3-2-5-3-8,0-2,0-3,0-5,4,0,5,2,6,4,2,6,3,12,5,18,3,12,9,24,15,35,3,5,3,9,0,1-2,2-5,0-9-3-11-9-21-21-31-31-2-2-4-4-6-6,0,0,0,0-1,0Z"/>
      <path class="cls-1" d="M176,343c9,2,13,9,17,16,3,6,5,13,1,18,0,0,0,2,0,2,0,9,5,17,8,25,0,1,2,3,2,4,0,3,0,5-3,5-1,0-3-2-4-3-2-5-3-1-4-15-1-4-3-7-5-11-6,2-11,4-16,6-3,1-5,4-4,7,0,3,1,7,2,1,0,1,2,3,1,4,0,1-1,3-3,4,0,0-3,0-4-2,0-1-1-3-1-5,0-2,0-4,0-6,0-2,1-5,2-7ZM178,383c6,0,11-2,15-4,2-1,3-3,2-5-3-6-6-12-9-18-1-2-3-3-6-5-3,11-1,21-2,32Z"/>
      <path class="cls-1" d="M28,352c1,0,3,0,4-1,4-2,9-4,13-6,3-1,4,0,6,2,1,2,0,4-3,6-3,1-6,2-9,3-1,0-2,0-3,1-5,3-5,3-4,9,1,4,2,8,3,12,1,5,4,7,9,4,3-2,6-4,9-5,1,0,3,0,4,0,0,1,0,3,0,4,0,1-2,3-4,4-3,2-7,5-1,7-5,3-8,2-11-2-2-4-3-8-4-12,0-3-1-5-2-8-3-7-5-15-8-22,0,0,0-2,0-3-4-21,3-25,22-29,1,0,2,0,3,0,0,0,2,2,2,2,0,1-1,3-2,3-1,0-3,0-4,0-6,0-12,2-15,9,0,2-1,3-1,5,0,4,2,13,5,18Z"/>
      <path class="cls-1" d="M328,367c2,3,3,4,4,5,0,2-1,4-4,3-2,0-4-2-3-4,0-1,2-3,3-5Z"/>
      <path class="cls-1" d="M482,729c0,5-2,11-2,16,0,1,0,3,0,4,0,6-3,7-8,5-4-2-8-4-11-8-1-2-4-3-6-5,0,1-1,2-1,2,1,7,2,15,3,22,1,6,4,12,6,18,0,0,0,1,0,2,0,1-1,3-2,4-2,1-3,0-4-2-2-6-5-13-6-19-2-12-4-24-6-35,0,0,0,0,0,0,0-2,0-5,2-6,2-2,5,0,6,3,3,5,8,9,12,12,2,2,4,3,7,5,0-3,2-5,2-8,0-8,1-15,2-23,0-3,1-6,4-6,3,0,4,2,5,5,4,9,7,19,11,28,0,2,2,5,2,8,2,7,4,14,6,22,0,1,1,3,0,5,0,1-1,3-2,3-1,0-3,0-4-2-1-2-2-5-3-8-2-12-6-24-11-35,0-2-2-4-3-6,0,0-1,0-2,0Z"/>
      <path class="cls-1" d="M447,775c0,7-4,13-1,18,0,0-2,0-2,1-8,0-15,0-22-7-14-13-12-38-5-5,2-3,8-6,11-5,5,2,1,4,14,8,9,9,13,21,13,35ZM439,771h0s0,0,0,0c0-1-2-2-13-24,0,0-2-1-3-2-4-5-9-2-11,2-3,5-3,1-3,15,0,2,0,5,0,7,0,8,6,16,13,18,7,3,14-1,15-9,0-2,0-4,0-7Z"/>
      <path class="cls-1" d="M396,781c5,3,6,4,5,8-2,8-8,12-17,1-1-2-18-8-23-17-6-12-3-33,6-42,2-2,5-4,8-3,5,1,1,4,13,9,0,1,0,3,0,5-1,0-3,0-4,0,0,0-2-2-2-2-4-4-7-4-11,1-6,9-7,19-4,29,2,6,13,15,21,13,2,0,4-2,6-4,1-1,2-3,3-6Z"/>
      <path class="cls-1" d="M333,809c-5,0-8-4-8-11,0-5,4-11,8-1,4,0,11,8,11,11,0,5-5,1-11,1Z"/>
      <path class="cls-2" d="M2,619s0,0,0,2c-2,7-8,1-14,11-5,1-1-2-13-6-4-5-4-11,0-16,2-3,4-5,7-7,3-2,6-2,9-1,8,3,12,8,12,17Z"/>
      <path class="cls-2" d="M269,604c0,4-3,8-8,11-6,3-12,3-18,0-5-4-7-1-6-16,0-5,3-1,8-14,2-1,4-2,5-2,5,2,1,1,14,5,4,4,4,9,5,16Z"/>
      <path class="cls-2" d="M349,558c0-5,2-9,5-13,1-1,4-3,5-2,2,0,3,2,4,4,1,4,0,7-2,1-3,3-5,3-11,1Z"/>
      <path class="cls-2" d="M133,169c2,6,0,12,0,18-2,6-4,12-8,18-2,3-6,6-9,9-3,2-5,1-7-2-2-4,0-8,1-12,5-7,9-15,14-22,2-3,5-6,7-9,0,0,1,0,2,0Z"/>
      <path class="cls-2" d="M189,119c6,3,9,7,8,12,0,3-1,7-2,1,0,3-3,5-6,4-3,0-4-3-4-6,0-4,0-8,2-12,0-3,2-5,3-9Z"/>
      <path class="cls-2" d="M117,111c3,8-4,26-13,36,0-7,1-14,3-2,2-6,3-12,1-16Z"/>
      <path class="cls-2" d="M158,133c4,2,6,6,6,1,0,6-3,11-9,13-6-6-5-12,3-23Z"/>
      <path class="cls-2" d="M124,355c5-2,1-4,14-6,6-2,1,2,7,8-2,6-6,11-9,17-1,2-3,4-3,6,0,4,1,6,6,7,3,0,7,0,1,2,4,1,6,4,6,9,0,8-6,18-14,2-3,0-4,0-5-3,0-2-2-5-2-7-1-6-2-12-3-18-2-1-4-2-7-3,0,0,0-2,0-4Z"/>
      <path class="cls-2" d="M178,383c0-11-1-21,2-32,3,2,5,4,6,5,3,6,6,12,9,18,1,2,0,4-2,5-4,2-9,4-15,4Z"/>
      <path class="cls-2" d="M439,771c0,2,0,4,0,7-1,8-8,12-15,9-7-3-13-11-13-18,0-2,0-5,0-7,0-5,0-11,3-15,3-4,7-7,11-2,0,0,2,2,3,2,11,4,13,14,13,24,0,0,0,0,0,0h0Z"/>
    </g>
  </g>
</svg>