<?xml version="1.0" encoding="UTF-8"?>
<svg id="Layer_2" data-name="Layer 2" xmlns="http://www.w3.org/2000/svg" viewBox="0 0 1462 845">
  <defs>
    <style>
      .cls-1 {
        fill: #494949;
      }

      .cls-1, .cls-2, .cls-3, .cls-4, .cls-5, .cls-6, .cls-7, .cls-8 {
        stroke-width: 0px;
      }

      .cls-2 {
        fill: #000;
      }

      .cls-3 {
        fill: #70bf54;
      }

      .cls-4 {
        fill: #aaa;
      }

      .cls-5 {
        fill: #b0dcc8;
      }

      .cls-6 {
        fill: #a3a3a3;
      }

      .cls-7 {
        fill: #bdc3e3;
      }

      .cls-8 {
        fill: #fff;
      }
    </style>
  </defs>
  <g id="Layer_1-2" data-name="Layer 1">
    <g>
      <path class="cls-2" d="M1214,556c0,6,0,11,0,17,0,29,2,59,3,88,0,7,0,14,0,21,0,11,0,22,0,32,0,3,0,7,1,1,0,3,0,6,0,9,0,3-2,5-4,8-6,5-13,5-2,6-6,0-12,2-18,2-4,0-8,0-12,1-23,3-47,7-7,1-13,2-26,2-39,4-26,3-53,6-79,1-6,0-13,1-19,2-19,2-38,4-57,7-17,2-34,5-52,7-5,0-11,0-16,0-12,1-24,3-36,5-11,1-21,2-32,3-22,3-44,6-65,9-26,3-52,6-78,9-18,2-36,4-54,6-11,1-23,0-35,2-17,3-35,4-52,5-7,0-13,0-2,0-6,0-11,1-16,2-3,0-6,0-9,1-9,1-18,2-26,3-6,0-11,0-17,1-11,0-21,2-32,3-2,0-5,1-7,2-6,2-12-1-12-7-1-9-2-17-3-26-1-11-3-22-4-34-1-7-3-15-5-22,0-3-2-4-5-4-3,0-6,0-9,0-24,0-47,0-71-3,0,0-1,0-2,0-16,0-31-3-47-6-5,0-9-3-14-4-14-5-29-11-43-16-4-1-7-3-1-5-14-8-29-15-42-25-9-7-16-16-22-25-5-7-11-14-15-21-6-1-12-21-17-32-4-8-7-17-11-26-3-8-6-15-9-23-1-4-3-8-2-12,0-1,0-3,0-5C0,528,0,505,0,483c0-11,0-21,2-32,2-2,7-4,13-6,4-11,7-23,11-34,3-9,8-18,14-27,6-8,1-17,16-25,8-11,17-22,26-32,15-17,32-32,51-46,13-9,26-18,41-22,5-2,1-4,15-6,2-9,41-13,63-17,9-1,18-3,28-5,0-2,0-4,0-6-2-18-4-36-6-54,0-7-1-13-1-2,0-4,2-7,3-11,0-2,4-3,6-3,12,0,23-2,35-4,6,0,12-2,18-3,6,0,12,0,17,0,8,0,17-2,25-2,2-2,39-4,59-6,27-3,53-5,8-8,31-3,62-7,94-1,33-3,66-6,98-9,13-1,26-3,39-4,18-2,35-4,53-5,33-3,67-5,1-8,27-2,53-4,8-7,2-2,4-3,61-5,15-1,29-4,44-6,15-2,31-3,46-4,1-1,21-3,31-4,4,0,8,0,12,0,3,0,6,4,6,8,0,6,1,11,1,17,0,3,1,4,4,4,11,0,22,0,33,0,3,0,7,0,1,0,4,0,7,2,8,6,0,1,0,3,0,4,1,11,2,22,3,32,2,16,3,32,4,49,0,1,0,3,0,4,0,17,4,34,6,5,2,14,3,28,4,42,2,17,3,35,5,52,2,23,4,47,6,7,1,11,3,22,5,32,4,22,8,45,12,67,4,21,8,43,12,64,2,1,3,2,4,3,0,3,2,7,3,1,0,5,4,6,8,6,4,0,8,2,12,3,7,2,14,3,21,5,8,2,16,5,24,8,1,4,2,7,3,11,16,6,31,13,44,24,6,5,12,8,16,14,1,2,3,5,3,7,1,9,1,17,0,26-2,6-4,7-1,4-1-6-19-12-3-17-13-6-26-13-38-21-22-13-47-22-7-33-5-2-11-3-16-5-8-2-15-5-23-8-6-2-12-4-18-5-11-2-21-4-32-6-3,0-6,0-9,0ZM456,537c3-6,5-12,12-14,0,0,2-1,3-2,7-6,14-12,21-18,5-4,1-8,14-12,12-15,25-29,36-45,1-14,23-23,37-32,2-1,5-2,7-2,12,0,24,3,36,7,4,1,8,2,13,0,0,0,0-1,0-2-2-11-2-23-7-33,0,0,0-2,0-3-5-17-13-32-22-47-6-1-12-2-19-29-5-7-9-14-14-21-1-13-23-24-36-33-1-7-19-13-29-19-16-9-33-15-49-23-11-5-23-8-35-1-1-2-2-6-31-7-4,0-9-1-13-2-6,0-12-2-18-2-13,0-26-1-39-2-18,0-37,0-55,3-8,2-16,3-24,5-16,2-32,6-47,13-8,4-17,6-24,11-4,3-8,5-12,7-13,7-25,15-35,25-2,2-4,4-7,6-4,3-8,6-11,9-7,8-14,15-21,23-3,3-5,6-7,1-5,7-9,14-14,21-4,6-9,11-12,17-7,13-13,26-19,39-6,13-8,27-11,4-2,9-4,17-5,26-1,12-1,24-2,35-1,18,3,34,7,51,3,12,7,24,1,36,2,5,3,11,5,16,4,9,8,18,12,27,3,5,6,11,9,16,3,4,6,8,9,12,8,13,19,22,32,29,6,3,12,6,18,1,13,7,26,15,39,22,7,4,16,7,24,8,3,0,6,0,9,1,17,3,34,7,52,1,12,2,24,3,36,3,1,0,19,0,29,0,7,0,14,0,21-1,2,0,4-2,6-2,11,1,2-4,31-5,8,0,15-4,23-4,9,0,18-3,27-5,12-3,25-6,37-9,1-3,2-6,29-9,1-4,19-8,28-12,3-1,5-3,8-4,4-2,8-5,12-6,9-4,18-8,25-14,6-5,12-9,17-13,14-11,29-21,38-38,0-1,2-2,2-3,5-7,7-14,1-23,0,0-1,0-2-1-8-4-16-1-23-16-1-1-2-2-4-3-8-3-16-7-24-1-5-2-1-3-14-3-1,0-2,0-31,0-14,0-28,1-42,5-3,0-6,1-9,2-5,1-9,0-14-5ZM761,516h-1c-4,5-11,9-15,15-3,6-6,12-13,15-2,1-4,3-5,5-7,5-13,11-2,14-1,5-21,9-32,11-4,0-8,1-12,0-8-4-14-1-18,7-3,8-8,14-14,2-7,7-14,15-21,22-9,1-19,2-3,29-14,11-29,2-44,28-12,6-25,12-38,17-4,2-8,3-12,5-13,6-26,13-4,19-16,7-33,12-51,16-14,3-28,8-43,8,0,0-1,0-2,0-3,0-5,2-5,6,0,5,0,1,2,15,2,1,4,2,5,31,0,4,1,9,2,13,0,1,1,3,3,3,4,1,8,4,13,3,8,0,16-1,25-2,17-2,33-3,5-5,12-1,23-3,35-4,7,0,13-2,2-3,12-1,24-2,36-4,12-1,24-3,36-4,11-1,22-2,33-4,13-2,26-4,4-5,21-3,42-5,62-7,21-2,42-4,62-7,15-2,31-3,46-5,16-2,31-6,47-8,24-3,47-6,71-9,25-3,5-6,74-9,16-2,32-4,48-6,17-2,34-3,51-5,17-2,35-4,52-6,9-1,19-2,28-5,5-2,7-5,8-9,0-3,1-7,1-1,0-14,0-28,0-43,0-24,0-48,0-72,0-11-2-22-5-32-2-5-2-6-8-6-25-1-5,0-75,0-17,1-33,2-5,4-11,0-22,2-33,4-13,2-26,6-4,9-9,2-18,3-27,5-17,5-35,1-52,16-11,4-22,8-32,14-15,9-3,18-45,27-9,5-18,1-26,16-19,14-37,28-52,46-2,2-4,3-7,5-2-5-3-7,1-11,5-6,11-11,17-17,3-3,6-5,9-8,1-1,2-3,2-5,0-7,0-15-1-22-3-27-6-54-9-8-1-12-3-24,0-37,0,0,0-2,0-3ZM872,259c-4,0-7,0-9,0-9,0-17,2-26,2-7,0-8,0-1-7-4-11-7-23-8-34-2-18-5-36-8-54,0-5,0-11,1-16,0-2,2-3,4-3,8,0,16-2,24-3,14-1,27-3,41-4,3,0,6-2,8-4,4-5,9-11,14-15,13-12,27-21,43-3,11-6,21-12,32-17,31-13,64-22,97-29,6-1,7-2,7-8,0-2,0-4,0-5,0-6-1-7-8-7-11,0-22,0-33,1-21,1-43,3-64,5-23,2-45,4-68,6-12,1-23,2-35,3-2,2-4,3-61,5-17,2-33,4-5,6-23,3-46,5-68,7-23,3-45,6-68,9-14,2-27,3-41,4-15,2-3,4-44,5-17,2-33,3-5,5-22,2-45,5-67,7-14,1-27,2-41,4-1,0-19,2-28,4-17,2-33,5-5,7-4,0-7,2-5,7,0,3,0,5,0,8,0,12,2,24,3,35,0,7,1,14,4,22,2,0,4,0,7,0,15,0,3,1,45,2,7,0,14,2,21,2,7,0,15,0,22,2,23,3,46,8,67,16,12,4,22,11,34,16,25,11,49,26,68,47,9,1,18,2,26,31,15,22,32,44,42,7,5,14,12,27,15,41,0,4,1,8,5,11,9-4,18-7,26-11,9-4,18-6,27-5,6,0,12,2,18,3,2,0,3,0,4,1,12,6,23,12,35,18,4,2,8,3,12,5,3-4,5-7,8-1,11-12,23-24,34-37,6-7,13-14,19-21,9-11,18-23,22-38,2-7,5-15,7-22,3-12,2-24,2-37ZM1041,54h0c2,1,4,1,6,0,4,0,7-2,11-2,12-2,24-3,36-5,11-2,22-3,34-5,6,0,12,0,19,0,22-2,44,0,65,3,15,1,3,3,44,4,2,0,4,0,7,0,4,0,5-1,4-5,0-2-1-3-1-5-3-27-5-54-8-81-3-26-6-52-9-78-3-26-6-53-9-79-2-19-3-39-5-59-1-18-3-35-4-53,0-12-2-24-3-35-2-18-4-35-6-53-1-12-3-24-5-36,0-3-2-5-6-6-9-3-18-2-26-1-26,3-52,7-78,11-7,1-15,3-22,5-9,2-17,4-26,7-15,4-3,6-45,11-24,8-48,16-69,3-9,6-18,13-27,2-2,2-3,5-5,8,8,0,15,0,22-1,14-1,28-3,42-4,17-1,35-2,52-4,16-1,32-3,48-3,22,0,43-1,65-4,11-2,21-4,32-5,3,3,5,7,6,11,2,1,3,2,5,3,3,15,5,31,8,46,0,5,3,9,4,14,2,6-1,14-6,14-9,1-18,2-26,3-7,1-14,0-21,1-21,2-43,5-64,8-13,2-25,3-38,4,7,3,13,5,2,9,18,12,29,29,35,49,4,12,6,24,11,35,7,16,17,3,3,41,6,5,13,1,21,11,3,0,6,0,9,0,6,0,8,4,5,9-3,6-7,7-14,5-1-3-2-7-29-11-3-1-5-1-8,0-5,3-9,5-14,8-3,1-6,3-9,4-1,3-19,6-29,7-14,2-27,7-42,7,0,0-2,0-3,0-11,2-23,1-34,0-7,0-13-1-2-3-8-2-15-3-23-6-1-4-19-8-3-13,0,0-2,0-3,2-6,9-16,13-24,2-5,4-8,8-9,14,0,6,0,9,7,1,4,1,9,2,13,3,17,2,27,13,36,26,6,8,11,15,19,22,6,5,13,7,19,1,4,2,9,4,13,5,11,3,23,2,35,1,21,0,4-9,55-24,18-17,29-39,36-64,0-3,2-6,6-7,5,3,1,6,1,13,0,14-3,27-1,39-4,7-9,13-14,2-15,22-33,38-59,44-2,0-3,1-5,2ZM888,257c0,6-2,11-2,16-3,18-6,37-14,54-6,14-14,28-25,39-1,11-17,23-28,33-1,1-2,3-3,5-3,5-7,9-1,14-2,3-4,7-5,11-2,6,0,8,5,11,3,2,6,3,9,5,8,5,17,1,25,14,6,3,9,7,1,12,2,8,0,11-7,13-8,2-16,3-23,5-2,0-4,0-6,2-1,4-19,8-29,12-7,2-1,3-1,14,0,24,1,48,2,71,0,0,0,2,0,3,2,18,4,37,7,55,0,1,1,3,2,5,3-3,6-5,8-7,1-7,19-15,29-21,18-1,36-19,55-28,23-11,48-2,73-28,27-9,54-17,83-22,1,0,3,0,4-1-5,0-9,0-13,0-13,3-26,2-39-2-6-2-11-3-17-5-7-2-14-5-18-11-3-4-6-7-1-1-9-8-18-17-25-27-6-8-14-14-24-19-6-3-12-6-17-1-11-9-14-2-6-32,5-7,11-13,18-18,8-6,15-12,21-19,4-4,8-1,11-15,6-14,11-29,17-43,4-1,6-2,12-29,4-7,9-13,13-2,5-8,1-15,18-2,7-4,15-9,23-11,3,0,6-2,9-3-5-1-11-2-16-2-18,1-36,3-54,5-13,1-27,2-4,3-3,0-6,0-9,1ZM827,472c-4-3-7-6-1-8-3-2-6-4-9-5-5-3-9-6-14-9-4-3-9-5-13-8-5-3-9-6-14-9-8-5-17-1-26-14-1-5-21-1-33-8-6,0-11,3-17,4-11,2-2,9-29,15-11,7-23,9-36,6-6-2-13-5-19-6-7-2-13-3-2-3-5,0-11,1-15,5-8,7-15,15-22,23-7,9-14,18-21,28-12,15-26,27-4,4-1,1-2,3-4,5,3,0,4,0,5,0,16-2,32-5,48-6,11-1,22,0,32,3,1,4,21,8,31,12,1,0,3,0,4,2,4,5,11,7,17,1,14,7,28,11,44,1,2,0,4,0,5,0,12,0,22-4,31-11,7-5,13-12,19-19,4-5,8-9,13-13,6-5,12-11,2-15,13-7,28-12,41-18,2,0,4-2,6-1,7,1,13-3,19-4,2,0,3-1,6-3ZM933,212s0,0,0-1c-9,0-18,2-27,3-12,1-25,2-37,3-1,0-19,2-29,3-2,0-5,1-5,5,0,3,3,3,5,2,14-1,27-2,41-3,1,0,2-2,31-3,17-1,34-2,51-3,25-2,5-3,75-5,7,0,13,0,2-2,28-3,56-6,84-9,1-1,2-2,3-3,5,0,7-3,7-5,0-2-3-3-8-3-21-1-42,3-63,4-2,2-39,3-59,5-15,1-29,3-44,4-14,2-28,3-42,5-9,1-19,2-28,4ZM1167,16c1-8,0-9-7-9-14,0-27,1-41,2-1,0-21,2-31,3-16,1-32,3-49,4-13,1-27,3-4,4-1,0-2,2-3,3-9,0-17,2-26,3-19,1-39,1-58,5-6,1-12,2-18,2-12,1-24,2-37,3-2,0-5,0-5,3,0,3,3,3,5,3,0,0,1,0,2,0,14,0,27-1,41-2,17-1,34-3,5-5,15-2,3-4,44-5,27-2,54-3,81-5,36-3,73-5,109-8,2,0,4,0,6-1ZM117,169c0,0,0-1,0-2,0,0-2,0-2,0-11,0-22,0-33,2-8,0-16,1-24,2-2,1-4,3-61,4-14,1-29,3-43,3-24,1-48,3-73,6-17,2-33,5-5,5-16,0-32,1-47,5-2,0-6,0-6,4,0,3,2,4,7,4,14,0,28-2,41-3,22-2,43-4,65-6,24-2,49-3,73-5,18-1,36-3,54-5,25-3,51-6,76-9,6,0,11,0,17-2,2,0,4-1,6-2ZM833,208c0,7,0,7,6,7,8,0,16-1,24-2,31-3,63-5,94-8,21-2,42-4,63-6,15-1,29-3,44-4,13-1,27-2,4-3,2-2,41-4,61-6,3,0,7,0,8-4-1-3-4-3-6-3-14,0-28,0-41,2-19,2-38,5-57,8-13,2-25,2-38,4-4,0-8,1-13,2-2,1-41,2-61,4-25,2-5,4-75,7-14,1-28,3-42,4-2,0-5,0-7,1ZM836,236c9,0,16,0,24,0,25-1,49-3,74-5,2-1,4-2,6-5,2,0,4,0,6,0,23,0,45-3,67-5,11-1,23-2,34-3,1,0,2-1,29-2,12-1,25-3,37-4,3,0,7,0,1-2,1,0,4-2,4-3,0-3-2-3-4-3-3,0-6,0-9,0-8,0-15,2-23,2-18,2-36,4-54,6-19,2-39,4-59,5-5,0-11,0-16,0-14,1-28,3-42,4-19,2-39,3-58,4-14,1-29,3-43,4-9,0-17,1-26,2-3,0-7,0-1,5ZM828,173c11,0,22,0,32,0,15-2,3-4,46-5,14-1,27-2,41-3,22-2,44-4,66-6,19-2,38-3,57-5,3-3,6-5,9-8,0,0,2,0,3-1,0,0,0,0,0-1-3,0-6-2-9-1-18,0-35,2-53,3-19,1-38,2-57,3-12,0-24,1-36,2-17,1-35,3-52,6-15,2-31,4-46,5-5,0-1,2-15,2-16,0-31,2-47,3-5,0-11,0-16,2-3,0-6,1-4,6ZM1164,132c-3-4-7-3-1-2-1,0-2,2-3,3-46,2-92,6-138,1-18,1-36,3-54,4-29,2-58,5-86,8-6,0-11,2-17,3-2,0-3,2-2,4,1,0,2,0,29-1,27-2,54-4,81-6,17-1,33-4,5-6,8,0,15-2,23-2,19,0,38-1,57-2,25-1,49-3,74-4,4,0,9,0,13-1,4,0,8-2,11-5ZM1107,376c-4,2-8,4-11,6-13,6-26,1-39,14-5,1-11,3-16,3-14,0-29,0-43,0-11,0-21-1-31-5-9-3-18-8-27-11-2,0-4-3-6,0,2,2,4,4,5,6,3,6,7,8,13,1,4,0,7,1,11,3,11,3,22,6,33,6,19,0,38,1,56-2,17-3,33-9,5-15,2,0,4-2,6-3,6-4,6-7,0-12ZM1092,41c1,0,2,0,3,0,24-3,47-7,71-1,1,0,3,0,3-2,2-4,0-8-1-12,0-3-3-3-5-3-5,0-11,0-16,0-17,2-33,4-5,6-1,0-2,0-3,0-2,0-4,2-3,4,0,5,1,1,2,15ZM946,236s0,0,0,0c9,0,18,0,27,0,22,0,45-2,67-3,12,0,24-2,36-3,14-1,29-3,43-4,15-1,31-2,46-3,4,0,9-1,13-2,1,0,3-1,3-2,0-1,0-3-2-4-1,0-3-1-4-1-13,1-27,3-4,4-7,0-14,2-2,3-14,1-29,2-43,3-21,2-43,5-64,6-2,0-41,4-61,6ZM104,384c0-4,0-7,0-11-1-9-3-17-4-26-3-23-6-46-9-69,0-2,0-4-1-6,0-3-3-4-6-3-2,0-3,3-3,5,0,3,0,6,1,9,1,1,2,2,3,3,2,17,5,33,8,49,1,7,3,13,4,19,0,3,3,4,7,2ZM1054,383c0-2,0-5,0-7,0-4-1-7-2-11-2-16-4-32-6-48-2-13-3-25-5-38,0-7-3-8-1-6,0,1,0,2,0,4,2,16,4,32,7,48,2,12,3,24,5,36,1,7,3,13,4,2,0,3,3,5,7,3ZM1006,28c0,7,0,14,2,21,3,24,7,49,1,73,0,3,2,6,4,9,0,0,2,2,3,1,0,0,1-2,2-3,0,0,0-2,0-3-2-1-3-21-5-31-3-23-6-46-9-69,0-2,0-4-1-6,0-1-2-2-3-2-1,0-3,2-3,3,0,2,0,4,0,7ZM1012,384c0,0,1-2,1-2-4-35-9-7-13-104,0-1-1-3-2-6-1,2-3,4-3,5,0,2,0,4,0,6,0,12,1,24,3,36,3,2,6,39,9,59,0,3,1,6,5,7ZM1046,278c1,1,2,2,3,3,2,19,4,37,7,56,0,5,3,11,4,16,0,0,0,1,0,2,0,0,2,0,3,0,0,0,2-1,2-2,0-2,0-4,0-7-4-24-9-49-11-73,0-6-1-12-2-18,0-3-1-5-6-5ZM1058,29c0,2,0,3,0,4,0,11,2,22,3,33,2,15,5,31,8,46,0,2,0,5,3,6,3-5,3-6,2-12-1-7-2-14-3-22-2-13-3-26-5-39,0-6-4-11-8-16ZM1,382c0,0,1,0,2,0,0-17-4-33-6-5-3-17-3-34-8-51-3,3-3,3-3,6,1,13,2,26,3,39,2,18,4,36,9,54,0,1,1,2,2,3ZM992,379c0-2,0-5,0-7-4-26-7-51-11-77,0-2,0-4-2-6-3,3-3,6-3,1,3,22,6,44,9,66,0,6,3,1,8,14ZM969,303c-4,3-5,7-5,11,2,13,4,27,6,4,2,8,5,16,7,24,0,0,1,0,2,0-2-25-7-5-11-75ZM97,376c-4-19-7-37-11-55-5,3-3,7-3,1-1,13,1,26,5,39,0,3,3,6,9,6ZM84,246c28-2,55-4,8-8-25-2-5,3-75,4-1,0-2,0-3,0,0,0,0,0-2,3ZM1076,319c0,0-1,0-2,0,0,0,0,1,0,2,0,1,2,2,3,3,0,9,2,14,7,21-3-19,0-37-7-53ZM1087,349c0,8-1,15,2,22,3,0,4-1,4-3,0-7,0-14-5-19ZM951,345c-5,7-3,19,4,26-1-9-3-17-4-26ZM93,237s0,0,0,1c3,0,6,0,8,0,0,0,0,0,0,0h-8ZM943,368s0,0,1,0l-2-3s0,0-1,1l2,3Z"/>
      <path class="cls-7" d="M456,537c4,4,8,6,14,5,3,0,6-1,9-2,14-4,28-4,42-5,1,0,2,0,31,0,5,0,1,1,14,3,8,3,16,6,24,1,1,0,3,2,4,3,7,6,15,12,23,16,0,0,1,0,2,1-2,8-5,16-1,23,0,1-2,2-2,3-9,17-24,27-38,38-6,5-12,9-17,13-8,6-16,11-25,14-4,2-8,4-12,6-3,1-5,3-8,4-9,4-19,8-28,12-1,4-19,7-29,9-12,3-25,6-37,9-9,2-18,4-27,5-8,0-15,3-23,4-1,0-2,6-31,5-2,0-4,2-6,2-7,0-14,1-21,1-1,0-19,0-29,0-12,0-24,0-36-3-17-3-34-7-52-1-3,0-6,0-9-1-8-1-17-4-24-8-13-7-26-14-39-22-6-3-12-7-18-1-13-7-24-16-32-29-3-4-6-8-9-12-3-5-6-1-9-16-4-9-8-18-12-27-2-5-4-1-5-16-3-12-7-24-1-36-4-17-8-34-7-51,0-12,0-24,2-35,0-9,3-18,5-26,3-14,5-28,11-4,6-13,12-26,19-39,3-6,8-11,12-17,5-7,1-14,14-21,2-3,4-7,7-1,7-8,14-16,21-23,3-4,8-6,11-9,2-2,5-4,7-6,1-1,22-18,35-25,4-2,8-4,12-7,8-5,16-7,24-11,15-7,31-11,47-13,8-1,16-3,24-5,18-4,37-4,55-3,13,0,26,0,39,2,6,0,12,2,18,2,4,0,9,2,13,2,11,0,2,4,31,7,12,3,24,6,35,1,16,7,33,13,49,23,1,6,19,13,29,19,14,9,26,2,36,33,5,7,9,14,14,21,6,1,13,19,19,29,8,15,17,31,22,47,0,0,0,2,0,3,6,1,6,22,7,33,0,0,0,0,0,2-4,1-9,0-13,0-12-4-23-7-36-7-2,0-5,0-7,2-14,8-27,18-37,32-11,16-24,3-36,45-4,5-9,8-14,12-7,6-14,12-21,18,0,0-2,2-3,2-7,2-9,8-12,14ZM27,371c0,4,0,9,1,13,1,5,3,9,5,13,3,5,7,1,11,14,6,5,12,11,2,12,15,3,31,3,46,0,13-2,24-9,33-18,5-5,9-9,13-14,8-9,11-2,11-32,0-11-2-21-1-29-2-2-3-4-4-6-9-16-23-26-39-32-2,0-4-1-6-1-15,0-3,0-43,1-15,12-26,26-33,44-3,8-7,17-5,26ZM231,404c-4,5-2,1-1,15,4,15,15,25,25,36,8,9,18,16,31,19,7,2,14,6,21,6,12,0,25,0,37-6,0,0,2,0,3,0,1-2,18-7,26-12,13-9,26-19,38-3,7-7,15-15,22-22,4-4,9-7,15-8,7-1,13-2,2-3,6,0,12-2,18-3,1,0,3-2,4-3,7-9,6-18,0-27-3-4-7-7-1-1-6-5-12-9-18-13-12-7-22-16-31-26-8-9-17-18-22-29,0-2-2-3-3-4-4-4-8-9-12-13-6-6-12-1-19-14-8-5-15-8-24-8-2,0-5,0-7,0-7,1-13,3-2,4-1,0-3,0-4,1-13,7-24,16-34,27-7,8-13,17-2,26-5,7-11,13-15,2-7,13-16,24-26,35-1,11-21,21-34,28-8,4-17,8-27,8-2,0-4,0-4,2,0,2,0,5,0,8,0,3,4,3,6,3,16,0,29-7,41-15,9-6,17-14,24-22,3-4,7-8,1-12,7-9,14-19,21-28,6-7,12-14,18-21,1-14,22-26,35-37,6-5,12-8,19-11,4-2,8-2,12,0,1,0,3,0,4,0,15,1,27,1,38,2,4,4,8,9,12,13,5,5,1,11,15,16,5,6,1,14,16,19,8,6,13,15,22,2,5,3,1,7,14,11,4,4,9,8,13,13,3,3,2,7-3,9-6,2-13,5-2,6-1,0-18,5-27,7-8,2-12,9-18,13-3,2-5,4-8,6-11,11-22,21-33,32-3,3-8,5-12,8-8,6-18,7-27,11-11,4-22,5-33,0-1,0-2,0-3,0-11-2-2-7-28-14-12-1-22-23-25-39,0-1,0-2,0-3-1-3-3-5-7-6Z"/>
      <path class="cls-1" d="M761,516c0,1,0,2,0,3-3,12-1,24,0,37,3,27,6,54,9,8,0,7,0,15,1,22,0,2-1,3-2,5-3,3-6,5-9,8-6,6-12,11-17,17-4,4-4,6-1,11,2-2,5-3,7-5,15-18,33-33,52-46,8-6,17-11,26-16,15-9,3-18,45-27,1-6,21-1,32-14,17-6,34-11,52-16,9-2,18-4,27-5,13-3,26-6,4-9,11-2,22-3,33-4,17-1,33-2,5-4,25-2,5-2,75,0,6,0,6,0,8,6,4,1,5,21,5,32,1,24,0,48,0,72,0,14,0,28,0,43,0,3,0,7-1,1,0,5-3,7-8,9-9,4-18,4-28,5-17,2-35,4-52,6-17,2-34,3-51,5-16,2-32,4-48,6-25,3-5,6-74,9-24,3-47,5-71,9-16,2-31,5-47,8-15,2-3,4-46,5-21,2-42,4-62,7-21,2-42,5-62,7-13,2-26,4-4,5-11,1-22,2-33,4-12,1-24,3-36,4-12,1-24,2-36,4-7,0-13,2-2,3-12,1-23,3-35,4-17,2-33,4-5,5-8,0-16,0-25,2-5,0-9-2-13-3-1,0-2-2-3-3,0-4-2-9-2-13,0-11-3-21-5-31,0-5-1-1-2-15,0-4,1-5,5-6,0,0,1,0,2,0,15,0,29-5,43-8,17-4,34-1,51-16,14-6,27-13,4-19,4-2,8-3,12-5,13-6,25-11,38-17,16-8,3-18,44-28,11-8,2-18,3-29,7-8,14-15,21-22,6-6,1-13,14-2,4-8,9-11,18-7,4,2,8,1,12,0,11-2,22-7,32-11,7-3,13-9,2-14,2-1,3-4,5-5,7-3,1-9,13-15,4-7,1-1,15-16h1Z"/>
      <path class="cls-4" d="M872,259c0,13,0,25-2,37-2,8-4,15-7,22-4,14-13,26-22,38-6,7-13,14-19,21-11,12-23,24-34,37-3,3-5,7-8,1-4-2-8-3-12-5-12-6-23-12-35-18-1,0-3,0-4-1-6,0-12-2-18-3-9,0-19,0-27,5-9,4-17,7-26,11-3-3-4-7-5-11-3-14-1-28-15-41-1-25-26-47-42-7-7-11-17-21-26-31-19-21-42-35-68-47-11-5-22-11-34-16-22-8-44-14-67-16-7,0-15-1-22-2-7,0-14-2-21-2-15,0-3-1-45-2-2,0-4,0-7,0-2-7-3-14-4-22,0-12-2-24-3-35,0-3,0-5,0-8-1-5,2-7,5-7,17-2,33-5,5-7,9-1,19-3,28-4,14-1,27-2,41-4,22-2,45-5,67-7,17-2,33-3,5-5,15-2,3-4,44-5,14-2,27-3,41-4,23-3,45-6,68-9,23-3,46-5,68-7,17-2,33-4,5-6,2-2,4-4,61-5,12-1,23-2,35-3,23-2,45-4,68-6,21-2,43-4,64-5,11,0,22,0,33-1,6,0,7,0,8,7,0,2,0,4,0,5,0,6-1,7-7,8-33,7-66,16-97,29-11,5-21,11-32,17-15,8-3,18-43,3-5,5-9,1-14,15-2,3-4,4-8,4-14,1-27,3-41,4-8,0-16,2-24,3-2,0-3,1-4,3-2,5-2,1-1,16,3,18,6,36,8,54,2,12,4,23,8,34,2,6,3,7,1,7,9,0,17-1,26-2,3,0,6,0,9,0Z"/>
      <path class="cls-5" d="M1041,54c2,0,3-1,5-2,26-6,45-22,59-44,4-7,9-13,14-2,8-12,11-25,1-39,0-7-6-1-1-13-4,1-5,4-6,7-6,24-17,46-36,64-15,14-33,23-55,24-12,0-23,1-35-1-4-1-9-2-13-5-6-3-13-6-19-1-7-6-13-14-19-22-9-13-19-24-36-26-4,0-9-2-13-3-6-2-7-4-7-1,0-6,4-11,9-14,8-6,18-1,24-2,0-1,2-2,3-2,1,5,2,9,3,13,7,3,15,4,23,6,7,1,13,2,2,3,11,0,23,0,34,0,0,0,2,0,3,0,14,0,28-5,42-7,1-1,19-4,29-7,3,0,6-2,9-4,5-3,9-5,14-8,3-1,5-1,8,0,1,4,2,7,29,11,7,2,11,0,14-5,3-5,1-9-5-9-3,0-6,0-9,0-8-1-15-6-21-11-13-12-23-25-3-41-5-11-7-23-11-35-6-2-17-37-35-49-6-4-13-6-2-9,13-1,25-3,38-4,21-3,43-6,64-8,7,0,14,0,21-1,9-1,18-2,26-3,5,0,8-8,6-14-1-5-3-9-4-14-3-15-6-31-8-46-2-1-3-2-5-3,0-4-3-8-6-11-11,2-22,4-32,5-21,3-43,4-65,4-16,0-32,2-48,3-17,1-35,2-52,4-14,1-28,2-42,4-7,0-14,0-22,1,2-4,3-7,5-8,9-7,17-14,27-2,21-14,45-22,69-3,15-5,3-7,45-11,9-2,17-4,26-7,7-2,15-4,22-5,26-4,52-8,78-11,9-1,18-1,26,1,4,1,5,3,6,6,2,12,3,24,5,36,2,18,4,35,6,53,1,12,2,24,3,35,1,18,3,35,4,53,2,2,3,39,5,59,3,26,6,53,9,79,3,26,6,52,9,78,3,27,5,54,8,81,0,2,0,3,1,5,1,4,0,6-4,5-2,0-4,0-7,0-15-1-3-3-44-4-22-2-43-5-65-3-6,0-12,0-19,0-11,1-22,3-34,5-12,2-24,3-36,5-4,0-7,2-11,2-2,0-4,0-6,0h0Z"/>
      <path class="cls-6" d="M888,257c3,0,6-1,9-1,13-1,27-2,4-3,18-2,36-3,54-5,5,0,11,0,16,2-3,0-6,2-9,3-9,1-16,7-23,11-8,5-13,12-18,2-4,7-9,13-13,2-6,9-8,19-12,29-6,14-11,29-17,43-2,6-7,11-11,15-6,7-13,14-21,19-7,5-13,11-18,18-8,12-5,24,6,32,5,4,11,7,17,1,9,4,18,1,24,19,7,1,16,19,25,27,4,3,7,6,1,1,5,7,11,9,18,11,6,2,11,3,17,5,13,4,26,4,39,2,4,0,9,0,13,0-1,0-3,1-4,1-28,5-56,12-83,22-25,8-49,17-73,28-18,9-37,18-55,28-1,6-19,14-29,21-3,2-5,4-8,7,0-2-2-3-2-5-2-18-5-37-7-55,0,0,0-2,0-3,0-24-1-48-2-71,0-1,2-11,1-14,1-3,19-8,29-12,2,0,4-1,6-2,8-2,16-3,23-5,7-2,9-5,7-13-2-5-5-1-1-12-9-4-17-9-25-14-3-2-6-3-9-5-5-3-7-6-5-11,1-4,3-7,5-11,3-5,7-9,1-14,1-2,2-4,3-5,11-1,18-22,28-33,11-11,19-25,25-39,8-17,11-36,14-54,0-5,1-1,2-16Z"/>
      <path class="cls-8" d="M827,472c-3,1-5,2-6,3-7,0-12,5-19,4-2,0-4,0-6,1-14,6-28,11-41,18-7,4-13,1-2,15-5,4-9,9-13,13-6,7-12,14-19,19-9,7-19,11-31,11-2,0-4,0-5,0-16,1-3-3-44-1-6-3-13-4-17-1,0,0-2-1-4-2-1-4-2-9-31-12-1-4-21-4-32-3-16,2-32,4-48,6-1,0-3,0-5,0,2-2,3-4,4-5,14-12,28-25,4-4,7-9,14-19,21-28,7-8,14-15,22-23,4-4,9-5,15-5,7,0,14,2,2,3,6,2,13,4,19,6,13,3,24,1,36-6,9-6,18-12,29-15,6-1,11-3,17-4,12-2,23,3,33,8,9,4,17,9,26,14,5,3,9,6,14,9,4,3,9,5,13,8,5,3,9,6,14,9,3,2,6,3,9,5,3,2,6,5,1,8Z"/>
      <path class="cls-8" d="M933,212c9-1,19-2,28-4,14-2,28-3,42-5,15-2,29-3,44-4,2-2,39-3,59-5,21-2,41-5,63-4,5,0,7,0,8,3,0,2-1,5-7,5-1,1-2,2-3,3-28,3-56,6-84,9-7,0-13,1-2,2-25,2-5,3-75,5-17,1-34,2-51,3-1,0-2,2-31,3-14,1-27,2-41,3-2,0-5,0-5-2,0-3,2-4,5-5,1-1,19-3,29-3,12-1,25-2,37-3,9,0,18-2,27-3,0,0,0,0,0,1Z"/>
      <path class="cls-8" d="M1167,16c-2,0-4,0-6,1-36,3-73,6-109,8-27,2-54,3-81,5-15,1-3,3-44,5-17,2-34,3-5,5-14,1-27,2-41,2,0,0-1,0-2,0-3,0-5,0-5-3,0-3,2-3,5-3,12,0,24-2,37-3,6,0,12-1,18-2,19-4,38-4,58-5,9,0,17-2,26-3,1,0,2-2,3-3,13-1,27-3,4-4,16-1,32-3,49-4,1,0,21-2,31-3,14,0,27-2,41-2,7,0,8,1,7,9Z"/>
      <path class="cls-8" d="M117,169c-2,0-4,2-6,2-6,0-11,0-17,2-25,3-51,6-76,9-18,2-36,4-54,5-24,2-49,3-73,5-22,2-43,4-65,6-14,1-28,2-41,3-5,0-7,0-7-4,0-4,4-3,6-4,16-3,31-4,47-5,17,0,34-3,5-5,24-3,48-5,73-6,14,0,29-2,43-3,2-1,4-3,61-4,8,0,16-2,24-2,11,0,22-1,33-2,0,0,2,0,2,0,0,0,0,1,0,2Z"/>
      <path class="cls-8" d="M833,208c3,0,5-1,7-1,14-1,28-3,42-4,25-2,5-5,75-7,2-2,41-3,61-4,4,0,8-1,13-2,13-1,25-2,38-4,19-2,38-6,57-8,14-1,28-1,41-2,2,0,5,0,6,3-2,3-5,4-8,4-2,2-41,4-61,6-13,1-27,2-4,3-15,1-29,3-44,4-21,2-42,4-63,6-31,3-63,6-94,8-8,0-16,1-24,2-5,0-5,0-6-7Z"/>
      <path class="cls-8" d="M836,236c3-5,7-4,1-5,9-1,17-2,26-2,14-1,29-3,43-4,19-2,39-3,58-4,14-1,28-3,42-4,5,0,11,0,16,0,2-2,39-3,59-5,18-2,36-4,54-6,8,0,15-2,23-2,3,0,6,0,9,0,2,0,5,0,4,3,0,1-2,2-4,3-3,0-7,1-1,2-12,2-25,3-37,4-1,0-2,2-29,2-11,1-23,2-34,3-22,2-45,5-67,5-2,0-4,0-6,0-2,4-4,4-6,5-25,2-49,3-74,5-7,0-15,0-24,0Z"/>
      <path class="cls-8" d="M828,173c-2-5,1-6,4-6,5,0,11-1,16-2,16,0,31-2,47-3,5,0,1-1,15-2,15-2,31-3,46-5,17-3,34-4,52-6,12,0,24-1,36-2,19,0,38-2,57-3,18,0,35-2,53-3,3,0,6,0,9,1,0,0,0,0,0,1,0,0-2,0-3,1-3,3-6,5-9,8-19,2-38,3-57,5-22,2-44,4-66,6-14,1-28,2-41,3-15,1-3,3-46,5-11,1-22,0-32,0Z"/>
      <path class="cls-8" d="M1164,132c-4,3-7,5-11,5-4,0-9,1-13,1-25,1-49,3-74,4-19,0-38,1-57,2-8,0-15,2-23,2-17,2-33,4-5,6-27,2-54,4-81,6-1,0-19,0-29,1-1-2,0-4,2-4,6-1,11-2,17-3,29-3,58-5,86-8,18-2,36-3,54-4,46-4,92-8,138-1,1,0,2-2,3-3,3,0,7-1,1,2Z"/>
      <path class="cls-8" d="M1107,376c5,6,5,8,0,12-2,1-4,3-6,3-16,6-32,12-5,15-19,3-38,2-56,2-12,0-22-3-33-6-4-1-7-2-11-3-6-2-1-4-13-1-1-2-3-4-5-6,2-3,4-2,6,0,9,4,18,8,27,11,1,4,2,5,31,5,14,0,29,0,43,0,5,0,11-1,16-3,14-3,27-8,39-14,4-2,7-4,11-6Z"/>
      <path class="cls-3" d="M1092,41c0-5-1-1-2-15,0-2,0-4,3-4,1,0,2,0,3,0,17-2,33-4,5-6,5,0,11,0,16,0,2,0,5,0,5,3,0,4,3,8,1,12,0,0-2,1-3,2-24,3-47,7-71,1,0,0-1,0-3,0Z"/>
      <path class="cls-8" d="M946,236c2-2,41-5,61-6,22,0,43-4,64-6,14-1,29-2,43-3,7,0,14-2,2-3,13-1,27-3,4-4,1,0,3,0,4,1,1,0,2,2,2,4,0,0-2,2-3,2-4,0-9,2-13,2-15,0-31,1-46,3-14,1-29,3-43,4-12,1-24,2-36,3-22,1-45,2-67,3-9,0-18,0-27,0,0,0,0,0,0,0Z"/>
      <path class="cls-8" d="M104,384c-4,1-6,0-7-2-1-6-3-13-4-19-3-16-6-33-8-49-1-1-2-2-3-3,0-3,0-6-1-9,0-2,0-4,3-5,3,0,5,0,6,3,0,2,0,4,1,6,3,23,6,46,9,69,1,9,3,17,4,26,0,3,0,7,0,11Z"/>
      <path class="cls-8" d="M1054,383c-4,2-6,0-7-3-2-7-3-13-4-2-2-12-4-24-5-36-2-16-4-32-7-48,0-1,0-3,0-4,7-2,9,0,1,6,1,13,3,25,5,38,2,16,4,32,6,48,0,4,1,7,2,11,0,2,0,5,0,7Z"/>
      <path class="cls-8" d="M1006,28c0-2,0-4,0-7,0-1,2-2,3-3,0,0,2,1,3,2,0,2,0,4,1,6,3,23,6,46,9,69,1,1,3,21,5,31,0,0,0,2,0,3,0,1,0,3-2,3,0,0-3,0-3-1-2-3-4-6-4-9-4-24-7-49-1-73,0-7-1-14-2-21Z"/>
      <path class="cls-8" d="M1012,384c-4-1-4-4-5-7-3-2-6-39-9-59-2-12-2-24-3-36,0-2,0-4,0-6,0-1,1-3,3-5,1,3,2,4,2,6,4,35,9,7,13,104,0,0,0,1-1,2Z"/>
      <path class="cls-8" d="M1046,278c5,0,6,2,6,5,0,6,2,12,2,18,2,25,6,49,11,73,0,2,0,4,0,7,0,0,0,2-2,2,0,0-2,0-3,0,0,0,0-1,0-2-1-5-3-11-4-16-2-19-5-37-7-56-1-1-2-19-3-3Z"/>
      <path class="cls-8" d="M1058,29c5,5,7,1,8,16,2,13,3,26,5,39,0,7,2,15,3,22,0,6,0,7-2,12-3-1-3-4-3-6-3-15-6-31-8-46-2-11-2-22-3-33,0,0,0-2,0-4Z"/>
      <path class="cls-8" d="M1,382c0,0-2-2-2-3-5-18-7-36-9-54-1-13-2-26-3-39,0-2,0-2,3-6,5,17,5,34,8,51,3,16,6,33,6,5,0,0-1,0-2,0Z"/>
      <path class="cls-8" d="M992,379c-5-4-7-9-8-14-3-22-6-44-9-66,0-4,0-7,3-1,2,2,2,4,2,6,4,26,7,51,11,77,0,2,0,5,0,7Z"/>
      <path class="cls-8" d="M969,303c4,25,9,5,11,75,0,0-1,0-2,0-3-8-6-16-7-24-3-13-4-27-6-4,0-4,0-8,5-11Z"/>
      <path class="cls-8" d="M97,376c-5,0-8-2-9-6-3-13-6-25-5-39,0-3-2-7,3-1,4,18,7,36,11,55Z"/>
      <path class="cls-8" d="M84,246c1-2,1-2,2-3,1,0,2,0,3,0,25-1,51-6,75-4-25,4-52,6-8,8Z"/>
      <path class="cls-8" d="M1076,319c7,17,4,35,7,53-5-7-6-12-7-21,0-1-2-2-3-3,0,0,0-1,0-2,0,0,1,0,2,0Z"/>
      <path class="cls-8" d="M1087,349c6,5,5,12,5,19,0,2,0,4-4,3-3-7-2-14-2-22Z"/>
      <path class="cls-8" d="M951,345c1,8,2,17,4,26-7-7-9-19-4-26Z"/>
      <path class="cls-8" d="M93,237h8s0,0,0,0c-3,0-6,0-8,0,0,0,0,0,0-1Z"/>
      <path class="cls-8" d="M943,368l-2-3s0,0,1-1l2,3s0,0-1,0Z"/>
      <path class="cls-2" d="M27,371c-1-9,2-18,5-26,6-18,17-32,33-44,13-1,28-1,43-1,2,0,4,0,6,1,16,7,3,17,39,32,1,2,2,4,4,6,7,8,9,19,1,29,0,12-3,22-11,32-4,5-9,1-13,14-9,9-2,15-33,18-15,3-3,3-46,0-8-2-14-7-2-12-4-4-8-9-11-14-3-4-4-9-5-13-1-4,0-8-1-13ZM335,324s0,0,0,0c0-6,0-11,0-17,0-1-2-2-3-3,0,0-2,2-2,3-1,6-2,12-2,18,0,16-1,31-2,47,0,1-2,19-2,29,0,4,0,9,2,13,0,2,2,4,4,3,1,0,3-2,3-4,0-4,0-7,1-11,0-11,2-21,2-32,0-15,0-31,0-46ZM347,326s0,0,0,0c0-7,0-14,0-21,0-1-1-3-2-3-2,0-3,2-3,3,0,6-1,11-1,17,0,2,0,4,0,6,0,8,0,16,0,24,0,3,0,6,1,8,0,1,2,2,3,2,1,0,2-2,3-3,0,0,0-2,0-3,0-15,0-31,0-46,0-13,0-26-1-39ZM364,406c4-2,6-3,6-6,0-13,1-25,1-38,0-1,0-2,0-3,0-6,0-12,0-18,0-3-1-6-5-6,0,1,0,3,0,4,0,8,0,16,0,25,0,2,0,4,0,59,0,3,0,6,1,9ZM321,31c-5,3-6,3-6,6,0,5-1,9-1,14-1,17-2,34-3,51,0,8,0,16,0,24,0,3,0,6,5,7,2-34,4-67,5-101ZM302,405c3-12,7-76,4-84,0,1-2,2-2,3,0,3-1,6-2,8-1,12-2,23-3,35,0,8,0,15-1,23,0,5,1,9,4,14ZM354,304c-3,14-2,95,1,104,0-2,0-3,0-4,0-2,0-4,1-61,0-11,0-22,0-33,0-2,0-5-3-5ZM38,318c0,0-1,0-2,0,0,2,0,4,0,6,0,2,0,4,0,61,0,2,0,4,0,5,0,1,0,3,1,4,5-3,4-6,4-1,0-2,0-41-2-61,0-2,0-3-1-5ZM295,336c0,0-1,0-2,0,0,1-2,3-2,4-2,14-4,29-5,44,0,4,1,7,6,9,1-19,4-37,4-56ZM39,331s0,0-1,0c0,9-1,17,0,26,0,9,0,17,2,26,4-4,4-4,4-7-1-15-2-3-3-46ZM399,369c3-9,3-17-1-23-1,8,0,15,1,23ZM282,357c-4,5-3,1-1,15,0-5,0-1,1-15Z"/>
      <path class="cls-2" d="M231,404c4,0,6,3,7,6,0,1,0,2,0,3,3,17,13,29,25,39,8,7,17,13,28,14,1,0,2,0,3,0,11,5,22,4,33,0,9-4,19-5,27-11,4-3,8-5,12-8,11-1,22-21,33-32,2-2,5-4,8-6,6-4,1-11,18-13,9-3,18-7,27-7,7,0,13-3,2-6,4-2,5-5,3-9-4-5-8-9-13-13-4-4-9-8-14-11-9-5-15-14-22-2-6-5-11-13-16-19-5-6-1-11-15-16-4-4-8-9-12-13-11-1-22-18-38-2-1,0-3,0-4,0-4-1-8-1-12,0-7,3-13,6-19,11-13,11-24,23-35,37-6,7-12,14-18,21-7,9-14,19-21,28-3,4-7,8-1,12-7,8-15,16-24,22-13,8-26,15-41,15-3,0-5,0-6-3,0-2,0-5,0-8,0-1,3-2,4-2,1,0,18-4,27-8,14-7,25-17,34-28,1-11,18-22,26-35,4-7,1-14,15-2,7-9,13-17,2-26,9-11,21-2,34-27,1,0,2,0,4-1,7-2,13-3,2-4,2,0,5,0,7,0,9,0,16,3,24,8,7,4,14,8,19,14,4,4,8,9,12,13,1,1,2,3,3,4,5,11,14,2,22,29,9,1,2,19,31,26,6,4,13,8,18,13,3,3,7,6,1,1,7,9,7,18,0,27,0,1-2,2-4,3-6,1-12,2-18,3-7,0-13,2-2,3-6,0-11,4-15,8-7,8-15,15-22,22-12,11-24,21-38,3-8,5-16,1-26,12,0,0-2,0-3,0-11,6-24,5-37,6-7,0-14-4-21-6-12-3-22-1-31-19-1-11-21-21-25-36-1-5-2-1,1-15Z"/>
      <path class="cls-8" d="M335,324c0,15,0,31,0,46,0,11-1,21-2,32,0,4,0,8-1,11,0,1-2,3-3,4-2,0-4,0-4-3,0-4-2-9-2-13,0-1,1-19,2-29,0-16,1-31,2-47,0-6,1-12,2-18,0-1,1-2,2-3,0,1,3,2,3,3,0,6,0,11,0,17,0,0,0,0,0,0Z"/>
      <path class="cls-8" d="M347,326c0,13,1,26,1,39,0,15,0,31,0,46,0,0,0,2,0,3,0,1-2,3-3,3-1,0-3-1-3-2,0-3-1-6-1-8,0-8,0-16,0-24,0-2,0-4,0-6,0-6,0-11,1-17,0-2,0-4,3-3,0,0,2,2,2,3,0,7,0,14,0,21,0,0,0,0,0,0Z"/>
      <path class="cls-8" d="M364,406c0-4-1-7-1-9,0-2,0-4,0-59,0-8,0-16,0-25,0-1,0-2,0-4,4,0,5,3,5,6,0,6,0,12,0,18,0,1,0,2,0,3,0,13,0,25-1,38,0,3-2,4-6,6Z"/>
      <path class="cls-8" d="M321,31c-2,34-4,68-5,101-5,0-5-3-5-7,0-8,0-16,0-24,0-17,2-34,3-51,0-5,0-9,1-14,0-3,0-3,6-6Z"/>
      <path class="cls-8" d="M302,405c-3-5-4-1-4-14,0-8,0-15,1-23,0-12,2-23,3-35,0-3,0-6,2-8,0-1,1-2,2-3,2,7-1,72-4,84Z"/>
      <path class="cls-8" d="M354,304c3,0,3,3,3,5,0,11,0,22,0,33,0,2,0,4-1,61,0,1,0,2,0,4-3-8-4-9-1-104Z"/>
      <path class="cls-8" d="M38,318c0,2,1,3,1,5,0,2,1,41,2,61,0,4,0,8-4,1,0-1-1-3-1-4,0-2,0-4,0-5,0-2,0-4,0-61,0-2,0-4,0-6,0,0,1,0,2,0Z"/>
      <path class="cls-8" d="M295,336c0,18-2,37-4,56-5-2-6-5-6-9,2-15,4-29,5-44,0-1,1-3,2-4,0,0,1,0,2,0Z"/>
      <path class="cls-8" d="M39,331c1,15,2,3,3,46,0,3,0,3-4,7-2-9-1-18-2-26,0-8,0-17,0-26,0,0,0,0,1,0Z"/>
      <path class="cls-8" d="M399,369c-2-8-2-15-1-23,4,6,5,14,1,23Z"/>
      <path class="cls-8" d="M282,357c0,5,0,1-1,15-1-5-3-1,1-15Z"/>
    </g>
  </g>
</svg>