<?xml version="1.0" encoding="UTF-8"?>
<svg id="Layer_2" data-name="Layer 2" xmlns="http://www.w3.org/2000/svg" viewBox="0 0 674 836">
  <defs>
    <style>
      .cls-1 {
        fill: #000;
      }

      .cls-1, .cls-2 {
        stroke-width: 0px;
      }

      .cls-2 {
        fill: #fff;
      }
    </style>
  </defs>
  <g id="Layer_1-2" data-name="Layer 1">
    <g>
      <path class="cls-1" d="M326,0c0,1,2,2,2,3,0,0-1,1-2,1,0,0-1,0-1-1,0,0,0-1,2-3Z"/>
      <path class="cls-1" d="M122,6c-4,3-8,5-12,7-5,3-8,2-11-3-6-9-12-18-18-27-5-7-9-15-13-22-9-14-17-29-26-43-11-18-21-36-32-53-2-3-5-7-7-1-5-8-4-11,3-16,6-4,12-8,16-14,0,0,1-1,2-2,2-14,4-29,6-43,6-4,9-1,8-17,0-12-2-24-3-36-1-14-3-29-5-43,0-3,0-7-1-1-2-14-4-28-6-42-1-9-3-19-4-28,0-8,5-14,13-16,2-4,41-8,61-11,33-5,66-1,99-15,28-5,57-1,85-15,16-3,32-6,49-8,26-4,51-7,77-11,15-2,3-4,46-6,8-1,15-3,23-4,2,0,4-1,5-2,5,2,1,4,16,7,0,2,1,6,2,1,2,15,4,29,7,44,3,17,5,33,8,5,1,8,4,15,6,23,0,1,3,3,4,3,8,2,17,4,25,6,6,1,13,1,19,2,12,2,23,5,35,8,4,0,8,1,12,2,7,0,1,4,9,11-2,28-4,57-5,85,0,1,0,2-2,3,0,1-2,2-3,3,0,4,0,8,0,11,0,7-5,9-12,1-8,1-16-1-24-2-8,0-16-2-24-2-2,0-5,0-7,0-4,0-5,0-5,5,0,4,0,8,1,11,2,16,5,31,7,47,3,15,6,3,9,46,2,11,3,21,5,32,2,14,5,28,8,43,0,4,1,7,2,11,3,14,4,28,1,41,0,2,1,4,2,6,0,3,1,6,2,1,1,6,1,11,5,17,0,1,0,4-1,6-3,6-9,9-16,11-6,2-13,3-19,4-16,4-31,7-47,11-24,6-48,11-71,17-13,3-25,7-38,1-12,2-23,5-34,8-6,2-13,2-19,4-24,6-48,12-72,18-8,2-15,4-23,6-2,0-4,0-6,0-14,4-28,8-42,12-6,2-12,4-19,6-11,3-23,7-34,1-1,3-2,7-31,8-9,0-15-5-16-14,0,0,0-2,0-3-4-8-2-17-4-26-1-5-1-1-1-15,0-8-1-17-4-25-2-7-2-14-3-22,0-4,0-7-1-11-2-12-3-24-5-36-3-19-6-37-9-56-1-9-3-18-4-29ZM166,586c3,0,6-1,9-2-3,0-6,0-8,2-3,0-5,0-8,0,0,0,0,0,0,1,2,0,5,0,7-1ZM305,431c-5-11-9-21-13-31-3-6-6-11-8-17-4-1-8-19-12-29-6-14-11-28-16-42-3-7-5-15-8-22-2-5-4-6-9-3-18,12-37,25-55,38-15,1-29,21-43,32-16,12-31,23-47,34-2,14-39,27-57,43-9,8-1,12-4,22,3,6,6,11,9,17,7,13,13,26,21,39,1,16,2,33,3,49,5,7,1,15,15,22,3,4,4,4,9,1,1,0,3-2,4-3,6-5,12-1,19-15,6-4,12-8,17-13,24-22,5-41,76-61,11-9,22-17,33-25,11-9,21-18,32-27,3-3,6-6,9-9ZM623,423s0,0,0,0c2,0,5,0,7,0,2,0,5-2,5-4,3-11,6-22,8-34,3-16,4-33,6-5,2-14,5-29,6-43,0-5,3-11,0-14-3-3-9-5-14-6-13-4-26-6-4-8-2-3-39-7-58-1-13-2-27-4-4-6-13-2-26-4-39-5-9-1-18-2-27-3-3,0-6,0-7,4-2,1-5,2-6,29-2,15-2,31-4,47-2,19-4,38-6,56,0,4,0,8,0,13,0,5,1,6,5,7,4,0,7,1,11,1,2,2,39,3,59,5,9,0,18,3,27,4,21,3,41,6,62,9,15,2,29,5,44,7ZM413,269h0c0-1,0-2,0-3,0-1,2-19,3-29,0-7,4-9,11-9,2,0,4,0,5,0,4,0,5-1,5-5,2-13,0-25-3-38-2-9-6-13-16-11-9,2-19,2-28,3-9,0-17,2-26,3-13,2-26,3-38,5-12,2-24,4-35,1-2,0-4,3-5,4-1,4-2,8-2,12,1,17,3,33,5,5,2,16,3,33,4,49,0,4,0,7,1,11,0,4,2,6,6,5,9,0,17-1,26-2,6,0,12-2,18-3,11-2,22-3,33-5,7-2,14-3,21-4,2,0,3,0,5,0,3,0,5-2,5-6,1-11,3-23,5-34ZM561,464c-4,0-9,0-14,0-14,3-28,4-41,8-11,3-22,5-33,7-14,3-29,5-43,8-13,2-27,4-4,6-3,5-6,1-89,15-17,3-34,7-52,1-1,2-2,5-3,7-9,1-17,4-23,1-3,3-7,6-1,8,0,0,0,1,0,2,3,0,7-2,1-3,14-4,29-8,43-11,3-7,61-13,91-18,19-4,38-6,57-9,21-4,42-8,62-11,13-2,26-3,39-5,8-1,16-3,24-5,14-3,29-6,43-1,5-1,6-4,4-1ZM152,578c2,0,3,0,5,0,5,0,1,0,15-2,12-2,24-5,35-7,39-8,79-16,119-22,23-4,46-8,68-12,13-2,25-4,38-7,27-5,54-11,8-17,15-3,3-7,46-1,7-2,8-4,5-12-3,0-6,0-8,0-1,2-21,4-3,7-34,1-68,17-103,23-21,4-41,7-62,1-6,0-12,2-18,3-15,3-31,7-46,1-15,3-31,6-46,9-17,4-34,8-51,12-14,3-27,5-4,9-2,0-5,0-5,4ZM618,684c-3-4-6-4-9-3-7,0-15,2-22,3-3,0-6,2-8,2-11,2-22,3-33,6-2,5-4,1-61,16-1,0-2,0-3,0-9,2-17,3-26,5-17,4-33,9-5,13-19,4-37,8-56,12-16,4-32,7-48,11-2,0-3,1-5,1-4,1-8,2-12,3-11,2-22,5-32,7-8,2-15,4-23,6-8,2-17,4-25,6-13,4-26,1-4,11,0,0-2,1-3,2,7,0,14,0,2-2,24-5,49-11,73-17,13-3,26-6,39-1,19-5,37-1,56-14,15-3,3-5,45-8,12-2,23-5,35-8,17-4,34-8,52-11,18-4,36-8,55-11,22-4,45-8,66-15,5-2,1-4,15-6ZM166,563c13-2,25-3,37-6,22-4,43-1,65-14,7-2,14-3,22-4,19-4,37-8,56-12,21-4,43-7,64-11,23-4,46-9,69-14,13-3,26-6,39-1,7-2,14-4,21-6,6-2,12-2,19-6-8,0-14,1-21,4-5,2-11,4-17,3-4,0-9,1-13,2-4,0-8,2-12,2-2,3-39,6-59,9-16,3-32,6-49,8,0,0-1,0-2,0-13,2-26,5-39,7-13,2-26,4-4,6-24,5-49,9-73,15-21,5-41,12-61,18-4,1-7,3-9,7ZM516,138c-2,0-3,0-4,0-1,1-21,2-31,4-19,3-38,6-57,9-13,2-27,5-4,8-4,0-7,2-11,2-21,3-42,7-63,1-13,2-25,5-38,7-27,4-54,9-81,15-17,4-33,7-5,11-14,4-29,8-43,12-4,1-4,3-2,8,4,0,7,0,11-2,1-2,19-5,29-7,15-3,3-6,44-9,17-3,35-7,52-1,9-2,18-4,27-6,2,0,4-1,4-3,1-4,4-4,7-5,11-2,21-4,32-6,3,0,5-1,8-2,22,0,43-7,64-1,24-4,48-9,72-13,22-4,44-8,66-12,0,0,2,0,4-1ZM555,431c-2,0-4,0-6,1-1,0-3,1-4,0-5-2-9,0-14,0-14,2-28,4-41,7-18,3-37,7-55,11-13,3-26,5-39,7-23,4-47,9-7,13-15,3-31,7-46,1-5,1-1,2-15,3-6,0-11,5-16,1,3,0,4,0,5,0,14-3,27-5,41-8,32-6,63-14,96-19,23-3,46-7,69-11,29-5,58-9,88-14,3,0,7-2,1-3,0-3,0-5-2-8ZM521,427s0,0,0-1c-3,0-5,0-8-1-5,0-1-3-14,2,0,0-2,0-3,0-5,0-11,1-16,2-17,3-34,6-51,9-18,3-36,6-54,9-9,1-18,3-27,5-16,3-32,7-48,1-4,0-7,3-11,1,0,0-2,0-3,0-4,3-8,7-13,11,2,0,2,1,3,1,8-15,16-31,24-46,2,0,3-1,5-2ZM163,662c1,0,2,0,3-4,1,0,3,0,4,0,12,0,25-2,37-5,1,0,2,0,3,0,13-2,27-5,4-8,5,0,5-2,5-7,0-1,0-3,0-4,0-3-2-4-5-4-3,0-6,1-9,2-16,3-32,6-48,8-14,3-29,5-43,8-9,2-18,5-27,6-3,0-4,2-3,5,0,4,3,5,7,5,4,0,7,0,11,0ZM592,562c0,0-1,0-2,0-16,4-31,8-47,12-22,5-44,11-65,16-3,0-7,1-1,2-3,0-4,2-4,5,0,2,0,4,0,5,0,2,2,3,4,3,2,0,3,0,5,0,12-3,23-6,35-8,14-3,29-7,43-1,8-2,15-4,23-6,4-1,7-2,11-4,9-5,9-5,6-16ZM288,688c-4,0-7,1-1,2-2,0-3,0-5,1-7,1-15,2-22,4-2,5-4,8-6,1-2,0-4,0-6,0-2,0-4-1-4-4,0-1,2-2,4-3,0,0,0,0,1,0,9,0,17-1,26-2,2,0,4,0,7,0,18-3,36-7,54-1,4,0,7-2,11-3,2,0,3-2,3-5,0-2-3-2-4-2-13,2-26,4-39,5-5,0-1,2-15,3-11,2-22,4-33,5-8,1-16,2-24,2-6,0-12,0-18,0-1,0-4,1-4,2,0,5,2,9,3,14,0,0,2,0,4,0,4,0,8,0,11,0,6,0,11,1,17,0,9,0,18-2,27-3,6,0,11-2,17-3,11-2,22-3,32-5,7-1,14-2,21-3,2,0,6,0,7-6ZM559,448c0,0,0-1,0-2-4,0-7,0-11,1-9,1-18,3-28,5-13,2-27,4-4,7-12,2-23,4-35,6-33,4-66,9-98,16-27,5-53,12-8,17-3,0-6,0-9,1-6,1-11,3-16,4,3,0,6,0,9,0,5,0,1-3,14-3,14,0,28-5,41-7,16-3,33-7,49-8,21-2,42-6,63-9,14-2,28-5,43-8,11-2,23-3,34-5,2-4,39-8,59-13,1,0,3-2,4-2ZM48,422c0,0,0-1,0-2-4,0-7-2-11-2-9,0-19,0-28,0-9,0-18,2-26,4-12,2-24,4-37,7-2,4-41,6-6,13,0,0-2,0-3,0-9-1-12,5-18,11,4,0,7,0,9-1,16-3,33-6,49-9,22-4,45-8,67-12,17-3,35-6,52-9,2,0,4,0,6-1ZM266,217c-2,0-4,0-5,0-14,2-27,4-41,7-15,3-3,6-44,9-24,5-48,9-72,13-2,0-4,0-5,1-1,0-2,2-2,3,0,2,0,4,0,6,6,0,169-33,171-35,0-1,0-3,0-4ZM168,775s0,0,0,0c4,0,8-2,11-3,1-3,19-6,29-9,24-6,48-11,71-17,5-1,1-2,14-4,2,0,5-2,3-5,0-1-3-2-5-2-5,0-1,1-15,2-2,0-4,0-5,0-9,1-17,3-26,4-19,2-38,9-56,14-8,2-16,5-24,7-1,0-3,0-4,1-3,1-3,4-2,6,0,3,3,3,5,3,1,0,2,0,3,0ZM101,297c57-12,114-25,17-43-3,0-7,0-1,0-4,0-7,1-11,2-19,3-37,6-56,1-14,3-29,7-43,1-16,4-31,8-47,13-5,1-5,2-4,8ZM1,283c2,0,4,0,5-1,7-2,14-4,21-5,28-6,56-13,84-19,15-3,29-7,44-9,5,0,9-3,13-4,2,0,3-2,2-4,0-1-2-2-3-2-1,0-3,0-5,0-6,1-13,3-19,4-18,4-35,8-53,12-26,5-52,1-78,18-4,1-8,3-13,5-1,0-2,2-2,4,0,1,2,2,2,3ZM549,627c0,0,0,1,0,2,4,0,8-2,11-3,11-3,21-5,31-9,11-4,12-5,8-17,0,0,0,0-1-1-4,0-8,1-11,3-8,3-16,7-25,9-7,1-14,4-22,6,0,0-2,0-3,0-5,1-1,2-15,3-3,0-6,2-8,2-1,2-2,4-31,6-3,0-6,2-8,3-3,0-3,3-2,6,0,2,3,2,4,2,0,0,1,0,2,0,2-5,39-9,59-14,9-2,18-5,27-8,5-1,1-2,12-7,0,0,2,0,2,0,0,0,1,2,1,2,2,5,0,7-5,7-2,0-5,0-7,0-3,0-6,2-9,3-4,2-8,3-13,5ZM485,471c0,0,0-1,0-2-2,0-4,0-6,0-11,2-23,4-34,5-16,2-33,5-49,7-8,1-17,3-25,4-7,0-15,0-22,2-13,2-25,5-38,8-1,2-2,5-3,6-16,3-31,6-47,8-3,0-6,2-1,3-2,0-4,1-5,5,5,0,1-1,14-2,29-6,58-13,88-17,25-4,5-8,76-13,27-5,54-9,82-14,2,0,5-1,7-2ZM95,209c3,0,5,0,7-1,8-2,17-4,25-6,14-3,28-6,42-9,11-2,22-4,33-7,25-7,5-1,75-14,16-3,31-6,47-9,8-2,17-3,25-5,17-3,35-6,52-9,3,0,6-2,1-2-3,0-5,0-8,0-22,3-43,6-65,1-29,5-57,1-86,15-12,2-25,5-37,7-3,6-61,12-91,18-8,2-16,4-24,6-3,0-5,2-5,6ZM289,699c-4,0-7,1-1,2-2,0-4,1-6,2-8,1-15,2-23,3-18,3-36,6-54,9-8,1-17,3-26,1-6,0-12,0-18,0-1,9,0,11,8,11,3,0,5,0,8,0,5,0,9-2,14-2,22-2,44-3,66-9,11-3,23-6,35-9,2,0,5-1,6-6ZM228,271c-2,0-3,0-5,0-24,8-5,13-75,19-12,3-24,6-36,9-3,0-7,2-1,4-1,0-1,3-1,5,0,0,2,1,4,1,1,0,3,0,4,0,15-4,3-8,45-11,18-5,37-9,55-14,8-2,14-6,18-14ZM606,627c-3-7-4-8-1-5-13,6-28,9-42,12-12,2-23,7-35,1-9,3-18,6-27,8-3,0-6,0-9,1-2,0-5,1-4,4,0,1,3,2,4,3,0,0,2,0,3,0,7-1,14-3,21-4,24-6,49-11,73-19,9-3,17-7,26-1ZM453,547c0,9,1,1,9,8,16-4,32-8,49-12,16-4,32-9,47-14,5-1,1-3,15-5,6-2,7-5,5-11,0-2-2-5-3-7,0,9-6,12-12,14-12,4-24,7-36,1-22,5-44,9-67,14-2,0-4,1-7,2ZM483,677c2,0,3,0,4,0,9-2,18-4,26-7,13-3,26-8,39-1,16-3,32-8,48-13,2,0,4-2,7-3,2,0,3-2,2-4,0-2-2-3-5-3-3,0-7,1-1,2-11,3-22,7-32,1-6,2-12,4-18,5-11,3-22,5-33,8-8,2-16,4-24,6-2,0-4,1-5,3,0,0-1,3,0,4,0,0,2,1,3,2ZM611,65c-5,1-1,2-15,4-15,4-3,8-46,13-21,6-42,11-63,17-1,0-2,1-3,2,3,3,6,3,9,2,11-3,22-5,33-8,8-2,16-4,24-5,11-2,22-5,33-7,8-2,16-5,24-7,5-2,5-3,3-9ZM399,357c-3,0-6,0-9,0-14,2-28,4-42,7-15,3-29,5-44,8-6,1-7,4-4,8,2,3,4,2,7,1,24-4,48-9,72-13,7-1,14-4,2-7,2-1,2-2,1-5ZM321,434c2,0,4,0,6,0,31-5,63-1,94-15,4,0,8,0,12-4-8,0-14-5-21,0,0,0-2,0-2,0-4-3-9-2-14-1-16,3-31,6-46,9-8,2-17,4-25,6-3,0-6,3-4,7ZM97,271c2,0,4,0,6-1,15-4,3-8,45-11,19-4,38-8,57-12,5,0,9-2,14-3,16-3,32-7,47-1,0,0,2,0,4-2-3,0-4-1-5-1-4,0-7,1-11,2-12,3-25,5-37,8-12,2-24,4-35,7-19,4-38,8-57,12-8,2-16,4-23,6-3,0-5,2-4,7ZM292,715c-1,0-2,0-2,0-6,1-11,2-17,3-4,0-8,0-12,2-11,2-21,5-32,7-9,2-18,3-27,4-15,2-3,3-46,5,0,5,0,6,3,7,3,0,7,1,1,0,17-3,33-6,5-1,16-3,32-5,48-8,5-1,11-3,16-5,3,0,5-3,8-5ZM535,173c-7-2-7-2-13,0-4,0-7,2-11,2-2,2-39,6-58,12-6,2-6,2-3,9,0,0,1,0,2,0,2-4,39-7,59-11,7-1,13-3,2-4,5-1,5-2,5-7ZM164,601c2,0,6-1,9-2,18-7,37-12,56-15,11-2,21-4,32-7,3,0,5-1,8-3,1,0,2-3,2-4,0,0-2-2-4-2-1,0-3,0-5,0-11,3-23,5-34,8-2,5-41,1-61,15-3,0-5,2-7,3,0,0-2,2-2,3,0,1,1,2,2,3,0,0,2,0,4,0ZM307,395c17-3,33-5,49-8,12-2,24-5,36-7,0,0,1,0,2,0,2,0,3-3,2-5,0-3-3-3-5-2-2,0-4,1-6,1-6,0-12,0-18,2-19,4-39,8-58,12-6,1-6,3-3,8ZM294,351c0,0,0,1,0,2,1,0,2,0,4,0,6,0,12-1,18-2,18-3,37-7,55-1,7-1,14-3,22-4,1,0,2,0,3,0,6,0,8-2,7-1-18,3-37,6-55,1-18,4-36,9-54,14ZM262,208c-1,0-3,0-4,0-1,4-21,5-31,6-23,4-45,7-68,11-2,3-4,8-6,12-2,0-3,1-5,2,0,1,0,2,0,2,12-2,24-3,37-5,34-4,122-22,13-28ZM286,731c0,0,0-1,0-2-2,0-4,0-6,0-6,0-13,3-19,3-7,0-14,2-21,4-2,0-4,0-7,1-12,2-23,4-35,6-14,3-27,8-41,8-1,7,0,9,6,8,4,0,7,0,1-2,2-5,39-11,59-16,9-2,18-3,28-5,7-1,14-3,22-4,2,0,3,0,5-1ZM401,344c-5,0-1,0-16,0-5,0-9,0-14,1-13,2-25,5-38,7-12,2-24,5-36,8-2,0-4,1-3,3,0,0,2,1,4,2,0,0,2,0,3,0,7-1,14-2,2-3,23-4,46-7,68-11,3,0,6-2,9-3,2,0,3-2,2-4ZM536,189c-3,0-7,0-1,0-14,2-29,4-43,7-1,2-2,5-3,7-3,0-3,3-3,6,0,3,3,3,5,2,14-3,27-6,41-8,11-2,22-4,33-6,5-1,7-3,7-8ZM448,181c19-6,39-8,58-11,8-1,16-3,25-5,2,0,5-2,4-4,0-3-3-2-5-2,0,0,0,0-1,0-11,1-21,4-32,3-4,0-8,0-12,2-1,4-21,5-31,7-7,2-7,2-5,1ZM472,623c0,0,0,1,0,2,1,0,2,0,3,0,23-5,45-1,68-15,6-1,13-3,19-5,2,0,4-1,6-2,9-4,19-8,28-12,0,0,0,0,2-2,0-2,0-4-1-6-8,2-15,4-22,5,0,1,0,2,0,2,0,7,0,7-6,7-4,0-8,0-11,1-13,4-26,8-39,11-1,3-21,5-32,8-5,1-1,3-14,4ZM442,159c0,5,4,6,7,5,1-1,2-3,3-5,3,0,6-2,9-2,9,0,18-1,26-3,7,0,13-2,19-3,0-7-2-9-7-8-2,0-4,1-6,1-14,0-27,5-41,7-6,0-12,2-18,3-6,1-12,2-19,4ZM407,716c8,0,14-2,2-4,14-3,29-7,43-1,19-4,39-9,58-13,5-1,1-3,15-4,12-2,24-4,35-7,1-2,19-4,29-6,2,0,4,0,5-4-2,0-4,0-5,1-1,0-3,0-4,1-3,0-6,0-9,0-8,1-16,3-24,5-11,2-21,5-32,8-9,2-18,5-26,7-9,2-18,5-26,7-11,3-23,4-34,7-1,2-19,6-29,7-4,0-8,3-14,5ZM13,224c2,0,3,0,5,0,21-3,42-7,63-1,12-2,24-4,36-6,1-2,2-5,31-7,0-2,0-3,0-3,0,0,0-1-1-3-44,1-89,16-133,29ZM203,293s0,0,0-1c-2,0-5,1-7,2-5,1-9,3-14,4-24,6-47,12-71,19-2,0-3,1-5,2-2,0-3,2-3,4,0,2,2,2,4,2,0,0,0,0,1,0,18-4,36-9,54-13,8-2,16-3,23-9,0,0,1,0,2,0,8,1,11-6,16-8ZM312,402c0,7,1,7,6,6,18-4,36-7,54-11,7-2,15-2,21-7,0,0,1-2,2-3-8-1-71,1-83,15ZM393,406c0-7-1-7-6-7-9,1-18,3-28,5-12,3-24,6-36,9-1,0-3,0-4,1-1,0-2,2-2,4,0,2,2,3,4,2,4,0,7,0,11-2,18-3,36-7,54-1,2,0,4-1,7-2ZM181,669s0,0,0,1c1,0,3,0,4,0,2,0,5-2,7-1,1,1,19,0,28-2,19-3,38-7,58-11,0,0,2,0,3,0,0,0,2-2,2-3,0,0-2-2-3-2,0,0-1,0-2,0-11,2-22,4-33,6-8,1-16,3-23,5-13,2-26,5-39,7,0,0-1,0-2,0ZM466,227c0,0,0,1,0,2,2,0,5,0,7,0,8,1,16,2,24-1,3-1,7-1,1-2,11-2,21-3,32-5,0-6-1-7-7-6-14,2-27,4-41,6-9,1-17,4-26,6ZM452,219v2c3,0,6,0,9,0,1-1,19-3,29-5,13-2,26-4,39-7,3,0,7,0,9-4-2-4-5-3-9-3-11,2-22,4-33,6-11,2-21,4-32,7-4,1-8,2-12,4ZM102,333c0,0,0,1,0,2,1,0,3,0,4,0,11-2,23-4,34-8,2,0,4-2,6-1,2,0,3,2,5,4,7-5,14-1,2-15-2,0-3,0-4,0-8,2-16,4-24,6-13,3-25,7-38,11-1,0-3,2-4,3ZM338,689c-5,2-9,3-13,5-2,0-3,2-3,5,0,6,1,12,6,17,4-1,8-2,12-4,2,0,4-3,3-5-2-5-3-11-5-17ZM264,592s0,0,0,0c-2,0-5,0-7,0-9,2-18,3-27,5-16,3-31,7-47,1-5,1-1,3-15,4-4,0-7,2-11-1,0,0-3-1-4,0-1,0-3,2-3,3,0,2,1,3,3,3,5,0,1,0,14-1,1-2,19-5,29-7,7-2,15-3,22-5,7-2,15-4,22-5,8-2,16-4,24-6ZM184,6c0,0,0,1,0,2,1,0,3,0,4,0,5-1,1-4,15-5,17-3,34-6,5-9,5,0,9-2,14-3,2,0,4-1,3-4,0-2-2-2-4-2-6,1-12,3-18,4-15,3-3,7-45,1-7,2-13,4-2,7ZM557,51c-1,0-91,16-97,19,33-4,65-1,97-19ZM429,669c-1,0-2,0-3,0-2,0-4,0-6,2-5,2-6,4-4,1,1,3,2,5,3,8,0,3,2,4,5,3,2,0,5-2,7-3,0,0,2-2,2-2,0-6,0-12-2-18ZM174,67c-1-1-19,1-28,3,0,4,1,7,2,1,5,0,1,0,15,0,8,0,8,0,1-9,0-1,0-2,1-4ZM346,689c0,2,0,4,0,5,2,4,4,8,6,12,0,0,2,1,3,2,7,1,11-4,9-1,0-2,0-4-2-6-1-5-3-6-8-5-3,0-5,1-8,2ZM507,234c1,4,21,4,31,5,2,0,4-1,4-4,0-3,0-5-4-6-11-3-2,2-31,4ZM224,784s0,0,0-1c0,0,0,0-1,0-18,4-36,8-54,12-3,0-4,3-2,6,19-5,38-11,57-16ZM384,7c-2-6-3-12-5-18-4,1-8,2-11,3-1,6,2,9,4,14,2,5,3,5,8,4,1,0,3-1,5-2ZM361,615c-4,0-9,2-15,3,0,4,1,7,2,1,0,1,3,3,4,3,12,0,15-4,9-15,0,0,0,0,0,0ZM224,675s0,0,0,1c4,0,8-1,12-2,11-2,22-3,33-5,4,0,8,0,13-1,3,0,5-2,3-6-6,1-12,2-18,3-5,1-11,3-16,3-9,0-17,3-26,6ZM317,71h0c0-4-1-8-2-12,0-3-2-4-5-3-3,0-6,0-6,4,1,6,3,12,5,17,0,0,3,2,4,2,1,0,3-2,3-3,0-1,0-3,0-5ZM28,776c-27,4-52,13-77,22,1,0,2,1,3,0,5-1,1-2,14-4,11-4,22-9,34-11,9-2,17-5,26-8ZM385,624c0-4-2-7-3-9,0-1-2-3-3-3-3,0-6,0-9,0-3,0-3,4-2,6,0,3,0,7,4,8,0,0,0,0,1,0,4-1,7-2,11-3ZM404,62c4,0,6,0,9-2,6-1,7-4,5-1,0-2-2-3-3-4-4,1-8,2-12,3,0,4,0,8,1,12ZM142,335c0,0,0-1,0-2-4,1-8,2-12,3-7,2-14,3-21,5-2,0-5,0-4,4,0,3,4,2,6,1,8-2,15-4,23-6,3-1,6-3,9-5ZM445,665c-8,1-9,3-7,9,1,4,2,8,3,12,8-2,9-3,7-1,0-4-2-7-3-11ZM395,678c-4,0-7,1-1,2,0,3,0,5,1,6,2,4,4,8,6,12,1,0,3-1,6-2,0-6-2-12-2-19ZM329,622c0,2,0,5,0,7,1,6,3,6,8,5,4-1,5-3,4-7,0-2-2-5-3-7-3,0-4,0-6,0-1,0-2,0-4,1ZM322,623c-2,0-4,0-5,0-5,0-6,2-5,8,0,5,1,6,6,5,7,0,8-3,6-1,0-1-1-2-2-3ZM476,647h0c15,0,29-6,44-11-2,0-4,0-6,0-12,3-23,6-35,9-1,0-3,2-4,2ZM166,176c-9-1-53,6-62,11,21-4,42-7,62-11ZM39,622c9-2,1-4,6-13-1,0-11,4-6,13ZM218,676c-9-1-37,3-41,6,6,1,35-3,41-6ZM254,265c6,6,12,7,18,2,0,0,2-2,1-3,0,0-2-2-3-2-6,0-11,1-17,3ZM432,608s0-2,0-3c0-2-1-4-3-3-2,0-4,2-5,3,0,1,0,3,0,5,0,2,1,5,5,4,3,0,4-3,4-7ZM266,289c2,9,3,1,12,5,0-2,0-4,0-7-3,0-5,0-8,0-1,0-2,0-3,1ZM407,694c3-6,3-11,0-2-5,1-5,2-4,5,1,5,3,9,5,15ZM306,632c0,0,0-2,0-4,0-2-2-3-4-3-3,0-3,3-3,6,0,3,0,6,3,7,1,0,3-1,4-2,0,0,0-2,0-4ZM348,681c2,0,4,0,6-2,1,0,2-2,2-3,0-1-2-3-3-3-2,0-4,0-6,0-2,0-6,0-5,4,0,4,4,2,6,3ZM406,558c-3,0-5,0-7,1-3,0-4,3-3,5,0,3,2,3,4,3,6,0,8-2,6-1ZM373,669c-3,0-6,1-9,2-2,0-3,2-3,4,0,2,2,3,4,3,3,0,5-2,7-3,1,0,2-2,2-4,0-1-2-2-3-2ZM396,669c-2-3-3-5-4-5-3,0-7,2-1,3,0,0,0,3,0,4,0,0,2,2,3,1,3,0,6-2,11-4ZM412,66c0,3,0,5,3,5,3,0,7-2,1-3,2,0,3-2,1-5-5,1-1,2-15,4ZM332,669c0,0-1-2-2-2-4,0-8,0-11,2-2,0-1,4,0,5,2,1,11-1,12-3,0,0,0,0,0-2ZM424,563c0-3-1-5-2-7-9,0-1,2-7,1,3,0,6-2,9-3ZM425,646c-3,0-7,0-1,1-1,0-3,0-4,2-1,1-1,3,0,4,3,2,12-2,14-5,0,0,0,0,0-2ZM437,603c0,3,0,4,1,6,0,2,2,3,4,2,2,0,3-2,3-4,0-1,0-3-1-4,0-2-2-4-4-3-1,0-2,3-3,4ZM321,687c5-1,9-3,13-4,0,0,1-2,1-3,0,0-1-2-2-2-4,0-8,2-12,3,0,0,0,2,0,5ZM388,562c-2,0-4,0-6,1-3,0-3,3-3,5,0,2,2,3,4,3,5,0,6-3,5-9ZM361,574c3,0,6,0,9-2,3,0,4-3,2-6-1,0-12,1-11,7ZM362,666c3-1,6-2,9-3,0,0,2-2,1-3,0,0-2-2-3-2-3,0-6,0-8,2-1,0-2,2-2,3,0,0,2,2,3,3ZM342,67c3,0,6-1,9-2,0,0,1-2,2-3,0,0-2-2-3-2-3,0-5,0-8,1-1,0-2,2-3,3,1,1,2,2,3,3ZM311,669c-3,0-5,1-7,3-1,0-1,2-2,4,0,0,1,2,2,2,2,0,5,0,7-2,2-1,2-3,0-7ZM471,536c0,0,0-1,0-2-7,1-14,2-21,3,0,0,0,1-1,3,8,0,15-3,22-4ZM35,651c-5,0-9,1-12,2,0,0-2,2-2,3,0,0,0,1,2,2,3,1,9-1,13-7ZM372,648c-5-2-12,0-15,4,5,2,1,0,15-4ZM337,576c4,4,8,0,12,0,2,0,5,0,4-5-6,0-11,2-16,4ZM352,64c5,4,12,2,16-3-6-2-1,0-16,3ZM27,597c-1,0-19,2-27,6,4,0,8,0,12-1,5-1,11-3,16-4ZM328,645c-4-3-8-1-12,0,0,0-1,2,0,3,0,0,2,2,3,2,3,0,7,0,1-5ZM42,625c-7-2-12,0-13,4,7,0,1,0,13-4ZM408,64c6,0,1,0,14-3,0,0,0-1,0-2-8,0-12,0-15,5ZM337,646c3,0,5-2,7-3,0,0,2-2,1-3,0,0-2-2-2-2-2,0-5,0-7,1-1,0-2,2-3,3,1,0,2,2,3,2ZM27,276c-1,0-4,0-6,2,0,0-1,1-1,2,0,0,1,2,1,2,3,0,7,0,1-1,0,0,0-2,0-2,0,0-1-1-2-2,0,0-2,0-4,0ZM39,643c-4,0-8,0-11,1,0,0-1,2-2,3,0,0,0,1,2,2,3,0,9-2,11-6ZM33,656s-1,0-2,0c-3,0-6,1-9,2,0,0,0,2,0,2,0,0,1,2,2,2,3,0,6-2,9-3,0,0,0-1,2-3ZM351,565c-7-2-14,0-16,4,6,0,11-1,16-4ZM302,652c4,0,7-2,7-5,0-1-2-3-3-3-3,0-6,3-6,5,0,0,1,2,2,2ZM373,636c8,2,11,0,13-4-5,0-9,0-13,4ZM311,663c0,0,0-2,0-2-1,0-3-2-4-2-2,0-4,0-5,2-1,1,0,3,1,3,2,0,5,0,7-1ZM391,656s0,0,0-1c-3,0-6,0-1,1-2,0-3,2-1,4,4,0,8,0,11-4ZM433,648c3,0,6,0,7-4,0,0-2-2-3-3-3,0-4,2-3,7ZM313,684c-3,0-6,0-8,0,0,0-1,1-1,2,0,0,0,2,1,2,3,0,6,0,8-5ZM291,627c-3,4-2,6,1,12,1-6,1-7-1-12ZM462,66c-2,6-1,1,2,13,0-4,0-8-2-13ZM534,718c5,0,1,0,16-4-7-1-11,3-16,4ZM432,561q2-4,0-8c-4,2-4,2,0,8ZM497,609c-4-1-8,0-13,2,6,2,9,0,13-2ZM278,302c-2,0-4,1-6,2,0,0,0,0,0,1,1,0,3,3,4,2,2,0,4-2,2-6ZM354,588c0,0,0-1,0-2-5,0-1,0-14,3,0,0,0,0,0,1,5,0,9-2,14-3ZM563,71s0,0,0,1c5-1,9-2,14-3-5-1-1,0-14,2ZM393,634q6,0,7-5c-3,1-6,0-7,5ZM44,653c-2,1-3,3-4,4,0,0,0,2,2,2,2,0,5-2,5-3,0,0-1-1-2-3ZM47,614c0,0,0,1,0,2,4,0,7,0,1-2,0,0,0,0,0-1-3,0-7,1-1,2ZM277,16s0,0,0,1c5,0,1-2,14-3,0,0,0,0,0-1-5,0-1,2-15,3ZM406,665c-2-1-3-2-4-3,0,0-2,2-2,2,0,1,1,2,2,3,0,0,2-1,3-3ZM394,641c5,3,6,3,7-3-2,0-4,1-7,3ZM437,631c-3,0-5,0-8,0,2,5,3,5,8,0ZM539,46s0,0,0-1c-4,0-8,2-11,3,0,0,0,0,0,1,4,0,7-2,11-2ZM45,645c1-2,2-4,0-6,0,0-2,0-2,0-1,2,0,4,2,5ZM329,579c0,0,0-1,0-2-2,0-5,0-7,4,3,0,5-1,7-2ZM397,655c3,0,5,0,6-3-3-1-5,0-6,3ZM428,622c0,0,0,1,0,2,2,1,4,0,6-3-3,0-5,0-6,1ZM516,72s0,0,0,1c2,0,5,0,7-1,0,0,0,0,0-1h-7ZM522,129c2,2,4,2,7,0h-7ZM106,357c3,0,4-1,6-4-3,0-5,0-6,4ZM451,607h2c0-2-1-5-2-7,0,0,0,0-1,0,0,2,0,4,1,7ZM222,171s0,0,0,1c3,0,5-1,8-2,0,0,0,0,0,0-3,0-5,1-8,2ZM278,32q0-6-3-7c1,2,2,4,3,7ZM442,619c2,3,4,2,5,0,0,0,0,0,0-2-2,0-3,0-5,1ZM25,165h0c2,0,4,0,6,0,0,0,0,0,0-1-2,0-4,0-6,1ZM449,629c-1,0-2-1-3,0,0,0-1,1-2,2,0,0,1,1,2,1,0,0,1,0,2-2ZM326,572c0,0,0-1,0-2-1,0-3,1-4,2,0,0,0,0,0,1,1,0,3,0,4-1ZM188,171s0,0,0,0c2,0,4,0,6,0,0,0,0,0,0,0-2,0-4,0-6,1ZM311,575s0,0,0-1c-1,0-3,1-4,2h0c1,0,3,0,4,0ZM483,533s0,0,0,0c-2,0-3,1-5,2,0,0,0,0,0,0,2,0,4,0,6-1ZM325,592s0,0,0,0c0,0,2,0,2,0,0,0,1,0,2-1,0,0,0,0,0,0-1,0-3,0-4,1ZM491,468s0,0,0,1c0,0,2,0,3-1,0,0,0,0,0,0-1,0-2,0-3,0ZM508,723s0,0,0-1h-3c0,1,0,2,0,2,0,0,2,0,3,0ZM216,173s0,0,0,0c-1,0-2,0-3,0,0,0,0,0,0,0h3ZM453,529h0c0,0,1,0,2,0,0,0,0,0,0,0,0,0-1,0-2,0ZM542,63s0,0,0-1c0,0,0,0-1,0,0,0,0,0-1,1,0,0,0,0,1,0ZM31,769s0,0,1,0c0,0,0,0-1,0,0,0,0,0,0,0,0,0,0,0,0,0ZM458,642c0-1,0-2,0-2,0,0,0,0-2,0,0,0,0,1,0,3ZM494,728s0,0,1,0c0,0,0,0-1,0,0,0,0,0,0,0,0,0,0,0,0,0Z"/>
      <path class="cls-1" d="M41,72c0,7-3,13-6,2-4-2-8-5-9-11,2,2,5,3,7,5,2-6,4-1,6-15,0,0,0,0,1,0Z"/>
      <path class="cls-2" d="M305,431c-3,3-6,6-9,9-11,9-21,18-32,27-11,9-22,17-33,25-26,2-52,39-76,61-5,5-11,8-17,13-6,5-12,1-19,15-1,0-2,2-4,3-5,3-6,3-9-1-5-7-1-14-15-22-1-16-2-32-3-49-7-13-14-26-21-39-3-6-6-11-9-17-5-11-5-14,4-22,18-16,37-3,57-43,16-11,31-23,47-34,14-11,29-22,43-32,18-13,37-25,55-38,5-3,7-2,9,3,3,7,5,15,8,22,5,14,11,28,16,42,4,1,8,19,12,29,3,6,6,11,8,17,4,1,8,2,13,31ZM105,46c3-1,5-2,7-2,3,0,6,0,9,0,6,1,7,3,4,9-3,8-6,17-8,25-2,7-3,14,0,21,1,4,6,8,1,8,4,0,7-2,9-7,0-2,2-5,3-8,5-16,2-31-4-46-2-4-2-5,3-9,0,1,2,2,3,3,5,5,14,4,16-3,3-9,2-18-7-23-2-1-4-2-5-2-5-2-7,0-8,4,0,3,0,7,0,1,0,5-2,1-6,13-6-2-12-3-18-4,0-3,2-7,3-1,3-9,4-18,1-28-2-6-5-1-1-1-8,0-15,3-17,9-1,6-3,12,0,18,2,5,0,1-2,15-3,5-7,9-14,11-2,0-4,2-3,4,0,3,3,2,5,2,5,0,8-3,11-7,2-3,5-5,8-9,4,16,9,3,11,45,2,0,4,0,6,0-2-9-4-18-6-27ZM198,414c5-3,5-6,5-11,0-9,0-18,3-27,1-3,2-6,6-5,2,0,4,4,4,6,2,7,2,14,4,2,2,9,3,17,5,25,2,6,5,12,9,17,3,3,6,4,11,3,9-3,13-1,15-18,0-4-1-9-5-11-4-2-7,0-1,2-1,0-2,2-2,4,1,0,3,2,4,2,2,0,4,0,6-1,1,4,0,7-2,9-3,3-5,5-9,7,0,0-3,0-4,0-2-1-4-3-5-5-3-5-5-1-6-16-3-13-5-26-7-39,0-4-2-7-5-1-3-3-7-3-1,0-2,2-3,4-4,6-1,5-2,11-3,16,0,2,0,5-1,7-5-2-6-8-12-7-5,5-7,12-11,2-11-4-16,4-21,11-1,2-2,4,0,6,2,0,3-1,5-2,0,3,1,6,2,8,1,4,6,8,1,8,5,0,8-2,1-7,3-5,3-11,0-16,0-1-2-3-2-4,3-5,6-9,1-15,3,6,6,12,9,17ZM21,471h0c0-1-2-1-2,0-3,2-5,4-8,6-11,9-22,18-33,27-3,2-3,5-1,7,3,2,4,0,6-2,0,0,0,0,0,0,1-1,2-19,3-28,3-3,6-5,9-8ZM164,485c7,0,9-5,13-8,4-3,8-7,12-11,4-4,9-5,11-12-3,1-4,2-6,2-6,5-13,1-19,14-2,2-4,3-7,4-6,2-6,4-5,11ZM162,472c2,0,3-1,4-2,7-7,14-14,21-21,2-2,4-3,3-6,0,0-2,0-2,0-9,7-18,15-26,22-2,2-2,4,0,7Z"/>
      <path class="cls-2" d="M623,423c-15-3-29-5-44-7-21-3-41-6-62-9-9-1-18-3-27-4-2-2-39-3-59-5-4,0-7,0-11-1-4,0-6-2-5-7,0-4,0-8,0-13,2-19,4-38,6-56,1-16,2-31,4-47,1-1,4-2,6-29,0-4,4-4,7-4,9,0,18,2,27,3,13,2,26,3,39,5,13,2,27,4,4,6,2,3,39,7,58,1,13,2,27,4,4,8,5,1,11,3,14,6,3,3,0,9,0,14-2,14-5,29-6,43-2,17-3,33-6,5-2,11-5,23-8,34,0,2-3,3-5,4-2,0-5,0-7,0,0,0,0,0,0,0ZM457,317c3-3,5-5,7-7,6-6,11-13,15-2,2-4,2-7,0-11-2-3-6-4-1-3-4,1-8,2-12,4-8,3-11,11-16,17,0,0,0,0,0,1-2,12-4,24-7,36-2,1-4,19-6,29,0,3-1,7,2,9,3,0,7-1,1,0,1,2,18-2,25-9,2-2,3-3,5-5,0,0,0,0,1,0,0,2-1,4-2,6,0,2-2,4-2,6,0,1,1,4,3,4,1,0,3-1,4-2,0,0,0-2,0-2,2-6,3-11,5-17,3-8,7-11,16-11,0,0,0,2,0,3,0,7-2,14-3,21,0,5,0,7,6,7,1,0,3,0,4,0,3,2,4,0,5-2,0-2,1-4,2-6,2-8,4-16,7-24,2-6,4-12,6-18,0-2,0-4,4-5,0,4,0,8,0,11,0,1,0,2,3,3,1,4,3,7,4,1,0,3,2,6,6,7,4,0,5-3,7-5,0,0,0-2,1-2,2-1,5-19,7-29,2-12,2-24,5-36,0-3,0-5-3-7,0,2-2,4-2,6-1,8-2,15-3,23-1,11-3,22-7,32,0,2-1,5-5,6-4-5-6-1-6-17,0-16,0-31-1-47,0-1-1-4-2-4-1,0-3,0-4,2,0,0,0,2-1,4,0,3-2,6-3,9-4,13-9,27-14,4-2,5-4,1-6,15-4-3-3-6-3-9,2-16,5-32,7-48,0-6,0-12,1-17,0-2,0-5-3-6-3-1-5,1-6,4,0,2-2,5-3,7-5,12-9,23-14,35-3,6-5,12-8,19,0-13-1-26-16-34ZM577,344c0-3,0-6,1-8,2-8,4-15,7-23,2-5,4-6,8-4,3,1,6,3,1,6,0-1,2-3,2-4,0-2,0-4-3-5-3,0-7-2-1-3-8-2-1,0-12,7-3,9-5,18-8,27-4,15-5,3-6,45,0,3,1,5,4,6,5,2,11,2,16,0,2,0,4-3,3-6-1-3-3-3-6-2,0,0-2,1-3,1-3,0-6,0-6-4,0-8-1-17,3-24,5,0,9-1,13-2,2,0,4-1,4-2,0-2,0-4-2-6-5,1-1,3-15,0ZM615,391c0,0-2-2-3-2-2,0-5,2-4,5,0,1,2,3,3,3,2,0,5-2,5-5Z"/>
      <path class="cls-2" d="M413,269c-2,11-3,23-5,34,0,3-2,5-5,6-2,0-3,0-5,0-7,0-14,3-21,4-11,3-22,4-33,5-6,0-12,2-18,3-9,1-17,2-26,2-4,0-5,0-6-5,0-3,0-7-1-11-1-16-3-33-4-49-2-17-4-33-5-5,0-4,0-8,2-12,0-2,3-4,5-4,11-5,23-8,35-1,13-2,26-4,38-5,9-1,17-2,26-3,9,0,19-1,28-3,11-2,15,2,16,11,3,12,5,25,3,38,0,4-1,5-5,5-2,0-4,0-5,0-7,0-1,2-11,9-1,1-2,19-3,29,0,1,0,2,0,3h0ZM372,258c-6,0-8-5-11-8-6-5-6-5-3-12,3-7,5-14,5-21,0-3,0-7,2-1,2-7,0-1-6-11-3,0-6,0-8-2-5-2-1-2-15,1-3,2-5,3-8,4-4,2-5,3-4,7,0,3,0,6,0,9,0,2,0,4,0,6,1,7,6,12,1,17,3,5,4,9,2,14-4,9-6,19-2,29,2,5,3,1,9,13,9,3,19,2,26-5,1-1,3-2,4-4,1,2,3,4,4,6,2,4,4,5,8,2,4-3,5-1,2-14-5-7-8-14-6-23,2-7,2-14,2-21,0-2,0-4,0-6-4-2-7,0-7,3,0,4-2,8-2,12,0,4,0,9-2,13Z"/>
      <path class="cls-2" d="M561,464c2,6,0,9-4,1-14,3-29,7-43,1-8,2-16,4-24,5-13,2-26,3-39,5-21,3-42,8-62,11-19,3-38,5-57,9-3,6-61,12-91,18-15,3-29,8-43,11-3,0-7,2-1,3,0,0,0-1,0-2,3-3,7-5,1-8,6-6,14-9,23-1,1-2,2-5,3-7,17-4,34-7,52-1,3-5,6-1,89-15,13-2,27-4,4-6,14-2,29-5,43-8,11-2,22-3,33-7,13-4,27-5,41-8,4-1,9,0,14,0Z"/>
      <path class="cls-2" d="M152,578c0-4,3-4,5-4,13-4,27-7,4-9,17-3,34-8,51-12,15-3,31-6,46-9,15-3,31-7,46-1,6-1,12-2,18-3,21-3,41-6,62-1,35-6,69-13,103-23,1-3,2-5,3-7,3,0,6,0,8,0,3,8,2,1-5,12-15,4-3,7-46,1-27,6-53,12-8,17-13,3-25,5-38,7-23,4-46,8-68,12-4,6-79,14-119,22-12,3-23,5-35,7-5,0-1,1-15,2-2,0-3,0-5,0Z"/>
      <path class="cls-2" d="M618,684c-6,2-1,5-15,6-22,7-44,11-66,15-18,3-37,8-55,11-17,4-34,7-52,11-12,3-23,6-35,8-15,3-3,5-45,8-19,4-37,9-56,14-13,3-26,7-39,1-24,6-48,11-73,17-7,1-13,2-2,2,0,0,2-2,3-2,14-1,26-7,4-11,8-2,17-4,25-6,8-2,15-4,23-6,11-3,22-5,32-7,4,0,8-2,12-3,2,0,3-1,5-1,16-4,32-7,48-11,19-4,37-8,56-12,17-4,34-9,5-13,9-2,17-4,26-5,1,0,2,0,3,0,2-5,4-11,61-16,11-3,22-4,33-6,3,0,6-2,8-2,7-1,14-2,22-3,3,0,6,0,9,3Z"/>
      <path class="cls-2" d="M166,563c3-4,6-6,9-7,2-6,4-13,61-18,24-6,48-1,73-15,13-3,26-4,4-6,13-2,26-4,39-7,0,0,1,0,2,0,16-3,32-6,49-8,2-3,39-6,59-9,4,0,8-2,12-2,4,0,9-2,13-2,6,0,11-1,17-3,6-3,13-3,21-4-7,4-13,4-19,6-7,2-14,4-21,6-13,3-26,7-39,1-23,5-46,1-69,14-21,4-43,7-64,11-19,3-37,8-56,12-7,1-14,3-22,4-22,5-43,1-65,14-12,2-24,4-37,6Z"/>
      <path class="cls-2" d="M516,138c-2,0-3,1-4,1-22,4-44,8-66,12-24,4-48,9-72,13-21,4-42,9-64,1-3,0-5,1-8,2-11,2-21,4-32,6-3,0-6,1-7,5,0,1-3,2-4,3-9,2-18,4-27,6-17,3-35,7-52,1-15,3-3,6-44,9-1,2-19,5-29,7-4,0-7,1-11,2-2-5-2-7,2-8,14-4,29-8,43-12,17-4,33-8,5-11,27-6,54-11,81-15,13-2,25-5,38-7,21-4,42-7,63-1,4,0,7-2,11-2,13-3,27-6,4-8,19-3,38-6,57-9,1-2,21-2,31-4,0,0,2,0,4,0Z"/>
      <path class="cls-2" d="M555,431c0,3,1,5,2,8-3,0-7,2-1,3-29,5-58,1-88,14-23,4-46,8-69,11-32,4-64,13-96,19-14,2-27,5-41,8-1,0-3,0-5,0,5-5,9-9,16-1,5,0,1-2,15-3,15-3,31-7,46-1,23-5,47-9,7-13,13-2,26-5,39-7,18-4,37-8,55-11,14-3,28-5,41-7,4,0,9-2,14,0,1,0,3,0,4,0,2,0,4,0,6-1Z"/>
      <path class="cls-2" d="M521,427c-2,0-3,1-5,2-8,15-16,31-24,46,0,0-1,0-3-1,5-4,9-8,13-11,0,0,2-1,3,0,4,2,7,0,11-1,16-4,32-7,48-1,9-2,18-3,27-5,18-3,36-6,54-9,17-3,34-6,51-9,5,0,11-1,16-2,0,0,2,0,3,0,4-5,1-2,14-2,3,0,5,0,8,1,0,0,0,0,0,1Z"/>
      <path class="cls-2" d="M163,662c-4,0-7,0-11,0-5,0-6-2-7-5,0-3,0-5,3-5,9,0,18-4,27-6,14-3,29-5,43-8,16-3,32-6,48-8,3,0,6-1,9-2,3,0,5,0,5,4,0,1,0,3,0,4,0,5,0,6-5,7-13,3-27,5-4,8-1,0-2,0-3,0-12,3-24,4-37,5-1,0-3,0-4,0-9,4-2,3-3,4Z"/>
      <path class="cls-2" d="M592,562c3,11,3,11-6,16-3,2-7,3-11,4-7,2-15,4-23,6-14,3-29,7-43,1-12,3-23,6-35,8-2,0-3,0-5,0-2,0-4,0-4-3,0-2,0-4,0-5,0-3,0-5,4-5,3,0,6-1,1-2,22-5,44-11,65-16,16-4,31-8,47-12,0,0,0,0,2,0Z"/>
      <path class="cls-2" d="M288,688c0,5-4,5-7,6-7,1-14,2-21,3-11,2-22,3-32,5-6,0-11,2-17,3-9,1-18,3-27,3-5,0-11,0-17,0-4,0-8,0-11,0-1,0-4,0-4,0-1-5-2-9-3-14,0,0,3-2,4-2,6,0,12,0,18,0,8,0,16-1,24-2,11-1,22-3,33-5,5,0,1-2,15-3,13-2,26-4,39-5,2,0,4,0,4,2,0,2,0,4-3,5-4,1-7,2-11,3-18,4-36,7-54,1-2,0-4,0-7,0-9,0-17,1-26,2,0,0,0,0-1,0-1,0-4,2-4,3,0,2,2,3,4,4,2,0,4,0,6,0,2-2,4-5,6-1,7-2,15-3,22-4,2,0,3,0,5-1,3,0,6-1,1-2Z"/>
      <path class="cls-2" d="M559,448c-1,0-3,2-4,2-2,4-39,9-59,13-11,2-23,3-34,5-14,2-28,6-43,8-21,3-42,7-63,9-17,1-33,5-49,8-14,3-27,7-41,7-5,0-1,2-14,3-3,0-6,0-9,0,5-1,11-3,16-4,3,0,6,0,9-1,27-6,53-12,8-17,32-7,65-11,98-16,12-2,23-4,35-6,13-2,27-5,4-7,9-2,18-3,28-5,4,0,7,0,11-1,0,0,0,1,0,2Z"/>
      <path class="cls-2" d="M48,422c-2,0-4,0-6,1-17,3-35,6-52,9-22,4-45,8-67,12-16,3-33,6-49,9-3,0-5,0-9,1,6-6,9-12,18-11,0,0,2,0,3,0,19-7,4-1,6-13,12-2,24-5,37-7,9-1,18-3,26-4,9,0,19,0,28,0,4,0,7,1,11,2,0,0,0,1,0,2Z"/>
      <path class="cls-2" d="M266,217c0,2,0,3,0,4-2,2-164,36-171,35,0-2,0-4,0-6,0-1,1-3,2-3,1,0,3-1,5-1,24-4,48-9,72-13,15-3,3-6,44-9,14-3,27-5,41-7,2,0,3,0,5,0Z"/>
      <path class="cls-2" d="M168,775c-1,0-2,0-3,0-2,0-4,0-5-3,0-3,0-5,2-6,1,0,3,0,4-1,8-2,16-5,24-7,19-5,37-12,56-14,9,0,17-3,26-4,2,0,4,0,5,0,5,0,1-2,15-2,2,0,5,0,5,2,1,3-1,4-3,5-5,1-9,2-14,4-24,6-48,11-71,17-1,2-2,6-29,9-4,1-8,2-11,3,0,0,0,0,0,0Z"/>
      <path class="cls-2" d="M101,297c-1-6-1-7,4-8,16-4,31-9,47-13,14-4,28-7,43-1,19-4,37-7,56-1,4,0,7-1,11-2,3,0,7,0,1,0-56,18-113,31-17,43Z"/>
      <path class="cls-2" d="M1,283c0,0-2-2-2-3,0-1,0-3,2-4,4-2,8-3,13-5,26-8,52-13,78-18,18-3,35-8,53-12,6-1,13-3,19-4,2,0,3,0,5,0,1,0,3,1,3,2,0,2,0,3-2,4-4,2-9,4-13,4-15,1-3,6-44,9-28,6-56,12-84,19-7,2-14,4-21,5-2,0-3,0-5,1Z"/>
      <path class="cls-2" d="M549,627c4-2,8-3,13-5,3-1,6-3,9-3,2,0,4,0,7,0,6,0,7-1,5-7,0,0,0-1-1-2,0,0-2,0-2,0-3,5-7,6-12,7-9,2-18,5-27,8-2,5-39,9-59,14,0,0-1,0-2,0-2,0-4,0-4-2,0-2,0-5,2-6,3-1,5-2,8-3,1-2,2-4,31-6,3,0,6-2,8-2,5-1,1-2,15-3,0,0,2,0,3,0,7-2,14-5,22-6,9-1,17-5,25-9,4-2,8-2,11-3,0,0,0,0,1,1,3,12,3,13-8,17-1,3-21,6-31,9-4,0-8,2-11,3,0,0,0-1,0-2Z"/>
      <path class="cls-2" d="M485,471c-2,0-5,2-7,2-27,5-54,1-82,14-25,4-5,9-76,13-3,4-58,12-88,17-5,0-9,1-14,2,0-3,3-4,5-5,3-1,6-2,1-3,16-3,31-5,47-8,1-2,2-4,3-6,13-3,25-6,38-8,7-1,15-1,22-2,8-1,17-3,25-4,16-2,33-5,49-7,11-2,23-4,34-5,2,0,4,0,6,0,0,0,0,1,0,2Z"/>
      <path class="cls-2" d="M95,209c0-4,2-5,5-6,8-2,16-5,24-6,3-6,61-12,91-18,12-2,25-5,37-7,28-5,57-1,86-15,22-4,43-7,65-1,3,0,5,0,8,0-3,0-6,2-1,2-17,3-35,6-52,9-8,1-17,3-25,5-16,3-31,6-47,9-25,5-5,8-75,14-11,3-22,5-33,7-14,3-28,6-42,9-8,2-17,4-25,6-2,0-5,0-7,1Z"/>
      <path class="cls-2" d="M289,699c0,5-3,5-6,6-12,3-23,6-35,9-22,6-44,7-66,9-5,0-9,2-14,2-3,0-5,0-8,0-8,0-1-2-8-11,6,0,12,0,18,0,9,1,17,0,26-1,18-3,36-6,54-9,8-1,15-2,23-3,2,0,4-1,6-2,3,0,6-1,1-2Z"/>
      <path class="cls-2" d="M228,271c-4,8-11,12-18,14-18,4-37,9-55,14-15,4-3,8-45,11-1,0-3,0-4,0-1,0-4,0-4-1,0-2,0-4,1-5,3-2,6-3,1-4,12-3,24-6,36-9,25-6,51-11,75-19,2,0,3,0,5,0Z"/>
      <path class="cls-2" d="M606,627c-9,3-18,7-26,1-24,8-48,13-73,19-7,2-14,3-21,4,0,0-2,0-3,0-2,0-4-2-4-3,0-3,2-3,4-4,3,0,6,0,9-1,9-3,18-6,27-8,12-3,23-8,35-1,14-3,29-6,42-12,6-3,7-2,1,5Z"/>
      <path class="cls-2" d="M453,547c2,0,4-1,7-2,22-5,44-9,67-14,12-3,24-6,36-1,6-2,13-6,12-14,0,2,2,5,3,7,2,6,1,9-5,11-5,2-1,3-15,5-16,5-32,9-47,14-16,4-32,8-49,12-8,2-8,1-9-8Z"/>
      <path class="cls-2" d="M483,677c0,0-2,0-3-2,0-1,0-3,0-4,1-1,3-2,5-3,8-2,16-4,24-6,11-3,22-5,33-8,6-2,12-4,18-5,11-3,21-7,32-1,3-1,7-2,1-2,2,0,4,0,5,3,0,2,0,3-2,4-2,0-4,2-7,3-16,5-31,1-48,13-13,3-26,7-39,1-9,2-18,4-26,7-1,0-2,0-4,0Z"/>
      <path class="cls-2" d="M611,65c2,6,2,8-3,9-8,3-16,5-24,7-11,3-22,5-33,7-8,2-16,4-24,5-11,3-22,5-33,8-3,0-6,1-9-2,1,0,2-2,3-2,21-6,42-11,63-17,15-4,3-8,46-13,5-1,1-2,15-4Z"/>
      <path class="cls-2" d="M399,357c1,3,1,4-1,5-6,3-13,6-2,7-24,4-48,8-72,13-2,0-5,1-7-1-3-5-2-7,4-8,15-3,29-6,44-8,14-2,28-4,42-7,3,0,6,0,9,0Z"/>
      <path class="cls-2" d="M321,434c-1-5,0-7,4-7,8-2,17-4,25-6,15-3,31-6,46-9,5,0,9-2,14,1,0,0,2,0,2,0,7-4,13,0,21,0-4,4-8,4-12,4-31,5-63,1-94,15-2,0-4,0-6,0Z"/>
      <path class="cls-2" d="M97,271c-1-5,1-6,4-7,8-2,15-4,23-6,19-4,38-8,57-12,12-2,24-4,35-7,12-2,25-5,37-8,4,0,7-2,11-2,1,0,3,0,5,1-2,1-3,2-4,2-16,3-32,7-47,1-5,1-9,2-14,3-19,4-38,7-57,12-15,3-3,8-45,11-2,0-4,0-6,1Z"/>
      <path class="cls-2" d="M292,715c-3,2-6,4-8,5-5,2-1,4-16,5-16,3-32,6-48,8-17,3-33,7-5,1-3,0-7,0-1,0-4,0-4-2-3-7,15-2,3-3,46-5,9-1,18-2,27-4,11-2,21-4,32-7,4,0,8,0,12-2,6,0,12-2,17-3,0,0,1,0,2,0Z"/>
      <path class="cls-2" d="M535,173c0,6,0,6-5,7-7,1-13,3-2,4-2,4-39,7-59,11,0,0-1,0-2,0-3-6-3-7,3-9,19-6,38-1,58-12,4,0,7-1,11-2,6-1,6-1,13,0Z"/>
      <path class="cls-2" d="M164,601c-2,0-3,0-4,0-1,0-2-2-2-3,0-1,0-3,2-3,2-1,5-2,7-3,2-5,41-1,61-15,11-3,23-5,34-8,2,0,3,0,5,0,1,0,3,0,4,2,0,1,0,3-2,4-2,1-5,2-8,3-11,2-21,5-32,7-19,4-38,9-56,15-3,1-6,2-9,2Z"/>
      <path class="cls-2" d="M307,395c-3-5-3-6,3-8,19-4,39-8,58-12,6-1,12-1,18-2,2,0,4-1,6-1,2,0,4,0,5,2,0,2,0,4-2,5,0,0-1,0-2,0-12,2-24,5-36,7-16,3-32,5-49,8Z"/>
      <path class="cls-2" d="M294,351c18-5,36-1,54-14,18-4,37-7,55-1,0,8,0,1-7,1-1,0-2,0-3,0-7,1-14,3-22,4-18,3-37,7-55,1-6,1-12,2-18,2-1,0-2,0-4,0,0,0,0-1,0-2Z"/>
      <path class="cls-2" d="M262,208c-8,5-96,23-13,28-12,2-24,3-37,5,0,0,0,0,0-2,2,0,3-2,5-2,2-4,4-8,6-12,23-4,45-7,68-11,1-2,21-3,31-6,1,0,3,0,4,0Z"/>
      <path class="cls-2" d="M286,731c-2,0-3,0-5,1-7,1-14,3-22,4-9,2-19,3-28,5-2,5-39,11-59,16-3,0-7,1-1,2-6,0-7,0-6-8,14,0,27-5,41-8,12-2,23-4,35-6,2,0,4,0,7-1,7-2,14-4,21-4,6,0,13-2,19-3,2,0,4,0,6,0,0,0,0,1,0,2Z"/>
      <path class="cls-2" d="M401,344c0,2,0,3-2,4-3,1-6,2-9,3-23,4-46,7-68,11-7,1-14,2-2,3,0,0-2,0-3,0-1,0-3,0-4-2,0-2,1-3,3-3,12-3,24-5,36-8,13-3,25-5,38-7,5,0,9-1,14-1,5,0,1,0,16,0Z"/>
      <path class="cls-2" d="M536,189c0,5-2,7-7,8-11,2-22,4-33,6-14,3-27,5-41,8-3,0-4,0-5-2,0-3,0-5,3-6,1-2,2-5,3-7,14-3,29-5,43-7,3,0,6,0,1,0Z"/>
      <path class="cls-2" d="M448,181c-3-8-2-9,5-1,1-2,21-3,31-7,4-1,8-2,12-2,11,0,22-2,32-3,0,0,0,0,1,0,2,0,5-1,5,2,0,3-2,4-4,4-8,2-16,4-25,5-19,3-39,5-58,11Z"/>
      <path class="cls-2" d="M472,623c5-1,1-3,14-4,11-3,21-5,32-8,13-4,26-8,39-11,4-1,7-1,11-1,7,0,7,0,6-7,0,0,0,0,0-2,7-2,14-3,22-5,0,3,1,5,1,6,0,0-1,1-2,2-9,4-19,8-28,12-2,0-4,1-6,2-6,2-13,3-19,5-23,5-45,1-68,15,0,0-2,0-3,0,0,0,0-1,0-2Z"/>
      <path class="cls-2" d="M442,159c6-1,13-3,19-4,6-1,12-2,18-3,14-2,27-6,41-7,2,0,4,0,6-1,5-1,7,0,7,8-6,1-13,3-19,3-9,1-18,2-26,3-3,0-6,1-9,2-1,2-2,3-3,5-3,0-6,0-7-5Z"/>
      <path class="cls-2" d="M407,716c5-2,9-4,14-5,1-1,19-5,29-7,11-3,23-4,34-7,9-2,18-5,26-7,9-2,18-5,26-7,11-3,21-5,32-8,8-2,16-4,24-5,3,0,6,0,9,0,1,0,3,0,4-1,2,0,3,0,5-1,0,4-3,4-5,4-1,2-19,4-29,6-12,2-24,4-35,7-5,1-1,3-15,4-19,5-39,9-58,13-14,3-29,7-43,1-6,1-12,4-2,4Z"/>
      <path class="cls-2" d="M13,224c43-13,89-19,133-29,0,1,1,2,1,3,0,0,0,2,0,3-1,2-2,5-31,7-12,2-24,4-36,6-21,3-42,7-63,1-2,0-3,0-5,0Z"/>
      <path class="cls-2" d="M203,293c-6,2-8,9-16,8,0,0-1,0-2,0-7,5-15,7-23,9-18,5-36,9-54,13,0,0,0,0-1,0-2,0-4,0-4-2,0-2,0-3,3-4,2,0,3-1,5-2,24-6,47-12,71-19,5-1,9-3,14-4,2,0,5-1,7-2,0,0,0,0,0,1Z"/>
      <path class="cls-2" d="M312,402c11-4,74-16,83-15,0,1,0,3-2,3-6,5-14,5-21,7-18,4-36,7-54,11-5,0-5,0-6-6Z"/>
      <path class="cls-2" d="M393,406c-2,0-4,2-7,2-18,3-36,7-54,1-3,0-7,1-11,2-2,0-4,0-4-2,0-1,1-3,2-4,0,0,3,0,4-1,12-3,24-6,36-9,9-2,18-4,28-5,5,0,6,0,6,7Z"/>
      <path class="cls-2" d="M181,669c0,0,1,0,2,0,13-2,26-5,39-7,8-1,16-3,23-5,11-2,22-4,33-6,0,0,1,0,2,0,1,0,3,1,3,2,0,0,0,2-2,3,0,0-2,0-3,0-19,4-38,8-58,11-9,2-19,4-28,2-2,0-5,1-7,1-1,0-3,0-4,0,0,0,0,0,0-1Z"/>
      <path class="cls-2" d="M466,227c9-2,17-4,26-6,14-2,27-4,41-6,6,0,7,0,7,6-11,2-21,3-32,5-4,0-7,0-1,2-8,4-16,2-24,1-2,0-5,0-7,0,0,0,0-1,0-2Z"/>
      <path class="cls-2" d="M452,219c4-1,8-2,12-4,1-4,21-6,32-7,11-2,22-4,33-6,4,0,7,0,9,3-2,3-5,4-9,4-13,2-26,4-39,7-1,2-19,3-29,5-3,0-6,0-8,0v-2Z"/>
      <path class="cls-2" d="M102,333c1,0,3-2,4-3,13-4,25-7,38-11,8-2,16-4,24-6,1,0,2,0,4,0-7,5-14,1-2,15-2-1-3-3-5-4-2,0-4,0-6,1-11,4-22,6-34,8-1,0-2,0-4,0,0,0,0-1,0-2Z"/>
      <path class="cls-2" d="M338,689c2,6,4,12,5,17,0,3,0,4-3,5-4,1-8,2-12,4-5-5-5-11-6-17,0-2,0-4,3-5,4-1,8-3,13-5Z"/>
      <path class="cls-2" d="M264,592c-8,2-16,4-24,6-7,2-15,4-22,5-7,2-15,3-22,5-1,2-19,5-29,7-5,0-1,0-14,1-2,0-4-1-3-3,0-1,2-2,3-3,1,0,3,0,4,0,3,3,7,2,11,1,5-1,1-3,15-4,16-4,31-7,47-1,9-2,18-4,27-5,2,0,5,0,7,0,0,0,0,0,0,0Z"/>
      <path class="cls-2" d="M184,6c7-2,13-5,2-7,15-4,3-7,45-1,6-1,12-3,18-4,2,0,4,0,4,2,0,2-1,3-3,4-5,1-9,2-14,3-17,3-34,6-5,9-5,0-1,3-15,5-1,0-3,0-4,0,0,0,0-1,0-2Z"/>
      <path class="cls-2" d="M557,51c-32,1-64,15-97,19,6-3,87-19,97-19Z"/>
      <path class="cls-2" d="M429,669c3,6,2,12,2,18,0,0-1,2-2,2-2,1-4,2-7,3-3,0-5,0-5-3,0-3-2-5-3-8-2-5,0-8,4-1,2,0,4-1,6-2,1,0,2,0,3,0Z"/>
      <path class="cls-2" d="M174,67c0,2-1,3-1,4-2,8-2,8-1,9-5,0-1,0-15,0,0-3-1-6-2-1,9-1,18-4,28-3Z"/>
      <path class="cls-2" d="M346,689c3,0,6-2,8-2,5,0,7,0,8,5,0,2,0,4,2,6,2,6-2,11-9,1,0,0-2,0-3-2-2-4-4-8-6-12,0-1,0-3,0-5Z"/>
      <path class="cls-2" d="M507,234c1-2,2-6,31-4,4,0,5,2,4,6,0,2-2,4-4,4-1-1-21-1-31-5Z"/>
      <path class="cls-2" d="M224,784c-19,5-38,11-57,16-2-4-1-5,2-6,18-4,36-8,54-12,0,0,0,0,1,0,0,0,0,0,0,1Z"/>
      <path class="cls-2" d="M384,7c-2,0-3,2-5,2-5,2-6,1-8-4-2-4-5-8-4-14,3,0,7-2,11-3,2,6,3,12,5,18Z"/>
      <path class="cls-2" d="M361,615c0,0,0,0,0,0,5,11,2,15-9,15-1,0-4-1-4-3-1-3-1-6-2-1,6-1,1-2,15-3Z"/>
      <path class="cls-2" d="M224,675c8-3,17-6,26-6,5,0,11-2,16-3,6-1,12-2,18-3,2,4,0,5-3,6-4,0-8,0-13,1-11,2-22,3-33,5-4,0-8,1-12,2,0,0,0,0,0-1Z"/>
      <path class="cls-2" d="M317,71c0,2,0,3,0,5,0,1-2,3-3,3,0,0-3,0-4-2-2-6-4-11-5-17,0-4,3-4,6-4,3,0,4,0,5,3,0,4,1,8,2,12h0Z"/>
      <path class="cls-2" d="M28,776c-9,3-17,6-26,8-12,3-23,7-34,11-5,2-9,3-14,4,0,0-2,0-3,0,25-9,51-18,77-22Z"/>
      <path class="cls-2" d="M385,624c-4,1-8,2-11,3,0,0,0,0-1,0-4-1-3-5-4-8,0-2,0-5,2-6,3,0,6-1,9,0,1,0,3,1,3,3,1,3,2,6,3,9Z"/>
      <path class="cls-2" d="M404,62c0-4,0-8-1-12,4-1,8-2,12-3,1,1,2,3,3,4,2,6,1,8-5,1-3,0-5,0-9,2Z"/>
      <path class="cls-2" d="M142,335c-3,2-6,4-9,5-8,2-15,4-23,6-2,0-5,2-6-1,0-3,2-3,4-4,7-2,14-3,21-5,4,0,8-2,12-3,0,0,0,1,0,2Z"/>
      <path class="cls-2" d="M445,665c1,4,3,7,3,11,1,7,0,8-7,1-1-4-2-8-3-12-2-6,0-8,7-9Z"/>
      <path class="cls-2" d="M395,678c0,7,2,12,2,19-2,0-4,2-6,2-2-5-4-8-6-12,0-2,0-4-1-6,4,0,7-1,1-2Z"/>
      <path class="cls-2" d="M329,622c2,0,3-1,4-1,2,0,4,0,6,0,1,3,2,5,3,7,1,4,0,6-4,7-5,2-7,0-8-5,0-2,0-5,0-7Z"/>
      <path class="cls-2" d="M322,623c0,1,1,2,2,3,2,7,0,9-6,1-5,0-6,0-6-5,0-6,0-7,5-8,2,0,4,0,5,0Z"/>
      <path class="cls-2" d="M476,647c1,0,2-2,4-2,12-3,23-6,35-9,2,0,4,0,6,0-14,5-28,12-44,13h0Z"/>
      <path class="cls-2" d="M166,176c-21,4-42,7-62,11,1-4,54-12,62-11Z"/>
      <path class="cls-2" d="M39,622c-5-9-4-14,6-13,4,9,3,12-6,13Z"/>
      <path class="cls-2" d="M218,676c-5,3-35,7-41,6,4-3,32-7,41-6Z"/>
      <path class="cls-2" d="M254,265c6-2,11-3,17-3,0,0,3,1,3,2,0,0,0,3-1,3-6,5-13,4-18-2Z"/>
      <path class="cls-2" d="M432,608c0,4,0,6-4,7-3,0-4-2-5-4,0-2-1-4,0-5,1-2,3-3,5-3,2,0,3,1,3,3,0,1,0,3,0,3Z"/>
      <path class="cls-2" d="M266,289c1,0,2,0,3-1,2,0,5,0,8,0,0,3,0,5,0,7-9,5-1,4-12-5Z"/>
      <path class="cls-2" d="M407,694c-2-5-3-1-5-15-1-4,0-4,4-5,4,9,4,14,0,2Z"/>
      <path class="cls-2" d="M306,632c0,2,0,4,0,4-1,1-3,3-4,2-4,0-3-4-3-7,0-2,0-5,3-6,2,0,4,0,4,3,0,2,0,3,0,4Z"/>
      <path class="cls-2" d="M348,681c-3-1-6,0-6-3,0-3,3-3,5-4,2,0,4-1,6,0,1,0,2,2,3,3,0,0-1,2-2,3-2,0-4,1-6,2Z"/>
      <path class="cls-2" d="M406,558c2,7,0,1-6,1-2,0-4,0-4-3,0-3,0-5,3-5,2,0,4,0,7-1Z"/>
      <path class="cls-2" d="M373,669c0,0,2,1,3,2,0,1,0,3-2,4-2,1-5,2-7,3-2,0-4,0-4-3,0-2,0-3,3-4,3,0,5-1,9-2Z"/>
      <path class="cls-2" d="M396,669c-4,2-7,3-11,4,0,0-3,0-3-1,0-1,0-4,0-4,3-1,6-2,1-3,0,0,2,2,4,5Z"/>
      <path class="cls-2" d="M412,66c5-1,1-2,15-4,2,3,0,5-1,5-3,1-7,2-1,3-3,0-4-1-3-5Z"/>
      <path class="cls-2" d="M332,669c0,0,0,1,0,2-1,2-1,5-12,3-2,0-2-4,0-5,4-1,7-2,11-2,0,0,1,2,2,2Z"/>
      <path class="cls-2" d="M424,563c-4,1-6,2-9,3-3-8-2-9,7-1,0,2,1,4,2,7Z"/>
      <path class="cls-2" d="M425,646c0,1,0,2,0,2-2,3-11,6-14,5-2,0-2-3,0-4,1,0,3-2,4-2,3,0,6,0,1-1Z"/>
      <path class="cls-2" d="M437,603c0,0,1-3,3-4,2,0,3,2,4,3,0,1,1,3,1,4,0,2,0,4-3,4-2,0-3,0-4-2,0-2,0-3-1-6Z"/>
      <path class="cls-2" d="M321,687c0-3,0-5,0-5,4-1,8-2,12-3,0,0,2,1,2,2,0,0,0,2-1,3-4,1-8,2-13,4Z"/>
      <path class="cls-2" d="M388,562c1,6,0,9-5,9-2,0-4,0-4-3,0-2,0-4,3-5,2,0,4,0,6-1Z"/>
      <path class="cls-2" d="M361,574c0-6,0-7,11-7,2,3,1,5-2,6-3,0-6,1-9,2Z"/>
      <path class="cls-2" d="M362,666c-1,0-3-2-3-3,0,0,1-3,2-3,3,0,5-2,8-2,0,0,2,0,3,2,0,0,0,2-1,3-3,1-6,2-9,3Z"/>
      <path class="cls-2" d="M342,67c0,0-2-2-3-3,1,0,2-2,3-3,2,0,5-1,8-1,0,0,2,1,3,2,0,0-1,2-2,3-2,0-5,1-9,2Z"/>
      <path class="cls-2" d="M311,669c2,3,2,5,0,7-2,1-5,1-7,2,0,0-2-1-2-2,0-1,0-3,2-4,2-1,5-2,7-3Z"/>
      <path class="cls-2" d="M471,536c-7,1-14,4-22,4,0-2,0-3,1-3,7-1,14-2,21-3,0,0,0,1,0,2Z"/>
      <path class="cls-2" d="M35,651c-3,5-9,8-13,7,0,0-2-1-2-2,0-1,1-3,2-3,4,0,7-1,12-2Z"/>
      <path class="cls-2" d="M372,648c-5,4-1,5-15,4,3-4,1-6,15-4Z"/>
      <path class="cls-2" d="M337,576c5-3,1-4,16-4,0,4-2,4-4,5-4,0-8,4-12,0Z"/>
      <path class="cls-2" d="M352,64c5-3,1-4,16-3-4,5-11,6-16,3Z"/>
      <path class="cls-2" d="M27,597c-5,1-11,3-16,4-4,0-8,1-12,1,9-3,18-6,27-6Z"/>
      <path class="cls-2" d="M328,645c-3,4-7,4-1,5,0,0-3,0-3-2,0,0,0-3,0-3,4,0,7-2,12,0Z"/>
      <path class="cls-2" d="M42,625c-3,4-6,5-13,4,0-5,6-7,13-4Z"/>
      <path class="cls-2" d="M408,64c3-5,7-6,15-5,0,0,0,2,0,2-4,2-9,4-14,3Z"/>
      <path class="cls-2" d="M337,646c-1,0-2-2-3-2,0-1,2-3,3-3,2,0,5-1,7-1,0,0,2,1,2,2,0,0,0,2-1,3-2,1-5,2-7,3Z"/>
      <path class="cls-2" d="M27,276c2,0,3,0,4,0,0,0,2,0,2,2,0,0,0,2,0,2-3,0-7,1-1,1,0,0-1-1-1-2,0,0,0-2,1-2,2,0,5-1,6-2Z"/>
      <path class="cls-2" d="M39,643c-2,4-9,7-11,6,0,0-2-1-2-2,0-1,0-3,2-3,3,0,7,0,11-1Z"/>
      <path class="cls-2" d="M33,656c0,2-1,3-2,3-3,0-6,2-9,3,0,0-2,0-2-2,0,0,0-2,0-2,3,0,6-2,9-2,0,0,2,0,2,0Z"/>
      <path class="cls-2" d="M351,565c-5,3-1,4-16,4,2-4,8-6,16-4Z"/>
      <path class="cls-2" d="M302,652c0,0-2-1-2-2,0-2,3-5,6-5,1,0,3,2,3,3,0,2-3,5-7,5Z"/>
      <path class="cls-2" d="M373,636c4-4,9-4,13-4-3,5-6,6-13,4Z"/>
      <path class="cls-2" d="M311,663c-2,0-5,1-7,1-2,0-3-2-1-3,1-1,3-2,5-2,1,0,3,1,4,2,0,0,0,2,0,2Z"/>
      <path class="cls-2" d="M391,656c-3,3-7,3-11,4-1-2,0-4,1-4,3,0,6,0,1-1,0,0,0,0,0,1Z"/>
      <path class="cls-2" d="M433,648c0-5,0-7,3-7,1,0,3,2,3,3,0,4-3,4-7,4Z"/>
      <path class="cls-2" d="M313,684c-2,5-5,5-8,5,0,0-1-1-1-2,0,0,0-2,1-2,2,0,5,0,8,0Z"/>
      <path class="cls-2" d="M291,627c2,5,2,6,1,12-3-5-4-8-1-12Z"/>
      <path class="cls-2" d="M462,66c2,4,2,8,2,13-3-3-4-7-2-13Z"/>
      <path class="cls-2" d="M534,718c5-1,9-5,16-4-6,3-11,4-16,4Z"/>
      <path class="cls-2" d="M432,561c-3-6-3-6,0-8q2,4,0,8Z"/>
      <path class="cls-2" d="M497,609c-4,2-7,4-13,2,5-2,9-4,13-2Z"/>
      <path class="cls-2" d="M278,302c1,3,0,5-2,6-1,0-3-2-4-2,0,0,0,0,0-1,2,0,4-1,6-2Z"/>
      <path class="cls-2" d="M354,588c-5,0-9,2-14,3,0,0,0,0,0-1,4-2,9-3,14-3,0,0,0,1,0,2Z"/>
      <path class="cls-2" d="M563,71c5-2,9-3,14-2-5,1-9,2-14,3,0,0,0,0,0-1Z"/>
      <path class="cls-2" d="M393,634c0-5,5-3,7-5q0,4-7,5Z"/>
      <path class="cls-2" d="M44,653c1,1,2,2,2,3,0,2-3,4-5,3,0,0-2-2-2-2,1-1,3-2,4-4Z"/>
      <path class="cls-2" d="M47,614c3,0,7-1,1-2,0,0,0,0,0,1-3,2-6,3-1,2,0,0,0-1,0-2Z"/>
      <path class="cls-2" d="M277,16c5,0,1-2,15-3,0,0,0,0,0,1-5,0-1,2-14,3,0,0,0,0,0-1Z"/>
      <path class="cls-2" d="M406,665c-2,1-3,2-3,3,0-1-2-2-2-3,0,0,1-2,2-2,1,0,2,1,4,3Z"/>
      <path class="cls-2" d="M394,641c3-1,5-2,7-3-2,6-2,6-7,3Z"/>
      <path class="cls-2" d="M437,631c-5,5-5,5-8,0,2,0,4,0,8,0Z"/>
      <path class="cls-2" d="M539,46c-4,0-7,2-11,2,0,0,0,0,0-1,4,0,8-2,11-3,0,0,0,0,0,1Z"/>
      <path class="cls-2" d="M45,645c-3-2-4-3-2-5,0,0,2,0,2,0,2,2,1,3,0,6Z"/>
      <path class="cls-2" d="M329,579c-2,0-4,1-7,2,2-5,5-4,7-4,0,0,0,1,0,2Z"/>
      <path class="cls-2" d="M397,655c2-3,4-4,6-3-1,3-3,3-6,3Z"/>
      <path class="cls-2" d="M428,622c2,0,4,0,6-1-2,4-4,4-6,3,0,0,0-1,0-2Z"/>
      <path class="cls-2" d="M516,72h7c0,0,0,0,0,0-2,0-5,0-7,1,0,0,0,0,0-1Z"/>
      <path class="cls-2" d="M522,129h7c-3,2-5,2-7,0Z"/>
      <path class="cls-2" d="M106,357c0-4,3-4,6-4-1,3-3,4-6,4Z"/>
      <path class="cls-2" d="M166,586c2-3,5-3,8-2-3,0-6,1-9,2,0,0,0,0,0,0Z"/>
      <path class="cls-2" d="M451,607c0-2,0-4-1-7,0,0,0,0,1,0,0,2,1,4,2,7h-2Z"/>
      <path class="cls-2" d="M222,171c3,0,5-1,8-2,0,0,0,0,0,0-3,0-5,1-8,2,0,0,0,0,0-1Z"/>
      <path class="cls-2" d="M278,32c-2-3-2-5-3-7q3,1,3,7Z"/>
      <path class="cls-2" d="M442,619c2,0,4,0,5-1,0,1,0,2,0,2-2,2-3,2-5,0Z"/>
      <path class="cls-2" d="M25,165c2,0,4,0,6-1,0,0,0,0,0,1-2,0-4,0-6,1h0Z"/>
      <path class="cls-2" d="M449,629c-1,1-2,2-2,2,0,0-1,0-2-1,0,0,0-1,2-2,0,0,1,0,3,0Z"/>
      <path class="cls-2" d="M326,572c-1,0-3,0-4,1,0,0,0,0,0-1,1,0,3-1,4-2,0,0,0,1,0,2Z"/>
      <path class="cls-2" d="M188,171c2,0,4,0,6-1,0,0,0,0,0,0-2,0-4,0-6,0,0,0,0,0,0,0Z"/>
      <path class="cls-2" d="M311,575c-1,0-3,1-4,2h0c1-2,3-3,4-3,0,0,0,0,0,1Z"/>
      <path class="cls-2" d="M483,533c-2,0-4,0-6,1,0,0,0,0,0,0,2,0,3-1,5-2,0,0,0,0,0,0Z"/>
      <path class="cls-2" d="M325,592c1,0,3,0,4-1,0,0,0,0,0,0,0,0-1,1-2,1,0,0-1,0-2,0,0,0,0,0,0,0Z"/>
      <path class="cls-2" d="M166,586c-2,0-5,0-7,1,0,0,0,0,0-1,3,0,5,0,8,0,0,0,0,0,0,0Z"/>
      <path class="cls-2" d="M491,468c1,0,2,0,3,0,0,0,0,0,0,0,0,0-2,0-3,1,0,0,0,0,0-1Z"/>
      <path class="cls-2" d="M508,723c0,0-2,0-3,0,0,0,0,0,0,0h3c0,0,0,0,0,0Z"/>
      <path class="cls-2" d="M216,173h-3s0,0,0,0c1,0,2,0,3,0,0,0,0,0,0,0Z"/>
      <path class="cls-2" d="M453,529c0,0,1,0,2,0,0,0,0,0,0,0,0,0-1,0-2,0h0Z"/>
      <path class="cls-2" d="M542,63c0,0,0,0-1,0,0,0,0,0,1-1,0,0,0,0,1,0,0,0,0,0,0,1Z"/>
      <path class="cls-2" d="M31,769s0,0,0,0c0,0,0,0,0,0,0,0,0,0,1,0,0,0,0,0-1,0Z"/>
      <path class="cls-2" d="M458,642c0-1,0-2,0-3,0,0,1,0,2,0,0,0,0,0,0,2Z"/>
      <path class="cls-2" d="M494,728s0,0,0,0c0,0,0,0,0,0,0,0,0,0,1,0,0,0,0,0-1,0Z"/>
      <path class="cls-1" d="M105,46c2,9,4,17,6,27-3,0-4,0-6,0-2-15-7-29-11-45-3,4-6,7-8,9-3,3-6,6-11,7-2,0-4,0-5-2,0-3,1-4,3-4,6-1,11-5,14-11,3-5,4-1,2-15-2-6,0-12,0-18,1-6,9-9,17-9,5,0,9,4,1,1,2,9,1,19-1,28,0,3-2,7-3,1,6,2,12,3,18,4,4-3,6-7,6-13,0-3,0-7,0-1,0-5,3-6,8-4,2,0,4,1,5,2,9,5,1,14,7,23-2,7-11,8-16,3-1-1-2-2-3-3-5,4-5,5-3,9,6,15,8,3,4,46,0,3-2,5-3,8-2,5-5,7-9,7-4,0-9-4-1-8-2-7-1-14,0-21,2-9,5-17,8-25,2-6,1-8-4-9-3,0-6,0-9,0-2,0-4,1-7,2ZM129,464c-1,2-3,4-3,6-2,7-5,13-6,2-1,5-1,1-1,15,0,2,0,5,2,7,2,4,5,4,8,1,2-2,3-4,4-7,5-13,4-26,0-39,0,0,0-1-2-3ZM103,45c1-2,2-3,3-4,2-7,5-14,5-21,0-5,0-1-2-15,0-2-2-4-5-4-7,0-12,5-11,12,2,1,5,2,8,29,0,0,0,1,2,3ZM144,431c-5,6-4,13,2,19,3,0,6-2,6-6,0-6-2-1-8-13Z"/>
      <path class="cls-1" d="M198,414c-3-6-6-11-9-17-4,5-6,1-1,15,0,0,1,3,2,4,3,5,3,1,0,16-2,4-5,7-1,7-4,0-9-3-1-8,0-2-1-5-2-8-2,0-3,1-5,2-3-2-2-4,0-6,5-7,1-15,21-11,3-7,5-15,11-2,6,0,7,6,12,7,0-3,0-5,1-7,0-5,2-11,3-16,0-2,2-4,4-6,3-3,7-3,1,0,3,3,5,6,5,1,2,13,4,26,7,39,1,6,4,11,6,16,0,2,3,4,5,5,0,0,3,1,4,0,3-2,6-4,9-7,2-2,3-5,2-9-2,0-4,1-6,1-2,0-3-1-4-2,0-1,1-3,2-4,3-1,6-4,1-2,3,2,6,7,5,11-2,9-6,16-15,18-4,1-8,0-11-3-5-5-8-11-9-17-2-8-4-17-5-25-1-7-2-14-4-2,0-2-2-6-4-6-3,0-5,3-6,5-4,9-4,18-3,27,0,4,0,8-5,11ZM178,422c-2-2-3-6-5-8-2-2-4,0-5,1-2,4-2,8,0,12,0,2,1,5,5,5,3,0,4-2,5-4,0-1,0-3,2-5Z"/>
      <path class="cls-1" d="M21,471c-3,3-6,5-9,8-1,9-2,19-3,28,0,0,0,0,0,0-2,2-4,4-6,2-2-2-2-5,1-7,11-9,22-18,33-27,3-2,5-4,8-6,0,0,2,0,2,0h0Z"/>
      <path class="cls-1" d="M164,485c-2-7,0-8,5-11,2,0,5-2,7-4,6-5,13-1,19-14,1,0,3-1,6-2-2,7-8,9-11,12-4,4-8,7-12,11-4,3-7,8-13,8Z"/>
      <path class="cls-1" d="M162,472c-2-3-2-5,0-7,9-7,18-15,26-22,0,0,1,0,2,0,0,3-1,5-3,6-7,7-14,14-21,21-1,0-3,1-4,2Z"/>
      <path class="cls-1" d="M457,317c15,8,16,2,16,34,3-6,6-12,8-19,5-12,9-23,14-35,0-2,2-5,3-7,1-3,3-5,6-4,3,0,3,4,3,6,0,6,0,12-1,17-2,16-5,32-7,48,0,3,0,6,3,9,2-5,4-1,6-15,5-13,9-26,14-4,0-3,2-6,3-9,0-1,0-3,1-4,1-1,3-2,4-2,1,0,2,3,2,4,0,16,0,31,1,47,0,6,3,11,6,17,3-1,4-4,5-6,4-1,6-21,7-32,0-8,2-15,3-23,0-2,1-4,2-6,4,2,4,4,3,7-4,12-3,24-5,36-2,1-4,19-7,29,0,0,0,2-1,2-2,2-3,6-7,5-4,0-5-3-6-7-1-4-3-7-4-1-4-1-2-2-3-3,0-4,0-7,0-11-3,1-3,4-4,5-2,6-4,12-6,18-2,8-4,16-7,24,0,2,0,4-2,6-1,2-3,3-5,2-1,0-3,0-4,0-5,0-6-2-6-7,0-7,2-14,3-21,0,0,0-2,0-3-9,0-14,3-16,11-2,5-3,11-5,17,0,0,0,2,0,2-1,0-3,2-4,2-1,0-3-3-3-4,0-2,1-4,2-6,0-2,1-4,2-6,0,0,0,0-1,0-2,2-3,3-5,5-7,7-15,11-25,9-3,0-7,0-1,0-3-2-3-6-2-9,2-1,4-19,6-29,2-12,4-24,7-36,0,0,0,0,0-1,5-6,8-14,16-17,4-2,8-3,12-4,4-1,8,0,1,3,2,3,2,7,0,11-4,7-9,14-15,2-2,2-4,4-7,7ZM441,366c9,0,15-4,2-1,5-5,6-12,4-19-2-6-5-12-13-12-3,0-5-2-5-4,0-2,2-5,3-6,4-4,9-8,12-12,3-4,6-9,9-13,2-4,0-7-5-7-6,1-11,3-15,8-4,7-9,13-1,21-2,16-5,31-8,47-1,6,0,6,6,7,0,0,0,0,1,0ZM498,302c-5,11-1,21-13,33,8,0,11-1,12-6,2-9,2-18,1-27Z"/>
      <path class="cls-1" d="M577,344c5,2,1,0,15,0,0,2,2,4,2,6,0,0-3,1-4,2-4,0-8,1-13,2-4,8-4,16-3,24,0,3,3,4,6,4,1,0,2,0,3-1,3-1,5-1,6,2,1,3,0,5-3,6-5,2-1,2-16,0-3,0-4-3-4-6,1-15,2-31,6-45,3-9,5-18,8-27,2-8,4-9,12-7,3,0,7,2,1,3,3,0,4,3,3,5,0,2-2,3-2,4-4-2-7-4-1-6-4-2-7,0-8,4-3,8-5,15-7,23,0,3,0,5-1,8Z"/>
      <path class="cls-1" d="M615,391c0,3-3,6-5,5-1,0-3-2-3-3,0-2,2-5,4-5,1,0,3,2,3,2Z"/>
      <path class="cls-1" d="M372,258c2-5,2-9,2-13,0-4,0-8,2-12,0-4,3-5,7-3,0,2,0,4,0,6,0,7,0,14-2,21-2,9,0,16,6,23,3,4,2,12-2,14-4,3-6,2-8-2-1-2-2-4-4-6-2,2-3,3-4,4-7,7-17,9-26,5-6-2-7-8-9-13-4-1-2-2,2-29,3-5,1-9-2-14-3-6-8-1-1-17,0-2,0-4,0-6,0-3,0-6,0-9,0-4,0-5,4-7,3-1,6-3,8-4,5-3,1-3,15-1,3,1,6,1,8,2,7,2,8,5,6,11-1,3-2,6-2,1,0,7-3,14-5,21-3,7-3,7,3,12,3,3,6,7,11,8ZM351,262c-5,6-6,13-5,2,0,2,2,4,4,4,5,0,9-2,12-6,0-1,2-4,1-5-3-5-7-1-13-13ZM348,204c-7,2-12,6-15,11,3,6,5,13,12,16,7-9,5-18,3-28Z"/>
      <path class="cls-2" d="M129,464c1,1,2,2,2,3,4,13,5,26,0,39,0,2-2,5-4,7-3,3-6,2-8-1-1-2-2-5-2-7,0-5,0-1,1-15,2-7,4-13,6-2,0-2,2-4,3-6Z"/>
      <path class="cls-2" d="M103,45c-1-2-2-2-2-3-3-1-6-2-8-29-1-7,4-12,11-12,3,0,5,2,5,4,1,5,2,1,2,15,0,7-3,14-5,21,0,1-1,2-3,4Z"/>
      <path class="cls-2" d="M144,431c6,3,8,7,8,13,0,4-3,5-6,6-6-6-7-13-2-19Z"/>
      <path class="cls-2" d="M178,422c0,2-1,4-2,5-1,2-2,4-5,4-3,0-4-3-5-5-1-4-2-8,0-12,1-2,4-3,5-1,2,2,4,6,5,8Z"/>
      <path class="cls-2" d="M441,366s0,0-1,0c-6,0-7,0-6-7,3-16,6-31,8-47,1-8,6-15,1-21,3-5,9-7,15-8,5,0,7,2,5,7-3,5-6,9-9,13-4,4-8,8-12,12-2,2-3,4-3,6,0,3,2,4,5,4,8,0,11,6,13,12,2,7,1,14-4,19-5,6-11,11-2,1Z"/>
      <path class="cls-2" d="M498,302c1,9,0,18-1,27,0,4-4,6-12,6,3-12,8-22,13-33Z"/>
      <path class="cls-2" d="M351,262c6,3,1,8,13,13,0,0,0,3-1,5-3,4-8,5-12,6-2,0-4-1-4-4-1-7,0-14,5-2Z"/>
      <path class="cls-2" d="M348,204c2,1,4,19-3,28-6-4-8-1-12-16,3-5,7-9,15-11Z"/>
    </g>
  </g>
</svg>