<?xml version="1.0" encoding="UTF-8"?>
<svg id="Layer_2" data-name="Layer 2" xmlns="http://www.w3.org/2000/svg" viewBox="0 0 271 195">
  <defs>
    <style>
      .cls-1 {
        fill: #000;
      }

      .cls-1, .cls-2 {
        stroke-width: 0px;
      }

      .cls-2 {
        fill: #fff;
      }
    </style>
  </defs>
  <g id="Layer_1-2" data-name="Layer 1">
    <g>
      <path class="cls-1" d="M229,157c-12,1-23,2-34,4-8,2-17,4-24,8-22,13-46,21-71,25-17,3-35,2-53-1-9-2-13-9-15-17-2-9-5-17-13-23-5-4-1-9-14-14C0,133,0,126,0,119c2-17,6-34,18-47,5-5,1-1,16-12,15-6,3-7,45-3,5-6,5-9,0-14-1-8-1-29,1-36C9,0,1-2,11,1c8,2,13,8,15,18,8-7,17-13,28-11,9,1,19,12,21,22,7-1,17-11,26-8,9,3,17,8,21,16,7-1,15-3,22-3,13,0,23,7,26,2,1,4,0,9,0,13-2,8-5,15-13,2-5,3-1,2-14,2-9,0-8,0-13,7-6,1-8,21-5,33,2,8,3,17,4,27ZM164,164s0,0,0-1c-12,2-24,4-37,6-16,2-32,5-48,7-1,0-4-2-4-3,0-2,0-5,0-8,0-14-2-27-3-41,0-6,2-8,7-8,12-1,24-3,37-4,15-1,29-2,44-2,4,0,8-1,11-2-4-7-8-13-13-19-3-4-6-8-1-1-17-1-37-13-57-17-16-3-33-3-49,1-7,2-14,5-19,1-14,13-17,3-16,48,0,9,2,16,1,21,2,1,5,3,7,5,3,3,7,7,9,11,2,4,3,1,4,15,1,8,5,14,13,15,9,1,18,3,27,2,1,0,2-2,31-4,21-2,39-13,58-23ZM81,169c3,0,6,0,9,0,11-1,23-3,34-4,32-4,64-7,96-11,3,0,4-1,3-4-2-12-4-23-5-35,0-3-1-4-4-4-7,0-14,0-21,1-31,2-61,4-92,5-8,0-15,1-23,2,1,17,2,34,3,51ZM268,59c0-2,0-4,0-5-3-8-13-16-23-16-13,0-22,6-28,2-3,8-1,13,4,19,2,2,5,5,8,6,7,4,15,7,23,4,12-5,15-16,16-27ZM194,25c-18,0-27,17-25,3,0,2,1,4,3,5,5,5,11,9,18,1,12,3,2-1,24-14,0-2,0-5,2-7,4-9,0-19-9-22-4-1-9-2-12-3ZM101,47s0,0,0,1c4-2,8-3,12-6,7-5,8-13,9-2,1-8-3-13-1-17-11-6-29,1-35,11-4,6-4,13,0,19,6,7,13,13,23,12ZM15,12c-2,0-7,2-11,2-7,1-11,5-13,11-4,13-4,17,7,24,5,3,11,5,16,6,9,2,14-3,16-12,0-2,1-4,2-6,6-11-3-26-18-26ZM178,106c11,0,21,0,3,0,1,0,2-1,3-2,3-6,6-12,9-19,0-1,0-4-1-5-3-4-6-7-9-11,0,0-2,2-4,3-2,0-4,2-6,2-1-2-14,4-16,12,0,1-1,2-1,3-2,5-3,11-6,18ZM166,99c0,0,1,0,2,0,3-9,6-18,9-27,0-1,0-3-1-4-4-4-8-8-12-12-5,6-13,3-21,3,0,3-1,5-2,7,0,3,0,5,3,7,6,3,12,7,16,14,2,4,5,8,7,12ZM12,43c-3,3-6,6-1,8-4,1-8,0-13,1,0,3-4,7,2,8,8,2,16,4,24,5,1,0,3,0,4,0,4-3,3-11,0-14-3-2-5-5-7-8ZM17,101s0,0,1,1c1,0,3,0,3-2,3-8,6-17,9-26,0-1,0-3,0-4-1,0-3,1-3,2-3,9-7,18-1,28ZM216,106c5,0,1-6,15-17-1,0-2-1-4-3-3,7-7,13-1,2ZM134,7c1-4,3-7,3-1,0,0-2-3-2-3-3,0-4,1,0,13ZM9,49c-3,8-3,8,3,8q2-7-3-8Z"/>
      <path class="cls-2" d="M164,164c-18,1-36,21-58,23-1,1-2,3-31,4-9,0-18,0-27-2-8-1-12-7-13-15,0-5-2-1-4-15-2-4-6-8-9-11-2-2-4-3-7-5-8-5-9-13-1-21-1-18,2-35,16-48,5-5,12-8,19-1,16-4,33-4,49-1,2,3,39,7,57,17,4,2,7,6,1,1,4,6,8,13,13,19-3,0-7,1-11,2-15,0-29,1-44,2-12,0-24,2-37,4-5,0-7,2-7,8,2,14,2,27,3,41,0,3,0,5,0,8,0,1,3,3,4,3,16-2,32-4,48-7,12-2,24-4,37-6,0,0,0,0,0,1ZM5,169c6,2,12,0,14-5,3-8,4-17,6-26-7,0-13-2-19-2,0,0-2,0-2,1,0,5-2,1-2,16,0,2,5,3,8,5-1,3-3,7-5,11ZM52,79c0,0-1,0-2,0,0,11,0,12-8,9,0-1,0-3,0-4,0-1,0-3,0-4,0,0,0,0-1,0,0,8,0,15,3,23v-11c7-1,7-1,8,5,0,0,0,2,1,3,0,0,0,0,1,0,0-7-2-14-2-21ZM88,1v-13c2,3,3,4,4,6,2,3,4,3,5,0,1-2,2-5,4-9,2,5,3,9,4,13,0,0,1,0,2,0-1-4-3-9-5-13,0,0-3,0-4,0-2,3-3,5-5,8-2-3-4-5-6-8-4,6-4,13,0,15ZM69,93c-2-2-3-5-5-6,0,0-4,0-4,0,0,4,0,9,0,13,0,0,2,0,2,0v-12s0,0,1,0c2,3,4,6,7,1,1-4,2-7,3-1,2,4,3,8,5,11h2c-2-5-3-9-5-14,0,0-1,0-2,0-1,3-3,5-4,8Z"/>
      <path class="cls-2" d="M81,169c-1-17-2-34-3-51,8,0,16-2,23-2,31-2,61-4,92-5,7,0,14,0,21-1,3,0,4,1,4,4,2,12,3,23,5,35,0,3,0,4-3,4-32,4-64,7-96,11-11,1-23,3-34,4-3,0-6,0-9,0ZM91,141c0,0-1,0-2,0,0,3,0,7,1,1,0,3,2,4,6,4,15-2,31-3,46-5,13-1,25-2,38-4,2,0,4-1,4-2,0-4,0-8,0-12,0,0-1,0-2,0,0,2-1,4,0,5,0,3,0,4-3,5-2,0-4,1-6,2-26,2-51,5-78,7-1-4-2-7-4-11ZM199,127c0,0,0-2,0-2,2-2,3-4,5-6,0,0,4,2,4,2,0,2-2,5-3,7,0,0-2,0-2,1,0,2-2,4-2,6,0,0,2,2,3,3,0,0,1-2,2-3,0-1,1-3,2-4,6-5,5-14-1-16-4-1-7,0-9,3-1,2-3,5,1,8Z"/>
      <path class="cls-2" d="M268,59c0,12-5,22-16,27-8,4-16,0-23-4-3-2-5-4-8-6-5-5-7-11-4-19,6-13,14-19,28-2,9,0,2,7,23,16,0,2,0,4,0,5ZM237,62c-1,5-8,7-7,14,4-5,8-9,12-14,2,3,4,6,6,9,2,3,3,5,5,8,0,0,1,0,2-1-3-4-5-8-9-14,5,0,8,0,11,1-3-6-9,0-14-5,4-3,7-6,11-9,0,0-1-1-2-2-6,0-6,9-12,9-3-4-6-8-9-11,0,0-1,0-2,0,1,2,2,4,3,6,2,2,3,4,5,6,0,0,0,0,0,1-5,0-11-1-16-2,0,0,0,1,0,2,5,0,1,1,15,2Z"/>
      <path class="cls-2" d="M194,25c3,0,7,2,12,3,9,3,13,13,9,22,0,2-1,4-2,7-3,12-11,16-24,14-7-2-13-6-18-1-1-1-2-3-3-5-2-13,7-29,25-3ZM191,48c-1,6-8,8-6,14,2-4,5-8,7-11,5,4,4,12,13,13-3-5-6-1-9-14,4-2,8,3,14,0-5,0-9-2-13-2,3-4,6-7,9-11,0,0,0,0-1-1-3,4-7,8-1,12-5-4-4-12-12-14,2,5,4,9,7,14h-12s0,0,0,1c5,0,9,0,14,0Z"/>
      <path class="cls-2" d="M101,47c-1,0-17-5-23-12-5-6-4-12,0-19,6-1,24-17,35-11,7,4,11,9,1,17-1,7-3,15-9,2-3,3-8,4-12,6,0,0,0,0,0-1ZM111,13s0,0-1-1c-3,3-6,7-9,1-3-4-5-8-7-12-4,2-6,3-2,6,2,2,4,4,6,7-7,0-12-1-17-2,0,0,0,1,0,2,5,0,1,1,16,2-4,4-6,7-9,1,0,0,0,0,1,1,5-2,7-9,12-12,3,5,5,1,8,14,0,0,1,0,2,0-2-4-4-8-7-14,5,0,9,2,14,2-4-6-9-4-14-5,3-4,6-7,9-1Z"/>
      <path class="cls-2" d="M15,12c14,0,23,15,18,26-1,2-2,4-2,6-2,8-7,13-16,12-6-1-11-3-16-6-12-8-11-12-7-24,2-6,6-1,13-11,4,0,9-2,11-2ZM148,38c3,4,6,9,9,13,0,0,0,0,1,0-2-4-4-7-7-12,3,0,5,0,7,0,1,0,2-1,3-2,0,0-2-1-3-1-3,0-5,0-9,0,4-5,7-9,1-13h-1c-4,3-7,7-11,12-3-5-6-1-9-15-1,1-2,2-3,3,3,4,6,8,9,12-6,1-11-3-17,2,6,0,11,1,17,2-2,2-4,4-5,5-1,1-2,3-3,4,0,0,0,0,1,0,3-3,6-7,9-1Z"/>
      <path class="cls-2" d="M178,106c2-7,4-12,6-18,0-1,1-2,1-3,2-8,6-14,16-12,2,0,4,0,6-2,2,0,3-2,4-3,3,4,6,7,9,11,0,1,2,4,1,5-3,6-6,13-9,19,0,1-2,2-3,2-1,0-19,0-3,0Z"/>
      <path class="cls-2" d="M166,99c-2-4-5-8-7-12-4-7-9-11-16-14-4-2-4-4-3-7,0-2,1-5,2-7,8,0,16,2,21-3,4,4,8,8,12,12,0,0,1,3,1,4-3,9-6,18-9,27,0,0-1,0-2,0Z"/>
      <path class="cls-2" d="M12,43c2,2,4,5,7,8,3,3,4,11,0,14,0,0-2,0-4,0-8-2-16-3-24-5-6-1-2-5-2-8,5,0,9,0,13-1,4-1,7-5,1-8Z"/>
      <path class="cls-2" d="M17,101c3-9,7-19,1-28,0-1,2-2,3-2,0,1,1,3,0,4-3,9-6,17-9,26,0,0-2,1-3,2,0,0,0,0-1-1Z"/>
      <path class="cls-2" d="M216,106c4-7,7-13,1-2,2,1,3,2,4,3-4,12-9,18-15,17Z"/>
      <path class="cls-2" d="M134,7c-3-3-2-12,0-13,0,0,3,2,2,3,0,3-2,6-3,1Z"/>
      <path class="cls-2" d="M9,49q4,1,3,8c-6,0-6,0-3-8Z"/>
      <path class="cls-1" d="M5,169c2-4,4-8,5-11-3-2-8-4-8-5,0-5,1-1,2-16,0,0,1-1,2-1,6,0,11,1,19,2-2,9-3,18-6,26-2,6-8,8-14,5ZM5,15c12,0,9,8,8,16,6-8,1-16,8-26-4,0-7,0-1,0-4,0-5,1-5,5,0,2,0,3,0,6Z"/>
      <path class="cls-1" d="M52,79c0,7,2,14,2,21,0,0,0,0-1,0,0,0-1-2-1-3,0-7,0-7-8-5v11c-3-7-3-15-3-23,0,0,0,0,1,0,0,1,0,3,0,4,0,1,0,3,0,4,8,3,8,2,8-9,0,0,1,0,2,0Z"/>
      <path class="cls-1" d="M88,1c-3-2-3-9,0-15,2,3,4,5,6,8,2-3,3-6,5-8,0,0,3,0,4,0,2,4,3,9,5,13,0,0-1,0-2,0-1-4-3-8-4-13-2,4-3,6-4,9-1,3-3,4-5,0-1-2-2-3-4-6v13Z"/>
      <path class="cls-1" d="M69,93c1-3,3-6,4-8,0,0,1,0,2,0l5,13h-2c-1-3-3-6-5-1-1,4-2,6-3,1-3-4-5-7-7-1,0,0,0,0-1,0v12c0,0-2,0-2,0,0-4,0-9,0-13,0,0,3-1,4,0,2,2,3,4,5,6Z"/>
      <path class="cls-1" d="M91,141c1,4,2,7,4,11,26-2,52-5,78-7,2,0,4-1,6-2,3,0,4-2,3-5,0-2,0-4,0-5,0,0,1,0,2,0,0,4,0,8,0,12,0,0-3,2-4,2-13,1-25,3-38,4-15,2-31,3-46,5-3,0-5,0-6-4,0-3,0-7-1-1,0,0,1,0,2,0Z"/>
      <path class="cls-1" d="M199,127c-4-2-2-5-1-8,2-3,5-5,9-3,7,3,7,11,1,16,0,0-1,2-2,4,0,0-1,2-2,3-1,0-3-2-3-3,0-2,1-4,2-6,0,0,2,0,2-1,1-2,2-4,3-7,0,0-3-3-4-2-2,2-4,4-5,6,0,0,0,1,0,2Z"/>
      <path class="cls-1" d="M237,62c-5,0-1-1-15-2,0,0,0-1,0-2,5,0,11,1,16,2,0,0,0,0,0-1-2-2-3-4-5-6-1-2-2-4-3-6,0,0,1,0,2,0,3,4,6,8,9,11,6,0,6-1,12-9,0,0,1,1,2,2-4,3-7,6-11,9,5,4,11,0,14,5-3,0-7,0-11-1,4,5,6,1,9,14,0,0-1,0-2,1-2-3-3-5-5-8-2-3-4-5-6-9-4,5-8,9-12,14-1-7,6-8,7-14Z"/>
      <path class="cls-1" d="M191,48c-5,0-1,0-14,0,0,0,0,0,0-1h12c-2-5-4-9-7-14,8,2,7,11,12,14,3-4,7-8,1-12,0,0,0,0,1,1-3,3-6,7-9,11,4,0,8,1,13,2-5,4-9-2-14,0,3,5,6,9,9,14-9,0-8-9-13-13-3,4-5,8-7,11-2-6,5-8,6-14Z"/>
      <path class="cls-1" d="M111,13c-3,3-6,7-9,1,5,0,1-2,14,5-5,0-9-2-14-2,3,5,5,1,7,14,0,0-1,0-2,0-3-5-5-9-8-14-5,3-7,9-12,12,0,0,0,0-1-1,3-3,6-7,9-1-6,0-11-1-16-2,0,0,0-1,0-2,5,0,11,0,17,2-3-3-4-6-6-7-4-3-3-4,2-6,2,4,4,7,7,12,3-4,6-7,9-1,0,0,0,0,1,1Z"/>
      <path class="cls-1" d="M148,38c-3,4-6,7-9,1,0,0,0,0-1,0,0-1,2-3,3-4,1-2,3-3,5-5-6,0-11-1-17-2,6-5,11,0,17-2-3-4-6-8-9-12,0,0,1-2,3-3,3,5,6,1,9,15,4-5,7-9,11-13h1c-3,5-6,9-1,14,4,0,7,0,9,0,1,0,2,0,3,1-1,0-2,2-3,2-2,0-4,0-7,0,3,4,5,8,7,12,0,0,0,0-1,0-3-4-6-8-9-13Z"/>
      <path class="cls-2" d="M5,15c0-2,0-4,0-6,0-3,2-5,5-5,3,0,7,0,1,0,2,1-2,18-8,26,1-7,4-15-8-16Z"/>
    </g>
  </g>
</svg>