<?xml version="1.0" encoding="UTF-8"?>
<svg id="Layer_2" data-name="Layer 2" xmlns="http://www.w3.org/2000/svg" viewBox="0 0 693 1801">
  <defs>
    <style>
      .cls-1 {
        fill: #000;
      }

      .cls-1, .cls-2 {
        stroke-width: 0px;
      }

      .cls-2 {
        fill: #fff;
      }
    </style>
  </defs>
  <g id="Layer_1-2" data-name="Layer 1">
    <g>
      <g>
        <path class="cls-1" d="M117,47c0-1-2-2-2-3-2-12-6-23-6-35,3-1,6-2,8-3,3-1,6-2,9,0,3,3,4,7,3,11-1,3-3,6-5,9-1,2-2,4-4,6,6,2,1,6,16,6,2,0,2,2,2,4-6,2-12-3-18-2-2,2,0,6-3,8ZM115,27c5-4,9-8,1-14,0-1,0-4-1-4-3,0-5,0-8,0-2,0-3,3-3,5,0,4,1,7,2,12Z"/>
        <path class="cls-1" d="M299,15c0-11,1-12,9-11,7,1,12,8,13,15,1,11-5,16-13,21-2,0-3,0-5-1,0-1-2-3-2-4-1-7-2-15-2-19ZM305,33c8,0,11-4,12-12,0-6-4-11-1-12-2,0-4,0-4,3,0,7,1,14,2,22Z"/>
        <path class="cls-1" d="M103,34c0,2,0,3,0,5,0,5-4,8-9,8-1,0-13-8-14-16,0-7,2-14,6-2,1-1,3-2,4-3,2-1,4,0,5,0,1,2,3,3,4,5,2,7,3,14,4,21,0,0,0,0,0,0ZM91,12c-2,2-3,3-4,5-4,7-5,16,0,22,2,3,5,4,8,3,4,0,4-3,5-6,0-1,0-3,0-5-1-4-2-8-4-12,0-2-3-4-5-8Z"/>
        <path class="cls-1" d="M157,7c-2,0-4,0-6,0-2,0-4,1-6,2v12c4,0,7,0,11-1,0,2,0,3-1,4,0,0-2,0-3,1-5,2-5,2-4,7,1,5,3,6,8,4,0,0,1,0,3,0,0,2-1,4-2,5-3,3-1,1-12-2-1-2-2-5-2-7,0-7-2-14-2-21,0-3,0-4,3-5,4,0,7-2,11-3,3,0,4,0,3,5Z"/>
        <path class="cls-1" d="M216,33c0,3-2,4-4,4-5,0-1,0-15-3-5-3-6-8-6-13,0-7,4-13,8-19,2-3,6-4,9-2,3,1,6,5,6,8,0,0,0,2-2,3,0-2-1-3-2-4-2-3-5-4-8-1-5,5-8,11-7,18,0,5,3,8,8,9,3,0,6,0,9,0,1,0,2,0,3,0Z"/>
        <path class="cls-1" d="M267,28c0,4-1,6-5,8-1,4-17,0-18-11,0-3,0-7,0-1,0-3,3-6,6-8,3-2,6-2,9,0,4,5,8,14,8,2ZM248,21c0,3,0,5,2,8,1,3,5,5,8,4,4,0,6-3,7-7,0-4,0-9-3-13-2-5-8-5-11,0-1,2-2,5-3,8Z"/>
        <path class="cls-1" d="M53,2c0,2,0,3,1,5,0,1,1,21,2,31,0,3,0,7,2,1,2,0,4,0,6,0,0,0,2,0,3,1,0,0,0,2,0,2-4,1-7,3-11,3-3,0-4-4-4-7,0-13,0-25-1-38,0-2,0-5,0-7,0,0,1,0,2,0Z"/>
        <path class="cls-1" d="M287,3c0-5-1-9-1-13,0-4-3-8-1-12,1,0,2,0,2,0,1,8,3,15,4,23,0,2,0,5-2,6-2,2-5,0-7-1-1-1-3-2-4-4-4-6-5-14-5-21,0,0,0,0,0-1,0,0,0,0,1,0,3,2,2,5,3,7,1,4,2,8,3,12,0,3,3,4,7,4Z"/>
        <path class="cls-1" d="M243,37c-2,0-4,2-5,2-4,2-6,1-8-3,0-3-2-5-2-8,0-9-1-17-2-26,3-1,4,0,5,3,0,4,0,8,0,12,0,4,0,9,1,13,0,4,1,5,6,4,2,0,4,0,5,3Z"/>
      </g>
      <g>
        <path class="cls-1" d="M121,569c0-1,0-3,0-4,0-13,3-25,1-35,1-2,2-4,3-6,6-12,16-18,28-22,1-3,19-4,29-5,9,0,17,0,26,3,7,2,14,4,21,6,9,2,16,8,23,13,4,3,8,7,12,11,3-4,7-8,1-12,8-12,19-2,31-27,3-2,8-4,12-4,1,0,2,0,3,0,8,0,16,2,24,5,9,3,18,6,25,11,5,3,1,8,14,12,3,2,4,6,7,8,4,4,7,9,9,15,2,5,4,9,7,13,2,3,3,6,4,1,1,6,3,11,4,17,1,0,3,0,5,0,14-4,28-3,42,0,4,0,7,2,11,4,8,3,17,7,24,12,9,8,18,16,24,27,2,3,2,6,3,1,0,4,1,4,6,5,13,3,26,6,38,11,1,4,18,12,18,24,0,4,1,7,1,1,0,1-5,17-12,22-16,12-35,17-55,18-12,0-23-1-35-4-9-2-18-4-28-6-9-2-13,0-17,8-3,5-6,9-1,12-7,6-16,7-24,7-1,0-2-1-29-3-8-2-17-5-24-1-6-4-13-3-18,1-5,4-11,8-17,1-5,2-1,2-15,1-16-1-31-6-46-11-7-3-14-7-2-13-6-6-13-7-21-5-7,1-15,3-22,4-1,0-21,0-31-2-14-2-27-8-38-18-6-5-11-11-15-17-4-6-1-6-16-3-1,4-22,4-32,6-13,2-26,0-38-4-2,0-3,0-5,0-12-1-23-6-33-13-11-8-18-19-18-32,0-4,0-7,3-11,4-9,12-16,19-22,6-5,12-11,18-15,18-11,37-18,58-13,7,1,14,4,22,6ZM461,661c0,0,1,2,2,3,0,0,0,0,0-1,0,0-2,0-3-1q-2-4-5-4c2,3,2,3,5,4ZM549,659v3c5-1,8-3,11-6-4-1-8,0-11,3,0-3-3-3-5-2-8,2-15,0-21-5-2-2-5-3-7-5-2,2-4,4-2,6,1,2,3,4,6,4,0,0,1,0,2,0,5,4,1,2,16,3,4,0,8,0,12-1ZM496,614c-1,0-3,0-4,0-2,6,2,17,8,2,3-6,3-14,0-25q-4,0-3,6h0ZM277,653c0,0,2,0,3,0,5,5,11,6,18,1,2-2,3-4,5-6,2-3,0-7-3-8-2,0-5-1-7-1-7,0-14,0-21-1,0,0-2,0-3,0,3,2,6,4,9,6-6-2-12-4-18-4,0,1,0,2,0,3,6,2,12,3,18,4,0-1,0-2,0-3ZM473,649c-4-3-9-7-13-11-6-6-13-7-2-8-1,0-2,0-4,0,0,0,0,0,0,1,7,5,14,11,2,16,3,2,5,5,9,4,0,0,2,1,3,2,2,1,3,3,6,2,0-2-1-5-2-7,0,0,1,0,3,2,0-3-2-4-4-5,0,1,1,2,1,3ZM322,702c0-1,1-2,2-4,5-18,15-33,3-44,1,0,2-2,4-3-2,0-3,0-4,0-13,4-23,11-29,22-5,9-6,19-2,28-5-4-5-9-5-15,0-5,2-11,5-16,0-1,1-3,2-4,0,0,0,0-1,0-9,7-13,16-12,27,0,1,5,17,13,23,2-3,1-5,0-7-1-3-2-5-3-8ZM408,597c3,0,7,1,1,3,4,2,7,0,1-2,5-4,6-1,5-16-3-15-1-28-17-41,0,0-1,0-2-1,0,5,2,8,4,11,9,12,5,28,0,36-2,3-5,5-7,7,0,0-1,2-2,3-4,0-8,2-13,3-4,0-8,2-12,3,4,2,6,7,11,2,0,0,1,0,2,0,7,2,14,0,21-3-4-2-7-4-9-5ZM17,624c-2-1-5-3-8-3,2,1,4,4,8,3,0,4,4,5,7,6,4,2,8,4,12,5,5,2,1,3,15,5,5,2,11,3,16,4,4,1,9,3,13,3,6,0,11,0,17-2-4-5-8-7-13-8-7-2-13-3-2-5-6-1-12-2-18-2-1-1-2-2-29-6ZM453,686c-2,0-3,0-5-1-9-3-16,0-23,6-3,3-3,9,0,11,5,5,11,6,18,5,3,0,3-2,2-4,0-2-2-4-5-4,0,2,0,3-1,5-3,0-3-1-4-3-2-2-1-5,0-7,1-3,4-2,6-1,1,0,3,0,4,0,7,1,1,1,6,15-7,8-18,9-25,4-7-5-16-5-23-9-1,3,0,5,2,6,2,0,4,2,6,2,7,2,14,7,22,7,0,0,0,0,1,2-5,0-9,0-13,0,9,3,18,4,27,1,4-1,8-2,8-8,0-2,2-5,3-6,4-2,3-5,3-9,0-7-5-11-9-16,0-1-3-1-4-2,0,0,0,0,0,0,1,1,2,3,3,4h0ZM224,652c-17-8-46-9-58-7,0,0,0,0,1,0,16,0,33,2,49,6,3,0,6,0,9,0,0,0,0,1,0,3-2,0-3,0-5,0-1-2-19-4-29-5-17-2-35-3-52-5-19-2-39-6-58-9-8-1-14-5-19-11-3-3-4-7-3-11,3-6,5-13,8-19,0-1,0-2,2-4-2,0-3,0-3,0-2,3-4,6-7,8,0,0,0,1-1,2-4,11,0,28,8,36,1,1,3,2,5,3,6,2,13,4,19,5,3,0,6,0,9,0,7,0,14,0,21,2,13,3,27,6,41,7,22,0,43,3,65,8,6,1,12,3,18,4,0,0,0,0,0,0-6-4-12-9-18-13ZM322,521c0,2-2,3-3,5-3,5-5,1-4,16,0,7,1,13,1,2,0,5,2,8,7,1,0-2,0-4,0-6-2-6-2-11-2-17,0-7,3-12,8-17,6-6,13-9,22-1,6,0,11-1,18-2-5-2-9-3-13-4,1,0,2,2,29,5,6,2,11,6,17,1,0,0,2,0,3,1,0-4-2-6-4-8-6-4-12-8-18-11,0,0,0,0-1,0-4-1-8-2-13-3,2,0,3,0,4-1-6-2-12-5-18-5h0c4,2,8,3,11,5-1,0-2,0-4,0-5,0-1-2-15-2-9,0-18,1-24,8-8,8-14,18-21,27-3,4-3,5,0,9,2,3,5,6,8,9,0,0,0,2,1,3-5-3-8-9-13-12-3,5-1,9,1,13,0,0,0-1,0-2-4-4-5-8-3-13,0-2,0-4,0-6-2-6-1-12,3-17,5-6,1-12,17-15,8-3,17-6,25-8,14-4,28,1,41,6,12,5,22,13,32,21,1,0,2,2,3,3,6,9,12,18,15,28,0,1,1,3,3,5,0-2,1-2,1-3,0-5-1-9-3-14-3-8-7-16-1-25-2-5-6-1-1-14-7-6-15-1-24-12-7-2-13-5-2-5-1,0-19,0-29,1-12,1-23,5-32,14-7,8-14,16-2,25-3,4-4,9-3,15,0,3,0,5-3,6-2-2-5-2-7,0-4,5-2,11,4,13,9,3,18,6,27,9,0,0,0,0,2,0-2-4-4-9-7-13,2,3,5,5,7,9,3,6,8,9,14,11,2,0,4,2,7,2,1,0,3,0,4,1-3-4-6-7-1-11-5-5-11-1-8-19,0-2,0-4,0-6,0-6,0-12,0-18,0-6,3-11,8-13ZM344,603c3,1,7,3,1,5,6,3,12,5,19,6,0-2-2-3-3-4-5-3-1-6-15-9-3-2-5-4-7-5-5-2-11-3-16-5-4-1-8-3-11-2-4,0-6-1-8-3-1,0-2-2-4-3-11-5-22-9-33-12-1,0-2,0-3,0-1,6,0,12,5,16,7,6,14,12,24,13,3,0,7,1,1,2,11,2,22,4,34,6,0,0,2,0,4,0-1-2-2-3-3-4h0ZM404,561c0,0-1,0-2,0-2,3-4,6-6,9-4,7-9,1-17,1-7,0-14-2-22-3-6,0-1-4-12-9,0,0,0-1-1-2-4-5-4-11,0-16,5-6,11-1,19-11,4,0,8,0,11,3,6,6,1,14,11,23,0,0,0,2,0,4,2,0,4,0,5-2,8-8,6-17-1-21-2-1-4-2-5-4,0,0,0,0,0-1,2,0,4,2,6,3,0-4,0-4-3-6-6-4-13-6-2-7,0,0,0,0,0,1,3,1,6,3,1,4-1,0-2,1-3,0-5-2-11-4-16-5-9-2-17,0-25,4-7,5-13,14-7,24,3,6,7,11,13,15,5,4,11,6,18,8,12,3,24,3,35-4,7-5,1-11,12-18ZM209,59h0c0-2-2-3-3-4-9-8-13-18-11-3,1-9,6-16,14-19,2,0,3-2,4-3-2,0-4,0-6,0-6,2-12,4-17,1-4,4-4,8,0,13,0,1,2,3,2,4-1-6-9-12-6-18,2-3,5-5,7-7,13-6,26-11,4-1,4,0,8,0,13-1-8-5-8-5-14-5-3,0-6,0-9,0-14-2-27,0-4,3-4,0-7,3-7,7,0,5-2,1-3,16,0,9,3,18,6,27,2,7,6,11,13,12,3,0,6,2,9,3,2,0,3,0,5,1ZM344,631c-2,0-3-2-5-2-9-2-19-4-28-6-8-2-17-2-25-4-17-4-34-7-52-1-14-2-28-4-42-6-11-2-21-5-31-11-5-3-1-6-16-8-1,0-2,0-5-1,2,4,3,8,6,1,4,2,8,4,12,6,14,4,28,8,42,12,12,3,24,7,37,9,13,3,26,5,39,7,15,2,3,4,46,6,7,0,13,3,21,0ZM139,592c0,4,2,5,5,7,8,4,15,9,24,12,14,5,29,9,44,14,7,2,13,5,2,5,3,0,5,0,7-1,1,0,3,0,5,0,1,2,2,4,3,6,8,1,16,3,24,1,4,0,9,0,14-1-9-1-16-2-24-3-26-3-51-8-76-15-5-1-1-3-15-4-11-3-22-5-33-8-9-2-17-5-24-12ZM19,643s0,0,0,0c0,0-1,0-2,0-17-3-34-5-51-8-6,0-12-2-17-3-5-1-11-3-16-5-11-3-18-1-22-21-2-5-1-9,3-12,4-4,4-4,2-1-5,0-5,0-6,3-6,9-8,19-8,3,0,4,2,6,5,7,3,2,7,3,1,4,9,3,18,5,27,6,23,3,45,8,68,1,2,0,4,0,6,0ZM59,679c-2,0-2,1-3,1-5,0-8,3-12,5-4,2-8,4-12,6-6,2-11,3-17,5-8,3-17,5-26,3-3,0-6,0-9,0,0,0,0,0,0,1,2,0,3,2,5,2,7,0,13,2,2,2,14,0,28-3,42-6,6-1,11-5,16-9,2-2,5-5,5-8,0-5,2-1,4-14,0-1,0-3,0-4-3,0-4,0-4,2-1,4-4,7-7,9-1,1-3,3-4,4,0,0,1,0,3,1ZM176,528c-3,0-4,1-5,2-9,5-15,14-17,24-2,8,3,18,9,21,5,2,1,4,15,6,0,0,2,0,4,0-3-9-6-17-8-25-2-9,0-17,2-27ZM236,538c-6,2-8,6-1,11-2,6-4,12-6,19-2,8-1,8,6,12,6,3,13,5,21,8v-23c-13-7-14-12-11-26ZM177,634c-2-1-3-3-5-4-7-4-14-8-21-12-1-6-2-12-3-19-2-1-5-2-8-2,3,9,6,16,14,2,7,4,14,8,21,11,9,4,19,4,29,4ZM398,705c2-7,4-14,5-21,0-3,3-5,5-7,9-4,18-6,27-6,1,0,2,0,4,0,0,0,0-1,0-1,0,0-2,0-3-1-9-2-19-3-28,0-4,0-7,3-11,5-8,6-11,14-12,23,0,1,0,3,1,4,4,2,6,5,11,5ZM243,533c-2-3-4-2-6-2-8,1-16,3-23,8-9,5-14,12-13,23,0,1,0,3,2,4,4,4,8,6,13,7,2-8,4-15,7-23,3-9,9-16,2-16,0,0,0,0,1,0ZM136,629s0,0,0-1c0,0,0,0-1-1-1-5-18-12-23-23-2-5-5-9-9-13-4-3-8-2-1,2-3,5-2,15,3,18,3,3,7,6,11,8,8,4,15,7,23,1,2,0,4,0,7,1ZM504,62q5-3,7,0c-9,6-2,12,0,18-2-2-4-4-6-7,0,0,0,0-1,0,1,6,2,12,6,18,5-6,3-14,6-2,0,4,0,7,0,1,3-2,4-5,3-8-2-1-4-2-7-29-2-5-6-9-11-11-3-1-7-1-1,2,2,3,4,5,5,7,2,3,3,4,7,4,2,0,4,0,5,2q-7,2-6,9c0,2,0,3,1,6ZM143,643h0c0-2-2-2-3-2-11-2-21-5-32-6-11-1-2-5-3-9-5-2-9-6-9-13,0-8,0-16,5-23,0,0,0-2,0-3-2,0-4,0-4,2-4,8-8,16-11,25-1,3,0,7,2,1,5,6,11,8,18,1,15,3,31,5,46,8,5,0,11,1,16,2ZM479,64c1-8-2-13-5-18-4-8-5-16,0-24,1-2,3-3,4-5,2-3,5-4,8-4,2,0,5,0,7-2-2,0-3-1-5-1-6,0-11,0-17,3-8,3-12,9-11,17,0,3,0,6,0,9,0,11,9,18,17,25ZM398,61c3,2,4,3,5,4,7,4,14,8,21,12,6,3,12,3,19,2-2-4-3-8-6-11-2-2-4-5-5-7-3-6-7-7-13-5-4,1-8,2-12,4-2,0-5,0-8,2ZM28,594c0-1,0-1,0-1,0,0,0,0-1-1-6-5-11-12-11-2,0-1-1-3-3-3-4-1-9-2-13-3,0,1-1,1-1,2-3,7,0,13,1,19,0,1,2,2,4,3,3,1,6,2,1,3,5,1,9,4,15,3ZM42,607c-8,4-12,13-9,2,3,6,6,12,9,17,5,7,13,9,23,6-2-2-4-3-6-4-7-5-11-13-16-2-2-3-3-6-2-1,0-3,0-6,0-1ZM462,585c-2,0-3,0-5,1-5,3-9,7-12,12-3,4-3,8-2,13,2,11,11,14,19,2,1-4,0-5-2-7-3-4-4-8-4-13,0-8,0-16,6-23,0,0,0-1,0-2ZM214,603c-2-1-2-2-3-2-9-3-18-6-28-9-7-2-15-3-2-9-5-5-9-1-14-15,0,0-2-1-3-2-1,3-2,5-3,8-1,3,0,5,3,7,6,3,12,7,18,1,3,2,6,3,9,4,12,3,23,6,35,9,1,0,3,0,5,0ZM243,673c-3-4-7-6-11-7-13-3-25-5-38-7-5,0-11-2-17,0,3,3,5,6,9,7,8,1,15,3,23,5,2,0,3,0,5,0,5,0,11,0,16,0,5,0,9,1,14,2ZM486,632c2-4,2-5,1-1,0-3,0-6,0-9,0-3,1-4,4-5,6-2,7-5,2-9-1-1-3-3-5-4-1,0-3,0-4,0-4,3-8,6-1,11-2,8,2,21,1,27,0,0,0,0,0,0ZM404,54c0,9,5,15,3,23-2,7-5,13-11,18-6,4-13,6-19,9,12,3,22-3,31-1,5-4,7-8,7-14,0-6-1-11-2-17,0-4-4-6-9-9ZM328,709c5-4,8-9,9-15,0-5,2-1,5-14,8-13,18-23,33-27,1,0,2-1,4-3-9,0-15,2-21,6-12,8-2,19-26,31-3,7-6,13-3,22ZM118,659c-24-3-48-6-72-3,1,7,58,1,72,3ZM27,604s0,0,0,0c-8-5-16-1-24-14-8-4-18-6-27-9,0,5,3,8,6,1,4,3,9,5,13,7,7,3,14,4,21,5,3,0,7,1,1,2ZM288,71c0-5,2-1,1-13,0-4,0-7,0-1,2-6,4-13,6-19-2-2-3-4-6-3-3,0-2,4-2,6-1,7-2,13-4,2-4,0-4,0-8-2-1,0-3,0-5,0,0,1,0,3,0,4,0,2,2,4,3,6,4,4,8,8,13,13ZM4,648c-1-2-2-4-2-5-3-5-5-11-8-16-3-6-2-11,1-16,2-3,5-5,8-7,2-2,3-3,2-7-2,0-3,0-4,2-7,5-12,11-15,18-2,6-2,11,0,16,1,3,3,5,5,7,3,3,6,7,12,7ZM188,626c-2-1-4-2-6-3-1-5-2-1-3-14-3-2-6-5-9-5-6-1-8-5-8-1,0-3,0-6-4-7-3,2-6,4-9,6,1,12,15,15,28,2,7,3,14,6,2,9,5,3,11,5,18,5ZM263,544c-5-5-11-4-17-4-3,0-7,1-8,5-1,4,0,7,2,1,1,2,3,3,5,4,2,1,4,0,5,0,4-4,8-9,13-14ZM361,543c-3,0-6,1-8,3-7,6-9,18,0,23,7,4,14,7,22,5,2,0,4-1,6-2-4-4-4-5-8-4-2,0-4,1-6,2-4,0-6,0-8-4-1-3-2-6-3-8-2-5-2-1,3-14,0,0,0,0,0-2ZM366,708c-3-7-5-13-4-21,1-7,7-12,11-19-4,2-7,4-1,6-8,4-11,1-11,19,0,9,3,13,14,15ZM184,513c-5-1-9-1-12,1-8,6-16,12-24,18-4,4-4,12-1,17,0-2,2-4,3-5,3-6,7-12,12-16,6-4,11-8,17-11,2-1,3-2,6-4ZM248,658c1,3,2,5,3,6,3,4,5,8,8,11,4,4,6,3,8-2,3,4,6,7,8,5,0-1,0-3-1-5,2,2,3,3,4,4,0-7-2-11-8-11,0,1,0,2,1,3-4-2-7-5-1-7-4-3-8-6-14-6ZM306,673s1,0,1,0c4-6,9-11,15-16,2-1,3-4,4-6,1-4-1-7-5-6-1,0-3,1-4,2-9,7-11,16-12,26,0,0,0,0,0,0ZM139,573c3-7,7-12,4-19-1-3-1-7-2-1,0-1,0-2-2-4-1,3-3,4-3,6-1,4-2,9-3,13-1,6,1,1,7,15ZM35,686c-4,3-7,7-9,11,0,1,0,3,0,3,2,3,4,7,7,1,3,3,7,5,11,8,2-1,4-3,6-4-5-4-9-7-13-11-4-5-1-11-2-17ZM418,562c0,2,0,3,0,5,0,8-4,14-11,19-9,6-19,9-3,8-3,0-7,0-1,0h0c2,2,3,3,5,3,13,4,25,0,36-7,8-5,13-18,1-28ZM418,705c0-3,0-5,0-7,0-6,1-12,7-15,1,0,3-2,5-4-7,0-12,4-16,7-3,2-5,4-7,6-3,3-2,6,1,8,3,2,7,3,1,5ZM268,607c6,3,58,13,65,12-21-6-41-12-65-12ZM295,543c9-11,17-21,26-31-2,0-3,0-3,0-9,4-16,1-21,17-3,4-3,8-2,14ZM377,672s0,0,0,0c-3,3-6,6-8,1-4,6-4,13-2,19,0,2,2,3,4,3,0-2,0-3,2-4,3-3,2-5,2-9,0-3,0-7,0-1,0-3,0-6,1-9ZM179,683c8,1,3,9,41,2-14-1-27-4-41-2ZM257,684c-14,0-18,0-22,3,2,0,3,2,5,3h-6c1,3,3,5,4,8,4-1,7-2,11-3,2,0,3-3,6-4,4-1,4-3,2-7ZM35,647c0-5-4-7-7-7-6-1-12-3-16,0,1,4,2,8,3,11,6-2,13-3,2-5ZM308,64s0,0,0,0c-4,0-8-1-12-1-4,0-8-1-12,0,8,3,16,4,23,1,6-4,7-5,7-9,3,0,6-1,9-2,0,0,0-1,0-2-6-2-12,0-19,0,0,0,0,0,0,0,1,0,3,1,4,2ZM318,607c0,0,0,1,0,2,6,2,12,3,18,5,6,1,12,3,18,3,6,0,12,4,19,4-3-4-5-5-8-6-15-5-31-5-46-8ZM526,688c0,0,0,1,0,2,13,0,26-4,37-11,3-2,5-5,8-8,0,0,0-3,0-3-1-1-3-1-4,0-1,1-2,3-3,4-2,4-6,6-1,7-5,1-9,2-14,4-5,1-1,3-14,5ZM379,676s0,0,0,0c0,0,1,0,1,0,8-8,18-12,3-12,5,0,1,0,15,0,1,0,2,0,4,0,0-1-2-2-3-2-1,0-2,0-3,0-2,0-4,0-6,0-1-2-19,0-29,5-5,2-7,7-1,11ZM426,633c-1-3-3-4-6-5-7-1-13-5-18-1-1-1-3-2-4-3-4-2-9-4-13-6-4-2-6-2-1,0,18,8,33,2,52,25ZM2,695c11,2,22,1,34,3-2-4-3-7-5-11-1,3-19,5-29,8ZM222,674c3,3,5,5,7,7,1,2,3,2,5,2,5,0,9,0,14,0,2,0,4,0,4-2,0-2-2-3-3-3-6,0-12-2-19-3-2,0-4,0-8,0ZM283,644c-13-7-28-8-42-1,0,1,2,3,3,3,13,4,25,8,39,7ZM206,672c-8-2-16-4-24-5-2,3-2,5,1,7,2,0,4,2,6,3,5,2,13,0,17-5ZM449,588s0,0-1,0c0,0-2,0-3,0-5,1-7,5-1,8-3,4-4,7,0,12,2,2,3,4,5,8-2-12,3-2,1-27ZM228,518c-3-4-12-7-2-6-7,0-14,0-2,6,7,0,14,0,2,0,7,0,13,0,2,1ZM266,566c2-6,3-11,4-16,0-1,0-3-1-3,0,0-2,0-3,0-3,3-6,6-9,1,0,1-2,3-3,5,4,1,8,3,12,4ZM57,678h0c0,0,1,0,2,0,2-2,5-4,7-6,6-6,4-11-3-14-1,0-2,0-3,0-3,0-4,1-3,3,0,2,2,3,3,5,3,3,3,5,0,9-1,1-2,3-3,4ZM124,585c0-5-1-6-7-6-3,2-5,4-7,6,0,0,0,0,0,0-4,3-4,6,0,8,2,0,5,1,7,2,0-8,0-8,7-11ZM533,682c9-2,17-4,23-11-6-7-9-7-13-1-3,4-6,7-1,12ZM522,677c4-1,7-2,11-3,1,0,3-1,3-2,0-2,0-4-3-4-4-2-8-2-12,0-2,1-6,2-5,5,0,2,4,3,6,4ZM306,608c-13-9-28-1-42-13,14,6,28,11,42,13ZM492,631c0,8,6,22,12,27,3-6-2-17-12-27ZM371,657s0,0,0,0c-13,7-22,17-29,3h0c1-9,19-19,29-29ZM483,636c0,5,5,15,8,19,4,4,6,8,7,13,0,2,0,4,3,6-2-15-6-28-18-37ZM219,59c0-4-2-7-3-1,0-1,0-3-2-4-4-2-7-5-12-6,0,6,6,14,16,19ZM201,68s0,0,0,0c8,0,16,2,25,2-3-7-11-11-17-7-2,1-5,3-7,4ZM267,657h0c3,3,7,5,1,8,3,2,5,6,7,9,0-2,2-4,2-5,1-5,0-8-5-9-5-1-1-2-14-2ZM465,694c0,3,0,5,1,6,3,3,1,5,0,7-1,3-2,5-4,9,5-2,7-4,9-7,6-7,4-13-6-16ZM54,629c0-2,0-2,0-3-3-7-3-15-2-23,0,0,0,0,0,0-8,1-7,23,4,27ZM535,653c-2-5-4-8-11-14-5,3-5,6-2,9,4,2,8,5,13,5ZM372,563c0-3,1-5,1-6,0-5-4-7-8-6-2,0-4,2-4,4,0,2,0,3,2,4,2,1,5,2,8,4ZM355,645h21c-8-4-17-6-27-6,3,3,4,5,6,6ZM387,659c-1-1-22,6-25,14,9-5,17-9,25-14ZM604,693c11-6,14-17,7-25,0,9-2,17-7,25ZM452,653c-2-5-6-7-9-9-5-3-9-4-13-3,8,4,14,1,23,12ZM349,636c1,2,19,5,29,5-5-6-18-8-29-5ZM371,628c-11-6-23-9-36-1,0,0,0,0,0,1,12,3,24,6,36,9ZM406,635c4,4,21,12,26,12-8-6-15-11-26-12ZM156,664c5,4,1,8,15,11,2,1,3,0,4,0,1-2,0-3-1-4-3-2-6-4-8-6-3-2-6-2-9-1ZM316,721c-4-6-9-12-13-13,0,11,3,13,13,13ZM206,7c1,3,2,3,32,0-11,0-21-3-32,0ZM484,657c2,7,0,14,5,21,3-8,0-17-5-21ZM3,686c-6,8-7,16,0,22,0-8,3-14,0-22ZM539,643c2-7-2-12-2-19,0-3-1-6-4-8,3,9,2,18,6,26ZM221,599c-9-4-19-9-3-1,2,2,2,3,3,3,9,3,18,6,28,8ZM577,707c-12,2-24,3-36,5,13,2,25,0,36-5ZM307,686c-5,1-4,17,3,22-1-7-2-14-3-22ZM587,655c2,5,3,9,5,14,2-3,5-5,5-8-1-4-5-5-9-6ZM203,625c-15-7-21-9-25-7,8,4,17,7,25,7ZM74,649c-5-5-11-9-18-11,5,5,1,11,18,11ZM528,62c0,6,1,12,2,18,0,1,0,3,3,3,0-8,0-15-5-21ZM39,675c-4,2-8,6-1,11,0,2,0,5,1,7,3-6,6-12,9-18ZM7,631c0-8,4-13,3-21-6,5-7,13-3,21ZM168,677s0,0,0-1c-3-2-6-4-9-6q-7-5-1-5c4,7,11,9,18,12ZM186,59c-3-7-11-9-17-6,5,3,11,4,17,6ZM553,665c2,0,3,1,5,0,2,0,5-1,7-2,0,0,2-2,2-3,0-2-2-2-3-2-4,1-7,2-1,6ZM547,62c0,6,3,16,5,18,2-7-2-13-5-18ZM402,714c0-1-1-3-2-4-4-1-8-2-12-4,3,5,8,8,15,8ZM96,616c-2-3-5-6-6-9-1-3-2-7-3-11-4,7,0,15,9,2ZM16,681c4,4,8,6,13,8,0-5-3-7-13-8ZM109,579c-4-3-7-3-12,1,4,4,8,0,12-1ZM598,689s0,0,1,0c4-4,6-8,6-14,0,0-2,0-2,0-2,4-3,8-5,12ZM503,682s0,0,1,1c2,0,3-2,5-3,0,0,1-2,1-4,0,0-1-2-2-2-1,0-3,0-4,2,0,1,0,3-1,5ZM399,546c-1,4,0,7,2,11,4-6,3-9-2-11ZM331,716c0,3-1,5-1,7,3,0,4,0,6,0,0,0,0,0,2-1-2-2-4-4-7-6ZM555,677c4-2,8-5,9-12-2,1-4,2-5,4-2,3-3,6-4,8ZM583,673c7-3,8-8,2-13,2,5,1,9-2,13ZM351,717c-3-3-5-5-9-6,2,7,3,7,9,6ZM528,697c6,0,11,0,15-4-6,0-1,2-15,4ZM428,729c5,3,1,2,14,0h-14ZM506,663q-2,4,2,1c2-4,1-7-2-1ZM336,654s0,0,0-1c-4,1-8,1-1,8,4-3,7-5,11-7ZM513,681c5,1,8,0,11-2-3,0-7-2-11,2ZM192,695c-2,0-4-2-6-2-2,0-3-3-6-1,3,4,7,4,12,4ZM514,66c1,6,3,7,8,3-3,0-5-2-8-3ZM419,717c-3-2-6-3-11-4,3,5,7,4,11,4ZM335,705c-5,6-5,8,0,9,0-3,0-6,0-9ZM178,678s0,0,0,1h6c0-3-2-4-5-4,0,0-2,2-2,3ZM17,509h0c3,0,7,0,1-2-4-1-8,0-11,2ZM544,664c-2,0-4,0-7,1q4,4,7-1ZM414,657s0,0,0-1c-2-2-5-3-8,0,2,0,5,0,7,1ZM9,575c-6,0-8,0-12,4,5-1,8-3,12-4ZM295,682c4-4,4-4,2-8,0,3-3,5-2,8ZM252,531q4,3,7,3c-2-3-4-4-7-3ZM387,647s0,0,0,1c2,1,5,2,7,0-2,0-5,0-7,0ZM387,641s0,0,0,1q4,2,9,0c-4,0-6-1-9-2ZM2,639q0,5,4,7c-2-3,0-6-4-7ZM111,652s0,0,0,1c3,0,7,0,1,1,0,0,0,0,0-1-3,0-6,0-1-1ZM393,534s0,0,0,1c1,1,3,3,5,5,0-5-2-5-4-6ZM519,688c2,0,5-1,7-2-3-2-5,0-7,2ZM251,649s0,0,0,1h4s0,0,0,0c-1,0-3,0-4,0ZM268,689q0-4-3-5c0,2,2,3,3,5ZM226,632s0,0,0-1c-2,0-4,0-6,0,0,0,0,0,0,1,2,0,4,0,6,1ZM348,529s0,0,0,1c1,0,3,0,4,0,0,0,0,0,0,0h-4ZM7,582s0,0,0-1c-1,0-3,1-4,2h0c1,0,3,0,4,0ZM93,587c0-1,2-2,2-2,0,0,0-1-2-2,0,0-1,0-1,1,0,0,0,2,0,3ZM176,668c0,0,0-1,0-2h-3s0,0,0,0c1,0,2,0,3,0ZM448,698s0,0-1,0c0,0,1,2,2,3,0,0,0,0,1,0,0,0-1-2-2-3ZM105,652h0c-1-1-3-1-4-2,0,0,0,0,0,1,1,0,3,0,4,0ZM375,553s0,0,1,0c0-1,0-2,0-3,0,0,0,0-1,0,0,1,0,2,0,3ZM568,685h0c0,0,2,0,2-1h0c0,0-2,0-3,1ZM32,596s0,0,0,0c0,0,1,0,2-1,0,0,0-1,1-2h0c0,0-2,1-3,2ZM4,651s0,0,0,0c1,0,2,0,3,0h0c-1-1-2-1-3-1ZM169,661s0,0,0-1c-1,0-2,0-3,0h0c1,1,2,1,3,2ZM523,617s0,0-1-1c0,0,0,0,0,0,0,0,0,0,0,1,0,0,0,0,0-1ZM389,623s0,0,0,0c0,0,1,0,2,0,0,0,0,0,0,0,0,0-1,0-2-1Z"/>
        <path class="cls-2" d="M298,565c2,4,4,9,7,13-1,0-2,0-2,0-9-3-18-6-27-9-6-2-8-8-4-13,2-3,5-3,7,0,3-2,3-3,3-6-1-5,0-11,3-15,6-9,13-17,2-25,8-9,2-13,32-14,1,0,19,0,29-1,7,0,13,3,2,5,9,2,17,6,24,12,4,4,8,8,1,14,3,8,7,16,1,25,2,4,2,9,3,14,0,0,0,1-1,3-1-2-2-3-3-5-3-1-9-19-15-28,0-1-2-2-3-3-1-8-2-16-32-21-13-5-26-1-41-6-9,2-17,5-25,8-7,3-13,9-17,15-4,5-5,11-3,17,0,2,1,4,0,6-2,5,0,9,3,13,0,0,0,1,0,2,0,0,0,0,0,1Z"/>
        <path class="cls-2" d="M404,561c-2,8-5,14-12,18-11,7-23,7-35,4-6-2-12-4-18-8-6-4-9-9-13-15-6-1,0-2,7-24,8-5,16-6,25-4,6,1,11,3,16,5,0,0,2,0,3,0-3-1-6-3-1-4,0,0,0,0,0-1,7,0,14,2,2,7,2,2,2,2,3,6-2-1-4-2-6-3,0,0,0,0,0,1,2,1,4,3,5,4,7,4,9,13,1,21-1,1-3,1-5,2,0-2,0-3,0-4,0-9-4-17-11-23-3-3-7-4-11-3-8,1-14,5-19,11-4,5-4,11,0,16,0,0,0,1,1,2,3,5,7,8,12,9,7,1,14,3,22,3,8,0,13-3,17-1,2-3,4-6,6-9,0,0,1,0,2,0Z"/>
        <path class="cls-2" d="M209,59c-2,0-3,0-5-1-3-1-6-3-9-3-7-1-11-6-13-12-3-9-7-17-6-27,0-5,2-1,3-16,0-4,4-6,7-7,13-3,26-6,4-3,3,0,6,0,9,0,6,0,6,0,14,5-5,0-9,1-13,1-14,0-28,4-4,1-3,1-6,4-7,7-4,6-4,12,6,18,0-1-2-3-2-4-3-5-3-9,0-13,4-5,1-8,17-1,2,0,4,0,6,0-1,0-3,2-4,3-8,4-12,11-14,19-2,12,2,22,11,3,0,0,2,2,3,3h0Z"/>
        <path class="cls-2" d="M344,631c-8,4-14,2-21,0-15-2-31-4-46-6-13-2-26-4-39-7-12-3-24-6-37-9-14-4-28-8-42-12-4-1-8-3-12-6-4-2-4-6-6-1,2,0,4,0,5,1,5,3,11,5,16,8,9,6,2,9,31,11,14,2,28,4,42,6,17,3,35,5,52,1,8,2,17,3,25,4,9,2,19,4,28,6,1,0,3,1,5,2Z"/>
        <path class="cls-2" d="M345,603c0,1,2,3,3,4-1,0-3,0-4,0-11-2-22-4-34-6-3,0-7-1-1-2-1,0-17-7-24-13-5-4-6-1-5-16,1,0,2,0,3,0,12,3,23,7,33,12,1,0,2,2,4,3,3,2,5,3,8,3,4,0,8,1,11,2,5,1,11,3,16,5,3,0,5,3,7,5,5,3,1,6,15,9,1,0,2,2,3,4-7,0-13-2-19-6-3-2-7-3-1-4-4-3-8-5-13-7,4,3,8,7,13,7ZM326,592s0,0,0,0c0,0,0,0,0,0,0,0,0,0,1,0,0,0,0,0,0-1Z"/>
        <path class="cls-2" d="M298,565s0,0,0-1c-2-4-4-8,0-13,5,3,8,9,13,12,0,0,0-2-1-3-3-3-5-6-8-9-3-4-3-5,0-9,7-9,13-18,21-27,6-7,15-8,24-8,5,0,1,2,15,2,1,0,2,0,4,0-4-1-8-2-11-3h0c6-1,12,2,18,4,0,0-2,0-4,1,5,1,9,2,13,3,0,0,0,0,1,0,6,4,12,7,18,11,2,2,4,4,4,8-1,0-2,0-3-1-6-3-11-7-17-1-9-4-19-6-29-5s0,0,0,0c-1,0-2-2-3-2-6,0-12,0-18,0-5,0-9,2-12,6h0c-6,3-8,7-8,13,0,6,0,12,0,18,0,2,0,4,0,6-3,9,3,14,8,19,3,3,7,6,1,11-1,0-3,0-4-1-2,0-4-2-7-2-6-2-11-4-14-11-2-3-5-6-7-9Z"/>
        <path class="cls-2" d="M224,652c6,4,12,9,18,13,0,0,0,0,0,0-6-1-12-3-18-4-21-5-43-7-65-8-14,0-27-4-41-7-7-2-14-2-21-2-3,0-6,0-9,0-7-1-13-3-19-5-2,0-4-2-5-3-8-8-12-25-8-36,0,0,0-2,1-2,3-2,6-5,7-8,0,0,2,0,3,0,0,2-1,3-2,4-3,6-6,13-8,19-2,4,0,8,3,11,5,6,11,1,19,11,19,3,38,7,58,9,17,2,35,3,52,5,1,1,19,3,29,5,2,0,3,0,5,0,0-1,0-2,0-3,0,0,0,0,0,0Z"/>
        <path class="cls-2" d="M453,686c-1-1-2-3-3-4,0,0,0,0,0,0,2,0,4,0,4,2,4,5,8,9,9,16,0,3,0,6-3,9-2,0-3,4-3,6,0,6-4,7-8,8-9,3-18,2-27-1,4,0,8,0,13,0,0-1-1-2-1-2-8,0-15-4-22-7-2,0-4-2-6-2-2,0-4-2-2-6,7,5,16,4,23,9,7,5,18,4,25-4,5-5,1-14-6-15-1,0-3,0-4,0-2,0-5-1-6,1-1,2-2,5,0,7,0,1,2,3,4,3,0-2,0-3,1-5,3,0,4,2,5,4,0,2,0,4-2,4-7,1-13,0-18-5-3-2-2-8,0-11,6-7,14-9,23-6,2,0,3,0,5,1,1,3,3,6,4,9,0,0,0,0,1,0-1-3-1-7-5-8Z"/>
        <path class="cls-2" d="M139,592c7,7,15,1,24,12,11,3,22,5,33,8,5,1,1,3,15,4,25,7,51,12,76,15,8,0,15,2,24,3-5,0-1,0-14,1-8,1-16,0-24-1-1-2-2-4-3-6-2,0-4,0-5,0-2,2-5,1-7,1-7,0-13-3-2-5-15-4-3-9-44-14-8-3-16-8-24-12-2-1-5-3-5-7Z"/>
        <path class="cls-2" d="M19,643c-2,0-4,0-6,0-23-1-45-7-68-1-9-1-18-3-27-6-4-1-7-2-1-4-3-1-5-4-5-7,0-11,1-21,8-3,2-2,2-2,6-3,2,6,2,6-2,1-4,3-5,8-3,12,4,11,11,17,22,21,5,2,1,4,16,5,6,1,12,2,17,3,17,3,34,5,51,8,0,0,1,0,2,0,0,0,0,0,0,0Z"/>
        <path class="cls-2" d="M59,679c-1,0-2,0-3-1,1-1,3-3,4-4,3-3,6-5,7-9,0-2,1-3,4-2,0,1,0,3,0,4-1,5-3,9-4,14,0,3-3,6-5,8-4,4-9,8-16,9-14,3-27,6-42,6-7,0-13-1-2-2-2,0-3-1-5-2,0,0,0,0,0-1,3,0,6,0,9,0,9,2,17,0,26-3,6-2,11-3,17-5,4-2,8-4,12-6,4-2,7-5,12-5,0,0,1,0,3-1Z"/>
        <path class="cls-2" d="M176,528c-3,1-4,19-2,27,2,8,5,16,8,25-2,0-3,0-4,0-5-2-1-3-15-6-7-3-11-13-9-21,2-1,8-18,17-24,1,0,3-1,5-2Z"/>
        <path class="cls-2" d="M236,538c-4,13-2,18,11,26v23c-8-3-14-5-21-8-7-3-8-4-6-12,2-6,4-13,6-19,2-4,4-8,1-11Z"/>
        <path class="cls-2" d="M177,634c-1,0-2,0-29-4-7-3-14-7-21-11-7-4-11-12-14-2,3,0,6,0,8,2,1,6,2,13,3,19,7,4,14,8,21,12,2,1,3,2,5,4Z"/>
        <path class="cls-2" d="M398,705c-5,0-8-3-11-5,0,0-1-2-1-4,0-9,4-18,12-23,3-2,7-4,11-5,9-2,19-2,28,0,0,0,2,0,3,1,0,0,0,0,0,1-1,0-3,0-4,0-1,0-19,2-27,6-3,1-5,4-5,7-2,7-3,13-5,21Z"/>
        <path class="cls-2" d="M243,533c0,0,0,0-1,0-11,0-17,7-2,16-3,7-5,15-7,23-5-1-1-4-13-7,0,0-1-3-2-4,0-11,5-17,13-23,7-4,15-7,23-8,2,0,5,0,6,2Z"/>
        <path class="cls-2" d="M354,517c4,1,8,3,13,4-7,0-12,1-18,2-8,0-16,4-22,1-5,5-8,1-8,17,0,6,0,11,2,17,0,1,0,3,0,6-5-3-8-5-7-1,0-7,0-13-1-2,0-6,1-11,4-16,1-2,2-3,3-5,0,0,0,0,0,0,2,0,3,0,4-1,5-3,11-3,17-3,4,0,8,0,12,0,0,0,0,0,0,0Z"/>
        <path class="cls-2" d="M136,629c-2,0-5,0-7-1-8-3-16-6-23-1-4-2-8-5-11-8-4-3-5-13-3-18,2-4,7-4,1-2,4,3,7,8,9,13,4,11,13,18,23,23,0,0,0,0,1,1,0,0,0,0,0,1Z"/>
        <path class="cls-2" d="M504,62c0-2,0-4-1-6q-1-7,6-9c0-3-3-3-5-2-3,0-5,0-7-4-1-3-3-5-5-7,3-3,6-3,1-2,5,2,9,6,11,11,3,1,5,19,7,29,0,3,0,6-3,8,0-3,0-6,0-1-4,7-2,14-6,2-4-6-5-12-6-18,0,0,0,0,1,0,2,2,4,4,6,7-2-6-9-12,0-18q-2-3-7,0Z"/>
        <path class="cls-2" d="M17,624c9,4,19,5,29,6,6,0,12,1,18,2,7,1,13,3,2,5,5,1,9,3,13,8-6,2-11,3-17,2-4,0-9-2-13-3-5-1-11-3-16-4-5-1-1-3-15-5-4-1-8-3-12-5-3-1-6-2-7-6h0Z"/>
        <path class="cls-2" d="M143,643c-5,0-11-1-16-2-15-2-31-5-46-8-7-1-13-4-18-1-3-3-4-6-2-1,3-8,7-17,11-25,0-1,2-2,4-2,0,1,0,2,0,3-5,7-5,15-5,23,0,6,3,11,9,13,1,4,2,7,3,9,11,1,21,4,32,6,0,0,2,0,3,0h0Z"/>
        <path class="cls-2" d="M479,64c-8-8-17-14-17-25,0-3,0-6,0-9,0-9,3-14,11-17,5-2,11-4,17-3,1,0,3,0,5,1-2,3-4,3-7,2-4,0-6,0-8,4-1,2-3,3-4,5-6,8-4,16,0,24,3,5,6,1,5,18Z"/>
        <path class="cls-2" d="M398,61c4,0,6,0,8-2,4-1,8-2,12-4,6-2,1,0,13,5,1,3,3,5,5,7,3,3,4,7,6,11-7,0-13,1-19-2-7-4-14-8-21-12-1,0-3-2-5-4Z"/>
        <path class="cls-2" d="M408,597c0-1,1-2,2-3,2-2,5-4,7-7,5-8,1-24,0-36-2-3-5-6-4-11,1,0,2,0,2,1,8,13,15,26,17,41,1,6,0,11-5,16-3,3-6,4-1,2-3-1-7-2-1-3h0Z"/>
        <path class="cls-2" d="M28,594c-6,0-1-2-15-3-3,0-6-2-1-3-1,0-3-1-4-3-1-6-4-13-1-19,0,0,0,0,1-2,4,1,9,2,13,3,1,0,3,2,3,3,0,9,5,15,11,2,0,0,0,0,1,1,0,0,0,0,0,1Z"/>
        <path class="cls-2" d="M42,607c0,4,0,7,0,1,0,3,0,7,2,1,5,7,8,15,16,2,2,1,3,2,6,4-1,4-18,1-23-6-3-5-7-11-9-17-3-7,0-16,9-2Z"/>
        <path class="cls-2" d="M462,585c0,1,0,2,0,2-5,7-6,15-6,23,0,5,1,9,4,13,1,2,3,4,2,7-8-6-17-9-19-2,0-5,0-9,2-13,3-5,7-9,12-12,1,0,3,0,5-1Z"/>
        <path class="cls-2" d="M214,603c-3,0-4,0-5,0-12-3-23-5-35-9-3,0-6-3-9-4-6-3-12-7-18-1-3-2-4-4-3-7,0-2,2-5,3-8,2,1,3,1,3,2,5,5,9,1,14,15,5,6,13,7,2,9,9,3,18,6,28,9,0,0,1,0,3,2Z"/>
        <path class="cls-2" d="M243,673c-5,0-9-1-14-2-5,0-11,0-16,0-2,0-3,0-5,0-8-1-15-3-23-5-4,0-7-4-9-7,6-2,12,0,17,0,13,2,26,5,38,7,4,0,8,3,11,7Z"/>
        <path class="cls-2" d="M486,632s0,0,0,0c-7-6-12-18-1-27,1-5,6-8,1-11,0,0,3,0,4,0,2,0,3,2,5,4,4,5,4,7-2,9-3,1-4,2-4,5,0,3,0,6,0,9,0,5,0,6-1,1Z"/>
        <path class="cls-2" d="M404,54c5,2,8,5,9,9,1,6,2,11,2,17,0,6-2,11-7,14-9,7-19,12-31,1,7-2,14-5,19-9,6-4,9-11,11-18,2-7-2-14-3-23Z"/>
        <path class="cls-2" d="M328,709c-4-8,0-15,3-22,6-12,14-23,26-31,6-4,12-7,21-6-2,1-3,2-4,3-15,4-25,15-33,27-3,4-4,9-5,14,0,6-4,1-9,15Z"/>
        <path class="cls-2" d="M322,702c-4-1-3-19,2-28,7-11,16-19,29-22,0,0,2,0,4,0-2,2-3,2-4,3-15,11-25,26-3,44,0,1-1,2-2,4,0,0,0,0,0,0Z"/>
        <path class="cls-2" d="M118,659c-13,7-61,5-72-3,24-3,47,0,72,3Z"/>
        <path class="cls-2" d="M27,604c-3,0-7-1-1-2-7-1-15-1-21-5-5-2-9-5-13-7-3-2-6-5-6-1,9,3,19,5,27,9,8,4,16,9,24,14,0,0,0,0,0,0Z"/>
        <path class="cls-2" d="M288,71c-5-5-9-9-13-13-1-2-2-4-3-6,0-1,0-3,0-4,2,0,4,0,5,0,4,2,4,2,8,2,1-7,2-13,4-2,0-2,0-5,2-6,3,0,4,1,6,3-2,7-4,13-6,19-1,3-1,7,0,1,0,4,0,8-1,13Z"/>
        <path class="cls-2" d="M188,626c-7,0-12-2-18-5-7-3-13-7-2-9-13-5-18-8-28-2,3-2,6-4,9-6,4,1,4,4,4,7,0,5,2,9,8,1,3,0,6,4,9,5,1,5,2,1,3,14,2,0,4,2,6,3Z"/>
        <path class="cls-2" d="M473,65c0,2,1,4,2,7-3,1-4,0-6-2-1,0-2-2-3-2-4,1-7-1-9-4-7-5-14-11-2-16,0,0,0,0,0-1,1,0,3,0,4,0,7,0,14,2,2,8,4,4,9,7,13,11,0,0,0,0,0,0Z"/>
        <path class="cls-2" d="M263,544c-5,5-9,9-13,14-2,2-3,2-5,0-2-1-4-2-5-4-2-3-3-6-2-1,1-4,5-5,8-5,6,0,12,0,17,4Z"/>
        <path class="cls-2" d="M361,543c0,0,0,2,0,2-5,4-5,8-3,14,1,3,2,6,3,8,2,4,4,5,8,4,2,0,4-1,6-2,4-1,5,0,8,4-2,0-4,2-6,2-8,2-16-1-22-5-1-6-8-17,0-23,2-2,4-4,8-3Z"/>
        <path class="cls-2" d="M366,708c-11-2-14-6-14-15,0-8,4-15,11-19,3-2,6-3,1-6-4,7-1,12-11,19-1,7,1,13,4,21Z"/>
        <path class="cls-2" d="M322,702c1,3,2,5,3,8,0,2,2,4,0,7-8-6-13-13-13-23,0-11,3-2,12-27,0,0,0,0,1,0,0,1,0,3-2,4-3,5-5,1-5,16,0,5,0,11,5,15,0,0,0,0,0,0Z"/>
        <path class="cls-2" d="M278,653c-3-2-6-4-9-6,0,0,2,0,3,0,7,0,14,0,21,1,2,0,5,0,7,1,4,1,5,4,3,8-1,2-3,4-5,6-6-3-13-4-18-1,0,0-2,0-3,0s0,0,0,0Z"/>
        <path class="cls-2" d="M184,513c-2,2-4,3-6,4-6,4-12,7-17,11-6,4-9,9-12,16,0,2-2,3-3,5-3-5-3-13,1-17,8-7,16-13,24-18,3-2,7-2,12-1Z"/>
        <path class="cls-2" d="M248,658c6,0,1,3,14,6,3,2,7,5,1,7,0-1,0-2-1-3,5,0,9,4,8,11-1-1-2-3-4-4,0,2,0,4,1,5-2,2-5-1-8-5-2,5-5,6-8,2-3-3-6-7-8-11-1-2-2-4-3-6Z"/>
        <path class="cls-2" d="M306,673s0,0,0,0c0-1,3-2,12-26,1,0,2-2,4-2,4,0,7,2,5,6,0,2-2,5-4,6-6,5-11,9-15,16,0,0,0,0-1,0Z"/>
        <path class="cls-2" d="M139,573c-6-4-8-9-7-15,0-4,2-9,3-13,0-2,2-3,3-6,0,2,1,3,2,4,0,3,0,7,2,1,3,7-1,13-4,19Z"/>
        <path class="cls-2" d="M35,686c0,6-2,13,2,17,3,4,8,7,13,11-2,1-4,3-6,4-4-3-8-5-11-8-3-3-5-7-7-1,0,0,0-2,0-3,2-4,5-8,9-11Z"/>
        <path class="cls-2" d="M418,562c3,1-1,23-1,28-11,7-23,1-36,7-2,0-3-1-5-2h0c3-1,7-2,1-1,11,1,21-2,3-8,7-4,11-1,11-19,0-2,0-3,0-5Z"/>
        <path class="cls-2" d="M418,705c-4-2-7-3-1-5-3-2-4-5-1-8,2-2,4-5,7-6,5-3,9-6,16-7-2,2-3,3-5,4-6,4-7,9-7,15,0,2,0,4,0,7Z"/>
        <path class="cls-2" d="M268,607c23,0,44,5,65,12-6,1-59-8-65-12Z"/>
        <path class="cls-2" d="M295,543c-1-5-1-1,2-14,6-8,12-14,21-17,0,0,1,0,3,0-9,11-17,21-26,31Z"/>
        <path class="cls-2" d="M377,672c0,3,0,6-1,9,0,3,0,7,0,1,0,3,0,6-2,9-1,0-1,3-2,4-2,0-3-1-4-3-3-7-2-13,2-19,2-4,5-7,8-1,0,0,0,0,0,0Z"/>
        <path class="cls-2" d="M179,683c14-2,27,1,41,2-11,6-32,7-41-2Z"/>
        <path class="cls-2" d="M257,684c2,4,2,6-2,7-2,0-4,3-6,4-3,2-7,2-11,3-2-3-3-5-4-8h6c-3-2-4-2-5-3,4-2,8-3,22-3Z"/>
        <path class="cls-2" d="M35,647c-7,2-14,3-2,5-1-4-2-7-3-11,5-4,11-2,16,0,3,0,6,3,7,7Z"/>
        <path class="cls-2" d="M308,64c-1,0-3-1-4-2,0,0,0,0,0,0,6,0,13-2,19,0,0,0,0,1,0,2-3,0-6,1-9,2,0,4,0,5-7,9-6-6-15-7-23-1,4-2,8-1,12,0,4,0,8,0,12,1,0,0,0,0,0,0Z"/>
        <path class="cls-2" d="M318,607c15,3,31,3,46,8,3,1,6,2,8,6-7,0-13-3-19-4-6,0-12-2-18-3-6-1-12-3-18-5,0,0,0-1,0-2Z"/>
        <path class="cls-2" d="M526,688c5-2,1-3,14-5,5-1,9-3,14-4,5-1,8-4,1-7,0-1,2-3,3-4,1-2,3-2,4,0,0,0,0,3,0,3-2,3-5,6-8,8-12,6-24,1-37,11,0,0,0-1,0-2Z"/>
        <path class="cls-2" d="M379,676c2-4,5-9,1-11,9-4,19-6,29-5,2,0,4,0,6,0,1,0,2,0,3,0,0,0,2,0,3,2-1,0-2,0-4,0-5,0-1,0-15,0-11,0-22,4-3,12,0,0,0,0-1,0,0,0,0,0,0,0Z"/>
        <path class="cls-2" d="M426,633c-19-5-34-17-52-25,4-1,6,0,1,0,4,2,9,4,13,6,2,0,3,2,4,3,5,5,11,9,18,1,3,0,5,2,6,5Z"/>
        <path class="cls-2" d="M408,597c3,2,6,3,9,5-8,4-14,5-21,3,0,0-2,0-2,0-4,4-7,0-11-2,4,0,8-2,12-3,4,0,8-2,13-3,0,0,0,0,0,0Z"/>
        <path class="cls-2" d="M2,695c1-3,19-5,29-8,2,4,3,7,5,11-12-2-23,0-34-3Z"/>
        <path class="cls-2" d="M222,674c3,0,6,0,8,0,6,0,12,2,19,3,2,0,4,0,3,3,0,2-2,2-4,2-5,0-9,0-14,0-2,0-4,0-5-2-2-2-4-4-7-7Z"/>
        <path class="cls-2" d="M496,615q-1-5,3-6c4,11,4,19,0,25-6-4-1-14-8-2,1,0,3,0,4,0,0,1,0,2,1,4,0,0,0,0,1,0,0,0-2-2-3-3Z"/>
        <path class="cls-2" d="M283,644c-13,1-26-3-39-7-1,0-2-2-3-3,14,2,29,3,42,1Z"/>
        <path class="cls-2" d="M206,672c-4,5-12,7-17,5-2,0-4-2-6-3-3-1-3-4-1-7,8,1,16,2,24,5Z"/>
        <path class="cls-2" d="M449,588c-7,7-12,16-1,27-2-3-4-5-5-8-3-4-3-8,0-12,3-3,6-7,1-8,0,0,2,0,3,0,0,0,0,0,1,0Z"/>
        <path class="cls-2" d="M228,518c-7,0-13,0-2-1-6,0-13,0-2,0,6-6,13-5,2-6,8,0,17,2,2,6Z"/>
        <path class="cls-2" d="M549,659c-4,2-8,2-12,1-5,0-11,1-16-3,0,0-1,0-2,0-3,0-5-1-6-4-1-2,0-4,2-6,2,2,5,3,7,5,6,5,13,6,21,5,2,0,4-1,5,2h0Z"/>
        <path class="cls-2" d="M266,566c-4-1-7-3-12-4,1-2,2-4,3-5,3-3,6-7,9-1,0,0,3-1,3,0,0,0,1,2,1,3-1,5-3,1-4,16Z"/>
        <path class="cls-2" d="M57,678c1-1,2-3,3-4,3-4,2-5,0-9-1-1-3-3-3-5,0-2,0-4,3-3,1,0,2,0,3,0,8,3,9,8,3,14-2,2-5,4-7,6,0,0-1,0-2,1h0Z"/>
        <path class="cls-2" d="M124,585c-7,2-7,3-7,11-3,0-5-1-7-2-5-2-5-5,0-8,0,0,0,0,0,0,2-2,4-4,7-6,6,0,7,0,7,6Z"/>
        <path class="cls-2" d="M533,682c4-5,7-8,1-12,5-6,8-5,13,1-6,7-14,9-23,11Z"/>
        <path class="cls-2" d="M522,677c-2-1-5-2-6-4-1-4,3-4,5-5,4-3,8-2,12,0,2,0,4,2,3,4,0,1-2,2-3,2-3,0-6,2-11,3Z"/>
        <path class="cls-2" d="M306,608c-15-2-29-7-42-13,15,2,3,4,42,13Z"/>
        <path class="cls-2" d="M492,631c1,9,15,21,12,27-6-5-13-19-12-27Z"/>
        <path class="cls-2" d="M371,657c-1,1-19,2-29,3h0c7-14,16-24,29-31,0,0,0,0,0,0Z"/>
        <path class="cls-2" d="M483,636c12,1,16,22,18,37-3-2-2-4-3-6-1-5-3-9-7-13-3-3-8-13-8-19Z"/>
        <path class="cls-2" d="M219,59c-1-5-17-13-16-19,5,0,8,3,12,6,0,0,1,2,2,4,0,3,2,6,3,1Z"/>
        <path class="cls-2" d="M201,68c2-1,5-2,7-4,6-3,14,0,17,7-8,0-16-2-25-2,0,0,0,0,0,0Z"/>
        <path class="cls-2" d="M267,657c5,0,1,1,14,2,5,1,6,4,5,9,0,2-1,3-2,5-3-3-4-7-7-9-3-3-7-4-1-6h0Z"/>
        <path class="cls-2" d="M465,694c1,3,12,8,6,16-2,3-4,5-9,7,2-4,3-6,4-9,1-2,3-4,0-7-1,0,0-4-1-6Z"/>
        <path class="cls-2" d="M54,629c-1-3-11-17-4-27,0,0,0,0,0,0-1,8,0,15,2,23,0,0,0,2,0,3Z"/>
        <path class="cls-2" d="M224,652c-3,0-6,0-9,0-16-4-32-5-49-6,0,0,0,0-1,0,12-2,41-1,58,7,0,0,0,0,0,0Z"/>
        <path class="cls-2" d="M535,653c-5,0-9-3-13-5-4-3-3-6,2-9,7,6,1,9,11,14Z"/>
        <path class="cls-2" d="M372,563c-3-2-6-3-8-4-2,0-3-2-2-4,0-2,2-4,4-4,4,0,7,2,8,6,0,2,0,3-1,6Z"/>
        <path class="cls-2" d="M355,645c-1-2-3-3-6-6,1,0,19,2,27,6h-21Z"/>
        <path class="cls-2" d="M387,659c-8,5-17,9-25,14,3-8,16-15,25-14Z"/>
        <path class="cls-2" d="M452,653c-9-2-15-8-23-12,4-1,9,0,13,3,3,3,8,4,9,9Z"/>
        <path class="cls-2" d="M349,636c1-3,23,0,29,5-1,0-19-3-29-5Z"/>
        <path class="cls-2" d="M371,628c-12-3-24-6-36-9,0,0,0,0,0-1,12,2,25,4,36,1Z"/>
        <path class="cls-2" d="M406,635c1,1,18,6,26,12-5,0-22-8-26-12Z"/>
        <path class="cls-2" d="M156,664c3,0,6,0,9,1,3,2,6,4,8,6,2,0,2,2,1,4-1,2-2,2-4,0-5-4-1-8-15-11Z"/>
        <path class="cls-2" d="M484,657c6,4,8,13,5,21-5-6-3-14-5-21Z"/>
        <path class="cls-2" d="M3,686c2,8-1,15,0,22-6-6-5-14,0-22Z"/>
        <path class="cls-2" d="M539,643c-5-8-3-18-6-26,3,2,4,5,4,8,0,6,5,12,2,19Z"/>
        <path class="cls-2" d="M221,599c-9-2-19-4-28-8,0,0-1-1-3-3,12,1,21,6,3,1Z"/>
        <path class="cls-2" d="M307,686c1,7,2,15,3,22-7-4-8-12-3-22Z"/>
        <path class="cls-2" d="M587,655c4,1,8,2,9,6,0,3-2,5-5,8-2-5-3-9-5-14Z"/>
        <path class="cls-2" d="M203,625c-9,0-17-3-25-7,5-2,1,0,25,7Z"/>
        <path class="cls-2" d="M74,649c-8,0-13-6-18-11,7,2,13,6,18,11Z"/>
        <path class="cls-2" d="M277,653c0,0,0,2,0,3-6,0-12-2-18-4,0,0,0-1,0-3,7,0,13,2,19,4,0,0,0,0,0,0Z"/>
        <path class="cls-2" d="M528,62c5,6,4,14,5,21-3,0-3-2-3-3,0-6-1-12-2-18Z"/>
        <path class="cls-2" d="M39,675c-3,6-6,11-9,18-2-2-2-5-1-7,2-5,5-8,1-11Z"/>
        <path class="cls-2" d="M168,677c-7-3-13-6-18-12q2,0,1,5c3,2,6,4,9,6,0,0,0,0,0,1Z"/>
        <path class="cls-2" d="M186,59c-6-2-12-3-17-6,6-3,14,0,17,6Z"/>
        <path class="cls-2" d="M553,665c3-4,7-5,1-6,2,0,3,0,3,2,0,0,0,3-2,3-2,1-5,2-7,2-1,0-3,0-5,0Z"/>
        <path class="cls-2" d="M547,62c3,5,7,11,5,18-2-2-5-12-5-18Z"/>
        <path class="cls-2" d="M96,616c-9-5-12-12-9-2,0,4,1,8,3,11,1,3,4,6,6,9Z"/>
        <path class="cls-2" d="M16,681c1,0,13,3,13,8-5-2-9-3-13-8Z"/>
        <path class="cls-2" d="M109,579c-4,0-7,6-12,1,5-4,7-4,12-1Z"/>
        <path class="cls-2" d="M598,689c2-4,3-8,5-12,0,0,0,0,2,0,0,6-2,1-6,14,0,0,0,0-1,0Z"/>
        <path class="cls-2" d="M503,682c0-2,0-4,1-5,0-1,2-2,4-2,0,0,2,1,2,2,0,1,0,3-1,4-1,1-3,2-5,3,0,0,0,0-1-1Z"/>
        <path class="cls-2" d="M399,546c5,2,5,5,2,11-2-4-3-7-2-11Z"/>
        <path class="cls-2" d="M549,659c3-2,7-4,11-3-3,3-6,5-11,6,0-1,0-2,0-3,0,0,0,0,0,0Z"/>
        <path class="cls-2" d="M555,677c1-2,2-5,4-8,0-1,3-2,5-4-1,6-4,1-9,12Z"/>
        <path class="cls-2" d="M583,673c3-4,3-8,2-13,6,5,5,1-2,13Z"/>
        <path class="cls-2" d="M528,697c5-2,9-4,15-4-3,3-8,4-15,4Z"/>
        <path class="cls-2" d="M506,663c3,3,3,6,2,1q-4-6-2-1Z"/>
        <path class="cls-2" d="M336,654c-3,2-6,4-11,7,2-7,6-7,1-8,0,0,0,0,0,1Z"/>
        <path class="cls-2" d="M513,681c4-4,8-2,11-2-3,2-6,3-11,2Z"/>
        <path class="cls-2" d="M192,695c-5,0-9,0-12-4,3-1,4,0,6,1,2,0,4,1,6,2Z"/>
        <path class="cls-2" d="M514,66c3,1,5,2,8,3-5,4-7,4-8-3Z"/>
        <path class="cls-2" d="M178,678c0,0,2-2,2-3,2,0,4,1,5,4h-6s0,0,0-1Z"/>
        <path class="cls-2" d="M17,509c3-2,7-3,11-2-3,1-7,2-1,3h0Z"/>
        <path class="cls-2" d="M544,664q-3,5-7,1c3,0,5,0,7-1Z"/>
        <path class="cls-2" d="M414,657c-2,0-5,0-7-1,3-3,6-3,8,0,0,0,0,0,0,1Z"/>
        <path class="cls-2" d="M9,575c-4,1-7,2-12,4,3-3,6-4,12-4Z"/>
        <path class="cls-2" d="M295,682c-1-3,1-5,2-8,2,4,2,4-2,8Z"/>
        <path class="cls-2" d="M252,531c4-1,6,0,7,3q-4,0-7-3Z"/>
        <path class="cls-2" d="M387,647c2,0,5,0,7,0-2,3-5,2-7,0,0,0,0,0,0-1Z"/>
        <path class="cls-2" d="M387,641c2,0,5,0,9,2q-5,2-9,0s0,0,0-1Z"/>
        <path class="cls-2" d="M111,652c3,0,6,0,1,1,0,0,0,0,0,1-3,0-7,0-1-1,0,0,0,0,0-1Z"/>
        <path class="cls-2" d="M393,534c2,0,5,1,4,6-2-2-4-4-5-5,0,0,0,0,0-1Z"/>
        <path class="cls-2" d="M519,688c2-3,4-4,7-2-2,0-5,1-7,2Z"/>
        <path class="cls-2" d="M461,661c-3,0-3,0-5-4q3,0,5,4h0Z"/>
        <path class="cls-2" d="M251,649c1,0,3,0,4,0,0,0,0,0,0,0h-4s0,0,0-1Z"/>
        <path class="cls-2" d="M473,65s0,0,0,0c0,0,0-1-1-3,3,0,4,2,4,5-1,0-2-1-3-2Z"/>
        <path class="cls-2" d="M268,689c-1-2-2-4-3-5q3,1,3,5Z"/>
        <path class="cls-2" d="M226,632c-2,0-4,0-6-1,0,0,0,0,0-1,2,0,4,0,6,0,0,0,0,0,0,1Z"/>
        <path class="cls-2" d="M348,529h4s0,0,0,0c-1,0-3,0-4,0,0,0,0,0,0-1Z"/>
        <path class="cls-2" d="M17,624c-3,1-5-1-8-3,3,0,5,2,8,3,0,0,0,0,0,0Z"/>
        <path class="cls-2" d="M7,582c-1,0-3,0-4,1h0c1-2,3-2,4-3,0,0,0,0,0,1Z"/>
        <path class="cls-2" d="M93,587c0-1,0-2,0-3,0,0,0,0,1-1,0,0,1,1,2,2,0,0,0,0-2,2Z"/>
        <path class="cls-2" d="M176,668c-1,0-2,0-3,0,0,0,0,0,0,0h3c0,0,0,1,0,2Z"/>
        <path class="cls-2" d="M105,652c-1,0-3,0-4,0,0,0,0,0,0-1,1,0,3,0,4,0h0Z"/>
        <path class="cls-2" d="M375,553c0-1,0-2,0-3,0,0,0,0,1,0,0,1,0,2,0,3,0,0,0,0-1,0Z"/>
        <path class="cls-2" d="M568,685c0,0,2-1,3-2h0c0,1-2,2-2,3h0Z"/>
        <path class="cls-2" d="M4,651h3,0c-1,1-2,1-3,0,0,0,0,0,0,0Z"/>
        <path class="cls-2" d="M169,661c-1,0-2,0-3,0h0c1,0,2,0,3,0,0,0,0,0,0,1Z"/>
        <path class="cls-2" d="M523,617s0,0,0,1c0,0,0,0,0-1,0,0,0,0,0,0,0,0,0,0,1,1Z"/>
        <path class="cls-2" d="M461,661c0,0,2,0,3,1,0,0,0,0,0,1,0,0-1-2-2-3,0,0,0,0,0,0Z"/>
        <path class="cls-2" d="M389,623c0,0,1,0,2,1,0,0,0,0,0,0,0,0-1,0-2,0,0,0,0,0,0,0Z"/>
        <path class="cls-1" d="M345,603c-6,0-9-4-13-7,5,2,9,3,13,7,0,0,0,0,0,0Z"/>
        <path class="cls-1" d="M326,592s0,0,0,1c0,0,0,0-1,0,0,0,0,0,0,0,0,0,0,0,0,0Z"/>
        <path class="cls-1" d="M355,518c-4,0-8,0-12,0-6,0-11,0-17,3-1,0-3,0-4,1,3-4,7-6,12-6,6,0,12,0,18,0,1,0,2,1,3,2Z"/>
        <path class="cls-1" d="M453,686c4,1,4,5,5,8,0,0,0,0-1,0-1-3-3-6-4-9,0,0,0,0,0,0Z"/>
        <path class="cls-1" d="M496,615c0,0,2,2,3,3,0,0,0,0-1,0,0-1,0-2-1-4,0,0,0,0,0,0Z"/>
      </g>
      <g>
        <path class="cls-1" d="M318,12c6-7,13-9,21-7,8,3,16,7,19,15,3,8,6,17,8,26,3,14-6,2-18,2-1,0-3-2-4-3-2-4-4-9-5-14-1-4-4-6-7-7-3,0-6,2-7,6-2,7-3,14-2,22,1,8,3,15,4,23,0,4,0,8,0,12,0,3-3,6-6,7-5,1-1,3-15,4-7,2-1,0-11-7,0-7-2-13-3-2,0-1,0-2-1-4-2,4-3,7-4,1-4,8-9,13-17,16-3,0-6,2-9,3-1,3-2,4-3,1-2,0-4-1-5-2-5-4-1-7-16-9-7-3-11-1-14-16-8-15-7-31,0-46,3-5,6-1,1-13,4-3,8-8,12-11,3-2,7-4,11-5,9-2,19-2,27,0,4,1,8,4,11,7,5,4,9,8,13,13,2,2,3,4,6,7,0-3,0-4,0-5,0-6,0-13-1-19,0-3,0-5,4-6,0,0,2,0,3-1,2-4,7-4,11-6,5-2,8,0,11,3,1,2,2,3,4,5ZM347,164c1,0,2,0,3,0,6-2,6-2,5-9-1-7-3-15-4-22,0-3-2-7-5-8-6-3-12-5-19-2-2,0-4,3-6,4-1,0-2,2-3,3-3,3-4,2-5-1,0-1,0-3-1-5-1-4-3-5-7-4-3,0-4,2-4,6,0,6,0,12,0,18,0,8,0,17,1,25,0,7,2,14,3,2,0,5,2,1,3,15,0,3,3,4,6,3,3,0,5-1,5-5,0-3,0-6,0-9-2-12-1-23-2-35,0-3,0-7,4-9,3-2,6-4,9-6,4-2,7-2,1,2,3,4,6,8,6,14,0,1,0,2,1,4ZM282,164c-2,4-4,7-5,1-1,3-3,5-6,6-3,0-6,2-9,2-8,0-17-1-24-4-6-2-11-7-12-15,0-4,0-8,0-12,2-8,6-13,14-13,2,0,3,0,5,0-5-2-1,0-15,1-6,1-11,4-14,9-11,12-7,26,6,32,13,6,27,9,41,1,5,0,1,0,15-3,3-2,5-4,6-7,1-5,0-9-2-14ZM277,2c-2,0-3,0-4,0-5,1-1,3-14,3-12,0-24-3-34-1-11-7-16-18-2-29,0-2,0-4,0-6,0-1,0-3,0-5-1,2-2,3-3,4-3,8-2,17-1,26,0,0,0,2,1,3,7,15,2,2,34,23,15,3,19,2,34-3,3,0,6-2,8-6ZM247,154c3,4,4,4,7,3,4-2,5-6,3-1-3-6-1-7-16-3-8,5-1,13-3,2,1,2,3,3,5,5,9,7,19,7,29,3,3-1,5-3,5-7,0-8-3-14-9-2,0,0,0,0-1,0,0,2,1,3,1,5,0,2,0,4,0,6,0,4-6,8-12,8-8,0-14-4-14-9,0-3,0-5,3-6,3-2,5-2,8,0-1,2-3,3-4,5ZM221,183c9,1,34,2,53,11-1,0-18,0-27-3-9-2-17-5-26-8ZM295,18c0,0-1,0-2,0,0,3,0,7,1,1,1,8,3,16,4,24,0,6,1,7,7,5,1,0,3,0,5-2-5-3-8-8-9-13-2-6-3-12-5-18,0-3-2-5-2-8ZM218,208c8,11,34,14,46,6-5,0-8,0-12,0-1,0-2,0-29-5-1,0-3,0-5-1ZM238,13c4,2,8,2,13,0-7-3-7-3-13,0ZM23,163c1,6,3,8,7,9-2-3-4-5-7-9ZM256,132s0,0,0,1c0,0,2,0,3,0,0,0,0,0,0,0,0,0-2,0-2,0Z"/>
        <path class="cls-1" d="M407,307c-1,3-1,6,0,9,0,11,2,22,3,33,0,0,0,0,0,1,0,9-1,11-1,13-2,0-5,1-7,2-6,1-9,0-1-6-1-4-2-8-3-12-2-15-5-3-7-46,0-6-2-11-2-17,0-9-1-17-2-26,0-2,0-4,0-6,0-3,3-4,6-5,7-1,15-3,22-5,4,0,5,0,6,4,2,7,2,15,2,22,0,7,1,15,2,22,0,0,0,0,1,0,0-2,1-3,2-5,1-12,9-21,18-28,4-3,9-6,13-9,1-5,2-6,3,0,0,0,2,1,3,2,1,4,16,12,21,21,4,9,6,19,6,29,0,1-5,18-12,26-3,3-6,6-9,8-4,4-1,5-15,6-6,1-12,2-18,2-12,0-22-5-28-16-4-7-6-14-1-21,0,0,0,0-1-2ZM485,27s0,0,0-1c-3-2-6-5-9-7-1-7-26-7-36,0-3,2-6,4-8,7-3,3-5,6-7,9-5,8-9,16-6,26,1,5,4,11,6,16,5,12,17,16,26,15,6,0,12-1,18-2,13,0,23-12,26-23,1-6,2-12,0-19,0-6-3-12-8-16-4-3-7-7-11-1,0,0,0,0,0-1,3,2,6,4,8,6ZM401,319h0c0-14,0-27-2-41,0-7-2-13-3-2,0-4-4-6-8-6-4,0-6,2-7,6,0,2,0,3,0,5,0,11,0,22,0,33,0,9,1,18,2,27,0,8,2,16,4,23,0,3,1,7,2,1,0,1,2,2,3,3,5,1,1-2,1-7,0-11,0-21,0-32ZM449,253s0,0,0-1c-2,0-4,0-5,2-9,5-17,11-24,19-3,4-6,9-4,15,7-16,18-27,34-33ZM374,256c-2,11,0,21,1,31,0-1,1-21-1-31ZM448,341c-4-1-8-2-12-4-4-2-7-4-11-6h0c6,8,14,11,23,1ZM418,317s0,0,1,0c0-2-1-4-2-5,0,0,0,0-1,0,0,2,1,4,2,5Z"/>
        <path class="cls-1" d="M36,316c0,7-2,14-6,19-2,3-4,6-6,9-4,6-11,8-17,9-7,2-13,4-2,5-16,2-31-2-42-19,0-1-2-3-3-4-8-1-12-22-9-34,3-12,8-24,19-33,2-2,4-4,6-6,12-11,26-16,42-13,5,1,1,4,13,7,8,7,4,23-6,28-2,1-6,0-9,0-9-3-15-2-22,5-4,4-7,9-7,15,0,7,2,13,5,18,7,1,19,1,27,2,5-6,8-12,11-19,3-6,7-7,12-5,3,1,5,3,8,5,3,3,4,6,3,1ZM327,277c3-3,5-6,7-9,0,0,0-2,0-3-2-3-4-7-8-8-6,0-11-1-17,0-7,2-14,4-21,8-5,3-11,7-15,13-5,9-6,18-4,28,1,1,7,18,12,27,4,6,11,11,17,14,1,0,2,1,3,1,1,1,21,0,3-3,5-2,1-4,14-7,6-4,1-18,7-25,0,0,0-1,0-2-3-3-1-3-12,0-2,2-3,6-5,8-3,4-6,9-1,13-7,6-24,6-32,0-5-4-9-9-11-15-2-7-2-14,0-2,3-9,9-16,17-21,7-4,18-4,25,2ZM293,324c-5-12-4-23,2-34-1,9-11,26-2,34ZM281,346c9,8,18,1,29,9,0,0,0-1-2-1-6,0-12-2-17-6-3-2-6-2-1-1ZM28,34s0,0,0,0c-2-4-5-7-7-11-2-4-4-8-6-12-1,11,3,18,12,24Z"/>
        <path class="cls-1" d="M141,288c-2,0-4,0-5-3-3-5-5-11-6-17-5-24-9-49-13-73-2-11-3-23-4-34,0-5-1-1-2-15,0-7,2-11,8-13,4-1,8-2,13-3,3,0,4,2,4,4,2,8,4,16,5,24,2,14,5,27,9,4,3,12,6,25,8,38,0,4,2,9,4,13,3,5,6,6,12,4,6-2,13-3,19-4,8-1,16-2,23-3,5,0,1,4,1,9,0,3,0,7,1,1,0,5,0,7-4,9-2,0-5,1-7,2-17,2-35,5-52,7-6,0-12,2-19,3-1,0-2,0-4,0ZM159,276s0,0,0,0c9,0,18-1,27-2,11,0,22-2,32-8,3-2,4-4,3-7,0-3-2-5-6-5-2,0-3,0-5,0-5,0-1,2-15,3-1,2-2,3-3,5-6,1-1,0-11-7-1-7-3-13-4-2-2-12-4-24-7-36-4-18-8-36-12-54,0,0,0-2,0-3,0-2-2-4-4-3-3,0-3,2-3,5,0,2,0,4,0,5,1,15,3,3,4,45,0,6,1,12,2,18,0,6,1,12,2,18,0,14,4,28,7,43,0,2,2,3,4,3,6,0,11,0,17-1ZM115,145c0,2,0,4,0,5,1,5,3,11,5,17,2-1,0-18-5-22ZM122,177c-2,17,0,31,2,36,0-12-2-24-2-36ZM153,281c0,0,0,1,0,2,1,0,3,0,4,0,0,0,0,0,0-1-1,0-3,0-4,0Z"/>
        <path class="cls-1" d="M446,172c11,8,12,19,1,29-3,11-9,2-2,25-2,0-4,2-6,2-11,2-21,3-32,0-11-3-2-9-25-21-4-9-5-18-5-27,0-8,0-16,2-24,2-11,7-2,14-27,0,0,0,0,1-1,12-8,24-14,39-12,7,1,15,5,19,11,6,9,11,19,13,3,0,3,0,5,0,8,0,5-1,6-6,6-2,0-3,0-6,0ZM412,169s0,0,0,0c8,0,15-2,23-3,3,0,6-2,9-2,4-1,5-2,4-6,0-14-7-24-18-33-5-3-9-6-15-5-6,1-13,3-19,6-4,2-8,6-11,1-5,7-8,16-11,25,0,1,0,2,0,3,0,14,0,28,7,41,4,8,9,13,18,14,6,0,12,1,18,1,8,0,17-2,21-1,2-4,4-8,6-12,1-3,1-7,1-11,0-3-3-5-6-5-3,0-5,0-7,3-3,5-5,11-8,16-3,7-7,9-14,8-14,0-24-12-24-25,0-3,0-6,1-9,0-5,2-6,7-6,5,0,11,0,17,0ZM441,173c-4-2-7-1-1,0-1,0-2,2-31,2-1,0-2,0-4,0-2,0-3,1-3,3-1,7,2,13,4,19,0,0,1,1,2,2,3,2,6,4,9,5,5,2,9,1,11-4,1-3,2-7,3-1,0-6,4-11,1-13,3-1,6-3,9-4Z"/>
        <path class="cls-1" d="M664,323c-2,1-4,2-6,4-9,5-18,7-28,6-4,0-8-1-12-4-3-2-6-4-9-5-11-5-14-15-14-26,0-8,1-16,4-24,1-3,3-6,5-9,2-3,4-6,6-8,3-4,7-6,11-7,2-1,5-2,8-3,12-3,25-3,36,5,0,0,1,0,2,0,0,0,0-2,0-3,0-18,0-36-1-54,0-4,0-9,0-13,0-7,4-11,11-13,2,0,5-1,7-2,3,0,6,0,7,4,1,3,2,7,2,1,0,16,0,33,0,49,0,15,0,29,0,44,0,17,0,33,0,5,0,2,0,4,0,6-3,0-5,0-7,0-3,0-6,0-9,0-2,0-4,0-5-1-2-2-4-4-6-7ZM669,265c-3-3-5-6-8-9-3-4-7-5-12-6-3,0-6,0-9,0-1,0-18,4-24,12-3,5-7,9-1,15-3,6-7,13-5,2,2,9,6,18,14,23,2,1,4,3,7,3,5,0,11,1,16,1,1,0,19-1,27-8,5-4,7-2,8,3,0,1,0,3,2,4,3,2,7,0,1,0,3-1,2-4,2-7,0-16,0-31,0-47,0,0,0-2,0-2-2-19,0-39,0-58,0-9,0-18,0-27,0-5-1-5-6-5-7,0-9,2-1,9,0,1,0,3,0,4,0,13,0,26,0,4,0,9,0,18,1,27,0,3,0,6-4,9ZM626,33c3,0,4,0,7-1-3,0-4,0-5,0,0,0,0,0-2,1Z"/>
        <path class="cls-1" d="M565,326c-2,0-4,2-5,3-1,4-21,7-32,3-4-1-7-4-1-7-9-12-1-27-12-42-1-9,0-17,1-26,0-3,3-5,6-7,5-2,11-1,16,0,2,0,4,2,4,4,0,5,1,1,0,14-2,8-1,16,0,24,0,5,4,1,9,11,6,2,11,0,15-5,4-4,5-1,4-15,0-8,0-16,0-24,0-5,1-7,7-8,6-1,12-1,18-1,3,0,4,3,4,5,0,6,0,12,0,18,0,6,0,11,0,17-1,11,0,23,0,34,0,3-2,6-5,7-4,0-7,3-11,3-5,1-5,0-7-3,0-1-1-2-2-4ZM568,314c2,2,3,4,4,6,2,3,4,4,9,3,3,0,4-3,4-6,0-12,0-23-1-35,0-3,0-6,0-9,0-2,0-5,0-7,0-7-1-7-8-9,0,0-2,0-2,0-5,0-7,0-7,6,0,5,0,1,0,15,0,5,0,11-2,16-3,1-16,17-26,13-7-3-11-9-11-17,0-9,0-19,0-28,0-4-2-5-6-4-3,0-4,3-4,6,0,4,0,8-1,12-2,11,0,22,3,33,2,5,3,1,8,12,6,3,12,5,18,7,3,0,6,0,9,0,6-2,12-5,17-12Z"/>
        <path class="cls-2" d="M347,164c0-2-1-3-1-4,0-6-3-1-6-14-3-4-5-4-1-2-3,2-6,4-9,6-3,2-4,5-4,9,0,12,0,23,2,35,0,3,0,6,0,9,0,3-2,4-5,5-3,0-5,0-6-3-1-5-2-1-3-15-1-7-2-14-3-2,0-8,0-17-1-25,0-6,0-12,0-18,0-4,0-5,4-6,4,0,5,0,7,4,0,1,0,3,1,5,1,4,3,4,5,1,0,0,2-2,3-3,2-2,4-4,6-4,7-2,13,0,19,2,3,2,5,5,5,8,1,7,3,15,4,22,1,6,0,7-5,9,0,0-2,0-3,0Z"/>
        <path class="cls-2" d="M282,164c3,5,4,1,2,14,0,3-3,5-6,7-5,2-1,3-15,3-14,0-28-4-41-1-13-6-17-2-6-32,4-4,9-8,14-9,5,0,1-3,15-1-2,0-3,0-5,0-8,0-13,6-14,13,0,4,0,8,0,12,0,8,5,13,12,15,8,3,16,4,24,4,3,0,6-1,9-2,3,0,5-3,6-6,1-3,3-6,5-1Z"/>
        <path class="cls-2" d="M277,2c-2,4-5,5-8,6-14,5-19,6-34,3-14-3-28-8-34-23,0,0-1-2-1-3-1-9-2-17,1-26,0-1,1-2,3-4,0,2,0,4,0,5,0,2,0,4,0,6,4,12,9,22,2,29,1,7,22,11,34,1,5,0,1-2,14-3,0,0,2,0,4,0Z"/>
        <path class="cls-2" d="M247,154c2-2,3-3,4-5-3-2-6-2-8,0-2,1-3,3-3,6,0,5,7,9,14,9,5,0,11-3,12-8,0-2,0-4,0-6,0-2,0-3-1-5,0,0,1,0,1,0,6,5,8,12,9,2,0,4-2,6-5,7-1,4-2,3-29-3-2-1-3-3-5-5-6-7-5-15,3-2,6-4,13-2,16,3,2,4,1,8-3,1-3,1-4,1-7-3Z"/>
        <path class="cls-2" d="M221,183c9,3,18,6,26,8,8,2,17,2,27,3-19,1-44,0-53-11Z"/>
        <path class="cls-2" d="M295,18c0,3,2,5,2,8,2,6,3,12,5,18,1,5,4,9,9,13-2,0-4,1-5,2-6,1-6,0-7-5-1-8-3-16-4-24,0-3,0-7-1-1,0,0,1,0,2,0Z"/>
        <path class="cls-2" d="M218,208c2,0,3,0,5,1,9,5,19,5,29,5,4,0,7,0,12,0-12,8-38,5-46-6Z"/>
        <path class="cls-2" d="M238,13c5-2,6-2,13,0-5,0-9,1-13,0Z"/>
        <path class="cls-2" d="M23,163c3,3,5,6,7,9-4-1-6-3-7-9Z"/>
        <path class="cls-2" d="M256,132c0,0,2,0,2,0,0,0,0,0,0,0,0,0-2,0-3,0,0,0,0,0,0-1Z"/>
        <path class="cls-2" d="M485,27c-3-2-6-4-8-6,0,0,0,0,0,1,4,3,7,7,11,1,5,4,7,1,8,16,0,6,0,13,0,19-2,11-13,22-26,23-6,0-12,1-18,2-9,0-21-3-26-15-2-5-4-11-6-16-3-1,1-18,6-26,2-3,4-7,7-9,2-3,5-5,8-7,1-6,26-6,36,0,3,2,6,5,9,7,0,0,0,0,0,1ZM448,324c9-1,18-1,27-6,6-3,1-13,8-19-2-6-4-12-8-18-9-17-33-17-44-3-2,2-4,5-5,8-3,6-5,11-4,18,2,11,14,21,26,21Z"/>
        <path class="cls-2" d="M401,319c0,11,0,21,0,32,0,5-5,9-1,7-1,0-2-1-3-3-1-3-2-6-2-1-1-8-3-16-4-23-1-9-2-18-2-27,0-11,0-22,0-33,0-2,0-3,0-5,1-5,3-6,7-6,4,0,7,2,8,6,1,7,3,13,3,2,0,14,1,27,2,41h0Z"/>
        <path class="cls-2" d="M449,253c-16,7-27,18-34,33-2-6,0-11,4-15,7-8,15-14,24-19,2,0,3-1,5-2,0,0,0,0,0,1Z"/>
        <path class="cls-2" d="M374,256c3,1,2,21,1,31-2-1-3-21-1-31Z"/>
        <path class="cls-2" d="M448,341c-9,0-17-2-23-9h0c4,0,7,4,11,5,4,2,8,3,12,4Z"/>
        <path class="cls-2" d="M418,317c0-2-1-4-2-5,0,0,0,0,1,0,0,2,1,4,2,5,0,0,0,0-1,0Z"/>
        <path class="cls-2" d="M327,277c-7-6-18-6-25-2-8,5-14,12-17,21-2,7-2,14,0,2,2,6,6,11,11,15,8,6,24,7,32,0,4-3,7-8,1-13,2-3,3-6,5-8,3-3,9-4,12,0,0,0,0,0,0,2,2,7-1,21-7,25-4,3-9,6-14,7-1,3-2,4-3,3-1,0-2,0-3-1-7-4-13-8-17-14-6-8-11-17-12-27-1-1-1-19,4-28,4-6,9-9,15-13,6-4,13-6,21-8,6-1,11,0,17,0,4,0,6,5,8,8,0,0,0,2,0,3-2,3-5,6-7,9Z"/>
        <path class="cls-2" d="M293,324c-1-8-9-25,2-34-6,11-6,23-2,34Z"/>
        <path class="cls-2" d="M281,346c4,0,7,0,1,1,5,4,11,6,17,6,0,0,1,0,2,1-1,1-2,0-29-9Z"/>
        <path class="cls-2" d="M28,34c-1-5-14-12-12-24,2,5,4,9,6,12,2,4,5,7,7,11,0,0,0,0,0,0Z"/>
        <path class="cls-2" d="M159,276c-6,0-11,0-17,1-2,0-4,0-4-3-3-14-6-28-7-43,0-6-1-12-2-18,0-6-1-12-2-18-1-15-3-3-4-45,0-2,0-4,0-5,0-2,0-4,3-5,2,0,3,2,4,3,0,0,0,2,0,3,4,18,8,36,12,54,3,12,4,24,7,36,1,7,2,13,4,2,1,6,5,8,11,7,1-2,2-3,3-5,5,0,1-2,15-3,2,0,3,0,5,0,3,0,5,2,6,5,0,3,0,5-3,7-1,6-21,7-32,8-9,0-18,1-27,2,0,0,0,0,0,0Z"/>
        <path class="cls-2" d="M115,145c5,4,6,12,5,22-2-6-3-11-5-17,0-1,0-3,0-5Z"/>
        <path class="cls-2" d="M122,177c0,12,2,23,2,36-3-5-4-19-2-36Z"/>
        <path class="cls-2" d="M153,281c1,0,3,0,4,0,0,0,0,0,0,1-1,0-3,0-4,0,0,0,0-1,0-2Z"/>
        <path class="cls-2" d="M412,169c-6,0-11,0-17,0-6,0-6,0-7,6,0,3,0,6-1,9,0,13,1,25,24,25,7,0,11-2,14-8,2-5,5-11,8-16,1-2,4-3,7-3,4,0,6,2,6,5,0,4,0,8-1,11-1,4-3,8-6,12-5,8-13,1-21,1-6,0-12,0-18-1-8-1-14-6-18-14-6-13-8-27-7-41,0-1,0-2,0-3,3-8,6-17,11-25,3-4,7-8,11-1,6-3,12-5,19-6,5-1,1,1,15,5,11,8,17,19,18,33,0,4,0,5-4,6-3,0-6,2-9,2-8,1-15,2-23,3,0,0,0,0,0,0ZM427,151c0-5-2-1-5-14-3-4-7-5-1-3-8,4-12,12-9,22,4,0,8-1,11-2,4,0,8-2,13-3Z"/>
        <path class="cls-2" d="M441,173c-3,2-6,3-9,4-6,3-9,7-1,13,0,3-1,7-3,1-2,5-6,6-11,4-3-2-6-3-9-5,0,0-2-1-2-2-2-6-5-12-4-19,0-2,1-3,3-3,1,0,2,0,4,0,1,0,2-2,31-2,3,0,6,0,1,0Z"/>
        <path class="cls-2" d="M669,265c3-3,4-6,4-9,0-9-1-18-1-27,0-13,0-26,0-4,0-1,0-3,0-4,0-7,3-9,1-9,5,0,6,0,6,5,0,9,0,18,0,27,0,19-2,39,0,58,0,0,0,2,0,2,0,16,0,31,0,47,0,3,0,6-2,7-3,1-7,2-1,0-1,0-2-2-2-4,0-6-3-7-8-3-8,6-17,8-27,8-5,0-11,0-16-1-2,0-5-2-7-3-8-6-12-14-14-23-2-8,2-14,5-2,3-5,7-1,1-15,6-8,14-12,24-12,3,0,6,0,9,0,5,0,9,2,12,6,2,3,5,6,8,9ZM664,288c0-2,0-4,0-5,0-5-2-1-7-13-5-3-9-5-14-8,0,0-2,0-2,0-9,1-17,4-24,9-1,9-1,23-3,3,4,4,8,7,13,9,9,4,23,1,3-6,4-5,7-11,7-16Z"/>
        <path class="cls-2" d="M626,33c0,0,1-1,2-1,1,0,3,0,5,0-3,2-4,2-7,1Z"/>
        <path class="cls-2" d="M568,314c-5,7-1,1-17,12-3,0-6,1-9,0-6-2-12-4-18-7-5-2-6-7-8-12-4-11-5-21-3-33,0-4,1-8,1-12,0-3,2-5,4-6,4-1,6,0,6,4,0,9,0,19,0,28,0,8,4,14,11,17,1,4,23-2,26-13,1-5,2-11,2-16,0-5,0-1,0-15,0-5,2-6,7-6,0,0,2,0,2,0,7,1,8,2,8,9,0,2,0,5,0,7,0,3,0,6,0,9,0,12,0,23,1,35,0,3,0,5-4,6-5,1-7,0-9-3,0-2-2-3-4-6Z"/>
        <path class="cls-1" d="M448,324c-12,0-24-1-26-21,0-6,1-12,4-18,1-3,3-5,5-8,11-14,34-14,44,3,3,6,5,12,8,18,2,6-2,15-8,19-9,5-18,5-27,6ZM435,295c0,7,2,13,6,15,9,5,18,8,28,3,6-3,8-7,6-13-2-7-5-14-9-2-2-2-3-3-6-3-5,0-9,0-14,2-7,2-11,9-11,16ZM43,307s0,0,0,0c0,1,2,3,3,4,0,0,0,0,0,0,0-1-2-3-3-4ZM438,318s0,0,0-1c-1,0-2-1-3-2,0,0,0,0,0,0,1,0,2,1,3,2Z"/>
        <path class="cls-1" d="M427,151c-5,0-9,2-13,3-4,0-8,1-11,2-3-1,0-18,9-22,4-2,8,0,1,3,3,4,5,9,5,14ZM423,148c0-2,0-4,0-5,0-3-2-6-5-7-3,0-6,1-7,4,0,1-2,3-2,4,0,3,0,5,4,5,4,0,7,0,12-1Z"/>
        <path class="cls-1" d="M664,288c0,6-3,12-7,16-7,7-21,1-3,6-5-2-1-6-13-9-7-7-7-21,3-3,7-6,15-8,24-9,0,0,2,0,2,0,5,2,9,5,14,8,5,3,6,8,7,13,0,2,0,3,0,5ZM637,307c1,0,4,0,7-2,7-2,12-7,12-14,0-2,0-5-1-7-1-4-3-7-5-11-1-4-4-5-8-5-6,0-12,1-17,5-3,2-6,4-8,8-5,12,5,26,19,26ZM655,272s0,0-1,0c2,4,3,7,5,11,0-5,0-9-4-11Z"/>
        <path class="cls-2" d="M435,295c0-7,4-14,11-16,4-2,9-3,14-2,3,0,5,0,6,3,4,6,7,13,9,2,2,6,0,1-6,13-1,5-19,2-28-3-4-3-6-8-6-15Z"/>
        <path class="cls-2" d="M43,307c0,1,2,3,3,4,0,0,0,0,0,0,0-1-2-3-3-4,0,0,0,0,0,0Z"/>
        <path class="cls-2" d="M438,318c-1,0-2-1-3-2,0,0,0,0,0,0,1,0,2,1,3,2,0,0,0,0,0,1Z"/>
        <path class="cls-2" d="M423,148c-4,0-8,1-12,1-3,0-5-3-4-5,0-1,1-3,2-4,2-2,4-4,7-4,3,0,5,3,5,7,0,1,0,3,0,5Z"/>
        <path class="cls-2" d="M637,307c-15,0-24-14-19-26,1-4,5-6,8-8,5-4,11-5,17-5,4,0,6,1,8,5,1,4,4,7,5,11,0,2,1,5,1,7,0,8-5,12-12,14-3,0-6,1-7,2Z"/>
        <path class="cls-2" d="M655,272c4,3,5,6,4,11-2-4-3-7-5-11,0,0,0,0,1,0Z"/>
      </g>
      <g>
        <path class="cls-2" d="M434,1452c0,1,1,2,2,3,0,0,0,0,0,0,0,0-1-2-2-3,0,0,0,0,0,0Z"/>
        <path class="cls-2" d="M412,1443c1,0,2,0,3,0,0,0,0,0,0,0-1,0-2,0-3,0,0,0,0,0,0,0Z"/>
        <g>
          <path class="cls-1" d="M45,1202c-7,1-13,3-19,3-5,5-101,1-151,16-29,4-58,5-86,7-1,0-19,2-29,3-15,0-3,0-44,2-14,1-27,4-4,6-11,2-22,3-33,4-7,0-14,1-21,2-7,0-14,0-19-7-1-2-2-4-2-6,0-11-2-22-4-33-2-11-1-22-2-33,0-16,3-31,1-47,0-7,0-14,1-21,0-7,0-15,0-22,0-8,4-14,11-16,14-4,27-6,42-7,2,0,41-1,61-6,6-1,7-3,7-9,0-17-1-23-24-22-13,0-25,0-38,1,0,0-2,0-3,0-14-1-15-2-13-15,0-4,0-9,0-13,0-1,2-21,3-31,1-17,2-34,3-52,1-18,3-36,7-54,2-8,5-15,8-22,2-6,6-8,12-6,1,3,2,5,31,6,4,0,7,2,11,3,22,5,44,11,67,16,2,5,4,9,6,14,18,4,37,9,55,13,16,4,33,9,49,13,7,2,13,6,2,9,0,7,0,15,0,22,0,22-2,45-3,67,0,9-3,18-5,27,0,0,0,2-2,2-7,3-12,7-2,8-14,1-28,3-42,6-4,0-8,4-11,7-1,1-2,3-2,5,0,8,2,17,3,25,0,4,2,5,5,5,7,0,14,0,2-1,23-1,46-3,68-4,17,0,34-2,52-3,3,0,6,0,1,0,3,11,3,22,3,32,0,25,1,49,4,73,1,1,0,2,0,3ZM432,1075c-3,0-5-1-7-1-16,0-32,1-49,2-8,0-15,2-22,3-17,2-34,3-51,5-8,0-16,2-22-4-3-3-4-5-2-7,2-4,2-7,2-11,0-6,0-12,0-18,0-7,3-12,9-14,3,0,5-2,8-2,14-3,29-5,43-8,9-2,9-2,11-1,0,0,0-1,0-2,1-17,3-33,4-5,0-4,0-8,0-12,0-11,2-21,3-32,0-4-1-6-5-8-9-3-18-7-27-1-32-9-64-2-97-27-13-3-25-7-37-11-14-4-27-7-41-1-19-4-38-9-58-13-6-1-12-1-18-2-3,0-5,0-5,4-3,16-7,33-1,49-3,19-4,38-7,56-3,16-4,32-3,49,0,15,1,13,12,15,18,2,36,4,54,1,5,0,9,2,9,7,0,8,0,16,4,24,0,2,0,4,0,7,0,5-3,9-8,9-3,0-6,0-9,1-2,2-39,3-59,5-11,1-22,3-32,7-4,1-7,3-7,7-1,8-3,15-2,23,0,14,3,27,3,41,0,16,0,32-1,48,0,1,0,2,0,3,0,8,0,9,9,8,3,0,5,0,8,0,25,0,5,1,74,2,2,0,4,0,6-1,33-3,66-7,99-1,13-1,26-4,4-5,2-2,4-3,6-5,23-2,46-3,67-11,7-2,8-3,7-9,0-12,0-25-1-37-1-14-3-27-4-4,0-6-2-13-2-19,0-3,0-7,0-11ZM13,1231c2,4,5,3,8,3,18,0,37-2,55-3,5,0,1,0,15,0-25-1-69-5-78,0ZM365,934c-5,23-6,47-7,71,4-5,5-11,5-17,0-18,1-36,2-54ZM442,1111c2-1,1-28-2-36-5,13,0,24,2,36ZM13,118s0,0-1,0c0,2,0,3,0,5,0,0,0,0,1,0,0-2,0-3,0-5ZM366,923c0,0-1,0-2,0,0,2,0,3,0,5,0,0,0,0,1,0,0-2,0-3,0-5ZM344,894s0,0,0,1c2,0,3,0,5,0,0,0,0,0,0,0-2,0-3,0-5-1ZM9,1094c1,0,2,0,2,0,0,0,0-1,0-2,0,0-2,0-2,0,0,0,0,2,0,3Z"/>
          <path class="cls-2" d="M432,1075c0,4,0,7,0,11,0,7,2,13,2,19,2,13,3,27,4,4,0,12,1,25,1,37,0,7,0,7-7,9-22,8-45,9-67,11-2,2-4,3-6,5-13,1-26,4-4,5-33,4-66,8-99,1-2,2-4,1-6,1-25,0-5-1-74-2-3,0-5,0-8,0-8,0-9,0-9-8,0-1,0-2,0-3,0-16,1-32,1-48,0-14-3-27-3-41,0-8,1-15,2-23,0-4,4-6,7-7,1-4,21-6,32-7,2-2,39-3,59-5,3,0,6,0,9-1,5,0,8-4,8-9,0-2,0-5,0-7-3-8-3-16-4-24,0-6-4-8-9-7-18,2-36,0-54-1-11-1-12,0-12-15,0-16,0-32,3-49,3-19,4-38,7-56,3-16,6-33,1-49,0-3,3-4,5-4,6,0,12,0,18,2,19,4,38,8,58,13,14,3,28,6,41,1,12,3,25,8,37,11,33,7,65,18,97,27,9,3,18,6,27,1,4,1,5,3,5,8-1,11-2,21-3,32,0,4,0,8,0,12-1,17-3,33-4,5,0,0,0,1,0,2-2,9-2,9-11,1-14,2-29,5-43,8-3,0-5,1-8,2-7,2-9,7-9,14,0,6,0,12,0,18,0,4,0,8-2,11-1,2,0,5,2,7,7,7,15,5,22,4,17-1,34-3,51-5,7,0,15-2,22-3,16-1,32-2,49-2,2,0,4,0,7,1ZM4,114c-4,3-4,6-1,8,3,2,3,4,3,7,1,8,2,17-2,25,0,2,0,5,2,5,3,0,4-2,4-4,0-1,0-19,0-29,0-5,0-5,4-8,4-2,7-3,11-5,15-7,24-2,25-36,0-8-3-18-15-19-9,0-17,2-25,6-3,1-4,4-5,7,0,13,0,26-1,38,0,2,0,4,0,5ZM81,964c3-4,3-7,3-1,0-8,0-16,0-25,0-6,1-7,8-8,1-1,19-2,29-3,2,0,4,0,6,0,0,0,2-2,1-2,0,0-1-2-2-3-1,0-3,0-4,0-1,0-2,2-3,3-5,0-7-2-6-7,1-8,3-16,5-24,0-5,4-8,8-9,1-2,19-5,29-6,12-1,24-1,36-2,2,0,4,0,4-4-3,0-5-1-8,0-17,1-34,3-51,5-5,0-9,2-14,3-5,1-8,4-8,1-1,9-3,18-4,27,0,5-2,11-2,16-1,12-2,25-3,37,0,1,1,2,2,4ZM242,1153c3-3,6-5,8-7,4-5,3-11-3-15-4-3-9-4-14-3-7,1-12,4-11,14,0,5,0,9,2,14,3,1,4,2,4,31,2,0,4,2,6,2,9,0,18-2,25-9,6-5,6-13,0-18-2-2-5-3-8-5-2-1-4-2-8-3ZM232,941c0,0,1,0,2,0,2,6,3,11,6,17,2,4,3,8,6,11,5,6,9,4,11-3,2-6,4-12,6-18,0-1,2-2,4-5,0,9,0,17,2,24,2,7,2,15,7,21,4-2,4-5,2-8-4-9-6-19-5-29,0-6,0-12,0-18,0-2-2-3-2-5-1,1-3,2-4,3-3,6-5,12-8,18-2,5-4,1-8,15-2-3-4-5-5-7-2-5-3-1-5-15-1-3-3-7-5-9-3-3-6-2-6,2-2,11-3,22-5,32,0,2-1,5,0,7,0,1,2,3,3,3,2,0,3-2,2-4-2-9,0-17,2-25,0-3,2-6,2-9ZM185,969c8-1,1-8,6-11,1,1,3,2,5,4,3,3,5,6,8,9,2,1,3,3,5,3,0,0,3,0,3,0,0-1,0-3,0-4-5-5-1-1-15-15-1-1-2-3-3-5,3-2,6-3,9-5,3-2,7-4,9-7,2-2,3-5,2-7,0-8-8-14-16-13-5,0-9,2-14,4,3,16-1,31,2,47ZM295,982c-1,8,2,13,8,13,5,0,1,0,14-4,3-3,6-6,5-11,0-5-2-11-6-14-3-3-7-6-1-8-4-3-7-5-9-1-2-5,0-9,3-11,7-4,15-4,18,0,0,0,0,0,0,1,0,0,1,2,2,3,4-7,3-11-4-12-7-1-13,0-18,4-8,5-1,13-5,21,3,5,6,8,11,11,5,3,1,7,11,14,1,6,0,7-3,1-5,3-11,3-14,0-2-1-2-3-4-6ZM86,1181c1,6,19,5,24-3,2-4,4-9,4-14,0-9-2-18-5-27-2-6-8-9-14-8-6,1-11,4-14,1-5,9-5,19-4,3,0,6,4,1,8,12ZM391,1101c-4,2-5,4-3,8,2,4,3,8,5,12,2,3,3,6,6,8,4,2,4,6,5,9,0,12,0,25,1,37,0,2,2,4,3,5,0,0,2,0,3,0,0-2,0-4,0-5,0-3-1-6-1-9,0-1,0-19,0-29,0-1,0-3,0-4,4-3,5-8,6-12,2-7,2-15,3-22,0-1-2-2-3-3,0,1-2,2-3,3,0,1,0,3,0,4,0,8,0,16-6,23-4,0-6-2-8-5-2-4-3-8-5-11-1-3-2-5-4-8ZM193,1145c2-6,0-7-3-9-6-3-12-2-18,0-9,4-1,8-4,16,2,3,6,6,9,8,4,3,8,5,11,8,5,6,4,1-3,13-7,3-15,6-21-3-2,7-1,8,3,1,8,3,15,2,21-3,8-5,1-11,4-2,0-1-1-2-2-3-4-3-9-6-13-1-2-2-5-4-7-6-2-2-1-4,1-5,6-3,12-4,18,0,1,0,2,2,3,3ZM141,928c-4,7-6,16-4,26,0,3,3,6,6,8,8,4,15,2,22-2,6-4,8-11,6-18-1-5-2-1,0-16,2-7-2-12-9-12-8,0-16,5-21,14ZM129,1178c-2,9,2,15,11,14,13-2,21-15,14-27-2-3-5-6-8-9-3-3-6-5-9-7-3-2-3-5-3-8,0-3,3-4,6-4,4,0,7,0,11,0,1,0,2,0,3,0,0-5-3-7-7-7-4,0-8,1-12,2-5,2-6,4-6,1,0,5,2,9,6,13,3,3,7,5,11,8,2,2,4,4,5,6,2,6-2,14-1,17-6,2-9,0-13-7ZM377,1114c-1-4-3-5-5-5-8,0-15,1-23,2-5,0-9,2-13,3-4,1-4,2-3,7,5-1,9-2,14-4,0,3,1,4,2,6,0,3,0,7,1,1,2,9,4,17,6,25,0,1,2,2,4,3,0-1,2-3,2-4,0,0,0-2-1-3-6-12-6-25-7-39,8,0,15-1,23-2ZM205,1055c4-8,3-16,0-24-1-3-2-7-6-7-4,0-9,0-11,5-2,4-4,9-5,14-2,6,1,11,5,15,6,6,14,5,18-2ZM246,1026c0,0,0-1,0-2-5-4-11-4-17-4-9,0-11,2-11,11,0,8,0,17,2,25,0,3,2,5,5,4,0,0,0-2,0-2,0-2,0-4-1-6-2-6,0-8,6-1,3,0,5,0,8-2,1,0,2-2,4-3-6-5-11-1-17-2-2-7,0-9,6-1,3,0,5,0,8,0,2,0,5,0,7,0ZM29,1124c-4,1-4,4-4,7,0,6,1,13,2,19,0,7,1,13,2,2,0,3,0,5,4,5,7,0,15,0,21-4,0,0,0-2,2-4-5,0-9,0-13,1-7,0-9-1-1-8,0-7-1-14-1-21,0-5,0-1-2-15ZM326,1171c7-2,7-2,4-7-1-3-3-5-4-8-3-1-4-19-4-29,0-2,0-3,0-5,0,0-2-2-3-2,0,0-2,1-2,2,0,1,0,3,0,4,0,4,0,7,1,11,1,11,4,22,8,33ZM266,1128c0,2,0,4,0,6,0,14,2,27,3,41,0,0,0,2,0,2,0,0,2,2,3,2,0,0,2-2,2-3,0,0,0-2,0-3,0-6-1-13-2-19,0-7,0-14-2-2,0-3,0-5-5-6ZM215,1188c0-8-1-16-3-23-1-8,0-16-3-23-3,1-3,3-3,6,0,6,0,12,0,17,0,7,2,13,2,2,0,3,2,4,5,3Z"/>
          <path class="cls-2" d="M13,1231c1-6,53-2,78,0-5,0-1,0-15,0-18,0-37,2-55,3-3,0-6,0-8-3Z"/>
          <path class="cls-2" d="M365,934c0,18-1,36-2,54,0,6-1,12-5,17,0-24,1-48,7-71Z"/>
          <path class="cls-2" d="M442,1111c-2-11-7-23-2-36,4,7,5,26,2,36Z"/>
          <path class="cls-2" d="M13,118c0,2,0,3,0,5,0,0,0,0-1,0,0-2,0-3,0-5,0,0,0,0,1,0Z"/>
          <path class="cls-2" d="M9,1094c0-1,0-2,0-3,0,0,1,0,2,0,0,0,0,1,0,2,0,0,0,0-2,0Z"/>
          <path class="cls-1" d="M4,114c0-1,0-3,0-5,0-13,0-26,1-38,0-3,2-6,5-7,8-4,16-6,25-6,11,0,16,1,15,19-1,17-1,29-25,36-4,2-7,3-11,5-5,2-5,2-4,8,0,1,0,19,0,29,0,3,0,5-4,4-3,0-3-3-2-5,3-8,3-17,2-25,0-3,0-5-3-7-3-2-2-5,1-8ZM46,1137c1,0,2,0,2,0,15-5,27-13,32-29,4-12-3-21-14-19-5,0-1,2-15,4-1,0-3,3-3,5-1,9-2,18-3,27,0,3,0,7,0,1Z"/>
          <path class="cls-1" d="M81,964c-1-2-2-3-2-4,0-12,2-25,3-37,0-6,2-11,2-16,1-9,3-18,4-27,0-5,3-8,8-1,5-1,9-3,14-3,17-2,34-3,51-5,3,0,5,0,8,0,0,3-2,4-4,4-12,0-24,0-36,2-1,1-2,4-29,6-5,0-8,3-8,9-1,8-3,16-5,24,0,5,0,7,6,7,1,0,2-2,3-3,1,0,3,0,4,0,0,0,2,2,2,3,0,0,0,2-1,2-2,0-4,0-6,0-1,1-19,2-29,3-7,0-7,2-8,8,0,8,0,16,0,25,0,3,0,7-3,1Z"/>
          <path class="cls-1" d="M242,1153c3,1,6,2,8,3,3,1,6,3,8,5,6,5,6,13,0,18-7,6-16,8-25,9-2,0-4-1-6-2,0-11,0-21-4-31-1-4-2-9-2-14-1-1,4-13,11-14,5,0,1,0,14,3,6,4,7,9,3,15-2,2-4,4-8,7ZM256,1173c2-2,1-5-1-7-2-2-4-3-6-4-3-1-7-2-1-4-2,0-4-3-5-5-1-3,2-4,4-5,3-2,5-3,8-5,3-3,3-7-1-8-3-1-7-1-11,0-5,0-6,2-5,7,0,7,2,14,4,21,0,5,1,1,3,15,0,2,2,4,3,4,5,1,16-4,19-9Z"/>
          <path class="cls-1" d="M232,941c0,3-2,6-2,9-2,8-4,16-2,25,0,2,0,4-2,4-1,0-3-2-3-3,0-2,0-5,0-7,2-11,3-22,5-32,0-4,3-6,6-2,2,3,4,6,5,9,2,5,3,1,5,15,0,2,3,4,5,7,4-5,6-1,8-15,3-6,5-12,8-18,0-1,3-2,4-3,0,2,2,3,2,5,0,6,0,12,0,18,0,1,2,2,5,29,1,3,1,5-2,8-5-6-5-14-7-21-2-7-1-15-2-24-2,2-3,3-4,5-2,6-4,12-6,18-2,7-6,9-11,3-3-3-4-7-6-11-2-6-4-11-6-17,0,0-1,0-2,0Z"/>
          <path class="cls-1" d="M185,969c-3-16,1-31-2-47,5-1,1-3,14-4,8-1,15,5,16,13,0,2,0,5-2,7-3,3-6,5-9,7-3,2-5,3-9,5,1,2,2,4,3,5,5,5,1,1,15,15,0,0,1,2,0,4,0,0-2,1-3,0-2,0-4-2-5-3-3-3-5-6-8-9-2-2-3-3-5-4-4,3,3,9-6,11ZM189,946c6-3,11-6,15-8,1,0,2-2,3-4,2-3,2-5-1-7-4-3-13-3-16,0-1,0-2,3-2,4,0,5,0,9,0,16Z"/>
          <path class="cls-1" d="M295,982c2,3,3,5,4,6,3,3,9,2,14,0,3-2,4-4,3-1-1-7-6-1-11-14-4-3-8-6-11-11-4-8-2-16,5-21,6-3,12-5,18-4,7,1,8,5,4,12,0,0-1-2-2-3,0,0,0,0,0-1-3-3-11-3-18,0-4,2-5,5-3,11,2,4,5,7,9,1,4,2,7,5,1,8,4,4,6,9,6,14,0,5-2,8-5,11-4,3-9,4-14,4-6,0-1-5-8-13Z"/>
          <path class="cls-1" d="M86,1181c-4-3-8-7-8-12-2-1-1-2,4-3,3-6,8-9,14-1,6,0,12,2,14,8,2,9,4,18,5,27,0,4-2,1-4,14-5,8-14,9-24,3ZM109,1171c0-2,2-3,2-5,0-1-2-19-7-28-1-3-4-4-8-3-5,1-9,3-11,7-5,9-6,18-2,27,3,7,9,8,16,9,6,0,8-3,11-7Z"/>
          <path class="cls-1" d="M391,1101c1,3,3,5,4,8,2,4,3,8,5,11,1,3,4,5,8,5,6-6,7-14,6-23,0-1,0-3,0-4,0-1,2-2,3-3,1,1,3,2,3,3,0,7-1,15-3,22,0,4-2,9-6,12,0,0,0,3,0,4,0,1,0,19,0,29,0,3,1,6,1,9,0,2,0,4,0,5,0,0-2,0-3,0-1-2-3-3-3-5,0-12,0-25-1-37,0-4,0-7-5-9-3-2-4-5-6-8-2-4-3-8-5-12-2-3,0-5,3-8Z"/>
          <path class="cls-1" d="M193,1145c-1,0-2-2-3-3-6-4-12-3-18,0-2,1-3,3-1,5,2,2,4,4,7,6,4,3,9,6,13,1,0,0,2,2,2,3,5,8,4,14-4,2-7,4-14,6-21,3-5-2-5-3-3-1,6,9,14,5,21,3,7-3,8-7,3-13-3-3-7-6-11-8-3-3-7-5-9-8-6-7-4-12,4-16,6-2,12-4,18,0,4,2,5,4,3,9Z"/>
          <path class="cls-1" d="M141,928c5-9,13-15,21-14,7,0,11,5,9,12-2,6,0,11,0,16,2,7,0,14-6,18-7,4-14,6-22,2-3-2-5-4-6-8-2-1,0-18,4-26ZM163,92c-7-1-13,1-17,7-4,6-6,14-5,21,0,6,6,1,12,9,3,0,6-1,9-2,5-1,6-3,6-8,0-6-2-12-3-18,0-3-1-6-2-1Z"/>
          <path class="cls-1" d="M129,1178c4,7,7,9,13,7,7-2,12-1,1-17,0-2-3-4-5-6-3-3-7-5-11-8-4-3-6-7-6-13,0-5,0-8,6-1,4-1,8-2,12-2,5,0,7,2,7,7-1,0-2,0-3,0-4,0-7,0-11,0-3,0-5,1-6,4,0,3,0,6,3,8,3,2,6,4,9,7,3,3,6,5,8,9,7,12-1,25-14,27-8,1-13-4-11-14Z"/>
          <path class="cls-1" d="M377,1114c-8,0-15,1-23,2,1,14,0,27,7,39,0,1,2,2,1,3,0,1-1,3-2,4-1,0-3-1-4-3-2-8-4-17-6-25,0-3,0-7-1-1,0-2-1-4-2-6-5,1-1,2-14,4-1-5-1-6,3-7,4-1,9-2,13-3,7,0,15-1,23-2,3,0,4,0,5,5Z"/>
          <path class="cls-1" d="M205,1055c-4,8-12,9-18,2-4-4-7-9-5-15,1-5,3-1,5-14,2-4,6-5,11-5,4,0,5,4,6,7,3,8,5,17,0,24ZM196,103c-7,3-12,9-11,16,0,5,5,8,12,9,7-8,7-11-2-25Z"/>
          <path class="cls-1" d="M246,1026c-2,0-5,0-7,0-3,0-5,0-8,0-7,0-8,3-6,1,5,0,11-3,17,2-1,1-3,2-4,3-3,0-5,0-8,2-6,2-7,4-6,1,0,2,1,4,1,6,0,0,0,1,0,2-4,0-5-1-5-4,0-8-1-17-2-25,0-9,2-12,11-11,6,0,12,0,17,4,0,0,0,1,0,2Z"/>
          <path class="cls-1" d="M29,1124c3,5,2,1,2,15,0,7,0,14,1,21,0,7,3,9,1,8,4,0,8,0,13-1-1,2-1,3-2,4-6,4-14,5-21,4-3,0-4-3-4-5,0-7-1-13-2-2,0-6,0-13-2-19,0-3,0-6,4-7Z"/>
          <path class="cls-1" d="M326,1171c-4-11-7-22-8-33,0-4,0-7-1-11,0-1,0-3,0-4,0,0,1-2,2-2,0,0,2,0,3,2,0,2,0,3,0,5,0,1,1,2,4,29,0,3,2,5,4,8,3,5,3,5-4,7Z"/>
          <path class="cls-1" d="M266,1128c4,0,4,3,5,6,0,7,0,14,2,2,0,6,1,13,2,19,0,0,0,2,0,3,0,1-1,3-2,3,0,0-2-1-3-2,0,0,0-1,0-2-1-14-2-27-3-41,0-2,0-4,0-6Z"/>
          <path class="cls-1" d="M215,1188c-4,1-5,0-5-3,0-7-2-13-2-2,0-6,0-12,0-17,0-2,0-4,3-6,4,7,2,16,3,23,1,8,2,15,3,23Z"/>
          <path class="cls-2" d="M46,1137c0-3-1-7,0-1,0-9,2-18,3-27,0-2,2-5,3-5,5-2,1-3,15-4,11-2,18,7,14,19-5,16-17,24-32,29,0,0,0,0-2,0Z"/>
          <path class="cls-2" d="M256,1173c-3,5-14,1-19,9-1,0-3-2-3-4-1-5-2-1-3-15-1-7-3-14-4-21,0-5,0-7,5-7,4,0,7,0,11,0,4,1,5,5,1,8-2,2-5,4-8,5-2,1-5,2-4,5,0,2,3,4,5,5,3,2,7,2,1,4,2,0,4,2,6,4,2,2,3,5,1,7Z"/>
          <path class="cls-2" d="M189,946c0-6,0-11,0-16,0-1,1-3,2-4,3-3,12-2,16,0,3,2,3,4,1,7,0,1-2,3-3,4-4,3-9,5-15,8Z"/>
          <path class="cls-2" d="M109,1171c-3,4-5,8-11,7-6,0-13-2-16-9-4-9-2-19,2-27,2-4,7-6,11-7,3,0,6,0,8,3,5,9,6,18,7,28,0,2-1,3-2,5Z"/>
          <path class="cls-2" d="M163,92c0,4,2,7,2,1,0,6,2,12,3,18,0,4-2,6-6,8-3,0-6,2-9,2-6,0-11-3-12-9-1-8,1-15,5-21,4-6,1-8,17-7Z"/>
          <path class="cls-2" d="M196,103c8,13,8,17,2,25-8,0-12-3-12-9,0-7,3-14,11-16Z"/>
        </g>
        <g>
          <path class="cls-1" d="M216,1737c-9,0-19-1-29,0,0,2,0,3,0,5,0,2,0,5,0,7-1,7-5,1-12,1-7,0-13,1-2,2-7,0-15,2-22,0-4-1-11-7-12-11,0-4-2-8-2-12,0-1,2-19,3-29,1-7,8-13,17-13,12,0,25,2,37,2,5,0,7,2,9,7,0,3,1,7,1,11,0,3,1,4,4,4,9,0,17,0,26,0,0,0,0,0,2,0,0-3,0-6,0-9,0-4,0-9,1-13,0-2,1-3,3-4,6-2,12-5,19-4,4,0,7,0,11,0,1,0,19,0,29,0,25,0,5-2,75-2,19,0,38,0,58,0,8,0,17,1,25,2,3,0,5,2,6,5,0,4,1,7,1,11,0,14-1,28-1,42,0,8,0,17,0,25,0,3,0,5,0,8,0,1-1,3-3,4-3,1-7,2-1,2-1,0-3,0-4,0-16,2-31,0-47,2-15,0-31,2-46,3-11,0-22,2-33,3-9,0-17,3-26,4-13,1-26,1-38,2-4,0-7-2-9-6-4-9-6-19-7-28-1-1-3-19-4-3ZM439,1698s0,0,0-1c-2,0-5,0-7,0-5,0-1-1-16-1-11,0-21,0-32,0-12,0-25,0-37,0-19,0-38,0-57,1-14,0-29,1-43,2-5,0-9,1-14,2-4,0-5,2-6,6,0,4,0,8-1,12,0,3,0,6,0,9-2,14-2,29,1,43,0,3,2,6,3,8,3,5,8,7,14,7,1,0,2,0,3,0,18,0,35,0,53,0,17,0,33-1,5-2,14,0,28-3,42-1,6,0,12,0,18-3,3-2,3-2,3-6,0-2,0-3,0-5,0-7,0-13,0-2,0-13-1-25-2-38,0-3,0-7-1-1,0,0,1,0,2-2ZM158,175s0,0,0,0c0,0,2,0,3,0,5,0,11,0,16,0,5,0,5,0,5-5,0-1,0-3,0-4,2-6,1-12,0-18,0-4,0-8,0-12,0-4,0-6-5-7-13-4-27-4-41-3-4,0-7,3-9,7-3,9-3,19,0,28,2,8,7,12,15,12,5,0,1,0,16,0ZM229,1789c0,0,0,1,0,1,0,0,0,0,0,1,2,5,7,6,11,6,13,0,25-1,38-2,1,0,21-3,31-4,6,0,13-1,19-2-4,0-7,0-11,0-7,0-14,0-21,0-1,0-2,0-3,0-9,0-18,2-27,0-3,0-6,0-9,0ZM188,1726c-1,5,0,6,3,6,7,0,15,0,23,0,0,0,1,0,1,0,0,0,2-1,2-2,0-1,0-2-2-3,0,0-2,0-2,0-8-2-17,0-25,0ZM391,1785c8,0,17,0,25,0-8,0-17-1-25,0ZM385,1785h-23c8,3,15,0,23,0ZM142,1757s0,0,0,1c3,0,7,0,1,0,0,0-2-1-2-1-3,0-5,0-8,0Z"/>
          <path class="cls-1" d="M219,1613c0-2,0-5,0-7,0-11,8-17,19-17,7,0,14,0,21,0,17,0,34,0,52,0,1,0,21,0,31,0,8,0,15,0,23,0,15,0,3,2,45,3,9,0,18,1,26,2,2,0,3,1,3,3,0,3,2,5,3,8,1,3,2,6,2,9,0,16,1,32,2,48,0,2,0,4,0,6-5,1-9,2-14,3-8,0-16,1-24,2-14,0-27,0-41,0-15,0-3,1-46,2-9,0-19,0-29,0-13,0-26,2-39,3,0,0-2,0-2,0-1,1-16-3-2-12-4-9-8-19-11-29,0-3-1-5-2-8h-24c0,3,0,5,0,7,0,9-2,12-12,14-1,2-19,3-29,2-5,0-9-1-14-2-4,0-6-3-6-7,0-6-2-11-2-17,0-6,0-13,0-19,0-3,0-6,1-9,1-4,5-6,9-6,6-1,11-2,17-2,8,0,16,1,24,2,2,0,4,0,6,1,5,0,6,4,7,9,0,3,0,6,0,9,0,2,1,4,4,4,2,0,5,0,7,0,4,0,8,0,13,0ZM437,1612c0-2,0-4,0-6,0-3-1-4-4-6-3-2-7-2-1-2-25,0-5,0-75-2-13,0-26-1-39-2-15,0-3-1-45-1-9,0-17,0-26,3-2,0-3,0-5,1-5,0-5,1-5,6,0,7,0,14,0,2,0,3,0,6,0,8,0,4,2,9,2,13,0,6,2,12,4,18,0,3,3,4,5,4,7,0,14,0,21,0,33,0,67,1,1,0,18,0,37,0,55-1,4,0,9,0,13-1,6,0,7-1,7-8,0-6,0-12,0-18,0-9,0-18-5-26,0,0,0-1,0-2,1,0,3,0,4,1ZM158,1591s0,0,0,0c-3,0-5,0-8,0-5,0-9,3-11,8-1,4-3,8-3,12,0,8,0,16,4,24,1,4,4,6,8,7,6,0,12,0,18,0,5,0,1,0,16-2,2,0,3,0,5,0,2,0,3-2,4-4,1-4,0-7,0-11,0-7,0-13,0-2,0-5-2-8-8-1-2,0-5,0-7-1-1,0-3,0-4,0-4,0-8-2-12-2ZM194,1623h24c0-3,1-5-2-5-7,0-14-1-22,0,0,2,0,4,0,6ZM44,1664c3,0,2-2,2-3,0-6,0-13,0-19,0-2,0-5,0-7,0,0,0,0,0,0,0,1,0,19-1,29ZM151,1647c8,1,25,0,3-3-1,0-2,2-3,3ZM25,1673q-4-2-7,0h7ZM441,1609s0,0,0,0c0,0,0,2,0,3,0,0,0,0,0,0,0,0,0-2,0-3Z"/>
          <path class="cls-1" d="M202,1316c0,1,0,2,0,3,0,2,0,4,0,6,0,1,0,11-1,15-7,2-14,3-21,3-6,0-11,0-17,0-4,0-9,0-13-1-4-2-6-4-7-8-2-8-4-17-5-25,0-7,0-14,0-21,2-9,6-11,15-11,6,0,11,0,17,0,8,0,16,1,24,2,3,0,6,1,8,3,1,1,2,4,3,6,0,3,1,7,2,11,0,1,0,2,1,4,11,0,21,1,32,0,0-2,0-4,0-5,0-5,0-9,0-14,0-6,1-11,4-17,2-4,4-5,8-5,4,0,7,0,11,0,17,0,34,0,52,1,7,0,15,0,22,1,27,0,53,2,8,3,2,0,5,0,7,1,2,0,4,0,6,0,0,15-2,3-3,45,0,6-1,11-1,17,0,6,0,11,0,17,0,5,0,9,0,14,0,2-1,4-4,5-1,0-2,1-3,2-2,2-5,2-8,2-15,0-31,0-46,0-17,0-35,3-52,3-8,0-16,0-24,0-12,0-23-1-34-3-7,0-11-4-12-11,0-3,0-6,0-9,0-1,1-2,0-3,0-5-2-5-7-5-4,0-7,0-11,0-4,0-8,0-12,0ZM34,1363h0c1,0,2,0,3,0,13,0,25,0,38,0,8,0,16,0,25,0,3,0,5-2,6-5,1-5,2-1,2-14,0-14,0-27,0-41,0-5,0-9,0-14,0-3,0-7,0-1,0-5,0-6-5-6-6,0-11,0-17,0-13,0-26-1-39-2-1,0-2-2-29-2-19,0-38-2-57,0-8,0-16,0-25,0-3,0-4,0-5,4,0,3,0,7,0,1,0,1,0,21,0,31,0,15,0,29,3,43,0,3,2,5,5,5,2,0,4,0,6,0,14,0,27,0,41,0,16,0,31,0,47,0ZM197,1315c0-6-1-12-2-17,0-5-3-8-8-1-7-2-14-5-22-5-9,0-17,1-26,4-3,0-4,2-4,5-1,8,0,16,2,24,2,6,5,12,7,18,1,3,3,4,7,4,13,0,26-2,39-2,4,0,6-1,6-5,0-5,0-1,1-14ZM364,1368s0,0,0-1c-3,0-6,0-9,0-7,0-14,0-21,0-9,0-17,0-26,0-11,0-22,2-34,2-2,0-4,0-6,0-2,0-4,0-6,0,0,0,0,0,0,1,34,3,68,1,102-2ZM201,1306c0,4,0,4,3,5,4,0,8,1,12,1,4,0,8,0,13,0,2,0,3,0,3-3,0-2-2-2-4-2-4,0-8,0-12,0-5,0-11-1-16,0ZM183,1282s0,0,0,1c2,0,5,1,7,2h0c-2-2-5-3-7-3ZM201,1327s0,0-1,0c0,2-1,4,0,7,0-3,0-5,0-6Z"/>
          <path class="cls-1" d="M23,1424c-9-1-18,0-27-1,0,3-1,6-2,1,0,5-2,7-7,8-1,2-21,4-31,4-5,0-1,0-14,0-7,0-12-5-13-12,0-5-2-11-3-16,0-6,0-11-1-17,0-2,0-3,0-5,0-3,2-6,2-9,0-2,1-3,3-4,8-3,15-4,23-3,7,0,14,0,21,1,3,0,6,0,9,0,5,0,8,3,9,8,0,5,1,9,2,14,0,6,1,7,7,7,7,0,13,0,2-1,0-5,1-9,2-13,0-2,0-3,0-5,0-4,2-6,6-6,9-1,17-2,26-3,5,0,9,0,14,0,22,2,45,0,67,0,2,0,4,0,6,1,8,0,17,2,25,3,4,0,7,0,11,0,3,0,4,0,4,4,0,8,0,15-1,23,0,6-1,12-2,19,0,6,0,12,0,18,0,0,0,2,0,2,0,6-2,8-7,1-7,2-15,3-23,2-7-1-14-1-21-1-11,0-22,0-33,0-12,0-23,1-35,2-12,0-24,2-36,3-9,0-19,1-28,2-6,0-12,0-19,0-7,0-1-3-11-9-1-8,0-15,0-23,0-4,0-9,0-14ZM3,1387s0,0,0,0c-2,0-3,0-5,0-16,0-32,0-48,0-11,0-11,0-11,11,0,1,0,2,0,29,0,7,1,14,2,22,0,4,2,7,6,8,2,0,4,1,7,1,4,0,8,0,11,0,11,0,22,0,33,0,19,0,37-2,56-2,16,0,32,0,49,0,0,0,2,0,2,0,9,0,18,0,27,0,6,0,1-4,11-11,0-5,0-11,0-16,0-6,0-13,0-19,0-1,0-3,0-4,4-4,2-8,2-12,0-3-3-4-5-5-1,0-3,0-4,0-13,0-25,0-38,0-9,0-19-1-28-1-12,0-25,0-37,0-1,0-2,0-29,0ZM201,1411c0-6-2-12-3-18,0-5-5-8-9-8-12,0-24-3-36-2-5,0-8,1-11,5-2,3-4,6-4,1,0,3,0,7,0,1,0,9,0,17,4,26,3,6,4,7,11,7,8,0,15-1,23-2,6,0,12-2,18-3,4,0,6-4,6-8,0-6,0-11,1-16ZM216,1414s0,0,0,0c-2,0-5,0-7,0-2,0-5-1-5,2,0,3,3,3,5,3,0,0,0,0,1,0,5,0,9,0,14,0,2,0,3,0,5,0,0,0,1-1,1-2,0,0,0-1,0-2-1,0-2,0-3,0-3,0-6,0-9,0ZM237,1463c4,3,12,4,18,2-6,0-12-1-18-2ZM263,1385c6,0,11,0,17,0-6-1-11-2-17,0Z"/>
          <path class="cls-1" d="M201,1518c0,1,0,2,0,3,1,5-1,8-4,11,0,0-3,2-4,2-14,1-28,2-43,3-4,0-7,0-11,0-2,0-3-2-4-4,0-2-1-4-1-7,0-9-1-18-1-27,0-6,1-13,2-2,3,0,7,0,1-1,9,0,18,0,28,0,5,0,1,1,15,2,8,2,11,5,12,15,0,8,0,8,9,8,3,0,7,0,1,0,4,0,4,0,5-5,0-5,2-1,5-13,3-3,6-5,1-6,0,0,2,0,3,0,9,2,19,2,28,2,12,0,25,0,37,0,7,0,13,0,2,0,9,0,17,0,26,0,13,0,26,0,39,1,15,0,29,2,44,2,3,0,6,0,9,0,2,0,3,0,3,2-1,4,0,7,0,11,0,7,0,14,0,22,0,0,0,0,0,0,3,1,0,21,1,32,0,3,0,5-1,8,0,0-1,2-2,2-3,2-7,3-11,3-8,0-17,0-25,0-18,0-36,0-55,0-19,0-39,0-58,0-13,0-26,1-39,1-7,0-14,0-21,0-2,0-4,0-6-1-2-1-3-3-3-6,0-5,0-11-1-16-1-7-3-14-5-21,0-1-2-2-3-3-6-1-12-1-19,0ZM266,1483c-1,0-19,2-29,2-4,0-5,1-5,6,0,0,0,1,0,2,0,8,0,15,0,23,0,12,4,24,7,36,0,4,4,6,7,6,1,0,3,0,4,0,7,0,13,0,2,0,25,0,49,0,74,0,24,0,48,0,72,0,6,0,11,0,17-3,1,0,3,0,4,0,2,0,3,0,4-1,1-2,2-3,2-5,0-9,1-18,1-27,0-8,0-16,0-24,0-5-2-7-6-8-2,0-5,0-7,0-32,0-64,0-95-1-1,0-2,0-3,0-13,0-26-2-39-3ZM197,151s0,0,0,0c0-4,0-8,0-12,0-9-4-13-11-13-12,0-23-1-35-2-3,0-6,1-8,4-3,4-4,8-4,13-1,7-1,15,0,22,0,2,2,4,3,5,6,5,14,7,22,6,6,0,11-2,17-2,4,0,7,0,11-1,4,0,5-1,5-5,0-4,0-9,0-13ZM223,1512c0-4-2-6-6-6-4,0-9,0-13,0,0,0-2,0-3,0,0,2,0,5,3,5,6,0,12,0,18,0ZM443,1559c4-2,5-3,5-6,0-7,0-13,0-2,0,0,0,0,0,0,0,9,0,18-4,27ZM235,1551c0-4,0-8-3-13,0,4,0,1,3,13ZM231,1536s0,0,1,0c0-2,0-4-1-7,0,0,0,0,0,0,0,2,0,4,0,7Z"/>
          <path class="cls-2" d="M439,1698c0,0-2,1-2,2,0,4,0,7,1,1,0,13,1,25,2,38,0,7,0,13,0,2,0,2,0,3,0,5,0,4,0,4-3,6-6,3-12,4-18,3-14-1-28,0-42,1-17,0-33,1-5,2-18,0-35,0-53,0-1,0-2,0-3,0-6,0-11-2-14-7-1-2-2-5-3-8-3-14-3-29-1-43,0-3,0-6,0-9,0-4,0-8,1-12,0-4,1-5,6-6,5,0,9-2,14-2,14,0,29-2,43-2,19,0,38,0,57-1,12,0,25,0,37,0,11,0,21,0,32,0,5,0,1,0,16,1,2,0,5,0,7,0,0,0,0,0,0,1ZM397,1756c0,0,1,0,2,0,1,1,3,3,4,4,1,3,3,5,4,8,3,6,7,8,13,6,1,0,3,0,4-1,5-1,6-4,2-8-6-5-8-13-12-19-1-3-1-5,1-6,1,0,2-2,3-3,2-1,3-3,5-4,3-3,5-7,7-11,0-1,1-3,0-4-2-2-4-5-6-6-3-1-5,1-7,3,0,0,0,0,0,1-3,4-6,8-9,12-2,2-4,4-7,5-2-5-2-7,0-11,2-5,0-8-5-7-1,0-3,0-3,2,0,2,0,3,3,3,0,0,2,0,3,0,0,4,0,8-1,12,0,4,0,6,3,7,2,0,3-2,5-3,6-4,1-1,14-16,0-1,2-2,3-4,2-2,4-2,5,0,2,1,2,3,0,5,0,2-2,4-3,6-2,4-6,7-1,9-5,3-6,6-3,1,5,7,7,15,13,21,0,0,0,0,0,0-8,3-11,2-15-6-2-3-4-7-6-1,0-1-5-3-6-2-2,0-2,3-2,5,0,0,0,0,0,0,0,5,0,9,0,14,0,4-1,4-6,3,0-5,0-9-1-14,0-5,0-1,0-15,0-5,0-9,0-14,0-5,1-9,1-14-3,0-3,3-3,4,0,12-2,24-2,36,0,6,0,13,0,19,0,3,2,4,5,3,3,0,5-2,8-3,0-7-3-14,0-21ZM348,1749c0,0,1,1,2,2,2,5,5,1,7,15,2,5,7,7,11,9,4,2,6-1,9-3,2-1,3-4,3-6-2-12-3-24-1-36,0-2,0-5,0-7,0-5-1-6-7-6-2,0-4,1-4,3,0,3-2,6-2,9,0,6,0,12,1,18,0,2,0,4-1,5-4-5-7-1-11-14,0,0,0,0,0-1-2-5-5-1-6-15-1-4-3-6-7-6-3,0-6,2-6,5,0,11-2,23-1,34,0,4,0,8,0,12,0,9,2,11,1,9,1,0,2,0,3-1-3-15-2-22,2-26ZM236,1713c0,1,0,2,0,3-2,7-3,15-3,22,0,9,0,17,1,26,0,2,0,4,0,5,0,2,2,4,4,4,3,0,6,0,9-2,0-3-1-5-2-8-1-4-1-8,0-12,1-6,3-7,9-8,5,0,6,0,5,5,0,4,0,9,0,13,0,8,3,12,11,12,3,0,5,0,5-4,0-3,0-5,0-8,0-12-1-24,0-35,0-3,0-6,1-9,0-2,0-4,0-6-4,0-8,0-12,2-1,0-2,2-3,4,0,2,0,5,0,7,0,6,0,7-7,7-1,0-3,0-4,0-3,0-4-1-4-4,0-3,0-6,1-9,0-4-1-6-5-6-3,0-5,0-9,1ZM279,175c0,6,4,13,1,18,6,5,13,4,2,6,1,0,2,0,3,0,1,0,3,0,4,0,6,0,1-5,12-1,2-5,2-11,0-16-4-9-8-17-15-25-1-1-2-2-4-3-11-7-23,1-27,9-3,6-4,13-5,22Z"/>
          <path class="cls-2" d="M158,175c-5,0-1,0-16,0-8,0-13-4-15-12-2-1-3-19,0-28,1-4,4-7,9-7,14-1,27-1,41,3,4,1,5,3,5,7,0,4,0,8,0,12,0,6,0,12,0,18,0,1,0,3,0,4,0,4,0,5-5,5-5,0-11,0-16,0,0,0-2,0-3,0,0,0,0,0,0,0ZM172,1711c0,0-2,0-2,1-3,5-7,7-13,7-3,0-5,0-8,1-8,2-13,7-15,15,0,2,0,4,2,5,0,0,0-1,0-2,2-1,8-14,19-14,5,0,9,0,13-4,3-3,4-5,3-9Z"/>
          <path class="cls-2" d="M229,1789c3,0,6,0,9,0,9,2,18,0,27,0,1,0,2,0,3,0,7,0,14,0,21,0,4,0,7,0,11,0-6,0-13,0-19,2-1,1-21,3-31,4-13,1-25,2-38,2-5,0-9,0-11-6,0,0,0,0,0-1,0,0,0,0,0-1Z"/>
          <path class="cls-2" d="M188,1726c8,0,17-2,25,0,0,0,2,0,2,0,1,0,2,1,2,3,0,0-1,2-2,2,0,0,0,0-1,0-8,0-15,0-23,0-4,0-4,0-3-6Z"/>
          <path class="cls-2" d="M391,1785c8-2,16,0,25,0-8,1-16,1-25,0Z"/>
          <path class="cls-2" d="M385,1785c-8,0-15,3-23,0h23Z"/>
          <path class="cls-2" d="M142,1757c3,0,5,0,8,0,0,0,2,0,2,1-3,0-7,0-1,0,0,0,0,0,0-1Z"/>
          <path class="cls-2" d="M437,1612c-1,0-2,0-4-1,0,1,0,2,0,2,5,8,5,17,5,26,0,6,0,12,0,18,0,6-1,7-7,8-4,0-9,1-13,1-18,0-37,0-55,1-33,2-67,0-1,0-7,0-14,0-21,0-3,0-5-1-5-4-1-6-4-11-4-18,0-4-1-9-2-13,0-3,0-6,0-8,0-7,0-14,0-2,0-5,0-5,5-6,2,0,4,0,5-1,8-3,17-3,26-3,15,0,3,0,45,1,13,0,26,0,39,2,25,2,5,3,75,2,3,0,7,0,1,2,2,1,4,3,4,6,0,2,0,4,0,6ZM255,1632c4-3,7-5,1-8,3-3,3-7-1-9-6-3-11-4-17-2-4,1-5,3-4,8,0,0,0,2,0,3,0,7,0,14,1,21,0,2,0,3,3,4,6,3,12,2,19,0,4-1,7-4,7-7,0-4-4-5-7-6-4-1-7-2-11-4ZM353,1627c2-5,8-6,11-11-6-1-8,5-13,5,0-3,0-5,0-7,0-2,0-2-3-2,0,8,1,15,4,23,0,0,1,0,2,1,0-2,0-3,0-4,3,1,6,3,8,4,3,1,5,3,8,3-4-6-12-7-18-13ZM3,1628c0-3-2-6-2-9-1-7-6-1-12-6,0,0-1,0-2,1-4,3-6,7-4,12,3,8,11,12,18,5,0,0,1-2,2-3ZM331,1628s0,0-1,0c0,6,3,12,0,18-2-1-3-2-4-3-3-3-6-6-9-9,0,0-2-2-4-2-2,0-2,2-2,4,0,2,0,4,0,6,1-2,0-4,3-6,0,0,1,2,2,2,3,3,6,6,1,1,1,1,3,2,5,1,2,0,3-2,3-5,0-4-1-8-2-12,0-2,0-4-1-6Z"/>
          <path class="cls-2" d="M158,1591c4,0,8,2,12,2,1,0,3,0,4,0,2,0,5,0,7,1,5,1,7,4,8,1,0,7,0,13,0,2,0,4,0,7,0,11,0,2-2,4-4,4-2,0-3,0-5,0-5,0-1,1-16,2-6,0-12,0-18,0-4,0-6-3-8-7-3-8-3-16-4-24,0-4,1-8,3-12,2-5,6-7,11-8,3,0,5,0,8,0,0,0,0,0,0,0ZM179,1607c-1,1-3,2-3,2-1,3-4,3-6,4-3,0-6,0-8,0-2,0-4,0-5,0-8,2-12,7-13,15,0,0,0,1,1,2,0,0,1,0,1,0,0,0,0-1,0-2,2-7,6-1,13-1,3,0,6,0,8,0,4,0,7-2,1-5,2-2,2-4,0-7Z"/>
          <path class="cls-2" d="M194,1623c0-2,0-4,0-6,8,0,15,0,22,0,3,0,2,3,2,5h-24Z"/>
          <path class="cls-2" d="M44,1664c0-1,0-2,1-29,0,0,0,0,0,0,0,2,0,5,0,7,0,6,0,13,0,19,0,1,0,3-2,3Z"/>
          <path class="cls-2" d="M151,1647c1,0,2-2,3-3-5,3-22,4-3,3Z"/>
          <path class="cls-2" d="M25,1673h-7q3-2,7,0Z"/>
          <path class="cls-2" d="M441,1609c0,0,0,2,0,3,0,0,0,0,0,0,0,0,0-2,0-3,0,0,0,0,0,0Z"/>
          <path class="cls-2" d="M34,1363c-16,0-31,0-47,0-14,0-27,0-41,0-2,0-4,0-6,0-3,0-5-2-5-5-3-14-4-29-3-43,0-1,0-21,0-31,0-3,0-7,0-1,0-3,1-4,5-4,8,0,16,0,25,0,19-1,38,0,57,0,1,0,2,1,29,2,13,0,26,1,39,2,6,0,11,0,17,0,5,0,5,1,5,6,0,3,0,7,0,1,0,5,0,9,0,14,0,14,0,27,0,41,0,5-1,1-2,14,0,3-3,5-6,5-8,0-16,0-25,0-13,0-25,0-38,0-1,0-2,0-3,0h0ZM344,1317c5-2,7-4,6-9-1-5,0-6,4-9,1,0,3-2,5-1,2,0,2,3,2,5,0,4,0,8,0,12,0,2,0,3,2,4,4-7,7-14,11-21,0,0,0,0,0,0-2,3-4,6-7,1,0-2,0-4,0-5,0-2,0-4,0-6,0-3-2-4-5-2-2,1-4,2-5,3-5,3-6,3-1,0-2-1-3-2-5-2-6,0-11,0-17,1-5,0-8,3-11,6-4,4-3,9-4,14,0,1,0,3,2,5,1,2,3,2,5,2,4-1,7-5,9-8,2-2,3-5,2-8,0-2,0-4-1-6,5-3,12-3,16,0,0,0,0,1,0,2-1,3-3,5-4,8,0,2-2,4-2,6,0,4,2,7,5,7,4,0,8-2,1-6h0ZM283,1278s0,0,0,1c0,0,1,0,2,0,4,0,6,0,6,5,0,2,0,5,0,7-2,8-5,16-14,2-1,0-2,2-3,3,0,0,0,2,0,2,0,0,1,0,2,0,0,0,0,0,1-1,4-4,8-4,12,0,2,2,3,5,5,7,5,1-3,23-11,28-1,0-3,1-5,2-3,0-5-1-6-4,0-1,0-3,0-4,0,0,0,0,0,0,0,1,0,3-1,4,0,4,2,7,6,7,4,0,7-1,9-4,4-4,7-8,9-13,5-1,2-25-9-29,0,0,0,0-1-1,0-2,1-3,2-5,1-3,3-5,4-8,2-4,3-9,2-13,0-4-3-6-7-6-2,0-3,2-5,2ZM264,1339c0-3,1-5,1-8,1-12,5-23,8-35,1-4,2-9,2-13,0,0,0-2-1-2,0,0-2,0-3,1,0,0,0,0,0,1-3,6-7,1-13,12-3,0-6,2-1,3,0,2,1,3,3,2,3,0,5-2,8-3,3,0,5-4,9-4,0,4,0,8-2,11-2,9-4,19-6,28,0,2-1,4,3,5ZM384,1289c2,2,4,4,4,7-1,6-2,12-4,17-3,7-6,13-8,2-2,5-3,9-2,14,0,7,4,9,1,8,0,0,2,0,3,0,2,0,4-1,5-4-3,0-5,1-8,1-4,0-6-1-7-5,0-3,0-5,0-8,0-8,4-14,7-21,2-6,5-11,7-17,0-3,0-6,0-9,0-3-2-4-6-3ZM4,1339c1-4,0-7-2-1-2-2-4-3-7-2,2,2,4,3,6,5,1,2,2,4,3,7Z"/>
          <path class="cls-2" d="M197,1315c0,5,0,1-1,14,0,4-2,5-6,5-13,0-26,1-39,2-3,0-6,0-7-4-2-6-5-12-7-18-2-8-3-16-2-24,0-3,2-5,4-5,8-2,17-4,26-4,8,0,15,3,22,5,5,1,8,4,8,1,0,6,1,11,2,17ZM182,1301c0,2,0,4-2,6,0,0-1,2-2,3-6,2-11,3-17,0-2-1-4-2-7-3-4-1-8,0-11,3-1,1-2,3,0,5,0,0,1,0,2,0,4-3,8-4,13,0,4,2,9,3,14,2,5,0,11-2,13-8,1-3,0-3-3-6Z"/>
          <path class="cls-2" d="M364,1368c-34,3-68,5-102,2,0,0,0,0,0-1,2,0,4,0,6,0,2,0,4,0,6,0,11,0,23-1,34-2,8,0,17,0,26,0,7,0,14,0,21,0,3,0,6,0,9,0,0,0,0,0,0,1Z"/>
          <path class="cls-2" d="M201,1306c5-2,11-1,16,0,4,0,8,0,12,0,2,0,3,0,4,2,0,2-1,3-3,3-4,0-8,0-13,0-4,0-8,0-12-1-3,0-3,0-3-5Z"/>
          <path class="cls-2" d="M183,1282c2,0,5,2,7,2h0c-2,0-5,0-7-1,0,0,0,0,0-1Z"/>
          <path class="cls-2" d="M201,1327c0,2,0,4,0,6-2-3,0-5,0-7,0,0,0,0,1,0Z"/>
          <path class="cls-2" d="M3,1387c1,0,2,0,29,0,12,0,25,0,37,0,9,0,19,1,28,1,13,0,25,0,38,0,1,0,3,0,4,0,3,0,5,2,5,5,0,4,2,8-2,12,0,0,0,3,0,4,0,6,0,13,0,19,0,5,0,11,0,16,0,6-4,1-11,11-9,0-18,0-27,0,0,0-2,0-2,0-16,0-32-1-49,0-19,0-37,1-56,2-11,0-22,0-33,0-4,0-8,0-11,0-2,0-5,0-7-1-4-1-6-4-6-8,0-7-1-14-2-22,0-1,0-2,0-29,0-11,0-11,11-11,16,0,32,0,48,0,2,0,3,0,5,0,0,0,0,0,0,0ZM262,1422c0-1,0-2,1-3,1-1,2-3,3-4,1-2,3-4,4-6,2-4,0-6-4-7-6,0-11,0-16,2-2,0-3,2-3,5,1,9,2,18,3,28,0,3,0,4-3,5,0,3,3,4,5,4,6,2,16-2,19-8,3-5,2-1-3-13-2-1-4-2-6-3ZM388,1425c-9-3-17,0-25-3,0-2,0-3,0-4,0-7,2-9,9-9,5,0,9,0,14,0,0,0,2,0,3,0,0,0,0,0,0-1-1,0-3-1-4-1-7,0-13,1-2,2-3,0-4,2-5,4-2,11-1,21,4,31,2,4,3,4,8,4,5,0,11-2,16-3,2,0,3-1,5-2,0-2-2-2-3-2-5,0-1,2-15,2-2,0-5,0-6-1-2-4-5-7-5-12,7-4,16,0,24-3ZM319,1414c2,2,3,3,4,4,3,5,7,1,1,16,2,4,5,7,9,8,2,0,5,2,6,0,2-1,1-4,0-6,0-5-2-1-3-15,0-3-1-7-2-11-2,0-2,2-2,4,2,8,3,15,4,23,0,0,0,0,0,2-5,0-8-4-1-8-4-6-7-12-11-17,0-1-2-3-3-3,0,0-3-1-3,0,0,0-1,2-2,3,0,9,0,18-2,27,0,2,0,3,2,4,3-5,0-1,1-15,0-5,0-1,2-16ZM306,1446c0-2,0-3,0-5,0-2,0-3,0-5-1-1-5-2-11-28-1-2-3-3-5-3-2,0-3,2-4,5-2,9-5,19-6,28,0,0,0,0,0,1,1-4,2-8,3-11,3,0,6,0,9-1,5,0,8,1,9,7,0,3,0,6,0,9,0,2,0,3,3,4ZM414,1436c-2,0-4,0-5-2-1,0-3-1-3,0,0,1-1,3,0,4,0,0,2,2,3,2,1,0,3,0,4-2,0,0,1-2,2-3Z"/>
          <path class="cls-2" d="M201,1411c0,5,0,11-1,16,0,4-2,7-6,8-6,1-12,2-18,3-7,0-15,1-23,2-7,0-8,0-11-7-4-8-3-17-4-26,0-3,0-7,0-1,0-4,1-7,4-1,3-4,7-5,11-5,12,0,24,1,36,2,4,0,8,4,9,8,1,6,2,12,3,18ZM148,1422c2,0,3-2,3-4,1-5,4-7,9-7,2,0,5,0,7,1,4,1,9,0,13-1,5-2,7-7,5-12,0,0-1-1-2-3,0,2,0,3,0,4,0,5-2,7-7,7-4,0-7,0-11-1-4-1-8,0-11,1-5,2-6,6-7,11,0,0,0,2,1,3Z"/>
          <path class="cls-2" d="M216,1414c3,0,6,0,9,0,1,0,2,0,3,0,0,0,1,1,0,2,0,0,0,2-1,2-2,0-3,0-5,0-5,0-9,0-14,0,0,0,0,0-1,0-2,0-5,0-5-3,0-3,3-2,5-2,2,0,5,0,7,0,0,0,0,0,0,0Z"/>
          <path class="cls-2" d="M237,1463c7,0,12,1,18,2-7,2-14,2-18-2Z"/>
          <path class="cls-2" d="M263,1385c6-2,11-1,17,0-6,0-11,0-17,0Z"/>
          <path class="cls-2" d="M266,1483c13,0,26,2,39,3,1,0,2,0,3,0,32,0,64,0,95,1,2,0,5,0,7,0,4,1,6,3,6,8,0,8,0,16,0,24,0,9,0,18-1,27,0,2-1,4-2,5,0,1-2,2-4,1-1,0-3,0-4,0-5,2-11,3-17,3-24,0-48,0-72,0-25,0-49,0-74,0-7,0-13,0-2,0-1,0-3,0-4,0-4,0-6-3-7-6-3-12-7-23-7-36,0-8,0-15,0-23,0,0,0-1,0-2,0-4,1-5,5-6,1,0,19-2,29-2ZM251,152c-4-4-3-8-2-12,0-4,2-8,3-12-3,0-3,0-3,2-2,6-4,13-3,2,0,5,2,11,6,15,2,2,4,3,6,3,6,0,11-4,12-1,0-2,0-4-1-5-3-4-8-5-13-2-2,0-4,2-5,2ZM355,1526c5,0,1,0,14,0,4,0,4-2,3-6-2-6-8-9-14-6-5,3-8,9-7,14,1,7,6,11,11,11,3,0,6,0,9,0,2,0,5,0,6-3-4,0-9,0-13,0-6,0-9-3-1-1ZM318,1535c0-5,0-1,3-15,3-4,5-4,9,0,3,3,3,7,4,11,0,1,0,3,2,4,0,0,2,0,2,0,0,0,0-2,0-2-1-4-3-8-4-12,0-2-2-3-3-5-3-5-9-5-11,0,0,2-2,4-2,5,0,0-1,2-2,3-3-2-1-7-5-8,0,0,0,0,0,1,0,5,2,1,3,15,0,2,2,2,4,1ZM292,1514c-5,0-1,5-11,1-2,9,5,15,13,12,0,0,2,0,3,0,4-2,6-6,5-1,0-3-2-6-4-9-1-2-4-2-5-3Z"/>
          <path class="cls-2" d="M197,151c0,4,0,9,0,13,0,4,0,5-5,5-4,0-7,0-11,1-6,0-11,2-17,2-8,1-16,0-22-6-1-1-3-3-3-5-2-7-2-15,0-22,0-5,2-9,4-13,2-3,5-4,8-4,12,0,23,1,35,2,7,0,11,5,11,13,0,4,0,8,0,12,0,0,0,0,0,0ZM149,1519c0-1,0-2,0-3,2-6,4-8,1-8,2,0,4,0,6,0,6,1,11,0,16-3,3-1,4-6,2-1-1,2,0,5-3,6-5,0-9,2-14,2-3,0-6,0-9,0-6,0-11,5-12,12,0,2,0,4,3,4Z"/>
          <path class="cls-2" d="M223,1512c-6,0-12,0-18,0-3,0-3-2-3-5,0,0,2,0,3,0,4,0,9,0,13,0,4,0,6,1,6,6Z"/>
          <path class="cls-2" d="M443,1559c4-9,5-18,4-27,0,0,0,0,0,0,0,7,0,13,0,2,0,3-1,4-5,6Z"/>
          <path class="cls-2" d="M235,1551c-2-3-3-9-3-13,3,4,2,9,3,13Z"/>
          <path class="cls-2" d="M231,1536c0-2,0-4,0-7,0,0,0,0,0,0,0,2,0,4,1,7,0,0,0,0-1,0Z"/>
          <path class="cls-1" d="M397,1756c-2,7,1,14,0,21-3,0-5,2-8,3-3,0-5,0-5-3,0-6-1-13,0-19,0-12,1-24,2-36,0-2,0-4,3-4,0,5,0,1-1,14,0,5,0,9,0,14,0,5,0,1,0,15,0,5,0,9,1,14,5,0,6,0,6-3,0-5,0-9,0-14,0,0,0,0,0,0,0-2,0-4,2-5,1,0,5,0,6,2,2,3,4,6,6,1,4,7,7,9,15,6,0,0,0,0,0,0-6-6-8-14-13-21-3-5-2-7,3-1,4-3,7-5,1-9,1-2,2-4,3-6,0-2,0-4,0-5-2-1-4,0-5,0-1,1-2,2-3,4-4,6-8,12-14,16-1,0-3,2-5,3-3-2-4-4-3-7,0-4,0-8,1-12,0,0-2,0-3,0-2,0-3,0-3-3,0,0,2-2,3-2,5,0,7,2,5,7-2,4-1,6,0,11,3,0,5-3,7-5,3-4,6-8,9-12,0,0,0,0,0-1,2-2,4-5,7-3,3,1,5,4,6,6,0,0,0,3,0,4-2,4-4,7-7,11-1,2-3,3-5,4-1,0-2,2-3,3-2,2-3,4-1,6,4,6,6,14,12,19,4,3,3,6-2,8-1,0-3,0-4,1-6,1-1,0-13-6-1-3-2-5-4-8,0-2-2-3-4-4,0,0-1,0-2,0Z"/>
          <path class="cls-1" d="M348,1749c-4,3-4,1-2,26,0,0-2,0-3,1-8,2-11,0-1-9,0-4,0-8,0-12,0-11,0-23,1-34,0-3,3-5,6-5,4,0,6,2,7,6,2,5,4,1,6,15,0,0,0,0,0,1,4,5,7,1,11,14,2-1,1-3,1-5,0-6-1-12-1-18,0-3,1-6,2-9,0-2,2-3,4-3,5,0,6,0,7,6,0,2,0,5,0,7-2,12-1,24,1,36,0,3,0,5-3,6-3,2-5,5-9,3-5-2-9-4-11-9-2-5-5-1-7-15,0,0-1-2-2-2ZM338,1721c-1,11-2,21-2,32,0,5,0,1,0,15,0,2,0,3,1,4,2,1,3,0,5,0,0-1,0-3,0-5,0-6,0-13,2-19,0-1,2-3,3-3,0,0,3,1,3,2,2,4,4,7,5,11,3,5,5,11,11,13,4,2,6,2,9-2,2-2,1-4,1-6,0-1-2-21,0-31,0-3,0-7,0-1-4,0-5,0-6,3,0,2,0,5,0,7,0,4,0,8,0,11,0,4,0,9-2,13,0,0-2,2-2,2,0,0-2,0-3-2,0-1-1-3-2-4-1-2-2-5-3-6-4-4-6-9-8-13-1-3-2-5-4-8-2-5-3-5-9-4Z"/>
          <path class="cls-1" d="M236,1713c3,0,6,0,9-1,4,0,6,2,5,6,0,3,0,6-1,9,0,3,0,4,4,4,1,0,3,0,4,0,6,0,7,0,7-7,0-2,0-5,0-7,0-1,1-3,3-4,3-1,7-2,12-2,0,2,0,4,0,6,0,3,0,6-1,9-2,12,0,24,0,35,0,3,0,5,0,8,0,3-2,4-5,4-7,0-11-4-11-12,0-4,0-9,0-13,0-5,0-6-5-5-6,0-8,2-9,8,0,4,0,8,0,12,0,3,1,5,2,8-3,2-6,2-9,2-2,0-4-1-4-4,0-2,0-4,0-5,0-9,0-17-1-26,0-8,0-15,3-22,0,0,0-2,0-3ZM248,1716c-1,0-2,0-3,0-5,0-6,0-7,6-2,9,0,19,0,28,0,5,0,1,1,16,0,4,2,5,7,3,0-1,0-2,0-3,0-6,0-12,1-18,0-3,2-4,4-5,3,0,5,0,8-1,6,0,7,0,6,6,0,5,0,1,0,15,0,2,0,4,2,6,0,2,3,2,5,2,1,0,3-2,3-3,0-4,2-8,2-12,0-11,0-23,2-34,0-2,0-3,0-5-8,0-9,0-1,9,0,2,0,4,0,6,0,3-2,4-5,4-5,0-1,0-15,0-1-2,0-4,0-6,2-4,2-8,1-13Z"/>
          <path class="cls-1" d="M279,175c0-9,2-16,5-22,3-8,15-16,27-9,1,0,3,2,4,3,7,7,11,16,15,25,2,6,3,11,0,16-2,5-6,1-12,1-1,0-3,0-4,0-1,0-2,0-3,0-7-2-14-1-2-6-6-5-1-12-1-18ZM282,1746c0,11,6,2,15,23,2,0,4,1,6,0,6,0,12-2,18-3,1,0,3-2,3-3,2-7,3-15,0-22-4-6-7-12-13-17-3-3-6-6-11-5-5,0-9,3-12,7-5,6-5,13-6,19Z"/>
          <path class="cls-1" d="M172,1711c1,4,0,7-3,9-4,4-8,4-13,4-1,0-16,4-19,14,0,0,0,1,0,2-3,0-3-3-2-5,2-8,8-13,15-15,3,0,5-1,8-1,6,0,1-2,13-7,0,0,0,0,2-1Z"/>
          <path class="cls-1" d="M255,1632c4,1,7,2,11,4,3,1,6,2,7,6,0,2-3,5-7,7-6,2-12,2-19,0-2,0-3-2-3-4,0-7,0-14-1-21,0,0,0-2,0-3,0-4,0-6,4-8,6-2,12-2,17,2,4,2,5,6,1,9-3,3-7,5-1,8ZM27,1643c-4-4-8-5-12-6-3,0-5,0-8-1,0,0-2-1-2-2,0,0,0-2,1-2,0,0,2-1,3-2,3-2,6-4,1-6,3-2,2-4,0-5-3-2-7-2-1-2-5,0-6,0-6,6,0,5,0,9,0,14,0,3,0,5,1,8,0,2,2,4,5,4,7,0,13,0,19-5Z"/>
          <path class="cls-1" d="M353,1627c5,5,13,7,18,13-3,0-6-2-8-3-3-1-5-2-8-4,0,1,0,2,0,4-1,0-2,0-2-1-3-7-4-15-4-23,2,0,3,0,3,2,0,2,0,5,0,7,5,0,7-7,13-5-3,5-9,5-11,11Z"/>
          <path class="cls-1" d="M3,1628c0,0-1,2-2,3-7,7-16,3-18-5-2-5,0-9,4-12,0,0,1,0,2-1,6-4,11-1,12,6,0,3,1,6,2,9ZM297,1625c0-2-2-6-4-9,0,0-2-1-2-1-3,0-5,1-7,3-2,2-2,5-1,7,1,2,3,4,5,6,4,3,1,0,1-6Z"/>
          <path class="cls-1" d="M331,1628c0,2,1,4,1,6,0,4,1,8,2,12,0,2,0,4-3,5-2,1-4,0-5-1-3-3-7-6-1-1,0,0-1-1-2-2-2,2-2,4-3,6,0-2,0-4,0-6,0-2,0-4,2-4,1,0,3,0,4,2,3,3,6,6,9,9,1,1,3,2,4,3,2-7,0-13,0-18,0,0,0,0,1,0Z"/>
          <path class="cls-1" d="M179,1607c2,3,1,5,0,7-3,3-6,5-1,5-3,0-6,0-8,0-8,0-11,3-13,1,0,0,0,2,0,2,0,0,0,0-1,0,0,0-1-1-1-2,0-8,5-13,13-15,2,0,4,0,5,0,3,0,6,0,8,0,3,0,5-1,6-4,0,0,2-1,3-2Z"/>
          <path class="cls-1" d="M344,1316c-2,4-6,5-1,6-3,0-5-3-5-7,0-2,1-4,2-6,1-3,3-5,4-8,0,0,0-1,0-2-4-3-11-3-16,0,0,2,0,4,1,6,1,3,0,6-2,8-2,3-5,7-9,8-2,0-4,0-5-2,0-1-2-3-2-5,0-5,0-1,4-14,3-4,6-6,11-6,6,0,11,0,17-1,2,0,4,0,5,2,4,3,6,3,1,0,2-1,4-2,5-3,3-2,4-1,5,2,0,2,0,4,0,6,0,1,0,2,0,5,3-4,5-7,7-1,0,0,0,0,0,0-4,7-7,14-11,21-2,0-2-3-2-4,0-4,0-8,0-12,0-2,0-4-2-5-2,0-4,0-5,1-5,3-5,4-4,9,1,5,0,8-6,9,4-4,4-9,2-13-1-2-4-4-6-2-4,4-7,9-7,15,0,3,2,4,5,3,2,0,4-2,6-3ZM31,132c7-2,11-7,9-13,0-2-3-5-4-5-2,0-3,2-4,3,0,1-1,2-2,4-1,4-2,7,0,11Z"/>
          <path class="cls-1" d="M283,1278c2,0,3-2,5-2,3,0,6,2,7,6,0,5,0,9-2,13-1,3-3,6-4,8,0,2-2,3-2,5,0,0,0,1,1,1,11,4,14,19,9,29-2,5-5,9-9,13-3,2-6,4-9,4-4,0-7-3-6-7,0-1,0-3,1-4,0,0,0,0,0,0,0,1,0,3,0,4,0,3,2,5,6,4,2,0,3,0,5-2,7-5,15-18,11-28-1-3-3-5-5-7-4-4-8-4-12,0,0,0,0,1-1,1,0,0-1,0-2,0,0,0,0-2,0-2,0-1,2-3,3-3,8-4,12-12,14-2,0-2,0-5,0-7,0-4-2-5-6-5,0,0-1,0-2,0,0,0,0,0,0-1Z"/>
          <path class="cls-1" d="M264,1339c-4,0-3-3-3-5,2-9,4-19,6-28,0-4,1-7,2-11-4,0-7,3-9,4-3,0-5,2-8,3-1,0-3,0-3-2,3,0,6-2,1-3,6-2,1-6,13-12,0,0,0-1,0-1,0,0,2-1,3-1,0,0,1,2,1,2,0,4-1,9-2,13-3,11-6,23-8,35,0,3,0,5-1,8Z"/>
          <path class="cls-1" d="M384,1289c4,0,6,0,6,3,0,3,0,6,0,9-2,6-4,12-7,17-3,7-6,14-7,21,0,3,0,5,0,8,0,4,3,6,7,5,2,0,5,0,8-1-2,2-3,3-5,4,0,0-2,0-3,0-6,0-1-2-1-8,0-5,0-1,2-14,3-7,5-13,8-2,3-5,3-11,4-17,0-3-2-4-4-7Z"/>
          <path class="cls-1" d="M4,1339c-1-3-2-5-3-7-1-2-4-3-6-5,3-1,5,0,7,2,3,3,4,6,2,1Z"/>
          <path class="cls-1" d="M182,1301c4,3,4,3,3,6-2,6-7,7-13,8-5,0-1,0-14-2-5-3-9-3-13,0,0,0,0,0-2,0-2-2,0-3,0-5,3-3,7-4,11-3,2,0,5,2,7,3,6,3,12,1,17,0,0,0,1-2,2-3,0-2,0-3,2-6Z"/>
          <path class="cls-1" d="M262,1422c2,1,4,2,6,3,5,3,6,8,3,13-3,6-13,9-19,8-2,0-4-2-5-4,2,0,3-2,3-5-1-9-2-18-3-28,0-2,0-4,3-5,5-2,11-3,16-2,4,0,5,3,4,7,0,2-2,4-4,6-1,1-2,3-3,4,0,0,0,1-1,3ZM251,1408c0,12,2,24,3,36,6,0,11,0,14-6,3-4,2-8-2-1-2-1-5-2-7-3-1,0-3-1-3-2,0-2,1-2,2-3,4-2,7-6,1-1,1-2,0-4-2-4-5,0-9,0-14,2Z"/>
          <path class="cls-1" d="M388,1425c-9,2-17,0-24,3,0,5,3,9,5,12,1,2,4,2,6,1,5,0,1-2,15-2,1,0,3,0,3,2-2,0-3,1-5,2-5,1-11,2-16,3-4,0-6,0-8-4-5-1-7-2-4-31,0-3,2-4,5-4,7,0,13-1,2-2,1,0,2,0,4,1,0,0,0,0,0,1,0,0-2,0-3,0-5,0-9,0-14,0-7,0-9,2-9,9,0,1,0,3,0,4,8,4,16,0,25,3Z"/>
          <path class="cls-1" d="M319,1414c-2,6,0,11-2,16,0,5,1,1-1,15-2,0-3-3-2-4,2-9,1-18,2-27,0-1,0-3,2-3,0,0,2,0,3,0,1,0,3,2,3,3,4,6,7,12,11,17,2,4,6,7,1,8,0,0,0-1,0-2-1-8-3-15-4-23,0-2,0-3,2-4,0,4,2,7,2,11,0,5,2,1,3,15,0,2,2,5,0,6-1,0-4,0-6,0-4-1-7-4-9-8-3-5-7-1-1-16,0-1-2-2-4-4Z"/>
          <path class="cls-1" d="M306,1446c-3,0-3-2-3-4,0-3,0-6,0-9,0-5-3-7-9-7-3,0-6,0-9,1,0,3-2,7-3,11,0,0,0-1,0-1,1-1,4-19,6-28,0-2,1-4,4-5,2,0,4,1,5,3,6,9,1,18,11,28,0,2,0,3,0,5,0,2,0,3,0,5ZM3,1422c-3-5-4-1-9-14-4,3-5,1-4,16,4,0,8-2,13-2Z"/>
          <path class="cls-1" d="M414,1436c0,1-1,3-2,3-1,0-3,2-4,2,0,0-2-1-3-2,0-1,0-3,0-4,0-1,2,0,3,0,1,0,3,0,5,2Z"/>
          <path class="cls-1" d="M148,1422c0,0-1-2-1-3,0-4,2-9,7-11,4-2,7-2,11-1,3,0,7,1,11,1,5,0,6-2,7-7,0-1,0-2,0-4,1,1,2,2,2,3,2,5,0,1-5,12-4,2-8,2-13,1-2,0-5-1-7-1-5,0-8,2-9,7,0,2,0,3-3,4Z"/>
          <path class="cls-1" d="M251,152c2,0,4-1,5-2,5-2,1-1,13,2,1,2,2,3,1,5-1,6-6,1-12,1-2,0-5-2-6-3-4-4-6-9-6-15,0-7,0-13,3-2,0-1,0-1,3-2-1,4-2,8-3,12,0,4-2,8,2,12ZM252,1526c4,6,6,7,1,6,3,0,5-2,6-5,0-2,0-4-2-5-3-2-5-2-8,0,0,0,0,0-1,0-2,2-4,3-5,5Z"/>
          <path class="cls-1" d="M355,1526c0,7,4,1,1,1,4,0,8,0,13,0,0,3-4,3-6,3-3,0-6,0-9,0-6,0-1-5-11-11-1-6,2-12,7-14,6-3,13,0,14,6,0,3,0,5-3,6-5,0-9,0-14,0ZM371,1522c-2-4-3-7-8-6-4,0-6,2-7,6,5,2,9,3,15,0Z"/>
          <path class="cls-1" d="M318,1535c-2,1-4,0-4-1-1-5-2-1-3-15,0,0,0,0,0-1,4,1,2,6,5,8,0,0,1-2,2-3,0-2,1-4,2-5,3-5,8-5,11,0,0,2,2,3,3,5,2,4,3,8,4,12,0,0,0,1,0,2,0,0-2,0-2,0,0-1-1-3-2-4-1-4-2-8-4-11-3-4-6-4-9,0-3,4-4,9-3,15Z"/>
          <path class="cls-1" d="M292,1514c1,0,4,1,5,3,2,2,3,6,4,9,1,4,0,8-5,1,0,0-2,0-3,0-9,3-15-3-13-12,1-5,6-1,11-1ZM292,1534c3,0,6,0,8-4,1-3-2-11-5-12,0,0,0,0,0,0-5,0-9,4-1,9,0,4,3,7,8,7Z"/>
          <path class="cls-1" d="M149,1519c-3,0-3-2-3-4,1-6,5-11,12-12,3,0,6,0,9,0,5,0,9-1,14-2,3,0,2-4,3-6,3,4,2,8-2,1-5,2-1,4-16,3-2,0-4,0-6,0-6,0-9,2-1,8,0,1,0,2,0,3Z"/>
          <path class="cls-2" d="M338,1721c6,0,7,0,9,4,1,3,2,5,4,8,2,5,5,9,8,13,2,2,2,4,3,6,0,1,1,3,2,4,0,0,2,2,3,2,0,0,2-1,2-2,2-4,2-9,2-13,0-4,0-8,0-11,0-2,0-5,0-7,0-3,2-3,6-3,0,3,0,7,0,1-1,1,0,21,0,31,0,2,0,4-1,6-3,4-5,4-9,2-6-2-8-8-11-13-2-4-3-7-5-11,0-1-3-3-3-2-1,0-3,2-3,3,0,6-1,13-2,19,0,2,0,3,0,5-2,2-4,2-5,0-2-1-1-3-1-4,0-5,0-1,0-15,0-11,0-21,2-32Z"/>
          <path class="cls-2" d="M248,1716c0,5,0,9-1,13,0,2-2,4,0,6,5,0,1,0,15,0,3,0,4-1,5-4,0-2,0-4,0-6,0-8,2-9,1-9,0,2,0,3,0,5-2,11-2,23-2,34,0,4,0,8-2,12,0,1-2,2-3,3-2,0-4,0-5-2,0-2-2-4-2-6,0-5,0-1,0-15,0-5,0-7-6-6-3,0-5,0-8,1-3,0-4,2-4,5,0,6,0,12-1,18,0,1,0,2,0,3-5,2-6,2-7-3,0-5-1-1-1-16,0-9,0-19,0-28,0-5,2-6,7-6,0,0,2,0,3,0Z"/>
          <path class="cls-2" d="M282,1746c0-6,1-13,6-19,3-4,7-6,12-7,5,0,8,2,11,5,5,5,9,11,13,17,4,7,3,15,0,22,0,1-2,3-3,3-6,1-12,2-18,3-2,0-4,0-6,0-9-3-15-13-15-23ZM304,1761s1,0,2,0c7,0,1-3,8-11,0-4-3-8-4-12-1-5-5-7-9-9-5-2-9,0-1,5,0,3-1,7-2,1,0,8,7,16,15,16Z"/>
          <path class="cls-2" d="M27,1643c-6,4-12,5-19,5-2,0-4-1-5-4,0-3-1-5-1-8,0-5,0-9,0-14,0-5,0-6,6-6,4,0,7,0,1,2,3,2,3,3,0,5-3,2-6,4-1,6,0,0-2,0-3,2,0,0-2,2-1,2,0,0,1,2,2,2,2,0,5,1,8,1,5,0,9,2,12,6Z"/>
          <path class="cls-2" d="M297,1625c0,5-6,8-1,6-2-1-4-4-5-6-1-2,0-5,1-7,2-2,4-4,7-3,0,0,2,0,2,1,2,3,3,7,4,9Z"/>
          <path class="cls-2" d="M344,1316c-2,0-4,2-6,3-3,1-4,0-5-3,0-6,3-11,7-15,1-2,4,0,6,2,3,5,2,9-2,13,0,0,0,0,0,0Z"/>
          <path class="cls-2" d="M31,132c-2-4-2-8,0-11,0-1,1-2,2-4,0-1,1-4,4-3,2,0,4,3,4,5,1,6-2,11-9,13Z"/>
          <path class="cls-2" d="M251,1408c5-3,9-3,14-2,3,0,3,2,2,4-2,4-5,8-1,1-1,0-3,1-2,3,0,1,2,2,3,2,2,0,5,1,7,3,5,2,5,6,2,1-3,5-8,6-14,6,0-12-2-24-3-36Z"/>
          <path class="cls-2" d="M3,1422c-5,0-9,2-13,2-1-6,0-12,4-16,4,4,6,9,9,14Z"/>
          <path class="cls-2" d="M252,1526c2-2,4-3,5-5,0,0,0,0,1,0,3-1,6-1,8,0,2,1,2,3,2,5-1,3-3,5-6,5-5,0-7,0-1-6Z"/>
          <path class="cls-2" d="M371,1522c-6,3-1,2-15,0,1-4,3-5,7-6,4,0,5,3,8,6Z"/>
          <path class="cls-2" d="M292,1534c-5,0-8-3-8-7,0-5,5-1,1-9,0,0,0,0,0,0,3,1,6,9,5,12-1,4-5,4-8,4Z"/>
          <path class="cls-1" d="M304,1761c-7,0-15-8-15-16,0-3,0-7,2-1,1-5,5-8,1-5,4,2,7,4,9,9,1,4,3,8,4,12,1,7-1,1-8,11,0,0-1,0-2,0ZM306,1757c0,0,2,0,4,0,2,0,3-2,3-4,0-8-3-15-9-2-3-3-8-1-9,3,0,2-1,5-2,8,0,7,5,13,13,13Z"/>
          <path class="cls-2" d="M306,1757c-8,0-13-6-13-13,0-3,0-5,2-8,1-4,6-6,9-3,6,5,9,12,9,2,0,2-1,3-3,4-2,0-3,0-4,0Z"/>
        </g>
      </g>
    </g>
  </g>
</svg>