<?xml version="1.0" encoding="UTF-8"?>
<svg id="Layer_2" data-name="Layer 2" xmlns="http://www.w3.org/2000/svg" viewBox="0 0 2 95">
  <defs>
    <style>
      .cls-1 {
        fill: #000;
      }

      .cls-1, .cls-2 {
        stroke-width: 0px;
      }

      .cls-2 {
        fill: #fff;
      }
    </style>
  </defs>
  <g id="Layer_1-2" data-name="Layer 1">
    <g>
      <path class="cls-1" d="M2,68c1,4,0,6-6,7-13,2-26,4-39,5-22,3-43,6-65,9-14,2-29,4-43,6-3,0-5,0-7-4-4-7-11-11-18-14-7-2-13-5-18-11-2-2-4-6-4-8,0-1,1-19,8-27,11-14,26-21,43-24C82,1,114,0,146,0c8,0,16,1,22,7,2,1,4,3,5,5,2,6,4,11,5,17,1,6,3,9,9,9,7,0,9,2,1,9,0,6,2,12,2,17,0,1,0,3,0,5ZM177,4c-2-6-4-11-5-17-3-14-6-16-2-18,0,0-2,0-3,0-13,0-27,0-4,0-22,0-44,3-66,8-17,4-29,13-36,29-4,8-2,23,7,27,8,4,16,7,25,11,0-7-2-12-2-18,0-3,0-5,4-5,14-2,28-3,42-5,24-3,47-6,71-9,8-1,16-2,25-3ZM196,72c-1-8-2-15-4-22-1-8-2-8-9-7-35,4-71,8-106,12-11,1-21,3-32,5-4,0-6,2-5,7,1,7,3,14,4,21,0,3,2,4,5,3,8-1,16-2,24-3,33-4,65-8,98-12,9-1,17-3,26-4Z"/>
      <path class="cls-2" d="M177,4c-8,0-16,2-25,3-24,3-47,6-71,9-14,2-28,4-42,5-4,0-5,2-4,5,0,6,1,11,2,18-9-4-17-7-25-11-1-5-11-19-7-27,7-16,2-25,36-29,22-5,44-8,66-8,13,0,27,0,4,0,0,0,2,0,3,0,14,2,17,5,2,18,1,5,3,11,5,17ZM55,37s0,0-1,0c-2-4-5-8-7-12,0,0,0,0-1,0,0,4,0,8-1,12,0,0,0,0-1,0-2-4-4-8-6-12,0,0,0,0-1,0,2,5,5,11,7,16,0,0,1,0,2,0,0-4,1-7,2-11,2,3,3,6,5,8,0,0,3,1,4,0,2-2,0-14-2-16,0,5,0,9,0,14ZM102,19c0,0-1,0-2,0,0,4,0,9,1,13,0,0,0,0-1,0-3-4-6-8-9-13,0,7,1,13,2,19,0,0,0,0,1,0v-1s0,0,1,0c2,3,4,6,7,9,0,0,1,0,2-1,0-6-1-11-2-17ZM156,22c0-5-6-1-11-8-1,0-3,2-3,4,0,4,0,8,2,11,0,1,2,3,4,3,4,0,9-6,9-1ZM66,3c2,0,3-1,5-2,0,0,0,0,0,0h-5c-2-8,6-5,8-9-4,1-9,2-1,5-2,5,1,14,5,15,2,0,4,0,6,0h0c-6,0-7-2-9-8ZM135,15c-5,0-9,0-11,4-2,5,1,14,5,14,2,0,3,0,5,0-3-2-6-2-7-4-3-4,3-4,4-6-2,0-4,0-5,0,0-6,6-3,9-6ZM111,25c0-2-1-5,0-5,2-2,5-2,8-4-4,0-8-1-1,3-2,3,2,14,5,15,2,0,4,0,6,0-3-1-6-1-6-3-2-5,4-3,5-6-2,0-4,0-6,0Z"/>
      <path class="cls-2" d="M196,72c-9,1-18,3-26,4-33,4-65,8-98,12-8,0-16,2-24,3-3,0-4,0-5-3-1-7-2-14-4-21,0-4,1-6,5-7,11-2,21-4,32-5,35-4,71-8,106-12,8,0,8,0,9,7,1,7,2,14,4,22ZM131,6c-14,2-29,4-43,6-3,0-6,0-6,4,0,4,4,3,7,3,12-2,24-4,36-6,5,0,9-2,8,6,6-4,11-7,18-11-4-1-7-2-1-3-3-1-6-2-9-4,0,2,0,4,0,5Z"/>
      <path class="cls-1" d="M55,37c0-5,0-9,0-14,2,2,4,14,2,16,0,0-3,0-4,0-2-2-3-5-5-8,0,4-1,8-2,11,0,0-1,0-2,0-2-5-5-11-7-16,0,0,0,0,1,0,2,4,4,8,6,12,0,0,0,0,1,0,0-4,0-8,1-12,0,0,0,0,1,0,2,4,5,8,7,12,0,0,0,0,1,0Z"/>
      <path class="cls-1" d="M102,19c0,6,1,11,2,17,0,0-1,0-2,1-2-3-4-6-7-9,0,0,0,0-1,0v1s0,0-1,0c0-6-1-12-2-19,4,5,6,9,9,13,0,0,0,0,1,0,0-4,0-9-1-13,0,0,1,0,2,0Z"/>
      <path class="cls-1" d="M156,22c0,4-5,1-9,1-1,0-3-2-4-3-1-4-2-7-2-11,0-1,2-3,3-4,5-2,11,3,11,8ZM146,31c5-3,8-4,8-9,0-4-3-5-6-6-2,0-4,0-4,3,0,4,1,7,2,12Z"/>
      <path class="cls-1" d="M66,3c1,6,3,7,9,7h0c-2,2-4,2-6,2-4-1-8-11-5-15,1-3,6-4,1-5-2,4-1,0-8,9h5s0,0,0,0c-1,0-3,1-5,2Z"/>
      <path class="cls-1" d="M135,15c-3,3-9,0-9,6,2,0,3,0,5,0-2,2-7,2-4,6,1,2,4,3,7,4-2,0-3,1-5,0-4,0-7-1-5-14,2-4,6-4,11-4Z"/>
      <path class="cls-1" d="M111,25c2,0,4,0,6,0,0,3-8,2-5,6,0,1,4,1,6,3-2,0-4,1-6,0-3,0-6-12-5-15,2-4,7-3,1-3-3,1-6,2-8,4,0,0,0,3,0,5Z"/>
      <path class="cls-1" d="M131,6c0-2,0-4,0-5,3,1,6,3,9,4,3,0,6,2,1,3-7,4-12,7-18,11,0-7-3-7-8-6-12,2-24,4-36,6-3,0-6,2-7-3,0-5,3-4,6-4,14-2,29-4,43-6Z"/>
      <path class="cls-2" d="M146,31c0-5-2-8-2-12,0-3,1-4,4-3,3,0,6,2,6,6,0,5-3,7-8,9Z"/>
    </g>
  </g>
</svg>