<?xml version="1.0" encoding="UTF-8"?>
<svg id="Layer_2" data-name="Layer 2" xmlns="http://www.w3.org/2000/svg" viewBox="0 0 723 1133">
  <defs>
    <style>
      .cls-1 {
        fill: #000;
      }

      .cls-1, .cls-2 {
        stroke-width: 0px;
      }

      .cls-2 {
        fill: #fff;
      }
    </style>
  </defs>
  <g id="Layer_1-2" data-name="Layer 1">
    <g>
      <path class="cls-2" d="M244,947c4,5,5,1,1,13,0-1,0-2-1-3-2-4-4-8-6-12-2-5,0-9,2-13,4-6,8-12,14-17,4-3,8-5,13-4,7,1,14,2,21,6,6,3,1,9,1,16,0,2,0,5,2,8v-6c0,0,1,0,1,0,2,7,4,13,2,2,0,2-2,5-3,6-5,4-1,8-17,9-12,3-23,1-34-2-8-3-13-9-13-17,0,0,0,0,0-2Z"/>
      <path class="cls-2" d="M253,982c6,0,12,0,18,0,6,0,11-2,18-3,0,1,0,2-1,2-4,2-8,4-13,6-7,2-14,0-2-4,0,0,0-1-1-2Z"/>
      <path class="cls-2" d="M242,921c-2,1-5,19-7,29-3-6,0-22,7-29Z"/>
      <path class="cls-2" d="M257,97c9,2,18,4,27,2-5,4-21,3-27-2Z"/>
      <path class="cls-2" d="M245,965c5,7,11,11,2,12-8,3-19-4-2-12Z"/>
      <path class="cls-2" d="M239,956c0-3,0-6,0-8,0,0,0,0,0,0,0,3,0,5,0,8,0,0,0,0-1,0Z"/>
      <path class="cls-1" d="M419,647c0,11,0,22-4,33-4,13-9,26-16,38-4,6-9,11-15,15-11,7-24,12-37,16-8,3-16,5-24,8-3,1-6,3-9,5-7,6-1,13-12,22-3,14-3,29-4,43,0,5,0,1-1,16,0,3-2,5-3,7-2,6-8,8-13,9-5,0-11,2-16,3-4,0-8,0-12,0-5,0-8-2-1-6-4-6-7-11-8-18-3-14-6-28-6-42,0-14,0-29,6-43,3-9,6-18,11-26,2-3,5-6,7-9,11-12,24-22,38-31,11-7,22-15,32-23,5-4,9-8,13-13,2-2,3-5,3-9,0-11-4-21-12-29-2-2-4-2-6-3-12-1-22,2-32,7-12,6-21,16-27,28-2,4-4,8-6,12,0,1-2,3-2,4,0,4-2,6-4,9-5,7-11,1-2,1-5,0-1,0-16,0-5,0-11-2-16-4-2,0-4-3-5-5-5-9-6-19-3-29,3-12,8-22,13-33,6-13,13-24,22-35,7-8,16-14,24-2,1-7,21-13,33-16,1-2,2-4,3-3,5,0,1,0,15,1,11,0,22,3,33,7,12,5,23,11,33,2,1,1,2,2,3,4,6,1,13,2,16,32,2,8,4,16,7,24,1,5,2,9,1,14,0,3,0,5,0,8ZM239,797s0,0,0,0c0,6,1,12,1,19,0,6,0,13,3,19,4,11,12,18,24,14,6-2,13-4,19-6,3-1,6-3,5-7,0-4,0-9,0-13-1-8-2-15,0-22,2-11,5-21,9-31,2-5,5-9,9-11,9-5,16-12,26-15,0,0,2,0,3-1,7-4,14-7,2-11,9-5,18-1,25-18,6-6,12-13,18-19,2-3,5-6,5-1,0-1,2-19,2-29,0-9,0-19-1-28-1-7-3-14-4-21-1-9-3-18-9-25-8-11-15-22-29-27,0,0,0,0,0,0-8-2-15-5-23-7-1,0-3,0-4,0-5,0-1,0-15,0-3-1-7-2-1-1-8,0-17,2-25,3-3,0-6,1-9,2-12,5-23,1-34,19-1,8-19,17-25,29-4,7-9,14-15,21-3,3-5,7-5,12,0,6,0,13-1,19,0,4,0,8,2,11,2,4,4,9,9,1,4,1,8,2,12,2,1,0,19-4,26-13,2-2,3-5,4-8,0-7,5-12,9-16,6-7,12-13,18-18,4-4,9-7,15-9,8-2,16-4,25-5,8,0,14,1,19,7,2,2,4,5,6,7,2,4,4,8,5,12,0,11-3,21-1,3-3,3-6,6-9,9-4,4-8,8-12,12-9,7-19,14-28,22-4,3-8,6-12,9-7,5-13,1-19,16-7,8-11,17-15,26-2,5-4,11-4,17,0,9,0,17,0,26ZM355,738c3,0,5,0,7-2,5-2,9-4,14-6,2-1,5-2,6-4,5-5,1-1,15-16,3-3,5-7,5-12-1,1-2,1-3,2-4,4-8,9-12,13-3,3-5,6-9,8-7,5-14,9-21,14,0,0-2,1-3,2ZM291,691c-9,5-18,11-26,19-8,7-15,14-2,24,5-4,9-9,13-13,5-6,12-12,18-16,5-4,11-7,14-13ZM205,676c-8-8-11-18-11-29,0,5-1,1-2,14,0,0,0,2,0,2,1,6,6,1,12,12ZM254,856c-3-3-5-5-7-7-2-3-5-5-8-6,3,8,9,14,15,14ZM31,542c-3-2-16,0-19,3,7,0,13-2,19-3ZM235,78s0,0-1,0v23s0,0,0,0c0-8,0-15,0-23ZM275,855s0,0,0-1c-4,0-9,2-13,3q4,2,14-2ZM236,822c0-3,0-6-1-9-1,4,0,6,1,9ZM222,59s0,0,0,0c-1,2-2,4-4,5,0,0,0,0,0,0,1-2,2-4,3-5ZM294,808s0,0,0,0v4s0,0,0,0c0-1,0-2,0-4Z"/>
      <path class="cls-1" d="M503,1077c0-2,0-4,0-6,0-4,0-7,0-11,0-3,2-5,6-6,8-3,16-2,24,0,5,1,9,4,12,8,4,6,4,14-3,19-4,3-4,5-3,9,0,5,2,8,5,12,2,2,4,4,7,4,0-5,0-9,0-13,0-9,2-19,2-28,0-9,5-11,15-12,4,0,8,0,12,0,1,1,0,3,0,5,0,3,0,4,3,5,2,0,4,0,6,1,2-4,5-8,9-1,3-1,5-1,7,0,3,4,6,7,6,13,0,2,0,5,0,7,0,7,0,13,1,2,0,1,0,3,0,4,6,2,9,7,13,11,4,3,8,5,13,2,0-7-2-13-7-17-4-3-8-7-11-1-5-5-9-16-5-25,3-8,8-13,16-17,5-3,12,0,14,5,3,6,5,13,8,19,0,0,0,1,0,2,0,2,0,3-3,3-2,0-4-1-6-2-4,0-7,0-1,2-2,1-2,2,0,4,3,2,5,5,8,6,3,2,6,3,8,6,4,6,9,12,1,19,0,0,0,0,0,1,4,1,0,19-1,23-2,0-5,1-7,0-6,0-13-2-19-4-4,0-7-2-11-4-1,3-5,4-8,5-5,1-9-2-1-7-2-8-2-15-1-23,0-3,0-6,0-9-3,2-4,4-4,7,0,2,0,5-3,6-3,0-4-2-6-4-2-3-4-7-6-1,0-1-2-2-3-3-2,0-3,1-3,3,0,4,0,7,0,11,0,5,0,1,0,15,0,6-5,1-1,1-1,0-3-1-4-2-1-1-2-2-3-3-4,0-7,0-11,0-7,0-11-3-13-8-2-4-3-8-4-12,0-3-1-5-4-8,0,2-1,4-1,5,0,5,0,11,1,16,0,2,0,4,0,6-4,2-8,3-12,4-3,0-5,0-5-3,0-6-1-11-2-17,0-2,0-3,0-6-3,9-8,15-15,2-5,3-1,4-16,3-8-1-16-4-23-9-8-6-11-14-1-24,0-6,2-12,7-16,3-3,5-6,6-9,3-6,7-9,13-1,6-1,11-3,17-1,2,0,4,1,5,2,6,6,11,13,13,21,0,0,0,1,0,2,0,0,0,0,1,0ZM605,1124c2-2,3-5,3-8,0-11,0-23,0-34,0-6-1-11-2-17,0-2-1-5-3-6,0,0,0,0,0,0-2,4-3,8-8,9,0,0-1,2-1,2,0,1,0,2,0,3-4,1-6,0-8-3-2-3-3-6-5-9-2-4-6-5-1-2-3,2-5,5-5,9,0,6-1,12-1,19,0,8,0,16,0,25,0,3,0,5,4,7,0-2,1-4,1-5,0-4,0-8,0-12-1-7,2-13,6-18,2-3,4-3,6,0,1,1,2,3,3,4,0,2,2,4,3,6,0,2,3,2,4,0,0,0,1-2,2-2,1-2,2-4,3-6,1-2,2-3,5-3,4,1,6,4,6,8,0,1,0,3,0,4-2,8,0,16,0,24,0,2,0,4,3,4ZM644,105c-5-2-12-2-15,1-3,3-6,8-7,12-1,4-1,9,1,12,4,6,8,13,15,16,0,0,1,1,2,1,5,3,8,8,8,14,0,0,0,2,0,3,0,4,0,7-5,8-6,1-11,0-15-3-2-1-3-3-5-5-1,0-3-1-5-2-2,7,3,15,1,16,2,0,4,0,6,1,5,0,1,2,16,0,1-2,1-7,1-14,0,0,0,0,0,0-2-8-6-15-1-21,0,0-2-1-3-2-5-3-9-7-14-11-4-4-5-8-2-14,2-5,6-6,1-4,2,0,4,1,6,2,0-3-1-4-3-6-1-2-3-3,0-5ZM485,1062c0-1-1-1-2-2-2-4-7-4-1-3-4,2-8,5-12,8-6,5-8,11-1,19,0,4,0,8,0,12,0,2,2,4,3,6,4,9,1,13,19,13,3,0,5,0,8,0,8-1,18-1,18-19,0-8-2-15-4-22-1-3-3-7-6-1-1-2-3-3-5-1ZM518,1118c0-2,0-3,0-4,0-4,0-9-1-13,0-4,0-8,2-11,2-4,6-4,9,0,1,1,2,3,2,5,2,5,3,1,5,15,1,4,5,5,8,6,2,0,4,1,5-1,1-3-1-4-3-4-6-3-9-9-11-15,0-1,0-3-1-4-2-6,0-9,5-12,6-4,7-1,1-15-2-2-4-3-6-4,0,0,0,0,0,0-2,0-4,0-5,0-2-1-3-1-5-1-5,0-9,3-13,5,0,15-2,31,1,46,0,3,2,6,5,8ZM449,1078c-5,3-6,7-5,15,0,7,4,13,1,18-2-6-4-11-6-16-1-3-1-7,0-11,0-2,0-4,0-6ZM559,1083c0,0,0,0,0,0-2,1-3,21-2,31,0,2,0,5,3,6-2-13,0-25,0-38ZM609,1063s0,0,0,0c0,3,0,5,0,8,0,3,0,6,0,9,0,3,0,6,0,8,0,3,0,6,0,9,0,3-1,5,0,8,1-5,0-33,0-39,0,0,0-2-1-3ZM642,1065c-3-3-4-3-7-1-2,2-3,3-1,6,3-2,5-3,8-5ZM612,1112s0,0-1,0c0,3,0,6,0,9,0,1,0,3,1,3,2,0,2-2,2-3,0-3-1-6-2-9ZM507,108s0,0-1,0c-1,4,0,8,1,12v-12ZM56,1072s0,0,0,0v3s0,0,0,0c0-1,0-2,0-3ZM587,1068h0c0,1,1,2,2,2,0,0,0,0,0,0,0,0-1-1-2-2Z"/>
      <path class="cls-1" d="M66,1069c5,0,8,0,1-5,2-3,4-6,5-1,3-7,6-13,8-2,2-4,3-9,5-13,0,0,2-2,3-2,2,0,3,0,5,0,6,1,9,3,8,1,0,5,0,11-3,16-2,4-3,9-5,15,2,0,2,0,3-1,6-5,14-7,22-1,3-1,6,0,9,1,0,0,1,0,2,1,7,2,1,7,13,13,0,0,0,0,1,2,0-2,0-3,0-5,0-5,3-9,6-11,3-2,7-2,1-3,5-1,1,1,13,6,2,4,3,9,4,14,0,6,3,11,6,16,0-3,0-7,0-1,0-6-1-13,0-19,0-5,4-8,6-12,0,0,2-1,3-2,3,2,5,4,6,8,0,5,0,9,1,14,0,7,1,14,2,22,0,6,0,11,0,17,0,2,0,4-3,5-3,2-5,4-8,5-5,3-11,1-13-5-2-5-4-1-6-16,0-2,0-3-2-5,0,0-2-2-3-2,0,0-2,2-2,2,0,4,0,8,0,11,0,4,0,8,0,11,0,3-5,9-8,9-2,0-4,0-5-3-1-6-2-13-3-19,0-2,0-5-2-7,0,1-1,3-2,4-3,5-5,9-8,14-7,11-22,12-31,1,0,0-2,0-3-1-4-4-9-8-1-15-1-5-2-11-4-17,0,2-2,4-2,6-3,6-6,12-9,18-3,7-9,1-14,15,0,0,0,0-1,0-4,1-7,0-9-3-3-5-6-11-9-16-1-2-2-4-4-7-1,2-2,3-2,4-1,2-2,5-3,7-2,5-5,8-11,9-2,0-3,1-5,2-3,0-4,0-7-2-5-6-6-13-8-2-3-12-5-23-1-35-4-1-3-2-1-3,0-1,1-3,2-4,4-2,7-4,11-5,2,0,3,0,4,1,5,6,8,13,11,2,2,7,5,14,8,2,1,3,3,5,5,8,2-3,3-5,5-7,1-2,2-4,3-5,2-4,5-5,9-5,3,5,3,1,6,16ZM48,109c6,4,1,7,12,13,0,2,2,4,3,6,3,5,9,6,13,2,1-1,3-3,4-5,7-11,11-24,15-37,2-7,4-14,6-22,1-5,2-1,3-15,0-4-1-7-5-9-3,3-5,6-7,11-3,8-7,16-9,25-2,7-8,11-12,16-2,2-4,2-5,0-3-3-6-6-6-11,0-2,0-5-3-7-1,2-3,3-3,5-1,3-3,5-4,8-3,5-7,7-12,5-3-1-5-3-7-5-3-5-5-1-8-15-4-8-4-17-5-25,0-1,0-3,0-4-8,0-11,4-1,11,0,5,1,1,2,15,2,9,3,18,5,27,2,9,6,18,9,28,0,2,2,3,3,6,3-3,6-5,8-7,3-7,1-1,15-15ZM126,1055c-2,0-6,0-7,2-1,1-15,22-11,36,5,16,18,18,31,12,2,0,3-3,5-5,2-3,5-6,6-11,3-14-3-25-14-33-3-2-6-3-9-3ZM194,1093c-5-2-6-3-8-7-2-7-5-14-7-21-2-5-4-9-9-11-4-3-8-1-9,4,0,1,0,3,0,4,0,6,0,11,0,17,0,7,0,14,0,22,0,3,0,6,1,8,0,1,2,2,2,2,0,0,2-1,3-2,0-1,0-3,0-4,0-3,0-6,0-8,0-7,0-13,4-19,0-1,2-2,4-3,0,0,2,2,3,3,2,5,3,1,5,14,1,4,2,8,4,12,2,5,7,6,11,2,3-3,6-7,5-12,0-1-2-2-3-29,0-3,0-6,0-1,0-2,0-4,0-7-5,2-6,6-6,1,0,8,0,16,1,24,0,4,0,9,0,13ZM109,1062s0,0,0,0c0,0-2,1-2,2-2,4-4,9-5,13-2,9,0,18,3,26,4,9,1,13,21,1-11-1-16-7-2-16-3-8-3-17,0-25,1-3,2-7,4-1ZM35,107s0,0,0,0c-5-1-8-22-14-33-1,13,6,22,11,32,0,0,2,1,2,2Z"/>
      <path class="cls-1" d="M21,1048c11-5,22-6,33,0,11,5,19,12,21,24,0,0,0-2,0-3,0-1,0-2,0-3,0-5,2-1,3-15,0-4,8-9,13-1,3,0,5,0,8,0,6,0,11,0,17-1,3,0,3,0,3,4,0,2,0,3-1,5,0,2,0,4,0,6,0,4,0,4-4,4-2,0-5,0-7,0-4,0-6,2-6,7,0,3,1,4,4,4,1,0,2,0,3,0,7-2,7-2,11,5,0,1,2,3,2,4,1,7-2,11-9,1-2,0-4-1-7-2-4,0-7,1-8,5,0,3,0,5,4,5,7,0,14,1,21-2,1,4,4,7,4,1,0,3-2,6-5,9-5,4-1,6-16,6-1,0-3,0-4,0-4,0-8-1-12-3-1,0-3-1-4-3-3-4-5-7-8-11-1,1-3,2-4,4-4,6-11,8-18,11-1,0-3,0-5,0-5,0-9-1-14-2-5,0-7-4-9-8-3-5-3-11-4-17,0-5,0-9-1-14,0-7,0-14-1-21,0-2,0-4,0-6ZM231,1048c-4,0-7,0-9,0-4,0-4,0-4,4,0,12,0,24,0,36,0,5,1,9,2,14,0,1,1,4,2,4,5,2,9,4,14,4,7,0,13-3,19-7,4-3,7-7,5-13,0-2,0-4,0-5,0-9-4-17-7-25,0-1-1-3-2-4-6-6-13-8-21-9ZM285,1072c-1-5-1-12,0-16,1-4,3-5,7-5,2,0,4,0,6,0,3,0,5-2,5-4,0-2-4-5-6-5-4,0-8,2-12,2-7,1-11,4-13,12-3,14-3,29,0,43,1,7,2,8,1,9,0,0,0,0,0,0,6,1,12,0,18-1,3,0,7-2,1-5-1-3-4-4-6-4-6,0-11,0-17,0-2,0-4,0-5-2-3-5-4-1,0-16,1-2,2-2,4-2,4,0,9,0,13,0,1,0,3,0,4-1-2-5-7-8-1-6-3,2-6,0-9,0ZM258,1062s0,0-1,0c2,1,4,2,6,3,0,0,0,0,1,0-2-1-1-2-6-3ZM302,1111c-4,0-8,0-12,2,4,2,9,1,12-2Z"/>
      <path class="cls-1" d="M423,1072c-4,8-4,17-4,25,0,7,1,13,2,2,0,4-1,6-4,7-4,1-9,2-13,3-4,0-5,0-7-4,0-1,0-3,0-4,0-8,0-17,0-25,0-2,0-4,0-6,0-6,0-12,0-18,0-6,0-12,0-18,0-13-2-26-3-39,0-2,0-4,0-6,0,0,0-2,1-2,3-2,6-4,1-3,8,1,16,2,24,0,13-2,25-1,38,0,2,0,5,0,7,0,2,0,4,2,3,3-2,3,0,6,0,8,0,2,1,3,2,5,0,3,0,4-3,4-6,0-13,1-19,2-9,0-19,1-28,0-3,0-5,0-6,4-2,5-2,1-2,14,0,9,0,9,9,9,3,0,5,0,8,0,2,0,4,1,4,3,0,4,0,8,0,11,0,4-3,5-6,5-5,0-9,0-14,1ZM474,1016c0-1,0-2-1-2-2-3-6-4-9-6-8-2-17-5-25-4-9,0-18,0-27,1-2,0-3,0-5,0,0,6,0,11,0,17,0,13-3,25-3,38,0,1,0,2,0,3,0,6,1,12,2,19,0,3,3,6,5,7,4,2,8-2,8-7,0-3-1-6-1-9,0-8,0-15,0-23,0-4,1-7,3-1,0-1,2-3,4-3,4,0,7-1,11-1,4,0,5,0,5-3,0-3,0-5-4-5-3,0-5,0-8,0-4,0-6-1-7-5,0-2-1-4-1-6,0-8,1-16,2-24,0-3,2-5,4-5,3,0,6,0,9,0,3,0,6,0,8,0,6,0,12,0,18,0,4,0,8,0,12,0,0,0,2,0,3,0ZM4,1008c-2,4-2,14,0,19,1-7,2-13,0-19ZM45,1021c0,0,0-1,0-2h-12s0,0,0,0h12ZM403,1123q0-3-4-4c1,2,2,3,4,4Z"/>
      <path class="cls-1" d="M336,1083c-4,3-4,7-3,11,0,4,2,9,3,13,0,2-1,7-3,8-6,4-13,1-14-6-2-13-3-27-1-41,0-9,0-17,0-26,0-3,0-6,2-8,0,0,0-2,0-4,8-1,17-3,26-4,5,0,1,0,15,2,1,0,3,1,4,2,3,4,6,8,9,12,2,3,2,6,0,9-2,5-5,9-1,12-3,2-5,3-7,5-2,1-3,3-2,5,0,4,2,7,4,11,0,2,3,4,6,3,5,0,8,2,11,5,4,3,6,8,7,13,0,5,0,6-5,7-5,0-9,0-14,0-6,0-1-3-13-8-3-6-6-11-1-17,0-2-2-3-3-4ZM376,1106c-2-3-4-6-7-7-3-1-5-3-8-4-6-3-8-9-1-15,0-2-1-4-2-5-2-3-2-4,0-7,1-1,3-3,4-3,7-3,11-9,15-15,2-2,1-5,0-7-3-2-6-5-9-6-8-3-17-3-26-1-3,0-5,1-8,2-3,0-5,3-4,7,0,1,0,19,0,29,0,8,0,16,0,24,0,4,2,8,4,12,0,2,2,2,4,2,2,0,2-2,2-4,0-1,0-2,0-3,0-6-1-12,0-19,0-4,3-5,6-4,2,0,4,1,5,3,2,2,3,5,4,7,2,5,5,9,7,14,3,5,6,6,11,6,4,0,8,0,12-3ZM365,1091s0,0,0,0c1,0,2,0,3,0,0,0,0,0,0,0-1,0-2,0-3,0Z"/>
      <path class="cls-2" d="M239,797c0-9,0-17,0-26,0-6,2-11,4-17,4-9,9-18,15-26,6-6,12-12,19-16,4-3,8-6,12-9,9-7,19-14,28-22,4-4,8-8,12-12,3-3,6-6,9-9,8-8,11-19,1-3,0-4-3-8-5-12-1-3-4-5-6-7-5-6-12-8-19-7-8,0-16,2-25,5-6,2-11,5-15,9-7,6-13,12-18,18-4,5-8,1-9,16,0,3-2,6-4,8-6,9-15,13-26,13-4,0-8,0-12-2-4-2-7-6-9-1-2-4-2-7-2-11,0-6,0-13,1-19,0-5,2-9,5-12,6-6,11-13,15-21,6-11,15-2,25-29,1-8,22-14,34-19,3-1,6-2,9-2,8-1,17-2,25-3,3,0,7,0,1,1,5,2,1,1,15,0,1,0,3,0,4,0,8,2,15,5,23,7,0,0,0,0,0,0,14,5,21,16,29,27,6,7,7,16,9,25,1,7,2,14,4,21,2,9,2,19,1,28,0,1-2,19-2,29,0,4-3,7-5,1-6,7-12,13-18,19-7,8-16,13-25,18-7,4-14,7-2,11,0,0-2,1-3,1-1,2-18,9-26,15-4,3-7,7-9,11-4,1-7,2-9,31-1,7-1,15,0,22,0,4,0,8,0,13,0,4-2,6-5,7-6,2-13,4-19,6-12,3-2-3-24-14-2-6-2-13-3-19,0-6,0-12-1-19,0,0,0,0,0,0Z"/>
      <path class="cls-2" d="M355,738c1,0,2-2,3-2,7-5,15-9,21-14,3-2,6-5,9-8,4-4,8-9,12-13,0,0,1-1,3-2,0,5-3,9-5,12-5,6-1,11-15,16-2,2-4,2-6,4-5,2-9,4-14,6-2,0-4,3-7,2Z"/>
      <path class="cls-2" d="M291,691c-4,6-9,9-14,13-7,5-13,1-18,16-4,5-9,9-13,13,5-1,12-17,2-24,8-7,17-13,26-19Z"/>
      <path class="cls-2" d="M205,676c-6-2-11-6-12-12,0,0,0-2,0-2,0-5,0-1,2-14,0,11,3,21,11,29Z"/>
      <path class="cls-2" d="M254,856c-6,0-12-6-15-14,3,2,6,4,8,6,2,3,5,5,7,7Z"/>
      <path class="cls-2" d="M31,542c-6,0-13,2-19,3,4-3,16-5,19-3Z"/>
      <path class="cls-2" d="M235,78c0,8,0,15,0,23,0,0,0,0,0,0v-23s0,0,1,0Z"/>
      <path class="cls-2" d="M275,855q-9,4-14,2c5,0,9-2,13-3,0,0,0,0,0,1Z"/>
      <path class="cls-2" d="M236,822c-1-3-2-5-1-9,2,3,2,6,1,9Z"/>
      <path class="cls-2" d="M222,59c-1,2-2,4-3,5,0,0,0,0,0,0,1-2,2-4,4-5,0,0,0,0,0,0Z"/>
      <path class="cls-2" d="M294,808c0,1,0,2,0,4,0,0,0,0,0,0v-4s0,0,0,0Z"/>
      <g>
        <path class="cls-1" d="M38,333c0-4,1-9,2-13,2-8,5-15,9-23,0-2,2-3,3-5,6-6,12-11,2-13,8-2,15-7,22-12,5-3,1-4,16-5,3,0,6,0,9-1,8-1,16,2,23,6,4,2,7,5,11,7,0,0,2,1,3,2,13,4,21,13,26,25,0,2,2,3,3,5,1,2,3,5,3,8,0,8,0,15-2,23-4,16-11,3-23,41-5,4-1,8-16,9-8,2-16,4-24,7-1,3-19,8-23,19,0,2,0,3-1,5,0,5-2,11-3,16,0,0,0,0,0,0-3,5-5,9-7,15,0,0-1,2-2,2-5,1-9,4-15,4-3,0-6,0-9-1-6,0-9-4-1-1,0-2,0-4,0-6,0-7,0-14,0-21,0-6,0-11,1-17,2-9,6-16,13-22,6-4,12-8,2-1,5-2,1-4,15-7,8-4,16-7,24-12,5-3,9-7,14-1,3-3,3-7,4-1,2-7,0-14-4-19-3-4-7-6-12-6-12,0-24,4-33,13-3,3-5,7-6,11,0,4-1,8-2,13,0,2-1,5-2,7-2,7-8,9-15,9-1,1-19-2-27-8-3-2-4-6-5-9,0-2,0-4,0-6,0,0,0,0,0,0ZM404,422c0,7,0,13,3,17,0,1,2,3,3,4,4,0,9,0,14,0,2,0,3-1,3-3,0-4,2-8,2-13,0-13,8-22,16-31,7-7,15-1,24-12,6-2,12-3,18-5,14-6,26-15,32-3,4-11,6-22,2-33-2-5-3-1-5-15,0-2-2-3-3-4-6-7-15-11-23-15-5-3-11-3-17-3-11,0-22,2-32,6-7,3-15,6-22,1-9,5-17,1-23,18-6,7-8,16-8,25,0,3,1,6,4,7,6,3,13,4,2,3,1,0,3,0,4-2,2-4,5-8,5-12,0-3,1-6,2-1,2-4,4-9,8-11,4-2,7-5,1-8,3-4,8-7,13-7,7,0,14-1,21,0,4,1,7,4,1,6,11,7,12,2,6,3-1,2-2,4-3,5-4,7-8,13-15,17-5,3-11,5-17,8-4,2-8,3-12,5-6,4-12,8-18,12-4,3-8,6-12,9-4,4-6,9-8,15-1,5-1,11-2,16ZM478,274c-15-7-52,5-6,16,4-2,9-4,14-6,4-1,8-3,11-4,7-3,13-4,2-5,5,0,9,0,15-1ZM482,27c-8-7-24-7-32-2,4,2,7,0,11,0,3,0,7,0,1,0,3,0,7,0,11,1ZM422,448c-3,0-5,0-8,0-9,0-13-4-15-12,0,0,0-2-1-4-1,16,12,22,24,16ZM411,285c-12,5-19,15-21,23,7-7,11-17,21-23ZM422,348c4-5,5-9,5-18-4,5-4,11-5,18ZM405,395c-4,4-6,1-5,13,2-5,3-9,5-13ZM438,418s0,0-1,0c0,3,0,6-1,9,0,0,0,0,1,0,0-3,0-6,1-9Z"/>
        <path class="cls-1" d="M585,444c-4,0-8,0-12,0-2,0-3,0-5,2-1,2-3,4-4,5-2,3-4,6-7,9-2,2-4,3-7,2-5-1-1-3-15-5-2,0-3-2-3-4,0-1,2-2,9-27,4-4,8-7,14-6,4,0,8,0,11,1,7,2,12,0,17-4,2-2,4-4,5-6,2-3,1-7-3-8-3,0-7,0-11-1,0,0-2,0-3,2-1,2-3,3-6,3-5,0-11,0-16-2-1,0-3-2-3-3-4-8,0-2,1-25,6-2,12-4,19-5,2,0,4,0,6,1,1,0,2,1,4,1,7,0,13,3,19,7,7,5,11,11,11,2,0,4,0,8,0,12-1,6-3,13-7,18,0,0,0,1,0,2-3,1-11,12-2,12-1,0-3,0-4,0h0ZM551,395c4,2,8,2,12,1,6-1,11-3,17-3,8-1,16,5,16,13,0,9-2,16-9,22-6,4-12,6-18,3-3-1-6-3-8-4-3-2-6-2-8,0-2,2-4,5-6,7-3,4-4,1-6,15,4,2,8,2,12,2,0,0,0-1,0-1,0,0,0,0,0-1,0-5,3-7,8-8,2,0,4,0,5-2,3-2,6-2,9-2,3,0,7,0,1,0,3,0,6,0,9-1,5-2,7-6,1-9,3-3,5-6,5-1,0-6,0-12-1-17-1-6-4-12-9-15-4-2-9-4-13-6-7-3-14-2-21,2-2,1-5,3-7,4-4,2-6,6-8,11Z"/>
        <path class="cls-1" d="M304,291c3,0,7,0,11,2,7,2,12,8,14,15,2,5,3,1,4,16,0,5,1,1,0,15,0,5-2,9-6,14-6,8-15,1-24,12-6,1-1,4-13,9-2,3-2,7-3,11,0,5-2,9-7,12-4,3-8,3-12,0-2-1-4-2-6-4-1,0-2-2-3-3-1-5-2-1,0-14,2-4,4-8,6-12,2-4,5-7,8-9,5-4,12-5,18-8,4-1,7-2,1-4,4-3,7-7,9-13,0,0,0-2,0-2-1-4-8-8-12-7-6,1-11,5-12,11,0,2-1,5-2,7,0,3-3,3-5,3-3,0-6,0-9-3,0,0-2-1-2-2-6-3-8-9-5-15,4-1,1-19,19-24,6-3,12-6,19-6ZM267,388c4,2,7,3,11,2,2,0,3-1,3-3,0-3,0-7,0-1,0-2,0-3,0-5,3-8,8-12,16-13,3,0,7,0,1-2,6-1,1-5,15-9,6-5,7-12,7-19,0-5-2-1-4-14-2-4-3-7-5-11-3-5-7-6-12-6-6,0-12,2-18,4-5,1-1,4-13,9-2,3-4,7-6,11-2,3-1,6,1,9,1,1,2,4,5,3,2,0,4-2,5-4,2-4,4-8,6-13,0,0,2-2,2-2,5-3,1-4,15-3,3,0,6,2,7,5,1,3,2,5,4,8,4,9,0,2-1,23-6,2-13,4-19,7-1,0-2,1-3,2-5,3-8,7-11,11-2,2-4,4-4,6-1,5-2,11-2,16ZM303,295h0c-1,0-3,0-4,0h0c1,0,3,0,4,0Z"/>
        <path class="cls-1" d="M411,522c-4,0-9,0-13-1-12-1-13-3-16-15-1-5,0-1-1-16,0-9,9-18,18-17,6,0,13,1,19,2,5,0,7,3,8,8,2,9,3,18,3,27,0,6-5,12-11,12-2,0-5,0-7,0,0,0,0,0,0,0ZM424,498c0-3,0-7-1-11,0-3-2-5-5-7-5-2-11-3-17-2-7,0-9,6-12,12,0,0,0,1,0,2,0,5,2,1,4,15,2,3,3,6,7,6,0,0,2,1,2,1,0,0,2,1,3,1,3,0,7,0,1,0,5,0,7-2,8-7,0-3,0-6,0-1Z"/>
        <path class="cls-1" d="M689,81c-1,0-2,0-2,0-4-5-2-15,4-18,3-1,7-2,1-3,9-1,15-8,13-17,0,0,0-1,0-2-3-4-12-9-19-6-4,2-7,4-8,8,0,0,0,1,0,1,0,0-2,2-3,2,0,0-2-2-2-2,0-3,0-6,2-7,5-6,1-11,18-11,4,0,8,1,11,4,12,7,14,2,1,31,0,1-1,2-2,3-5,4-1,6-16,6-2,0-4,0-6,0-5,0-8,2-8,7,0,2,0,3,0,6Z"/>
        <path class="cls-1" d="M552,71c-5-1-8-4-8-9,0-6,5-14,12-15,2,0,5,0,7-2,4-1,6-5,5-9-1-5-5-8-1-9-5-1-9,0-12,4-1,2-3,3-4,5-3,0-4,0-5-3-1-2-1-4,0-6,4-7,14-12,22-1,2,0,5,2,7,4,2,1,3,3,5,4,6,5,7,13,2,2-3,5-7,7-12,8-3,0-5,2-8,3-3,2-4,4-4,7,0,2,0,5,0,8Z"/>
        <path class="cls-1" d="M611,98c-1,0-1,0-2,0-5-2-6-5-3-1,7-13,29-13,37,0,0,0,0,1,0,2,2,6,0,12-1,17-2,4-6,8-11,7,0,0-2,0-3,1-5,3-7,7-8,12,0,2,0,3-1,6-4-3-5-7-4-11,0-2,0-4,0-6,0-4,3-7,7-8,3,0,5-1,8-1,4,0,6-3,7-7,1-8-3-13-11-13-1,0-2,0-3,0-5,0-9,2-1,8,0,1,0,2-1,4Z"/>
        <path class="cls-1" d="M342,81c0,6-6,14-14,16-3,0-5,1-8,2-5,2-6,3-5,8,0,0,0,1,0,2,0,2,0,4-3,5-2,0-2-2-3-4-2-7,0-14,5-16,4-2,7-3,11-4,7-2,12-1,1-17,0-1,0-2-2-3-4-5-14-4-17,1,0,1,0,3-1,5,0,1-1,3-2,4-2,0-4,0-5-2,0-1-2-2-3-3,0-2,0-4,1-5,1,0,3-2,3-3,7-1,16-8,25-3,6,4,7,1,8,17Z"/>
        <path class="cls-1" d="M392,215c-2,0-3,0-4,0,0,0-2,0-2,0-1-4-3-8-1-13,1-3,3-5,7-5,3,0,7,0,1-2,2,0,5-2,6-4,1-2,1-5-1-8-4-4-7-7-13-5-2,0-4,1-6,3-1,1-2,3-4,4-2,1-4,0-3-2,1-7,6-13,14-14,5,0,1,0,14,3,3,2,5,5,6,9,0,4,2,8,0,12,0,1-2,3-3,4-4,3-9,5-14,8-1,0-3,2-4,2-2,1-3,3-1,5,0,1,0,3,0,4Z"/>
        <path class="cls-1" d="M451,92c-3-6-2-11,2-14,4-3,8-6,14-6,8,0,13,3,18,8,0,0,2,2,2,3,0,8,0,15-8,19-3,1-5,3-7,5-2,2-3,4-3,7,0,2,0,4-1,6-3,0-4-1-5-3-5-7-3-16,6-19,2,0,4,0,5-1,3,0,6-4,6-8,0,0,0-2,0-3-2-4-8-7-12-7-6,0-12,3-14,1,0,0-1,2-3,3Z"/>
        <path class="cls-1" d="M524,192c-1-3,0-4,0-6,2-3,3-8,7-9,0,0,2,0,2,0,0,0,2,0,2,0,7-2,13,0,19,4,2,1,4,2,4,5,0,4,0,9,0,13,0,3-2,5-4,6-4,2-8,3-12,5,0,0-2,0-3,0-6,2-11,4-1,11,0,0,0,1,0,2-1,0-3,0-4-1,0-2,0-5-1-7-1-5,4-1,9-1,3,0,5,0,8,0,4,0,7-3,9-6,3-4,2-9-2-12-2-2-5-3-8-4-4-1-7,0-1,2-1,0-2,2-2,4,0,3-2,4-6,4Z"/>
        <path class="cls-1" d="M385,39c-3-4-3-7-1-1,4-9,17-11,24-4,1,8,6,17,2,24,0,1-3,2-5,3-1,0-3,0-5,1-3,1-6,3-5,7,0,2,0,3-2,3-1,0-3-2-3-2,0-3,0-7,2-1,1-1,3-3,4-4,0,0,2,0,2-2,5-4,6-9,3-14-2-3-4-3-7-3-5,0-8,3-9,8,0,1-1,2-2,4Z"/>
        <path class="cls-1" d="M243,21c-4-2-4-2-4-7,0-6,5-9,1-11,5-2,12,0,16,4,3,4,3,7,2,12-1,3-3,6-7,7-3,1-6,4-9,7,0,0-1,3-1,4,0,2,0,4,0,6,0,3-2,3-4,4-2,0-3-1-3-3,0-2,0-5,0-7,0-5,5-12,1-14,2,0,3,0,5-1,3-1,5-4,5-7,0-2-1-4-3-5-3-1-7,0-8,2-2,3-4,6-6,1Z"/>
        <path class="cls-1" d="M274,408c0,3,0,6,0,8,0,4,0,8,0,12,0,2-2,4-4,4-6,2-12,2-17,2,0,0-1,0-2,0-4-5-8-1-6-17,2-8,7-12,15-12,4,0,8,1,13,2,0,0,2,1,2,1ZM261,429c9,0,1-3,8-11,0-2-2-5-3-7-1-2-2-3-5-2-2,1-4,3-6,4-3,3-3,7-1,1,2,3,4,5,8,5ZM27,418c1-5,0-8-3-9,1,3,2,6,3,9Z"/>
        <path class="cls-1" d="M522,481c0-8,7-13,14-11,2,0,4,1,7,2,0,0,0,0,0,0,4,2,6,1,5,15-2,5-6,8-11,7-1,0-2,0-3,0-7-1-11-6-11-13ZM538,49c4,0,6,0,7-3,1-4,0-8-2-11-2-3-5-2-8-2-6,0-9,6-6,11,2,3,6,5,9,6Z"/>
        <path class="cls-1" d="M549,84c4,0,6,1,6,4,0,3-1,5-4,6,0,0-2,0-2,0-3,0-6,0-7-4,0-3,2-6,5-7,0,0,2,0,3,0Z"/>
        <path class="cls-1" d="M393,85c-4,0-7-2-7-5,0-3,3-5,6-5,4,0,6,2,6,5,0,3-2,6-5,6Z"/>
        <path class="cls-1" d="M687,99c-3,0-7-4-7-7,0-2,4-4,7-3,2,0,4,2,5,4,2,3,0,6-4,6Z"/>
        <path class="cls-1" d="M32,131c0,2,0,4-3,5-1,0-3,1-4,0,0,0-2-2-2-4,0-1,0-3,0-4,0-2,1-4,4-4,3,0,3,2,4,4,0,0,0,2,0,2Z"/>
        <path class="cls-1" d="M391,232c0-3,2-5,5-5,3,0,4,2,4,6,0,3-2,5-5,5-2,0-4-2-4-6Z"/>
        <path class="cls-1" d="M613,143c0-1,1-3,2-4,1-2,3-2,4,0,3,2,3,6,2,8-2,3-5,3-6,0,0-1,0-2-1-4Z"/>
        <path class="cls-1" d="M249,53c1,3,3,6,0,9-1,1-3,2-5,0-2-1-2-5-2-7,0-2,2-3,6-2Z"/>
        <path class="cls-1" d="M472,14c0,0,0,2,0,2-1,1-2,2-4,2,0,0-2-1-3-2,0-1,0-3,0-4,0-3,3-5,5-5,2,0,3,3,3,7Z"/>
        <path class="cls-1" d="M528,234c3,2,4,4,3,8,0,1-1,3-2,3-1,0-3,0-4-2-2-3-1-6,2-8Z"/>
        <path class="cls-1" d="M637,2c2-2,4-3,6,0-3,3-3,3-6,0Z"/>
        <path class="cls-2" d="M404,422c0-5,0-11,2-16,1-5,3-11,8-15,4-3,8-6,12-9,6-4,12-8,18-12,4-2,8-4,12-5,6-3,11-5,17-8,7-4,11-1,15-17,1-2,2-4,3-5,6-1,5-23-6-3-3-2-6-5-1-6-7-2-14-2-21,0-5,0-9,3-13,7-3,3-6,6-1,8-4,2-7,6-8,11-1,3-2,6-2,1,0,5-3,8-5,12,0,1-2,2-4,2-7,2-13,0-2-3-3-1-4-4-4-7,0-9,2-17,8-25,6-8,14-14,23-18,7-4,15-6,22-1,1-5,21-6,32-6,6,0,11,0,17,3,8,4,16,8,23,15,1,1,2,3,3,4,2,5,3,1,5,15,4,11,2,22-2,33-6,15-18,24-32,3-6,2-12,4-18,5-9,2-17,5-24,12-8,9-15,18-16,31,0,4-1,8-2,13,0,2-1,3-3,3-5,0-9,0-14,0-1,0-2-2-3-4-2-4-3-1-3-17Z"/>
        <path class="cls-2" d="M478,274c-6,0-1,0-15,1-7,0-14,2-2,5-4,2-8,3-11,4-5,2-9,4-14,6,8-11,46-23,6-16Z"/>
        <path class="cls-2" d="M482,27c-4,0-8-1-11-1-3,0-7,0-1,0-3,0-7,2-11,0,8-5,24-5,32,2Z"/>
        <path class="cls-2" d="M422,448c-12,6-25,0-24-16,0,2,0,3,1,4,2,8,5,11,15,12,3,0,5,0,8,0Z"/>
        <path class="cls-2" d="M411,285c-9,6-13,16-21,23,1-8,9-18,21-23Z"/>
        <path class="cls-2" d="M422,348c0-7,0-13,5-18,0,9,0,13-5,18Z"/>
        <path class="cls-2" d="M405,395c-2,4-3,9-5,13-1-3,0-9,5-13Z"/>
        <path class="cls-2" d="M438,418c0,3,0,6-1,9,0,0,0,0-1,0,0-3,0-6,1-9,0,0,0,0,1,0Z"/>
        <path class="cls-2" d="M551,395c1-5,3-9,8-11,2-1,4-3,7-4,7-3,14-5,21-2,5,2,9,4,13,6,6,3,8,9,9,15,0,6,0,11,1,17,0,4-1,8-5,1-3,3-6,7-1,9-3,1-6,2-9,1-3,0-7,0-1,0-3,0-6,0-9,2-1,0-3,1-5,2-5,0-8,3-8,8,0,0,0,0,0,1,0,0,0,0,0,1-4,0-8,0-12-2,2-5,3-1,6-15,2-3,4-5,6-7,2-2,5-2,8,0,3,2,5,3,8,4,7,3,12,2,18-3,7-6,9-13,9-22,0-8-8-14-16-13-6,0-11,2-17,3-4,0-7,0-12-1Z"/>
        <path class="cls-2" d="M267,388c0-6,1-11,2-16,0-2,3-4,4-6,3-4,6-9,11-11,1,0,2-1,3-2,6-2,13-4,19-7,9-3,14-14,1-23-1-3-2-5-4-8-1-3-4-5-7-5-5,0-1,0-15,3,0,0-2,1-2,2-2,4-5,8-6,13-1,3-3,3-5,4-2,0-3-2-5-3-2-3-3-6-1-9,2-4,4-7,6-11,3-4,8-7,13-9,6-2,12-3,18-4,5,0,1,1,12,6,2,3,3,7,5,11,2,5,4,9,4,14,0,7,0,14-7,19-4,4-9,8-15,9-3,0-7,1-1,2-8,0-13,5-16,13,0,1,0,3,0,5,0,3,0,7,0,1,0,2-1,3-3,3-4,0-7,0-11-2Z"/>
        <path class="cls-2" d="M303,295c-1,0-3,0-4,0h0c1-1,3-1,4-2h0Z"/>
        <path class="cls-2" d="M424,498c0,4,0,7,0,1,0,5-3,7-8,7-3,0-7,0-1,0,0,0-2,0-3-1,0,0-2-1-2-1-4,0-6-4-7-6-3-5-3-1-4-15,0,0,0-1,0-2,3-5,5-11,12-12,6,0,11,0,17,2,3,1,5,4,5,7,0,4,1,8,1,11Z"/>
        <path class="cls-2" d="M261,429c-3,0-6-2-8-5-2-3-2-7,1-1,2-2,4-3,6-4,2-1,4,0,5,2,1,2,2,5,3,7,3,7,1,1-8,11Z"/>
        <path class="cls-2" d="M27,418c-1-3-2-6-3-9,3,1,4,3,3,9Z"/>
        <path class="cls-2" d="M538,49c-3,0-7-2-9-6-3-5,0-11,6-11,3,0,6,0,8,2,2,3,3,7,2,11,0,2-3,3-7,3Z"/>
      </g>
      <path class="cls-2" d="M605,1124c-2,0-3-2-3-4,0-8-1-16,0-24,0-1,0-3,0-4,0-4-1-7-6-8-2,0-4,1-5,3-1,2-2,4-3,6,0,0,0,2-2,2-1,1-3,1-4,0,0-2-2-4-3-6,0-2-2-3-3-4-2-3-4-2-6,0-4,5-7,11-6,18,0,4,0,8,0,12,0,2,0,3-1,5-4-2-4-4-4-7,0-8,0-16,0-25,0-6,1-12,1-19,0-4,2-7,5-9,4-3,8-2,1,2,2,3,3,6,5,9,2,3,4,4,8,3,0,0,0-2,0-3,0,0,0-2,1-2,5-1,6-5,8-9,0,0,0,0,0,0,2,1,3,4,3,6,0,6,2,11,2,17,0,11,0,23,0,34,0,3,0,6-3,8Z"/>
      <path class="cls-2" d="M644,105c-2,2,0,4,0,5,1,2,3,3,3,6-2,0-4-1-6-2-5-2-8,0-1,4-2,5-2,1,2,14,4,4,9,7,14,11,1,0,2,1,3,2,5,6,9,13,1,21,0,0,0,0,0,0,0,7,0,11-1,14-5,1-1,0-16,0-2,0-4,0-6-1-7-1-12-9-1-16,2,0,3,1,5,2,2,1,3,3,5,5,4,4,1,5,15,3,4,0,6-4,5-8,0,0,0-2,0-3,0-6-3-11-8-14,0,0-1-1-2-1-7-3-11-1-15-16-2-4-2-8-1-12,1-5,4-9,7-12,3-3,9-4,15-1Z"/>
      <path class="cls-2" d="M485,1062c3-2,4,0,5,1,2,3,4,6,6,1,2,7,5,14,4,22,0,9-1,18-18,19-3,0-5,0-8,0-1,0-16-4-19-13,0-2-2-4-3-6-2-4-1-8,0-12,1-7,4-14,1-19,4-3,8-6,12-8,3-1,7-1,1,3,0,0,0,0,2,2ZM471,1105c3,0,15-3,17-4,4-2,6-6,6-1,0-3,0-6-2-8-3-5-6-1-9-14-3-5-9-5-14-2-2,2-4,4-5,6-6,6-7,13-6,21,0,7,7,12,13,12Z"/>
      <path class="cls-2" d="M518,1118c-4-2-5-5-5-8-3-15-2-31-1-46,4-2,8-5,13-5,2,0,3,0,5,1,1,0,3,0,5,0,0,0,0,0,0,0,2,1,4,3,6,4,6,5,5,11-1,15-5,3-6,6-5,12,0,1,0,3,1,4,2,6,4,12,11,15,2,0,4,2,3,4-1,2-3,1-5,1-4,0-7-2-8-6-2-5-3-1-5-15,0-2-1-3-2-5-3-3-7-3-9,0-2,3-3,7-2,11,0,4,0,9,1,13,0,1,0,2,0,4ZM517,1074c0,6,2,7,7,5,0,0,2,0,3,0,2,0,4-1,5-2,2-2,3-3,1-6-1-3-2-6-6-7,0,0,0,0,0,0-7,1-8,3-9,1,0,0,0,0,0,1Z"/>
      <path class="cls-2" d="M449,1078c0,2,0,4,0,6-1,4-1,7,0,11,2,5,4,1,6,16-7-5-1-1-1-18,0-8,0-12,5-15Z"/>
      <path class="cls-2" d="M559,1083c0,12-1,25,0,38-3-2-3-4-3-6-1-1,0-21,2-31,0,0,0,0,0,0Z"/>
      <path class="cls-2" d="M609,1063c0,0,1,2,1,3,1,6,2,34,0,39-1-2,0-5,0-8,0-3,0-6,0-9,0-3,0-6,0-8,0-3,0-6,0-9,0-3,0-5,0-8,0,0,0,0,0,0Z"/>
      <path class="cls-2" d="M642,1065c-3,2-5,3-8,5-1-3,0-5,1-6,2-2,3-2,7,1Z"/>
      <path class="cls-2" d="M612,1112c0,3,1,6,2,9,0,1,0,3-2,3-2,0-2-2-1-3,0-3,0-6,0-9,0,0,0,0,1,0Z"/>
      <path class="cls-2" d="M507,108v12c0-4-2-8-1-12,0,0,0,0,1,0Z"/>
      <path class="cls-2" d="M56,1072c0,1,0,2,0,3,0,0,0,0,0,0v-3s0,0,0,0Z"/>
      <path class="cls-2" d="M587,1068c0,0,1,1,2,2,0,0,0,0,0,0,0,0-1,0-2-2h0Z"/>
      <path class="cls-2" d="M48,109c-5,5-12,8-15,15-1,3-5,4-8,7-1-2-2-4-3-6-3-9-6-18-9-28-2-9-4-18-5-27,0-5-2-1-2-15,0-7,2-1,1-11,0,1,0,3,0,4,1,9,2,17,5,25,2,5,5,1,8,15,2,2,4,4,7,5,5,2,9,0,12-5,1-3,2-5,4-8,0-2,2-3,3-5,3,2,3,5,3,7,0,5,4,8,6,11,2,2,4,2,5,0,4-5,1-9,12-16,2-8,6-17,9-25,2-5,4-8,7-11,3,2,6,5,5,9,0,5-2,1-3,15-2,7-4,14-6,22-3,13-7,26-15,37-1,2-2,3-4,5-4,4-1,3-13-2-1-2-2-4-3-6-3-6-6-9-12-13Z"/>
      <path class="cls-2" d="M126,1055c4,0,7,0,9,3,11,8,17,19,14,33,0,4-4,7-6,11-1,2-3,4-5,5-12,6-26,3-31-12-4-14,0-26,11-36,2-2,5-2,7-2Z"/>
      <path class="cls-2" d="M194,1093c1-4,1-9,0-13,0-8-1-16-1-24,0-4,1-8,6-1,0,3,0,5,0,7,0,3,0,7,0,1,0,1,2,2,3,29,0,5-2,9-5,12-4,4-9,3-11-2-2-4-3-8-4-12-2-5-3-1-5-14,0-1-2-3-3-3-1,0-3,1-4,3-4,6-4,12-4,19,0,3,0,6,0,8,0,1,0,3,0,4,0,1-2,2-3,2,0,0-2-1-2-2,0-3-1-5-1-8,0-7,0-14,0-22,0-6,0-11,0-17,0-1,0-3,0-4,2-5,5-6,9-4,4,3,7,7,9,11,2,7,5,14,7,21,1,4,3,6,8,7Z"/>
      <path class="cls-2" d="M109,1062c-1,3-3,7-4,1-3,8-3,17,0,25,3,8,9,15,2,16-12,3-17,0-21-1-3-8-5-17-3-26,0-5,3-9,5-13,0,0,2-1,2-2,0,0,0,0,0,0Z"/>
      <path class="cls-2" d="M35,107c0,0-2-1-2-2-5-1-12-19-11-32,6,11,8,23,14,33,0,0,0,0,0,0Z"/>
      <path class="cls-2" d="M231,1048c7,0,15,2,21,9,0,1,2,2,2,4,3,8,6,16,7,25,0,2,0,4,0,5,2,6-1,1-5,13-5,4-12,7-19,7-5,0-1-2-14-4-1,0-2-3-2-4,0-5-2-9-2-14,0-12,0-24,0-36,0-4,0-4,4-4,3,0,6,0,9,0ZM225,1061c0,12,0,14,4,29,3,8,4,9,12,5,3-1,5-3,7-5,3-5,0-2-5-23-1,0-2-1-3-2-3-3-6-3-9-3-2,0-4,0-6,0Z"/>
      <path class="cls-2" d="M285,1072c3,0,6,0,9,0,3-2,8,2,1,6-1,0-3,1-4,1-4,0-9,0-13,0-2,0-3,0-4,2-4,5-3,11,0,16,0,2,3,2,5,2,6,0,11,0,17,0,3,0,5,1,6,4-3,3-6,4-1,5-6,0-12,3-18,1,0,0,0,0,0,0-8-2-9-2-1-9-2-14-3-29,0-43,2-7,5-11,13-12,4,0,8-2,12-2,2,0,6,3,6,5,0,2-2,4-5,4-2,0-4,0-6,0-4,0-6,1-7,5-1,4-2,11,0,16Z"/>
      <path class="cls-2" d="M258,1062c5,9,5,2,6,3,0,0,0,0-1,0-2-1-4-2-6-3,0,0,0,0,1,0Z"/>
      <path class="cls-2" d="M302,1111c-3,3-8,4-12,2,4-2,8-1,12-2Z"/>
      <path class="cls-2" d="M474,1016c-1,0-2,0-3,0-4,0-8,0-12,0-6,0-12,0-18,0-3,0-6,0-8,0-3,0-6,0-9,0-2,0-4,2-4,5,0,8-1,16-2,24,0,2,0,4,1,6,1,3,3,5,7,5,3,0,5,0,8,0,4,0,5,2,4,5,0,3-1,3-5,3-4,0-7,0-11,1-1,0-3,2-4,3-1,3-3,7-3,1,0,8,0,15,0,23,0,3,0,6,1,9,0,4-4,8-8,7-3-1-5-4-5-7,0-6-2-12-2-19,0-1,0-2,0-3,0-13,2-25,3-38,0-5,0-11,0-17,2,0,4,0,5,0,9,0,18,0,27-1,9,0,17,1,25,4,4,1,7,2,9,6,0,0,0,1,1,2Z"/>
      <path class="cls-2" d="M4,1008c2,7,2,12,0,19-2-5-3-15,0-19Z"/>
      <path class="cls-2" d="M45,1021h-12c0,0,0-1,0-2h12c0,0,0,1,0,2Z"/>
      <path class="cls-2" d="M403,1123c-1-2-2-3-4-4q3,1,4,4Z"/>
      <path class="cls-2" d="M376,1106c-4,3-8,3-12,3-5,0-8-2-11-6-3-4-6-9-7-14,0-3-2-5-4-7-1-1-3-2-5-3-4,0-6,0-6,4-1,6,0,12,0,19,0,1,0,2,0,3,0,1,0,3-2,4-2,0-3,0-4-2-2-4-4-7-4-12,0-8,0-16,0-24,0-1,0-19,0-29,0-4,1-6,4-7,3,0,5-1,8-2,9-1,18-2,26,1,3,1,6,4,9,6,2,2,2,5,0,7-4,6-8,12-15,15-2,0-3,2-4,3-2,3-2,4,0,7,0,2,2,4,2,5,2,6,4,11,1,15,3,2,5,3,8,4,3,1,5,4,7,7ZM331,1042c0,3-2,5-2,8,0,4,0,8,0,11,0,2,0,3,3,3,7,1,19-4,23-9,2-3,2-8-2-1-4-2-8-4-13-6-2,3-5,4-1,3Z"/>
      <path class="cls-2" d="M365,1091c1,0,2,0,3,0,0,0,0,0,0,0-1,0-2,0-3,0,0,0,0,0,0,0Z"/>
      <path class="cls-1" d="M471,1105c-7,0-13-5-13-12,0-8,0-15,6-21,2-2,3-4,5-6,5-4,1-3,14,2,3,5,6,9,9,14,1,3,2,6,2,8,0,4-2,8-6,1-2,1-14,4-17,4ZM487,1087c0-6-3-13-7-17-2-2-5-3-7,0-3,3-6,6-9,9,0,1,0,3,0,5,0,5,3,9,6,13,3,3,7,4,11,2,4-3,7-7,7-12Z"/>
      <path class="cls-1" d="M517,1074s0,0,0-1c0-7,2-9,9-1,0,0,0,0,0,0,4,0,5,4,6,7,1,3,1,5-1,6-2,1-3,2-5,2,0,0-2,0-3,0-5,2-7,0-7-5ZM53,1071q-2-4-9-3c0,2,0,4-1,6,5,0,7,0,1-3Z"/>
      <path class="cls-1" d="M225,1061c2,0,4,0,6,0,3,0,7,0,9,3,0,0,2,2,3,2,5,4,8,18,5,23-2,2-4,4-7,5-8,4-9,3-12-5-5-14-5-16-4-29ZM232,1065c-2,6-1,17,0,22,0,0,0,1,1,2,1,2,2,2,4,1,6-2,8-7,7-12-1-5-5-9-9-12-1,0-3,0-4,0Z"/>
      <path class="cls-1" d="M331,1042c4,0,7,0,1-3,4,2,9,4,13,6,3,2,4,6,2,1-4,6-16,11-23,9-2,0-2-2-3-3,0-4,0-8,0-11,0-2,1-5,2-8ZM343,1045c-8,0-12,3-11,9,0,3,0,4,4,4,5,0,9-2,13-5,3-2,2-5,0-6-2,0-4-1-5-2Z"/>
      <path class="cls-2" d="M487,1087c0,5-3,9-7,12-3,2-8,1-11-2-3-4-6-8-6-13,0-2,0-4,0-5,3-3,6-6,9-9,2-2,5-1,7,0,4,4,7,1,7,17Z"/>
      <path class="cls-2" d="M53,1071c-3,3-5,4-1,3,0-2,0-4,1-6q6-1,9,3Z"/>
      <path class="cls-2" d="M232,1065c1,0,3,0,4,0,4,3,8,7,9,12,1,6-1,1-7,12-2,0-3,0-4-1,0,0,0-1-1-2-2-4-3-16,0-22Z"/>
      <path class="cls-2" d="M343,1045c1,0,3,0,5,2,3,1,3,4,0,6-4,3-8,5-13,5-3,0-4,0-4-4,0-6,2-9,11-9Z"/>
    </g>
  </g>
</svg>