<?xml version="1.0" encoding="UTF-8"?>
<svg id="Layer_2" data-name="Layer 2" xmlns="http://www.w3.org/2000/svg" viewBox="0 0 559 271">
  <defs>
    <style>
      .cls-1 {
        fill: #000;
      }

      .cls-1, .cls-2 {
        stroke-width: 0px;
      }

      .cls-2 {
        fill: #fff;
      }
    </style>
  </defs>
  <g id="Layer_1-2" data-name="Layer 1">
    <g>
      <path class="cls-1" d="M497,254c2-1,3-2,5-3,6-2,9-5,9-12,0-7-1-14-1-2,0-1,0-19,1-29,0-3,2-5,4-8,2-3,2-5,0-8-5-4-7-9-7-16,0-12,0-24,0-36,0-5,0-1-7-11-1,0-2-2-2-4,1,0,3-2,4-2,5,0,9,3,9,8,0,9,0,17,0,26,0,7,0,13,1,2,1,12,8,16,21,14,19-4,26-16,25-35-2-24-12-45-3-62-11-1-24-17-38-19,0,0-2,0-3,0-15,4-3,6-43,16-8,6-15,13-22,2,0,0-1,3-1,5,0,2,0,5,0,7,0,4-2,6-6,6-21,1-41,3-62,5-7,0-14,0-21,1-2,1-41,2-61,3-21,1-42,2-63,5-15,2-29,6-43,1-9,3-16,8-25,12,4,3,8,5,12,7,15,11,3,24,47,34,13,8,28,12,43,17,3,1,7,1,1,2,7,0,13-6,13-15,0-7,0-14,0-2,0-8,4-12,12-13,1,0,2,0,3,1,0,0-2,2-3,2-6,2-8,6-8,13,0,5,0,1,0,15,0,8,1,17-1,2,12,12,1,26,9,4,0,3,0,7,1,1,0,2,4,4,6,5,2,0,5,0,8,1-5,5-15,3-17-3-2-5-2-1-2-14,0-8,0-16,0-24,0-5-3-9-8-1-1-3-2-5-29-8-14-4-27-9-41-12-13-3-26-5-39-7-16-3-33-6-49-9-12-2-24-4-36-7-12-4-24-9-33-18-6-6-8-13-8-21,0-16-3-32-11-47C0,72-2,57,2,42,6,28,13,14,27,6c6-4,15-4,22-5,16-2,32,3,47,8,16,5,31,1,47,14,4,1,9,0,14,0,12,0,23,0,35,0,11,0,21-2,32-3,2-1,41-2,61-3,23,0,46,0,69,0,17,0,35,0,52,0,5,0,1,1,14,4,9,6,18,11,28,15,16,7,32,14,49,21,8,3,16,6,23,1,6,4,12,1,17,16,14,18,23,38,24,61,0,2-18,35-34,35-6,0-7,5-9,9-2,7-3,14-3,21,0,12,0,23,0,35,0,8-4,12-12,12-1,0-3,0-5-2ZM423,7c-2,3-3,7-5,1,0,0,0,0,1,0,2-2,4-4,6-6-2,2-4,4-5,7-1,3-2,6-4,1,1-8,19-16,29-22,1-6,22-9,34-13-15,2-3,5-44,12,2-1,3-3,5-4,8-3,17-6,25-8h0c-8,0-17,2-25,4,3-1,5-2,8-4-2,0-4,0-6,0-7,2-14,4-2,9-1,1-5,3,0,4ZM144,177c-18-2-35-4-53-6-3,0-5,0-8,0,0,0,0,0,0,1,29,5,58,11,88,16-3-2-5-3-7-4h4c-26-13-52-23-81-15,1,0,2,1,3,3,9,1,18,4,27,6ZM411,101c0-2,0-4,0-5,0-21,0-41-1-62,0-15,2-12-14-12-29,0-57,0-86,2-26,0-52,0-78,2-24,1-48,3-72,5-13,1-25,3-38,5-5,0-7,3-6,8,0,5,0,11,0,16,0,18,0,35,0,53,0,3,0,4,4,4,6,0,12-1,18-1,13,0,26,0,38,0,13,0,27,0,4,0,3,0,61-2,91-3,14,0,28-1,41-3,21-2,42-5,64-8ZM13,26s0,0,0-1c0,0-2,0-3,0-1-3-2-6-31-9-12-3-23-6-35-8-5,0-11,0-16,0-1,1-17,7-25,13C7,32,2,52,9,69c5,12,8,25,11,38,2,1,3,21,5,32,2,8,6,14,14,17,23,9,46,1,69-2,6-3,11-6,17-9,13-7,25-15,38-23-2,0-3,0-4,0-14,0-29,0-43,0-8,0-9,0-9-9,0-15,0-31,0-46,0-11,0-22,0-33,0-4,2-7,7-7,5,0,1-1,15-2ZM159,168c-2-2-4-4-6-6-9-7-18-16-32-7-2,1-5,2-7,3,0,0,0,0,0,1,16-2,31,0,45,8ZM47,48c-17-8-35-16-52-25,14,15,32,22,52,25ZM186,191c-22-17-46-29-75-28,27,3,51,15,75,28ZM445,5c-9-4-19-8-28-12,0,7,18,15,28,12ZM446,45c-9-6-2-12-29-18,0,7,17,18,29,18ZM418,66c5-4,9-7,14-1-8,0-15,4-14,1ZM157,189c0,0,0-1,0-2-9-2-18-3-28-5,0,0,0,1,0,2,9,2,18,3,28,5ZM136,161s0,0,0,1c7,3,13,5,2,8,0,0,0,0,0-1-7-3-13-5-2-8ZM418,45c2,6,7,8,13,6-5-2-9-4-13-6ZM9,177c0,0,0-1,0-2-7-1-13-2-2-3,0,0,0,0,0,0,7,1,13,3,2,4Z"/>
      <path class="cls-1" d="M321,238c-9,0-18,0-27,2-3,0-6,0-7-4-1-4-3-7-4-11,0-8,0-17,0-25,0-6,4-9,9-1,4,0,9-1,13-2,8,0,16,0,23-1,6,0,8,2,9,9,0,9,2,18,3,27,0,2,0,5,0,7,0,7-3,9-9,9-4,0-8,0-12,0,0,0,0,0,0,0ZM334,213h0c0-5,0-11,0-16,0-4-3-6-7-6-8,0-17,0-25,0-7,0-1,3-9,1,0,9,2,17,4,26,0,2,3,4,5,4,1,2,21,2,31,0,1,0,3-3,3-4,0-4,0-9,0-13Z"/>
      <path class="cls-1" d="M418,213c0,5,0,1,0,16,0,3-2,5-5,5-13,0-26,0-39,0-4,0-6-2-7-6-1-1-2-2-4-3,0-2,0-5,0-7,0-6,3-9,1-1,11,0,21-3,32-3,9,0,12,3,12,12,0,8,0,15,1,23ZM391,231s0,0,0,0c6,0,12,0,17-2,1,0,3-2,3-3,0-12,0-24-1-35,0-2-3-4-4-4-11,0-22,2-33,3-3,0-4,3-4,6,0,9,0,18,1,27,0,5,2,8,8,8,4,0,8,0,12,0Z"/>
      <path class="cls-1" d="M467,207c-5,0-12,0-18,0-8,0-1-2-11-1,0-11-2-23-2-34,0-1,1-11,11-12,13,0,26,0,39,0,6,0,9,2,9,9,0,9,0,18,1,27,0,4,0,9,0,13,0,3-1,5-5,5-8,0-16,0-25,2ZM465,201s0,0,0,1c7,0,14-1,21-1,4,0,6-2,6-5,0-9,0-18,0-27,0-8-2-11-1-11-11,0-21,0-32-1-4,0-6,2-6,6,0,11,0,23,0,34,0,4,2,5,6,5,5,0,1,0,15,0Z"/>
      <path class="cls-2" d="M411,101c-21,3-42,6-64,8-14,2-27,2-41,3-3,1-61,2-91,3-13,0-27,0-4,0-13,0-26,0-38,0-6,0-12,0-18,1-3,0-4,0-4-4,0-18,0-35,0-53,0-5,0-11,0-16,0-5,2-7,6-8,13-2,25-4,38-5,24-2,48-4,72-5,26-1,52-2,78-2,29,0,57-2,86-2,15,0,13-2,14,12,1,21,0,41,1,62,0,2,0,3,0,5ZM179,87c2,0,2,0,2,0,1,0,2-1,3-2,8-4,17-7,26-7,16,0,29,8,42,15,14,8,29,15,45,9,12-4,24-8,33-18,1-1,15-23,21-35,0,0,0-3,0-3,0,0-3,0-4,0-1,0-2,2-3,3-8,11-19,16-32,17-15,1-29-1-43-5-5-1-11-3-16-5-12-3-23-3-35,0-13,2-25,8-34,19-2,3-3,7-5,11Z"/>
      <path class="cls-2" d="M13,26c-5,0-1,2-15,2-5,0-7,3-7,7,0,11,0,22,0,33,0,15,0,31,0,46,0,8,0,9,9,9,14,0,29,0,43,0,1,0,2,0,4,0-13,8-26,15-38,23-6,3-11,6-17,9-23,11-45,11-69,2-8-3-13-9-14-17-2-11-2-21-5-32-3-13-7-26-11-38-7-17-2-37,12-48,8-6,15-12,25-13,5,0,11-1,16,0,12,2,24,5,35,8,1,3,2,6,31,9,0,0,2,0,3,0,0,0,0,0,0,1ZM74,3c-14,0-3,1-34,23,0,1,0,3,0,4,1,6,6,5,11,5,4,0,6-1,7-5,2-7,6-11,12-1,2,0,5,2,7,4,0,1,0,5,0,6-4,5-9,1-14,15-12,11-14,2-9,35,2,5,5,4,9,4,3,0,4-2,4-6,0-4,1-8,3-12,2-7,8-9,14-12,7-3,11-9,13-17,2-1-2-19-8-27-3-4-7-7-12-6ZM68,126c0-6-4-11-9-11-5,0-1,4-1,9,0,5,5,1,8,1,6,0,1-3,1-9Z"/>
      <path class="cls-2" d="M164,184c2,1,4,2,7,4-3-5-59-11-88-16,0,0,0,0,0-1,3,0,5,0,8,0,18,2,35,4,53,6h0c7,2,13,5,2,7h0Z"/>
      <path class="cls-2" d="M437,68c14-7,28-1,44-12-12,4-23,8-34,13-1,6-19,14-29,22,1-3,2-7,4-1,1-2,3-5,5-7,4-2,7-5,11-7Z"/>
      <path class="cls-2" d="M144,177c-9-2-18-4-27-6-1-1-19-2-3-3,29-8,55,3,81,15-2,0-3,0-4,0,0,0,0,0,0,0-7-2-13-5-2-7h0Z"/>
      <path class="cls-2" d="M159,168c-14-9-29-1-45-8,0,0,0,0,0-1,2-1,5-2,7-3,13-9,22,0,32,7,2,2,4,4,6,6Z"/>
      <path class="cls-2" d="M47,48c-2-2-38-9-52-25,17,8,35,16,52,25Z"/>
      <path class="cls-2" d="M186,191c-24-13-47-25-75-28,29-1,53,11,75,28Z"/>
      <path class="cls-2" d="M437,68c-4,2-7,5-11,7-2,2-4,4-6,6,0,0,0,0-1,0,2-3,3-7,5-1,6-3,12-7,19-1,8-2,17-3,25-5h0c-8,4-17,7-25,1-2,0-3,2-5,4Z"/>
      <path class="cls-2" d="M445,5c-1,3-29-5-28-12,9,4,19,8,28,12Z"/>
      <path class="cls-2" d="M446,45c-12,0-29-11-29-18,1,6,2,12,29,18Z"/>
      <path class="cls-2" d="M442,6c-6,3-12,7-19,1-4-2,0-3,0-4,6-5,12-7,2-9,2,0,4,0,6,0-3,1-5,2-8,4Z"/>
      <path class="cls-2" d="M418,66c0-6,6-11,14-1-5,3-9,7-14,1Z"/>
      <path class="cls-2" d="M157,189c-9-2-18-3-28-5,0,0,0-1,0-2,9,2,18,3,28,5,0,0,0,1,0,2Z"/>
      <path class="cls-2" d="M136,161c7,3,13,5,2,8,0,0,0,0,0,1-7-3-13-5-2-8,0,0,0,0,0-1Z"/>
      <path class="cls-2" d="M418,45c5,2,9,4,13,6-7,1-11,0-13-6Z"/>
      <path class="cls-2" d="M9,177c-7-1-13-3-2-4,0,0,0,0,0,0,7,1,13,2,2,3,0,0,0,1,0,2Z"/>
      <path class="cls-2" d="M334,213c0,4,0,9,0,13,0,2-2,4-3,4-1,3-21,3-31,0-2,0-4-2-5-4-2-9-3-17-4-26,0-7,3-1,9-1,8,0,17,0,25,0,5,0,7,2,7,6,0,5,0,11,0,16h0ZM31,212c0,4,2,6,6,7,3,0,6-3,6-6,0-3-4-7-6-7-4,0-5,4-6,6Z"/>
      <path class="cls-2" d="M391,231c-4,0-8,0-12,0-5,0-7-3-8-8,0-9,0-18-1-27,0-3,1-6,4-6,11-1,22-2,33-3,1,0,4,3,4,4,0,12,1,24,1,35,0,1-2,3-3,3-6,0-12,1-17,2,0,0,0,0,0,0ZM393,216c1-1,5-4,5-5-1-3-4-6-7-8-3-1-6,3-6,7,0,4,3,5,8,6Z"/>
      <path class="cls-2" d="M465,201c-5,0-1,0-15,0-4,0-6-2-6-5,0-11,0-23,0-34,0-4,2-6,6-6,11,0,21,0,32,1,8,0,1,4,1,11,0,9,0,18,0,27,0,4-2,5-6,5-7,0-14,0-21,1,0,0,0,0,0-1ZM474,18c0-5-4-9-7-9-4,0-7,4-7,8,0,3,3,7,7,6,3,0,6-2,7-5Z"/>
      <path class="cls-1" d="M179,87c2-4,3-8,5-11,9-11,2-17,34-19,12-2,23-2,35,0,5,1,11,3,16,5,14,3,28,6,43,5,13-1,24-6,32-17,0-1,2-2,3-3,1,0,3,0,4,0,0,0,1,3,0,3-6,12-11,25-21,35-9,9-21,14-33,18-17,6-31-1-45-9-13-7-27-14-42-15-9,0-18,2-26,7-1,0-2,1-3,2,0,0,0,0-2,0ZM249,74c17,13,61,19,74,3-16,5-32,6-48,3-9-2-17-4-26-6ZM304,88c-6,0-12,0-19,0-12,0-24-4-36-1-7-4-14-7-21-6,24,1,48,23,75,16ZM305,72c-19-3-4-7-61-11,0,0,0,0,0,1,7,2,15,4,22,5,3,0,7,0,1,2,1,4,2,3,29,2ZM264,89c21,12,49,6,63-7-2,11-41,14-63,7ZM207,67c6,0,13-2,19-2,11,1,22,4,33,6,5,0,11,2,17,3,0,0,0-1,0-2-2,0-4-1-6-2-7-2-15-3-22-5-14-4-27-3-41,2ZM252,7c11,6,34,13,43,9-15-3-29-6-43-9ZM322,71c-12,3-24,6-37,4,13,5,25,3,37-4ZM21,62c15-3,29-3,44,0-15-4-29-5-44,0ZM338,67c-7,6-13,12-2,18,9-3,16-9,2-18ZM252,86v2c5,2,11,5,16,7,0,0,0,0,0-1-6-2-11-5-17-7ZM23,7s0,0,0-1h-18s0,0,0,1h19Z"/>
      <path class="cls-1" d="M74,3c5,0,9,2,12,6,6,8,1,16,8,27-1,8-6,14-13,17-6,3-12,6-14,12-1,4-2,8-3,12,0,3-1,5-4,6-3,0-7,1-9-4-6-15-3-24,9-35,5-4,9-9,14-15,1-1,2-5,0-6-1-2-4-4-7-4-6,0-1,3-12,1,0,4-3,5-7,5-4,0-9,2-11-5,0-1,0-3,0-4,4-13,2-24,34-23ZM56,106c0,0,1,0,2,1,1-1,3-2,3-4,0-2,0-5,0-7,0-6,3-11,9-14,4-2,8-5,13-7,6-4,8-9,8-16,0-4,0-8-2-12-2-9-8-13-17-14-12,0-25,1-29,21,0,0,0,2,0,3,4,0,8,1,9-2,2-9,9-11,16-13,7-2,14,4,13,11,0,7-4,12-1,16-6,4-14,7-17,16-2,7,0,14,1,2Z"/>
      <path class="cls-1" d="M68,126c0,5-4,9-1,9-4,0-8-6-8-1,0-5,5-9,1-9,5,0,9,5,9,11ZM65,125c-2-2-3-5-5-5-2-1-6,3-6,6,0,2,0,6,4,5,3,0,6,0,6-6Z"/>
      <path class="cls-1" d="M144,177c7,2,13,5,2,7-7-2-13-5-2-7Z"/>
      <path class="cls-1" d="M31,212c0-3,1-6,6-6,3,0,6,4,6,7,0,4-3,7-6,6-4,0-6-3-6-7Z"/>
      <path class="cls-1" d="M393,216c-5,0-8-2-8-6,0-3,3-8,6-7,3,1,5,5,7,8,0,0-3,4-5,5Z"/>
      <path class="cls-1" d="M474,18c0,4-3,5-7,5-4,0-7-3-7-6,0-4,3-8,7-8,3,0,7,4,7,9Z"/>
      <path class="cls-2" d="M249,74c9,2,17,4,26,6,16,3,32,3,48-3-13,15-57,1-74-3Z"/>
      <path class="cls-2" d="M304,88c-28,7-52-5-75-16,8-1,15,2,21,6,11,6,23,9,36,1,6,0,12,0,19,0Z"/>
      <path class="cls-2" d="M305,72c-9,1-19,3-29-2-3-1-7-1-1-2-7-2-15-4-22-5,0,0,0,0,0-1,21,4,41,7,61,11Z"/>
      <path class="cls-2" d="M264,89c22,7,43,4,63-7-14,13-42,19-63,7Z"/>
      <path class="cls-2" d="M207,67c13-5,27-6,41-2,7,2,15,4,22,5,2,0,4,1,6,2,0,0,0,1,0,2-6,0-11-2-17-3-11-2-22-4-33-6-6,0-13,1-19,2Z"/>
      <path class="cls-2" d="M252,7c14,3,28,6,43,9-9,4-32-3-43-9Z"/>
      <path class="cls-2" d="M322,71c-12,7-24,9-37,4,13,2,25,0,37-4Z"/>
      <path class="cls-2" d="M21,62c15-6,29-5,44,0-15-2-29-2-44,0Z"/>
      <path class="cls-2" d="M338,67c-4,9-11,14-2,18,7-6,14-12,2-18Z"/>
      <path class="cls-2" d="M252,86c6,2,11,5,17,7,0,0,0,0,0,1-6-2-11-5-17-7v-2Z"/>
      <path class="cls-2" d="M23,7h-19s0,0,0-1h18s0,0,0,1Z"/>
      <path class="cls-2" d="M56,106c-1-7-3-13-1-2,3-9,1-11,17-16,6-4,9-9,1-16,0-8-5-13-13-11-7,2-14,4-16,13,0,4-5,3-9,2,0,0,0-2,0-3,4-1,17-21,29-21,9,0,15,5,17,14,0,4,2,8,2,12,0,6-2,12-8,16-4,3-8,5-13,7-6,3-8,8-9,14,0,2,0,5,0,7,0,1-2,2-3,4,0,0-1,0-2-1Z"/>
      <path class="cls-2" d="M65,125c0,5-3,6-6,6-4,0-4-3-4-5,0-3,3-7,6-6,2,0,3,4,5,5Z"/>
    </g>
  </g>
</svg>