<?xml version="1.0" encoding="UTF-8"?>
<svg id="Layer_2" data-name="Layer 2" xmlns="http://www.w3.org/2000/svg" viewBox="0 0 65 862">
  <defs>
    <style>
      .cls-1 {
        fill: #000;
      }

      .cls-1, .cls-2 {
        stroke-width: 0px;
      }

      .cls-2 {
        fill: #fff;
      }
    </style>
  </defs>
  <g id="Layer_1-2" data-name="Layer 1">
    <g>
      <path class="cls-1" d="M603,813c3,0,6,0,8,0,12,0,24,0,35,0,2,0,3,0,3,3,0,14,0,28,0,42,0,4,0,4-4,4-8,0-16,0-25,0-14,0-28,0-41,0-3,0-6,0-8,0-3-2,0-5,0-8,0-1,0-19,0-29-3,0-5,0-8,0-15,0-3,0-45,0-14,0-27,0-41,0-8,0-17-1-25-1-22,0-43,0-65,0-21,0-43,0-64-2-27-1-54-3-81-4-22-1-44-2-66-3-24,0-48-1-73-3-21-2-43,0-64,0-6,0-11,0-17,2-3,0-2-2-3-3,0-4,0-9-1-13,0-17,0-35-1-52,0-22-2-44-2-66,0-16,0-31,0-47,0-2,0-4,0-6,0-3,0-61,0-91,0-21,0-42,1-63,0-18,0-35,0-53,0-15,1-31,2-46,0-12,2-25,3-37,0-11,2-21,3-32,0-12,2-24,3-36,1-22,2-45,3-67,0-15,3-29,3-44,0-11,0-21,0-32,0-3,0-6,0-9-1,0-3,0-4,0,0-7,0-13,1-2,0-4,0-4-4-5-9,0-18,0-27,0-2,0-2,0-2-2C0,25,0,18,0,1,0,7,0,5,0,2c0,0,0-1,1-1,3,0,6-1,9,0,0,0,1,0,2,0,11,0,22,0,34,0,3,0,6,0,8,0,3,0,3,1,3,4,0,3,0,6,0,9,2,0,3,0,4,0,15,0,3,0,45,0,22,0,44,1,66,2,17,0,34,1,5,2,11,0,22,1,33,2,2,0,2,1,2,3,0,4,0,8,0,13,7,0,13,0,19,0,2,0,4,0,6-1,13,0,27,0,4,0,36,2,72,2,109,3,32,0,63,0,95,2,7,0,14,0,21,0,0,0,1,0,2,0,7-1,7-1,6,6,0,2,0,3,0,5,0,12,0,25,0,37,0,14,0,29,0,43,0,27,0,54,0,81,0,14,0,27,0,41,0,21,1,41,0,62,0,24-2,48-3,71,0,13-1,27-1,4,0,23-1,47-2,7,0,16,0,31,0,47,0,15-1,29-2,44,0,18,0,36,0,54,0,2,0,4,0,6,0,24,0,48,0,73,0,13,0,26,0,39ZM602,813c0-3,0-5,0-7,0-12,0-24,0-35,0-36,0-73,0-109,0-21,0-43,0-64,0-25,1-51,2-76,1-38,2-76,3-114,0-14,1-27,2-41,0-17,2-34,2-51,0-16,0-33,0-49,0-17,0-35,0-52,0-21,0-42,0-63,0-12,0-24,0-36,0-14,0-28,0-42,0-1,0-2,0-31-5,0-9,0-13,0-16,0-32,0-49,0-22,0-43-1-65-2-26,0-52-1-77-1-29,0-59,0-88-1-15,0-31,0-46,0-3,0-7,0-1,0,0,8,0,16,0,24,0,4,0,5-5,5-17,0-35,0-52-1-24,0-48-1-72-2-21,0-41-2-62-2-1,0-19,0-29,0-2,0-3,0-3,3,0,2,0,5,0,7,0,18-2,37-3,55,0,15-2,29-3,44-2,26-3,53-5,79-1,17-3,34-4,51-1,15-1,3-2,45-1,24-2,48-2,72,0,2,0,41-1,61,0,36-1,72-1,108,0,23,0,46,1,69,0,22,1,44,2,66,0,16,0,31,0,47,0,13,2,26,3,39,0,3,1,3,4,3,17,0,35-1,52-1,11,0,22,0,34,1,8,0,16,0,25,0,19,0,39,2,58,2,18,0,37,1,55,2,3,1,61,4,91,5,3,0,59,0,89,0,23,0,46,0,69,1,16,0,32,0,47,0,8,0,15,0,23,0v-8h32ZM34,15c0,0,0,1,0,1,0,13,0,25,0,38,0,0,0,0,0,0,0,2,1,3,4,3,15,0,3,0,44,0,2,0,4,2,61,3,16,0,33,0,49,1,15,0,31,0,46,1,5,0,1,0,15,0,2,0,5,0,5-3,0-12,0-23,0-35,0-3-1-5-5-5-18-1-36-2-54-3-1,0-19,0-29,0-23,0-47-1-7-2-14,0-27,0-41,0-8,0-17,0-25,0ZM647,86c0-5,0-9,0-13,0-9,0-19,0-28,0-2-1-3-4-3-4,0-9,0-13,0-12,0-24,0-36,0-7,0-14,0-21,0,0,14,0,28,0,41,0,2,0,3,3,3,6,0,13,0,19,0,15,0,29,0,44,0,3,0,6,0,8,0ZM56,13c0,0,0-2,0-3,0-8,0-8-7-8-7,0-13,0-2,0-8,0-16,0-24,0-3,0-4,1-4,4,0,5,0,9,0,14,0,4,0,7,0,11,0,0,1,2,2,2,9,0,19,0,28,0,0,0,0,0,1,0,0-7,0-14-1-21h25Z"/>
      <path class="cls-2" d="M34,15c9,0,17,0,25,0,14,0,27,0,41,0,23,0,47,1,7,2,1,0,19,0,29,0,18,0,36,2,54,3,3,0,5,2,5,5,0,12,0,23,0,35,0,3-3,3-5,3-5,0-1,0-15,0-15,0-31,0-46-1-16,0-33,0-49-1-2,0-4-2-61-3-15,0-3,0-44,0-3,0-4-1-4-3,0,0,0,0,0,0,0-13,0-25,0-38,0,0,0,0,0-1Z"/>
      <path class="cls-2" d="M647,86c-3,0-6,0-8,0-15,0-29,0-44,0-6,0-13,0-19,0-2,0-3,0-3-3,0-13,0-27,0-41,7,0,14,0,21,0,12,0,24,0,36,0,4,0,9,0,13,0,2,0,3,1,4,3,0,9,0,19,0,28,0,4,0,9,0,13Z"/>
      <path class="cls-2" d="M56,13h-25c0,7,0,14,1,21,0,0,0,0-1,0-9,0-19,0-28,0,0,0-2-1-2-2,0-4,0-7,0-11,0-5,0-9,0-14,0-3,1-4,4-4,8,0,16,0,24,0,7,0,13,0,2,0,8,0,7,0,7,8,0,0,0,2,0,3Z"/>
      <path class="cls-1" d="M571,672c-3,9-3,18-3,26,0,3,0,4-3,3-15,0-29-1-44-2-22-1-44-3-66-4-2,0-39,0-59,0-28,0-55,0-83-3-15-2-3-3-46-5-11-1-23-3-34-4-2,0-3-1-3-4,0-8,0-16,1-24,0-1,0-3,0-4,0-3,0-4,3-3,9,0,18,0,27,2,14,1,27,2,41,3,25,2,51,4,76,6,15,1,3,2,45,3,14,0,28,2,43,3,15,0,31,2,46,3,11,0,22,2,34,2,8,0,16,1,24,2,0,0,1,0,2,0ZM568,674c-13-1-26-3-39-4-17-1-34-2-5-3-9,0-18,0-27-1-1,0-2-1-3-2-13,0-26-2-38-2-13,0-25-2-38-3-8,0-16,0-24-1-26-2-52-4-78-6-4,0-7,0-12,0,0,9,0,18-1,28,0,2,1,3,3,3,5,0,9,0,14,1,1,1,2,3,3,5,11,1,22,2,33,3,12,0,25,2,37,3,26,0,51,0,77,0,29,0,59,2,88,4,16,0,33,1,49,2,2,0,4,0,4-3,0-4,0-7,0-11,0-4,0-8,1-13Z"/>
      <path class="cls-1" d="M154,292c3,1,3,4,3,7-1,12-2,23-3,35,0,9,0,19,0,28,0,1,0,2,0,3,0,2-1,3-4,3-6,0-12-1-18-2-5,0-1,0-15,0-1,0-21,0-31,0-3,0-7,0-1,0,0,0-2-2-2-3,0-6,1-12,2-18,0-13,0-26,0-39,0-5,0-11-1-17,3,0,7,0,11,0,8,0,17,0,25,0,12,0,24,2,36,3,2,0,5,0,8,0ZM154,296c-3,0-6,0-8,0-13,0-26-1-39-2-7,0-14,0-22-1-1,0-3,0-3,2-3,7-4,14-3,21,0,5,0,1,0,15,0,1,0,21-1,31,0,2,0,3,2,3,13,0,26,0,39,0,8,0,16,1,25,2,1,0,2,0,3,0,4-2,4-5,4-8-1-14,0-29,1-43,0-6,0-12,1-18ZM76,339s0,0,0,0c0-4,0-7,0-11,0-11,0-22,0-34,0,0,0-1,0-2,0,0-1,1-1,2,0,4,0,9,0,13,0,1,0,21,0,31ZM155,301s0,0,0,0c0,7,0,14-1,21,0,0,0,0,0,0,0-7,0-14,1-21Z"/>
      <path class="cls-1" d="M454,382c-8,0-17,0-25-1-15,0-29-2-44-3-5,0-1,0-15,0-18-2-36-3-54-5-7,0-15-1-22-2-15-1-29-3-44-4-15,0-3-1-45-1-6,0-12,0-18,0,0-2,0-5,0-8,2-9,6-18,1-27,5-11,9-22,13-32,0-2,1-3,4-3,18,1,37,2,55,3,11,0,21,2,32,3,11,1,22,2,33,3,24,3,49,6,73,9,9,1,17,1,26,2,3,0,5,0,3,4,0,0,0,0,0,1,4,13,7,25,11,38,2,8,5,15,8,23ZM452,38c0-2-1-4-1-5-3-8-5-15-8-23-3-11-6-21-9-32,0-2-2-2-3-2-8,0-16-1-25-2-19-2-38-5-57-7-2-2-41-4-62-6-1,0-2-2-3-3-14,0-28-2-43-2-2,0-3,0-4,2-4,1-7,2-12,3-5,1-9,2-11,31,0,3,0,3,3,3,18-1,37,0,55,0,15,1,3,3,45,4,8,0,17,1,25,2,16,2,32,3,48,5,6,0,13,0,19,0,22,1,45,3,68,4Z"/>
      <path class="cls-1" d="M386,403c0,8,1,15,2,22,0,2,0,2-2,2-5,0-9,0-14,0-14,0-28,0-41,0-17,0-34,1-51,2-23,0-46,0-69,2-14,0-27,1-41,2-1,0-2,2-3,2,0,0,0-1,0-2,0-6,0-13-1-19,0,0,0-1,0-2,0-5,0-5,5-5,1,0,2-1,29-2,6,0,12,0,18-1,17,0,33-2,5-2,9,0,19,0,28,0,13,0,25,0,38,0,23,0,46,0,69,1,4,0,8,0,11,0ZM387,426c0-7-1-13-2-19,0,0-2-2-3-2-4,0-8,0-12,0-11,0-22,0-33,0-28,0-56,0-84,0-15,0-29,0-44,1-18,0-36,2-54,3-5,0-1,0-15,1,0,2,0,4,0,5,0,6,1,11,2,17,0,2,0,3,3,3,1,0,19-2,28-2,19,0,39-2,58-2,22,0,44,0,66-1,27,0,55-1,82-2,2,0,4,0,7,0Z"/>
      <path class="cls-1" d="M223,279c-7,0-18,0-29,0-2,0-3,0-3-3,0-7,0-13,1-2,0-3,2-4,5-4,15,0,3,0,46,2,22,1,43,3,65,5,17,2,34,4,51,5,2,2,41,4,61,6,7,0,13,1,2,2,3,0,6,0,8,0,0,0,2,1,2,2,0,6,0,11,0,17,0,1,0,3,0,4,0,3,0,3-4,3-19-2-37-4-56-6-22-2-45-5-67-7-32-3-64-6-1-7ZM449,275c0,0-1,0-2,0-11,0-21-2-32-3-19-2-38-4-57-6-17-2-33-4-5-5-15-1-29-3-44-4-11,0-23-1-34-2-12,0-23-2-36,0,0,7,0,13-1,2,0,2,0,3,3,3,2,0,41,0,61,2,17,0,34,2,51,4,11,1,22,3,34,4,18,2,36,3,55,5,16,2,33,3,49,5,3,0,4,0,4-3,0-6,0-13,0-2Z"/>
      <path class="cls-1" d="M348,705c73,1,145,5,217,3,0,5,1,1,1,15,0,4,0,7,0,11,0,2,0,2-2,3-5,2-1,0-15,0-3,0-6,0-8,0-14,0-28,0-42,0-11,0-22,0-32,0-25-2-5-2-76-2-13,0-26,0-39,2-2,0-3,0-4-3,0-6,0-11-1-17,0-4,0-7,0-11ZM521,736s0,0,0,0c11,0,22,0,33,0,2,0,4,0,7,0,2,0,5,0,5-4,0-6,0-11-1-17,0-2,0-5-1-6-1,0-4,0-6,0-1,0-2,0-3,0-14,0-29,0-43,0-23,0-46-1-7-2-15,0-3,0-44,0-6,0-11,0-17,0-2,0-3,0-3,3,0,7,0,14,0,22,0,3,2,3,4,3,12,0,24,0,36-1,25,0,5,0,75,2,18,1,36,0,55,1Z"/>
      <path class="cls-1" d="M416,746c4,0,8,1,12,1,21,0,42,1,63,2,6,0,12,0,18,0,13,0,25,0,38,0,6,0,11,0,17,0,0,0,2,1,2,2,0,7,0,14,0,22,0,3-1,3-4,3-16,0-32-1-48-2-18,0-35,0-53,0-14,0-27,0-41,1-2,0-3,0-3-3,0-9,0-17,0-26,0,0,0-1,0-2ZM55,775s0,0,0,0c4,0,7,0,11,0,2,0,3-1,3-3,0-6,0-12,0-18,0-2,0-3-3-3-5,0-1,0-14,0-12,0-25,0-37,0-8,0-16,0-25,0-21,0-43-1-64-2-2,0-4,0-3,3,0,7,0,14,0,21,0,2,2,2,3,2,13,0,26,0,4,0,3,0,59,0,89,0Z"/>
      <path class="cls-1" d="M295,164c0-3,0-6,0-9,0-2,0-3,2-3,9,0,17,0,26,1,2,1,4,2,6,4,2,1,4,3,6,5,0,0,2,0,2,0,0,0,2,1,1,2,0,6-2,11-2,17,0,3,0,4-4,3-8-1-16-2-24-2-14-1-29-3-43-3-2-1-41-2-61-2-5,0-1,0-14,0-2,0-3,0-3-3,0-3,0-6,0-9h0ZM313,154s0,0,0,0c-5,0-9,0-14,0,0,0-2,1-2,2,0,6,0,11,0,17,0,2,1,2,3,3,14,0,29,0,43,0,19,0,39,3,58,4,13,0,27,2,4,3,2,0,3,0,3-2,0-3,0-7,1-1,0-6,0-6-6-7-11,0-23-2-34-3-2-2-41-3-61-5-11,0-21,0-32-1Z"/>
      <path class="cls-1" d="M551,436c-8,0-16-2-23-2-11-1-22-2-33-3-21-1-41-2-62-3-6,0-13-1-19-2-2,0-3-1-3-3,0-8,2-16,3-25,0,0,2-1,2-1,12,0,24,0,36,1,12,0,23,1,35,2,11,0,22,2,33,3,11,0,23,2,34,2,4,0,4,0,4,4,0,7,0,15,0,22,0,3,0,4-3,3-1,0-3,0-4,0,0,0,0,0,0,0ZM556,434c0-9,0-16,0-24,0-2,0-3-3-3-1,0-19-1-28-2-12-1-24-2-36-3-12,0-24-2-37-2-11,0-23,0-35,0,0,0-3,1-3,2-1,7-2,14-3,21,0,0,1,2,2,2,7,0,13,2,2,2,11,0,23,0,34,0,17,0,33,2,5,4,8,0,15,2,23,2,5,0,11,0,17,1Z"/>
      <path class="cls-1" d="M419,239c0-6,0-11,2-16,0-2,2-2,4-2,19,1,38,2,57,4,18,1,37,3,55,5,5,0,1,1,15,2,1,0,3,0,4,0,2,0,5-2,3,3-2,5,0,11,0,16,0,1,0,3,0,4,0,6,0,6-6,6-15-2-3-3-45-5-1-1-21-2-31-3-5,0-11-2-16-2-12,0-25-1-37-2-5,0-6-1-5-6,0-1,0-3,0-3ZM42,235s0,0,0,0c0,3,0,5,0,8,0,3,1,4,4,4,17,1,33,1,5,3,22,3,45,5,67,7,5,0,9,0,14,1,2,0,3,0,3-3,0-6,0-13,0-19,0-3-1-4-4-4-1,0-2-2-3-3-9,0-19-1-28-2-15-1-3-3-44-4-7,0-15,0-22,0-6,0-7,2-8,6,0,2,0,4,0,6Z"/>
      <path class="cls-1" d="M39,212c0,5,0,9-1,13,0,3,0,5,0,8,0,3,0,4-4,4-4,0-8,0-13-1-18-1-36-3-54-4-18-1-35-2-53-3-4,0-8,0-12,0-3,0-4-1-4-4,0-6,0-12,0-17,0-3,0-4,4-4,8,0,17,0,25,1,14,0,29,2,43,3,13,0,26,2,39,3,8,0,16,2,24,2,1,0,2,0,4,0ZM389,214c-6,0-12-2-17-2-11,0-21-1-32-2-13-1-26-3-4-3-15,0-3,0-45-2-2,0-3,0-3,3,0,5,0,11,0,16,0,2,1,3,3,3,12,0,24,1,36,2,17,0,33,2,5,3,1,0,2,2,3,2,4,0,9,0,13,0,1,0,4,0,4-2,0-6,1-12,2-19Z"/>
      <path class="cls-1" d="M458,633c15,0,3,1,44,2,12,0,24,2,37,2,8,0,16,0,24,1,4,0,4,0,4,4,0,6,0,11,0,17,0,5,0,5-6,5-16-1-32-2-47-3-13,0-26-1-39-2-4,0-8,0-13,0-3,0-4,0-4-3,0-6,0-11,0-17,0-2,0-5,0-7ZM459,647c0,3,0,6,0,8,0,2,0,3,3,3,6,0,12,0,17,0,19,0,37,2,56,2,9,0,18,0,26,1,2,0,3,0,3-3,0-5,0-11,0-16,0-2,0-3-3-3-3,0-6,0-9,0-14-1-28-2-41-3-13,0-27-1-4-2-4,0-7,0-11,0-1,0-2,0-2,2,0,4,0,8,0,11Z"/>
      <path class="cls-1" d="M467,602c2,1,4,2,6,3,13,0,26,2,39,2,2,0,4,0,3,3,0,6-1,12-2,18,0,6,0,6-6,6-26-1-52-3-79-4-5,0-9,0-14,0-2,0-3-2-3-3,0-6,0-13,0-19,0-2,0-4,0-6ZM48,603s0,0,0,0c-3,0-7,0-1,0,0,0-2,1-2,2,0,7,0,13,0,2,0,2,1,3,4,3,15,0,31,0,46,1,15,0,29,1,44,3,5,0,5,0,5-4,0-4,0-9,0-13,0-6,0-6-5-6-11,0-23-2-34-2-16-1-31-2-47-3Z"/>
      <path class="cls-1" d="M506,573c2,1,4,2,6,3,2,0,3,0,3,3,0,6-1,12-2,19,0,2,0,3-3,3-9,0-18,0-27-1-18,0-36-2-55-3-4,0-8,0-13,0-3,0-4-1-4-4,0-5,0-9,0-14,0-5,0-5,5-5,11,0,23,0,34,0,0,0,0,0,0,0ZM498,575s0,0,0,0c-2,0-4,0-6,0-6,0-13,0-19,0-3,0-5,0-5,4,0,4,0,9,0,13,0,2,0,3,3,3,1,0,3,0,4,0,13,0,26,1,39,2,17,0,33,1,5,2,2,0,3,0,3-3,0-5,0-1,1-14,0-4,0-4-4-4-7,0-13,0-2-1-15,0-3-1-45-2Z"/>
      <path class="cls-1" d="M477,313c18,1,37,2,55,4,6,0,12,2,18,3,2,0,5,0,7,0,0,0,2,0,2,0,0,0,0,1,0,2,0,0,0,1,0,2,0,5,0,11,0,16,0,2,0,3,0,5,0,4,0,5-6,5-5,0-11,0-16,0-12,0-23-1-35-2-9,0-19-2-28-3-3,0-6,0-9,0-2,0-3-1-3-3,0-8,0-16,1-24,0-3,3-4,6-4,3,0,6,0,1,0,0,0,0,0,0,0ZM557,322c0,0-1,0-2,0-2-3-41-5-61-6-8,0-16,0-24,0-3,0-6,0-6,4,0,7,0,14-1,2,0,2,1,3,3,3,11,1,21,2,32,3,13,1,25,2,38,2,6,0,11,0,17,0,5,0,6-1,6-6,0-4,0-8,0-11,0-3,0-6,0-1Z"/>
      <path class="cls-1" d="M484,273c8,0,18,0,28,0,12,0,24,2,37,3,2,0,4,0,6,0,2,0,2,0,2,2,0,7,0,14,0,21,0,5,0,5-5,4-17-2-35-3-52-4-5,0-1,0-16-1,0,0-3-1-3-2,0-7,0-15-1-22,0-2,0-3,4-2ZM55,303s0,0,0,0c0,0,1,0,2,0,4,0,4,0,4-4,0-4,0-9,0-13,0-6,0-6-7-7,0,0-1,0-2,0-16-1-33-3-49-4-5,0-9,0-14,0-2,0-3,0-3,2,0,6,0,11,0,17,0,3,2,4,5,4,12,0,23,1,35,2,9,0,19,2,28,3Z"/>
      <path class="cls-1" d="M566,552c0,5-1,11-1,16,0,2-1,3-3,3-14,0-27,0-41,0-13,0-26,0-39,0-2,0-4-1-4-3,0-5,0-1,0-16,0-2,0-3,3-2,5,0,1,0,15,0,11,0,22,0,34,0,8,0,16,0,24,1,5,0,1,0,15,0ZM565,553c-29-1-58-2-87-4-2,6,0,11,0,16,0,2,2,2,4,2,11,0,22,0,33,0,15,0,3,0,45,0,2,0,4,0,4-3,0-4,0-8,0-13Z"/>
      <path class="cls-1" d="M49,356c19,2,39,2,59,6,2,0,5,0,7,0,2,0,3,1,2,3,0,7,0,14,0,21,0,2,0,3-3,3-18-2-36-3-54-5-6,0-12,0-18-1-2,0-3,0-3-3,0-7,0-14,0-21,0-3,2-5,5-4,0,0,2,0,3,0ZM557,376h0c0-3,0-6,0-9,0,0-1-2-2-3-1-2-19-3-29-5-9,0-17-1-26-2-4,0-9,0-13,0-1,0-4,1-4,2,0,7,0,14-1,21,0,0,0,2,2,2,2,0,4,0,6,0,16,1,32,2,48,4,6,0,11,0,17,1,2,0,3,0,3-3,0-3,0-6,0-9Z"/>
      <path class="cls-1" d="M55,2c0,4,0,8,1,12,0,3,0,4-3,3-7,0-15-2-22-3-14-2-28-3-42-4,0,0-1,0-2,0-8,0-8-1-8-9,0-3,0-7,0-1,0-5,2-6,7-6,21,2,43,4,64,6,3,0,4,2,4,5,0,2,0,3,0,5,0,0,0,0,0,0ZM485,185s0,0,0,0c0,0-1,0-2,0-5,0-6,0-6,5,0,3,0,6,0,9,0,6,0,7,7,8,0,0,0,0,1,0,15,2,3,3,46,5,6,0,11,1,17,2,2,0,2,0,2-2,0-5,0-1,0-15,0-4,0-5-5-5-2-2-4-4-59-6Z"/>
      <path class="cls-1" d="M604,286c0,6,0,13,0,19,0,2,0,2-2,2-8,0-15-2-23-2-3,0-4,0-3-4,1-7,2-13,3-2,0-5,2-6,7-5,6,0,11,1,16,2,1,0,2,2,3,3,0,2,0,4,0,6,0,0,0,0,0,0ZM588,279s0,0,0,0c0,0-1,0-2,0-5,0-5,0-6,5,0,5,0,1-2,16,0,3,1,4,3,4,6,0,13,1,19,2,0,0,2-1,2-2,0-7,0-14,0-21,0-2,0-2-2-3-4,0-8,0-12-1Z"/>
      <path class="cls-1" d="M604,363c0,1-2,18-2,27-5,0-9-2-14-3-3,0-6-1-9-2-2,0-2-1-2-3,0-7,2-13,3-2,0-3,2-4,5-3,6,1,12,2,18,3,0,0,2,0,2,0ZM581,364s0,0-1,0c0,6,0,11,0,17,0,0,1,2,2,3,5,1,1,2,14,3,2,0,4,0,4-3,0-6,1-12,2-18-6,0-12-2-17-2-1,0-2,0-4,1,0,0,0,0,0,0Z"/>
      <path class="cls-1" d="M89,419c0-5,0-1,1-15,0-2,1-3,4-2,7,0,14,2,21,3,1,0,3,0,4,0,0,0,2,2,2,2,0,6-1,12-2,18,0,2,0,3,0,5,0,3-1,3-3,3-8,0-16,0-24,0-3,0-3-2-3-3,0-4,0-7,0-11,0,0,0,0,0,0ZM118,417s0,0,0,0c0-3,0-5,0-8,0,0-1-2-2-3-7,0-14-1-22-2-2,0-3,0-3,3,0,7,0,13,0,2,0,2,0,2,2,3,8,0,15,0,23,0,0,0,2-1,2-2,0-4,0-8,0-12Z"/>
      <path class="cls-1" d="M584,409c4,0,1,0,16,1,4,0,5,1,4,6,0,7,0,14,0,21,0,2,0,2-2,2-7,0-14-2-21-3-2,0-4-1-4-4,1-6,2-13,3-2,0-2,1-4,5-3ZM587,411c-4,0-5,0-6,5,0,5-1,11-1,17,0,0,0,2,1,2,6,0,11,1,17,2,2,0,3-1,3-3,0-3,0-6,0-9,0-3,0-6,0-9,0-2,0-3-3-3-4,0-8-1-12-2Z"/>
      <path class="cls-1" d="M575,341c1-6,3-12,4-19,0,0,1-2,2-2,7,0,14,0,21,1,2,0,3,2,3,4,0,7,0,14-1,21,0,2,0,3-3,2-8,0-15-1-23-2,0,0-2-1-2-2,0-1,0-2,0-4,0,0,0,0,0,0ZM602,33s0,0,0,0c0-1,0-2,0-3,0,0,0-2-2-2-5,0-11-1-16-2-3,0-4,1-5,5,0,5,0,1,0,15,0,1,1,3,2,3,5,1,11,2,16,3,2,0,3,0,3-3,0-5,0-1,0-15ZM579,334s0,0,0,0c0,4,0,7,0,11,0,0,0,0,1,0v-11Z"/>
      <path class="cls-1" d="M551,173c-9-1-18-3-27-4-9-1-17-3-26-4-1,0-2,0-3,0-3,0-4-2-4-5,0-5,0-1,1-14,0-2,2-4,4-3,1,1,2,3,3,4,8,1,16,2,24,3,0,0,2,1,2,2,0,8,0,15,0,23ZM55,171c0-7,0-14,0-2,0,0-1-1-2-2-5,0-11-2-16-2-11-2-22-3-33-4-4,0-5,0-5,4,0,3,0,6,0,9,0,5,0,6,6,7,12,2,24,4,37,6,5,0,1,1,15,2Z"/>
      <path class="cls-1" d="M602,148c0,7,0,14,1,21,0,3,0,4-4,4-5,0-1,0-16,0-5,0-7-1-8-6,0-5-1-1-2-15,0-3,0-4,4-4,8,0,16,0,24,0ZM601,161s0,0,0,0c0-3,0-6-2-9,0,0,0-2-2-2-6,0-12,0-18,0-2,0-3,1-3,3,0,4,0,8,0,12,0,5,1,6,6,6,5,0,1,0,15,0,2,0,3,0,2-3,0-2,0-4,0-5Z"/>
      <path class="cls-1" d="M568,546c-3,0-6,0-9,0-1,0-2,0-3-1-6,0-12,0-18,0-2,0-4,0-4-4,0-6,0-11,0-17,0-2,0-3,3-3,17,0,34,1,51,2,0,0,0,0,0,0,6,0,6,0,6,7,0,5,0,1,1,16ZM567,544c0-4,0-8,0-12,0-8,0-8-9-8-12,0-24-1-37-2-4,0-8,0-13,0,0,6,0,12,1,17,0,3,1,3,4,3,9,0,18,0,26,0,9,0,19,0,28,1Z"/>
      <path class="cls-1" d="M449,114c-2,7-3,13-5,19,0,0-2,1-3,1-14-2-27-5-41-7-1,0-2,0-3,0-5,0-5,0-4-5,1-5,2-1,3-15,0-3,1-2,4-2,9,2,17,3,26,5,7,1,14,2,21,3,0,0,2,0,2,0ZM447,116c0,0-1,0-2,0-15-3-3-5-44-8-2,0-3,0-3,2,0,4-1,9-2,13,0,3,0,3,3,4,4,0,8,0,12,2,1,2,2,3,3,5,2,0,3,0,4-2,1-5,2-1,4-15Z"/>
      <path class="cls-1" d="M576,207c1-5,2-9,4-14,0,0,2-2,3-2,6,0,12,1,18,2,2,0,3,1,3,4,0,6,0,11,0,17,0,3-1,4-4,4-5,0-1-1-15-2-7,0-8-2-8-9ZM602,215c0-6,0-11,0-17,0-2,0-3-3-3-5,0-1-1-14-2-3,0-5,0-5,4,0,5,0,1,0,14,0,0,0,1,1,2,7,1,14,3,21,2Z"/>
      <path class="cls-1" d="M577,247c0-2,0-6,0-9,0-3,2-4,4-4,4,0,9,0,13,0,2,0,3,0,5,0,4,0,5,0,4,5,0,6,0,13,0,19,0,2,0,3-3,3-7,0-14,0-2-1-2,0-3,0-3-3,0-3,0-6,0-11ZM603,258c0-7,0-13,0-2,0-2-1-3-3-3-5,0-11,0-16,0-2,0-3,1-3,3,0,6,0,11,0,17,0,0,2,3,2,3,6,0,13,0,2,0Z"/>
      <path class="cls-1" d="M16,125c-9,0-17-1-25-2,0,0-2-2-2-2,0-6,2-12,3-19,0,0,2-2,2-2,6,0,13,1,19,2,2,0,3,1,3,4,0,5,0,11,0,16,0,1,0,2,0,3ZM159,123c0-6,0-12,0-17,0,0-1-2-2-2-5,0-11-1-16-1-1,0-3,1-3,2-1,4-2,9-2,14,0,2,0,4,4,4,4,0,8,0,12,1,3,0,6,0,9,0Z"/>
      <path class="cls-1" d="M157,275c-8-1-16-2-24-3-4,0-4,0-3-5,0-4,1-7,2-11,0-4,2-5,6-5,6,0,12,1,18,2,2,0,3,0,5,1-1,8-2,14-3,21ZM138,253c-4,0-6,2-6,6,0,3,0,6-1,8,0,3,0,4,3,5,6,0,12,1,18,2,4,0,5,0,5-4,0-3,0-5,0-8,0-5,0-6-5-7-5,0-9-1-14-2Z"/>
      <path class="cls-1" d="M142,203c5,0,12,2,18,2,2,0,3,0,5,0,0,1,0,3,0,4,0,4,0,9,0,13,0,1,0,3-2,3-8,0-15-1-23-2,0,0-1-2-1-2,1-5,3-1,4-16,0,0,0-2,0-4ZM162,217s0,0,0,0c0-2,0-3,0-5,0-3-1-5-4-5-4,0-8-1-11-2,0,0-2,0-3,1-3,4-4,9-4,14,0,2,1,3,3,4,5,0,9,0,14,1,5,0,5,0,5-5,0-1,0-2,0-3Z"/>
      <path class="cls-1" d="M139,171c0,0,1,0,2,0-4-7,0-14,2-22,7,0,14,2,21,3,2,0,4,0,2,4,0,1,0,3,0,5,0,3,0,6,0,8,0,5-2,5-7,4-5-1-1-1-15-2-1,0-2,0-4,1,0,0,0,0,0-1ZM163,161s0,0,0,0c0-2,0-3,0-5,0-2,0-4-3-4-5,0-1-1-14-1,0,0-3,0-3,1-2,4-4,9-3,14,0,2,1,3,4,3,5,0,1,0,15,2,2,0,3,0,4-3,0-2,0-5,0-7Z"/>
      <path class="cls-1" d="M109,224c0-7,2-14,2-21,3,0,5,0,7,0,6,0,12,0,18,0,0,0,1,0,2,0,0,0,0,1-1,2,0,1-1,2-1,3,0,3,0,7,0,1,0,3-1,4-4,4-7,0-14,0-21,0ZM122,222s0,0,0,0c3,0,5,0,8,0,2,0,4,0,4-3,0-4,0-8,0-12,0,0,0-2-2-2-6,0-12,0-18,0,0,0-2,0-2,2,0,4-1,9-2,13,0,2,0,3,3,3,3,0,5,0,8,0Z"/>
      <path class="cls-1" d="M136,153c-2,6,0,13-4,2-1-4-5-4-8-4-5,0-9-1-14,1,0,0,0,0-1,0,0-5,0-1,1-15,0-1,2-3,2-3,7,0,13,0,2,0,0,0,0,0,0,0-2,0-4,0-6,0-4,0-8,0-12,0-2,0-4,0-4,3,0,3,0,5,0,8,0,2,0,4,3,4,5,0,1,0,15,0,2,0,3,0,3-3,0-4,0-7,0-11,0,0,0-1,0-2,0,0,0,0,1,0Z"/>
      <path class="cls-1" d="M126,156c0,1-2,2-3,4,3,0,6,0,8,0,0,0,0,0,0,0-1,0-2,0-4,0,1,0,2,0,3,1,0,0,0,0,0,0-2,0-4,0-5-2-3-2-4-1-6,1,0,0,0,0-1,1,0-1,0-2,0-3-1,0-3,0-4,0,0,0,0,0,0,0,1,0,3,0,4-2-1,0-2-2-3-3,0,0,0,0,0-1,3,3,7,4,1,0,0,0,0,0,0,1Z"/>
      <path class="cls-2" d="M568,674c0,4,0,9-1,13,0,4,0,7,0,11,0,3-1,3-4,3-16,0-33-2-49-2-29-1-59-3-88-4-26,0-51,0-77,0-12,0-25-2-37-3-11,0-22-2-33-3-1-1-2-3-3-5-5,0-9,0-14-1-2,0-3,0-3-3,0-9,0-19,1-28,5,0,8,0,12,0,26,2,52,4,78,6,8,0,16,0,24,1,13,0,25,2,38,3,13,0,26,2,38,2,1,0,2,2,3,2,9,0,18,0,27,1,17,0,34,2,5,3,13,0,25,2,39,4Z"/>
      <path class="cls-2" d="M154,296c0,6,0,12-1,18-2,14-2,29-1,43,0,3,0,7-4,8-1,0-2,0-3,0-8,0-16-1-25-2-13,0-26,0-39,0-3,0-2-2-2-3,0-1,0-21,1-31,0-5,0-1,0-15,0-7,0-14,3-21,0,0,2-2,3-2,7,0,14,0,22,1,13,0,26,1,39,2,3,0,5,0,8,0ZM98,344c4-4,8-9,12-13,2-2,5-2,7,0,3,3,5,7,7,1,0,0,2,1,3,2,0,0,0,0,0,0-3-4-7-9-1-14,3,0,5,0,8,0,2,0,4,0,6,0,0,0,0,0,0-1-5,0-11,0-16,0,0,0,0,0,0-1,5-5,11-1,16-15h0c-5,4-1,9-16,14-5-6-8-13-14-17,4,6,9,12,13,18-9,3-18,0-26,0,7,2,14,2,22,2-5,5-9,8-12,14Z"/>
      <path class="cls-2" d="M76,339c0-1,0-21,0-31,0-4,0-9,0-13,0,0,0-1,1-2,0,0,0,1,0,2,0,11,0,22,0,34,0,4,0,7,0,11,0,0,0,0,0,0Z"/>
      <path class="cls-2" d="M155,301c0,7,0,14-1,21,0,0,0,0,0,0,0-7,0-14,1-21,0,0,0,0,0,0Z"/>
      <path class="cls-2" d="M452,38c-23-2-46-3-68-4-6,0-13,0-19,0-16-1-32-3-48-5-8,0-17-1-25-2-15-1-3-3-45-4-18-2-37-2-55,0-3,0-3,0-3-3,1-11,6-21,11-31,5-1,8-2,12-3,0-2,2-3,4-2,14,0,28,1,43,2,1,0,2,2,3,3,21,2,41,4,62,6,19,2,38,5,57,7,8,1,16,2,25,2,2,0,3,0,3,2,3,11,6,21,9,32,2,8,5,15,8,23,0,1,0,3,1,5ZM317,344c1-2,3-3,3-4,0-2,0-4-3-4-1,0-3,2-3,3,0,1,2,2,3,5Z"/>
      <path class="cls-2" d="M387,426c-3,0-5,0-7,0-27,0-55,1-82,2-22,0-44,0-66,1-19,0-39,2-58,2-1,0-19,2-28,2-2,0-3,0-3-3,0-6-1-11-2-17,0-2,0-3,0-5,5,0,1,0,15-1,18-1,36-2,54-3,15,0,29-1,44-1,28,0,56,0,84,0,11,0,22,0,33,0,4,0,8,0,12,0,0,0,3,0,3,2,0,6,2,13,2,19ZM262,417c-2-1-3-3-4-3-2,0-4,1-4,3,0,0,2,3,3,3,1,0,3-2,5-3Z"/>
      <path class="cls-2" d="M449,275c0,7,0,13,0,2,0,3,0,4-4,3-16-2-33-4-49-5-18-2-36-3-55-5-11-1-22-3-34-4-17-2-34-3-51-4-2,0-41-1-61-2-2,0-3,0-3-3,0-7,0-14,1-2,12-2,24,0,36,0,11,0,23,0,34,2,15,1,29,3,44,4,17,2,33,4,5,5,19,2,38,4,57,6,11,1,21,2,32,3,0,0,1,0,2,0ZM316,274c2,2,3,3,4,3,2,0,3,0,3-2,0-2,0-4-3-4-1,0-2,1-4,3Z"/>
      <path class="cls-2" d="M521,736c-18,0-36,0-55-1-25-2-5-2-75-2-12,0-24,0-36,1-2,0-3,0-4-3-2-7-2-14,0-22,0-2,1-3,3-3,6,0,11,0,17,0,15,0,3,0,44,0,23,0,46,2,7,2,14,0,28,0,43,0,1,0,2,0,3,0,2,0,5,0,6,0,1,0,0,4,1,6,0,6,0,11,1,17,0,3-3,3-5,4-2,0-4,0-7,0-11,0-22,0-33,0,0,0,0,0,0,0Z"/>
      <path class="cls-2" d="M55,775c-3,0-59,0-89,0-13,0-26,0-4,0-2,0-3,0-3-2,0-7,0-14,0-21,0-3,1-3,3-3,21,0,43,1,64,2,8,0,16,0,25,0,12,0,25,0,37,0,5,0,1,0,14,0,2,0,3,1,3,3,0,6,0,12,0,18,0,2,0,3-3,3-4,0-7,0-11,0,0,0,0,0,0,0Z"/>
      <path class="cls-2" d="M313,154c11,0,21,0,32,1,2,1,41,3,61,5,11,0,23,2,34,3,7,0,7,0,6,7,0,3,0,7-1,1,0,2,0,3-3,2-13-1-27-2-4-3-19-1-39-3-58-4-14,0-29,0-43,0-2,0-3,0-3-3,0-6,0-11,0-17,0,0,1-2,2-2,4,0,9,0,14,0,0,0,0,0,0,0ZM405,171c2,1,3,2,4,2,1,0,3-2,3-3,0-1-2-2-3-3,0,1-2,2-3,4ZM341,166c-2-1-3-2-4-2,0,0-2,1-3,2,0,1,2,3,3,3,0,0,2-1,4-3Z"/>
      <path class="cls-2" d="M556,434c-6,0-11,0-17-1-8,0-15-2-23-2-17-1-33-3-5-4-11,0-23,0-34,0-7,0-13-1-2-2,0,0-2-2-2-2,0-7,2-14,3-21,0,0,2-2,3-2,12,0,23,0,35,0,12,0,24,1,37,2,12,0,24,2,36,3,9,0,19,2,28,2,2,0,3,0,3,3,0,8,0,15,0,24Z"/>
      <path class="cls-2" d="M42,235c0-2,0-4,0-6,1-5,2-7,8-6,7,0,15,0,22,0,15,1,3,3,44,4,9,0,19,1,28,2,1,0,2,2,3,3,3,0,4,1,4,4,0,6,0,13,0,19,0,2,0,3-3,3-5,0-9,0-14-1-22-2-45-4-67-7-17-2-33-2-5-3-3,0-4-1-4-4,0-3,0-5,0-8,0,0,0,0,0,0Z"/>
      <path class="cls-2" d="M389,214c0,7,0,13-2,19,0,0-2,2-4,2-4,0-9,0-13,0-1,0-2-2-3-2-17-1-33-2-5-3-12,0-24-1-36-2-2,0-3,0-3-3,0-5,0-11,0-16,0-2,0-3,3-3,15,0,3,0,45,2,13,0,26,2,4,3,11,0,21,1,32,2,6,0,11,1,17,2ZM285,222s0,0,1,0c0-1,3-2,2-3,0-1-2-3-3-3,0,0-3,2-3,2,0,1,1,3,2,4ZM346,226s0,0,1,0c0,0,2-2,2-3,0-1-2-2-3-3,0,0-2,2-2,3,0,1,1,2,2,3Z"/>
      <path class="cls-2" d="M459,647c0-3,0-7,0-11,0-2,0-2,2-2,4,0,7,0,11,0,13,0,27,0,4,2,14,0,28,2,41,3,3,0,6,0,9,0,2,0,3,0,3,3,0,5,0,11,0,16,0,2-1,3-3,3-9,0-18-1-26-1-19,0-37-2-56-2-6,0-12,0-17,0-2,0-3,0-3-3,0-3,0-5,0-8Z"/>
      <path class="cls-2" d="M48,603c16,1,31,2,47,3,11,0,23,2,34,2,6,0,6,0,5,6,0,4,0,9,0,13,0,3,0,4-5,4-15-1-29-2-44-3-15,0-31,0-46-1-2,0-4,0-4-3,0-7,0-13,0-2,0,0,1-2,2-2,3,0,7,0,1,0,0,0,0,0,0,0Z"/>
      <path class="cls-2" d="M498,575c15,0,3,1,45,2,7,0,13,0,2,1,4,0,4,0,4,4,0,5,0,1-1,14,0,2,0,3-3,3-17,0-33,0-5-2-13,0-26-1-39-2-1,0-3,0-4,0-2,0-3-1-3-3,0-4,0-9,0-13,0-4,2-5,5-4,6,0,13,0,19,0,2,0,4,0,6,0,0,0,0,0,0,0Z"/>
      <path class="cls-2" d="M557,322c0,3,0,7,0,1,0,4,0,8,0,11,0,5-1,6-6,6-6,0-11,0-17,0-13,0-25-1-38-2-11,0-21-2-32-3-2,0-3-1-3-3,0-7,0-14,1-2,0-4,3-4,6-4,8,0,16,0,24,0,2,1,41,2,61,6,0,0,2,0,2,0Z"/>
      <path class="cls-2" d="M55,303c-9,0-19-2-28-3-12,0-23-2-35-2-3,0-5-1-5-4,0-6,0-11,0-17,0-2,0-2,3-2,5,0,9,0,14,0,16,1,33,2,49,4,0,0,1,0,2,0,6,0,6,0,7,7,0,4,0,9,0,13,0,4,0,4-4,4,0,0-1,0-2,0,0,0,0,0,0,0Z"/>
      <path class="cls-2" d="M565,553c0,5,0,9,0,13,0,3-2,3-4,3-15,0-3,0-45,0-11,0-22,0-33,0-2,0-3,0-4-2-1-5-2-1,0-16,29,1,57,2,87,4Z"/>
      <path class="cls-2" d="M557,376c0,3,0,6,0,9,0,2,0,3-3,3-6,0-11,0-17-1-16-1-32-2-48-4-2,0-4,0-6,0,0,0-2-1-2-2,0-7,0-14,1-21,0,0,2-2,4-2,4,0,9,0,13,0,9,0,17,0,26,2,1,1,19,3,29,5,0,0,2,2,2,3,0,3,0,6,0,9h0Z"/>
      <path class="cls-2" d="M485,185c2,2,4,4,59,6,4,0,5,1,5,5,0,5,0,1,0,15,0,2,0,2-2,2-6,0-11-1-17-2-15-2-3-3-46-5,0,0,0,0-1,0-7,0-7-1-7-8,0-3,0-6,0-9,0-5,2-5,6-5,0,0,1,0,2,0,0,0,0,0,0,0Z"/>
      <path class="cls-2" d="M588,279c4,0,8,0,12,1,2,0,2,0,2,3,0,7,0,14,0,21,0,0-1,2-2,2-6,0-13-1-19-2-2,0-4-1-3-4,0-5,0-1,2-16,0-5,1-5,6-5,0,0,1,0,2,0,0,0,0,0,0,0ZM596,289c-1,0-3,0-4,0,0-1,0-2,0-4,0,2,0,3-1,4,0-1-2-2-2-2-2,0-4,2-6,3,1,0,2,0,3,0,0,0,1,0,2,1,0,0-1,1-2,1,0,0-1,0-2,0,2,0,4,1,6,2,0,0,0,0,0-2,0,1,0,2,0,3,1-1,3-3,4-4,0,0-2,0-3-1,1,0,3-1,4-2Z"/>
      <path class="cls-2" d="M581,364s0,0,0,0c1,0,3-2,4-1,6,0,11,2,17,2,0,6-1,12-2,18,0,2-2,3-4,3-5-1-1-2-14-3-1,0-3-2-2-3,0-6,0-11,0-17,0,0,0,0,1,0ZM591,376s0,0,1,0c0,1,0,3,0,4,0,0,0,0,0,0,0-4,2-5,4-6-1,0-2,0-3,0,0,0,0,0,0,0,1,0,3,0,4,0-2,0-5-2-5-5,0,0,0,2-1,4-1-2-2-3-3-5,0,1,0,2,0,3-2,0-3,0-4,1h0c1,1,3,1,4,1,0,0,0,0,0,0-1,0-3,0-4,1,0,0,0,0,0,0,1,0,3,0,4,0,0,1,0,2,0,4,0-2,1-3,2-4Z"/>
      <path class="cls-2" d="M118,417c0,4,0,8,0,12,0,0-1,2-2,2-8,0-15,0-23,0-2,0-2,0-2-3,0-7,0-13,0-2,0-2,1-3,3-3,7,0,14,0,22,2,0,0,2,2,2,3,0,3,0,5,0,8,0,0,0,0,0,0ZM1,424s0,0,0,0c1-1,2-3,4-4,1-2,3-2,4,0,1,1,2,2,4,3,0,0,0,0,0,0-1-1-2-2-3-4,3,0,5,0,7,0,0,0,0,0,0,0-3,0-5,0-8,0,0,0,0,0,0,0,2-1,3-3,5-4,0,0,0,0,0,0-2,1-3,3-5,4-2-2-3-4-5-6,0,0,0,0,0,0,1,2,3,4,5,6-3,0-5,0-6,0,0,0,0,0,0,0,2,0,3,0,5,1-1,2-3,4-4,5Z"/>
      <path class="cls-2" d="M587,411c4,0,8,1,12,2,2,0,3,0,3,3,0,3,0,6,0,9,0,3,0,6,0,9,0,2,0,3-3,3-6,0-11-1-17-2,0,0-1-1-1-2,0-6,0-11,1-17,0-4,1-5,6-5ZM598,42s0,0,0,0c-1,0-2,0-3,0,0,0,0-2,0-3,0,1-1,2-2,3,0-2,0-3,0-4,0,0,0,0,0,0,0,0,0,2-1,3h-4s0,0,0,1c1,0,3,0,5,2-2,1-3,2-5,3,2,0,3,1,5,2,0,0,0-1,1-2,0,0,1,1,1,2,2,0,3-2,4-3-1,0-2,0-3-1,0,0,0,0,0,0,1,0,2,0,4,0Z"/>
      <path class="cls-2" d="M602,33c0,5,0,1,0,15,0,2-1,3-3,3-5,0-11-1-16-3,0,0-2-2-2-3,0-5,0-1,0-15,0-3,1-5,5-5,5,0,11,1,16,2,0,0,1,1,2,2,0,1,0,2,0,3,0,0,0,0,0,0ZM591,34c0-2,1-3,1-4,0,0,0,0,0,0v4s0,0,1,0c0-4,2-4,5-5-2,0-3,0-4-1,0,0,0,0,0,0,1,0,3,0,4,0-1-1-3-3-4-4,0,0,0,1-2,2,0-1,0-2,0-2-1,0-2,0-4,1,0,0-1,0-2,0,0,0,1,1,2,1,0,0,0,0,1,0,0,0,0,0,0,0-1,0-3,1-4,2,0,0,0,0,0,0,1,0,2,0,3,0,0,0,0,2,1,3Z"/>
      <path class="cls-2" d="M579,334v11s0,0-1,0c0-4,0-7,0-11,0,0,0,0,0,0Z"/>
      <path class="cls-2" d="M55,171c-5,0-1-1-15-2-12-2-24-4-37-6-5,0-6-2-6-7,0-3,0-6,0-9,0-4,1-5,5-4,11,1,22,3,33,4,5,0,11,1,16,2,0,0,2,0,2,2,0,7,0,13,0,2Z"/>
      <path class="cls-2" d="M601,161c0,2,0,4,0,5,0,2,0,3-2,3-5,0-1,0-15,0-5,0-5-1-6-6,0-4,0-8,0-12,0-2,0-3,3-3,6,0,12,0,18,0,0,0,1,1,2,2,0,3,1,6,2,9,0,0,0,0,0,0ZM583,161c3,0,5,2,7,3,0,0,0-2,0-3,2,0,3,0,4,0,0,0,0,0,0,0-2,0-3,0-5,0,0-4,4,0,5-3-2,0-3,0-5,0,0,0,0-2,0-3-2,2-4,3-7,5h4c-1,1-2,2-4,3Z"/>
      <path class="cls-2" d="M567,544c-1,0-19,0-28-1-9,0-18,0-26,0-2,0-3,0-4-3,0-5,0-11-1-17,5,0,9,0,13,0,12,0,25,0,37,2,8,0,8,0,9,8,0,4,0,7,0,12Z"/>
      <path class="cls-2" d="M447,116c-1,5-2,1-4,15,0,2-2,3-4,2-1-2-2-3-3-5-4,0-8-1-12-2-2,0-4,0-3-4,0-4,2-9,2-13,0-2,0-3,3-2,15,3,3,5,44,8,0,0,1,0,2,0ZM417,122s0,0,1,0c0,0,2-2,2-3,0-1-2-2-3-3,0,1-2,2-2,3,0,1,1,2,2,3Z"/>
      <path class="cls-2" d="M602,215c-8,1-15,0-21-2,0,0-1,0-1-2,0-5,0-1,0-14,0-3,2-4,5-4,5,0,9,2,14,2,2,0,3,0,3,3,0,6,0,11,0,17ZM594,203c-2-1-5,0-6-4,0,0,0,2,0,3,0,0,0-1-1-2-1,1-2,2-3,3,0,0,1,0,2,2-1,0-2,1-3,2,1,0,2,1,4,2,0,0,0,0,1-2,0,0,1,1,1,2,1-1,3-2,4-3-1,0-2,0-3-1,0,0,0,0,0,0,1,0,3,0,4,0Z"/>
      <path class="cls-2" d="M603,258c-7,0-13,0-2,0,0,0-2-2-2-3,0-6,0-11,0-17,0-2,1-3,3-3,5,0,11,0,16,0,2,0,3,0,3,3,0,7,0,13,0,2ZM588,247s0,0,0,0c-1,0-3,0-4,1,0,0,0,0,0,0,2,0,5,0,6,4,0-2,0-3,1-5,0,2,1,3,2,4,0,0,0,0,0,0,0-1,0-2,0-3,1,0,3,0,4,0,0,0,0,0,0,0h-4c0,0,0-1,0-1,1,0,3,0,4,0,0,0,0,0,0,0-3,0-5-2-6-5,0,2,0,3-1,5,0-2,0-2,0-3-2,1-4,2-6,3,0,0,0,0,0,0,1,0,3,0,4,0Z"/>
      <path class="cls-2" d="M159,123c-3,0-6,0-9,0-4,0-8,0-12-1-3,0-4-1-4-4,0-5,1-9,2-14,0-1,2-2,3-2,5,0,11,0,16,1,0,0,2,1,2,2,0,6,0,11,0,17ZM15,114s0,0,0,0c1,0,3,0,4,0,0,0,0,0,0,0-2,0-4,0-6,0,1-2,2-3,3-5,0,0,0,0,0,0-1,2-3,3-4,5-2-2-3-3-4-5,0,0,0,0,0,0,0,1,2,3,3,5-1,0-2,0-3,0,0,0,0,0,0,0,0,0,2,0,3,0-1,1-2,2-3,3,0,0,0,0,0,0,1-1,3-3,4-4,2,1,3,3,5,4,0,0,0,0,0-1-1,0-2-1-4-2Z"/>
      <path class="cls-2" d="M138,253c5,0,1,0,14,2,5,0,6,2,5,7,0,3,0,5,0,8,0,4-1,4-5,4-6,0-12-1-18-2-3,0-4-2-3-5,0-3,0-6,1-8,0-4,2-5,6-6ZM148,261c0-1,0-2,0-3,0,0,0,0,0,0,0,1-2,2-3,4,0,0,0,0-1,1,0-2-1-3-2-5,0,0,0,0-1,0,0,0,1,2,2,3,0,0-1,0-2,2h4c0,2-1,3-2,5,0,0,0,0,0,0,0-1,2-2,3-4,2,1,4,3,7,4,0,0,0,0,0,0-2-1-4-3-6-4,0,0,0,0,0,0h6s0,0,0,0c-2,0-3,0-5,0Z"/>
      <path class="cls-2" d="M162,217c0,1,0,2,0,3,0,5,0,5-5,5-5,0-9,0-14-1-2,0-3-1-3-4,0-5,1-1,4-14,0,0,2-1,3-1,4,0,8,1,11,2,3,0,4,2,4,5,0,2,0,3,0,5,0,0,0,0,0,0ZM149,217c0,2-1,3-2,4,0,0,0,0,0,0,1-2,2-3,3-5,3,1,5,3,8,4,0,0,0,0,0,0-2-1-3-2-5-3,0,0,1,0,2-1-2,0-3,0-4,0,1-2,2-3,3-4,0,0,0,0,0,0-1,2-3,3-4,5-2-1-3-2-5-3,0,0,0,0,0,0,0,1,2,2,3,3-2,0-3,0-5,1,0,0,0,0,0,0,1,0,3,0,4,0Z"/>
      <path class="cls-2" d="M163,161c0,2,0,5,0,7,0,2-1,3-4,3-5,0-1-1-15-2-2,0-3-1-4-3,0-5,1-9,3-14,0,0,2-1,3-1,5,0,1,0,14,1,2,0,3,2,3,4,0,2,0,3,0,5,0,0,0,0,0,0ZM152,161c2,2,4,3,6,5,0,0,0,0,1-1-2-1-3-2-5-4,2,0,3,0,4-1-2,0-3,0-4,0,0-1,1-2,2-3,0,0,0,0-1,0,0,1-1,3-2,4-1-2-2-3-3-4,0,0,0,0,0,0,0,1,1,2,2,4-2,0-3,1-5,1,0,0,0,0,0,0,1,0,3,0,4,0,0,1-1,3-2,4h0c1-1,2-3,4-4Z"/>
      <path class="cls-2" d="M122,222c-3,0-5,0-8,0-2,0-3,0-3-3,0-4,1-9,2-13,0,0,1-2,2-2,6,0,12,0,18,0,0,0,2,1,2,2,0,4,0,8,0,12,0,2-1,3-4,3-3,0-5,0-8,0,0,0,0,0,0,0ZM125,213c1-2,2-4,4-6,0,0,0,0,0,0-1,2-2,3-4,5-1-2-3-3-4-5,0,0,0,0,0,0,1,2,2,3,3,5-2,0-3,0-5,0,0,0,0,0,0,0,1,0,3,0,4,0,0,2-2,3-3,4,0,0,0,0,0,0,1-2,3-4,4-6,2,1,4,3,6,4,0,0,0,0,0,0-1,0-2-1-3-2,0,0,1-1,2-2-2,0-3,0-5,0Z"/>
      <path class="cls-1" d="M98,344c2-6,7-9,12-14-8,0-15,0-22-2,8,0,17,3,26,0-5-7-9-12-13-18,6,4,9,11,14,17,5-5,1-1,16-15h0c-5,6-11,11-16,15,0,0,0,0,0,1,5,0,11,0,16,0,0,0,0,0,0,1-2,0-4,0-6,0-2,0-5,0-8,0,4,5,7,9,1,14,0,0,0,0,0,0,0,0-2-1-3-2-3-3-5-7-7-1-2-3-5-3-7,0-4,4-8,8-12,13Z"/>
      <path class="cls-1" d="M317,344c-2-2-3-3-3-5,0-1,2-3,3-3,2,0,3,2,3,4,0,1-1,2-3,4ZM317,338c0,1-1,2-1,2,0,0,1,1,2,2,0,0,1-1,1-1,0,0,0-1-2-3Z"/>
      <path class="cls-1" d="M262,417c-2,2-3,3-5,3,0,0-3-2-3-3,0-2,1-4,4-3,1,0,2,1,4,3ZM259,416c0,0-1,0-2,0,0,1,0,2-1,3,0,0,2,0,2,0,0-1,0-2,0-3Z"/>
      <path class="cls-1" d="M316,274c2-1,3-3,4-3,2,0,3,2,3,4,0,2-1,3-3,2-1,0-2-2-4-3Z"/>
      <path class="cls-1" d="M405,171c1-2,2-3,3-4,1,0,3,2,3,3,0,0-2,2-3,3,0,0-2-1-4-2Z"/>
      <path class="cls-1" d="M341,166c-2,1-3,3-4,3-1,0-2-2-3-3,0,0,2-2,3-2,1,0,2,1,4,2Z"/>
      <path class="cls-1" d="M285,222c0-1-2-3-2-4,0,0,2-2,3-2,1,0,3,2,3,3,0,0-1,2-2,3,0,0,0,0-1,0Z"/>
      <path class="cls-1" d="M346,226c0-1-2-2-2-3,0,0,1-2,2-3,0,1,2,2,3,3,0,0-1,2-2,3,0,0,0,0-1,0Z"/>
      <path class="cls-1" d="M596,289c-2,0-3,1-4,2,0,0,2,1,3,1-1,1-2,2-4,4,0,0,0-1,0-3,0,0,0,2,0,2-2,0-3-1-6-2,1,0,2,0,2,0,0,0,1,0,2-1,0,0-1,0-2-1,0,0-2,0-3,0,2-1,4-2,6-3,0,0,0,0,2,2,0-2,0-3,1-4,0,2,0,3,0,4,1,0,3,0,4,0Z"/>
      <path class="cls-1" d="M591,376c0,1-1,2-2,4,0-2,0-3,0-4-1,0-3,0-4,0,0,0,0,0,0,0,1,0,3,0,4-1,0,0,0,0,0,0-1,0-3,0-4,0h0c1-1,3-2,4-2,0,0,0-2,0-3,0,2,1,3,3,5,0-2,0-3,1-4,0,3,3,4,5,5-1,0-3,0-4,0,0,0,0,0,0,0,1,0,2,0,3,0-2,1-5,2-4,6,0,0,0,0,0,0,0-1,0-3,0-4,0,0,0,0-1,0Z"/>
      <path class="cls-1" d="M1,424c1-2,2-3,4-5-2,0-3,0-5-1,0,0,0,0,0,0,2,0,4,0,6,0-2-2-3-4-5-6,0,0,0,0,0,0,2,2,3,4,5,6,2-1,3-3,5-4,0,0,0,0,0,0-2,1-3,3-5,4,0,0,0,0,0,0,3,0,5,0,8,0,0,0,0,0,0,0-2,0-4,0-7,0,1,1,2,3,3,4,0,0,0,0,0,0-1-1-3-2-4-3-2-2-3-1-4,0-1,1-2,3-4,4,0,0,0,0,0,0Z"/>
      <path class="cls-1" d="M598,42c-1,0-2,0-4,0,0,0,0,0,0,0,0,0,2,0,3,1-2,0-3,2-4,3,0,0,0,0-1-2,0,1-1,2-1,2-2,0-3-1-5-2,1,0,3-2,5-3-2,0-4-1-5-2,0,0,0,0,0-1h4c0,0,0-2,1-3,0,0,0,0,0,0,0,0,0,2,0,4,0-1,1-2,2-3,0,1,0,2,0,3,1,0,2,0,3,0,0,0,0,0,0,0Z"/>
      <path class="cls-1" d="M591,34c0-2,0-2-1-3-1,0-2,0-3,0,0,0,0,0,0,0,1,0,3-1,4-2,0,0,0,0,0,0,0,0-1,0-1,0,0,0-1,0-2-1,0,0,1,0,2,0,1,0,2,0,4-1,0,0,0,0,0,2,0-1,1-2,2-2,1,1,3,3,4,4,0,0-2,0-4,0,0,0,0,0,0,0,0,0,2,0,4,1-3,1-5,2-5,5,0,0,0,0-1,0v-4s0,0,0,0c0,0,0,2-1,4Z"/>
      <path class="cls-1" d="M583,161c1,0,3-2,4-2h0c0,0-2,0-4,0,2-2,5-3,7-5,0,0,0,2,0,3,1,0,3,0,5,0,0,2-5-1-5,3,2,0,3,0,5,0,0,0,0,0,0,0-1,0-3,0-4,0,0,0,0,2,0,3-2,0-5-2-7-3Z"/>
      <path class="cls-1" d="M417,122c0-1-2-2-2-3,0,0,1-2,2-3,1,1,3,2,3,3,0,0-1,2-2,3,0,0,0,0-1,0Z"/>
      <path class="cls-1" d="M594,203c-1,0-3,0-4,0,0,0,0,0,0,0,0,0,2,0,3,1-1,0-3,2-4,3,0,0,0-1-1-2,0,0,0,1-1,2-1,0-2-1-4-2,0,0,2-1,3-2,0,0-1-1-2-2,0,0,2-2,3-3,0,0,0,1,1,2,0-1,0-2,0-3,0,3,4,3,6,4Z"/>
      <path class="cls-1" d="M588,247c-1,0-3,0-4,0,0,0,0,0,0,0,2,0,4-2,6-3,0,0,0,0,0,3,0-2,0-3,1-5,1,3,2,6,6,5,0,0,0,0,0,0-1,0-3,0-4,0,0,0,0,0,0,0h4c0,0,0,1,0,1-1,0-2,0-4,0,0,0,0,2,0,3,0,0,0,0,0,0,0-1,0-2-2-4,0,2,0,3-1,5,0-4-3-4-6-4,0,0,0,0,0,0,1,0,3,0,4-1,0,0,0,0,0,0Z"/>
      <path class="cls-1" d="M15,114c1,0,2,1,4,2,0,0,0,0,0,1-2-1-3-3-5-4-1,1-3,3-4,4,0,0,0,0,0,0,0-1,2-2,3-3-1,0-2,0-3,0,0,0,0,0,0,0,1,0,2,0,3,0,0-2-2-3-3-5,0,0,0,0,0,0,1,2,3,3,4,5,1-2,3-3,4-5,0,0,0,0,0,0-1,1-2,3-3,5,2,0,4,0,6,0,0,0,0,0,0,0-1,0-3,0-4,0,0,0,0,0,0,0Z"/>
      <path class="cls-1" d="M148,261c2,0,3,0,5,0,0,0,0,0,0,0h-6s0,0,0,0c2,1,4,3,6,4,0,0,0,0,0,0-2-1-4-3-7-4,0,1-2,2-3,4,0,0,0,0,0,0,0-1,1-3,2-5h-4c1,0,2-1,2-2,0,0-1-2-2-3,0,0,0,0,1,0,0,2,1,3,2,5,0,0,0,0,1-1,0-1,2-2,3-4,0,0,0,0,0,0,0,0,0,2,0,3Z"/>
      <path class="cls-1" d="M149,217c-2,0-3,0-4,0,0,0,0,0,0,0,1,0,3,0,5-1-1-1-2-2-3-3,0,0,0,0,0,0,1,0,3,2,5,3,1-2,3-3,4-5,0,0,0,0,0,0-1,1-2,3-3,4,1,0,2,0,4,0-1,0-2,0-2,1,2,1,3,2,5,3,0,0,0,0,0,0-3-1-5-3-8-4-1,2-2,3-3,5,0,0,0,0,0,0,0-1,1-3,2-4Z"/>
      <path class="cls-1" d="M152,161c-1,2-3,3-4,5h0c0-1,1-3,2-4-1,0-3,0-4,0,0,0,0,0,0,0,2,0,3,0,5-1,0-1-1-3-2-4,0,0,0,0,0,0,0,1,2,2,3,4,0-1,1-3,2-4,0,0,0,0,1,0,0,0-1,2-2,3,1,0,2,0,4,0-2,0-3,0-4,1,2,1,4,3,5,4,0,0,0,0-1,1-2-2-4-3-6-5Z"/>
      <path class="cls-1" d="M125,213c2,0,3,0,5,0,0,0-1,1-2,2,1,0,2,2,3,2,0,0,0,0,0,0-2-1-4-2-6-4-1,2-3,4-4,6,0,0,0,0,0,0,0-1,2-3,3-4-2,0-3,0-4,0,0,0,0,0,0,0,2,0,3,0,5,0-1-2-2-4-3-5,0,0,0,0,0,0,1,1,3,3,4,5,1-2,3-4,4-5,0,0,0,0,0,0-1,2-2,4-4,6Z"/>
      <path class="cls-2" d="M317,338c0,1,2,2,2,3,0,0-1,1-1,1,0,0-1,0-2-2,0,0,0-1,1-2Z"/>
      <path class="cls-2" d="M259,416c0,1,0,2,0,3,0,0-1,0-2,0,0-1,0-2,1-3,0,0,1,0,2,0Z"/>
    </g>
  </g>
</svg>