<?xml version="1.0" encoding="UTF-8"?>
<svg id="Layer_2" data-name="Layer 2" xmlns="http://www.w3.org/2000/svg" viewBox="0 0 655 842">
  <defs>
    <style>
      .cls-1 {
        fill: #000;
      }

      .cls-1, .cls-2 {
        stroke-width: 0px;
      }

      .cls-2 {
        fill: #fff;
      }
    </style>
  </defs>
  <g id="Layer_1-2" data-name="Layer 1">
    <g>
      <path class="cls-1" d="M644,839c-5,3-11,1-16,2-6,0-12,0-17,0-22,0-44,0-66,0-3-2-6,0-89,0-11,0-23,0-34,0-2,0-4,0-6,0-17,0-34-2-51-2-23,0-45,0-68,0-12,0-24-1-36-1-13,0-26,0-39,0-11,0-22,0-33,0-21,0-41,0-62-2-16,0-33-2-49-3-7,0-13,0-2,1,0,0-2,0-3-1,0,0,0-2,0-3-2,0-3-2,0-3,0,0,0-1,0-2,0-13,2-27,2-4,0-8,2-17,2-25,0-14,0-27,0-41,0-27,0-54,0-81,0-25,1-5,1-74,0-17,0-35,0-52,0-8,2-15,2-23,0-13,1-27,1-41,0-26,0-52,1-78,2-3,2-61,2-91,0-35,0-69,0-104,0-13,0-26,0-39,0-14,0-28,0-42,0-19,1-39,2-58,0-11,0-22,0-33,0-1,0-2,0-4,3,0,5,0,8,0,14,4,28,4,42,4,16,0,33,0,49,0,11,0,22,0,33,0,6,0,12,0,19,0,2,0,41,0,61,0,21,0,42,0,64,1,34,0,68,0,102,0,2,0,4,1,6,2,9,0,19,0,28,0,13,0,26,1,38,1,18,0,37,0,55,0,16,0,32,0,48,0,8,0,17,0,25,0,0,0,2,0,3,0,4,0,4,0,4,5,0,1,0,19,0,29,0,16,0,32-1,49,0,26-2,53-3,79,0,12,0,23,0,35,0,15,0,3-1,45,0,17,0,34,0,52,0,16-2,32-3,48,0,17,0,35,0,52,0,2,0,4,0,6,0,11,0,23,0,34,0,16,0,32,0,48,0,19,0,38,0,57,0,23-1,47-2,7-1,29-1,58,0,86,0,13,0,25,0,38,0,13,0,26,0,4,0,2,0,4,0,6ZM594,841s0,0,0,0c8,0,16,0,24,0,7,0,13,0,2-2,2,0,4,0,4-4,0-5,0-11,0-16,0-17,0-34,0-5,0-17-1-35-1-52,0-27,0-53,1-8,0-17,2-34,2-51,0-16,0-32,0-48,0-13,0-26,0-4,0-16,0-31,0-47,0-17,0-34,0-51,0-19,0-39,1-58,0-21,2-41,3-62,0-29,0-57,1-86,0-21,2-42,2-63,0-25,1-49,2-74,0-14,0-28,0-42,0-4,0-4-5-4-8,0-17,0-25,0-19,0-39,0-58,0-18,0-36,0-54,0-14,0-28,0-42-1-11,0-22-2-33-2-17,0-35,0-52,0-13,0-26,0-39,0-19,0-37,0-56,0-26,0-53-1-79-1-22,0-44,1-66,2-17,0-33,0-5,0-24,0-49,0-73-5-2,0-3,0-3,3,0,6,0,13,0,19,0,12-2,24-2,36,0,23,0,45,0,68,0,15,0,31,0,46,0,32,0,65,0,97,0,39,0,79-2,118,0,23,0,45,0,68,0,24-2,48-3,72,0,25,0,5-1,75,0,32,0,64,0,95,0,34,0,67-3,101,0,8,0,16-1,24,0,2,0,4,0,6,0,2,0,3,3,3,5,0,9,0,14,0,15,0,29,2,44,2,31,0,63,2,94,2,19,0,39,0,58,0,8,0,16,0,25,0,24,0,48,0,71,0,17,0,33,2,5,2,25,0,49,0,74,0,2,0,41,0,61,0,16,0,32,0,47,0,16,0,33,0,49,1Z"/>
      <path class="cls-1" d="M555,64c-2,2-3,3-5,5-8,14-18,28-29,4-7,8-15,15-24,2-1,6-2,11-3,16-12,5-25,6-38,6-9,0-18,0-26-5-8-4-17-8-25-13-5-3-9-7-12-13-7-12-13-24-2-36,0-1,0-3-2-4-3-4-1-8,0-13,2,2,4,3,5,4,0,0,0,1,2,1,7,4,15,7,22,11,9,4,19,5,29,6,17,1,33,0,49-5,5-1,1-3,14-6,12-7,23-15,35-23,11-7,22-13,34-19,9-5,2-5,3-6,1,0,19,0,28,5,2,1,5,2,5,5,0,3-4,4-6,5-7,2-14,4-21,7-5,2-9,5-13,8-1,0-2,3-3,4h0ZM36,675q0,5,4,11c0,0,0,1,1,1,1,1,19,21,31,29,1,0,3,2,4,2,7,3,14,4,21,3,1,0,19-1,29-1,14,0,27-5,39-12,15-8,27-2,37-33,9-13,19-25,27-38,5-7,12-11,19-14,6-2,13-3,19-5,2,0,4,0,4-4-1,0-3-1-4-2-7-3-15-3-23-3-24,0-44,8-62,24-22,19-46,3-75,34-16,2-33,3-49-2-7-2-14-4-21-6-5-2-9-5-14-7,0,1,0,2,0,3,2,6,4,13,8,18,0,0,2,1,4,3ZM41,723c18,4,36,4,54-2-18,0-36,3-54,2ZM363,688c6,13,19,25,26,25-8-8-17-17-26-25ZM505,633s0,0,0,0c-11,8-23,15-34,23,13-5,24-13,35-22ZM352,652h0c5,4,1,6,16,9h0c-5-4-1-6-16-9ZM583,622s0,0,0,0c-4,1-8,3-13,4,0,0,0,0,0,0,4-1,9-3,13-4Z"/>
      <path class="cls-1" d="M254,474c-9,0-19-1-29-3-15-2-3-4-45-6-7-1-14-3-21-5-12-2-24-6-37-5-1,0-19,2-29,3-2,0-3,0-5,0,0,0-2-1-3-2,0,0,1-2,2-2,11-6,22-1,34-13,18-3,37-7,55-1,1-2,21,0,32-1,6,0,12,0,18,0,11,0,23,0,34,0,15,0,29-4,43-8,13-4,25-8,38-12,5-1,11,0,16,0,3,0,4,4,3,6-2,4-6,6-1,7-6,2-11,5-15,1-11,13-23,26-39,33-9,4-17,6-27,7-5,0-11,0-17,1ZM358,412s0,0,0,0c-7,0-13,1-19,3-13,4-25,9-38,12-13,3-26,4-39,5-5,0-11,2-16,0-4,0-8,0-12,0-18-2-36,0-55,2-16,2-32,5-48,7-12,2-23,4-33,1-1,0-2,2-3,3,0,0,0,0,0,0,1,0,2,0,3,0,9,0,18-1,27-2,4,0,9,0,13,0,9,0,18,2,27,3,11,2,22,4,34,6,16,2,31,5,47,6,12,0,25,0,38,0,0,0,2,0,3,0,11-4,21-9,3-17,7-6,13-13,19-19,4-3,8-6,12-9,3-2,6-3,9-5,2,0,3-2,2-4,0,0,0-2,1-3ZM293,427s0,0,0,1c9-3,18-5,27-8,9-3,18-6,27-9-5,0-38,9-54,16ZM15,457c24,7,49,1,73,13-24-4-49-8-73-13ZM274,472c-15,0-32,0-49-1,17,2,33,4,49,1ZM189,432c-13,0-26,2-4,5,0,0,0,0,0,0,13-2,26-4,4-5ZM324,444s0,0,0,0c2-2,4-4,6-7h0c-2,2-4,4-6,6Z"/>
      <path class="cls-1" d="M554,274c-6,0-12,0-18,1-9,0-17,5-24,11-9,7-17,15-26,22-1,8-19,16-32,2-17,5-34,11-52,11-6,0-12,0-18,0-8,0-15-4-22-8-5-3-9-6-14-1,0,0-2-1-2-2,0-2-1-5-1-7,0,0,3-1,5-1,6,0,11,0,17,0,14,0,26-3,38-8,12-5,24-1,36-16,9-4,18-1,27-15,15-8,32-13,49-15,16-1,32-1,47,3,5,2,1,4,15,6,3,2,3,4,0,6-2,0-4,1-5,2-6,0-13,0-19,0h0ZM514,263c-2,0-4-2-6-1-5,0-1,3-15,4-14,3-25,11-38,18-2,1-4,21-62,25-14,3-27,6-41,4-2,0-4,0-6,0,3,7,6,12,12,15,4,2,9,3,13,5,8,3,16,5,24,5,16,0,32-2,47-7,11-4,22-9,32-16,9-7,18-16,27-23,1-9,22-15,36-17,12-1,25-2,37-3,1,0,3-1,4-2,0,0,0,0,0-1-2-11-42-9-64-7,0,0,0,0,0,0,0,0,0,1,0,2ZM405,303h0c4,0,9-2,13-3,12-5,23-11,35-17,8-4,16-9,24-13,12-5,25-9,38-11,7-1,14-1,22-2-8,0-16,0-24,0-16,2-31,7-45,15-15,8-29,16-45,23-6,2-12,5-18,7ZM373,334s0,0,0,1c4,1,9,2,13,3,0,0,0,0,0,0-4-1-9-2-13-4Z"/>
      <path class="cls-2" d="M36,675c-2-1-3-2-4-3-4-5-6-11-8-18,0,0,0-2,0-3,5,3,9,5,14,7,7,2,14,4,21,6,16,5,32,4,49,2,29-3,53-15,75-34,18-16,38-23,62-24,8,0,15,0,23,3,1,0,3,1,4,2,0,3-2,3-4,4-6,2-13,2-19,5-7,3-14,7-19,14-9,13-18,25-27,38-1,14-22,25-37,33-12,7-25,12-39,12-1,0-19,0-29,1-7,0-14,0-21-3-1,0-3-1-4-2-11-8-21-19-31-29,0,0,0,0-1-1q-4-6-4-11Z"/>
      <path class="cls-2" d="M41,723c18,1,36-1,54-2-18,5-36,6-54,2Z"/>
      <path class="cls-2" d="M363,688c9,9,18,17,26,25-7,0-2-13-26-25Z"/>
      <path class="cls-2" d="M505,633c-11,9-22,17-35,22,11-8,23-15,34-23,0,0,0,0,0,0Z"/>
      <path class="cls-2" d="M352,652c5,3,1,5,16,8h0c-5-2-1-4-16-7h0Z"/>
      <path class="cls-2" d="M583,622c-4,1-9,3-13,4,0,0,0,0,0,0,4-1,8-3,13-4,0,0,0,0,0,0Z"/>
      <path class="cls-2" d="M358,412c0,1-1,2-1,3,1,2,0,3-2,4-3,2-6,3-9,5-4,3-9,5-12,9-7,6-12,13-19,19-9,8-19,13-3,17,0,0-2,0-3,0-13,0-25,1-38,0-16-1-31-3-47-6-11-2-22-4-34-6-9-1-18-2-27-3-4,0-9,0-13,0-9,0-18,0-27,2-1,0-2,0-3,0,0,0,0,0,0,0,1,0,2-2,3-3,1-6,22-8,33-1,16-2,32-5,48-7,18-2,36-4,55-2,4,0,8,0,12,0,6,1,11,0,16,0,13-1,27-2,39-5,13-3,26-8,38-12,6-2,12-4,19-3,0,0,0,0,0,0Z"/>
      <path class="cls-2" d="M293,427c16-7,5-16,54-16-9,3-18,6-27,9-9,3-18,5-27,8,0,0,0,0,0-1Z"/>
      <path class="cls-2" d="M15,457c24,4,49,8,73,13-25-2-49-5-73-13Z"/>
      <path class="cls-2" d="M274,472c-15,2-32,0-49-1,17,0,33,0,49,1Z"/>
      <path class="cls-2" d="M189,432c-13,2-26,4-4,5,0,0,0,0,0,0,13-2,26-5,4-5Z"/>
      <path class="cls-2" d="M324,444c2-2,4-4,6-7h0c-2,3-4,5-6,7,0,0,0,0,0,0Z"/>
      <path class="cls-2" d="M514,263c0,0,0-1,0-2,0,0,0,0,0,0,22-2,44-4,64,7,0,0,0,0,0,1-1,0-3,2-4,2-12,1-25,2-37,3-14,2-25,8-36,17-9,8-18,16-27,23-9,7-2,12-32,16-15,5-31,7-47,7-8,0-17-2-24-5-4-2-9-3-13-5-6-3-1-8-12-15,2,0,4,0,6,0,14,2,28-1,41-4,22-5,42-15,62-25,12-6,24-15,38-18,5-1,1-3,15-4,2,0,4,0,6,1Z"/>
      <path class="cls-2" d="M405,303c6-2,12-5,18-7,16-6,3-14,45-23,14-8,29-13,45-15,8,0,16-1,24,0-7,0-15,0-22,2-13,2-26,5-38,11-8,4-16,9-24,13-11,6-23,11-35,17-4,2-8,3-13,4h0Z"/>
      <path class="cls-2" d="M373,334c4,1,9,2,13,4,0,0,0,0,0,0-4-1-9-2-13-3,0,0,0,0,0-1Z"/>
    </g>
  </g>
</svg>