<?xml version="1.0" encoding="UTF-8"?>
<svg id="Layer_2" data-name="Layer 2" xmlns="http://www.w3.org/2000/svg" viewBox="0 0 682 872">
  <defs>
    <style>
      .cls-1 {
        fill: #000;
      }

      .cls-1, .cls-2 {
        stroke-width: 0px;
      }

      .cls-2 {
        fill: #fff;
      }
    </style>
  </defs>
  <g id="Layer_1-2" data-name="Layer 1">
    <g>
      <path class="cls-1" d="M1,871c0-2,0-5,0-7,0-6,0-11,0-17,0-15,0-31,0-46,0-8,1-16,2-24,0-1,1-2,2-29,0-1,0-19,0-29,0-1,0-19,1-29,0-1,0-2,1-3,0-35,2-7,2-106,0-21,0-41,0-62,0-26,0-53,1-79,0-27,1-53,2-8,0-32,2-65,3-97,0-25,2-51,3-76,0-14-1-28-1-42,0-15,0-31,0-47,0-9,0-18-1-27,0-12-1-25-2-37,0-1,0-2,0-3C15,0,15,0,19,0c9,0,18,0,26,0,31,0,61,2,92,2,13,0,26,0,38,0,19,0,37-1,56-2,7,0,15,0,22,0,25,0,51,0,76,0,17,0,35,0,52,0,13,0,27,0,4,0,24,0,48,2,72,2,21,0,42,0,63,0,14,0,27,0,41,0,12,0,24,0,36,0,9,0,18,1,27,2,3,0,6,0,9,0,0,0,0,1,0,2,0,1,0,21,1,31,0,8,0,16,0,24,0,9,0,18,0,26,0,1,0,21,0,31,0,15,0,3,0,45,0,21,0,43,0,64,0,26,0,51,0,77,0,29,1,59,2,88,0,3,0,6,1,89,0,2,1,4,2,6,0,18,0,35,0,53,0,17,0,34,1,51,0,15,0,3,0,45,0,29,0,58,0,87,0,16,2,32,3,48,0,12,1,24,2,35,0,0,0,1,0,2,0,3-1,4-5,4-12,0-23,0-35,0-17,0-34-1-52,0-24,0-48,1-73,2-26,0-53,1-79,2-17,0-34,0-5,0-29,0-57,0-86-1-16,0-32,0-48,0-11,0-23,0-34,0-16,0-33,0-49,0-28,0-56,1-84,1-12,0-24,0-36,0-13,0-25,0-38-1-4,0-8,0-12,0ZM63,866s0,0,0,0c11,0,21,0,32,0,5,0,1,0,15,0,1,0,3-1,3-2,0-2,0-4,0-6,0-17-2-33-3-5,0-17-2-33-2-5,0-15,0-3,0-45,0-23,0-46,0-69,0-19,0-39-1-58,0-13,0-26,0-4,0-19-1-39-2-58,0-26,0-51,0-77,0-24,0-48,0-72,0-11-1-23-1-34,0-26,0-52,0-79,0-21,0-41,0-62,0-18,0-37,0-55,0-17,0-33,0-5,0-11,0-22,0-33,0-5,0-11,0-16,0-4,0-4-4-4-1,0-3,0-4,0-17,0-35-1-52-2-14,0-27,0-41,0-13,0-26,0-38,0-11,0-21,0-32,0-18,0-36,0-54-1-1,0-2-1-3-1-13,0-26,0-4,0-24,0-47,0-71,0-2,0-4,0-6,0-2,0-4,0-6,1-9,0-17,1-26,1-16,0-32,0-49,0-13,0-27,0-4,0-16,0-32,0-47,0-2,0-3,0-3,3,0,8,0,15,0,23,0,8,0,17,0,25,0,11,0,22,0,33,0,11,0,22,0,33,0,14,1,29,1,43,0,14-1,28-2,41,0,17-1,35-2,52,0,25-2,51-3,76-1,4-2,8-3,119,0,31,0,62,0,93,0,19,0,39-1,58,0,22,0,45-2,67,0,13-2,25-2,38,0,19,0,37-1,56,0,1,0,21-1,31,0,9-2,18-2,27,0,1,0,2,0,3,0,4,0,9,0,13,0,2,0,3,3,3,15,0,31,2,46,2,2,0,4,0,59,0,21,0,42,0,63-1,26,0,52,0,79,0,28,0,56,0,83,1,28,0,57,1,85,0,29,0,57-1,86-2,27,0,54-1,81-2,14,0,28,0,42,0Z"/>
      <path class="cls-1" d="M34,61c0,5,2,9,2,14,0,16,0,32,0,49,0,6,0,13-1,19,0,1,0,2,0,4-11-1-21,0-31,2-3,0-4,2-5,4-4,6-7,13-11,19-6,9-14,14-24,17-9,3-19,7-28,8-15,2-31,4-46-1-3-1-6-3-1-4-7-3-15-5-21-1-4-3-8-6-12-1-13-12-23-26-34-4-4-6-8-12-12-18,0-1-2-2-3-3-3,0-6-1-1-1-14,0-29,0-43,1-2,0-5,0-7,0-3,0-5,0-5-4,0-3,0-7,0-1,0-13,0-26,0-39,0-11,0-23,0-34,0-4,0-4,4-4,18,0,36,0,54,0,8,0,17,2,25,3,1,2,2,2,29,5,12,3,23,8,34,13,1,4,2,9,31,13,15,6,31,8,48,8,11,0,22,0,34,0,9,0,18,0,28,0,5,0,1,0,16,0ZM18,707c2,0,4,1,6,2,6,3,13,7,19,8,2,6,4,6,61-1,15-5,26-16,36-27-3,3-6,6-9,9-8,7-16,12-26,16-3,1-6,2-1,3-8,1-17,4-25,3-9,0-17-3-26-6-17-7-33-14-48-24-11-8-22-16-32-25-3-3-7-6-11-9,5,7,11,13,17,19,7,6,14,11,21,16,7,6,14,11,23,15,1,0,2,1,3,2-3-1-5-2-8-3,0,0,0,0,0,0,9,4,18,9,27,13,0,0,0,0,0,0-3-1-5-2-8-4-4-2-8-4-12-6ZM102,655c-12-15-27-22-45-23-2,0-3,0-4-3,4-2,7-4,11-6,7-3,13-3,2-2,9,1,19,2,28,5,12,3,21,1,3,18,8,7,17,14,26,2,11,8,24,13,37,16,18,5,35,8,54,7,19,0,36-8,52-17,4-2,8-6,12-8,2,1,0,3,0,4-4,5-7,11-11,16-2,3-4,7-6,11,2,0,3,0,4,0,6-1,12-2,18-4,9-2,9-2,9-12,0-8,0-15,0-23,0-12,0-25-1-37,0,0,0-2,0-2,0,0-1-2-2-2-6,0-12,0-18,0-6,0-13,1-19,1-6,0-12,0-18,0-16,0-32-2-48-4-6-1-12-4-18-7-8-3-16-5-24-9-19-1-39-17-61-2-17-2-35-5-52-5-11,0-22,0-33,1-3,0-4,1-4,4,0,8,0,15,0,23,0,1,0,21,0,31,0,7,0,14,0,21,0,4,2,5,6,4,8,0,15-1,23-1,2,0,5,0,7,0,6,0,13,0,19,0,2,0,4,0,7,0ZM93,641s0,0-1,1c5,4,9,9,14,13,8,8,16,16,24,24,7,8,14,16,22,23,8,8,18,13,28,18,14,7,28,11,44,12,4,0,8,0,12,0,4,0,8,0,12,0,0,0,0,0,0,0-15,0-29,0-43-4-14-4-27-1-4-17-13-8-21-2-31-3,2,3,4,5,5,8,5,8,12,15,18,21,1,1,23,14,36,18,12,4,24,6,36,7,12,1,24,0,36-4,4-1,8-4,11-6,0,0,0,0,0,0-4,2-8,4-12,5-4,1-8,2-13,2h0c2-3,36-13,47-3-1,0-2,1-2,2-9,1-21,15-34,18-19,4-37,2-55-4-27-9-5-25-72-44-9-8-17-16-25-24-5-4-1-8-15-12ZM194,685s0,0,0,0c-1-6-21-12-31-19-11-7-21-15-32-22-9-6-18-11-28-14-5-1-11-2-16-3-4,0-8,0-13-1,0,0,0,0,0,0,1,0,2,0,4,0,5,1,1,2,14,4,14,8,27,16,4,24,7,4,14,9,21,13,3,1,6,2,9,4,3,2,6,4,1,5,7,3,15,5,22,8ZM118,654s0,0,0,0c2,1,4,3,5,4,7,6,13,13,2,18,14,11,3,2,47,26,8,3,16,3,24,5,17,4,33,3,49,0,11-3,2-9,3-14,1,0,2-2,3-3-1,0-2,0-3,1-9,3-17,7-26,1-2,6-41,5-61,0-11-2-21-7-32-11-16-7-31-16-44-28-4-4-9-7-13-1ZM102,64s0,0,0,0c2,2,4,4,6,5,5,4,11,7,16,11,11,9,22,19,35,26,14,7,28,13,43,17,1,3,22,3,33,4,6,0,11,0,17,0,0,0,0,0,0-1-2,0-3,0-5,0-21,2-4-5-59-13-14-6-27-14-4-22-9-6-19-13-28-18-5-3-11-6-17-9ZM304,683c-7,2-12,5-18,7-18,6-35,1-54,7-2-3-39-8-58-17-5-2-11-5-16-8,0,0,0,1,2,2,9,5,19,11,28,15,7,3,16,5,23,8,15,6,31,6,47,5,12,0,23-5,33-11,4-3,9-5,14-9ZM114,666h0c4,6,8,11,12,17,7,1,14,19,22,27,11,1,22,2,37,26,9,4,19,7,29,7,11,0,22,0,33-3,1,0,2,0,3,0,1,0,2,0,3,0-8,0-17,1-25,0-9,0-18-2-27-4-6-1-12-4-19-6-7-2-14-5-2-9-1-7-19-15-25-25-7-1-15-19-23-28ZM79,623h0c3,2,5,2,8,3,15,2,29,6,42,15,13,9,25,18,38,27,8,5,17,1,25,14,17,8,34,11,53,12,1,0,2-2,3-3,4,0,8-2,12-3,0,0,0,0-1,0-15,4-3,5-45,4-1-1-19-4-29-5-13-2-25-7-36-14-13-9-26-18-38-28-13-9-26-17-42-18-5,0-1,0-15-1ZM292,698s0,0,0,0c0,0-2,0-2,1-1,6-19,11-3,12-9,1-17,3-26,2-17-2-33-3-49-1,0,0,0,0,0,0,1,0,3,1,4,2,5,2,1,5,15,7,13,5,26,1,41,8,12-2,24-4,34-1,5-3,1-7,16-1ZM305,688c-4,4-8,9-13,13-4,5-9,9-15,12-18,8-36,12-55,9-5,0-1-1-15-2,1,0,3,2,4,2,9,1,18,3,27,4,19,1,36-4,5-16,7-6,13-13,16-22ZM264,612c18,3,37,1,55,0h-55ZM252,697c-2-3-39-4-57-1,18,6,37,11,57,1ZM339,642s0,0,0,0c1-9,0-18,0-26v26ZM244,694c6,1,2,1,29-3-1,0-2,2-29,3ZM34,683h0v-19s0,0,0,0v19ZM327,692q12,0,12-3c-4,0-8,2-12,3ZM294,714s0,0,0,0c2-3,4-7,6-1,0,0,0,0,0,0-2,3-4,7-6,1ZM88,633s0,0,0,1c3,2,6,4,9,5,0,0,0,0,0,0-3-2-6-4-9-6ZM39,619s0,0,0,0v-14s0,0,0,0v14Z"/>
      <path class="cls-1" d="M313,416c5,1,1,2,14,4,14,5,29,1,43,14,11,3,22,5,34,5,17,0,35,2,52,3,12,0,23,1,35,3,8,0,16,3,24,4,22,4,44,9,66,15,4,1,8,2,12,4,0,0,1,1,2,2,0,0-1,2-2,2-3,0-7,0-1,0-12-1-25-3-37-3-11,0-22,2-33,4-15,2-31,5-46,8-13,3-26,2-39,2-7,0-14,0-21,0-14-2-27-4-39-13-6-5-11-1-17-15-1-11-21-22-36-28-4-2-4-3-4-8ZM416,456c12,1,25,2,37,1,0,0-2,0-2,0-8,0-16,0-24,0-3,0-7,0-1,0-1,0-2,0-3,0-14-2-28-4-41-9,0,0-2,0-3,0,0,0,0,1,2,2,1,4,2,7,31,8,5,0,1,0,14,0ZM372,461c-2-1-4-2-7-4,8,11,36,21,52,18-2,0-4,0-5,0-3,0-5-2-8-2,8,1,15,3,23,4,14,0,29-1,43-4,13-2,26-5,39-7,4,0,8-2,12-2-1,0-3,0-4,0-16,3-33,5-49,8-22,4-44,5-66,0-4,0-8-1-12-2,0,0,0,1,1,2-2,0-5,0-6-3,0,0,2,0,2,0,1,2,2,5,31,6,11,0,23,0,34,0,1,0,2,0,3,0-1,0-3,0-4,0-11,0-23,0-34-1-15-2-3-4-44-13-5-3-1-6-15-9,0,1,2,2,3,3,7,4,14,9,2,13-6-3-12-7-19-1,3,2,6,4,8,7ZM385,457c0,0,1,0,2,0,14,5,27,8,42,8,19,0,37,0,56-1,9,0,19-2,28-3,0,0,2,0,2,0,0,0-1,0-2,0-1,0-19,1-29,2-11,0-23,2-34,2-15,0-29-2-44-5-1-2-2-5-3-8,0,0-1,0-2,0,4,2,7,4,11,5-4-2-8-3-11-5-3-1-6-2-9-4,0,0,0,0,0,0,0,0,1,1,2,2,18,12,38,17,59,19,12,0,24,0,36,0,6,0,12-2,18-3-12,0-24,0-37,0-14,0-27,0-4-4-6-2-12-4-17-6ZM52,456s0,0,0,0c-4,0-7,0-11,0-11,0-22-2-33-2-16,0-31,0-47,0-1,0-21,0-31-2-1,0-2,0-4,0-1,0-2,0-4,0,18,5,37,5,56,6,21,0,41,0,62,0,4,0,7,0,11,0ZM362,44s0,0,0,0c4,1,9,2,13,4,18,5,36,8,54,8,5,0,9,0,13,0,18,0,36,0,54,1,3,0,6,0,9,0-9-1-18-2-27-2-14,0-29,0-43,0-6,0-12,1-19,0-13-2-26-4-38-6-6-1-12-3-17-4ZM401,448s0,0,0,1c8,0,15,1,23,2,4,0,9,0,13,0,16,0,33,0,49,0,3,0,7,0,1,0,0,0,0,0,0,0-1,0-2-2-31-2-9,0-18,0-27,0-1,0-19,0-29,0-3,0-6,0-8,0ZM404,457s0,0,0,0c6,0,12,2,18,3,11,2,22,3,34,2,9,0,18-1,26-2,7,0,14,0,21-1,0,0,0,0,0-1-13,0-25,1-38,2-12,0-24,0-36,0-8,0-16-2-25-3ZM503,458s0,0,0,0c-9,0-19-1-28,0-18,0-35,3-53,0-3,0-5,0-8,0h0c1,2,2,3,3,3,2,0,39-1,59-2ZM349,433c12,6,24,9,38,1-13-3-26-7-38-1ZM377,443s0,0,0,0c5,0,9,1,14,2,5,0,9,1,14,2,5,0,9,0,14,0,0,0,0,0,0,0-14-1-27-3-41-4ZM532,459h0c-8-3-16-2-25-2,0,0,0,0,0,0,8,0,16,1,24,2ZM439,446s0,0,0,0c-5,0-9,0-14,0h14ZM355,442s0,0,0,0c3,2,6,3,9,5,0,0,0,0,0,0-3-2-6-3-9-5Z"/>
      <path class="cls-1" d="M384,502c0,7,0,14,0,2,0,12,0,23-1,35,0,3-1,5-5,5-7,0-14,0-21,0-5,0-1,0-15,0-11,0-22-1-32-2-13,0-26-2-39-3-14,0-28-2-42-2-19,0-37,0-56,0-18,0-36,0-53,0-18,0-35,0-53,0-4,0-7,0-11,0-2,0-3,0-4-3,0-5,0-1,0-14,0-9,0-18,0-28,0-5,0-5,5-5,15,0,29,0,44,0,17,0,34-1,51-2,17,0,33-1,5-2,15,0,3,0,45,0,18,0,37,0,55,1,12,0,25,0,37,0,7,0,15,0,22,0,8,0,16,0,26,0ZM158,515s0,0,0,0v33c3,0,6,0,1,0,25,0,5,0,75,1,2,0,4,1,61,3,23,2,47,3,7,2,2,0,4,0,4-3,0-1,0-2,0-4,0-9,0-18,0-27,0-4,0-8,0-13,0-2,0-3-3-3-13,0-26-1-39-1-13,0-25,0-38,0-18,0-36,0-55,0-12,0-23,0-35,0-22,0-44,0-66,1-15,0-3,1-45,2-14,0-29,0-43,0-2,0-3,0-3,2,0,13,0,26,0,4,34-5,67,0,101-3-4-2-3-6-2-9,0-3,0-5,1-8,0,0,0,0,0,0,0,0-1,1-2,2-1,2-2,2-4,0-1-2-3-3-5-5,0,2-2,4-2,7,0,2,0,4-1,6,0,1-3,3-4,2-2,0-2-2-2-4,2-7,3-14,4-21,0-2,2-4,2-6,4,1,4,2,5,4,1,5,5,7,8,2,1-2,3-3,5-5ZM157,519s0,0-1,0c-1,1-2,3-3,4-3,3-6,2-8-1,0-2-2-3-3-5,0,0,0,0,0,0-2,8-5,16-6,24,0,0,0,0,1,0,0,0,0-2,0-3,1-3,2-7,3-1,2-4,4-4,7,0,0,0,1,2,2,3,2-1,3-3,5-4,3,0,2,3,4,4v-13ZM157,538s0,0,0,0c0,2,0,4,0,6,0,0,0,0,1,0v-6Z"/>
      <path class="cls-1" d="M128,254c7,1,17,2,27,4,22,3,42,12,62,24,2,12,41,21,63,26,1,2,19,4,29,5,6,0,12,0,18,0,0,0,3,0,3,1,0,1,0,3,0,4-3,6-9,1-15,13-12,6-24,8-37,7-16,0-31-4-47-8-14-4-28-11-4-2-14-1-27-2-41-3-11-8-24-11-37-11-8,0-17,0-25-1-1,0-2,0-4-1,0-1,1-3,2-4,6-2,11-5,17-6,7-1,14-1,23-2ZM167,279c-2-1-4-3-7-4,0,0,0,0,0,0,4,3,8,5,12,8,0,0,1,0,2,0,4,3,8,6,12,9,9,6,18,12,27,17,5,3,1,8,17,7,0,0,0,0,0,0,0,0,0,0,0,0,25,12,5,16,76,5-6,0-11,1-17,0-6-1-13-2-2-3-17-3-33-7-48-14-3-1-7-3-1-4,0,0,0,0,0,0,1,5,19,1,29,14,8,3,17,5,25,7,8,2,15,3,23,1,0,0,2,0,3,0-4,1-8,2-12,2-8,0-16-3-24-4-1-2-19-6-28-1-12-6-23-12-35-19-7-4-13-9-19-13-2-1-4-2-6-3,0,0,0,0,0,0h0ZM314,319h0c-2,0-4,0-6,0-4,0-8,1-11,0-11-2-22-3-33-6-26-7-5-16-73-3-14-8-27-16-43-21-1-3-19-5-3-3,11,2,21,2,3,5,0,0,0,0,0,0-2,0-4,0-5-1,0,0,0,0,0,0,14,4,26,12,38,19,2,12,41,24,64,3,6,2,11,3,17,4,0,0,0,0,0,0-1,0-2-1-4-2,18,6,37,9,56,3ZM15,26s0,0,0,0c0,0,1,0,2,0,11,4,2,9,3,14,13,7,25,15,38,2,24,1,48,19,74,21,3,0,6,0,1,0,0,0,0,0,0,0,0,0,0,0-1,0-11-2-21-4-32-7-15-4-29-9-43-14-15-6-29-15-44-23-7-4-14-7-21-9-4-2-9-2-13-4ZM224,32h0c0-2-2-2-3-3-14-7-27-16-4-25-1-7-2-13-3-2-7-5-16-6-25-7,0,0,1,0,2,0,6,2,12,3,17,6,1,6,19,13,29,19,11,7,22,14,34,2,5,3,1,5,15,7ZM245,301c0,0-2,0-2-1-1-5-19-9-29-14-1-5-19-11-29-16-2-1-5-2-8-3h0c22,12,43,27,68,34ZM186,301s0,0,0,0c8,8,18,13,29,17-9-6-19-12-28-17ZM213,32c4,3,32,13,37,12-12-4-25-8-37-12ZM25,329c-11-4-22-7-34-11,1,7,22,9,34,11ZM303,33c7,0,21-9,24-15-4,3-7,6-11,8-4,3-9,5-13,7ZM32,316c-1,0-21-2-31-3,1,3,21,4,31,3ZM303,328c-7,2-14,3-21,5,7,0,14,0,21-5ZM261,333s0,0,0,1c7,0,14,0,21,1h0c-7-1-14-2-21-2ZM182,301s0,0,0,0c-4-3-8-6-11-1,0,0,0,0,0,0,4,3,8,6,12,9ZM309,332s0,0,0,0c-5,1-11,3-16,4h0c5,0,11-2,16-3Z"/>
      <path class="cls-1" d="M301,486c-13,0-27,0-4,0-16,0-32,0-48,0-15,0-3,1-45,2-14,0-27,0-41,0-8,0-16,0-24,0-1,0-19,0-29,0-4,0-9,0-13,0-4,0-5,0-5-4,0-6,0-12,0-18,0-7,0-14-1-21,0-2,2-4,4-4,1,0,21,0,31,0,18,0,36,0,54,0,15,0,3,0,46,0,24,0,48,0,73,0,18,0,36,1,54,2,6,0,13,0,19,1,2,0,3,0,3,3,0,9,0,17-1,26,0,3,0,6,0,8,0,3-1,4-4,4-5,0-1,0-15,0-6,0-11,0-17,0,0,0,0,0,0,0ZM6,447c0,0,0,1,0,2,0,1,0,21,0,31,0,3,0,3,3,3,9,0,19,0,28,0,15,0,3-1,45-1,12,0,25,0,37,0,35,0,7,0,105,0,17,0,33,0,5,0,2,0,4,0,6,0,0,0,2-1,2-2,0-9,0-18,1-27,0-3-2-4-4-4-2,0-4-1-6-2-18,0-36,0-55-1-18,0-36,0-55,0-12,0-25,0-37,0-8,0-16,0-23,0-9,0-18,0-27,0-5,0-1,0-15,0Z"/>
      <path class="cls-1" d="M287,131c-7,3-14,5-18,11-2,3-2,7-2,1,0,4,0,8,0,12-1,7-7,8-13,7-7,0-11-4-15-9,0-1-2-3-3-4-3-3-7-4-11-2-4,2-9,4-13,5-5,1-8-1-8-6,0-2,0-5,0-7,0-5-2-8-7-1-4-1-7-3-11-4,0,0-2,0-3-2-2-3-5-2-7-1-2,0-3,1-5,2-3,1-6,3-7,7,0,2-2,3-2,5-2,5-6,7-1,8-4,1-8-2-9-6,0-6-2-13-3-19-1-8,0-15,5-21,7-8,16-15,27-17,0,0,2-1,2-2,5-8,11-15,22-17,7,0,14,0,21,3,5,2,11,3,16,5,3,0,5,2,9,3,1-7,3-9,39,4,12-7,25-5,36,1,5,3,8,8,1,14,2,5,4,1,6,15,3,6,6,11,9,17,4,9,4,18,2,27-3,8-7,14-18,15-8,1-15-2-22-5-2-1-4-4-5-6-4-1-7-21-1-31ZM283,127c-2-3-3-6-5-8-5-5-7-11-7-18,0-3,1-7,2-1,2-4,2-6-2-8-11-7-23-6-33,1-6,4-1,11-14,18-2,4-4,8-7,11-3,5-7,9-1,13-3,4-2,8,0,12,3,4,7,7,12,8,9,3,15,8,21,16,4,6,12,7,18,5,3,0,5-3,6-6,0-3,1-7,0-1-2-8,1-13,7-16,4-3,8-5,12-8ZM341,148c0-3,0-5,0-8-2-8-5-17-11-24,0,0-1-2-2-3-2-4-3-8-5-13,0-2-1-3-2-5-4-4-8-8-14-11-9-4-17-4-26,1-5,3-7,7-8,13,0,7,2,13,7,18,6,7,11,15,13,24,1,6,3,12,5,17,2,6,6,11,13,12,4,0,8,1,13,1,2,0,4,0,5-2,8-5,12-13,12-23ZM184,9c-6,1-12,1-17,3-9,4-17,9-23,18-5,7-6,14-3,23,1,3,2,7,1,1,0,5,3,8,8,7,5-1,8-3,1-9,0-2,2-5,4-6,6-5,14-8,22-1,7-2,13-4,19-9,3-2,4-5,4-8,0-5-2-1-6-14-1-2-3-3-5-3-5,0-9-1-14-2ZM226,153c-1,0-3-1-4-2-7-2-11-7-15-12-4-5-4-12,0-17,2-3,5-5,7-7,3-3,6-6,7-11,0-2,1-4,2-5,4-5,5-12,12-15-2-1-3-3-5-3-5-2-11-3-17-5-11-4-21-3-32,2-4,2-8,5-1,11,1,0,2,0,2,0,8-1,17,0,25,2,7,2,11,7,12,15,0,9-2,12-1,15-7,3-13,7-21,8,0,0,0,0-2,1,1,0,2,2,4,2,5,2,1,3,15,7,3,3,5,8,5,13,0,2,0,6,1,7,2,1,5,0,8,0,0,0,1,0,2,0,4-2,7-4,11-6ZM205,94c3,6,6,12,5,18,2-6,0-14-5-18Z"/>
      <path class="cls-1" d="M434,2c-1-8,4-5,8-6,0-2-1-3-2-4,0-1-2-2-2-3-2-4-2-4,3-5v-38c3,0,3,0,3,3,0,1,0,2,0,3,0,2,0,4,0,6,2,0,3,0,4-1-1,5-3,9-4,14h48c0,2,0,4,0,7,2,0,4,0,5,0,2,0,3,1,3,3,0,14,0,27-1,41,0,2,0,2-2,2-5,0-5,0-5,5,0,2,0,3,0,5-1,0-2,0-3,0-1,0-19,0-29,1v-6c-3,0-5,0-8,0-15,0-29,1-44,2-5,0-5,0-5-5,0-14-1-29-2-43,0,0,0-1,0-2,0-5,0-6,6-6,9,0,17,0,26,0,1,0,19,0,3,0ZM412,202s0,0,0,0c-11,0-22,2-33,2-2,0-3,0-3,3,0,3,0,5,0,8,0,12,0,24,1,36,0,4,0,4,5,4,16-1,31-3,47-4,2,0,3-1,3-4,0-8,0-15,0-23,0-6,0-13,1-19,0-2,0-3-3-3-6,0-13,0-19,0ZM437,249c0,0,0,0,0,0,15,0,3-2,45-2,3,0,4-1,4-4,0-9,0-18,2-27,0-4,0-8,1-12-2,0-3,0-4,0-15,0-31,0-46-1-3,0-4,0-4,4,0,1,0,21,0,31,0,4,0,8,0,12ZM437,257c0,0,1,0,2,0,15,0,31-1,46-2,2,0,3-1,3-3,0-1,0-3,0-4-3,0-6,1-9,1-13,1-25,2-38,3-4,0-4,0-3,5ZM491,246c6,0,6,0,6-6,0-8,0-17,0-25,0-4,0-7,0-11-6-1-6,0-6,4,0,8,0,16,0,24,0,5,0,9,0,14ZM49,197c0,0-2,0-2,0-1,0-19,0-29,0-7,0-13,0-2,0,0,0-1,0-2,1,0,0,1,1,2,2,0,0,1,0,2,0,12,0,24,0,36,1,4,0,9,0,14,0v-4ZM438,184c2,3,4,6,6,1,1-4,2-7,3-1-3,0-5,0-8,0ZM442,18s0,0,0,0v-3s0,0,0,0v3ZM435,219h0v29h0v-29ZM432,252v-2c-9,0-19,1-28,2,0,0,0,0,0,0,9,0,19,0,28-1ZM488,246s0,0,1,0v-26s0,0,0,0c0,9,0,17-1,26ZM46,25s0,0,0,0c-7,0-15,0-22,1,0,0,0,0,0,0,7,0,15,0,22-1ZM49,248c-2,2-2,6,0,9v-9ZM375,214s0,0,0,0c0-4,0-7,0-11,0,0,0,0-1,0v11Z"/>
      <path class="cls-1" d="M502,84c0,2,1,4,1,5,0,2,0,4,3,3,0,0,2,2,2,3,0,7,0,15,0,22,0,4,0,8,0,12,0,5,0,5-4,6,0,2,0,5,0,7,0,0-2,2-2,2-15,0-31,0-46,0-5,0-6-1-6-6,0-3,0-4-4-3-23,1-46,2-7,3-6,0-6,0-6-5,0-11-1-21-2-32,0-4,0-4,4-4,5,0,11,0,16-1,16-1,32-2,47-3,4,0,8,0,11,0,2,0,3,0,3-3,0-4,2-5,5-5,14,0,28,0,42,0,1,0,2,0,4,0ZM451,98c-7,0-13,0-19,0-19,0-38,0-57,2-2,0-3,0-3,3,0,1,2,2,2,3,0,3,1,4,4,3,5,0,11,0,16,0,13,0,26-2,39-2,5,0,1,0,15,0,2,0,2,0,2-2,0-4,0-8,0-13,0-7,0-14,0-21ZM453,134c0,0,1,0,2,0,15,0,3,0,46,0,3,0,3,0,3-3,0-9,0-19-2-29,0-6,0-6-7-6-13,0-26,0-39,0-2,0-3,0-3,3,0,3,0,7,0,1,0,8,0,16,0,24ZM453,141c2,0,4,0,5,0,14,0,28,0,42,0,2,0,3,0,3-2,0-3-1-3-3-3-15,0-29,0-44,0-1,0-2,0-4,0v5ZM454,93c0,0,1,0,2,0,14,0,28,0,42,0,2,0,3,0,2-3,0-2-2-2-3-2-3,0-6,0-9,0-1,0-2,0-3,0-1,0-3,0-4,0v5ZM503,143c-16-3-32-1-48,0,0,0,0,0,0,0h48ZM506,134s0,0,1,0c0-4,0-7,0-11,0-8,0-16,0-24,0,0,0-2,0-2,0,0-1,2-1,2,0,4,0,8,0,12,0,7,0,14,0,21,0,1,0,2,1,3ZM417,96s0,0,0,0c11,0,21,0,32,0,0,0,1,0,2,0,0,0,0,0,0-1-11,0-22,1-33,2ZM433,136s0,0,0-1c-11,0-23,1-34,2,0,0,0,0,0,1,11,0,23-1,34-2ZM479,95s0,0,0,0h-25s0,0,0,0h25ZM508,13s0,0,1,0c0-7,0-13-1-2,0,0,0,0,0,0,0,7,0,13,1,2ZM482,94s0,0,0,0h13s0,0,0,0h-13Z"/>
      <path class="cls-1" d="M211,23c0,7-1,13-2,2,0,2,0,5,0,7-1,1-4,1-6,1-6,0-13,0-19-1-5,0-11-2-16-3-4,0-6-2-4-7,3-1,6-19,8-29,2-7,6-12,11-17,4-4,1-6,16-3,3,1,6,4,8,7,5,7,7,15,6,24ZM177,23c4-3,7-5,11-8,0,0,0,0,0,0-6,4-12,8-19,12,0,0,0,0,0,1,3-1,5-3,8-4-3,2-6,5-8,7,0,0,0,0,0,0,0,0,0,0,1,0,0,0-2,2-3,3,0,0,0,0,0,0,5-3,9-6,14-9h0c-4,1-7,3-11,6,5-3,9-7,14-1h0c-2,0-5,2-7,3ZM177,238c2-1,3-3,5-4,0,0,0,0,0,0-4,3-9,6-13,9,0,0,0,0,0,0,0,0,2,0,2,0-1,1-3,3-4,4,0,0,0,0,0,0,0,0,0,0,1,0l-3,3s0,0,0,0c1,0,3-2,4-2-1,1-2,3-3,4,4,0,1-4,11-8-3,1-5,2-8,4,2-2,5-3,7-5,0,0,1-2,2-3,0,0,0,0,0,0-3,2-6,4-9,6,3-3,7-5,1-8,0,0,0,0,0,0-1,0-2,1-3,2ZM209,236c0-5,0-9-1-14,0-4-1-4-5-4-8,0-14,5-17,13-2,7-3,14-5,21,0,0,0,2,1,3,6,0,12,2,18,2,3,0,6-2,6-6,0-5,1-1,2-14ZM203,209s0,0,0,0c-11,5-22,11-32,19,11-6,21-12,32-18ZM199,203s0,0,0,0c0,0,0,0-1,0-7,3-13,7-2,1-1,0-2,2-3,3,0,0,0,0,0,0,8-4,16-9,24-13ZM173,219s0,0,0,0c9-5,18-1,27-15-11,2-18,9-27,14ZM183,221s0,0,0,1c7-4,14-7,21-11,0,0,0,0,0-1-7,4-14,7-21,11ZM202,207s0,0,0,0c-7,4-14,8-21,11,0,0,0,0,0,0,7-4,14-8,21-11Z"/>
      <path class="cls-1" d="M265,248c0,7,0,13,0,2,0,3-2,5-5,6-12,2-25,2-38,0-8,0-9-2-7-9,3-12,4-25,11-36,4-7,1-13,18-16,5-2,1,0,13,4,6,7,9,16,8,26,0,2,0,3,0,5,0,0,0,0,0,0ZM227,244c0,3,0,7,1,1h0c0-6,0-12,1-17,0,0,0,0,0,0,0,3-2,5-3,8,0-2,1-5,2-7,3-6,6-12,12-17-7,2-17,19-15,25,0,0,0,0,0,0ZM236,242c-2,8-2,14,0,17,0-2,0-5,1-7,0,2,0,4,0,5,2-5,3-1,5-15,3-8,7-17,18-17-4-3-8-3-12,1-2,2-3,4-4,5,0,0-2,1-2,2-1,1-2,3-3,5,3-9,9-14,17-18-4-1-7,0-1,3-1,1-3,3-4,4-4,5-7,1-6,17,0,0,1-1,1-2ZM238,271c3,0,6,0,8,0,3,0,6,0,9-1,8-2,8-3,8-11,0-8,0-17,0-25,0-6-1-8-6-7-2,0-5,2-6,4-1,11-12,25-11,4ZM227,25s0,0,0,0c0,5,0,9,0,14,0,0,0,2,0,3,0,0,0,0,0,0,0-8,0-15-1-23,0,0,0,0-1,0,0,3-1,5-1,8,0,3,1,6,0,1,0,2,0,5,0,8,3,0,5,0,9,1-1-7-3-14-4-21ZM264,27s0,0,0,0c-4,0-8,2-12,3-4,0-8,0-13,1,0,0,0,1,0,2,7,0,15-2,22-3,1,0,2-1,3-2ZM218,271s0,0,0,0c3,2,11,3,14,0-5,0-9-1-14-2ZM233,259s0,0,0,0v-17s0,0,0,0v17ZM221,267s0,0,0,0c0-4,0-8-1-11-2,5-2,7,0,12ZM235,256s0,0,0,0c0,3,0,6,0,9,0,1,0,3,0,3-2,0-2,2-1,2,0,0,2,0,3,0,0-6-1-1-2-15ZM225,237s0,0,0,0c3-4,5-8,8-13,0,0,0,0,0,0-3,4-5,9-8,13ZM239,226s0,0,0,0c3-3,6-5,9-8,0,0,0,0,0,0-3,3-6,5-9,8Z"/>
      <path class="cls-1" d="M152,218c0,7,0,14,0,2,0,9-3,1-1,1-6,0-13,0-19,0-2,0-4,0-7-1-3,0-6-2-9-2-4-1-4-2-3-6,1-5,2-9,3-14,3-15,12-24,26-28,9-3,17,0,18,11,0,4,1,7,2,11,0,0,0,0-1,0ZM128,221c-5,5-9,1-1,17,0,1,0,2,0,4,7-1,14-2,21-3h0c-3,2-6,5-9,7,5-5,11-9,17-14,0,0,0-1-1-2-8,7-18,12-23,23,2-2,4-3,5-4ZM134,244c4,0,8,0,12,0,2,0,3,0,3-3,2-8,2-16,1-24,0-4-1-7-2-1,0,0,0,0-1,0-1,1-14,22-13,37ZM132,241c0-4,0-8,1-12,0-4,3-8,4-12-6,7-12,14-16,23,0,0,0,0,0,0,3-3,5-6,8-9,0,0,0,0,1,0-1,3-3,6-4,9,2,0,3,0,4,0ZM116,227c1,0,1,0,1,0,7-7,14-14,21-21,0,0,0-1,0-2,0,0,0,0,0,0-1,5-18,13-23,25ZM123,208s0,0,0,0c-1,1-3,3-4,4-5,8-8,18-11,27,0,0,0,1,0,2,0,0,0,0,0,0,2-12,8-23,16-33ZM143,246s0,0,0,0c-11-1-23-2-34-3,11,4,22,3,34,4ZM125,209c-7,8-12,16-15,26,2-4,4-9,7-13,2-4,5-9,8-13ZM14,198c-6-1-15,3-17,8,2,0,4-2,5-3,3-3,7-6,12-6ZM115,211c-4,3-8,12-7,17,3-6,5-12,7-17ZM117,233c-3,2-5,4-4,7,0,0,2,0,3,2,0-2,0-3,0-4,0-1,0-2,0-4ZM123,242c4,0,5-1,7-8-3,3-5,5-7,8ZM115,232s0,0,0,0c2-3,4-6,6-9,0,0,0,0,0,0-2,3-4,6-7,9Z"/>
      <path class="cls-1" d="M224,362c0-5,0-1,0-15,0-5,0-5,5-5,5,0,1,0,14,0,4,0,5,0,5,5,0,4,0,8,0,12,0,1,0,2,0,3,3,0,6,0,8,0,2,0,4,0,5,1,0,1,0,4,0,5-4,7-9,15-14,22-3,5-5,11-9,16-3,5-6,9-9,13-1,2-3,3-5,5-2,1-5,0-6-1-2-4-5-9-7-14-2-6-3-12-5-19,0,0,0-2-1-3,0,1,0,2,0,3-1-7-3-13-4-2,0-4,0-5,4-5,6,0,13,0,19-1ZM24,348c-3,0-5,0-7,0-7,0-7,0-6,7,0,4,0,9,1,13,0,2,0,3-3,3-2,0-4,0-6,0-4,0-8-1-12-2-2,0-3,1-2,3,0,3,0,6,2,9,2,6,4,11,7,17,0,2,0,4,1,5,0,3,1,6,2,9h0c0-1,0-2,0-3,0,1,1,3,2,4,4,7,6,7,1,0,0,0,0,0,0,0,6-9,11-18,17-27,3-4,5-8,8-12,0,0,0,0,0-1-5,0-11,2-16,3,0-1,0-3-1-6,5-6,2-13,4-21ZM258,367s0,0,0-1h-18c4,5,1,3,15,4,1,0,2-2,3-2ZM26,364s0,0,0-1c0,0-2,0-3,0-3,0-6,0-8,0-2,0-3,0-2-2,0-3,0-7,0-1,0,0,0,0,0,0-2,3-4,7-3,11,0,0,1,2,2,2,5,0,9,0,14,0ZM223,369s0,0,0-1c0,0-2-3-2-3-4,0-8,0-13,0,0,0,0,0,0,1,5,0,9,2,14,3ZM247,347c0-4,0-5-4-5-4,0-7,0-11,0h0c3,0,7,0,1,0v3c1,0,3,0,4,0ZM24,4s0,0,0,0c-3,4-5,8-8,12,0,0,0,0,1,0,3-4,5-8,8-12ZM242,354s0,0,1,0c0-2,1-4,2-6-2,0-3,0-3,0,0,2,0,4,0,6ZM218,413s0,0-1,1c1,2,3,4,4,5,0,0,0,0,2-1-2-2-3-4-5-5ZM239,346s0,0,0,0h-11s0,0,0,0h11ZM208,388s0,0,0,0c1,4,3,8,4,11,0,0,0,0,0,0-1-4-3-8-4-11Z"/>
      <path class="cls-1" d="M424,611c4,0,8,0,11-1,24,0,48-2,71-3,3,0,6,0,9,0,3,0,5,0,5,4,0,5,0,1,0,16,0,16-1,32-1,49,0,14,0,28,0,43,0,2,0,3,0,5,0,4,0,5-5,5-17,0-34,2-51,2-8,0-15,0-23,0-5,0-1,0-14,0-5,0-6,0-6-6,0-16-1-33-1-49,0-2,0-4,3-6,0-2,0-4,0-6ZM517,668s0,0,0,0c0-1,0-19,0-29,0-8,0-17,0-25,0-4,0-5-5-5-2,0-4,0-7,0-14,0-28,2-42,3-13,0-25,2-38,2-2,0-3,1-3,3,0,11-1,21-2,32,0,19-1,37-1,56,0,7,0,14,1,21,0,2,1,3,4,3,6,0,11-1,17-1,17,0,33,0,5,0,7,0,14-1,21-2,0,0,2-1,2-2,0-19,0-37,0-56ZM421,682s0,0,0,0v-37s0,0,0,0v37Z"/>
      <path class="cls-1" d="M325,273c0,6,0,13,0,19,0,3-2,5-5,6-9,2-19,3-28,2-5,0-9,0-14-2-3,0-4-2-3-5,3-15,7-3,14-44,3-7,7-12,15-15,3-1,6-1,9,0,4,3,7,6,9,11,3,9,3,19,3,28ZM302,248c0,3-1,5-2,8,0,0,0,0,0,0,2-4,4-7,6-11,0,0,0,0,0,0,0,0-2,1-2,2,1-3,1-3-3-3,0,2,0,3,1,5ZM292,292c1,0,3,1,4,2,0-1,1-2,1-3,0-5,0-1,0-15,0-3,0-5,1-9-2,1-3,2-4,3,0,0-2,2-3,3-4,3-5,5-3,9,1,3,2,7,3,1-1-4-3-7-5-12,0,1,0,2-1,2,2-4,0-7-2-1,0,0,1,0,1,0,2,0,4,0,5-3,0-3,2-5,3-8,3-5,5-11,6-17,0-4,2-5,7-4-2,0-3,0-5,2,5,3,8-2,12-1-1-1-3-2-4-3-2-2-4-2-7,0-7,3-12,9-15,16-5,13-8,27-12,4,0,0,0,3,2,3,7,4,15,2,23,2,0-4,0-8,0-12,0-4,0-8,1-11,0,8-2,15,0,23,0,0,0-2,0-3,0-8,1-17,2-25,0-3,1-5,2-8-1,7-2,14-3,21,0,0,0,0,0,0,0,0,0,0,0,0,0,5,0,1-1,16,4-1,7-2,1-3,6-2,8-6,8-12,0-6,0-12,0-18,0-4,0-8-1-12,0-3-2-4-5-5-2,0-4,0-5,2-1,3-3,7-4,1,0-2,0-3,0-5,0-7,4-11,1-11,0-2-2-3-4-4-4,0-6,2-7,5-4,8-8,16-9,26,0,7-1,14-2,21-3,0-7,0-1,0,0,0,2,0,3,0,0,0,1-1,2-2ZM293,269c7-2,7-7,6-16-2,5-4,11-6,16ZM306,299s0,0,0,0c5,0,1-2,15-3h0c-5,0-1,1-15,2Z"/>
      <path class="cls-1" d="M492,404c-1,0-1,0-1,0-5-1-5-1-4-7,0-2,2-3,4-3,5,0,9,2,14,3,0,0,1,1,1,2,0,2,0,4,0,6,0,2,0,4-4,3,0,0-2,0-3,2-3,7-6,14-9,21,0,0,0,1,0,2,6,0,11,2,17,0,2,0,4,0,4,3,0,2,2,3,3,5-7,0-14-2-21-3-9,0-17-1-26-2-4,0-5-2-4-5,0-1,0-2,0-4,5,0,1,2,16,3,4-9,9-18,13-27ZM465,43c0,3,2,4,4,4,9,1,17,2,26,3,4,0,9,0,13,1,0-2,0-3-2-3-2,0-4,0-5,0-4,0-8,0-12,0-2,0-3,0-2-3,3-7,6-15,8-22,1-3,2-5,6-5,3,0,2-3,2-4,0,0,0-2-1-3-3,0-7-1-1-2-3,0-4,0-4,4,0,0,2,0,3,0,3,0,3,2,3,4,0,1,0,2-1,3-3,6-5,13-8,19,0,2-2,5-3,7-5-3-1-6-16-4Z"/>
      <path class="cls-1" d="M57,412c8,2,16,3,24,5,0,0,2,2,2,3,0,6-1,7-7,5-4,0-8-1-11-2-3,0-3,1-4,3,0,2,0,4,3,4,5,0,6,1,5,5,0,2,0,3-3,2-1,0-3,0-4-1-2,0-3,0-4,2-2,4-1,5,3,6,5,1,11,2,17,3,1,0,3,0,3,1,0,2,0,4-1,6,0,0,0,0-1,0-9-2-17-4-26-6-5-1-5,0-4-6,3-1,6-2,9-3,0,0,0-1,0-2ZM58,435c0-1,0-2,0-2-2,0-5-1-7-2,0,0-2-1-2-2-1-4,4-9,7-9,4,0,9,1,13,1,2,0,3,0,3-3-7-2-14-4-2-6-2,0-3,0-4,2-3,1-5,19-8,29,0,2,0,2,2,2,8,2,15,3,23,5,0,0,2,0,3,0,0,0,1,0,1-1,0,0,0-1-1-1-2,0-5-1-7-2-5,0-1-2-14-3,0-5,0-9,2-12,3,0,6,1,1,2Z"/>
      <path class="cls-1" d="M359,403c-2,4-3,8-5,12,0,1,0,3-1,4,0,4-2,5-6,5-2,0-2-1-1-3,2-5,4-1,7-15,2-5,5-11,7-16,0-2,0-3,1-5,0,0,2,0,3,0,4-4,8-2,12-2,5,0,1,6,7,11-2,2-4,4-6,6-3,2-6,2-9,4-1,0-2,2-2,3,0,6,0,11,0,17,0,2,0,4,0,7-2,0-4,0-6,0-3,0-4-2-3-5,1-6,3-11,4-17,0,0,0-2,0-2,0,0,0,0-1,0ZM362,405s1,0,1,0c0-4,3-5,5-6,1,0,3,0,4-1,3-1,6-2,8-5,2-2,1-6-1-7-5-2-9-1-14,0-4,0-4,5-5,8h0c-1,2-2,4-3,6-3,7-6,14-9,21,3,2,3,0,4-2,2-5,4-1,6-15,0,0,2-1,3-2,0,0,1,2,2,3,0,0,0,0,0,1,0,6-1,12-2,18,0,0,0,2,1,3,0,0,0,0,1,0,0-7,2-13,0-2Z"/>
      <path class="cls-1" d="M444,434c3-11,6-21,9-32,0-2,0-3-2-3-2,0-4,0-7,0-4,0-6-1-5-5,0-2,2-3,4-3,7,0,14,0,21,0,3,0,7,0,1,0,3,0,4,1,5,4,0,1,0,2,0,4-1,0-2,0-4,0-4,0-9,0-13,1,0,0-2,0-2,1-3,9-5,18-8,26,0,0,0,0,0,0,0,5-3,6-8,5ZM441,396c4,0,8,0,12,1,3,0,5,1,9,0,4,0,7,0,11,0,0,0,2-1,2-2,0,0-2-2-2-2-3,0-6,0-8,0-7,0-13,0-2-2-3,0-4,0-4,4ZM449,422c3-5,8-21,7-23-2,8-4,15-7,23ZM447,431s0,0,0,0c0,0,1-1,1-2,0-3,1-6,2-8,0-2,0-3,1-5h0c-2,5-3,1-5,15Z"/>
      <path class="cls-1" d="M399,428c0-2,0-5,1-7,0-1,0-2,0-3,0-6,0-7-6-6-2,0-4,0-6,1-7,1-9,7-11,12,0,0,0,2,0,3,0,4-3,5-6,4-2,0-2-2,0-4,5-1,1-19,15-29,1-2,2-4,3-7,1-4,7-5,9-2,5,5,8,1,8,17,0,7,0,15,0,22,0,3-1,5-4,6-2,0-4,0-3-3,0,0,0-1,0-2,0,0,0,0,0,0ZM401,43s0,0,0,0c0-1,2-2,2-3,0-4,1-8,1-12,0-9,0-19-9-25-2-2-5-1-6,1-4,8-9,17-13,25-2,4-3,8-5,11,3,1,4,0,5-2,0-1,0-3,1-4,2-7,6-14,15-14,4,0,8,0,12,0,0,8-2,16-3,23Z"/>
      <path class="cls-1" d="M342,377c3,0,6,0,8,2,5,2,7,7,4,11-1,2-4,3-6,4-4,1-8,1-11,2-3,0-5,2-5,4-1,5-3,9-4,14,0,2-1,3-3,2-2,0-3-2-2-4,2-7,5-14,7-21,0-3,2-6,2-9,0-2,0-3,3-3,3,0,6-2,9-2ZM349,39c2,0,4-1,5-4,0-3-2-5-5-5-3,0-7-1-1,0-2,0-5,2-6,4-2,4-3,9-4,13,0,0,0,0,0,0,1-4,4-4,8-5,2,0,4,0,6-1-1,0-2,0-4,0-6,0-6,0-5-6,0,0,0-2,1-2,3,0,5,0,8,0,2,0,4,0,5,2,0,1,0,3,0,5ZM335,388s0,0,0,1c4,0,8,0,11-1,1,0,2-3,0-3-3,0-6,0-9,0-1,0-2,2-3,4ZM324,414s0,0,1,0c1-4,2-9,3-13,0,0,0,0,0,0-1,4-2,9-4,13Z"/>
      <path class="cls-1" d="M551,437c0,3,0,6,0,8,0,0,0,1-1,1-7,0-14,1-2-1-6-2-9-7-8-13,0-8,3-15,8-22,5-5,16-9,22,0,0,1,0,2,0,3,0,2-2,3-4,2-4-2-9,0-12,4-2,4-3,8-3,12,0,6,5,1,11,8,3,0,6-2,9-3ZM549,439s-1,0-1,0c-5,4-9,2-14,0,0,0-2-1-2-2,0-3-2-7-2-1,2-12,5-18,16-16,2,0,3,0,3-2,0,0,0-2-2-3-6-3-15,0-18,7-2,3-3,7-4,1-2,7-1,11,4,15,5,4,11,5,17,5,4,0,5-1,4-6ZM522,437c0,4,7,8,1,8-3-2-7-5-1-8Z"/>
      <path class="cls-1" d="M268,192c0,2,0,4,0,6-1,6-4,9-1,1-9,2-16,0-22-8-3-4-3-8,0-12,3-5,8-9,13-11,11-3,2,5,2,15ZM264,192s0,0,0,0c0-1,0-2,0-3,0-6-6-11-12-1-7,1-12,5-15,11-2,5-2,12,5,14,6,2,12,1,17,0,3,0,4-3,4-6,0-1,0-3,0-4Z"/>
      <path class="cls-1" d="M433,39c0,2,0,3,0,5,0,2-1,3-3,3-5,1-8,5-1,9-2,4,0,9,3,13,2,2,7,3,11,0,2,0,3-2,5-3,0,0,2,0,2,0,1,2,0,8-1,1-1,0-3,2-4,2-5,0-1,0-15,0-3,0-5-2-6-4-5-11-2-25,7-31,4-3,8-3,12-3ZM439,419c-1,0-2,1-4,2-7,4-17,0-18-9,0-7,4-15,11-17,3,0,2-2,0-4-2,1-4,2-5,3-4,5-8,1-1,16-3,9,2,17,12,17,2,0,5,0,7,0,6,0,6-1,6-8ZM422,395s0,0,0,0c-2,3-4,6-6,9,0,0,0,0,0,0,2-3,4-6,6-9Z"/>
      <path class="cls-1" d="M307,224c-1,0-3,0-4,0-6,0-1-3-1-9,0-4,0-8,0-11,1-11,15-17,23-15,4,1,7,4,9,8,4,1,0,23-9,26-3,1-6,1-9,2,0,0,0,0,0,0ZM314,191s0,0,0,0c0,0,2,0,3,0-1,0-2,0-3,0-1-1-19,8-2,18,0,4,0,7,3,9,6,4,13,4,2,2,5-2,6-7,7-12,0-3,0-5,0-8,0-1,0-2-2-3-3-2-6-4-9-5ZM304,222s0,0,0,0c3,0,6,0,9,0,0,0,0,0,0,0-3,0-6,0-9,0Z"/>
      <path class="cls-1" d="M199,196c-5,0-9-1-12-6-3-5-4-11,0-16,1-2,3-3,4-5,6-6,15-4,19,2,3,4,4,8,5,13,1,5-3,1-9,11-2,0-4,0-7,0ZM201,193c1,0,12-5,11-12,0-3-2-6-4-8-4-3-8-3-13,0-5,3-7,7-7,12,0,5,2,7,7,8,2,0,5,0,7,0ZM191,171c4-1,8-3,12-4-4-2-8,0-12,4ZM198,17c3,0,6,1,9,2-2-2-6-3-9-2Z"/>
      <path class="cls-1" d="M162,181c0,4-1,7-5,9-5,3-1,5-16,5-2,0-5-2-7-4-5-5-6-11-3-18,3-6,8-1,15-1,6,0,9,4,12,8,2,3,2,6,3,1,0,0,0,0,0,0ZM159,179c0-7-4-13-9-13-11-1-19,1-16,2,2,4,7,8,12,8,9-1,13-5,13-14ZM159,187c3-4,2-7,1-11,0,3,0,7-1,11Z"/>
      <path class="cls-1" d="M553,672c-1,0-3-2-4-2,0,1,0,2-1,3,0,0,0,0,0,0,0-2,1-5,2-7-4,0-5,0-7,6,0,0,0,0,0,0,0-2,0-3,0-5h-2c0-2,1-4,15-4-1,1-2,3-3,4-2,1-2,2,0,4,0,0,1,1,2,2,0,0,0,0,0,0Z"/>
      <path class="cls-1" d="M542,633c2,0,3-2,5-2,0,2-3,4-5,4,0,0-2-1-2-2,0-4,5-9,9-9,0,0,0,0,1,0,0,2-2,3-3,4-2,1-5,1-6,4,0,0,0,0,0,1Z"/>
      <path class="cls-1" d="M556,633c0-1,0-3-1-4-1,1-2,2-3,3,0,0-2,1-3,2,0-2,3-8,7-11,0,4,0,7,0,11,0,0,0,0,0,0Z"/>
      <path class="cls-1" d="M543,706c2,1,4,2,2,4,0,1-2,2-3,2,0,0-2-2-2-3,0-3,0-6,2-7,0,0,2,0,3,0,0,0,0,2,0,3,0,0,0,1-1,2ZM542,708s0,0-1,1c0,0,1,2,2,3,0,0,2-1,2-2l-3-2Z"/>
      <path class="cls-1" d="M529,671c4,0,6,0,7-4-2,0-3,0-5,0,0,0-2,0-2-1,0,0,0-1,0-2,2-1,4-3,5-4h0c-2,2-3,3-5,5,2,0,4,0,5,0,0,0,2,2,2,2,0,3-6,5-8,4,0,0,0,0,0-1Z"/>
      <path class="cls-1" d="M572,66c-2,0-3,1-5,2h0c1,0,3,0,4,0,0,0,0,0,0,0,0,0-2,0-3,1,0,0-1,2-2,2,0,0,2,0,3,1,0,0-2,2-3,2,0,0-1-1-2-2,0,0,0,0,0,0,0-5,0-7,7-6Z"/>
      <path class="cls-1" d="M531,624c4,0,8-2,13-3,0,0,0,0,0,1-8,0-8,7-11,11,0-3,1-6,2-9-2,0-3,0-4,0,0,0,0,0,0-1Z"/>
      <path class="cls-1" d="M558,671c0-3,0-6,1-8,0,0,2-2,3-2,0,0,2,0,2,1,0,1,0,2-1,3-1,2-3,4-5,6Z"/>
      <path class="cls-1" d="M555,709c-2,0-3,2-5,2,0,0-2-2-2-4,0-4,2-7,5-7,0,0,0,0,2,0-2,2-5,0-5,4,1,0,2,0,3,0,0,2-5,1-3,4,0,0,3,0,5,0Z"/>
      <path class="cls-1" d="M536,698c-1,4-3,9-4,14-3-3-4-9-3-13,0,4,0,7,0,1,0,0,0,0,1,0,3-3,2-8,3-11,0,0,0,0,1,0Z"/>
      <path class="cls-1" d="M561,701c0,0-2,0-3,1,2,2,6,2,5,5,0,1-2,2-4,3,0,0-2,0-3,0,0,0,0,0,0,0,0,0,1,0,2,0,1,0,2-1,3-2,0,0-2-1-2-2,0,0,0,0,0,0,0,0-2-2-3-3,1,0,3-2,4-2,0,0,0,0,0,0Z"/>
      <path class="cls-1" d="M578,66c-1,0-2,1-3,2,0,2,6,1,4,5,0,2-3,3-6,2,2-1,3-2,5-3-2-1-4-2-7-4,2-2,4-3,6-4,0,0,0,0,0,0Z"/>
      <path class="cls-1" d="M567,63c-2,2-4,3-6,2-2-1-1-3,0-5,0-1,1-3,2-4,0,0,0,0,0,0,0,1,0,2-1,3,0,1,0,2,0,3,1,0,2,0,3,0,0,0,1,0,2,0Z"/>
      <path class="cls-1" d="M556,67c0-3,0-6,1-9,0,0,0,0,1,0,0,3,0,6-1,9,0,0,0,0-1,0Z"/>
      <path class="cls-1" d="M539,703v8c-1,0-2,0-2,0v-8c1,0,2,0,2,0Z"/>
      <path class="cls-2" d="M102,655c-3,0-5,0-7,0-6,0-13,0-19,0-2,0-5,0-7,0-8,0-15,0-23,1-4,0-6,0-6-4,0-7,0-14,0-21,0-1,0-21,0-31,0-8,0-15,0-23,0-3,1-4,4-4,11,0,22-1,33-1,18,0,35,2,52,5,21,3,41,1,61,2,8,4,16,6,24,9,6,2,12,5,18,7,16,3,32,5,48,4,6,0,12,0,18,0,6,0,13,0,19-1,6,0,12,0,18,0,0,0,2,1,2,2,0,0,0,2,0,2,0,12,0,25,1,37,0,8,0,15,0,23,0,9,0,9-9,12-6,1-12,3-18,4,0,0-2,0-4,0,2-4,4-8,6-11,3-6,7-11,11-16,1-2,2-3,0-4-4,3-8,6-12,8-16,9-33,16-52,17-18,0-36-2-54-7-13-4-26-8-37-16-9-6-18-13-26-2-9-8-19-15-3-18-9-2-18-3-28-5-7-1-14,0-2,2-4,2-7,4-11,6,0,2,2,3,4,3,18,2,33,9,45,23ZM221,661c1-4,4-5,8-3,0,0,2,1,2,1,2,0,5,0,5-1,0-2,0-5,0-7,0,0-3,0-5,0,0,0-2,0-2,0,0,0-2-1-2-2,0-5,5-8,9-6,2,0,4,1,5,2,2,0,4,0,4-3,0-2,0-4,0-7-3,0-6,0-8,0-3,0-5,0-8,0-7-1-8,0-1,6-2,5-4,1-5,15-1,4-3,7-4,11,0,2,0,4,2,4,6,1,13,2,19,3,6,0,7,0,7-7,0-3,0-4-4-3-5,1-9,0-14-2ZM258,655s0,0,1,0c2,2,4,4,5,7,3,5,7,7,11,1,3,1,4,0,5-3,0-3,0-6,0-9,0-8,0-16,1-23,0,0,0-2,0-3-2,0-3,0-4,0-4,0-5,1-5,5,0,5,0,9,0,14,0,0,0,0-1,0-2-2-3-3-5-5-4-4-6-11-13-12,0,1-2,2-2,4-2,11-3,22-5,33,0,2,0,3,3,4,9,2,7,2,8-5,0-5,1-11,2-16ZM189,616c3-4,4-6,1-7-3-1-6-2-8-3-3,0-6,2-6,6,0,5,0,9,3,14,2,4,0,8-4,9-4,1-5,0-5-4,0-3,2-6,3-8,1-2,0-3-1-4-1,0-3-1-4,0-2,6-4,11-5,17,0,2,0,5,2,6,5,3,1,4,16,1,5-3,7-8,7-13,0-5,0-1-4-14,0,0,0-2,0-3,0,0,2,0,3,0,1,0,2,1,3,2ZM207,631c3,2,6,4,9,5,0,0,2,0,3,0,2-3,3-6,4-9-1,0-3,0-4-2-6-4-12-8-18-13-3-2-5-2-7,1,0,0-1,2-2,3,0,1,0,3,0,3,2,1,4,2,6,3,0,1-1,2-2,3-4,5-8,11-12,16-2,3-2,4,0,7,2,1,4,2,6,4,4-9,8-17,14-24ZM13,601s0,0,0,0c0-2,0-4-1-6,0-3-1-6-2-8,0-3-4-3-6-1-1,1-2,3-3,4-3,6-5,13-7,19-2,5-1,6,4,9,2-5,1-11,7-16,0,3,0,6,1,9,0,2,2,6,4,6,3,0,3-3,5-5,3-6,6-11,9-17,0,0,0-2,1-3-1,0-3-1-4,0-1,0-3,2-4,3-1,2-2,4-3,6ZM142,608c-4-3-7-2-8,1,0,3-1,6-2,9,0,3,1,6,4,8,4,3,12,2,15-2,2-4,4-9,2-14,0-2-1-4-2-6,0,0,0-2,0-3,0,0,2,0,2,0,1,0,2,1,3,2,0-1,1-2,2-3,2-2,0-4,0-5,0,0-2-1-3-2-4-2-9,0-9,5,0,3,0,7,1,1,0,4,0,7,0,1,0,1-2,2-4,3,0-1-2-2-2-3-2-4,0-8,3-11ZM299,659s0,0,0,0c0,1,0,2,0,3,0,2,0,5,3,5,4,0,6-2,6-5,0-6,0-13,0-19,0-4,2-5,4-6,0,0,1,0,2,0,6-2,6,0,4-7,0-2,0-4-2-5-2-2-3,0-5,0-6,0-13,2-19,4-4,0-7,5-6,9,0,2,1,3,3,2,2,0,4-1,5-1,5,0,6,0,5,5,0,5-1,1-2,15ZM78,605c0,0-1,2-2,3-2,3-5,4-9,4-4,0-8-4-9-9,0-5,0-9,5-12,2-1,4-1,6-2,0,0,2-2,2-2,0-2-4-4-6-4-15,5-16,22-9,31,5,6,14,7,21,4,6-2,7-9,2-13ZM97,58c-3,0-7,0-1,3-6,5-5,14-3,19,3,5,1,9,17,7,2,0,4-2,5-3,3-3,3-7,3-1,2-9-3-15-12-15ZM154,635c2,0,3,0,4-3,2-5,4-9,6-14,2-3,3-6,5-9,4-5,4-5-1-8,0,0,0,0,0,0-2-1-3,0-4,1-3,1-9,18-14,28-2,4-2,4,2,4,0,0,0,0,2,0Z"/>
      <path class="cls-2" d="M93,641c5,4,1,8,15,12,8,8,17,16,25,24,21,19,44,35,72,44,18,6,37,8,55,4,13-3,25-8,34-18,0,0,1-2,2-2-11,17-27,27-47,29h0c4,0,9,0,13-1,4-1,8-3,12-5,0,0,0,0,0,0-4,2-7,4-11,6-12,4-24,5-36,4-12-1-25-3-36-7-13-4-26-9-36-18-7-7-14-13-18-21-2-3-4-5-5-8,11,1,19,22,31,3,13,7,25,14,4,17,14,4,29,4,43,4,0,0,0,0,0,0-4,0-8,0-12,0-4,0-8,0-12,0-15-1-3-6-44-12-1-5-2-1-28-18-7-8-14-16-22-23-8-8-16-16-24-24-5-4-9-9-14-13,0,0,0,0,1-1Z"/>
      <path class="cls-2" d="M194,685c-7-3-15-5-22-8-3-1-6-3-1-5-3-2-6-2-9-4-7-4-14-9-21-13-13-8-27-16-4-24-4-2-9-3-14-4-1,0-2,0-4,0,0,0,0,0,0,0,4,0,8,0,13,1,5,0,11,2,16,3,1,2,19,8,28,14,11,8,21,15,32,22,1,7,21,13,31,19,0,0,0,0,0,0Z"/>
      <path class="cls-2" d="M118,654c4,3,9,7,13,1,13,12,28,21,44,28,1,4,21,9,32,11,2,4,41,5,61,0,9-3,17-6,26-1,1,0,2,0,3-1,0,0-2,2-3,3-1,5-19,11-3,14-16,4-33,4-49,0-8-2-17-2-24-5-17-6-33-15-47-26-7-5-14-12-2-18-2-2-4-3-5-4,0,0,0,0,0,0Z"/>
      <path class="cls-2" d="M102,64c6,3,12,6,17,9,1,6,19,12,28,18,13,9,26,17,4,22,19,8,38,15,59,13,2,0,3,0,5,0,0,0,0,0,0,1-6,0-11,1-17,0-11,0-22-1-33-4-15-4-29-1-43-17-13-7-24-17-35-26-5-4-11-7-16-11-2-2-4-4-6-5,0,0,0,0,0,0Z"/>
      <path class="cls-2" d="M18,707c-1,0-2-2-3-2-8-4-15-9-23-15-7-5-14-1-21-16-6-6-12-12-17-19,4,3,7,6,11,9,1,9,21,17,32,25,15,1,31,18,48,24,8,3,17,6,26,6,8,0,17-2,25-3,3,0,7-2,1-3,1-4,18-9,26-16,3-3,6-6,9-9-1,12-21,22-36,27-2,7-41,7-61,1-7-2-13-6-19-8-2,0-4-2-6-2s0,0,0,0Z"/>
      <path class="cls-2" d="M304,683c-5,3-9,6-14,9-1,6-21,11-33,11-16,0-32,0-47-5-8-3-16-5-23-8-1-4-19-1-28-15,0,0-1,0-2-2,5,3,11,5,16,8,18,8,38,13,58,17,19,3,37,0,54-7,6-2,12-4,18-7Z"/>
      <path class="cls-2" d="M114,666c8,9,17,18,23,28,7,1,15,19,25,25,6,4,13,7,2,9,6,2,12,5,19,6,9,2,18,3,27,4,8,0,16,0,25,0-1,0-2,0-3,0-1,0-2,0-3,0-11,3-22,4-33,3-1,0-2-4-29-7-14-6-26-16-37-26-9-8-16-17-22-27-4-6-8-11-12-16h0Z"/>
      <path class="cls-2" d="M79,623c5,0,1,0,15,1,16,1,29,9,42,18,13,1,25,19,38,28,11,7,23,12,36,14,1,2,19,4,29,5,15,2,31,0,45-4,0,0,0,0,1,0-4,1-8,2-12,3-1,1-2,3-3,3-18,0-36-4-53-12-9-4-17-9-25-14-13-9-25-18-38-27-13-9-27-13-42-15-3,0-5,0-8-1h0Z"/>
      <path class="cls-2" d="M292,698c-5,3-1,7-16,1-1,6-22,8-34,1-15,2-28-3-41-8-5-2-1-4-15-7-1,0-2-1-4-2,0,0,0,0,0,0,16,7,32,8,49,1,8,0,17,0,26-2,11-1,21-6,3-12,0,0,2,0,2-1,0,0,0,0,0,0Z"/>
      <path class="cls-2" d="M305,688c-3,9-9,16-16,22-15,12-31,17-5,16-9,0-18-2-27-4-1,0-3,0-4-2,5,0,1,1,15,2,19,3,37-1,55-9,6-3,11-7,15-12,4-4,8-9,13-13Z"/>
      <path class="cls-2" d="M264,612h55c-18,1-37,3-55,0Z"/>
      <path class="cls-2" d="M252,697c-2,0-39-4-57-1,18,6,38,7,57,1Z"/>
      <path class="cls-2" d="M339,642v-26c1,8,2,17,0,26,0,0,0,0,0,0Z"/>
      <path class="cls-2" d="M18,707c4,2,8,4,12,6,3,1,5,2,8,4,0,0,0,0,0,0-9-4-18-9-27-13,0,0,0,0,0,0,3,1,5,2,8,3,0,0,0,0,0,0Z"/>
      <path class="cls-2" d="M244,694c8,0,18-2,29-3-9,4-23,4-29,3Z"/>
      <path class="cls-2" d="M34,683v-19s0,0,0,0v2h0Z"/>
      <path class="cls-2" d="M327,692c4,0,8-2,12-3q0,2-12,3Z"/>
      <path class="cls-2" d="M294,714c2-3,4-7,6-1,0,0,0,0,0,0-2,3-4,7-6,1,0,0,0,0,0,0Z"/>
      <path class="cls-2" d="M88,633c3,2,6,4,9,6,0,0,0,0,0,0-3-2-6-4-9-5,0,0,0,0,0-1Z"/>
      <path class="cls-2" d="M39,619v-14s0,0,0,0v14s0,0,0,0Z"/>
      <path class="cls-2" d="M386,457c-3-2-7-3-11-5,1,0,2,0,2,0,1,3,2,6,3,8,14,3,29,5,44,5,11,0,23-1,34-2,1,0,19-1,29-2,0,0,1,0,2,0,0,0-2,0-2,0-9,1-19,2-28,3-19,2-37,2-56,1-14,0-28-3-42-8,0,0-1,0-2,0h0Z"/>
      <path class="cls-2" d="M385,457c6,2,12,4,17,6,13,4,27,4,4,4,12,0,24,0,37,0-6,0-12,3-18,3-12,0-24,0-36,0-21-2-41-6-59-19,0,0-1-1-2-2,0,0,0,0,0,0,3,1,6,2,9,4,4,2,8,3,11,5,0,0,0,0,0,0Z"/>
      <path class="cls-2" d="M52,456c-4,0-7,0-11,0-21,0-41,0-62,0-19,0-38,0-56-6,1,0,2,0,4,0,1,0,3,0,4,0,1,2,2,3,31,2,16,0,31,0,47,0,11,0,22,1,33,2,4,0,7,0,11,0,0,0,0,0,0,0Z"/>
      <path class="cls-2" d="M391,469s0,0-1-2c4,0,8,1,12,2,22,5,44,4,66,0,16-3,33-6,49-8,1,0,3,0,4,0-4,0-8,2-12,2-13,2-26,5-39,7-14,3-29,4-43,4-8,0-15-2-23-4-2,0-4,0-6-1-2,0-5-1-7-2Z"/>
      <path class="cls-2" d="M382,464c-7-4-14-9-2-13-1,0-2-2-3-3,5,3,1,6,15,9,13,8,29,11,44,13,11,1,23,1,34,1,1,0,3,0,4,0-1,0-2,0-3,0-11,0-23,0-34,0-1,0-21-4-31-6,0,0-2,0-2,0,0,0,0,0-1,0h-1c0-1,0-1,0-2Z"/>
      <path class="cls-2" d="M362,44c6,1,12,3,17,4,13,2,25,5,38,6,6,0,12,0,19,0,14,0,29,0,43,0,9,0,18,1,27,2-3,0-6,0-9,0-18,0-36,0-54-1-4,0-9,0-13,0-18,0-36-3-54-8-4-1-9-2-13-4,0,0,0,0,0,0Z"/>
      <path class="cls-2" d="M401,448c3,0,6,0,8,0,1,0,19,0,29,0,9,0,18,0,27,0,1,0,2,2,31,2,0,0,0,0,0,0-3,0-7,0-1,0-16,0-33,0-49,0-4,0-9,0-13,0-8,0-15,0-23-2,0,0,0,0,0-1Z"/>
      <path class="cls-2" d="M404,457c8,0,16,2,25,3,12,0,24,0,36,0,13,0,25-1,38-2,0,0,0,0,0,1-7,0-14,0-21,1-9,0-18,1-26,2-11,0-23,0-34-2-6,0-12-2-18-3,0,0,0,0,0,0Z"/>
      <path class="cls-2" d="M503,458c-2,0-39,2-59,2-1,0-2-1-3-2h0c3,0,5,0,8,0,18,2,35,0,53,0,9,0,19,0,28,0,0,0,0,0,0,0Z"/>
      <path class="cls-2" d="M384,466s0,0,1,0c0,3,4,3,6,3,2,0,5,1,7,2,2,0,4,0,6,1,3,0,5,2,8,2,2,0,3,0,5,0-16,2-44-8-52-18,2,1,5,3,7,4,0,0,0,0,0,0,4,2,8,4,11,6,0,0,0,0,1,0Z"/>
      <path class="cls-2" d="M416,456c-5,0-1,0-14,0-11,0-21-4-31-8,0,0-1,0-2-2,0,0,2,0,3,0,13,5,27,7,41,9,1,0,2,0,3,0h0Z"/>
      <path class="cls-2" d="M349,433c12,3,25,6,38,1-14-1-27-4-38-1Z"/>
      <path class="cls-2" d="M377,443c14,1,27,3,41,4,0,0,0,0,0,0-5,0-9,0-14,0-5,0-9,0-14-2-5,0-9-1-14-2,0,0,0,0,0,0Z"/>
      <path class="cls-2" d="M416,456c3,0,7,0,1,0,8,0,16,0,24,0,0,0,2,0,2,0-12,0-25,0-37-1,0,0,0,0,0,0Z"/>
      <path class="cls-2" d="M532,459c-8,0-16-1-24-2,0,0,0,0,0,0,8,0,16,0,25,1h0Z"/>
      <path class="cls-2" d="M382,464s0,0,0,0c-1,0-2,0-4,0-3-1-5-2-8-4s0,0,0,0c-3-2-5-4-8-7,6,3,13,7,19,1Z"/>
      <path class="cls-2" d="M439,446h-14c4,0,9,0,14,0,0,0,0,0,0,0Z"/>
      <path class="cls-2" d="M355,442c3,2,6,3,9,5,0,0,0,0,0,0-3-2-6-3-9-5,0,0,0,0,0,0Z"/>
      <path class="cls-2" d="M158,515c-2,2-4,3-5,5-4,5-7,3-8-2,0-3,0-3-5-4,0,2-2,4-2,6-2,7-3,14-4,21,0,2,0,4,2,4,1,0,3-1,4-2,0-2,0-4,1-6,0-2,2-5,2-7,2,2,4,3,5,5,2,2,3,1,4,0,0,0,1-2,2-2,0,0,0,0,0,0,0,3,0,6-1,8,0,3-2,7,2,9-34,2-68-2-101,3,0-14,0-27,0-4,0-2,1-2,3-2,14,0,29,0,43,0,15,0,3-1,45-2,22,0,44,0,66-1,12,0,23,0,35,0,18,0,36,0,55,0,13,0,25,0,38,0,13,0,26,0,39,1,2,0,3,1,3,3,0,4,0,8,0,13,0,9,0,18,0,27,0,1,0,2,0,4,0,2-2,3-4,3-23,1-47,0-7-2-2-2-4-2-61-3-25,0-5-1-75-1-3,0-7,0-1,0v-33s0,0,0,0ZM358,524c-2-4-4-8-5-12-2-5-2-5-7-4,0,0-2,0-2,0-2,0-2,1-2,3,0,5,0,1,0,14,0,6,0,12-1,18,0,6,0,6,6,5,0,0,0,0,0,0,2,0,3-1,3-3,0-5,0-9,1-14,0,0,0,0,0,0,2,4,5,8,7,13,0,2,3,3,4,2,2,0,4-2,4-4,1-8,2-16,3-24,0-3,0-6,0-1-2,0-5,0-7,0-2,0-3,0-3,3,0,4,0,9,0,13ZM123,527s0,0,1,0c0,4,0,8,0,13,0,1,0,3,1,3,3,0,6-2,6-5,0-7-1-15-2-22,0-2,0-4,0-5-2,1-4,2-5,3-5,5-6,5-1,0,0-1-3-2-5-2,0,0-2,2-3,3,0,0,0,2-1,3,0,0-1-1-2-2-3-5-11-6-15-2-4,5-5,1-4,16,0,3,2,5,5,6,5,2,1,2,15-3,0,1,0,2,0,3,0,2,0,4,3,4,3,0,4-1,4-4,0-2,0-4,0-6,0-2,1-3,2-5,0,2,1,4,2,5,0,1,1,3,2,3,0,0,2-1,3-2,0,0,1-2,2-2ZM274,522c0,1,0,2,0,3,0,6,0,11,0,17,0,1,0,4,1,4,3,0,5,0,8,0,0,0,0-1,0-2,0-5,0-9,0-14,0-8,0-8,8-8,2,0,2,0,2-2,0-2,0-5,0-7,0-3-1-4-4-4-7,0-13,0-2,1-2,0-3,1-3,3,0,3,0,6,0,9,0,2,0,2,2,2,2,0,4,0,6-2ZM31,53c0,5,1,9,4,11,6,6,18,5,23-3,4-7,4-14,0-21-4-1-15-12-22-3-4,5-6,1-6,16ZM267,544c0-2,0-3,0-5,0-5-2-1-3-15,0-4-2-8-3-12,0,0-2-2-3-2-3,0-6,0-8,1-1,0-2,3-2,5-3,8-5,17-8,25,0,3,0,4,3,5,3,0,6,0,6-3,0-3,2-6,2-9,0-2,2-3,5-3,0,0,0,2,0,2,0,3,1,6,3,8,0,1,4,0,5,0,0,0,0,0,2,0ZM189,525s0,0,1,0c0,1,0,2,1,4,0,4,2,7,5,9,4,3,7,2,8-3,0-6,0-12,0-18,0,0,0-2-2-2-2,0-4,0-4,3,0,3-1,6-2,9,0,0,0,0-1,0,0-1-2-3-2-4,0-2-1-5-3-6-1-1-4-1-6-2,0,0-1,1-2,2,0,7-2,14-2,21,0,2,1,3,3,3,1,0,3-2,3-3,0-3,0-5,0-8,0-2,0-4,0-6ZM161,527h0c0,3,0,5,0,8,0,5,3,8,7,8,7,0,1-1,11-6,1-6,2-13,3-19,0,0,0,0,0-1,0,0-2-2-3-2,0,0-2,0-2,1,0,1,0,3-1,5,0,3-1,6-2,9,0,1-3,3-3,2-1,0-3-2-3-4,0-4,0-7,0-11,0,0,0-2,0-2-1-1-6,0-7,2,0,3,0,6,0,8ZM23,545c3,0,7,0,9-4,0-2,0-4,0-6,0,0-3,0-4,0-1,0-2,0-3,0-5,0-6-2-7-6,0-4,3-8,7-9,1,0,2,0,3,0,0,0,2-1,2-2,0-1,0-3-2-4-3-2-1,0-12,3-4,5-5,11-5,17,0,6,6,11,12,11ZM76,539c1,0,3,0,5-1,2,0,3-2,3-4,0-2-2-2-3-2-3,0-7,0-1-2-3,0-4-4-4-6,0-3,2-4,4-5,1,0,3-1,4-2,2,0,2-2,1-4,0,0-1-2-2-2-5,0-13,5-14,1-2,9,4,17,15,18ZM298,515s0,0,0,0c0,9-1,17-2,26,0,5,0,5,5,4,0,0,2,0,3,0,2,0,4,0,3-3,0-1,0-2,0-3,0-9,0-18,0-27,0-4,0-4-5-4-3,0-4,1-4,4,0,0,0,2,0,3ZM216,528s0,0,0,0c0-2,0-4,0-6s0-4,0-6c0-3-4-6-7-4,0,0-1,1-1,2,0,8,0,17,0,25,0,2,0,4,3,4,3,0,5-2,5-4,0-4,0-8,0-12Z"/>
      <path class="cls-2" d="M157,519v13c-1-2,0-5-4-4-2,0-3,2-5,4,0,0-1-2-2-3-2-3-5-3-7,0-2,3-2,7-3,1,0,0,0,2,0,3,0,0,0,0-1,0,0-8,4-16,6-24,0,0,0,0,0,0,1,2,2,3,3,5,2,3,5,4,8,1,1-1,2-3,3-4,0,0,0,0,1,0Z"/>
      <path class="cls-2" d="M157,538v6s0,0-1,0c0-2,0-4,0-6,0,0,0,0,0,0Z"/>
      <path class="cls-2" d="M314,319c-19,6-37,3-56-3,1,0,2,1,4,2,0,0,0,0,0,0-6-1-12-3-17-4-23-6-44-18-64-3-12-7-24-15-38-19,0,0,0,0,0,0,2,0,4,0,5,1,0,0,0,0,0,0-1-3-2-4-3-5,11-2,2,0,3,3,16,5,29,13,43,21,23,14,48,23,73,3,11,3,22,5,33,6,4,0,7,0,11,0,2,0,4,0,6,0h0ZM178,279s0,0,0,0c4,2,7,4,11,6,0,0,0,0,0,0-4-2-7-4-11-6Z"/>
      <path class="cls-2" d="M167,279h0c0-1,0-1,0-1,2,1,4,2,6,3,7,4,13,9,19,13,11,7,23,13,35,19,9,5,18,9,28,1,8,1,16,3,24,4,4,0,8,0,12-2-1,0-2,0-3,0-8,2-15,0-23-1-9-2-17-3-25-7-1-4-2-9-29-14,0,0,0,0,0,0,3,1,7,3,1,4,15,7,32,11,48,14,6,1,13,1,2,3,6,1,11,0,17,0-26,11-52,6-76-5,0,0,0,0,0,0,0,0,0,0,0,0-7,0-12-4-17-7-9-5-18-11-27-17-4-3-8-6-12-9-2-2-5-3-7-5Z"/>
      <path class="cls-2" d="M15,26c4,1,9,2,13,4,7,3,14,6,21,9,15,8,28,17,44,23,14,5,29,1,43,14,1,3,21,4,32,7,0,0,0,0,1,0,0,0,0,0,0,0-3,0-6,0-1,0-26-3-51-11-74-21-13-6-26-13-38-2-1-5-19-11-3-14,0,0-1,0-2,0,0,0,0,0,0,0Z"/>
      <path class="cls-2" d="M224,32c-5-2-1-5-15-7-11-7-23-13-34-2-1-6-19-13-29-19-5-3-11-4-17-6,0,0-1,0-2,0,9,0,17,2,25,7,1,7,2,13,3,2,13,9,26,18,4,25,0,0,2,1,3,2h0Z"/>
      <path class="cls-2" d="M245,301c-25-6-46-21-68-33h0c3,0,5,0,8,2,1,5,19,11,29,16,9,5,19,9,29,14,0,0,2,0,2,1Z"/>
      <path class="cls-2" d="M186,301c9,6,19,12,28,17-11-4-2-9-29-17,0,0,0,0,0,0Z"/>
      <path class="cls-2" d="M213,32c12,4,25,8,37,12-5,0-33-9-37-12Z"/>
      <path class="cls-2" d="M25,329c-12-2-23-5-34-11,11,4,22,7,34,11Z"/>
      <path class="cls-2" d="M303,33c4-2,9-4,13-7,4-3,7-6,11-8-3,6-17,15-24,15Z"/>
      <path class="cls-2" d="M32,316c-1,2-21,0-31-3,11,0,21,2,31,3Z"/>
      <path class="cls-2" d="M303,328c-6,4-13,5-21,5,7-2,14-3,21-5Z"/>
      <path class="cls-2" d="M261,333c7,0,14,0,21,1h0c-7,0-14,0-21,0,0,0,0,0,0-1Z"/>
      <path class="cls-2" d="M167,279c2,2,5,3,7,5,0,0-1,0-2,0-4-3-8-5-12-8,0,0,0,0,0,0,2,1,4,3,7,4Z"/>
      <path class="cls-2" d="M182,301c-4-3-8-6-12-9,0,0,0,0,0,0,4,3,8,6,11,1,0,0,0,0,0,0Z"/>
      <path class="cls-2" d="M309,332c-5,1-11,3-16,4h0c5-2,11-4,16-5,0,0,0,0,0,0Z"/>
      <path class="cls-2" d="M6,447c5,0,1,0,15,0,9,0,18,0,27,0,8,0,16,0,23,0,12,0,25,0,37,0,18,0,36,0,55,0,18,0,36,0,55,1,2,0,4,1,6,2,3,0,4,0,4,4,0,9,0,18-1,27,0,0-1,2-2,2-2,0-4,0-6,0-17,0-33,0-5,0-35-2-7,0-105,0-12,0-25,0-37,0-15,0-3,0-45,1-9,0-19,0-28,0-3,0-3,0-3-3,0-1,0-21,0-31,0,0,0,0,0-2ZM206,453h0c0,0-2-1-3-1-4,0-1,3-11,8-2,6,1,12,8,13,7,2,11-1,12-8,0,0,0-2,0-2,0-4-2-8-6-1ZM325,459c0-6-3-8-8-5-4,2-6,6-7,1,0,4,0,8,2,11,3,3,7,4,11,2,4-1,5-5,5-9,0-7,0-7-7-7-2,0-3,0-3,3,0,2,0,4,3,3,0,0,1,0,2,0-2,4-6,5-8,2-2-2-2-5,0-8,1-3,3-4,6-3,1,0,2,0,4,0ZM301,465h-1c-1-2-3-4-4-6-1-2-2-4-4-5-2-2-4,0-4,2,0,6,0,11-1,17,0,3,2,4,5,3,0-3,0-6,0-8,0-1,1-2,2-4,0,0,2,2,2,3,2,3,3,7,7,8,2,0,3,0,3-2,0-6,0-11,0-17,0-2,0-3-3-3-2,0-2,0-2,3,0,3,0,6,0,9ZM276,459c0-6-2-6-7-6-2,0-4,0-6,0-3,0-7,0-1,0-1,0-2,2-3,3,0,0,2,1,3,2,2,0,4,0,6,0,2,0,3,1,3,3,0,4,0,7-1,11,0,2,0,3,2,3,0,0,2-2,2-3,0-3,0-7,0-1,0-2,0-4,4-4,3,0,6,0,9,0ZM66,464c0,3,0,5,2,8,2,6,14,8,18,3,0,0,0-2,0-3-1,0-2,0-3,0-2,0-5,1-7,1-5,0-7-5-5-9,2-4,5-5,8-5,1,0,2-1,3-2-1,0-2-2-3-3-6-1-13,5-14,11ZM227,463c0,0,2-2,3-3,1-2,2-4,0-5-1-1-3-3-4-3-3,0-5,0-8,0-1,0-4,2-4,3,0,6,0,11,0,17,0,0,1,2,2,2,2,0,2,0,2-2,0-1,0-4,2-4,2,0,3,1,4,3,0,0,0,1,0,1,1,0,3,1,4,2,0-1,1-2,0-3,0-2-1-4-2-6ZM161,452c0,2-1,3-2,5-2,5-4,9-6,14,0,1,0,3,1,3,2,0,3,0,4-2,0,0,0,0,0-1,0-4,2-5,6-4,0,2,0,4,2,6,0,1,3,1,4,2,0,0,0-2,0-3-1-5-3-1-4-15,0-4-2-4-6-5ZM252,473c0,0,0-2-1-4-2-4-3-7-5-11,0,0,0-2-2-3,0,0-2-1-3-1,0,0-1,1-2,2,0,2-1,4-2,6-1,4-3,7-4,11,0,0,0,2,1,3,0,0,2-2,3-3,0-1,0-3,2-3,4-2,6-1,9,2,0,0,0,1,1,2,2,1,3,0,3-2ZM113,461s0,0,0,0c0,3,0,5,0,8,0,3,1,5,4,5,3,0,6,0,9,0,1,0,2-1,3-2-1,0-2-2-3-3,0,0-1,0-2,0-9,0-8,0-7-8,0-2,0-4,0-7,0,0-2-2-3-2,0,0-1,2-1,3,0,2,0,4,0,7ZM183,461c0-3,0-4,0-6,0-3-3-3-7-3-3,0-3,2-3,4,0,4,0,8,0,12,0,6,2,8,8,7,0,0,1,0,2,0,4,0,5-3,6-6,0-3-1-5-4-7,0,0-2,0-2-1ZM98,473c5,0,11-4,11-8,0-6-5-13-9-13-5,0-11,5-11,11,0,6,3,9,9,1ZM134,453c0,5,0,11,0,16,0,3,1,4,4,4,3,0,6,0,1,0,1,0,2-1,3-2,0,0-2-2-3-2-2,0-4,0-6,0-2,0-4-1-3-4,0-3,0-6,0-8,0-3,0-4-4-3ZM279,471s0,0,0,0c0,1,0,3,0,4,0,0,2,2,3,2,0,0,2,0,2-2,0-6,0-13,0-19,0-2-1-3-3-3,0,0-2,2-2,3,0,5,0,1,0,15Z"/>
      <path class="cls-2" d="M283,127c-4,3-8,5-12,8-6,4-9,9-7,16,0,3,0,7,0,1,0,3-2,5-6,6-5,2-13,0-18-5-5-7-12-13-21-16-5-2-9-4-12-8-3-4-3-8,0-12,3-5,7-9,1-13,3-4,5-7,7-11,3-7,7-13,14-18,1-7,22-8,33-1,4,2,3,4,2,8-1,3-3,7-2,1,0,6,2,13,7,18,2,2,3,5,5,8ZM232,103s0,0,0,0c2,0,3,0,5-1,0,2,0,4,0,6,0,0,0,0,0,0,0-1,0-3,0-4,0-1,1-2,2-4,0,3,1,4,2,6,0,0,0,0,1,0-3-5,0-7,4-8,0,0,0,0,0,0-2,0-3,0-6,0,1-2,2-3,4-4-2,0-2,0-3,0,0-2,0-3-1-4-3,4-6,7-9,1,0,0,0,0,1,0,0,0-2,1-2,2ZM25,158c-2,0-3,0-5,1,0,0,0,0,0,0h4c0,2-2,3-2,5,0,0,0,0,0,0,1-2,2-4,3-6,1,0,2,2,3,3,0,0,0,0,0,0,0,0-1-2-2-3,0,0,2,0,3-1-2,0-3,0-4,0,0-2,1-3,1-5,0,0,0,0,0,0,0,2-1,3-2,5-1-1-2-2-3-4,0,0,0,0,0,0,0,1,1,2,2,4ZM229,112c-1,0-2-2-3-2,0,0-2,1-2,2,0,0,1,2,2,2,0,0,2-1,3-2ZM275,122c0,1-2,2-2,3,0,0,1,2,2,2,0,0,2-1,2-2,0,0-1-1-2-3ZM211,135c0,0,1,0,2,0,0-1,0-2,0-3,0,0-1,0-2,0v4Z"/>
      <path class="cls-2" d="M341,148c0,1-3,17-12,23-2,0-4,2-5,2-4,0-9,0-13-1-7-1-1-6-13-12-2-6-4-11-5-17-2-9-8-17-13-24-4-5-7-11-7-18,0-6,3-1,8-13,8-5,17-5,26-1,6,3,1,7,14,11,1,1,2,3,2,5,2,4,3,8,5,13,0,1,0,2,2,3,6,7,8,15,11,24,0,2,0,5,0,8ZM29,103s0,0,0,0c0-3,0-6-1-9,2,0,4-1,6-1,0,0,0,0,0-1-1,0-2,0-4,0,0,0-1,0-2,0,0,0,0-1,1-2,0,0,2-1,3-2-6,0-13,2-15,8,2,0,3,0,5,0,0,2,0,4,0,6,0,0,0,0,0,0,0-1,0-2,1-4,0-1,0-3,1-4,0,0,0,0,0,0,0,3,1,6,2,9ZM325,155c-1,0-2,0-3,0,1-2,2-4,3-7h0c-1,2-2,4-4,6-1-2-2-3-3-4,0,0,0,0,0,0,0,2,2,3,2,5-2,0-4,0-6,1,0,0,0,0,0,0,2,0,4,0,6,0-1,2-2,4-3,6,0,0,0,0,0,0,1-2,3-4,4-6,2,1,3,3,5,4,0,0,0,0,0-1-1,0-3-2-5-3,2-1,2-2,4-2ZM284,118c0-1,2-2,1-3,0,0-1-2-2-2,0,0-1,1-1,2,0,0,0,2,2,3ZM337,144v-2s0,0-2,0c0,0-1,1,0,2,0,0,1,2,2,2h1Z"/>
      <path class="cls-2" d="M184,9c5,0,9,0,14,2,2,0,4,2,5,3,3,4,5,8,6,14,0,4-1,6-4,8-6,5-12,7-19,9-8,2-16,4-22,1-2,2-3,4-4,6-1,5-5,7-1,9-5,1-8-2-8-7,0-3,0-7-1-1-3-8-2-15,3-23,6-9,14-14,23-18,5-2,11-2,17-3ZM192,101s0,0,0,0c0,0-2,2-2,3,0,3,0,4-3,5,0,0,0,0-1,0,0,0,0,0,0,1,1,0,3,0,4-1,0,0,0,0,0,0-2,1-4,2-6,3,0,0,0,0,0,0,2,0,3,0,5,0,0,1,0,2,2,4,0-2,1-4,2-6,1,2,2,2,2,3,0-1,2-3,3-4h-3c2-1,3-3,5-4,0,0,0,0,0-1-5,3-6,0-7-3ZM146,142h3c0,1,0,3,0,4,0,0,0,0,0,0,0-1,1-3,2-4,2,1,3,2,5,3,0,0,0,0,0,0-1-1-2-2-4-3,1,0,2-1,4-2h-3c0-1,1-3,2-4,0,0,0,0,0,0-1,2-2,3-3,5-1-1-2-2-4-3,0,0,0,0,0,0,0,0,1,2,2,3,0,0-1,0-2,2ZM199,95c0,1-2,2-2,3,0,0,1,2,2,2,0,0,2-1,2-2,0,0-1-2-2-3Z"/>
      <path class="cls-2" d="M226,153c-4,2-7,4-11,6,0,0-1,0-2,0-3,0-6,0-8,0-1-1-1-5-1-7,0-5-1-1-5-13-4-4-1-5-15-7-1,0-2-1-4-2,0,0,1-1,2-1,8-1,14-5,21-8,7-3,1-6,1-15,0-8-4-13-12-15-8-2-16-4-25-2,0,0-1,0-2,0,2-5,6-8,1-11,1-5,21-6,32-2,5,2,11,3,17,5,1,0,3,2,5,3-7,3-9,1-12,15-1,2-2,3-2,5-1,4-4,8-7,11-3,2-5,5-7,7-4,5-4,12,0,17,4,5,8,1,15,12,1,0,2,1,4,2ZM194,78s0,0,0,1c-2,1-5,2-7,3h0c2,0,4,0,6,0,0,2,0,3,0,5,0-1,0-2,1-2,0,0,0-1,0-2,0,2,1,3,2,5,0,0,0,0,0,0,0,0,0-2,0-2-1-4,0-4,3-5,2,0,3,0,5,0,0,0,0,0,0-1-3,0-5,0-8,0,0-1,1-2,2-3h0c-4,0-8,0-12,1,0,0,0,0,0,1,2,0,4,0,6-1ZM207,151c0,2,0,4-1,6,0,0,0,0,0,0,0,0,1-2,2-3,1,0,2,1,3,2v-7c0,0-2,2-2,2,0,0-1,0-2-1ZM213,93c0-1,2-2,2-3,0,0-1-2-2-2,0,0-2,1-2,2,0,0,0,1,2,3Z"/>
      <path class="cls-2" d="M205,94c5,4,8,12,5,18,1-7-2-12-5-18Z"/>
      <path class="cls-2" d="M412,202c6,0,13,0,19,0,2,0,3,0,3,3,0,6,0,13-1,19,0,8,0,15,0,23,0,2,0,3-3,4-16,1-31,3-47,4-4,0-5,0-5-4,0-12,0-24-1-36,0-3,0-5,0-8,0-2,0-3,3-3,11,0,22-2,33-2,0,0,0,0,0,0ZM392,209s0,0-1,0c-2,9-4,18-7,27h1c0-2,0-5,2-7,0-1,2-2,4-3,0,0,2,1,2,2,0,2,0,5,1,7,0,0,0,2,0,2,0,0,0,0,0,0-1-1-2-19-4-29ZM401,25s0,0,1,0c0-1,0-2,0-3,0-5-2-11,3-15,1-1,0-4,0-6,0,0-2,0-2,0-1,2-3,3-3,5,0,4,0,9,0,13,0,2,0,4,0,7ZM41,23c1-1,2-2,3-3,0,0,0-3,0-3,0,0-2-1-3-1,0,0-2,1-2,2,0,4,0,8,0,12,0,0,0,0,0,0,0-1,0-2,0-3,1,0,2,1,3,2,0,0,0,0,0,0-1-1-2-3-4-4ZM421,223s0,0-1,0c0,4,0,7,2,1,0,0,1,1,2,1,0,0,2,0,3-1,0,0,0,0,0,0,0,0-2,0-3,0,0-4,0-7-1-1ZM416,223s0,0-1,0c0,4,1,8,2,12,0,0,0,0,1,0l-2-12Z"/>
      <path class="cls-2" d="M437,249c0-4,0-8,0-12,0-1,0-21,0-31,0-3,0-4,4-4,15,0,31,1,46,1,1,0,2,0,4,0,0,4-1,8-1,12,0,9-1,18-2,27,0,3,0,4-4,4-15,0-3,1-45,2,0,0,0,0,0,0ZM458,213h0c-2-2-3,0-4,1-3,5-4,11-2,16,0,1,2,3,4,3,1,0,3-2,4-3,2-6,1-12-2-18ZM449,233s0,0,0-1c-2,0-4,1-7,2,1-4,2-6,3-9,0-4,2-9,2-13,0,0,0-1,0-2,0,0-2,0-2,0-2,2-4,5-5,8,0,0,0,1,0,3,2-4,3-7,7-9,0,4,0,8-2,12,0,3-2,7-3,1,0,2,0,3,2,2,2,0,4-2,7-3ZM473,232s0,0,0-1c-2,0-4,2-7,3,2-5,4-9,5-13,0-3,0-6,0-9,0-1-2-3-3-1-1,2-2,4-3,6,0,0,0,0,0,0,1-2,2-4,3-6,0,0,0,0,1,0,0,2,0,4,0,6,0,3-2,7-4,1,0,2-1,4-2,7,0,0,0,0,0,0,2-1,5-2,7-3ZM484,236s0,0,0,0v-26s0,0,0,0c0,3,0,6,0,9,0,2,0,4-2,4-2,0-2-2-2-4,0-1,0-3,0-4,0-1,0-2,0-3,0,3,0,5,0,7,0,5,0,5,5,5,0,4,0,7,0,11Z"/>
      <path class="cls-2" d="M437,257c0-4,0-4,3-5,13-1,25-2,38-3,3,0,6,0,9-1,0,2,0,3,0,4,0,2,0,3-3,3-15,0-31,1-46,2,0,0-1,0-2,0Z"/>
      <path class="cls-2" d="M491,246c0-5,0-9,0-14,0-8,0-16,0-24,0-5,0-5,6-4,0,4,0,7,0,11,0,8,0,17,0,25,0,5,0,5-6,6Z"/>
      <path class="cls-2" d="M49,197v4c-5,0-9,0-14,0-12,0-24,0-36-1,0,0-1,0-2,0,0,0-1-1-2-2,0,0,1-1,2-1,7,0,13,0,2,0,1,0,19,0,29,0,0,0,1,0,2,0Z"/>
      <path class="cls-2" d="M438,184c3,0,5,0,8,0,0,3-2,6-3,1-2-4-4-6-6-1Z"/>
      <path class="cls-2" d="M442,18v-3s0,0,0,0v3s0,0,0,0Z"/>
      <path class="cls-2" d="M435,219v29h0v-29h0Z"/>
      <path class="cls-2" d="M432,252c-9,0-19,0-28,1,0,0,0,0,0,0,9,0,19-1,28-2v2Z"/>
      <path class="cls-2" d="M488,246c0-9,0-17,1-26,0,0,0,0,0,0v26s0,0-1,0Z"/>
      <path class="cls-2" d="M46,25c-7,0-15,0-22,1,0,0,0,0,0,0,7,0,15,0,22-1,0,0,0,0,0,0Z"/>
      <path class="cls-2" d="M49,248v9c-2-3-2-7,0-9Z"/>
      <path class="cls-2" d="M375,214v-11s0,0,1,0c0,4,0,7,0,11,0,0,0,0,0,0Z"/>
      <path class="cls-2" d="M451,98c0,7,0,14,0,21,0,4,0,8,0,13,0,2,0,2-2,2-5,0-1,0-15,0-13,0-26,1-39,2-5,0-11,0-16,0-3,0-4,0-4-3,0-1-1-2-2-3,0-3,0-3,3-3,19-2,38-3,57-2,6,0,12,0,19,0ZM383,105s0,0,0,0c3,0,4,0,4,3,0,4,0,9,0,13,0,2,0,4-3,3-3,0-3-2-3-4,0,0,0-2,0-3,0,0,0,0,0,0,0,2,0,5,2,6,1,0,4,1,5,0,1,0,2-3,2-5,0-4,0-8,0-12,0-3,0-5,4-5,0,0,1,0,2,0,0,0,0,0,0,0-4,0-7,1-11,2ZM4,119c0,2,1,4,2,5,0,0,0,0,1,0-1-4-3-9-4-13h0c0,0-2,2-2,3,0,4,0,8,0,11,0,0,0,2,1,3,2-4,0-7,3-9ZM426,123s0,0,1,0c-2-4-2-9-6-13-2,5-1,11,0,16,0-2,0-4,0-5,0,0,0-2,1-2,0,0,1,1,2,2,0,1,0,2,1,3ZM41,125s0,0,1,0c0-4-2-9-3-13,0,0,0,0,0,0,0,3,0,5,1,8,0,0,0,0,0,0-1-3-2-5-3-8,0,0,0,0,0,0,0,5,1,9,2,14,0,0,0,0,0,0,0-2,0-4,0-7,2,3,3,4,4,6ZM431,119c1-1,2-2,3-2,2-2,0-4,0-5,0,0-3-1-3-1,0,1-2,3-2,4,0,2,0,4,0,6,0,2,0,3,0,5h0v-4c2,1,3,2,4,3,0,0,0,0,1-1-2,0-3-2-5-3ZM436,11c0,6,2,8,6,6,0,2,0,4,0,6,0,2,0,3,0,5,0,0,0,0,1,0,0-6-1-12-2-18h0c0,3,0,5-1,8,0,0,0,0-1,0,0-2-2-4-3-6ZM417,125c0-5,0-1-1-15,0,0,0,0,0,0v12s0,0,0,0c0-3-2-7-3-11-1,5,1,11,5,13Z"/>
      <path class="cls-2" d="M453,134c0-8,0-16,0-24,0-3,0-7,0-1,0-2,0-3,3-3,13,0,26,0,39,0,6,0,6,0,7,6,0,9,1,19,2,29,0,3,0,3-3,3-15,0-3,0-46,0,0,0-1,0-2,0ZM464,125s0,0,0-1c-2,0-4,0-6,1,0-1,0-2,0-3,1-3,3-6,4-9,0-3,2-7,2-1,0,0,0-2-1-2,0,0-2,0-2,1-1,2-2,4-3,6,0,0,0,0,0,0,1-2,3-4,4-6,0,0,0,0,0,0,0,5-1,9-3,14-1,3-2,6-3,9,0,1,0,3,2,3,2,0,4-1,6-2ZM475,107s0,0,0,0c0-2-2-3-3-5-1,1-3,2-4,3-2,4-3,8-2,12,0,3,3,5,6,4,3,0,3-3,3-5,0-3,0-7-1-1ZM497,102s0,0-1,0c0,0,0,2,0,3,0,2,0,5,0,7,0,0-1,2-2,3,0,0-2-2-2-3,0-2,0-4,0-5,0,0,0-1,0-2,0,2,0,4,0,6,0,5,0,5,5,5,0,3,0,7,0,1h1c0-8,0-16-1-24ZM48,109s0,0,0,0c1-2,2-4,3-6,0,0,0,0,0,0,0,1,0,3,0,4-1,4-3,8-4,12,0,0,0,2,0,3,2,0,5-1,7-2,0,0,0,0,0-1-2,0-4,0-6,1,0-3,2-5,2-8,0-3,2-6,2-9,0,0,0-2-1-2,0,0-2,0-2,0-1,2-2,4-3,6Z"/>
      <path class="cls-2" d="M453,141v-5c1,0,2,0,4,0,15,0,29,0,44,0,2,0,3,0,3,3,0,3-2,2-3,2-14,0-28,0-42,0-2,0-3,0-5,0Z"/>
      <path class="cls-2" d="M454,93v-5c2,0,3,0,4,0,1,0,2,0,3,0,3,0,6,0,9,0,1,0,3,0,3,2,0,2,0,3-2,3-14,0-28,0-42,0,0,0-1,0-2,0Z"/>
      <path class="cls-2" d="M503,143h-48s0,0,0,0c16,0,32-2,48,0Z"/>
      <path class="cls-2" d="M506,134c0-1-1-2-1-3,0-7,0-14,0-21,0-4,0-8,0-12,0,0,0-2,1-2,0,0,0,2,0,2,0,8,0,16,0,24,0,4,0,7,0,11,0,0,0,0-1,0Z"/>
      <path class="cls-2" d="M417,96c11,0,22-1,33-2,0,0,0,0,0,1,0,0-1,0-2,0-11,0-21,0-32,0,0,0,0,0,0,0Z"/>
      <path class="cls-2" d="M433,136c-11,0-23,1-34,2,0,0,0,0,0-1,11,0,23-1,34-2,0,0,0,0,0,1Z"/>
      <path class="cls-2" d="M479,95h-25s0,0,0,0h25s0,0,0,0Z"/>
      <path class="cls-2" d="M508,13c0-7,0-13-1-2,0,0,0,0,0,0,0,7,0,13,1,2,0,0,0,0-1,0Z"/>
      <path class="cls-2" d="M482,94h13s0,0,0,0h-13s0,0,0,0Z"/>
      <path class="cls-2" d="M209,236c0,5-1,1-2,14,0,4-3,6-6,6-6,0-12-1-18-2,0,0-2-2-1-3,1-7,2-14,5-21,3-8,8-12,17-13,4,0,5,0,5,4,0,5,0,9,1,14Z"/>
      <path class="cls-2" d="M203,209c-11,6-21,12-32,18,1-8,2-14,32-19,0,0,0,0,0,0Z"/>
      <path class="cls-2" d="M199,203c-8,4-16,9-24,13,0,0,0,0,0,0,1-1,2-2,3-3,7-4,13-7,2-1,0,0,0,0,1,0,0,0,0,0,0,0Z"/>
      <path class="cls-2" d="M173,219c9-5,17-12,27-14-9,5-18,1-27,15,0,0,0,0,0,0Z"/>
      <path class="cls-2" d="M183,221c7-4,14-7,21-11,0,0,0,0,0,1-7,4-14,7-21,11,0,0,0,0,0-1Z"/>
      <path class="cls-2" d="M171,245c3-2,6-4,9-6,0,0,0,0,0,0,0,0-1,2-2,3-2,2-5,3-7,5h0c-1,0-3,1-4,2,0,0,0,0,0,0,0-1,2-2,3-3,0,0,0,0,1,0Z"/>
      <path class="cls-2" d="M171,245s0,0-1,0c0,0,0,0-1,0,0,0,0,0,0,0,1-1,3-3,4-4,2-1,4-2,6-4,1,0,2-1,3-2,0,0,0,0,0,0-3,3-7,5-1,8Z"/>
      <path class="cls-2" d="M171,248c3-1,5-2,8-4,0,3-7,8-11,8,1-1,2-3,3-4,0,0,0,0,0,0Z"/>
      <path class="cls-2" d="M171,237s0,0-1,0c0,0,0,0,0,0,3-2,6-5,8-7h0c2-1,5-2,7-3h0c-5,4-9,7-14,1,0,0,0,0,0,0Z"/>
      <path class="cls-2" d="M202,207c-7,4-14,8-21,11,0,0,0,0,0,0,7-4,14-8,21-11,0,0,0,0,0,0Z"/>
      <path class="cls-2" d="M177,229c-3,1-5,3-8,4,0,0,0-1,0-1,6-4,12-8,19-12,0,0,0,0,0,0-4,3-7,5-11,8,0,0,0,0,0,0Z"/>
      <path class="cls-2" d="M177,238c-2,1-4,2-6,4,0,0-2,0-2,0,0,0,0,0,0,0,4-3,9-6,13-9,0,0,0,0,0,0-2,1-3,3-5,4Z"/>
      <path class="cls-2" d="M171,237s0,0,0,0c4-2,7-4,11-6h0c-5,4-9,7-14,1,0,0,0,0,0,0,0,0,2-2,3-3Z"/>
      <path class="cls-2" d="M238,271c0-15,2-29,11-4,2-2,4-4,6-4,5,0,6,0,6,7,0,8,1,17,0,25,0,7,0,9-8,11-3,0-6,1-9,1-2,0-5,0-8,0Z"/>
      <path class="cls-2" d="M227,25c1,7,3,14,4,21-3,0-6,0-9-1,0-3-1-5,0-8,1-3,0-7,0-1,0-3,0-5,1-8,0,0,0,0,1,0,0,8,0,15,1,23,0,0,0,0,0,0,0,0,0-2,0-3,0-5,0-9,0-14,0,0,0,0,0,0Z"/>
      <path class="cls-2" d="M243,232c1-2,3-4,4-5,4-4,9-4,12-1-11,0-14,9-18,17-2,5-3,1-5,15,0-2,0-4,0-5,2-7,4-14,5-21Z"/>
      <path class="cls-2" d="M236,242c0,0,0,1-1,2-1-7,2-12,6-17,1-2,3-3,4-4,3-3,6-4,1-3-8,4-14,9-17,18,0,1,0,3-1,4Z"/>
      <path class="cls-2" d="M236,242c0-1,0-3,1-4,1-2,2-3,3-5,0,0,2-1,2-2-2,7-4,14-5,21,0,2,0,5-1,7-2-3-2-9,0-17Z"/>
      <path class="cls-2" d="M264,27c-1,0-2,2-3,2-7,1-15,2-22,3,0,0,0-1,0-2,4,0,8,0,13-1,4,0,8-2,12-3,0,0,0,0,0,0Z"/>
      <path class="cls-2" d="M227,244s0,0,0,0c-2-6,8-23,15-25-6,5-9,11-12,17-1,2-1,5-2,7,0,0,0,0,0,0Z"/>
      <path class="cls-2" d="M227,244c0-3,2-5,3-8,0,0,0,0,0,0,0,6,0,12-1,17h0c0-3,0-7-1-1,0,0,0,0,0,0Z"/>
      <path class="cls-2" d="M218,271c5,0,9,1,14,2-3,2-11,1-14,0,0,0,0,0,0,0Z"/>
      <path class="cls-2" d="M233,259v-17s0,0,0,0v17s0,0,0,0Z"/>
      <path class="cls-2" d="M221,267c-3-4-3-7,0-12,0,4,0,8,1,11,0,0,0,0,0,0Z"/>
      <path class="cls-2" d="M235,256c0,5,1,1,2,15-1,0-3,0-3,0,0,0,0-2,1-2,0,0,0-2,0-3,0-3,0-6,0-9,0,0,0,0,0,0Z"/>
      <path class="cls-2" d="M225,237c3-4,5-9,8-13,0,0,0,0,0,0-3,4-5,8-8,13,0,0,0,0,0,0Z"/>
      <path class="cls-2" d="M239,226c3-3,6-5,9-8,0,0,0,0,0,0-3,3-6,5-9,8,0,0,0,0,0,0Z"/>
      <path class="cls-2" d="M134,244c0-15,3-27,13-37,0,0,0,0,1,0,0,3,2,7,2,1,0,8,0,16-1,24,0,2-1,3-3,3-4,0-8,0-12,0Z"/>
      <path class="cls-2" d="M13,219c3-3,6-5,9-8h0c-7,1-13,2-21,3,0-1,0-3,0-4,1-7,5-12,1-17,0,0,1-1,2-2Z"/>
      <path class="cls-2" d="M132,241c-1,0-2,0-4,0,2-3,3-6,4-9,0,0,0,0-1,0-3,3-5,6-8,9,0,0,0,0,0,0,4-8,1-16,16-23-1,4-3,8-4,12,0,4,0,8-1,12Z"/>
      <path class="cls-2" d="M116,227c5-12,12-19,23-25,0,0,0,0,0,0,0,0,0,2,0,2-7,7-14,14-21,21,0,0,0,0-1,0Z"/>
      <path class="cls-2" d="M13,219c0,0-1,1-2,2-2,1-3,3-5,4,5-11,14-16,23-23,0,1,0,2,1,2-6,5-11,1-17,14Z"/>
      <path class="cls-2" d="M123,208c-8,1-14,2-16,33,0,0,0,0,0,0,0,0,0-1,0-2,3-9,6-19,11-27,0-2,3-3,4-4,0,0,0,0,0,0Z"/>
      <path class="cls-2" d="M143,246c-11,0-23,0-34-4,11,1,23,2,34,3,0,0,0,0,0,0Z"/>
      <path class="cls-2" d="M125,209c-3,4-5,9-8,13-2,4-4,9-7,13,2-1,8-19,15-26Z"/>
      <path class="cls-2" d="M14,198c-5,0-8,3-12,6-1,1-3,2-5,3,2-6,11-1,17-8Z"/>
      <path class="cls-2" d="M115,211c-2,6-5,11-7,17,0-5,3-14,7-17Z"/>
      <path class="cls-2" d="M117,233c0,2,0,3,0,4,0,1,0,2,0,4-1,0-3,0-3-2,0-3,1-5,4-7Z"/>
      <path class="cls-2" d="M123,242c2-3,4-5,7-8-2,7-3,9-7,8Z"/>
      <path class="cls-2" d="M115,232c2-3,4-6,7-9,0,0,0,0,0,0-2,3-4,6-6,9,0,0,0,0,0,0Z"/>
      <path class="cls-2" d="M24,348c-2,7,0,15-4,21,0,3,0,5,1,6,6,0,11-2,16-3,0,0,0,0,0,1-3,4-5,8-8,12-6,9-11,18-17,27,0,0,0,0,0,0-4,7-6,7-1,0,0-1-1-3-2-4,0,1,0,2,0,3h0c0-3-2-6-2-9,0-2,0-4-1-5-2-6-5-11-7-17,0-3-1-6-2-9,0-2,0-3,2-3,4,0,8,1,12,2,2,0,4,0,6,0,2,0,3,0,3-3,0-4,0-9-1-13,0-7,0-7,6-7,2,0,4,0,7,0Z"/>
      <path class="cls-2" d="M258,367c-1,0-2,2-3,2-5,0-1,2-15-4h18s0,0,0,1Z"/>
      <path class="cls-2" d="M26,364c-5,0-9,0-14,0,0,0-2-1-2-2-1-4,1-7,3-11,0,0,0,0,0,0,0,3,0,7,0,1,0,2,0,3,2,2,3,0,6,0,8,0,0,0,2,0,3,0,0,0,0,0,0,1Z"/>
      <path class="cls-2" d="M223,369c-5,0-9-2-14-3,0,0,0,0,0-1,4,0,8,0,13,0,0,0,2,2,2,3,0,0,0,0,0,1Z"/>
      <path class="cls-2" d="M247,347c-1,0-2,0-4,0v-3h-1c4,0,7,0,11,0,4,0,4,0,4,5Z"/>
      <path class="cls-2" d="M24,4c-3,4-5,8-8,12,0,0,0,0-1,0,3-4,5-8,8-12,0,0,0,0,0,0Z"/>
      <path class="cls-2" d="M242,354c0-2,0-4,0-6,0,0,2,0,3,0,0,3-2,4-2,6,0,0,0,0-1,0Z"/>
      <path class="cls-2" d="M218,413c1,2,3,3,5,5,0,0-1,1-2,1-2-2-3-4-4-5,0,0,0,0,1-1Z"/>
      <path class="cls-2" d="M239,346h-11s0,0,0,0h11s0,0,0,0Z"/>
      <path class="cls-2" d="M208,388c1,4,3,8,4,11,0,0,0,0,0,0-1-4-3-8-4-11,0,0,0,0,0,0Z"/>
      <path class="cls-2" d="M517,668c0,19,0,37,0,56,0,0-1,2-2,2-7,0-14,2-21,2-17,0-33,0-5,0-6,0-12,0-17,1-3,0-4,0-4-3,0-7-1-14-1-21,0-19,0-37,1-56,0-11,1-21,2-32,0-2,0-3,3-3,13,0,25-2,38-2,14,0,28-2,42-3,2,0,4,0,7,0,4,0,5,0,5,5,0,8,0,17,0,25,0,1,0,19,0,29,0,0,0,0,0,0ZM482,723s0,0,0,0c9,0,18,0,27-1,4,0,5,0,5-5,0-12-1-23-1-35,0-22,1-45,2-67,0-2,0-3-3-3-11,0-21,1-32,2-16,0-32,1-49,2-3,0-5,0-5,4,0,17-1,35-1,52,0,17,0,33,0,5,0,4,0,5,5,5,17,0,34-2,51-3Z"/>
      <path class="cls-2" d="M421,682v-37s0,0,0,0v37s0,0,0,0Z"/>
      <path class="cls-2" d="M308,261c0,3-2,5-2,8,0,8-1,17-2,25,0,0,0,2,0,3-1-8,0-15,0-23,0,4-1,8-1,11,0,4,0,8,0,12-8,0-16,2-23-2,0,0-2-2-2-3,4-13,7-27,12-4,2-7,8-12,15-16,2-1,4-1,7,0,1,1,3,2,4,3-4,0-7,4-12,1,2,0,3-1,5-2-5,0-6,0-7,4,0,6-3,12-6,17-1,2-3,5-3,8,0,3-3,3-5,3,0,0,0,0-1,0,1,3,4,6,2,1s0,0,0,0c-2,4-4,8-6,12,3,0,5,3,8,0h0c3,0,7,0,1,0,0-7,2-14,2-21,0-9,4-18,9-26,1-3,3-5,7-5,2,0,4,1,4,4-7,0-1,4-1,11,0,2,0,3,0,5,0,0,0,0,0,0Z"/>
      <path class="cls-2" d="M308,261s0,0,0,0c1-3,3-7,4-1,0-2,2-3,5-2,2,0,4,2,5,5,0,4,1,8,1,12,0,6,0,12,0,18,0,6-2,1-8,12-3,0-6,2-1,3,0-6,0-11,1-16,0,0,0,0,0,0,0,0,0,0,0,0,1-7,2-14,3-21Z"/>
      <path class="cls-2" d="M292,292c-1-3-2-7-3-1-1-4,0-6,3-9,1,0,2-2,3-3,0,0,2-2,4-3,0,3,0,6-1,9,0,5,0,1,0,15,0,1,0,2-1,3-1,0-3-1-4-2,0,0,0,0,0,0Z"/>
      <path class="cls-2" d="M286,282c0,0,0-1,1-2,2,5,3,8,5,12,0,0,0,0,0,0,0,0,0,2-2,2,0,0-2,0-3,0,0,0,0,0,0,0-5,0-6-1-4-6,0-2,2-5,3-7s0,0,0,0Z"/>
      <path class="cls-2" d="M293,269c2-5,4-11,6-16,1,9,0,14-6,16Z"/>
      <path class="cls-2" d="M304,246c0,0,2-1,2-2,0,0,0,0,0,0-2,4-4,7-6,11,0,0,0,0,0,0,0-3,1-5,2-8,0,0,1-1,2-2Z"/>
      <path class="cls-2" d="M306,299c5,0,1-2,15-3h0c-5,2-1,3-15,4,0,0,0,0,0,0Z"/>
      <path class="cls-2" d="M304,246c0,0-1,1-2,2,0-2,0-3-1-5,4,0,4,0,3,3Z"/>
      <path class="cls-2" d="M465,43c6-2,11,1,16,4,0-3,2-5,3-7,3-6,5-13,8-19,0-1,0-2,1-3,0-2,0-4-3-4,0,0-2,0-3,0,0-4,0-4,4-4,3,0,7,0,1,2,0,0,1,2,1,3,0,2,0,4-2,4-4,0-5,2-6,5-3,7-6,15-8,22,0,2,0,2,2,3,4,0,8,0,12,0,2,0,4,0,5,0,2,0,3,1,2,3-4,0-9,0-13-1-9,0-17-2-26-3-2,0-5,0-4-4Z"/>
      <path class="cls-2" d="M58,435c-4,0-7-2-1-2-2,3-2,8-2,12,5,0,1,2,14,3,2,0,5,0,7,2,0,0,1,0,1,1,0,0,0,1-1,1,0,0-2,0-3,0-8-2-15-3-23-5-1,0-2,0-2-2,3-1,5-19,8-29,0-2,2-3,4-2,7,2,14,4,2,6,0,3-1,3-3,3-4,0-9,0-13-1-4,0-9,5-7,9,0,0,2,2,2,2,2,0,5,1,7,2,0,0,0,0,0,2Z"/>
      <path class="cls-2" d="M36,393c1-3,1-7,5-8,5-1,9-2,14,0,3,1,3,4,1,7-2,3-5,4-8,5-1,0-3,0-4,1-3,0-5,2-5,6,0,0,0,0-1,0h0s0-1,0-1c0,0-1-2-2-3,0,0-2,1-3,2-2,5-4,1-6,15,0,1,0,3-4,2,3-7,6-14,9-21,1-2,2-4,3-7,0,2,0,5,3,4,4-1,8-3,12-4,0,0,2-2,2-2,0,0-1-2-2-2-4,0-9-2-12,3,0,0-1,1-2,2Z"/>
      <path class="cls-2" d="M362,405c2,7,1,13,0,2,0,0,0,0-1,0,0,0-1-2-1-3,0-6,1-12,2-18,0,0,0,0,0,0Z"/>
      <path class="cls-2" d="M441,396c0-3,1-4,4-4,7,0,13,1,2,2,3,0,6,0,8,0,0,0,2,1,2,2,0,0-2,2-2,2-4,0-8,0-11,0-3,0-6,0-9,0-4,0-8,0-12-1Z"/>
      <path class="cls-2" d="M449,422c2-8,4-15,7-23,1,2-4,18-7,23Z"/>
      <path class="cls-2" d="M447,431c2-5,3-1,5-16h0c0,2,0,4-1,5,0,3-1,6-2,8,0,0,0,2-1,2,0,0,0,0,0,0Z"/>
      <path class="cls-2" d="M401,43c0-8,2-15,3-23-4,0-8,0-12,0-9,0-12,6-15,14,0,1,0,3-1,4,0,2-2,3-5,2,2-4,3-8,5-11,4-8,9-17,13-25,1-3,4-3,6-1,9,6,9,16,9,25,0,4,0,8-1,12,0,1-1,2-2,3,0,0,0,0,0,0ZM393,406s1,0,2,0c2,0,6-1,6-4,0-2-2-5-4-6-3-3-3-3-5,0,0,1-2,3-2,4-1,3,0,6,3,6Z"/>
      <path class="cls-2" d="M349,39c0-2,1-4,0-5,0-1-3-2-5-2-3,0-5,0-8,0,0,0-1,1-1,2-1,6-1,6,5,6,1,0,2,0,4,0-2,0-4,1-6,1-3,0-7,0-8,5,0,0,0,0,0,0,1-4,2-9,4-13,0-2,4-4,6-4,3,0,7,0,1,0,2,0,5,2,5,5,0,3-3,4-5,4Z"/>
      <path class="cls-2" d="M335,388c1-1,2-3,3-4,3,0,6,0,9,0,1,0,0,2,0,3-4,2-7,2-11,1,0,0,0,0,0-1Z"/>
      <path class="cls-2" d="M324,414c1-4,2-9,4-13,0,0,0,0,0,0-1,4-2,9-3,13,0,0,0,0-1,0Z"/>
      <path class="cls-2" d="M549,439c1,5,0,6-4,6-6,0-12-1-17-5-5-4-7-8-4-15,1-4,3-7,4-1,4-7,12-1,18-7,0,0,2,2,2,3,0,2-1,2-3,2-11-2-14,4-16,16,0,3,1,7,2,1,0,0,1,1,2,2,5,2,1,3,14,0,0,0,0,0,1,0Z"/>
      <path class="cls-2" d="M522,437c3,2,7,5,1,8-3,0-9-4-1-8Z"/>
      <path class="cls-2" d="M264,192c0,1,0,3,0,4,0,3-1,5-4,6-6,2-11,3-17,0-8-2-8-9-5-14,3-6,8-9,15-11,6-1,12,4,12,1,0,1,0,2,0,3,0,0,0,0,0,0Z"/>
      <path class="cls-2" d="M439,419c0,6,0,7-6,8-2,0-5,0-7,0-1,0-15-8-12-17,2-6,6-11,1-16,1-2,3-2,5-3,1,2,2,3,0,4-7,1-12,1-11,17,1,1,11,13,18,9,1,0,2-1,4-2Z"/>
      <path class="cls-2" d="M422,395c-2,3-4,6-6,9,0,0,0,0,0,0,2-3,4-6,6-9,0,0,0,0,0,0Z"/>
      <path class="cls-2" d="M314,191c3,2,6,3,9,5,0,0,2,2,2,3,0,3,0,5,0,8,0,5-2,11-7,12-7,2-14,2-2-2-3-2-3-6-3-9,0-1,1-19,2-18,0,0,1,0,3,0-2,0-3,0-3,0,0,0,0,0,0,0Z"/>
      <path class="cls-2" d="M304,222c3,0,6,0,9,0,0,0,0,0,0,0-3,0-6,0-9,0,0,0,0,0,0,0Z"/>
      <path class="cls-2" d="M201,193c-2,0-5,0-7,0-5,0-7-3-7-8,0-5,2-9,7-12,4-2,9-2,13,0,2,2,4,5,4,8,0,7-1,12-11,12Z"/>
      <path class="cls-2" d="M191,171c4-4,8-6,12-4-4,1-8,3-12,4Z"/>
      <path class="cls-2" d="M198,17c4-2,7,0,9,2-3,0-6-1-9-2Z"/>
      <path class="cls-2" d="M159,179c0,9-4,13-13,14-4,0-1-3-12-8-4-1,5-21,16-2,5,0,9,7,9,13Z"/>
      <path class="cls-2" d="M159,187c0-4,0-7,1-11,1,3,2,7-1,11Z"/>
      <path class="cls-1" d="M221,661c5,2,9,3,14,2,3,0,4,0,4,3,0,6,0,8-7,7-6,0-13-2-19-3-3,0-3-2-2-4,1-4,3-7,4-11,2-5,4-1,5-15,2-6,3-7,1-6,3,0,5,0,8,0,3,0,5,0,8,0,0,2,0,5,0,7,0,2-2,3-4,3-2,0-4,0-5-2-4-2-9,2-9,6,0,0,0,1,2,2,0,0,1,0,2,0,2,0,5,0,5,0,0,2,0,5,0,7,0,1-3,1-5,1,0,0-2,0-2-1-4-2-7-1-8,3ZM234,654s0,0,0-1c-2,0-4,0-7,0-2,0-2,0-3-2,0-9,4-13,13-11,2,0,4,0,6,0,0,0,0,0,0-1,0,0-2-2-3-2-4,0-9-2-13-2-1,0-4,1-4,3-1,3-2,6-3,8-2,6-4,11-6,17,0,2,0,3,2,4,6,0,12,2,17,3,0,0,2,0,3,0,0,0,0,0,0-1-1,0-3,0-4,0-3,0-7-1-1-2,0,0-2-1-2-2,0-3,1-5,2-7,0,0,3,0,5,0,3,0,5,2,7,0ZM216,668s0,0,0,1c6,0,13,2,19,3,0,0,0,0,0,0-6,0-13-2-19-3ZM231,64c-3,0-5,4-5,7,2-2,3-5,5-7Z"/>
      <path class="cls-1" d="M258,655c0,5-1,11-2,16,0,8,0,7-8,5-2,0-3-2-3-4,1-11,3-22,5-33,0-1,1-3,2-4,7,1,9,8,13,12,2,2,3,3,5,5,0,0,0,0,1,0,0-5,0-9,0-14,0-4,1-5,5-5,1,0,3,0,4,0,0,0,0,2,0,3,0,8-1,16-1,23,0,3,0,6,0,9,0,3-2,4-5,3-5-2-9-5-11-1-1-2-3-4-5-7,0,0,0,0-1,0ZM256,647c5,3,7,7,8,11,2,5,6,8,11,1,2,0,3,0,3-2,0-2,0-4,0-6,0-7,0-14,0-22,0,0,0-2-2-3,0,0-2,2-2,3,0,0,0,1,0,2,0,5,0,1,0,15,0,3-2,4-4,3-2-1-3-3-5-4-2-3-4-6-6-9-2-3-4-4-7-4,0,0,0,2,0,3-1,1-3,19-4,29,0,0,0,2,1,3,0,0,2-2,2-3,0-6,2-11,2-17,0-2,1-5,2-8ZM253,676s0,0,1,0c0,0,1-2,1-3,0-8,2-15,2-23-3,8-3,17-5,25Z"/>
      <path class="cls-1" d="M189,616c-1,0-2-2-3-2,0,0-2,0-3,0,0,0,0,2,0,3,4,4,4,9,4,14,0,5-2,1-7,13-5,3-11,2-16-1-1-1-3-4-2-6,1-6,3-11,5-17,0-2,3-1,4,0,1,0,2,2,1,4-1,3-2,6-3,8,0,4,1,5,5,4,4-1,6-5,4-9-2-4-4-9-3-14,0-3,3-6,6-6,3,0,6,1,8,3,2,1,2,4-1,7ZM17,623c-4,2-6,12-4,15,0,1,2,3,3,3,4,0,8-1,12-2,0,0,2-2,2-3,2-6,2-11-1-17-2-3-2-6-3-8-3,2-3,4,0,7,0,1,1,2,2,3,3,5,3,9,0,14-2,3-7,4-1,2-3-2-4-6-2-1,0-1,1-3,2-4Z"/>
      <path class="cls-1" d="M207,631c-7,7-11,15-14,24-2-1-4-2-6-4-3-3-3-3,0-7,4-6,8-11,12-16,0-1,1-2,2-3-2-1-4-2-6-3,0,0,0-2,0-3,0-1,0-2,2-3,2-3,4-4,7-1,6,4,12,9,18,13,0,0,2,1,4,2-1,3-3,6-4,9,0,0-2,0-3,0-3-1-5-3-9-5ZM217,632c0-4-2-7-5-8-3-2-7-4-1-6-2,0-3-1-5-2,0,0-1,0-2,0,0,0,0,1,0,2,2,1,3,2,5,3,3,2,4,4,1,7-4,6-9,13-14,19-2,2-1,3,0,3,2,0,3,0,3-2,4-6,8-13,12-19,2-3,4-4,7-1,1,0,3,2,5,3ZM187,645c9-8,15-18,15-21-5,7-1,14-15,21Z"/>
      <path class="cls-1" d="M13,601c0-2,2-4,3-6,0-1,2-3,4-3,0,0,2,0,4,0,0,0,0,2-1,3-3,6-6,12-9,17-1,2-2,6-5,5-2,0-3-4-4-6,0-3,0-6-1-9-6,4-5,11-7,16-5-2-6-4-4-9,3-6,5-13,7-19,0-2,2-3,3-4,2-2,5-1,6,1,1,3,1,6,2,8,0,2,0,4,1,6,0,0,0,0,0,0ZM126,614s0,0,1,0c3-6,6-11,1-17,0,0,0,0,0,0q-5,7-8,8c-2-6-3-13-5-19h-1c-1,2-2,4-3,6-2,6-4,11-6,17,0,0,0,2,0,3,0,0,1-2,1-2,1-4,3-7,4-11,0-1,1-1,3,0,2,1,3,3,3,5,0,3,0,6,0,8,0,0,0,2,1,3Z"/>
      <path class="cls-1" d="M142,608c-3,3-4,7-3,11,0,1,2,2,2,3,1,0,3-2,4-3,2-3,2-7,0-1,0-3-1-7-1-1,0-4,5-7,9-5,1,0,2,1,3,2,2,1,3,3,0,5,0,0-1,2-2,3-1,0-2-2-3-2,0,0-2,0-2,0,0,0,0,2,0,3,0,2,1,4,2,6,2,5,0,9-2,14-2,4-11,5-15,2-2-2-4-5-4-8,0-3,0-6,2-9,1-4,4-4,8-1ZM155,601s0,0,0,0c0-1,0-3,0-3-2-1-4-2-5-2-2,0-4,2-4,4,0,2,0,4,0,6,0,3,1,5,2,8,0,4-1,8-4,1-3,2-6,1-7-3,0-3,0-6,0-8,0,0,0-2,0-3,0,0-2,1-2,2,0,3,0,5,0,8,0,4,3,6,7,6,7,0,9-4,8-11,0-4-2-9-2-13,0-3,2-4,4-2,0,0,2,1,3,2Z"/>
      <path class="cls-1" d="M299,659c0-5,1-1,2-15,0-5,0-6-5-5-2,0-4,0-5,1-2,0-3,0-3-2,0-4,2-8,6-9,6-1,13-3,19-4,2,0,3-3,5,0,0,1,1,3,2,5,2,7,2,5-4,7,0,0-1,0-2,0-3,0-5,2-4,6,0,6,0,13,0,19,0,3-3,5-6,5-3,0-3-2-3-5,0-1,0-2,0-3,0,0,0,0,0,0ZM291,638c2,0,4,0,6,0,5,0,6,0,6,5,0,7,0,13-1,2,0,1,0,2,1,3,0,0,2-2,3-3,0,0,0-1,0-2,0-7,0-13,0-2,0-3,0-4,3-5,1,0,2,0,4,0,5-1,5-1,4-6,0-2-1-3-3-2-2,0-4,1-6,2-4,0-8,1-12,2-5,1-5,2-5,7Z"/>
      <path class="cls-1" d="M78,605c5,4,4,11-2,13-7,3-16,2-21-4-7-9-6-26,9-31,2,0,6,2,6,4,0,0,0,2-2,2-2,1-4,1-6,2-4,2-6,7-5,12,0,4,5,8,9,9,4,0,6,0,9-4,0,0,2-2,2-3ZM79,61c-3,1-5,3-8,3-3,0-6,0-8-1-2-1-5-4-5-6-1-3-1-7,0-1,1-4,4-8,9-9-2,0-3,0-4,0-4,3-8,7-8,12,0,12,2,17,13,19,6,0,11-2,13-7Z"/>
      <path class="cls-1" d="M97,58c9,0,14,6,12,15,0,4,0,7-3,1-2,1-3,3-5,3-6,2-14-2-17-7-2-4-3-14,3-19,3-2,6-3,1-3ZM95,606c6,0,11-4,11-9,0-7-5-14-1-14-5,0-12,8-12,13,0,6,5,11,11,11ZM98,608c4,0,7-1,8-5-2,2-6,4-8,5Z"/>
      <path class="cls-1" d="M154,635c0,0-1,0-2,0-4,0-4,0-2-4,5-9,11-17,14-28,0-2,2-2,4-1,0,0,0,0,0,0,5,3,5,3,1,8-2,3-4,6-5,9-2,5-4,9-6,14,0,2-2,3-4,3ZM167,605c-4,3-13,23-12,26,3-1,12-2,12-26Z"/>
      <path class="cls-1" d="M372,461c3,1,5,3,8,4,1,0,2,0,4,0h1c0,1,0,2-1,1-4-2-8-4-11-6Z"/>
      <path class="cls-1" d="M358,524c0-5,0-9,0-13,0-2,1-3,3-3,2,0,4,0,7,0,0,4,0,7,0,1,0,8-1,16-3,24,0,1-2,3-4,4-2,0-3,0-4-2-2-4-4-8-7-13,0,0,0,0,0,0,0,5,0,9-1,14,0,2,0,3-3,3,0,0,0,0,0,0-6,1-6,1-6-5,0-6,0-12,1-18,0-5,0-1,0-14,0-2,0-3,2-3,0,0,2,0,2,0,5,0,5,0,7,4,2,4,3,8,5,12ZM366,511c-3,0-4,0-4,4,0,3,0,7-1,1,0,3,0,5,0,8,0,0,0,0-1,0,0-1,0-2-1-3-3-6-5-12-8-18,0,0-2-2-3-1,0,0-2,1-2,2,0,3,0,6-1,1,0,8-1,17-2,25,5,0,5,0,5-4,0-6,0-11,0-17,0,0,1-2,2-3,0,0,1,2,2,3,3,5,5,11,8,16,0,0,2,1,3,1,0,0,1-2,2-2,0-7,0-13,1-2,0-3,0-6,0-1ZM368,517s0,0,0,0c0,4,0,8,0,12,0,0,0,0,0,0,0-4,0-8,1-12Z"/>
      <path class="cls-1" d="M123,527c0,0-1,2-2,2,0,0-2,2-3,2,0,0-2-2-2-3,0-1,0-2-2-5-1,2-2,4-2,5,0,2,0,4,0,6,0,3-1,4-4,4-3,0-3-2-3-4,0,0,0-2,0-3-5,4-9,4-15,3-3,0-5-3-5-6-1-6,0-12,4-16,4-4,12-3,15,2,0,0,0,1,2,2,0-1,0-2,1-3,0-1,2-3,3-3,2,0,4,0,5,2,4,5,5,6,1,0,1-1,3-2,5-3,0,2,0,4,0,5,0,7,1,15,2,22,0,3-3,6-6,5,0,0-1-2-1-3,0-4,0-8,0-13,0,0,0,0-1,0ZM127,515s0,0-1,0c-1,1-2,3-4,4-3,3-5,3-8,0,0,0-1-2-2-3,0,0-2-1-2-1,0,0-1,0-1,2-1,6-2,13-3,19,0,0,0,2,1,2,0,0,0-1,1-2,0-4,2-7,3-11,0,0,2-2,3-2,0,0,2,0,3,2,0,1,1,3,2,5,0,0,1-2,2-2,0-2,2-3,4-3,1,0,1,3,2,4,0,0,0,0,0,1,0,3,1,7,2,1,0,0,0,0,1,0,0-8-2-17-2-25ZM95,535c6,0,1-4,9-9,0-3-1-5-2-8-1-3-5-5-8-4-6,0-8,6-8,13,0,5,4,8,1,8Z"/>
      <path class="cls-1" d="M274,522c-2,0-4,0-6,2-2,0-3,0-2-2,0-3,0-6,0-9,0-2,1-3,3-3,7,0,13,0,2-1,3,0,4,0,4,4,0,2,0,5,0,7,0,2,0,2-2,2-8,0-8,0-8,8,0,5,0,9,0,14,0,0,0,2,0,2-3,0-5,0-8,0,0,0-1-3-1-4,0-6,0-11,0-17,0,0,0-1,0-3ZM268,517c3,0,5,0,8,0,0,0,2,1,2,2,0,3,0,6,0,1,0,4,0,8-1,13,4,0,5,0,5-4,0-6,0-11,0-17,0-3,1-3,4-3,2,0,5,0,7,0,0-2,0-3,0-4,0-3-1-3-4-3-5,0-1,0-16,0-3,0-4,2-4,5ZM276,536s0,0,0,0c0-4,0-7,0-11,0,0,0,0,0,0v11Z"/>
      <path class="cls-1" d="M31,53c0-6,2-12,6-16,7-8,18-7,22,3,3,7,3,14,0,21-5,8-18,1-23,3-2-3-4-6-4-11ZM337,525c0-5-2-8-4-11-2-3-4-3-7-3-2,0-4,2-6,3-6,6-8,14-6,22,0,4,5,7,9,6,3,0,5-1,8-3,6-3,6-9,6-15Z"/>
      <path class="cls-1" d="M267,544c-1,0-1,0-2,0-2,0-5,0-5,0-2-2-2-6-3-8,0,0,0-2,0-2-3,0-4,0-5,3,0,3-2,6-2,9,0,3-3,4-6,3-3,0-4-2-3-5,3-9,5-17,8-25,0-2,1-5,2-5,2-1,5-1,8-1,0,0,2,1,3,2,1,4,2,8,3,12,1,5,2,1,3,15,0,1,0,3,0,5ZM243,544c4,0,4,0,4-2,0-2,0-3,0-5,0-4,3-6,6-6,3,0,4,0,4,3,0,2,0,5,2,7,0,0,2,1,3,2,0,0,1-2,0-3-2-8-4-16-6-24,0-2-2-3-4-2-2,0-4,0-5,3-2,6-4,12-5,18,0,3-1,7-2,1Z"/>
      <path class="cls-1" d="M189,525c0,2,0,4,0,6,0,3,0,5,0,8,0,1-2,3-3,3-2,0-3-1-3-3,0-7,1-14,2-21,0,0,1-2,2-2,2,0,5,0,6,2,1,1,2,4,3,6,0,1,1,3,2,4,0,0,0,0,1,0,0-3,1-6,2-9,0-3,2-3,4-3,0,0,2,1,2,2,0,6,0,12,0,18,0,5-4,6-8,3-3-2-4-6-5-9,0-1,0-2-1-4,0,0,0,0-1,0ZM193,526c0-3-1-6-2-8,0,0-2-1-2,0,0,0-1,1-2,2,0,6-1,11-2,17,0,1,0,2,0,3,0,0,0,0,0,0,0,0,0-1,0-2,0-4,0-8,1-11,0-1,0-3,2-4,2,0,3,0,4,3,0,1,1,2,2,3,0,2,2,4,3,6,0,1,2,2,3,2,0-1,1-2,2-3,0-5,0-1,1-15,0,0,0-1,0-2,0,0,0,0,0,0-1,4-2,9-4,14-1-1-3-2-4-3,0,0-2-1-2-2Z"/>
      <path class="cls-1" d="M161,527c0-3,0-6,0-8,0-2,5-3,7-2,0,0,0,1,0,2,0,4,0,7,0,11,0,1,2,3,3,4,0,0,3-1,3-2,1-3,1-6,2-9,0-2,0-3,1-5,0,0,2-1,2-1,0,0,2,1,3,2,0,0,0,0,0,1,0,7-1,13-3,19-1,5-5,7-11,6-4,0-7-3-7-8,0-3,0-5,0-8h0ZM166,519s0,0,0,0c0,0-2,1-2,2,0,5,0,11,0,16,0,3,3,5,6,5,4,0,7,0,8-4,2-4,3-9,2-14,0-2,0-4,0-6,0,0,0,0,0,0,0,0,0,2,0,3-1,4-2,8-4,12,0,1-3,3-5,2-1,0-3-2-4-4,0-3,0-6,0-8,0-1,0-3,0-4Z"/>
      <path class="cls-1" d="M23,545c-6,0-11-5-12-11,0-6,1-12,5-17,2-3,9-5,12-3,1,0,2,3,2,4,0,0-1,2-2,2,0,0-2,0-3,0-4,0-8,5-7,9,0,4,2,7,7,6,1,0,2,0,3,0,2,0,4,0,4,0,0,2,0,4,0,6-2,4-6,4-9,4ZM238,536c-2,0-5,1-7,1-4,0-8-1-8-5,0-8,1-12,9-15,0,0,0,0,0,0,0,0,0-1,0-2,0,0,0,0-1,0,0,0-2,0-2,0-9,4-12,11-9,21,2,7,7,9,13,6,2-1,4-3,3-6Z"/>
      <path class="cls-1" d="M76,539c-11,0-17-9-15-18,1-5,9-11,14-1,0,0,2,1,2,2,0,1,0,3-1,4-1,0-3,1-4,2-2,0-4,2-4,5,0,3,0,6,4,6,3,1,7,1,1,2,2,0,3,0,3,2,0,2,0,4-3,4-2,0-4,0-5,1ZM73,514c-3,0-8,3-9,8-2,9,0,13,6,15,5,2,1,1,12-3,0,0-2,0-2,0-2,0-5,0-7,0-7-3-1-7-6-13,1-3,5-5,7-7Z"/>
      <path class="cls-1" d="M298,515c0,0,0-2,0-3,0-3,0-4,4-4,4,0,5,0,5,4,0,9,0,18,0,27,0,1,0,2,0,3,0,2-1,3-3,3,0,0-2,0-3,0-5,0-5,0-5-4,0-9,1-17,2-26,0,0,0,0,0,0ZM299,526s0,0,0,0c0,5,0,11,0,16,0,0,1,2,2,2,0,0,2-1,2-2,0-1,0-19,1-29,0,0-1-3-1-3-2,0-4,0-4,3,0,4,0,9,0,13Z"/>
      <path class="cls-1" d="M216,528c0,4,0,8,0,12,0,2-2,4-5,4-3,0-3-2-3-4,0-8,0-17,0-25,0,0,0-2,1-2,3-1,7,1,7,4,0,2,0,4,0,6s0,4,0,6c0,0,0,0,0,0ZM21,527s0,0,0,0c0,4,0,8,0,12,0,0,0,1,1,2,0,0,2-1,2-2,0-8,0-15,0-23,0,0-1-1-2-2,0,0-1,2-1,2,0,4,0,7,0,11ZM215,538c1-11,1-19,0-22v22Z"/>
      <path class="cls-1" d="M178,279c4,2,7,4,11,6,0,0,0,0,0,0-4-2-7-4-11-6,0,0,0,0,0,0Z"/>
      <path class="cls-1" d="M325,459c-1,0-3,0-4,0-3,0-5,0-6,3-1,3-1,6,0,8,2,3,6,1,8-2,0,0-2,0-2,0-3,0-3-1-3-3,0-2,1-3,3-3,7,0,7,0,7,7,0,4-1,7-5,9-4,2-8,0-11-2-3-3-3-7-2-11,0-4,3-8,7-1,5-2,8,0,8,5ZM327,463c-2,0-3,0-5,0,0,0-1,0-2,1,0,0,1,1,2,1,3,0,4,3,2,5-2,3-4,3-7,2-3,0-5-3-5-7,0-6,3-8,9-9,0,0,1,0,2-1,0,0-1,0-2-1,0,0-1,0-2,0-6,1-1,8-8,15,0,4,4,7,1,7,4,0,6-2,6-7,0-2,0-4,0-6Z"/>
      <path class="cls-1" d="M301,465c0-3,0-6,0-9,0-2,0-2,2-3,2,0,3,0,3,3,0,6,0,11,0,17,0,2-1,3-3,2-4-1-5-6-7-8,0,0-2-2-2-3,0,1-2,2-2,4,0,3,0,6,0,8-3,1-5,0-5-3,0-6,0-11,1-17,0-3,2-4,4-2,2,1,3,3,4,5,1,2,3,4,4,6h1ZM305,455s0,0-1,0c0,4-1,8-2,12,0,0,0,0,0,0-1-1-2-2-3-3-2-2-3-5-5-7,0-1-2-2-3-3,0,0,0,0,0,0,0,6,0,13,0,19,0,0,0,0,1,0,0-1,0-2,0-3,0-2,0-4,0-6,0-1,1-2,2-3,0,0,2,0,3,2,2,2,3,5,4,7,0,1,2,2,4,3,0,0,0,0,0,0v-18Z"/>
      <path class="cls-1" d="M276,459c-3,0-6,0-9,0-3,0-4,1-4,4,0,3,0,7,0,1,0,1-1,3-2,3-2,0-2-2-2-3,0-4,0-7,1-11,0-2,0-3-3-3-2,0-4,0-6,0,0,0-2-1-3-2,0,0,2-2,3-3,3,0,7,0,1,0,2,0,4,0,6,0,5,0,6,0,7,6ZM262,461c3-6,8-1,12-3,0-2,0-3-3-3,0,0-2,0-3,0-5,0-11,0-17,0,4,3,9,0,11,5Z"/>
      <path class="cls-1" d="M66,464c0-6,8-12,14-11,1,0,2,2,3,3-1,0-2,1-3,2-4,0-7,1-8,5-2,4,0,9,5,9,2,0,5,0,7-1,1,0,2,0,3,0,0,1,0,2,0,3-4,5-16,3-18-3,0-2-1-5-2-8ZM81,455c-4-2-1,0-13,5-2,5,0,12,5,14,4,2,1,0,12-3-11,2-14,1-15-4,0-2,0-4,0-6,2-5,6-5,11-7Z"/>
      <path class="cls-1" d="M227,463c0,2,2,4,2,6,0,1,0,2,0,3-1,0-3-1-4-2,0,0,0,0,0-1,0-2-2-4-4-3,0,0-2,3-2,4,0,2,0,3-2,2,0,0-2-1-2-2,0-6,0-11,0-17,0-1,2-2,4-3,3,0,5,0,8,0,2,0,3,2,4,3,1,2,0,4,0,5,0,1-2,2-3,3ZM216,471s0,0,0,0c0,0,0-1,0-2,0-1,1-4,2-4,2,0,3,0,5,2,0,0,1,2,2,3,0,0,1,1,2,2,0-1,0-2,0-2,0,0,0-1,0-2-4-4-2-7,1-1,2-2,0-5-3-6-2,0-5,0-7,0-1,0-4,2-4,3,0,5,0,1,0,15Z"/>
      <path class="cls-1" d="M161,452c4,0,5,0,6,5,1,5,3,1,4,15,0,0,0,2,0,3-1,0-3,0-4-2,0-2-1-4-2-6-4,0-5,0-6,4,0,0,0,0,0,1,0,2-2,2-4,2-2,0-2-2-1-3,2-5,4-9,6-14,0-2,1-3,2-5ZM155,472c0,0,1,0,2,0,0-1,1-2,1-4,0-3,3-5,6-4,3,0,2,3,3,4,0,0,0,2,0,3,0,0,1,1,2,2,0-4-2-8-3-11,0-2,0-4-1-6,0-1-2-2-3-3-3,7-5,13-8,19Z"/>
      <path class="cls-1" d="M252,473c0,2-2,3-3,2,0,0-1-1-1-2-3-4-5-4-9-2,0,0-1,2-2,3,0,0-2,2-3,3,0-1-1-2-1-3,1-4,2-7,4-11,0-2,1-4,2-6,0,0,1-2,2-2,1,0,2,0,3,1,0,0,1,2,2,3,2,4,4,7,5,11,0,1,1,3,1,4ZM242,456h-1c-3,6-5,13-7,19,0-4,4-6,7-7,5-2,6,3,8,5,0,0,0,0,0,0-3-6-6-11-8-17Z"/>
      <path class="cls-1" d="M206,453c4,2,6,5,6,1,0,0,0,2,0,2-1,7-5,1-12,8-6-2-1-7-8-13,2-5,7-9,11-8,1,0,2,0,3,1-6,0-1,1-12,6-2,3-1,7,1,1,3,3,7,4,11,3,4-1,4-4,5-7,0-3,0-6-3-8,0,0-1-2-2-3Z"/>
      <path class="cls-1" d="M113,461c0-2,0-4,0-7,0,0,0-2,1-3,0,0,3,2,3,2,0,2,0,4,0,7,0,8-2,8,7,8,0,0,2,0,2,0,1,0,2,2,3,3,0,0-2,2-3,2-3,0-6,0-9,0-3,0-4-2-4-5,0-3,0-5,0-8,0,0,0,0,0,0ZM116,454s0,0-1,0c0,5,0,11,0,16,0,0,0,2,1,2,4,0,8,2,12,0-1,0-3-1-4-1-2,0-4,0-5,0-2,0-3-1-3-4,0-3,0-6,0-9,0-1,0-2,0-3Z"/>
      <path class="cls-1" d="M183,461s1,0,2,1c3,1,5,3,4,7,0,4-2,5-6,6,0,0-1,0-2,0-6,0-8-1-8-7,0-4,0-8,0-12,0-2,0-4,3-4,4,0,6,0,7,3,0,2,0,4,0,6ZM181,462c0-1,1-3,2-4,0-3,0-4-3-4-2,0-4,0-4,3,0,4,0,8,0,12,0,5,3,6,7,6,0,0,2,0,3,0,1-1,3-3,3-4,0-1-1-3-2-4-1-1-3-2-5-3Z"/>
      <path class="cls-1" d="M98,473c-6,0-1-4-9-1,0-6,6-11,11-11,4,0,1,7,9,13,0,4-6,8-11,8ZM98,471c5,0,1-3,1-7,0-4-5-11-9-11-4,0-1,6-1,11,0,5,3,8,8,8Z"/>
      <path class="cls-1" d="M134,453c4,0,4,0,4,3,0,3,0,6,0,8,0,3,1,4,3,4,2,0,4,0,6,0,1,0,2,1,3,2-1,0-2,2-3,2-3,0-6,0-1,0-3,0-4-2-4-4,0-5,0-1,0-16ZM137,454s0,0-1,0c0,0,0,0,0,1,0,3,0,7,0,1,0,6,0,7,7,7,2,0,4,0,6,0,0,0,1,0,2,0-1-1-2-2-3-2-9,0-9,0-8-1,0-2,0-4,0-6Z"/>
      <path class="cls-1" d="M279,471c0-5,0-1,0-15,0-1,0-3,2-3,2,0,3,0,3,3,0,6,0,13,0,19,0,0-2,2-2,2-1,0-2-1-3-2,0-1,0-2,0-4,0,0,0,0,0,0ZM281,475c0,0,1,0,1-1,0-6,0-12,0-18,0,0,0,0-1-1,0,0-1,1-1,2,0,5,0,1,0,15,0,0,0,2,0,3Z"/>
      <path class="cls-1" d="M232,103c0,0,1-1,2-2,0,0,0,0-1,0,3-3,6-7,9-1,0,1,0,3,1,4,0,0,2,0,3,0-1,2-2,3-4,4,2,0,4,0,6,0,0,0,0,0,0,0-4,1-7,4-4,8,0,0,0,0-1,0,0-2,0-3-2-6-1,2-2,3-2,4,0,1,0,3,0,4,0,0,0,0,0,0,0-2,0-4,0-6-2,0-3,0-5,1,0,0,0,0,0,0Z"/>
      <path class="cls-1" d="M25,158c0-1-2-3-2-4,0,0,0,0,0,0,0,1,2,2,3,4,0-2,2-4,2-5,0,0,0,0,0,0,0,2,0,3-1,5,1,0,2,0,4,0-1,0-2,0-3,1,0,0,1,2,2,3,0,0,0,0,0,0,0,0-2-2-3-3-1,2-2,4-3,6,0,0,0,0,0,0,0-2,2-3,2-5h-4s0,0,0,0c1,0,3,0,5-1Z"/>
      <path class="cls-1" d="M229,112c-1,0-2,2-3,2,0,0-2-1-2-2,0,0,1-2,2-2,0,0,1,0,3,2Z"/>
      <path class="cls-1" d="M275,122c0,1,2,2,2,3,0,0-1,2-2,2,0,0-2-1-2-2,0,0,0-1,2-3Z"/>
      <path class="cls-1" d="M211,135v-4c0,0,2,0,2,0,0,1,0,2,0,3,0,0-1,0-2,0Z"/>
      <path class="cls-1" d="M29,103c0-3-1-6-2-9,0,0,0,0,0,0,0,1,0,3-1,4,0,1,0,2-1,4,0,0,0,0,0,0,0-2,0-4,0-6-2,0-3,0-5,0,2-6,9-9,15-8-2,0-3,1-3,2,0,0,0,1-1,2,0,0,1,0,2,0,1,0,2,0,4,0,0,0,0,0,0,1-2,0-3,0-6,1,0,3,0,6,1,9,0,0,0,0,0,0Z"/>
      <path class="cls-1" d="M325,155c-1,0-2,1-4,2,2,1,3,2,5,3,0,0,0,0,0,1-2-1-3-3-5-4-1,2-3,4-4,6,0,0,0,0,0,0,0-2,2-4,3-6-2,0-4,0-6,0,0,0,0,0,0,0,2,0,4,0,6-1,0-2-2-3-2-5,0,0,0,0,0,0,0,1,2,3,3,4,1-3,2-5,4-7h0c0,3-2,5-3,7,1,0,2,0,3,0Z"/>
      <path class="cls-1" d="M284,118c0-2-1-2-2-3,0,0,0-1,1-2,0,0,1,1,2,2,0,0,0,1-1,3Z"/>
      <path class="cls-1" d="M337,144s0,0-1,1c0,0-1-1-2-2,0,0,0-2,0-2,0,0,2,0,3,0v2Z"/>
      <path class="cls-1" d="M192,101c0,4,2,6,7,3,0,0,0,0,0,1-1,1-3,2-5,4h3c0,1-2,3-3,4,0,0,0-1-2-3,0,2-1,4-2,6,0-2-1-2-2-4-2,0-3,0-5,0,0,0,0,0,0,0,2-1,4-2,6-3,0,0,0,0,0,0-1,0-3,0-4,1,0,0,0,0,0-1,0,0,0,0,1,0,3,0,4-2,3-5,0,0,1-2,2-3,0,0,0,0,0,0Z"/>
      <path class="cls-1" d="M146,142c0,0,1-1,2-2,0,0-1-2-2-3,0,0,0,0,0,0,1,0,2,2,4,3,1-2,2-3,3-5,0,0,0,0,0,0,0,1,0,2-2,4h3c-2,0-2,2-4,2,1,1,3,2,4,3,0,0,0,0,0,0-1-1-3-2-5-3,0,1-1,3-2,4,0,0,0,0,0,0,0-1,0-2,0-4h-3Z"/>
      <path class="cls-1" d="M199,95c1,1,2,2,2,3,0,0-1,1-2,2,0,0-2-1-2-2,0,0,0-1,2-3Z"/>
      <path class="cls-1" d="M194,78c-2,0-4,0-6,1,0,0,0,0,0-1,4,0,8-2,12-3h0c0,2-1,3-2,4,3,0,5,0,8,0,0,0,0,0,0,1-2,0-3,0-5,0-4,0-4,0-3,5,0,0,0,2,0,2,0,0,0,0,0,0,0-2-1-3-2-5,0,0,0,1,0,2,0,0,0,0-1,2,0-2,0-3,0-5-2,0-4,1-6,2h0c2-2,5-3,7-4,0,0,0,0,0-1Z"/>
      <path class="cls-1" d="M207,151c0,0,1,0,2,1,0,0,2-2,2-2v7c0,0-2-1-3-2,0,0-1,2-2,3,0,0,0,0,0,0,0-2,0-4,1-6Z"/>
      <path class="cls-1" d="M213,93c0-1-2-2-2-3,0,0,1-2,2-2,0,0,2,1,2,2,0,0-1,2-2,3Z"/>
      <path class="cls-1" d="M392,209c1,1,2,19,4,29,0,0,0,0,0,0,0,0,0-2,0-2,0-2,0-5-1-7,0,0-2-2-2-2-1,0-3,2-4,3,0,2-1,5-2,7h-1c2-9,4-18,7-28,0,0,0,0,1,0ZM391,214s0,0,0,0c-1,4-2,8-3,11,2,0,4,0,6,0,0-4-1-8-2-12Z"/>
      <path class="cls-1" d="M401,25c0-2,0-4,0-7,0-4,0-9,0-13,0-2,2-4,3-5,0,0,2,0,2,0,0,2,0,5,0,6-4,5-2,1-3,15,0,0,0,2,0,3,0,0,0,0-1,0ZM404,226c-3,2-4,3-2,7,2-2,3-4,2-7Z"/>
      <path class="cls-1" d="M41,23c1,2,2,3,4,4,0,0,0,0,0,0,0,0-2-1-3-2,0,1,0,2,0,3,0,0,0,0,0,0,0-4,0-8,0-12,0,0,1-2,2-2,1,0,3,0,3,1,0,0,0,2,0,3,0,1-2,2-3,3ZM409,228s0,0,1,0c0-1,0-3,1-4,0,0-1,0-2,0,0,1,0,3,0,4Z"/>
      <path class="cls-1" d="M421,223c0,3,0,7,1,1,1,0,2,0,3,0,0,0,0,0,0,0,0,0-2,1-3,1,0,0-2,0-2-1,0-3-1-7-2-1,0,0,0,0,1,0Z"/>
      <path class="cls-1" d="M416,223l2,12s0,0-1,0c0-4-1-8-2-12,0,0,0,0,1,0Z"/>
      <path class="cls-1" d="M449,233c-2,0-4,2-7,3-2,0-2,0-2-2,0-3,2-7,3-1,0-4,2-8,2-12-4,2-5,5-7,9,0-1,0-2,0-3,2-3,3-5,5-8,0,0,1,0,2,0,0,0,0,2,0,2,0,4-1,9-2,13,0,3-2,6-3,9,3,0,5-1,7-2,0,0,0,0,0,1Z"/>
      <path class="cls-1" d="M458,213c3,6,4,12,2,18,0,1-3,3-4,3-1,0-3-2-4-3-2-6-2-11,2-16,0-1,2-3,4-1,0,0-1,0-2,0-4,3-5,14-2,18,0,0,3,0,3,0,1-1,2-3,2-4,0-4,0-7-1-11,0-1,0-2,0-4Z"/>
      <path class="cls-1" d="M473,232c-2,1-5,2-7,3,0,0,0,0,0,0,0-2,1-4,2-7,1-3,3-7,4-1,0-2,0-4,0-6,0,0,0,0-1,0-1,2-2,4-3,6,0,0,0,0,0,0,1-2,2-4,3-6,1-2,3,0,3,1,0,3,0,6,0,9-1,4-3,8-5,13,3-1,5-2,7-3,0,0,0,0,0,1Z"/>
      <path class="cls-1" d="M484,236c0-4,0-7,0-11-5,0-5,0-5-5,0-2,0-5,0-7,0,1,0,2,0,3,0,1,0,3,0,4,0,2,0,4,2,4,2,0,2-2,2-4,0-3,0-6,0-9,0,0,0,0,0,0v26s0,0,0,0Z"/>
      <path class="cls-1" d="M383,105c4,0,7-1,11-2,0,0,0,0,0,0,0,0-1,0-2,0-4,0-4,2-4,5,0,4,0,8,0,12,0,2,0,4-2,5-1,0-4,0-5,0-2-1-2-4-2-6,0,0,0,0,0,0,0,0,0,2,0,3,0,2,0,4,3,4,3,0,3-1,3-3,0-4,0-9,0-13,0-2,0-4-4-3,0,0,0,0,0,0Z"/>
      <path class="cls-1" d="M4,119c-4,2-1,6-3,9,0-2-1-3-1-3,0-4,0-8,0-11,0-1,1-2,2-3h0c1,5,3,9,4,13,0,0,0,0-1,0,0-2-1-3-2-5Z"/>
      <path class="cls-1" d="M426,123c0-1,0-2-1-3,0,0-1-1-2-2,0,0-1,2-1,2,0,2,0,4,0,5,0-5-1-1,0-16,4,4,4,9,6,13,0,0,0,0-1,0Z"/>
      <path class="cls-1" d="M41,125c-1-2-2-4-4-6,0,3,0,5,0,7,0,0,0,0,0,0,0-5-1-9-2-14,0,0,0,0,0,0,1,3,2,5,3,8,0,0,0,0,0,0,0-3,0-5-1-8,0,0,0,0,0,0,0,4,2,9,3,13,0,0,0,0-1,0Z"/>
      <path class="cls-1" d="M431,119c2,1,3,2,5,3,0,0,0,0-1,1-1,0-2-2-4-3v4h0c0-1,0-3,0-4,0-2-1-4,0-6,0-2,1-3,2-4,0,0,2,0,3,1,1,2,2,4,0,5,0,0-1,1-3,2ZM43,116c0,0,1,0,1,0,2,0,2-2,0-4,0,0-1,0-2-1,0,1,0,2,0,3,0,0,0,1,0,2Z"/>
      <path class="cls-1" d="M436,11c1,2,2,4,3,6,0,0,0,0,1,0v-7c2,0,2,0,2,0,0,6,1,12,2,18,0,0,0,0-1,0,0-2,0-3,0-5,0-2,0-4,0-6-4,2-6,0-6-6Z"/>
      <path class="cls-1" d="M417,125c-4-2-7-8-5-13,0,4,2,7,3,11,0,0,0,0,1,0v-12s0,0,0,0c0,5,0,9,1,15Z"/>
      <path class="cls-1" d="M464,125c-2,0-4,2-6,2-2,0-2-1-2-3,1-3,2-6,3-9,2-4,4-9,3-14,0,0,0,0,0,0-1,2-3,4-4,6,0,0,0,0,0,0,1-2,2-4,3-6,0,0,2-1,2-1,0,0,1,2,1,2,0,3-1,7-2,1,0,3-2,6-4,9,0,1,0,2,0,3,2,0,4,0,6-1,0,0,0,0,0,1Z"/>
      <path class="cls-1" d="M475,107c0,3,1,7,1,1,0,2,0,5-3,5-3,0-5,0-6-4-1-4,0-9,2-12,0-1,3-2,4-3,0,2,2,3,3,5,0,0,0,0,0,0ZM473,104c-5,4-6,1-4,15,0,1,2,2,4,2,0,0,2-2,2-3,0-4-1-9-2-14Z"/>
      <path class="cls-1" d="M497,102c0,8,0,16,1,24h-1c0-3,0-7,0-1-5,0-5,0-5-5,0-2,0-4,0-6,0,0,0,1,0,2,0,2,0,4,0,5,0,0,1,2,2,3,0,0,2-2,2-3,0-2,0-5,0-7,0,0,0-2,0-3,0,0,0,0,1,0Z"/>
      <path class="cls-1" d="M48,109c0-2,2-4,3-6,0,0,2,0,2,0,0,0,1,2,1,2,0,3-1,6-2,9,0,3-2,5-2,8,2,0,4,0,6-1,0,0,0,0,0,1-2,0-5,1-7,2,0,0,0-2,0-3,1-4,3-8,4-12,0-1,0-3,0-4,0,0,0,0,0,0-1,2-2,4-3,6,0,0,0,0,0,0Z"/>
      <path class="cls-1" d="M482,723c-17,0-34,2-51,3-4,0-5,0-5-5,0-17,0-33,0-5,0-17,1-35,1-52,0-3,2-4,5-4,16,0,32-1,49-2,11,0,21-1,32-2,2,0,3,0,3,3,0,22-2,45-2,67,0,12,0,23,1,35,0,4,0,5-5,5-9,0-18,0-27,1,0,0,0,0,0,0ZM426,694c0,8,0,16,1,24,0,6,0,6,7,6,15,0,29-1,44-2,1,0,2,0,3-2,4,0,4,0,4-5,0,0,0-1,0-2,0-14,0-28,0-43,0-17,1-33,2-5,0-7,0-7-8-7-12,0-25,1-37,2-12,0-24,0-35,1-3,0-4,0-4,4,0,1,0,19,0,29,0,15-1,3-2,44Z"/>
      <path class="cls-1" d="M286,282c0,2-2,5-3,7-2,5-1,6,4,6-3,2-5,0-8,0,2-4,4-8,6-12Z"/>
      <path class="cls-1" d="M36,393c0,0,2,0,2-2,3-5,8-4,12-3,0,0,2,1,2,2,0,0,0,2-2,2-4,2-8,3-12,4-3,0-3-1-3-4,0,0,0,0,0,0ZM363,395c5,0,9-2,13-5-5-3-11,0-13,5Z"/>
      <path class="cls-1" d="M393,406c-3,0-4-3-3-6,0-1,1-3,2-4,2-4,2-4,5,0,2,2,4,4,4,6,0,3-3,3-6,4,0,0-2,0-2,0ZM396,397s0,0-1,0c-1,2-2,4-4,7,3,0,6,0,6-2,0-2,0-4,0-6Z"/>
      <path class="cls-2" d="M234,654c-2,2-5,0-7,0-2,0-4,0-5,0-1,2-2,5-2,7,0,0,1,1,2,2,3,0,7,1,1,2,1,0,3,0,4,0,0,0,0,0,0,1,0,0-2,1-3,0-6,0-12-2-17-3-2,0-2-2-2-4,2-6,4-11,6-17,1-3,2-6,3-8,0-1,3-3,4-3,4,0,9,1,13,2,1,0,2,1,3,2,0,0,0,0,0,1-2,0-4,0-6,0-8-2-14,2-13,11,0,2,0,2,3,2,2,0,4,0,7,0,0,0,0,0,0,1Z"/>
      <path class="cls-2" d="M216,668c6,0,13,2,19,3,0,0,0,0,0,0-6,0-13-2-19-3,0,0,0,0,0-1Z"/>
      <path class="cls-2" d="M231,64c-2,2-3,5-5,7,0-3,2-6,5-7Z"/>
      <path class="cls-2" d="M256,647c0,3-2,5-2,8,0,6-1,11-2,17,0,1-2,2-2,3,0-1-1-2-1-3,1-1,3-19,4-29,0,0,0-2,0-3,3,0,6,2,7,4,2,3,4,6,6,9,1,2,3,3,5,4,3,2,4,0,4-3,0-5,0-1,0-15,0,0,0-1,0-2,0,0,2-2,2-3,0,0,2,2,2,3,0,7,0,14,0,22,0,2,0,4,0,6,0,3-1,3-3,2-5-2-9-5-11-1-2-4-4-8-8-11Z"/>
      <path class="cls-2" d="M253,676c2-8,1-17,5-25,0,8-2,15-2,23,0,0,0,2-1,3,0,0,0,0-1,0Z"/>
      <path class="cls-2" d="M17,623c0,1-1,3-2,4-2,3,0,8,2,1,3,2,8,0,1-2,4-5,4-9,0-14,0-1-1-2-2-3-2-3-2-5,0-7,1,3,2,6,3,8,3,5,3,11,1,17,0,1-1,2-2,3-4,0-8,2-12,2-1,0-3-1-3-3-3-4,0-13,4-15Z"/>
      <path class="cls-2" d="M217,632c-2-1-3-2-5-3-3-2-5-2-7,1-4,6-8,12-12,19,0,1-2,2-3,2-2,0-2-1,0-3,5-6,1-12,14-19,2-3,2-5-1-7-2-1-3-2-5-3,0,0,0-1,0-2,0,0,1,0,2,0,2,0,3,1,5,2,3,2,7,4,1,6,3,2,5,4,5,8Z"/>
      <path class="cls-2" d="M187,645c5-7,1-14,15-21,0,3-6,12-15,21Z"/>
      <path class="cls-2" d="M126,614c0,0-1-2-1-3,0-3,0-6,0-8,0-2,0-4-3-5-2,0-2,0-3,0-2,3-3,7-4,11,0,0,0,2-1,2,0,0-1-2,0-3,2-6,4-11,6-17,0-2,2-4,3-6h1c2,7,3,13,5,2q3,0,8-8s0,0,0,0c-3,6-6,11-1,17,0,0,0,0-1,0Z"/>
      <path class="cls-2" d="M155,601c0,0-2-1-3-2-2-1-4,0-4,2,0,4,1,9,2,13,1,7-1,1-8,11-4,0-7-1-7-6,0-3,0-5,0-8,0,0,1-1,2-2,0,0,0,2,0,3,0,3,0,6,0,8,0,4,4,4,7,3,3-2,5-6,4-1,0-3-2-5-2-8,0-2,0-4,0-6,0-2,2-4,4-4,2,0,4,1,5,2,0,0,0,2,0,3,0,0,0,0,0,0Z"/>
      <path class="cls-2" d="M291,638c0-6,0-6,5-7,4,0,8-1,12-2,2,0,4-1,6-2,2,0,3,0,3,2,1,5,1,5-4,6-1,0-2,0-4,0-2,0-3,2-3,5,0,7,0,13,0,2,0,0,0,1,0,2,0,1-2,2-3,3,0-1-1-2-1-3,0-7,0-13,1-2,0-5,0-5-6-5-2,0-4,0-6,0Z"/>
      <path class="cls-2" d="M79,61c-2,6-8,8-13,7-11-2-13-7-13-19,0-5,4-9,8-12,1,0,3,0,4,0-5,1-8,5-9,9,0,3,0,7,0,1,0,2,3,5,5,6,2,1,6,1,8,1,3,0,5-2,8-3Z"/>
      <path class="cls-2" d="M95,606c-6,0-11-5-11-11,0-5,7-13,12-13,5,0,11,7,1,14,0,5-5,9-11,9Z"/>
      <path class="cls-2" d="M98,608c3-2,6-4,8-5-2,4-4,5-8,5Z"/>
      <path class="cls-2" d="M167,605c0,6-9,25-12,26,0-3,8-23,12-26Z"/>
      <path class="cls-2" d="M366,511c0,4,0,7,0,1,0,7,0,13-1,2,0,0,0,2-2,2,0,0-2,0-3-1-3-5-5-11-8-16,0,0-1-2-2-3,0,0-2,2-2,3,0,6,0,11,0,17,0,4,0,4-5,4,0-8,0-17,2-25,0-3,0-6,1-1,0,0,1-2,2-2,0,0,2,0,3,1,3,6,5,12,8,18,0,1,0,2,1,3,0,0,0,0,1,0,0-3,0-5,0-8,0-3,1-7,1-1,0-3,1-4,4-4Z"/>
      <path class="cls-2" d="M368,517c0,4,0,8-1,12,0,0,0,0,0,0,0-4,0-8,0-12,0,0,0,0,0,0Z"/>
      <path class="cls-2" d="M127,515c0,8,2,17,2,25,0,0,0,0-1,0,0-3-1-7-2-1,0,0,0,0,0-1,0-1-1-4-2-4-2,0-3,0-4,3,0,0-1,1-2,2,0-2-1-3-2-5,0,0-2-2-3-2,0,0-2,1-3,2-1,3-2,7-3,11,0,0,0,1-1,2,0,0-1-2-1-2,0-6,2-13,3-19,0,0,1-2,1-2,0,0,2,0,2,1,0,0,1,2,2,3,3,3,5,3,8,0,1-1,2-3,4-4,0,0,0,0,1,0Z"/>
      <path class="cls-2" d="M95,535c-6,0-1-3-1-8,0-7,3-12,8-13,3,0,7,1,8,4,0,2,2,5,2,8,0,6-3,9-9,9ZM103,525c0-6-3-9-8-1-3,0-8,5-8,8,0,5,3,9,8,9,5,0,8-2,8-7Z"/>
      <path class="cls-2" d="M268,517c0-3,1-5,4-5,5,0,1,0,16,0,2,0,4,0,4,3,0,1,0,2,0,4-3,0-5,0-7,0-2,0-4,0-4,3,0,6,0,11,0,17,0,4,0,4-5,4,0-4,0-8,1-13,0-3,0-6,0-1,0,0-1-2-2-2-2,0-5,0-8,0Z"/>
      <path class="cls-2" d="M276,536v-11s0,0,0,0c0,4,0,7,0,11,0,0,0,0,0,0Z"/>
      <path class="cls-2" d="M337,525c0,5,0,11-6,15-2,1-5,2-8,3-4,0-8-2-9-6-2-8,0-16,6-22,1-1,4-2,6-3,3,0,5,0,7,3,3,3,5,7,4,11ZM335,525s0-2,0-3c-1-5-8-9-12-7-4,2-6,5-7,1-1,9,3,14,12,13,5,0,8-6,8-13Z"/>
      <path class="cls-2" d="M243,544c0-3,1-7,2-1,2-6,3-12,5-18,0-2,2-3,5-3,2,0,3,0,4,2,2,8,4,16,6,24,0,0,0,2,0,3-1,0-3-1-3-2,0-2-2-5-2-7,0-3-1-3-4-3-4,0-6,2-6,6,0,2,0,3,0,5,0,3,0,3-4,2ZM255,517s0,0,0,0c0,3-2,6-3,8,0,2,0,3,2,3,1,0,2,0,3,0,0,0,1-1,0-2,0-3-2-6-3-9Z"/>
      <path class="cls-2" d="M193,526c0,0,1,1,2,2,1,0,2,2,4,3,1-5,2-1,4-14,0,0,0,0,0,0,0,0,0,2,0,2,0,5,0,1-1,15,0,1-1,2-2,3-1,0-2-1-3-2-1-2-2-4-3-6,0-1-1-2-2-3,0,0,0,0,0,0Z"/>
      <path class="cls-2" d="M193,526c0-2-2-4-4-3,0,0-2,2-2,4,0,4,0,7-1,11,0,0,0,1,0,2,0,0,0,0,0,0,0-1,0-2,0-3,0-6,1-11,2-17,0,0,0-2,2-2,0,0,2,0,2,0,0,3,2,5,2,8,0,0,0,0,0,0Z"/>
      <path class="cls-2" d="M166,519c0,1,0,3,0,4,0,3,0,6,0,8,0,1,2,3,4,4,1,0,4-1,5-2,2-4,3-8,4-12,0,0,0-2,0-3,0,0,0,0,0,0,0,2,0,4,0,6,0,5,0,9-2,14-1,3-4,4-8,4-3,0-6-2-6-5,0-5,0-11,0-16,0,0,1-1,2-2,0,0,0,0,0,0Z"/>
      <path class="cls-2" d="M238,536c0,3-1,5-3,6-6,3-11,0-13-6-3-1,0-17,9-21,0,0,2,0,2,0,0,0,1,0,1,0,0,0,0,1,0,2,0,0,0,0,0,0-8,3-1,6-9,15,0,3,4,5,8,5,2,0,4,0,7-1Z"/>
      <path class="cls-2" d="M73,514c-2,2-5,4-7,7-3,6-1,1,6,13,2,0,5,0,7,0,0,0,2,0,2,0-2,4-7,5-12,3-6-3-7-7-6-15,0-4,6-8,9-8Z"/>
      <path class="cls-2" d="M299,526c0-4,0-9,0-13,0-3,2-3,4-3,0,0,1,2,1,3,0,1,0,19-1,29,0,0-1,2-2,2,0,0-2-1-2-2,0-5,0-11,0-16,0,0,0,0,0,0Z"/>
      <path class="cls-2" d="M21,527c0-4,0-7,0-11,0,0,0-2,1-2,0,0,2,1,2,2,0,8,0,15,0,23,0,0-1,1-2,2,0,0-1-1-1-2,0-4,0-8,0-12,0,0,0,0,0,0Z"/>
      <path class="cls-2" d="M215,538v-22c1,3,1,11,0,22Z"/>
      <path class="cls-2" d="M327,463c0,2,0,4,0,6,0,5-2,7-6,7-5,0-9-2-1-7-1-6,3-13,8-15,0,0,1,0,2,0,0,0,1,0,2,1,0,0-1,1-2,1-6,0-8,4-9,9,0,3,1,6,5,7,3,0,5,0,7-2,2-3,1-4-2-5,0,0-1,0-2-1,0,0,1-1,2-1,1,0,3,0,5,0Z"/>
      <path class="cls-2" d="M305,455v18s0,0,0,0c-1,0-3-2-4-3-2-2-3-5-4-7,0,0-2-2-3-2-1,0-2,2-2,3,0,2,0,4,0,6,0,1,0,2,0,3,0,0,0,0-1,0,0-6,0-13,0-19,0,0,0,0,0,0,1,0,2,2,3,3,2,2,3,5,5,7,0,1,2,2,3,3,0,0,0,0,0,0,0-4,1-8,2-12,0,0,0,0,1,0Z"/>
      <path class="cls-2" d="M262,461c-1-6-7-2-11-5,6,0,11,0,17,0,0,0,2,0,3,0,2,0,3,0,3,3-4,2-9-2-12,3Z"/>
      <path class="cls-2" d="M81,455c-5,1-1,2-11,7,0,2,0,4,0,6,1,5,4,6,15,4-2,4-7,5-12,3-5-2-7-9-5-14,2-4,9-7,13-5Z"/>
      <path class="cls-2" d="M216,471c0-5,0-1,0-15,0,0,2-2,4-3,2,0,5,0,7,0,3,0,4,4,3,6-3,3-5,6-1,1,0,0,0,1,0,2,0,0,0,0,0,2,0-1-2-2-2-2,0,0,0-2-2-3-1,0-3-2-5-2,0,0-2,2-2,4,0,0,0,1,0,2,0,0,0,0,0,0Z"/>
      <path class="cls-2" d="M155,472c3-6,5-12,8-19,1,1,2,2,3,3,0,2,0,4,1,6,0,4,2,7,3,11,0,0-2-1-2-2,0,0,0-2,0-3,0-2,0-4-3-4-3,0-5,1-6,4,0,1,0,2-1,4,0,0-1,0-2,0Z"/>
      <path class="cls-2" d="M242,456c3,6,6,11,8,17,0,0,0,0,0,0-2-2-3-7-8-5-4,1-6,3-7,7,1-7,3-13,7-19h1Z"/>
      <path class="cls-2" d="M206,453c0,0,0,2,2,3,3,2,3,5,3,8,0,3-1,6-5,7-4,1-8,0-11-3-2-3-3-6-1-1,3-5,6-7,12-6,0,0,0,0,0,0Z"/>
      <path class="cls-2" d="M116,454c0,1,0,2,0,3,0,3,0,6,0,9,0,2,0,4,3,4,2,0,4,0,5,0,1,0,3,0,4,1-4,2-8,2-12,0,0,0-1-1-1-2,0-5,0-11,0-16,0,0,0,0,1,0Z"/>
      <path class="cls-2" d="M181,462c2,0,4,1,5,3,1,1,3,3,2,4,0,2-2,3-3,4,0,0-2,0-3,0-5,0-7,0-7-6,0-4,0-8,0-12,0-3,2-3,4-3,2,0,4,2,3,4,0,1-1,3-2,4Z"/>
      <path class="cls-2" d="M98,471c-5,0-8-3-8-8,0-5,5-11,1-11,3,0,9,7,9,11,0,4-5,7-1,7ZM92,463c0,4,2,6,5,6,4,0,8-2,8-5,0-3-4-8-7-8-4,0-6,3-6,7Z"/>
      <path class="cls-2" d="M137,454c0,2,0,4,0,6,0,9,0,9,8,1,1,0,2,0,3,2,0,0-1,0-2,0-2,0-4,0-6,0-7,0-7,0-7-7,0-3,0-7,0-1,0,0,0,0,0-1,0,0,0,0,1,0Z"/>
      <path class="cls-2" d="M281,475c0-1,0-2,0-3,0-5,0-1,0-15,0,0,0-1,1-2,0,0,1,0,1,1,0,6,0,12,0,18,0,0,0,0-1,1Z"/>
      <path class="cls-2" d="M391,214c0,4,1,8,2,12-2,0-3,0-6,0,0-4,2-7,3-11,0,0,0,0,0,0Z"/>
      <path class="cls-2" d="M404,226c0,3,0,5-2,7-2-4-1-5,2-7Z"/>
      <path class="cls-2" d="M409,228c0-1,0-3,0-4,0,0,2,0,2,0,0,1,0,3-1,4,0,0,0,0-1,0Z"/>
      <path class="cls-2" d="M458,213c0,1,0,2,0,4,0,4,1,7,1,11,0,1-1,3-2,4,0,0-3,0-3,0-3-4-2-15,2-18,0,0,1,0,2,0,0,0,0,0,0,0Z"/>
      <path class="cls-2" d="M43,116c0,0,0-2,0-2,0-1,0-2,0-3,0,0,1,0,2,1,0,1,0,3,0,4,0,0,0,0-1,0Z"/>
      <path class="cls-2" d="M473,104c0,5,2,1,2,14,0,1-2,3-2,3-1,0-3-1-4-2-2-5,0-11,4-15Z"/>
      <path class="cls-2" d="M426,694c0-14,2-29,2-44,0-1,0-19,0-29,0-4,2-4,4-4,12,0,24,0,35-1,12,0,25-1,37-2,7,0,8,0,8,7,0,17-2,33-2,5,0,14,0,28,0,43,0,0,0,1,0,2,0,4,0,5-4,5-1,0-2,1-3,2-15,0-29,1-44,2-6,0-6,0-7-6,0-8,0-15-1-24ZM506,666s0,0,0,0c0-3,0-5,0-8,0-3,0-3-3-3-14,0-28,1-43,2-2,0-4,0-6,0-1,0-2,2-2,3,0,4,0,8,0,12,0,7,0,7,7,7,0,0,0,0,0,0,8,0,16-1,23-1,7,0,14,0,2,0,2,0,3,0,3-3,0-3,0-6,0-9ZM451,716c12,0,24-1,36-1,4,0,9,0,13,0,2,0,3,0,5,0,2,0,3,0,3-3,0-7,0-13,0-2,0-2,0-2-2-2-2,0-4,0-6,0-9,0-18,0-27,0-6,0-12,0-18,1-2,0-3,0-3,3,0,7,0,15,0,22ZM453,632s0,0,0,0c0,3,0,5,0,8,0,3,1,4,4,3,4,0,8-1,12-1,11,0,23-1,34-2,3,0,4-1,3-4,0-5-1-11,1-16,0,0-1-2-2-2-1,0-21,0-31,0-6,0-13,1-19,2-2,0-3,2-3,4,0,3,0,5,0,8ZM445,71c-3,0-6,0-9,0-3,0-5-3-4-7,1-5,4-7,7-7,0,0,0,0,0,0,2,0,4,4,3,6-1,1-3,2-5,2-1,0-3-1,0-3,0,0,0-1,0-2,0,0-2,0-2,0,0,0-2,2-1,3,0,1,2,3,4,3,4,0,6,0,7-4,0-4-2-8-6-8-3,0-6,1-7,4-2,4-3,8,0,12,0,0,0,0,1,0,3,0,5,1,8,2,2,0,4,0,4-3ZM446,672c-2,0-3,0-4,0-1,0-3,0-4,0-3-1-3-4-2-7,1-4,4-7,6-6,1,0,3,1,3,2,0,1,0,3,0,5,0,0-2,0-3,0,0-2,0-3,0-4,0,0-2,0-2,0,0,1,0,2,0,3,0,0,1,1,2,2,2,0,5,0,6-2,0-2,0-7-2-8-2-1-5,0-7,1,0,0-1,2-2,2-3,4-2,9,0,12,3,2,9,2,1-2ZM446,636c-2,0-4,0-5,0-3,0-4-2-4-6,0-3,2-6,4-5,1,0,3,2,4,3,0,0,0,2,0,2-2,0-3,0-3-2,0,0,0,0-1,0,0,1,0,3,2,3,1,0,3,0,4,0,0,0,2-3,2-3,0-2-2-4-4-5-1,0-4,0-5,2-3,3-3,8,0,11,2,2,6,3,9,0Z"/>
      <path class="cls-2" d="M363,395c2-6,8-8,13-5-4,3-8,5-13,5Z"/>
      <path class="cls-2" d="M396,397c0,2,1,4,0,6,0,0-3,0-6,2,2-3,3-5,4-7,0,0,0,0,1,0Z"/>
      <path class="cls-1" d="M103,525c0,5-3,7-8,7-4,0-8-4-8-9,0-4,4-9,8-8,5,0,8,3,8,1ZM101,524c0-3-3-6-5-7-3,0-7,3-7,7,0,3,3,6,6,6,3,0,6-3,6-6Z"/>
      <path class="cls-1" d="M335,525c0,7-3,12-8,13-8,2-13-4-12-13,0-4,3-7,7-1,4-3,11,1,12,7,0,1,0,2,0,3ZM332,527c0,0,0-1,0-2,0-3-2-6-5-7-2,0-5,1-7,3-3,3-4,7-3,11,0,2,2,4,4,4,5,0,1-3,11-9Z"/>
      <path class="cls-1" d="M255,517c0,3,2,6,3,9,0,0,0,2,0,2-1,0-2,0-3,0-2,0-3,0-2-3,0-3,2-6,3-8,0,0,0,0,0,0Z"/>
      <path class="cls-1" d="M92,463c0-5,2-7,6-7,3,0,7,5,7,8,0,3-4,5-8,5-4,0-5-2-5-6ZM94,462c0,4,1,5,4,5,3,0,7-2,7-4,0-2-4-7-6-7-3,0-4,2-4,6Z"/>
      <path class="cls-1" d="M506,666c0,3,0,6,0,9,0,2,0,3-3,3-7,0-14,0-2,0-8,0-16,0-23,1,0,0,0,0,0,0-7,0-7,0-7-7,0-4,0-8,0-12,0-1,1-3,2-3,2,0,4,0,6,0,14,0,28-1,43-2,2,0,4,0,3,3,0,3,0,5,0,8,0,0,0,0,0,0ZM454,674c0,3,1,3,3,3,14,0,27-1,41-2,2,0,4,0,6,0,0-4-1-4-4-4-8,0-16,0-24,1-8,0-15,1-23,2ZM505,665c-3-4-46-2-51,2,0,0,1,1,2,1,16,0,32-2,49-3ZM454,67h0c1,2,2,2,3,2,15,0,3-2,46-3,0,0,1,0,2,0,0,0,0-1-2-1-2,0-5,0-7,0-9,0-19,0-28,2-5,0-9,1-14,2ZM454,66c2,0,2,0,3,0,13,0,26,0,38-1,3,0,6,0,8-1-4-2-47,0-5,2ZM503,661s0,0,0-1c-16,0-32,1-48,2,0,0,0,0,0,1,16,0,32-2,48-3Z"/>
      <path class="cls-1" d="M451,716c0-7,0-15,0-22,0-2,0-3,3-3,6,0,12,0,18-1,9,0,18,0,27,0,2,0,4,0,6,0,2,0,2,0,2,2,0,7,0,13,0,2,0,2,0,3-3,3-1,0-3,0-5,0-4,0-9,0-13,0-12,0-24,0-36,1ZM453,704c1,0,2,0,3-1,5-2,9-4,14-5,6-2,7,0,6,5,0,2,0,4,3,3,5-1,1-2,15-4,3,0,7-1,1,0,0,0,0,0,2,0,0-4,0-7,0-11-18-2-35,0-52,2v11ZM483,713s0,0,0,0c7,0,14,0,21-2,1,0,3-1,3-2,0-2,0-4-1-5-4-2-8-2-12-1-4,1-8,3-12,4-5,1-7,0-6-5,0-3,0-4-3-3-6,2-11,5-17,7-1,0,0,4,0,6,0,0,2,2,3,1,9,0,17,0,26-2Z"/>
      <path class="cls-1" d="M453,632c0-3,0-5,0-8,0-2,0-4,3-4,6,0,13-1,19-2,1,0,21,0,31,0,0,0,2,1,2,2-2,5-2,11-1,16,0,3,0,4-3,4-11,0-23,1-34,2-4,0-8,0-12,1-3,0-4,0-4-3,0-3,0-5,0-8,0,0,0,0,0,0ZM489,62s0,0,0,0c-1,0-19,1-29,2-5,0-5,0-5,5,0,4,0,8,0,13,0,2,1,3,3,3,8,0,16-1,24-2,6,0,12,0,18-1,3,0,4-1,4-4,0-4,0-8,0-12,0-2,0-2-2-2-5,0-9,0-14,0Z"/>
      <path class="cls-1" d="M445,71c0,2-2,3-4,3-3,0-5,0-8-2,0,0,0,0-1,0-3-4-2-8,0-12,1-3,4-5,7-4,4,0,6,4,6,8,0,3-3,5-7,4-1,0-3-2-4-3,0,0,0-2,1-3,0,0,1,0,2,0,0,0,0,1,0,2-2,2,0,3,0,3,2,0,4,0,5-2,1-2,0-5-3-6,0,0,0,0,0,0-3,0-6,2-7,7,0,4,0,6,4,7,3,0,6,0,9,0Z"/>
      <path class="cls-1" d="M446,672c-2,4-7,4-1,2-3-3-4-8,0-12,0,0,1-2,2-2,2-2,6-3,7-1,2,1,3,6,2,8,0,2-4,3-6,2,0,0-2-1-2-2,0-1,0-2,0-3,0,0,1,0,2,0,0,0,0,2,0,4,1,0,3,0,3,0,0-1,0-3,0-5,0,0-2-2-3-2-3,0-5,2-6,6,0,3,0,6,2,7,1,0,3,0,4,0,1,0,2,0,4,0Z"/>
      <path class="cls-1" d="M446,636c-3,3-7,2-9,0-3-3-3-8,0-11,1-1,4-2,5-2,2,0,3,3,4,5,0,0,0,3-2,3-1,0-3,0-4,0,0,0-1-2-2-3,0,0,1,0,1,0,0,1,1,3,3,2,0,0,1-2,0-2-1-1-3-3-4-3-2,0-4,3-4,5,0,3,2,5,4,6,1,0,3,0,5,0Z"/>
      <path class="cls-2" d="M101,524c0,3-3,6-6,6-3,0-6-3-6-6,0-3,4-7,7-7,2,0,5,4,5,7Z"/>
      <path class="cls-2" d="M332,527c0,6-5,1-11,9-2,0-4-2-4-4,0-4,0-8,3-11,2-2,5-3,7-3,3,0,4,4,5,7,0,0,0,1,0,2Z"/>
      <path class="cls-2" d="M94,462c0-4,2-6,4-6,2,0,6,4,6,7,0,2-3,4-7,4-3,0-4-1-4-5Z"/>
      <path class="cls-2" d="M454,674c8,0,15-1,23-2,8,0,16,0,24-1,3,0,4,0,4,4-2,0-4,0-6,0-14,0-27,1-41,2-2,0-4,0-3-3Z"/>
      <path class="cls-2" d="M505,665c-17,1-33,2-49,3,0,0-1,0-2-1,5-4,48-5,51-2Z"/>
      <path class="cls-2" d="M454,67c5,0,9-1,14-2,9,0,19-1,28-2,2,0,5,0,7,0,0,0,1,0,2,1,0,0-1,0-2,0-15,1-3,2-46,3-1,0-2,0-3,0h0Z"/>
      <path class="cls-2" d="M454,66c2-2,46-4,5-2-3,0-6,1-8,1-13,0-25,0-38,1,0,0-2,0-3,0Z"/>
      <path class="cls-2" d="M503,661c-16,0-32,2-48,3,0,0,0,0,0-1,16,0,32-1,48-2,0,0,0,0,0,1Z"/>
      <path class="cls-2" d="M453,704v-11c17-1,35-3,52-2,0,4,0,7,0,11,0,0-1,0-2,0-3-2-7-2-1,0-5,1-1,3-15,4-3,0-3,0-3-3,1-5,0-7-6-5-5,2-9,4-14,5,0,0-2,0-3,1Z"/>
      <path class="cls-2" d="M483,713c-9,0-17,1-26,2-1,0-3,0-3-1,0-2,0-6,0-6,5-3,11-5,17-7,3-1,4,0,3,3,0,5,1,7,6,5,4-1,8-3,12-4,4-1,8-1,12,1,2,2,2,3,1,5,0,0-2,2-3,2-7,0-14,1-21,2,0,0,0,0,0,0Z"/>
      <path class="cls-2" d="M489,62c5,0,9,0,14,0,2,0,2,0,2,2,0,4,0,8,0,12,0,3-1,4-4,4-6,0-12,0-18,1-8,0-16,1-24,2-2,0-3,0-3-3,0-4,0-8,0-13,0-4,0-5,5-5,1,0,19-1,29-2,0,0,0,0,0,0ZM485,636s0,0,0,0c-2-1-4-3-6-5,2,0,4,0,5,0,1,0,2,0,4,0h0c-2,0-5,0-7,0,0-2,1-3,2-4,0,0,0,0,0,0-1,2-3,3-4,5-2-2-4-3-5-4,0,0,0,0,0,0,1,1,2,2,3,4-2,0-4,0-6,0,0,0,0,0,0,1,2,0,5,0,8,0-1,2-3,5-4,7,0,0,0,0,0,0,1-2,3-4,5-7,2,2,4,3,7,4Z"/>
      <path class="cls-1" d="M485,636c-2-1-4-3-7-4-2,2-3,5-5,7,0,0,0,0,0,0,1-2,2-4,4-7-3,0-5,0-8,0,0,0,0,0,0-1,2,0,4,0,6,0-1-1-2-3-3-4,0,0,0,0,0,0,2,1,3,3,5,4,1-2,3-4,4-5,0,0,0,0,0,0,0,1-1,3-2,4,3,0,5,0,7,0h0c-1,1-2,2-4,2-2,0-3,0-5,0,2,2,4,3,6,5,0,0,0,0,0,0Z"/>
    </g>
  </g>
</svg>