<?xml version="1.0" encoding="UTF-8"?>
<svg id="Layer_2" data-name="Layer 2" xmlns="http://www.w3.org/2000/svg" viewBox="0 0 3753 2621">
  <defs>
    <style>
      .cls-1 {
        fill: #000;
      }

      .cls-1, .cls-2, .cls-3, .cls-4, .cls-5 {
        stroke-width: 0px;
      }

      .cls-2 {
        fill: #ffe72e;
      }

      .cls-3 {
        fill: #a2fff3;
      }

      .cls-4 {
        fill: #ffb200;
      }

      .cls-5 {
        fill: #fff;
      }
    </style>
  </defs>
  <g id="Layer_1-2" data-name="Layer 1">
    <g>
      <g>
        <g>
          <path class="cls-4" d="M2328,2234c-121,12-236,17-349,38-85,15-174,37-248,79-226,13-468,213-723,252-177,27-357,25-534-12-95-2-132-9-153-175-22-89-52-171-134-229-54-38-101-9-143-142-46-56-49-125-4-197,22-176,65-344,187-478,46-51,105-98,168-124,149-62,306-67,462-34,52-64,5-91-8-137-105-85-97-293,14-369,9-62,189-86,294-57,84,23,135,84,155,179,84-71,171-128,287-111,92,13,192,123,21,226,71-101,169-113,269-79,92,31,175,83,218,165,75-12,15-33,226-33,137,0,229,75,268,205,12,41,8,91-2,134-19,81-55,155-132,202-48,3-97,23-147,19-88-7-86-6-131,72-6,104-81,211-51,33,21,86,26,176,39,277ZM1664,2303c-1-5-3-1-4-15-124,21-248,43-372,62-162,25-324,47-487,68-13,2-37-15-4-28-6-25,0-53-2-79-9-138-16-276-31-414-7-6,21-77,67-82,124-15,248-31,373-4,148-11,297-15,446-24,39-2,78-12,108-16-44-69-82-135-128-196-29-39-64-8-105-104-178-101-376-137-575-168-167-26-336-26-5,14-68,16-137,54-189,1-144,131-176,304-164,491,6,87,22,164,1,215,23,15,48,27,66,46,35,35,74,7,96,112,23,45,31,99,39,151,13,79,51,139,132,152,9,15,182,26,272,23,104-3,208-25,312-36,218-23,401-131,587-233ZM821,2354c32-2,6-3,88-6,116-14,231-31,347-45,326-38,651-75,977-112,31-3,39-13,34-46-2-118-38-237-55-355-4-29-15-42-45-4-71,5-142,7-213,11-311,18-622,36-932,56-77,5-154,14-236,21,12,173,23,341,35,515ZM2724,1241c0-18,2-38-4-55-28-86-136-163-23-162-134,2-222,64-281,2-34,79-13,137,39,192,23,25,48,49,77,66,72,41,15,74,231,37,117-53,158-158,168-279ZM1973,887c-187,5-277,175-254,303,3,17,14,36,27,47,54,46,107,89,181,106,126,28,206-14,241-139,6-23,1-47,19-68,36-88-3-193-96-221-44-13-88-22-117-29ZM1027,1115c2,5,5,9,7,14,41-2,85-35,121-62,67-51,79-132,92-207,14-8-28-13-99-17-108-59-294,12-353,111-38,65-45,13,1,188,58,73,129,129,231,126ZM1528,757c-23,5-67,17-112,25-67,11-112,51-131,112-4,128-46,169,76,249,48,31,107,51,164,61,87,16,143-32,159-117,4-23,13-45,24-65,57-108-36-264-18-264ZM1812,1717c112,1,21,3,309,3,1,0,25-12,3-23,33-63,65-125,93-19,6-14-2-39-12-52-28-39-61-75-94-115-9,6-23,19-39,26-18,8-4,2-58,16-102-19-137,42-159,124-3,11-1,21-14,32-17,54-34,108-57,179ZM169,1639c6,0,11-2,17-3,3-92,6-185,88-278,3-11-3-31-12-39-4-4-83-78-126-118-54,6-137,33-216,35-7,26-13,5-19,74-9,34-2,52,34,69,66,31,124,74,16,142,22,41,49,78,74,118ZM1222,1079c-32,26-62,62-1,77-38,15-85,9-131,12,0,28-38,69,2,84,82,21,164,38,247,56,12,2,29,3,36-4,36-33,31-112-4-145-27-25-49-55-7-79ZM1732,1666c4,4,8,8,12,11,12-6,31-1,35-19,33-86,65-173,94-26,4-11-5-26-8-39-11,8-27,14-31,25-36,94-69,188-103,282ZM2194,1713c55,5,103-57,149-178-12-7-24-14-45-26-35,68-68,133-104,204ZM1367,1348c13-39,26-72,34-105,2-7-19-28-25-27-29,7-4,101-9,132ZM911,1138c-29,84-29,84,27,84q18-69-27-84Z"/>
          <path class="cls-4" d="M528,1444c8,71,16,141,24,212-4,2-9,3-13,5-5-1-12-19-13-29-1-68-9-68-83-54v114c-35-76-31-154-29-233,5,0,1-1,15-2,1,13,3,26,3,39,0,15,0,3,0,44,79,28,85,2,8-93,5-1,11-2,16-3Z"/>
          <path class="cls-4" d="M895,1652c-34-2-33-93,5-152,22,27,42,53,64,81,16-31,29-6,46-86,5-7,36-9,37-6,17,44,32,89,47,133-7,2-13,4-2,7-13-41-27-81-45-136-17,37-28,62-39,87-15,35-31,37-52,5-11-18-24-34-44-63v13Z"/>
          <path class="cls-4" d="M706,1587c15-3,28-57,4-83,6,0,11-1,17-2,17,44,35,89,52,133-5,2-11,5-16,7-15-34-3-68-5-113-12,39-21,65-34,107-29-4-51-7-73-101-4,0-9,0-13,0v127c-8,0-17,0-25,0,2-45,3-89,8-133,0-4,34-12,42-6,2,17,34,41,51,64Z"/>
        </g>
        <g>
          <path class="cls-1" d="M467,229c2-43,38-83,53-116-35-22-8-37-81-54-3-52,11-105,2-158,0-5,13-12,2-11,58,6,116,13,189,22-2,93-32,179-58,261-19,6-82,8-141,56ZM463,2092c12,7,91,86,78,159,61-78,99-159,81-261-36-2-71-2-106-5-37-3-53,15-53,5,0,17,0,34,0,58Z"/>
          <path class="cls-5" d="M463,2092c0-24,0-41,0-58,0-35,16-53,53-5,35,3,7,3,106,5,18,102-2,183-81,261,13-73,42-152-78-159Z"/>
        </g>
      </g>
      <path class="cls-3" d="M1323,2243c25,76,5,152,74,226,545-51,1081-101,1617-152,41-4,79-25,12-32,56-1,74-35,63-94-7-36,1-76,16-114,14,0,27,0,41,0,4,85,14,17,8,253-1,19-58,44-92,48-261,29-523,53-784,8-32,32-639,64-959,97-66,7-107-18-116-87-9-72-18-144-26-216,13-3,25-6,38-9Z"/>
      <g>
        <path class="cls-2" d="M2502,665c-53-6-105-12-156-18,0-6,1-12,2-18,56,5,111,11,167,16,2-4,4-8,6-12-17-2-34-4-49-61-13-18-23-37-35-56,5-3,11-6,16-9,3,39,59,79,87,117,6-7,57-98,119-96,5,6,1,12,16,18-36,29-72,58-108,87,48,45,112-7,142,52-34-3-68-6-116-11,36,55,64,97,91,139-6,4-11,8-17,12-17-26-34-52-52-77-19-28-37-55-61-91-43,5-8,94-124,145-13-7,58-84,72-138Z"/>
        <path class="cls-2" d="M203,521c-51-3-98-6-146-9,0-5,0-1,0-14h12c-24-49-44-92-68-141,86,17,7,107,124,143,34-39,67-79,101-118,5,4,9,9,14,13-28,34-56,69-9,111,44,8,8,14,131,23-53,37-94-16-139,7,3,46,61,92,94,144-87-9-79-91-129-134-26,4-5,78-74,117-18-61,47-84,62-14Z"/>
        <path class="cls-2" d="M1226,168c-29,34-59,69-9,106,48,1,105-19,145,46-5-9-9-16-144-25,29,55,5,97,72,138-5,3-11,6-16,9-26-47-52-95-8-146-49,31-68,94-119,118-4-4-9-9-13-13,29-33,58-66,94-107-58-7-108-14-158-2,0-6,1-11,2-17,54,5,107,9,177,16-27-33-42-6-65-75-44-3-28-44,17-6,22,37,44,76,7,121,32-36,63-71,94-105,5,5,1,1,15,14Z"/>
        <path class="cls-2" d="M1595,421c-35,39-66,73-96,106-5-2-1-5-14-7,9-14,16-3,26-43,12-16,27-29,49-52-59-7-107-13-168-2,58-47,114-8,173-2-32-43-6-81-9-121,7-9,15-19,26-34,29,51,57,98,88,152,4-47,76-89,112-131,5,4,1,7,14,11-32,41-65,81-106,133,41,0,68-1,95,0,1,0,2,1,3,15-11,7-22,19-33,2-2,2-41-3-71-6,27,46,48,81,69,117-4,3-8,6-12,8-3-41-6-82-93-128Z"/>
      </g>
      <g>
        <path class="cls-3" d="M3262,44c-167-83-93-201-46-29,68-13,191-183,335-128,251,97,271,413,48,613-37,33-51,92-77,138-2,36-43,71-64,106-4-34-116-73-112-101,11-81,51-16,88-235,12-25,6-31,74-55,46-82,93-167,118-257,4-14-125-97-143-83-77,59-136,141-199,217-14,16-14,44-23,76Z"/>
        <path class="cls-3" d="M3276,1205c12-54,29-118,11-126,56-5,125,7,124,127-1,71-57,13-119,126-72-5-117-5-115-127Z"/>
      </g>
    </g>
  </g>
</svg>