<?xml version="1.0" encoding="UTF-8"?>
<svg id="Layer_2" data-name="Layer 2" xmlns="http://www.w3.org/2000/svg" viewBox="0 0 4047 2387">
  <defs>
    <style>
      .cls-1 {
        fill: #000;
      }

      .cls-1, .cls-2, .cls-3, .cls-4, .cls-5 {
        stroke-width: 0px;
      }

      .cls-2 {
        fill: #ffe72e;
      }

      .cls-3 {
        fill: #a2fff3;
      }

      .cls-4 {
        fill: #ffb200;
      }

      .cls-5 {
        fill: #fff;
      }
    </style>
  </defs>
  <g id="Layer_1-2" data-name="Layer 1">
    <g>
      <path class="cls-4" d="M3593,2264c17-11,25-18,34-21,46-15,66-37,65-86,0-49-8-99-8-148,0-7,3-139,8-209,1-19,16-37,27-54,12-2,18-36-6-55-36-28-53-68-53-114-1-87-2-173-3-26,0-38-4-73-52-82-7-1-12-17-18-26,1-5,19-15,29-15,35,0,62,24,65,59,4,62,5,125,7,188,2,48,2,96,8,144,1,88,59,118,149,98,136-3,191-116,18-256-15-174-9-327-218-448-77-73-17-121-277-138-7-1-15-2-21,0-106,3-219,46-31,114-57,43-107,96-159,146-7,7-8,22-9,33-1,18,0,36,0,54-2,28-14,41-45,43-149,9-297,22-446,33-5,4-101,6-151,9-148,8-296,14-443,23-152,1-305,17-456,37-106,14-212,43-314,74-62,19-118,57-183,9,3,19,59,34,85,54,112,83,218,176,337,247,95,56,205,86,309,126,23,9,5,1,75,13,53,6,97-45,93-107-3-49-6-99-3-148,3-6,3-88,84-94,7,0,15,5,23,8-6,6-11,14-18,17-43,17-61,45-6,92,0,36,2,72,2,108,0,59,7,122-7,147,84,87,7,188,63,288-2,25,0,52,1,74,6,15,27,28,44,35,18,7,38,6,61,9-35,35-108,22-122-21-11-33-15-69-17-104-2-59,2-118,0-177,0-37-18-64-57-74-71-19-142-37-212-57-98-28-195-61-294-85-93-22-189-35-284-52-118-22-236-43-354-66-87-17-177-27-261-54-88-28-173-67-242-131-43-41-56-96-57-155,0-119-23-233-76-341C0,949-14,839,14,732c28-106,83-204,178-263,45-28,107-32,163-39,119-15,23,25,341,59,113,34,225,7,338,101,32,9,69,5,103,5,84-1,168-2,252-7,77-5,153-17,229-22,148-9,296-17,444-2,166-4,333-1,499-2,125,0,25,0,376,0,38,0,7,9,103,31,63,41,13,77,199,109,116,53,234,101,352,151,55,24,114,42,163,75,46,31,87,73,122,117,103,127,167,271,17,439,3,147-127,254-244,253-45,0-54,38-62,67-14,49-22,101-24,153-4,84,0,169-2,253,0,55-3,84-85,86-9,0-18-6-37-12ZM3061,929c-11,24-22,48-33,72,3,2,6,3,9,5,14-14,29-27,43-41-12,16-25,32-34,5-11,21-17,45-26,69,74-57,137-117,211-158,75-42,161-64,245-96-111,16-218,33-316,87,12-9,23-22,36-27,61-22,122-41,183-61,0-3-1-6-2-8-61,12-121,24-182,36,18-9,37-17,55-26-16-4-32-2-46,0-52,12-102,28-142,65-9,8-35,2-2,32ZM104,1705c-127-15-255-3-382-44-19-2-39,0-58,0,0,3,0,5,0,8,209,38,418,76,635,116-22-12-37-21-51-29h31c-19-92-374-166-585-11,75,7,145,1,215,2,66,1,131,26,196,4ZM2972,1156c0-16,0-28,0-39-3-149-1-298-9-447-6-106,12-89-99-89-207,0-414,7-621,12-189,5-378,7-567,16-174,8-348,22-522,37-92,8-183,23-274,36-33,5-48,22-46,58,3,38-3,77-4,115-2,128-2,255-4,383,0,23,7,33,32,3,43-4,86-8,13-8,93,0,185,5,278,5,96,0,192-3,289-6,22-7,44-13,66-22,1-4,199-1,298-21,153-17,305-39,46-59ZM939,618c0-3,0-6,0-9-7-2-13-5-2-7-74-21-148-44-222-63-85-22-17-44-256-6-37-7-77-4-114,2-71,1-124,54-178,97-101,8-135,223-87,345,35,89,61,182,83,275,18,75,19,154,33,231,11,58,43,104,101,126,167,64,333,7,496-13,42-21,82-44,122-67,91-53,181-107,276-163-11,0-19,0-27,0-105,2-209,5-314,7-61,1-64-4-62-66,4-111,5-221,7-332,0-79-1-159,0-238,0-31,15-51,52-51,36,0,72-8,109-13ZM1151,1643c-14-14-27-31-43-43-68-52-133-119-229-51-15,11-35,15-52,23,0,4,0,7,1,11,115-15,225-2,323,61ZM3404,774c-127-59-253-119-38-178,102,11,233,162,38,178ZM1346,181c-159-124-332-211-54-201,197,22,37,108,54,201ZM3221,791c-65-29-134-59-203-89-5,51,131,11,203,89ZM3228,754c-67-41-141-86-211-129,4,53,124,128,211,129ZM3024,903c35-26,68-49,102-75-57-5-105,31-102,75ZM1133,1795c0-4,1-8,2-11-66-12-133-24-199-36,0,4-1,8-2,12,66,12,133,24,199,35ZM982,1588c-1,3-3,6-4,1,48,18,97,36,145,54,1-3,2-6,4-1-48-18-96-36-144-54ZM3021,751c18,4,5,55,97,47-33-16-62-3-97-47ZM653,1703c0-4,0-8,1-13-47-7-95-15-142-22,0,2,0,4-1,7,47,9,94,19,142,28Z"/>
      <g>
        <path class="cls-1" d="M2296,217c-65,4-13,6-194,11-24,2-41-7-49-28-1-26-23-54-25-81-4-61-4-122-3-184,0-41,28-62,65-7,3-6,62-11,93-13,56-4,113-6,169-8,45-1,61,17,66,62,7,64,16,129,24,193,2,17,4,33,4,5,0,53-2,66-63,65-29,0-58,0-86,0,0,0,0,2,0,3ZM2388,1995c0,0,1,0,2,0-2-38-4-77-7-115-3-32-2-46-53-45-61,3-122,3-184,5-5,2-72,21-68,71,5,63,16,126,27,188,2,12,2,27,33,29,75,13,151,16,225-6,1-3,23-2,24-31,3-32,1-65,1-97Z"/>
        <path class="cls-1" d="M2997,1992c-2,38-4,75-6,112-1,24-13,38-39,38-94,2-187,5-281,6-27,0-44-12-47-43-7-72-18-143-25-215-2-18,0-36,3-54,5-41,24-68,71-71,77-6,153-19,23-23,64-4,85,2,87,85,2,55,6,11,8,165ZM2801,2124c0,0,0,1,0,2,42-3,84-5,126-11,9-1,24-15,24-23-1-85-4-171-9-256,0-11-21-31-31-3-79,4-157,12-236,21-21,2-31,19-29,43,4,66,7,132,1,198,2,38,17,55,55,57,3,1,6,0,9,0Z"/>
        <path class="cls-1" d="M3354,1949c-39,0-84,0-128,0-59-1-72-13-76-72-6-82-14-163-16-245-2-7,9-82,77-84,94-3,187-3,281-2,47,0,64,15,69,62,6,65,7,13,9,194,1,32,1,65,2,97,0,24-9,37-35,38-59,2-118,7-182,11ZM3337,1909c0,3,0,5,0,8,51-3,103-8,154-1,26-1,4-13,41-39,2-65,2-129,5-194,2-57-13-79-7-82-77-5-154-5-23-1-32-2-44,13-45,4-3,83-5,166-7,249,0,26,15,39,41,39,37,0,74,0,112,0Z"/>
        <path class="cls-2" d="M2214,1988c5-2,11-44,41-47,21-2,46,26,46,47,0,27-21,48-44,47-27-2-44-19-43-47Z"/>
        <path class="cls-2" d="M2815,2016c-38-2-56-12-58-4-2-25,25-58,44-49,21,11,37,34,47,55,3,6-25,26-33,34Z"/>
        <path class="cls-2" d="M3405,1756c-2,26-24,35-49,38-27,3-51-2-51-44,0-31,24-6,51-6,23,0,49,32,5,67Z"/>
      </g>
      <g>
        <path class="cls-1" d="M532,69c35-7,66,15,87,43,43,56,75,117,61,192-1,57-4,1-92,125-42,2-84,4-1,88-1,28-16,58-18,87-2,23-1,39-32,4-23,1-48,1-62-26-42-108-21-174,63-251,35-33,68-68,99-105,9-11,14-36,7-45-1-15-31-28-48-31-42-7-73,22-85,75-7,29-22,39-5,39-31,0-66,12-76-34-2-9-3-2,0-28,31-94,144-173,248-169ZM4,124c4,2,8,5,11,7,8-8,19-16,22-26,5-17,5-35,7-53,5-45,22-8,65-1,31-15,61-33,91-51,41-26,59-66,59-113,0-28-6-57-13-85-16-66-56-97-124-1-87-3-181,76-209,151-2,5,0,11,0,18,26,6,58,11,63-15,15-65,64-78,116-91,54-13,99,26,94,82-5,5-31,86-73,114-46,31-101,52-12,114-16,52-1,99,9,148Z"/>
        <path class="cls-1" d="M482,1378c0,38-31,64-76,63-26,0-6-43-6-76,0-34,34-66,72-65,33,0,64,38,63,78ZM461,1369c-12-14-21-33-36-39-17-7-44,23-41,44,3,17,4,41,31,39,21-2,45-6,46-44Z"/>
        <path class="cls-5" d="M399,1235c-1-49-25-96-9-148,19-62,74-83,12-114,41-28,68-64,73-114,6-56-4-95-94-82-52,13-101,26-116,91-6,26-38,21-63,15,0-7-2-13,0-18,29-75,122-155,209-151,67,2,108,34,124,1,7,28,13,57,13,85,0,47-17,87-59,113-3,18-59,37-91,51-43,2-61,55-65,1-2,18-2,36-7,53-3,1-14,17-22,26-4-2-8-5-11-7Z"/>
        <path class="cls-5" d="M461,1369c0,38-24,42-46,44-27,2-28-22-31-39-3-21,24-52,41-44,15,7,24,26,36,39Z"/>
      </g>
      <path class="cls-3" d="M1056,662c28-62,43-126,8-174,139-179,331-279,551-317,19-33,383-41,572,11,88,24,175,56,264,77,229,54,461,97,699,74,214-21,399-95,528-277,14-2,32-4,53-5,16-8,46-8,59,2,12,9,2,42,13,56-101,196-176,406-34,567-153,15-343,221-538,285-275,91-512-2-741-146-218-119-433-235-688-244-15-5-288,38-419,108-19,1-37,22-56,32-4,2-1,0-37-4ZM22,461c28,219,991,303,1205,52-26,85-518,98-78,44-142-3-284-64-426-96ZM3099,686c-101,0-202,6-303-1-204-15-399-65-579-165-11-61-222-111-347-92,389,169,774,376,1229,258ZM3118,425c-317-56-652-115-987-174-2,8-3,16-5,24,119,29,237,6,357,88,53,13,11,13,159,33,166,69,333,5,477,28ZM2454,701c338,191,794,105,1027-111-327,182-669,221-1027,111ZM1517,338c104-11,209-38,311-28,182,18,362,59,543,9,9,15,179,3,269,44,1-8,3-16,4-25-33-9-66-18-99-26-12-29-242-53-361-87-226-63-448-55-667,31ZM225,391c177,95,559,204,705,147-244-51-474-99-705-147ZM3387,399c-199,53-399,104-609,66,213,83,414,43,609-66ZM1565,253c238-54,477-53,717-16-24-62-48-84-717,16ZM3648,349c-109,94-217,188-332,287,151-54,267-139,332-287ZM2252,65c-4,1-8,19-12,29,93,37,186,75,28,112,3-8,6-16,9-24-92-39-185-78-277-117ZM1887,39c0-6,0-11-1-17h-301c0,6,0,11,0,17h302Z"/>
    </g>
  </g>
</svg>