<?xml version="1.0" encoding="UTF-8"?>
<svg id="Layer_2" data-name="Layer 2" xmlns="http://www.w3.org/2000/svg" viewBox="0 0 3946 1627">
  <defs>
    <style>
      .cls-1 {
        fill: #a2fff3;
      }

      .cls-1, .cls-2 {
        stroke-width: 0px;
      }

      .cls-2 {
        fill: #ffb200;
      }
    </style>
  </defs>
  <g id="Layer_1-2" data-name="Layer 1">
    <g>
      <g>
        <path class="cls-2" d="M3364,1149c19,68-15,107-96,118-219,29-438,63-658,92-364,49-728,97-1092,145-242,32-484,62-725,94-58,8-91-8-12-63-65-124-181-187-309-23-112-38-223-82-296-181-31-41-61-93-65-142-13-168,18-321,13-463,188-237,435-348,723-401C1387,22,1923-15,2462,5c131,5,264,23,373,11,3,24,65,52,77,85,34,93,65,189,81,286,17,101,55,146,155,145,118-1,155,3,171,146,14,97,28,194,42,291,3,22,2,45,4,8ZM2977,667c-32-1-66-189-89-28-57-228-104-273-336-308-17-2-33-6-5-6-224,3-447,5-671,9-376,7-75,45-1116,134-279,68-489,223-613,49-66,141-38,381,123,458,134,64,271,123,417,188-14-113-27-21-39-306-7-54,11-79,72-85,233-25,466-57,699-88,397-53,794-108,1191-16,138-18,276-31,413-47ZM3303,1218c-22-134-42-255-63-375-23-13-27-132-158-117-596,68-1193,133-1789,203-181,21-36,58-539,88-64,11-101,38-85,113,25,115,43,231,66,347,9,43,29,67,82,59,133-22,266-38,4-55,548-66,1097-13,1645-196,144-18,287-44,441-67Z"/>
        <path class="cls-2" d="M925,628c-4-79-9-159-13-236,35,35,64,235,32,272-9,1-53,5-64-8-32-37-56-82-89-133-12,71-23,131-33,192-11,3-22,5-33,8-39-9-77-179-116-269,7-3,14-6,21-1,31,69,62,138,93,207,7-1,14-3,22-4,7-69,14-138,21-206,6-1,12-2,18-3,39,66,78,131,117,197,8-3,17-5,25-8Z"/>
        <path class="cls-2" d="M172,324c11,94,22,187,32,281-1,6-21,13-31,19-38-49-75-98-113-146-6,3-12,6-17,8v161c-7,0-14,0-2,1-9-98-19-197-3-321,6,87,107,154,154,222,7-3,14-6,21-9-7-72-14-145-22-217,9,0,18,0,26,0Z"/>
        <path class="cls-2" d="M2627,371c0,66-8,161-146,162-21,0-55-28-61-5-17-62-28-126-31-19,0-2,28-54,5-61,85-3,187,49,188,139ZM2459,517c76-44,139-69,131-155-6-66-52-88-108-97-4-7-68,8-6,55,1,6,22,119,37,197Z"/>
        <path class="cls-2" d="M1107,507c2,107,45,126,144,112,0,8,1,16,2,24-33,2-7,15-98,5-65-24-131-181-9-258,24-45,106-6,168-78-31,65-172,15-132,15h84c2,5,3,9,5,14-25,1-5,2-81,33Z"/>
        <path class="cls-2" d="M2282,246c-47,55-145,6-147,107,27,2,53,4,88,7-29,39-12,37-71,104,22,3,68,42,116,7-26,5-58,21-85,15-59-15-112-162-79-243,28-66,99-63,177-61Z"/>
        <path class="cls-2" d="M1868,427c42-5,71-8,107-13-15,53-127,26-85,105,12,22,64,22,107,45-34,5-71,2-101,11-45-13-107-201-77-251,38-64,11-51,174-43-46,19-94,34-135,6-1,6,5,51,1,85Z"/>
      </g>
      <path class="cls-1" d="M3215,1154c8-7,16-134,24-201,12,48,227,95,338,133,103,35,209,61,368,106-242,152-432,271-64,402,36-27-128-243-299-214-443,76-888,146-1331,225-107,19-212,63-239-93-3-174,112-139,204-152,523-71,1047-138,1574-207Z"/>
    </g>
  </g>
</svg>