<?xml version="1.0" encoding="UTF-8"?>
<svg id="Layer_2" data-name="Layer 2" xmlns="http://www.w3.org/2000/svg" viewBox="0 0 1057 2556">
  <defs>
    <style>
      .cls-1 {
        fill: #a2fff3;
        stroke-width: 0px;
      }
    </style>
  </defs>
  <g id="Layer_1-2" data-name="Layer 1">
    <g>
      <path class="cls-1" d="M7748,772c28-62,43-126,8-174,139-179,331-279,551-317,19-33,383-41,572,11,88,24,175,56,264,77,229,54,461,97,699,74,214-21,399-95,528-277,14-2,32-4,53-5,16-8,46-8,59,2,12,9,2,42,13,56-101,196-176,406-34,567-153,15-343,221-538,285-275,91-512-2-741-146-218-119-433-235-688-244-15-5-288,38-419,108-19,1-37,22-56,32-4,2-1,0-37-4ZM8892,572c28,219,991,303,1205,52-26,85-518,98-78,44-142-3-284-64-426-96ZM9791,797c-101,0-202,6-303-1-204-15-399-65-579-165-11-61-222-111-347-92,389,169,774,376,1229,258ZM981,535c-317-56-652-115-987-174-2,8-3,16-5,24,119,29,237,6,357,88,53,13,11,13,159,33,166,69,333,5,477,28ZM9146,812c338,191,794,105,1027-111-327,182-669,221-1027,111ZM8209,449c104-11,209-38,311-28,182,18,362,59,543,9,9,15,179,3,269,44,1-8,3-16,4-25-33-9-66-18-99-26-12-29-242-53-361-87-226-63-448-55-667,31ZM8942,502c177,95,559,204,705,147-244-51-474-99-705-147ZM10079,51c-199,53-399,104-609,66,213,83,414,43,609-66ZM8257,364c238-54,477-53,717-16-24-62-48-84-717,16ZM1034,46c-109,94-217,188-332,287,151-54,267-139,332-287ZM8944,761c-4,1-8,19-12,29,93,37,186,75,28,112,3-8,6-16,9-24-92-39-185-78-277-117ZM8579,501c0-6,0-11-1-17h-301c0,6,0,11,0,17h302Z"/>
      <path class="cls-1" d="M1782,832c8-7,16-134,24-201,12,48,227,95,338,133,103,35,209,61,368,106-242,152-432,271-64,402,36-27-128-243-299-214-443,76-888,146-1331,225-107,19-212,63-239-93-3-174,112-139,204-152,523-71,1047-138,1574-207Z"/>
      <path class="cls-1" d="M3812,2243c25,76,5,152,74,226,545-51,1081-101,1617-152,41-4,79-25,12-32,56-1,74-35,63-94-7-36,1-76,16-114,14,0,27,0,41,0,4,85,14,17,8,253-1,19-58,44-92,48-261,29-523,53-784,8-32,32-639,64-959,97-66,7-107-18-116-87-9-72-18-144-26-216,13-3,25-6,38-9Z"/>
      <g>
        <path class="cls-1" d="M5751,44c-167-83-93-201-46-29,68-13,191-183,335-128,251,97,271,413,48,613-37,33-51,92-77,138-2,36-43,71-64,106-4-34-116-73-112-101,11-81,51-16,88-235,12-25,6-31,74-55,46-82,93-167,118-257,4-14-125-97-143-83-77,59-136,141-199,217-14,16-14,44-23,76Z"/>
        <path class="cls-1" d="M5765,1205c12-54,29-118,11-126,56-5,125,7,124,127-1,71-57,13-119,126-72-5-117-5-115-127Z"/>
      </g>
    </g>
  </g>
</svg>