<?xml version="1.0" encoding="UTF-8"?>
<svg id="Layer_2" data-name="Layer 2" xmlns="http://www.w3.org/2000/svg" viewBox="0 0 2205 286">
  <defs>
    <style>
      .cls-1 {
        fill: #000;
      }

      .cls-1, .cls-2 {
        stroke-width: 0px;
      }

      .cls-2 {
        fill: #fff;
      }
    </style>
  </defs>
  <g id="Layer_1-2" data-name="Layer 1">
    <g>
      <path class="cls-1" d="M2205,2819c-11,0-21,0-3,0-12-1-24-1-36-1-22,0-43,0-65,1-2,0-39,0-59,1-18,0-36,0-54,2-16,0-31,2-47,4-3,5-6,5-9,5-35,0-7,0-105,0-15,0-29,0-44,0-1,0-19,2-29,1-24,0-47-2-71-2-23,0-46,0-69,0-66,1-131,3-197,5-5,1-1,3-15,3-64,0-128,0-192,0-34,0-68,0-102-1-47-1-94-3-141-4-65,0-131-1-196,2-8,0-16,2-24,3-15,1-29,2-44,3-23,0-46,0-69,0-26,0-53,0-79,1-5,3-101,2-151,1-18,0-36,2-54,4-5,0-9,1-14,0-1,0-19,1-28,5-6,2-14,2-21,3-9,0-17,1-27,2-4-3-6-8-7-15-3-59,0-118,3-177,1-36,3-71,3-107,0-69,0-137-2-206,0-3-3-59-5-89,0-15-1-29-1-44-1-58-3-116,0-174,3-56,0-111-2-167-2-4-2-8-2-12,0-41,3-82,0-123-3-62-3-124-3-186,0-48,0-96,0-144,0-34,0-67,0-101,0-32-2-65-4-97-1-35-2-71,0-106,3-39,8-78,1-116,2-49,3-99,3-148,0-36-1-73-1-109,0-24,2-48,2-72,0-33,0-65-2-98-1-4-3-81-5-121-2-49-5-97-5-146,0-33-1-65-2-98C2,69,0,39,0,1,0,7,0,4,0,0c6,2,1,3,15,4,5,0,1,0,15,2,21,7,42,6,63,5,16,0,33,0,49,0,34,0,68,1,102,2,22,0,44,1,66,1,22,0,45,0,67,0,11,0,23,1,34,1,15,0,3,0,45,0,19,0,37-1,56,2,16,3,34,0,51,0,33-1,66-3,99-4,25,0,51-2,76-2,16,0,32,0,48,0,67,0,134,1,201-2,26-1,53,0,79,0,13,0,25-1,38-2,38-1,77-2,115-3,15,0,3-2,45-2,26,0,52,0,78,0,39,0,78,1,117,0,41-2,83,0,124,2,27,0,55,2,82,2,3,0,59-2,89-3,13,0,27,0,4,0,12,0,25-1,37-2,13,0,25,0,38,0,28,0,56,1,84,1,12,0,23-1,35,0,2,0,39,3,59,4,12,0,25,1,37,1,15,0,29,0,44-1,7,0,14-2,21-3,5,0,9-1,14,0,5,0,7,3,6,8,0,17-1,35-2,52,0,14-2,28-2,42,0,8,0,16,2,24,3,22,5,44,3,67-3,31-1,63,1,94,1,15,4,3,5,45,0,13,0,26,0,39,0,13-1,27-2,4-1,22-4,45-4,67,0,37,0,75,0,112,0,14-1,27,0,41,1,22,4,44,6,67,2,22,3,44,4,66,1,5,1,99,2,149,1,48,3,96,4,144,0,29,0,59,0,88,0,35,0,7,1,105,0,23,2,47,3,7,0,12,0,25,1,37,1,45,3,89,4,134,0,21,0,43,0,64,0,19,1,39,2,58,0,32,0,65,0,97,0,24,0,49,0,73,0,29,0,59,0,88,0,15-1,29-2,44,0,15-1,31-1,46,0,44,2,89,2,133,0,42-1,85-2,127-1,5-3,99-4,149,0,25,0,5,0,75,0,44,2,89,3,133,0,13-2,25-2,38,0,19,0,39,1,58,0,9,1,18,0,27-2,2,4,39,5,59,0,1,2,2,4,31,0,8,2,16,3,24,0,3,1,6,2,1ZM19,2853c11,0,19,0,28,0,8,0,15-2,22-4,6-2,13-3,19-4,6,0,11,0,17,0,25-2,5-4,76-3,26,0,53,1,79,1,31,0,61-2,92-2,5,0,11,0,16,0,23,0,46,0,69-1,22,0,44,0,66-2,36-4,71-5,107-5,56,0,113,0,169,0,29,0,59,3,88,3,69,1,138,2,207,2,54,0,108-1,162-2,65-1,131-3,196-4,23,0,45,0,68-2,31-3,61-3,92,0,21,1,41,2,62,2,3,0,61-2,91-2,3,0,59,0,89,0,22,0,45,0,67-3,26-3,53-6,8-7,13,0,26-1,39-2,17,0,33-1,5,0,23,0,47,0,7-1,13-1,27,0,4,0,6,0,12,0,18,0,0-3,0-4,0-6-2-22-4-44-7-66-2-18-4-35-3-53,0-6,0-12,0-18,0-2-2-4-2-6,0-11,3-22,3-33,0-47-2-94-3-141-1-6,0-119,3-179,2-5,3-101,4-151,0-26,0-52,0-78,0-35-2-69-2-104,0-36,3-71,3-107,0-23-2-45-2-68,0-39,1-78,1-117,0-34,0-68-2-102-1-49-3-98-5-147,0-25-2-51-3-76,0-18-2-36-2-54,0-43,0-87-1-13,0-19,0-37,0-56-1-49-3-98-4-147-1-51-2-101-3-152,0-31-2-62-6-93-2-13-3-26-4-39,0-14,0-29,0-43,0-39,0-79,0-118,0-22,3-45,4-67,0-1,0-21,1-31,4-22,0-43-2-65-5-38-6-76-4-114,1-27,2-55-3-82-1-5-1-11-1-16,0-29,1-59,2-88,0-9,0-1-1-9-7,0-14,3-21,3-19,0-37,1-56,2-5,0-11,0-16,0-18-2-36-4-54-5-22,0-45,0-67,0-23,0-45,0-68,0-8,0-17,0-25,0-16,0-31,3-47,2-31-2-61,2-92,1-26,0-53,0-79,0-47,0-94-3-141-3-45,0-91,0-136,0-24,0-47-2-71-2-19,0-38,1-57,2-38,1-77,2-115,3-23,0-46,2-69,2-23,0-46,0-69,0-39,0-79,2-118,2-29,0-59-1-88-1-31,0-63,1-94,2-44,2-88,4-132,5-11,0-21,0-32,0-7,0-14-2-21-2-18,0-37,0-55,0-1,0-21,0-31,0-19,0-38-3-57-2-2,1-41,0-61,0-12,0-24,0-36,0-28,0-57,0-85-1-26,0-53-2-79,0-16,1-32,0-47-5-8-2-17-2-26-3,0,9,0,18,0,26,0,22,1,44,2,66,0,5,0,1,0,15,0,14,1,28,2,42,0,22,0,44,0,66,0,15,2,29,2,44,0,17,0,33,0,5,1,36,3,73,5,109,0,13,0,25,0,38,0,41,1,82,1,123,0,42-1,83-1,125,0,13,2,25,2,38,0,3,0,61-2,91,0,27,0,53-4,8-4,39-8,79-1,119,0,13,0,26,0,39,1,3,3,6,4,9,0,33,1,65,1,98,0,51,0,103,0,154,0,19,0,38,0,57,0,43,1,86,2,129,0,19,2,39,2,58,0,28-2,57-2,85,0,55,2,109,3,164,0,34,2,69,2,103,0,18-2,37-2,55,0,59,0,118,0,177,0,18,2,36,3,54,1,24,3,47,3,71-1,54,0,107,0,161,0,9,0,18,0,27,0,21,0,43,0,64,0,22-2,45-3,67,0,21-2,42-3,63,0,18,0,35,0,53,0,16,2,31,3,47Z"/>
      <path class="cls-1" d="M965,564c0-11,0-22,0-34,0-2-1-39,0-59,0-7,2-14,4-22,0-3,2-6,2-9,0-6,2-9,8-11,5-2,9-6,14-9,3-2,6-2,9-3,8-1,16-2,24-3,9-1,16,2,2,1,6,1,11,21,17,31,2,4,4,8,7,12,12,2,23,4,35,59,4,7,9,13,15,2,2-3,3-5,4-7,4-9,7-19,13-27,14-23,22-49,34-72,6-12,11-23,18-34,5-7,1-14,18-18,1-5,16-2,19,8,1,5,2,11,3,17,4,27,7,53,11,8,3,23,6,47,1,7,5,33,1,66,16,99,2,11,5,23,8,34,7,27,14,53,21,8,2,6,4,12,6,18,5,15,7,3,4,46,0,3-3,7-6,9-1,6-19,11-31,13-6,0-11,4-17,6-2,0-6,2-7,0-5-4-1-2-15,0-2,0-4,2-7,2-6,2-1,0-11-7,0-6-1-13-2-19-1-21-1-41-3-62-2-28-6-56-9-83-2-13-6-25-8-38-2-11-3-22-4-33-1-11-4-22-9-34-1,2-2,3-2,4,0,15-6,27-11,4-4,9-9,18-13,27-1,3,0,6-1,9-2,12-5,13-15,8-17-7-29-2-4-33-8-9-16-19-25-27-6-6-14-1-22-17,0,14-1,26-2,38,0,8,0,17,0,25,0,9,1,18,2,27,1,15,4,3,4,45,0,23,8,44,13,66,5,21,1,43,14,64,0,0,0,2,0,4-2,0-3,0-5,0-7,0-15-1-22,0-14,1-28,4-41,6-1,1-17-5-17-15-2-28-3-56-5-85,0-11-2-22-3-35-3,1-4,2-5,3-7,6-15,11-22,17-4,3-7,7-8,12-2,9-4,18-6,27-1,4-3,8-5,12-7,9-15,17-23,25-2,2-4,4-7,4-9,0-17,6-25,9-8,3-16,4-24,0-9-4-19-8-28-13-17-8-26-24-33-4-6-14-12-27-18-41,0-1-1-2-3-5-2,14,3,25,4,37,1,12,2,24,3,36,0,12,1,24,2,37-9,3-17,9-27,9-3,0-6,1-9,2-12,3-24,6-36,9-12,3-16,0-16-13-1-25-4-49-9-73-4-19-6-37-1-56-1-8-4-16-6-24-1-6-4-9-1-8-14,2-27,5-41,8-4,0-6,5-7,9-3,11-2,22-2,33,0,5,0,11,0,16,0,24,0,49,7,72,2,8,3,16,4,25-16,7-32,13-5,12-13,0-25-1-38-2-9,0-11-3-12-12,0-14-1-28-2-42-2-24-4-48-5-73-1-19-2-39-4-58-3-45-5-89-9-134-1-17-6-33-9-5-2-1-5-19-7-29,0-3-1-6-2-11,1-3,19-7,29-9,15-4,31-6,46-1,8-2,15,2,22,6,1,0,2,3,2,5,5,27,6,55,8,82,1,12,3,23,4,35,2,16,3,32,6,48,0,6,2,11,4,16,2,4,5,8,1,7,12-2,25,0,36-6,2,0,3-1,4-2,0-1,0-19,0-28-3-46-7-92-11-137,0-5,0-1,0-15,1-1,8-16,17-19,11-4,23-7,35-1,9-2,18-3,28-3,8,0,11,3,11,11,2,22,4,44,6,66,0,4,0,9,0,13,0,22,4,44,7,66,1,0,2,0,3-1,6-12,16-21,26-3,4-3,6-7,7-11,2-11,7-2,15-29,3-3,5-8,8-12,7-1,13-2,2-3,11-14,28-17,45-19,5,0,1,2,14,4,14,7,25,18,36,29,4,4,5,9,8,14,2,3,3,7,3,1,2,11,8,18,17,25,6,5,11,12,17,18ZM1106,549c0,4,0,7,5,9-2-3-4-6-6-9-1-2-2-5-3-7,0,0-1,0-2,1,2,2,4,4,5,6ZM681,743l-4-17c-1,6,0,12,4,17,0,3,0,6-1,9,0,0,0,0,1,0,0-3,0-6,0-9ZM1237,566c3,13,6,26,8,39,0-7,0-13,0-2-1-7-2-14-8-19q1-7-2-11c0,4,1,7,2,11ZM783,73c-2-4-5-7-8-12,0,12,0,12,8,12,3,4,6,9,1,13,11,1,23,18,37,23,12,4,24,6,36,4,28-3,51-17,73-33,6-4,4-1,3-17-4,4-7,7-9,1-1,12-24,19-38,25-17,6-33,5-5,0-9-3-17-8-25-11-24-1-38-29-43-54,0-4-2-9-3-13-2,11-1,21,2,32,2,7,5,15,7,22ZM79,594c-3,5-6,11-9,16-2,4-5,9-5,14,0,1,0,2,0,31,4-9,6-18,8-26,2-9,7-16,14-23-4,7-8,13-1,19-2,6-3,12-5,17-1,25-4,49,7,72,3,7,9,13,16,16,11,6,21,11,32,17,15,8,3,8,46,6,15-2,27-1,38-19,14-12,23-26,22-45,0-11-2-22-2-33,0-22-6-43-11-64-6-2-18-32-41-33-14,0-28-2-43-3,0,0,0,0,0,0h49c-4-2-7-3-9-5-8-6-17-6-26-3-6,2-12,3-18,5-2,0-4,2-6,3-3,2-7,4-1,6-4,2-1,2-12,8-2-4-5-2-7,0-1,7-2,14-28,24-4,5-5,1-4,16,5-6,9-11,13-16ZM124,855c1-3,19-6,27-9,11-4,12-5,9-17,0,0,0-1,0-2-8-3-11-6-12-91,0-2,0-5,0-7-2-16-5-32-6-49-2-15-5-29-9-43-3-1-5-21-7-32-2-11-4-23-6-34-5-2-9-4-9-61,0-6,0-11-2-17-2-14-5-29-7-43-2-13-6-25-11-37-9,2-14,8-18,15-11,2-19,41-27,62-5,16-12,32-19,48-3,6-6,12-6,19,0,4-2,8-4,11,0,2-4,3-6,3-18-4-33-13-41-31-5-11-1-21-17-3-8-1-14-21-26-27-3-2-6-6-8-9-7-8-13-16-2-24-6-7-13-7-22-5-8,2-12,8-13,15,0,6,0,12,0,18,0,5,1,9,2,14,2,36,4,72,6,109,0,9,2,18,5,27,7,24,11,49,9,74,0,1-3,2-9,28-2,3-3,7-3,11,0,2,2,39,3,59,2,18,4,35,6,52,2,12,5,15,17,15,1,0,2-1,3-2,5,0,6-4,5-8-2-11-3-22-5-34-2-12-6-23-7-35,0-13-2-26-4-4-4-31-6-62-9-94,0-13,0-26,0-39,0-12,7-18,13-25,7-7,16-5,19,4,2,6,6,1,11,14,3,3,7,5,1,9,14,16,32,27,51,37,4,2,6,1,9-2,1-2,3-4,4-6,4-11,8-21,12-32,4-1,7-2,12-3,3-6,7-1,1-16,3,1,5,3,6,3,6-1,7,3,8,7,0,2,1,4,2,7,0,1,1,2,3,3,1,8,3,16,5,23,2,9,6,18,8,27,2,15,3,3,4,45,0,6,2,12,3,19,2,1,4,2,6,29,3,27,7,55,15,81,1,4,2,9,4,15ZM536,865c8-1,15-3,22-4,6,0,13-4,2-2,8,2,1,0,1-9,0-5,0-1,0-15,0-1,0-19,0-29,0-8-2-15-2-23,0-12-1-25-2-37,0-1,0-21,0-31,0-6,4-1,1-12,6-2,13-4,19-6,21-7,42-8,64-6,0,3,2,7,2,11,4,46,13,92,21,137,3,18,5,19,24,17,0,0,0,0,0,0,14,0,24-6,36-14-2-8-4-15-6-23-2-6-4-12-6-18-9-32-1-66-14-99-2-17-3-34-5-51-2-21-4-41-5-62-1-18-1-37-3-55-2-19-5-37-8-55-1-7-2-14-6-2-6,2-11,3-16,4-3,0-6,2-8,1-6-2-11,0-16,2-7,2-7,4-6,11,1,12,2,24,3,36,2,24,2,47,5,71,2,17,3,34,2,51,0,9,0,17,0,26,0,1,0,2-1,4-3,0-6,0-9,0-2,2-4,3-61,5-4,0-7,0-1-3-7-8-11-17-12-28-4-4-8-81-13-121-1-1-4-2-6-3,0-5-3-7-8-7-15,2-3,4-45,6-9,2-1,4-1,12,0,7,0,13,0,2,4,27,8,55,12,82,2,11,4,22,4,33,0,15,0,29,0,44,0,18,4,35,4,53,0,34,2,67,9,1,2,9,4,19,6,3ZM937,776c-8,2-14,4-2,4-18,2-35,4-53,4-11,0-22,0-33-3-16-4-32-9-45-19,0,0-2,0-3,0,8,19,14,38,25,56,9,16,22,22,39,23,2,2,38-3,54-15,17-13,28-29,36-51ZM801,545c0,0,2,0,3,0,21-12,44-2,67-25,6-1,11-2,17,0,8,3,17,4,26,5-2-16-9-28-16-4-3-6-1-11-18-12-12-2-22,2-31,8-24,15-38,38-48,63,0,0,0,0,0,1ZM955,721c1,0,2,0,3,0,6-8,14-15,15-26,0-15,0-31-4-46-4-15-7-3-11-46,0-4-2-8-3-11-2-4-4-9-1-1,0,2,0,3,0,3,3,18,7,36,9,54,1,8,3,17,3,26,0,13,0,25,0,38,0,6,0,11,0,17ZM1013,428c4,5,7,9,1,13,8,11,15,23,24,33,13,12,23,26,34,4,2,2,4,4,6,6,0-6-2-1-4-15-14-27-31-52-53-74-6-6-9-6-18-3ZM1284,838c1,0,11,0,1-8-2-12-6-24-9-36-4-19-9-38-13-57,0-2-1-5-2-7-1,37,3,73,14,108ZM656,551c0,0-2,0-3,0,0,4,0,7,0,11,3,26,5,52,8,77,0,6,1,12-2,18-13,0-26,3-38,9,3,1,5,2,8,1,1-1,2-3,31-4,9-1,1-3,9-12-1-2-3-39-4-59,0-14-5-28-8-42ZM663,565c0,0,1,0,2,0,0-18-1-36-3-55,0-9-2-18-3-27-1-12,2-18,13-23,8-4,16-7,26-6,7,0,14-2,19-9-9,2-17,3-25,5-9,2-17,5-26,7-11,3-12,3-12,14,0,17,2,35,2,52,0,15,4,28,7,42ZM607,864c0,0,1,0,2,0,0-2,0-4,0-7-2-13-5-26-7-39-2-11-4-23-5-34-1-18-1-36-2-55,0-4,2-8,2-12,0-2,1-4,2-6-6,0-9,2-1,7,0,4,0,8,0,12,0,19,0,38,1,57,0,9,2,18,4,28,2,11,5,22,8,33,1,5,2,11,4,16ZM1214,748c0,0-1,0-2,0,0,9,1,18,2,28,0,9,0,19,0,28,0,9,3,18,5,27,2,9,4,18,6,28,3,0,6-2,8-2-7-37-13-72-2-108ZM54,87c3,5,7,5,12,6,15,0,3-4,44-8,4-1,6-4,5-7-2-12-4-24-6-35,0,0,0,0-2-2,0,5,0,8,0,12,0,7,0,15,0,22,0,7-4,8-1,8-2,0-4,0-6,0-12-1-23,2-35,6ZM1234,525c0,0,1,0,2,0,0-5-1-1-2-14-2-12-3-23-5-35-3-24-7-47-1-71,0-4,0-8-5-1,3,22,5,43,9,65,3,22,8,44,11,65ZM1065,87c0,0,1,0,2-1,1-11-12-74-18-79,0,3,0,5,0,7,3,16,6,31,8,47,1,7,2,14,4,2,0,2,2,4,4,6ZM751,615c4-8,9-15,13-23,4-8,12-14,13-24-19,1-33,34-26,47ZM1095,648v2c9,12,19,24,35,3,3,1,7,2,8,0,2-2,2-5,3-9-11,0-19-4-26-1-7-5-13-1-2-14ZM943,741c-18,1-35,2-52,29,2,0,3,0,4,0,17-3,31-1,46-19,4-2,4-6,2-1ZM1207,769c5-22-5-91-11-107,4,36,7,71,11,107ZM975,522h-3c0,17,1,35,2,52,0,4,2,8,7,1,1-22-2-42-6-63ZM1183,585c-1,0-2,0-3,0,0,2-2,4-2,6,0,4,2,7,2,11,2,13,5,25,7,38,1,8,2,16,4,23,4-27-4-52-8-77ZM501,485v2c23-5,47-5,71-14-3-1-4-3-5-3-21,4-41,8-62,12-2,0-3,2-5,3ZM887,549c12,5,24,11,36,16,0-9-1-13-8-16-9-3-18-4-28,0ZM772,822c0-27-8-78-14-85,5,28,9,57,14,85ZM904,834c18-4,32-23,3-36-5,6-9,12-14,17-5,6-1,11-16,19ZM748,741c-1,19,4,49,9,6,0-13,0-27-3-4,0-7-4-13-6-19ZM773,856c-13,1-25,3-37,11,21,0,31-3,37-11ZM972,716c-5,4-1,8-15,13-3,3-4,8-3,14,1-7,18-15,18-26ZM929,53c0-18-6-29-16-35,2,13,1,24,16,35ZM755,646c2-9,4-15,6-22,2-6,6-12,5-21-9,14-15,26-1,43ZM964,585c-7-13-13-24-25-31,0,4,0,8,3,1,7,7,14,13,22,21ZM992,641c-3,15-2,49,1,56,3-19-1-37-1-56ZM972,653c1-25,0-31-1-39,4,14,7,26,1,39ZM74,61h3c0-17-4-34-5-5,0,0-1,0-2,0,1,17,3,33,4,5ZM1103,643c11,14,25,23,34,2-12-7-23-13-34-2ZM731,877c0,0,0-2,0-3-5,1-11,2-16,3-8,1-1,0-13-6,0-1-2-3-4-6,0,5,0,8,0,11,0,4,3,6,7,6,9-1,18-3,27-5ZM1084,526c4,13,8,23,18,3-3-9-6-17-11-26,0-2-3-2-7-5ZM722,457c0,0-2,0-3,0,3,16,6,32,9,49,2-17-2-33-6-49ZM948,576c4,6,7,12,11,19,4,6,5,13,11,18-4-14-9-27-22-37ZM603,744v48c6-16,0-32,0-48ZM761,689v-44c-3,15-7,29,0,44ZM991,724c5-9,8-18,7-28-2,9-9,17-7,28ZM1152,644c9-12,14-28,12-38-4,13-8,24-12,38ZM766,833c2-13-1-29-6-35,2,12,4,23,6,35ZM1259,855c0,0,0,1,0,2,6,0,11-1,17-2,4,0,4-4,2-7-6,2-11,4-17,6,0,0-1,1-2,2ZM1047,597c0,9,5,13,15,16-1-8-9-1-15-16ZM526,832c-2,16,0,26,4,31-1-1-3-2-4-31ZM88,527c0,0,0,2,0,2,9,1,17,2,26,4-8-6-16-7-25-6ZM1034,422c0,0-2,1-3,2,5,6,1,12,15,18-2-9-5-16-12-2ZM977,727c-6,4-8,1-8,18,8-4,1-9,8-18ZM525,474c8-1,17,0,25-5-9,0-17,0-25,5ZM868,779c-11,0-22-2-32-2,0,0,0,1,0,2,11,2,22,2,33,0ZM844,55c9-1,16-2,23-7-1-2-16,0-23,7ZM571,496c4-15,3-17-5-15,1,5,3,9,5,15ZM793,559l18-13c0,0,0-1-1-2-6,4-14,5-16,14ZM1212,849c0,0-1,0-2,0,0,5,1,1,2,15,0,0,2,2,4,2,0-1,2-3,2-4-2-5-4-9-6-14ZM84,546c-8,1-12,3-19,9,11-2,14-4,19-9ZM766,687c0,9-2,18,0,26,0,0,2,0,2,0-1-9-2-17-3-26ZM976,438c9,1,14-5,21-6-8-2-14,0-21,6ZM746,719c2,6,4,13,6,19,2-8,0-15-6-19ZM852,529c0,0,0,2,0,3,5-4,12,0,16-7-5,2-11,3-16,5ZM97,477s0,0-1,0v29h1v-29ZM635,706c0,0,0-1,0-2-6,0-12-2-17,4,6,0,12-1,17-2ZM1035,675s0,0,1,0v-22s0,0-1,0v21ZM977,489c0,0-1,0-2,0,0,6,1,12,2,18,0,0,0,0,0,0v-18ZM689,463c0,0,0,2,0,3,4-2,9-3,13-5,0,0,0-2,0-2-5,2-9,3-14,5ZM649,473h-2v12c0,0,1,0,2,0v-12ZM582,584c0,0-1,0-2,0,0,5,1,1,2,16,0,0,1,0,2,0,0-5-1-1-2-16ZM766,633c0,0,1,0,2,0,0-6,1-11,2-17,0,0-1,0-2,0,0,6-1,11-2,17ZM581,542c0,0-1,0-2,0,0,5,2,1,3,16,0,0,1,0,2,0,0-5-1-1-2-16ZM994,867q3,1,1,8c-3-3-6-5-1-8ZM683,763c0,0,0,0,0,0,0,5,1,11,2,16,0,0,1,0,2,0,0-5-2-11-3-17ZM721,87c0,0,0-1,0-2-4,0-9,0-13,0,5,5,9,3,13,1ZM1131,538c0,0-2,0-2,0-1,5-3,9-4,14,0,0,2,0,3,0,1-5,3-9,4-14ZM1038,698c0,0-2,0-2,0,0,4,2,8,2,12,0,0,1,0,2,0,0-4-1-8-2-12ZM824,771c-5-2-9-4-12-6,0,0,0,1,0,2,3,3,6,6,13,4ZM594,643c0,0-2,0-2,0,0,4,1,8,2,11,0,0,2,0,3,0l-3-11ZM1215,83c0,0-2,0-2,0,0,4,2,8,3,12,0,0,2,0,2,0l-3-11ZM941,764q-7,0-1,4c4-2,7-3,1-4ZM1014,442c0,0,2-2,2-3-2-1-4-3-6-4,0,0-2,2-2,2,1,2,3,3,5,5ZM591,874v2c5,0,9-2,13-2,0,0,0-1,0-2-4,0-8,2-12,2ZM1286,774h-1c0,4,1,8,2,11,0,0,1,0,2,0,0-3-2-7-3-1ZM746,623c-1,0-2,0-3,0,0,3,0,7,1,1,0,0,2,0,2,0,0-4,0-7,0-11ZM1036,609q-3,7-2,13c0-5,0-8,2-13ZM1209,788s0,0,0,0v-9s0,0,0,0v9ZM496,479c-5,0-8,2-6,7,2-2,4-4,6-7ZM733,479c0,0-1,0-2,0,0,3,0,6,1,9,0,0,0,0,1,0v-9ZM731,459c0,0-2,0-2,0,0,3,1,5,2,8,0,0,0,0,1,0,0-3,0-5-1-8ZM526,872c3,2,5,2,8,4-1-5-3-7-8-4ZM1,44c0,0,0-1,0-2-2,0-4,0-6,0,0,0,0,1,0,2,2,0,4,0,6,0ZM998,666s0,0,0,0v7s0,0,1,0v-7ZM795,572c0,0,1,0,2,1,1-2,3-3,4-5h-1c-1,0-3,2-4,4ZM79,755c0,0-1,2-2,2,2,1,3,3,5,4,0,0,1-1,2-2-2-2-3-3-5-5ZM511,633s0,0,1,0c0-2,0-4,0-6,0,0,0,0,0,0,0,2,0,4,0,6ZM573,881s0,0,0,0h5s0,0,0,0h-5ZM745,681s0,0,1,0v-5s-1,0-1,0c0,2,0,3,0,5ZM828,538s0,0,0-1l-4,2s0,0,0,1c1,0,3-1,4-2Z"/>
      <path class="cls-1" d="M1126,1215c2,1,4,2,6,3,18,17,37,34,54,52,19,21,36,44,53,67,19,25,37,52,54,78,7,1,12,21,18,31,6,9,11,18,18,26,6,8,11,17,12,28-26,6-52,4-77,7,0,2,0,4,0,6,8,77,6,154,5,232,0,24,0,47,0,71,0,15,0,3,1,45,0,7,1,13,2,2,0,5-2,7-7,7-6,0-13,0-19,2-1,4-2,3-3,4-25,2-51,2-76,3-52,2-105-1-157,4-37,4-74,3-111,5-26,2-52,3-78,4-16,0-22-4-23-2-2-22-2-45-3-67,0-13-2-25-2-38,0-27-2-54-2-81,0-22,0-44,0-66,0-39,0-77,0-116,0-5,0-9,0-15-5,0-9,0-13,0-15,1-31,2-46,4-11,1-2-1-3-6-3-2-4-4-3-7,3-6,6-13,11-19,8-9,16-17,25-24,28-21,5-46,72-73,41-51,82-102,123-154,19-24,38-48,55-72,12-17,21-35,31-52,2-3,3-6,5-1,5,5,1,8,14,13,23,31,54,54,84,78,5,4,1,9,15,14h0c-3-1-6-2-9-3,33,3,64,59,96,89-3-4-6-9-9-12-18-17-35-34-53-52-2-2-4-5-6-8,0,0,0,0,0,0ZM889,1275c6-8,12-16,18-24,3-5,7-9,1-14,0,0-1-1-2-2-11,14-22,28-32,42,0,0,0,0,0,0,2-1,4-2,6-3q3,2,5-2c-2,0-3,2-5,2ZM952,1192c-6,7-12,13-15,22,6-7,12-13,15-22,8-8,24-41,24-5-1,1-3,3-3,4-7,13-14,26-2,4,0,2,0,5,0,7ZM804,19h-9s0,0,0,0c3,0,6,0,9,0,9,0,17-1,26-2,51-3,102-7,153-1,18-1,36-1,54-2,3,0,7,1,9-4-3,0-5-1-8-1-19,0-37,1-56,3-24,1-47,3-71,5-31,2-61,4-92,7-5,0-1,3-15,4ZM855,1326c-7,1-15,2-22,29-1,2-2,3-3,5,34-28,104-11,113-144-4,4-7,9-1,13-19,25-39,51-58,76-6,7-13,14-2,21,2-3,3-6,5-8,8-1,16-2,25-3,1-2,2-4,3-6-14,14-27,29-4,43-13,15-27,29-4,44-13,14-29,25-4,42,2,0,3,0,4-1,16-12,32-24,45-4,11-14,22-26,33-4,1-2,3-3,5-5ZM8,1366c-2,2-5,5-7,7h2c2-1,3-4,5-7,1,0,3-1,4-2,14-15,28-3,41-46,27-33,53-67,8-1,1-12,2-24,27-38,0-2,1-4,2-6-3,1-4,3-6,5-21,28-43,55-64,83-25,32-51,64-77,96-2,3-4,7-6,1ZM1248,1372c2,2,4,3,6,5,8,1,16,19,24,29,1,2,3,3,5,4-1-5-4-9-7-14-25-38-54-74-84-108-2-2-4-4-6-5,0,0,0,0,0,0,0,0,0,0,0,1,19,26,38,52,57,78,2,3,4,7,6,1-2-1-3-2-4-4-12-16-24-31-35-47-13-18-26-36-4-54-12-16-29-28-44-41-8-7-17-14-25-21,15,18,32,34,48,51,23,23,45,48,63,75,15,23,32,44,5,65,7,8,14,15,21,23l2-2c-7-9-14-17-21-26-5-6-1-13-15-2ZM132,1487s0,0,1-1c0-2-2-4-3-6-14-28-35-52-58-74-2-19-4-38-59-58-24-24-47-49-69-73-2-22-4-45-59-68-22-26-43-52-65-77-2-2-4-4-6-6-2,3-4,5-5,7-7,12-14,23-22,35-5,9-11,18-15,27-7,14-14,29-21,43-14,25-31,47-49,68-2,23-4,45-63,66-11,1-22,2-33,31-1,9-19,19-29,29-15,14-31,28-46,42-9,9-17,19-26,29,7,5,13,4,18,3,32-4,64-7,95-11,27-3,55-8,82-1,69-5,139-8,209-7,31,0,63,0,94,0,36,0,72,3,109,5,3,0,7,2,1,3,3,1,7,3,1,5ZM793,1518c0,1,0,19,2,27,2,14,1,27,0,41-2,19-4,38-5,57,0,17,0,33-2,5-1,28-3,57-3,85,0,36-3,73,0,109,0,3,0,5,1,8,43-4,85-8,128-11,43-3,86-5,129-7,0-2,0-3,0-5,0-3,0-5,0-8-6-31-6-62-3-94,2-28,4-56,6-85,0-7,1-14,3-21,1-8,6-12,14-14,13-2,25-5,38-5,15,0,31-2,46-2,27,0,54,0,81,0,6,76,3,151,12,226,2,0,2,0,3,0,16-4,16-4,15-2,0-29-1-58-2-87,0-27-2-54-2-81,0-26,0-52,0-78,0-13,0-25,0-38,0-12,0-24,0-36,0-3,0-6,0-9-11,0-21,0-32,0-45,0-91,1-136,1-44,0-87-2-131-2-37,0-74,0-111-2-16,0-33,0-5,0ZM1227,1864c-2-3-4-6-6-89-2-28-4-56-6-84,0-1-1-21-1-31,0-6-3-9-9-1-12,0-23-3-35-2-23,2-46,5-69,5-12,0-25,0-35,8-4,3-7,5-8,1-1,9-3,17-4,26,0,35,0,69-2,104,0,25,5,49,14,73,54,0,107,0,161-11ZM1244,1386c0,0,1-1,2-2-2-3-4-5-6-8-9-12-18-23-26-35-18-28-41-54-64-78-29-3-59-6-88-9-12-12-25-22-39-31,69,86,142,167,222,244ZM774,1504c15,0,28,0,42,0,38-1,77-3,115-4,36,0,72,0,108,0,43,0,86,0,129,0,21,0,43,0,64,0,0,0,0-1,0-2-14-1-28-3-42-4-39-1-77-3-116-3-57,0-114,0-172,2-28,0-57,2-85,3-12,0-24,2-36,3-3,0-7,0-8,5ZM131,1491c0-1,0-2,0-3-4-1-7-3-11-4-13-1-27-2-4-3-39-3-77-4-116-3-32,0-64-1-96,0-46,0-93,3-139,5-8,0-17,1-25,2-8,0-16,2-23,3,15,0,299-6,449,4ZM778,1836c0,0,2,0,3,0,0-3,0-6,0-9,1-44,3-88,4-133,0-13,0-25,1-38,1-22,0-44,4-66,3-21,2-42,0-64,0-1,0-2-1-4-2,4-3,9-3,13,0,38-5,76-1,113-2,14-4,27-2,41,1,13,1,27,2,4,0,32,1,63,2,95,0,4,0,8,1,11ZM801,1905s0,0,0,0c6,0,11,0,17,0,31-1,63-3,94-5,2-1,4-2,6-3,27-1,55-3,82-4,43-1,87-1,13-2,14,0,29-2,43-4,3,0,5-2,7-4,0,0,0-4-1-4-3,0-6,0-8,0-4,0-7,3-11,3-33,3-66,5-1,5-17,0-33,0-5,0-42,2-85,4-127,6-45,3-91,6-136,1ZM925,1512c0,0,0,1,0,2,24,0,47,2,71,1,42,0,84-3,126-3,3,0,59,1,89,2,1,0,21,0,31,0,2,0,5-1,7-2-1-2-2-2-3-2-19,0-39-2-58-2-36,0-72,1-108,2-38,0-76,1-114,2-14,0-27,0-41,0ZM769,164c1,0,2,0,3,0,6-43,1-87,1-132-3,0-5,0-9,0,0,5,0,1,0,14,0,15,0,29-1,44,0,24-2,48-3,73ZM859,151c75,0,15-1,225-2-75-3-15-6-225,2ZM126,1844c4-26,0-189-3-222-2,23-2,43,0,64,1,27,1,55,2,82,0,26,1,51,2,77ZM1266,1576c0,0-2,0-3,0,0,48,1,95,2,143,1-24,2-47,2-71,0-24-1-48-2-72ZM1225,1774c3-31,0-82-6-94-1,32,3,63,6,94ZM1049,1874c3-29-6-57-8-85-2,29,0,57,8,85ZM779,1411c0,0-1-1-2-2-6,5-12,9-18,14-6,5-12,1-18,16-6,5-11,11-16,16-5,5-12,9-14,17,23-2,45-41,68-61ZM1266,1876c-8-3-15,1-22,2-6,0-7,3-2,9,6,0,12-2,19-2,4,0,8-2,6-8ZM112,1879c22,5,44,5,66,0h-66ZM1166,1518c-26-3-51-4-77,0h77ZM126,1568v-39c-5,13-2,26,0,39ZM998,1114c-9,7-1,16-13,25,9-9,13-17,13-25ZM1098,1882c-11,0-23-3-34,3,11,0,22-2,34-3ZM1265,1501c8,3,14,3,26,0-9,0-17-4-26,0ZM1094,165c0,0,0,1,0,2,5,0,9,0,14-1,5,0,1,0,15-1-1,0-19-3-29,0ZM1115,1503s0,0,0,0h26s0,0,0,0h-26ZM1205,1871s0,0,0,1h21s0,0,0-1h-21ZM761,1504c0,0,0-2,0-2-6,0-12,1-18,2,0,0,0,0,0,0h18ZM1048,1721h-1v13h0c0-4,0-9,0-13ZM778,1857c0,0,1,0,2,0v-7c-2,0-2,0-3,0,0,2,0,5,0,7ZM1257,1502s0,0,0-1h-13s0,0,0,1h13ZM779,1891s0,0,1,0c0-2,0-4,0-5h0v6ZM704,1469s0,0,0,0c1-1,2-3,3-4,0,0,0,0,0,0-1,1-2,3-4,4ZM1061,1657c0,0,0,1,0,2,1,0,3-1,4-2,0,0,0-1,0-1-1,0-3,0-4,1ZM1091,1189s0,0,0,1c1,1,2,2,4,3,0,0,0,0,0-1-1-1-2-2-4-3ZM1229,1832s0,0,0,0c0-1,0-2,0-4,0,0,0,0,0,0v4ZM1314,1499h0c-2-1-4-1-6-1,0,0,0,0,0,0,2,0,4,0,6,0Z"/>
      <path class="cls-1" d="M1581,877c-15-2-3,0-45,3-39,6-77,12-116,7-9-1-19,0-28,0-12,0-24-2-35-7-4-2-7-5-8-1-2-12-5-24-7-36,0-4,0-9-3-13-9-18-1-37-8-56,3-29,1-57-4-85-3-18-6-36-8-54-2-19-3-37-4-56,0-12,0-24,2-36,4-24,3-48,0-72,0-8-2-17-2-25,0-9,3-18,6-27,2-5,7-8,13-1,2-7,41-1,62-14,31-6,62-1,93-15,8-1,16-2,24-4,18-4,36-3,55-4,13,0,17,4,18,16,0,4,2,8,3,12,3,11,6,21,8,32,1,6,0,9-7,1-23,4-46,12-69,14-25,2-5,6-75,1-3,0-6,1-9,2-8,3-13,8-14,17,0,5,0,1-1,15-1,25-3,5-3,75,0,12,2,24,3,37,0,5,4,6,8,6,22,1,44-1,66-4,11-1,21-2,32-3,7,0,11,2,15,9,7,15,1,31,1,47,0,13-4,18-17,2-23,3-45,8-68,11-1,1-19,2-29,3-11,2-12,3-13,14-1,21-2,42-3,63,0,7,2,14,3,21,0,5,3,7,8,8,12,0,24,2,36,1,21-2,42-5,63-7,17-1,33-2,5-2,17,0,34,0,51,0,14,0,15,0,16,14,2,15,4,3,0,45,0,4-2,7-3,11-2,4-5,7-1,8-14,3-27,9-41,9-5,0-9,0-15,0ZM1421,806c0-2,0-4,0-6-2-15-3-3-5-45-3-18-5-36-4-55,0-5,2-9,7-11,8-3,15-6,24-8,11-2,23,0,34-3,18-3,35-7,53-11,16-4,18-5,14-24,0,0,0-2,0-3-4-1-1-17-22-18-26-1-52-2-78-4-11,0-22-2-34-3,8-15,5-28,3-42-1-9-2-17-2-26,0-1-2-21-2-31,0-7,0-14,0-21,2-13,5-25,7-39,7-8,18-1,3-1,3,0,5,0,8-1,22-3,44-7,66-1,19-2,38-3,58-5,11-1,13-4,1-14,0-1,0-3-1-4-4-11-9-22-13-33-5,0-11,0-17,0-28,1-57,1-85,4-27,2-53,7-79,11-13,2-26,5-38,7-5,1-8,4-9,9,0,2,0,5-1,7-2,17-4,34-6,51,0,3,0,7,0,1,0,1,0,19,0,29,0,9,1,17,2,26,0,14,2,28,2,42,0,13,0,27,2,4,2,24,4,48,6,73,1,15,3,3,4,45,0,9,2,19,3,28,2,18,3,35,4,53,0,12,5,23,3,36-1,7,4,13,12,15,17,4,34,7,51,3,4,0,7,0,11-1,6,0,11,0,17,0,21-2,41-7,62-3,21,3,4-1,6-7,7-2,14-2,21-1,8,0,16,0,24,0,9,0,11-5,1-14,0-8-2-17-3-25,0-5-4-1-9-11-5-1-1-3-16-2-7,0-15,2-22,3-32,5-64,6-96,3-7,0-14,0-21,0-14,1-28,3-42-3ZM1623,801c3,6,5,1,7,15,2,8,3,17,4,26,2,11-3,18-14,18-1,0-19,0-29,0-5,0-9,0-14,1-19,4-37,11-57,8-16-2-31-2-47,0-3,0-6,1-1,2,0,0,0,2,0,2,8,0,16,0,24,0,1,0,21,0,31,0,6,0,11,0,17,0,26-3,52-6,78-9,6,0,12-1,18-3,2,0,6-2,7-4,3-6,6-12,6-18,0-12-3-23-8-34-3-6-7-8-13-7ZM1513,877c-9,0-18,0-27,0-7,0-13,0-2,0-1,0-21-1-31-1-17,0-33,0-5,1-4,0-7,0-11,0-11,0-18-11-19-19-2-12-3-24-5-37-1-9-4-19-5-28-1-7-3-14-4-21,0-6-1-13-2-19-2,1-2,3-2,4,0,37,8,73,17,109,2,8,7,14,15,15,7,1,14,2,22,2,14,0,27,0,41,1,27,2,54,0,8-6ZM1348,786c0,0,2,0,3,0-1-14-2-28-3-43-2-23-4-45-6-68,0-11-1-21-2-32-2-21-5-41-4-62,0-8,0-15,0-23-2-23-5-46-4-69,0-1,0-3-1-4-1,2-2,4-2,5,0,21,1,41,2,62,1,31,3,62,5,93,0,16,2,31,3,47,1,17,3,34,5,52,1,1,3,19,4,29,0,4,1,9,2,13ZM1536,624c2-7-1-1-6-12-3,0-7-2-1-2-17,1-34,2-52,4-2,0-4,1-6,2,0,0,0,1,0,2,24,1,49-2,73,6ZM1507,802c25,2,79,0,103-4-13-5-89-1-103,4ZM1321,55h-3c4,38,3,76,9,113,0,0,2,0,3,0-3-38-6-75-8-113ZM1329,469c7-21,6-4,7-6-7,2-8,7-9,11,0,4,0,9,0,13,0,11,0,22,2,36ZM141,526c3-9,7-51,5-58,0,19-11,37-5,58ZM1566,377c0,0,0-1,0-2-8-4-19-4-48,2h47ZM1421,711c-5,7-5,17-1,24,0-8,0-16,1-24ZM1633,797c3,5,7,9,11,14,0-14,0-15-11-14ZM1504,446c0,0,0-1,0-2-1,1-2,3-3,4,0,0,0,1,0,2,1-2,2-3,3-5ZM1513,807s0,0,0-1h-13s0,0,0,1h13ZM152,676c0,0,0-2,0-2-6,1-11,3-17,4,0,0,0,1,0,2,6-1,11-3,17-4ZM1416,703c2-3,5-6,7-9-6,0-9,2-7,9ZM1591,873s0,0,0,1c4,0,9-1,13-2,0,0,0-1,0-2-4,0-9,2-13,2ZM1579,385c0,0-1,0-2,0,1,3,2,6,3,9,0,0,1,0,2,0-1-3-2-6-3-9ZM1412,551s0,0,0,0v12s0,0,0,0v-11Z"/>
      <path class="cls-1" d="M1108,1201c8,3,14,7,18,14s0,0,0,0l-18-14h0Z"/>
      <path class="cls-1" d="M1084,2312c-1-2-2-5-4-7,0,0,0,0,1,0,1,2,3,4,4,6,0,0-1,1-2,2Z"/>
      <path class="cls-2" d="M124,855c-2-6-3-11-4-15-8-27-11-54-15-81-1-1-4-2-6-29-1-6-2-12-3-19-1-15-2-3-4-45-1-9-5-18-8-27-2-8-4-15-5-23-1-1-2-2-3-3,0-2,0-5-2-7-1-4-2-8-8-7-2,0-3-2-6-3-3,5-8,1-1,16-4,1-8,2-12,3-4,11-8,21-12,32,0,2-2,4-4,6-2,3-5,4-9,2-18-1-36-21-51-37-3-3-6-6-1-9-5-4-9-8-11-14-3-9-12-1-19-4-7,7-14,13-13,25,1,13,0,26,0,39,2,31,5,62,9,94,2,13,3,26,4,4,0,12,5,23,7,35,2,11,3,22,5,34,0,4,0,7-5,8-1,0-2,2-3,2-12,0-15-3-17-15-3-17-5-35-6-52-2-2-3-39-3-59,0-4,0-8,3-11,6-8,9-18,9-28,2-25-2-5-9-74-2-9-4-18-5-27-2-36-4-73-6-109,0-5-2-9-2-14,0-6,0-12,0-18,1-7,5-13,13-15,8-2,16-2,22,5,7,8,13,16,2,24,3,3,5,7,8,9,12,6,18,18,26,27,7,9,13,2,17,3,8,18,23,27,41,31,2,0,5-1,6-3,2-3,4-7,4-11,0-7,3-13,6-19,7-16,14-32,19-48,7-22,16-42,27-62,4-7,9-13,18-15,5,12,9,24,11,37,2,14,5,29,7,43,0,6,2,11,2,17,0,21,5,41,9,61,3,11,4,23,6,34,2,11,4,22,7,32,4,14,8,28,9,43,2,16,4,32,6,49,0,2,0,5,0,7,0,31,4,61,12,91,0,0,0,1,0,2,2,12,2,13-9,17-8,3-17,6-27,9Z"/>
      <path class="cls-2" d="M536,865c-2-11-4-21-6-3-7-33-9-67-9-1,0-18-3-35-4-53,0-15,0-29,0-44,0-11-3-22-4-33-4-27-8-55-12-82,0-7,0-13,0-2,0-9,2-11,1-12,15-3,3-4,45-6,5,0,7,2,8,7,2,1,5,2,6,3,5,4,9,81,13,121,1,11,5,2,12,28,3,3,6,3,1,3,2-2,4-4,61-5,3,0,6,0,9,0,0-1,1-3,1-4,0-9,0-17,0-26,0-17,0-34-2-51-2-24-3-47-5-71,0-12-2-24-3-36,0-7,0-9,6-11,5-2,1-4,16-2,2,0,5,0,8-1,5-1,1-3,16-4,4,6,5,13,6,2,3,18,6,37,8,55,2,18,2,37,3,55,1,21,3,41,5,62,2,17,3,34,5,51,4,33,5,66,14,99,2,6,4,12,6,18,2,8,4,15,6,23-12,7-23,14-36,14,0,0,0,0,0,0-19,2-21,0-24-17-8-46-17-91-21-137,0-4-2-8-2-11-22-2-44,0-64,6-6,2-13,4-19,6-6,2-1,5-1,12,0,1,0,21,0,31,0,12,0,25,2,37,0,8,2,15,2,23,0,1,0,19,0,29,0,5,0,1,0,15,0,8-3,11-1,9-7-2-13,1-2,2-7,0-14,2-22,4Z"/>
      <path class="cls-2" d="M815,571c2-5,8-6,12-8,3-2,7-4,1-6,2-1,4-2,6-3,6-2,12-3,18-5,9-3,18-2,26,3,2,1,4,2,9,5h-49s0,0,0,0c14,0,28,2,43,3,23,1,35,13,41,33,6,21,12,42,11,64,0,11,1,22,2,33,1,19-8,34-22,45-11,9-24,16-38,19-16,3-31,2-46-6-11-6-21-11-32-17-7-4-12-9-16-16-11-23-17-47-7-72,2-6,3-12,5-17,2-6,6-11,1-19-8,7-12,14-14,23-2,9-4,17-8,26,0-11,0-21,0-31,0-5,3-9,5-14,3-6,6-11,9-16,0,0,0,0,0,0,4-5,8-1,12-15,0,0,0,0,0,0,4,0,8-3,9-7,0,0,2,0,3,0ZM837,585c-1,0-17,6-24,12,8-4,16-8,24-12,11-4,21-5,33-5,4,0,8,0,12,0,2,1,4,3,5,4,5,2,1,4,14,7,28,22,41,5,35,86-3,16-11,29-25,36-1,6-21,11-32,15-22,7-42,0-61-11,0,0,0,0,0,0-18-19-27-42-21-68,0-1,0-3,1-4,0,0-1,0-2,0-1,4-3,9-4,13-2,23,5,43,2,6,6,7,14,12,23,13,6,1,11,3,17,4,8,1,16,4,25,0,1-4,2-8,3-13,22-1,32-28,34-52,2-2-3-39-14-56-11-17-24-3-45-33-8,0-17-2-25-1-6,0-14,0-18,7ZM845,645c-5,1-9,5-1,1-14,1-16,25-3,36,13,11,27,16,43,11,3,0,5-1,8-2,7,0,12-4,16-1,11-17,13-34,6-53-4-11-13-15-24-18l-9-3c0,0,0,1,0,2,3,0,6,0,9,0,1,1,2,3,3,4,15,6,19,18,21,32,3,24-1,41-33,44-2,0-4,0-6,0-15,2-26-4-35-14-6-6-6-14-2-22,2-3,4-6,5-9,3-3,7-7,1-1,15-7,19-6,31,6,2,2,3,3,5,5,4,5,7,1,4,16-3,6-9,8-16,9-6,0-11-3-12-7-2-6,0-9,5-13,2,2,3,4,4,5,3-3,3-6,0-8-1-1-4-2-5-1-4,1-9,8-1,13,0,5,3,11,8,13,8,4,16,3,24-2,8-6,9-13,5-21-5-9-12-15-21-2-7-4-15-2-21,5Z"/>
      <path class="cls-2" d="M937,776c-8,22-19,38-36,51-16,12-34,17-54,15-17-2-3-8-39-23-1-18-17-37-25-56,2,0,3,0,3,0,13,1,29,14,45,19,1,3,22,3,33,3,18,0,35-2,53-4,6,0,12-2,2-4Z"/>
      <path class="cls-2" d="M801,545c0,0,0,0,0-1,11-25,24-48,48-63,9-6,19-1,31-8,8,1,15,7,18,12,7,12,14,24,16,4-9-2-18-2-26-5-6-3-11-2-17,0-23,6-46,14-67,25,0,0-2,0-3,0Z"/>
      <path class="cls-2" d="M783,73c-2-7-5-15-7-22-3-1-4-21-2-32,0,4,2,9,3,13,5,25,19,43,43,54,9,4,17,9,25,11,16,5,33,7,5,0,14-6,28-12,38-25,2-3,5-6,9-1,1,8,3,13-3,17-22,16-45,3-73,33-13,1-25,0-36-4-14-5-26-13-37-23-4-4-7-9-1-13h0Z"/>
      <path class="cls-2" d="M955,721c0-6,0-11,0-17,0-13,0-25,0-38,0-9-1-17-3-26-3-18-6-36-9-54,0,0,0-2,0-3,6,1,8,6,1,1,2,4,2,8,3,11,4,15,7,3,11,46,4,15,5,3,4,46,0,11-8,18-15,26-1,0-2,0-3,0Z"/>
      <path class="cls-2" d="M1013,428c9-4,13-3,18,3,21,22,38,47,53,74,2,4,4,9,4,15-2-2-5-3-6-6-11-14-22-27-34-4-1-9-16-22-24-33-3-4-6-8-1-13Z"/>
      <path class="cls-2" d="M1284,838c-11-35-15-71-14-108,0,2,2,5,2,7,4,19,9,38,13,57,3,12,6,24,9,36,2,8,0,8-1,8Z"/>
      <path class="cls-2" d="M656,551c3,14,7,27,8,42,1,2,3,39,4,59,0,9,0,11-9,12-1,2-2,3-31,4-2,0-5,0-8-1,12-6,25-9,38-9,4-6,3-12,2-18-3-26-6-52-8-77,0-4,0-7,0-11,0,0,2,0,3,0Z"/>
      <path class="cls-2" d="M663,565c-4-14-7-27-7-42,0-17-1-34-2-52,0-11,0-12,12-14,9-2,17-5,26-7,8-2,15-3,25-5-6,7-12,1-19,9-9,0-18,2-26,6-1,5-14,11-13,23,0,9,3,18,3,27,1,18,2,36,3,55,0,0-1,0-2,0Z"/>
      <path class="cls-2" d="M607,864c-1-5-2-11-4-16-3-11-6-22-8-33-2-9-3-18-4-28,0-19-1-38-1-57,0-4,0-8,0-12,0-5,3-8,1-7,0,2-2,4-2,6,0,4-3,8-2,12,0,18,0,37,2,55,0,12,3,23,5,34,2,13,5,26,7,39,0,2,0,4,0,7,0,0-1,0-2,0Z"/>
      <path class="cls-2" d="M1214,748c6,36,13,71,2,108-2,0-5,1-8,2-2-1-4-19-6-28-2-9-4-18-5-27,0-9,0-19,0-28,0-9-1-18-2-28,0,0,1,0,2,0Z"/>
      <path class="cls-2" d="M54,87c12-4,23-7,35-6,2,0,4,0,6,0,6,0,1-1,1-8,0-7,0-15,0-22,0-4,0-8,0-12,1,0,2,1,2,2,2,12,4,24,6,35,0,4-1,6-5,7-14,4-29,9-44,8-4,0-9,0-12-6Z"/>
      <path class="cls-2" d="M1234,525c-4-22-8-44-11-65-3-21-6-43-9-65,5,2,5,6,5,1,4,24,7,47,1,71,2,12,3,23,5,35,0,5,1,1,2,14,0,0-1,0-2,0Z"/>
      <path class="cls-2" d="M1065,87c-1-2-3-4-4-6-2-7-2-14-4-2-3-16-6-31-8-47,0-2,0-5,0-7,6,5,19,69,18,79,0,0-1,0-2,1Z"/>
      <path class="cls-2" d="M751,615c-6-13,7-37,26-47-1,1-9,16-13,24-4,8-9,15-13,23Z"/>
      <path class="cls-2" d="M1095,648c7,5,13,9,2,14,7,5,15,11,26,1-1,3-1,7-3,9-2,1-6,0-8,0-15-6-26-18-36-3v-2Z"/>
      <path class="cls-2" d="M943,741c2,5,2,8-2,1-14,8-29,16-46,19-1,0-3,0-4,0,17-1,34-19,52-29Z"/>
      <path class="cls-2" d="M1207,769c-4-36-7-72-11-107,6,16,16,85,11,107Z"/>
      <path class="cls-2" d="M975,522c4,2,7,41,6,63-5-3-6-6-7-1,0-18-2-35-2-53h3Z"/>
      <path class="cls-2" d="M1183,585c3,26,11,51,8,77-1-8-2-16-4-23-2-13-5-25-7-38,0-4-2-7-2-11,0-2,1-4,2-6,1,0,2,0,3,0Z"/>
      <path class="cls-2" d="M501,485c2,0,3-2,5-3,21-4,41-8,62-12,0,0,2,1,5,3-24,9-48,9-7,14v-2Z"/>
      <path class="cls-2" d="M887,549c1-4,19-3,28,0,7,3,9,7,8,16-12-5-24-11-36-16Z"/>
      <path class="cls-2" d="M772,822c-5-28-9-57-14-85,6,7,15,58,14,85Z"/>
      <path class="cls-2" d="M803,579s0,0,0,0c-4,5-8,1-12,15s0,0,0,0c-4,5-9,1-13,16-1-6,0-12,4-16,8-1,17-17,28-24,2-1,5-3,6,0,0,0-2,0-3,0-3,2-6,5-9,7Z"/>
      <path class="cls-2" d="M904,834c6-7,11-13,16-19,5-6,9-12,14-17,2,13-13,32-3,36Z"/>
      <path class="cls-2" d="M748,741c2,6,5,13,6,19,2,13,2,27,3,4-5-1-1-41-9-6Z"/>
      <path class="cls-2" d="M773,856c-6,8-17,11-37,11,12-8,24-1,37-11Z"/>
      <path class="cls-2" d="M972,716c0,11-8,19-18,26-1-6,0-11,3-14,5-5,11-9,15-13Z"/>
      <path class="cls-2" d="M929,53c-6-11-14-21-16-35,1,6,15,17,16,35Z"/>
      <path class="cls-2" d="M755,646c-5-17,2-29,1-43,1,9-3,15-5,21-2,7-3,13-6,22Z"/>
      <path class="cls-2" d="M964,585c-8-8-16-14-22-21-2-2-3-6-3-1,12,7,18,18,25,31Z"/>
      <path class="cls-2" d="M992,641c0,19,4,37,1,56-3-7-4-41-1-56Z"/>
      <path class="cls-2" d="M972,653c-3-13-7-25-1-39,1,8,12,14,1,39Z"/>
      <path class="cls-2" d="M74,61c-1-17-3-33-4-5,0,0,1,0,2,0,2,17,5,33,5,5h-3Z"/>
      <path class="cls-2" d="M1103,643c11,7,22,13,34,2-9,3-23-6-34-2Z"/>
      <path class="cls-2" d="M731,877c-9,2-18,3-27,5-4,0-6-2-7-6,0-3,0-6,0-11,2,3,4,4,4,6,4,7,5,8,13,6,5,0,11-2,16-3,0,0,0,2,0,3Z"/>
      <path class="cls-2" d="M1084,526c4,2,6,3,7,5,4,8,8,17,11,26-1-7-14-17-18-3Z"/>
      <path class="cls-2" d="M722,457c4,16,8,32,6,49-3-16-6-33-9-49,0,0,2,0,3,0Z"/>
      <path class="cls-2" d="M948,576c12,9,18,22,22,37-6-5-7-12-11-18-4-6-7-12-11-19Z"/>
      <path class="cls-2" d="M603,744c0,16,6,32,0,48v-48Z"/>
      <path class="cls-2" d="M761,689c-7-15-3-3,0-44v44Z"/>
      <path class="cls-2" d="M991,724c-3-11,4-19,7-28,2,1-1,19-7,28Z"/>
      <path class="cls-2" d="M1152,644c4-13,8-25,12-38,2,9-3,25-12,38Z"/>
      <path class="cls-2" d="M766,833c-2-12-4-23-6-35,5,6,8,22,6,35Z"/>
      <path class="cls-2" d="M1237,566c6,5,6,12,8,19,1,6,1,13,0,2-3-13-6-26-8-39h0Z"/>
      <path class="cls-2" d="M1259,855c0,0,1-1,2-2,5-2,11-4,17-6,2,4,2,6-2,7-5,1-11,2-17,2,0,0,0-1,0-2Z"/>
      <path class="cls-2" d="M1047,597c6,6,14,7,15,16-1-3-14-7-15-16Z"/>
      <path class="cls-2" d="M526,832c1,1,3,2,4,31-5-4-6-14-4-31Z"/>
      <path class="cls-2" d="M88,527c9-1,17,0,25,6-9-1-17-2-26-4,0,0,0-2,0-2Z"/>
      <path class="cls-2" d="M1034,422c8,4,11,12,12,2-5-6-1-12-15-18,0,0,2-1,3-2Z"/>
      <path class="cls-2" d="M977,727c2,8,0,13-8,18,0-8,2-13,8-18Z"/>
      <path class="cls-2" d="M525,474c7-6,16-5,25-5-8,5-16,4-25,5Z"/>
      <path class="cls-2" d="M868,779c-11,2-22,2-33,0,0,0,0-1,0-2,11,0,22,2,32,2Z"/>
      <path class="cls-2" d="M844,55c7-7,14-9,23-7-7,5-14,6-23,7Z"/>
      <path class="cls-2" d="M571,496c-2-6-3-11-5-15,8-1,8,0,5,15Z"/>
      <path class="cls-2" d="M793,559c2-9,1-11,16-14,0,0,0,1,1,2l-18,13Z"/>
      <path class="cls-2" d="M1212,849c2,5,4,9,6,14,0,0-1,3-2,4-1,0-3-1-4-2-1-5-2-1-2-15,0,0,1,0,2,0Z"/>
      <path class="cls-2" d="M84,546c-5,5-8,7-19,9,7-6,11-8,19-9Z"/>
      <path class="cls-2" d="M766,687c1,9,2,17,3,26,0,0-2,0-2,0-3-9,0-18,0-26Z"/>
      <path class="cls-2" d="M976,438c7-5,13-8,21-6-7,2-12,7-21,6Z"/>
      <path class="cls-2" d="M746,719c7,5,8,12,6,19-2-6-4-13-6-19Z"/>
      <path class="cls-2" d="M852,529c5-2,11-3,16-5-3,8-11,4-16,7,0,0,0-2,0-3Z"/>
      <path class="cls-2" d="M97,477v29h-1v-29s0,0,1,0Z"/>
      <path class="cls-2" d="M635,706c-6,0-12,1-17,2,5-6,11-4,17-4,0,0,0,1,0,2Z"/>
      <path class="cls-2" d="M1035,675v-21s0,0,1,0v22s0,0-1,0Z"/>
      <path class="cls-2" d="M977,489v18s0,0,0,0c0-6-1-12-2-18,0,0,1,0,2,0Z"/>
      <path class="cls-2" d="M689,463c5-2,9-3,14-5,0,0,0,2,0,2-4,2-9,3-13,5,0,0,0-2,0-3Z"/>
      <path class="cls-2" d="M649,473v12c0,0-1,0-2,0v-12h2Z"/>
      <path class="cls-2" d="M582,584c0,5,1,1,2,16,0,0-1,0-2,0,0-5-1-1-2-16,0,0,1,0,2,0Z"/>
      <path class="cls-2" d="M766,633c0-6,1-11,2-17,0,0,1,0,2,0,0,6-1,11-2,17,0,0-1,0-2,0Z"/>
      <path class="cls-2" d="M581,542c0,5,1,1,2,16,0,0-1,0-2,0,0-5-2-1-3-16,0,0,1,0,2,0Z"/>
      <path class="cls-2" d="M994,867c3,3,6,5,1,8q-7,1-1-8Z"/>
      <path class="cls-2" d="M783,73c-7,0-7,0-8-12,3,5,5,9,8,12,0,0,0,0,0,0Z"/>
      <path class="cls-2" d="M683,763c1,6,2,11,3,17,0,0-1,0-2,0,0-5-1-11-2-16,0,0,0,0,0,0Z"/>
      <path class="cls-2" d="M721,87c-4,2-8,4-13-1,4,0,9,0,13,0,0,0,0,1,0,2Z"/>
      <path class="cls-2" d="M1131,538c-1,5-3,9-4,14,0,0-2,0-3,0,1-5,3-9,4-14,0,0,2,0,2,0Z"/>
      <path class="cls-2" d="M1038,698c0,4,1,8,2,12,0,0-1,0-2,0,0-4-2-8-2-12,0,0,2,0,2,0Z"/>
      <path class="cls-2" d="M824,771c-7,2-1-1-13-4,0,0,0-1,0-2,4,2,7,3,12,6Z"/>
      <path class="cls-2" d="M594,643l3,11c0,0-2,0-3,0,0-4-1-8-2-11,0,0,2,0,2,0Z"/>
      <path class="cls-2" d="M1215,83l3,11c0,0-2,0-2,0,0-4-2-8-3-12,0,0,2,0,2,0Z"/>
      <path class="cls-2" d="M941,764c-3,1-6,3-1,4q4-5,1-4Z"/>
      <path class="cls-2" d="M1014,442c-2-2-3-3-5-5,0,0,1-2,2-2,2,1,4,2,6,4,0,0-2,2-2,3Z"/>
      <path class="cls-2" d="M591,874c4,0,8-2,12-2,0,0,0,1,0,2-4,0-8,2-12,2v-2Z"/>
      <path class="cls-2" d="M681,743c-5-5-5-11-4-17l4,17s0,0,0,0Z"/>
      <path class="cls-2" d="M1286,774c0,3,2,7,3,1,0,0-1,0-2,0,0-3-1-7-2-1h1Z"/>
      <path class="cls-2" d="M746,623c0,4,0,7,0,11,0,0-2,0-2,0,0-3,0-7-1-1,1,0,2,0,3,0Z"/>
      <path class="cls-2" d="M1036,609c0,5-1,9-2,13q-2-6,2-13Z"/>
      <path class="cls-2" d="M1209,788v-9s0,0,0,0v9s0,0,0,0Z"/>
      <path class="cls-2" d="M496,479c-3,3-4,5-6,7-2-6,0-6,6-7Z"/>
      <path class="cls-2" d="M733,479v9s0,0,0,0c0-3,0-6-1-9,0,0,1,0,2,0Z"/>
      <path class="cls-2" d="M731,459c0,3,0,5,1,8,0,0,0,0-1,0,0-3-1-5-2-8,0,0,2,0,2,0Z"/>
      <path class="cls-2" d="M1237,566c0-3-1-7-2-11q3,4,2,11s0,0,0,0Z"/>
      <path class="cls-2" d="M526,872c5-3,7-1,8,4-3-2-5-3-8-4Z"/>
      <path class="cls-2" d="M1106,549c2,3,4,6,6,9-5-2-5-5-5-9h0Z"/>
      <path class="cls-2" d="M1106,549l-5-6c0,0,1,0,2-1,1,2,2,5,3,7,0,0,0,0,0,0Z"/>
      <path class="cls-2" d="M1,44c-2,0-4,0-6,0,0,0,0-1,0-2,2,0,4,0,6,0,0,0,0,1,0,2Z"/>
      <path class="cls-2" d="M998,666v7s0,0,0,0v-7s0,0,0,0Z"/>
      <path class="cls-2" d="M795,572c1-2,3-3,4-5h1c-1,3-3,4-4,6,0,0-1,0-2-1Z"/>
      <path class="cls-2" d="M79,755c2,2,3,3,5,5,0,0-1,1-2,2-2-1-3-3-5-4,0,0,1-2,2-2Z"/>
      <path class="cls-2" d="M511,633c0-2,0-4,0-6,0,0,0,0,0,0,0,2,0,4,0,6,0,0,0,0-1,0Z"/>
      <path class="cls-2" d="M573,881h5s0,0,0,0h-5s0,0,0,0Z"/>
      <path class="cls-2" d="M681,743v9s0,0-1,0c0-3,0-6,1-9,0,0,0,0,0,0Z"/>
      <path class="cls-2" d="M745,681c0-2,0-3,0-5,0,0,0,0,1,0v5s0,0-1,0Z"/>
      <path class="cls-2" d="M828,538c-1,0-3,1-4,2,0,0,0,0,0-1l4-2s0,0,0,1Z"/>
      <path class="cls-2" d="M132,1487c-3-2-7-3-1-5-3-1-7-3-1-3-36-2-72-4-109-5-31,0-63,0-94,0-7,0-139,2-209,7-28,2-55,7-82,1-32,4-63,8-95,11-6,0-12,2-18-3,9-1,17-2,26-29,15-14,31-28,46-42,1-9,19-19,29-29,11-1,22-21,33-31,23-2,43-43,63-66,18-21,36-43,49-68,8-14,14-29,21-43,5-9,1-18,15-27,7-12,14-23,22-35,1-2,3-4,5-7,2,2,4,4,6,6,22,26,43,52,65,77,19,23,39,46,59,68,23,25,46,49,69,73,19,2,4,39,59,58,22,22,43,45,58,74,0,2,2,4,3,6,0,0,0,0-1,1Z"/>
      <path class="cls-2" d="M793,1518c18,0,34-2,5,0,37,2,74,3,111,2,44,0,87,2,131,2,45,0,91,0,136-1,1,0,21,0,32,0,0,4,0,7,0,9,0,12,0,24,0,36,0,13,0,25,0,38,0,26-1,52,0,78,0,27,1,54,2,81,0,29,1,58,2,87,0,16,0,16-15,2,0,0-1,0-3,0-9-75-7-15-12-226-27,0-54,0-81,0-15,0-31,2-46,2-13,0-26,3-38,5-8,1-13,6-14,14-1,7-2,14-3,21-2,28-4,57-6,85-3,31-3,63,3,94,0,3,0,5,0,8,0,1,0,3,0,5-43,2-86,4-129,7-42,3-85,7-128,11,0-3,0-6-1-8-3-36,0-73,0-109,0-28,2-57,3-85,0-17,0-33,2-5,1-19,2-38,5-57,2-14,2-27,0-41-1-8-1-16-2-27ZM816,1773s0,0,0,0c0,2,0,3,0,5,0,8,0,17,0,25,0,15,7,23,22,22,14,0,27-3,41-4,6,0,12,0,18,0,9,0,17-2,26-3,21-3,42-5,63-7,7,0,15-2,22-2,9,0,13-3,15-11,6-24,8-48,8-72,0-13,0-26,2-39,0-16,2-32,3-49,0-5,0-1,0-15,3-23,0-46-3-69,0-6-6-1-12-1-15,0-29,0-44,0-22,0-45,1-67,2-17,0-34,2-51,3-13,0-26,4-39,9-9,4-13,11-14,2-2,26-1,52,2,78,0,8,2,15,1,23-1,15,1,31,4,46,1,8,2,16,3,24,0,9,0,18,0,27Z"/>
      <path class="cls-2" d="M1227,1864c-54,1-107,11-161,11-9-24-15-48-14-73,1-35,1-69,2-104,0-9,2-17,4-26,0-5,4-7,8-1,11-8,23-8,35-8,23,0,46-3,69-5,11-1,23,0,35,2,6,0,9,4,9,1,0,1,0,21,1,31,2,28,4,56,6,84,2,29,4,58,6,89ZM1211,1761c0-13-2-19-9-23-6-3-13-6-2-5-17,0-27,14-23,3,3,11,2,25,31,24,3,0,5-1,7-2,11-5,14-15,14-24Z"/>
      <path class="cls-2" d="M1244,1386c-79-76-152-158-222-244,14,9,28,19,39,31,3,3,59,59,88,9,23,24,45,5,64,78,8,12,17,24,26,35,2,3,4,5,6,8,0,0-1,1-2,2Z"/>
      <path class="cls-2" d="M774,1504c1-5,5-5,8-5,12-1,24-3,36-3,28-1,57-3,85-3,57,0,114-2,172-2,39,0,77,1,116,3,14,0,28,3,42,4,0,0,0,1,0,2-21,0-43,0-64,0-43,0-86,0-129,0-36,0-72,0-108,0-38,0-77,3-115,4-14,0-27,0-42,0Z"/>
      <path class="cls-2" d="M131,1491c-149-1-299-5-449-4,8,0,16-2,23-3,8,0,17-2,25-2,46-2,93-4,139-5,32,0,64,1,96,0,39,0,77,0,116,3,13,1,27,2,4,3,4,0,7,2,11,4,0,1,0,2,0,3Z"/>
      <path class="cls-2" d="M778,1836c0-4-1-8-1-11,0-32-1-63-2-95,0-13,0-27-2-4-1-14,0-27,2-41,6-37,1-75,1-113,0-4,0-8,3-13,0,1,0,2,1,4,2,21,4,42,0,64-3,22-3,44-4,66,0,13,0,25-1,38-1,44-3,88-4,133,0,3,0,6,0,9,0,0-2,0-3,0Z"/>
      <path class="cls-2" d="M801,1905c45-3,91-7,136-1,42-3,84-5,127-6,17,0,33,0,5,0,33,0,67-2,1-5,4,0,7-2,11-3,3,0,6,0,8,0,0,0,2,4,1,4-2,2-5,3-7,4-14,1-28,3-43,4-43,0-87,0-13,2-27,0-55,3-82,4-2,1-4,2-6,3-31,2-63,3-94,5-6,0-11,0-17,0,0,0,0,0,0,0Z"/>
      <path class="cls-2" d="M1248,1372c5,7,1,13,15,2,7,9,14,17,21,26l-2,2c-7-8-15-15-21-23-18-21-34-42-5-65-18-27-4-51-63-75-16-17-33-33-48-51,8,7,17,14,25,21,15,13,31,25,44,41,13,18,26,36,4,54,12,16,23,31,35,47,1,1,3,2,4,4h0Z"/>
      <path class="cls-2" d="M8,1366c2-3,4-7,6-1,26-32,52-64,77-96,22-27,43-55,64-83,1-2,3-3,6-5,0,2,0,4-2,6-7,14-17,26-27,38-27,33-53,67-8,1-13,16-27,31-41,46,0,1-3,2-4,2h0Z"/>
      <path class="cls-2" d="M854,1326c7-7,14-13,2-21,2-25,39-51,58-76,3-4,7-9,1-13-9,34-79,116-113,144,1-2,2-3,3-5,7-1,15-2,22-29h0Z"/>
      <path class="cls-2" d="M925,1512c14,0,27,0,41,0,38,0,76-1,114-2,36,0,72-1,108-2,19,0,39,1,58,2,1,0,2,0,3,2-2,0-5,2-7,2-1,0-21,0-31,0-3,0-59-2-89-2-42,0-84,2-126,3-24,0-47,0-71-1,0,0,0-1,0-2Z"/>
      <path class="cls-2" d="M804,19c5-2,1-4,15-4,31-3,61-5,92-7,24-2,47-3,71-5,19-1,37-2,56-3,2,0,5,0,8,1-2,5-6,4-9,4-18,0-36,1-54,2-51,3-102,6-153,1-9,0-17,1-26,2h0Z"/>
      <path class="cls-2" d="M1248,1372c-2-3-4-7-6-1-19-26-38-52-57-78,0,0,0,0,0-1,0,0,0,0,0,0,2,2,4,4,6,5,3,34,59,69,84,108,3,4,5,8,7,14-2-1-3-3-5-4-8-1-16-19-24-29-2-2-4-3-6-5,0,0,0,0,0,0Z"/>
      <path class="cls-2" d="M855,1326c-2,2-4,3-5,5-11,13-23,26-33,4-13,16-29,28-45,4,0,0-2,1-4,1,11-17,27-28,4-42,13-15,27-3,4-44,13-15,26-29,4-43-1,2-2,4-3,6-8,1-16,2-25,3-2,3-3,5-5,8,0,0,0,0,0,0Z"/>
      <path class="cls-2" d="M769,164c0-24,2-48,3-73,0-15,0-29,1-44,0-5,0-9,0-14,3,0,6,0,9,0,0,45-4,88-1,132-1,0-2,0-3,0Z"/>
      <path class="cls-2" d="M859,151c75-8,15-4,225-2-75,0-15,1-225,2Z"/>
      <path class="cls-2" d="M126,1844c0-26-1-51-2-77,0-27,0-55-2-82,0-21-2-41,0-64,2,33,7,196,3,222Z"/>
      <path class="cls-2" d="M1108,12l18,14c2,3,4,5,6,8,18,17,35,34,53,52,4,4,7,8,9,12-32-29-63-59-96-89,4,1,7,2,9,3Z"/>
      <path class="cls-2" d="M1266,1576c0,24,2,48,2,72,0,24-1,47-2,71,0-48-1-95-2-143,0,0,2,0,3,0Z"/>
      <path class="cls-2" d="M1225,1774c-3-31-7-61-6-94,6,12,9,62,6,94Z"/>
      <path class="cls-2" d="M1049,1874c-8-28-9-56-8-85,2,28,11,56,8,85Z"/>
      <path class="cls-2" d="M779,1411c-23,2-45,41-68,61,1-8,9-12,14-17,5-5,1-11,16-16,6-5,12-11,18-16,6-5,12-9,18-14,0,0,1,1,2,2Z"/>
      <path class="cls-2" d="M1266,1876c2,6-2,7-6,8-6,0-12,2-19,2-4-6-4-8,2-9,7,0,15-5,22-2Z"/>
      <path class="cls-2" d="M112,1879h66c-22,5-44,5-66,0Z"/>
      <path class="cls-2" d="M1166,1518h-77c26-4,51-3,77,0Z"/>
      <path class="cls-2" d="M952,1192c0-2,0-5,0-7,7-13,13-27,2-4,0-1,2-2,3-4,0,9-17,42-24,5h0Z"/>
      <path class="cls-2" d="M89,1275c-2,1-4,2-6,3,0,0,0,0,0,0,11-14,22-28,32-42,0,0,1,1,2,2-3,5-6,1-1,14-6,8-12,16-18,24h0Z"/>
      <path class="cls-2" d="M126,1568c-2-13-5-26,0-39v39Z"/>
      <path class="cls-2" d="M998,1114c0,9-4,16-13,25,3-1,5-18,13-25Z"/>
      <path class="cls-2" d="M1098,1882c-11,0-22,2-34,3,11-6,22-3,34-3Z"/>
      <path class="cls-2" d="M1265,1501c9-4,17,0,26,0-11,3-18,3-26,0Z"/>
      <path class="cls-2" d="M1094,165c9-3,19,0,29,0-5,0-1,0-15,1-5,0-9,0-14,1,0,0,0-1,0-2Z"/>
      <path class="cls-2" d="M952,1192c-2,9-9,15-15,22,3-8,9-15,15-22,0,0,0,0,0,0Z"/>
      <path class="cls-2" d="M1115,1503h26s0,0,0,0h-26s0,0,0,0Z"/>
      <path class="cls-2" d="M1205,1871h21s0,0,0,1h-21s0,0,0-1Z"/>
      <path class="cls-2" d="M761,1504h-18s0,0,0,0c6,0,12-1,18-2,0,0,0,2,0,2Z"/>
      <path class="cls-2" d="M1048,1721v13c0,0,0,0-1,0v-13h1Z"/>
      <path class="cls-2" d="M778,1857c0-2,0-5,0-7,0,0,1,0,2,0v7s0,0,0,0Z"/>
      <path class="cls-2" d="M1257,1502h-13s0,0,0-1h13s0,0,0,1Z"/>
      <path class="cls-2" d="M8,1366l-5,9h-2c2-4,5-6,7-9,0,0,0,0,0,0Z"/>
      <path class="cls-2" d="M779,1891v-5h0c0,2,0,4,0,5,0,0,0,0-1,0Z"/>
      <path class="cls-2" d="M704,1469c1-1,2-3,4-4,0,0,0,0,0,0-1,1-2,3-3,4,0,0,0,0,0,0Z"/>
      <path class="cls-2" d="M804,19c-3,0-6,0-9,0,0,0,0,0,0-1,3,0,6,0,9,0,0,0,0,0,0,0Z"/>
      <path class="cls-2" d="M889,1275c2,0,3-2,5-2q-2,4-5,2s0,0,0,0Z"/>
      <path class="cls-2" d="M1061,1657c1,0,3-1,4-1,0,0,0,1,0,1-1,0-3,1-4,2,0,0,0-1,0-2Z"/>
      <path class="cls-2" d="M1091,1189c1,1,2,2,4,3,0,0,0,0,0,1-1-1-2-2-4-3,0,0,0,0,0-1Z"/>
      <path class="cls-2" d="M1229,1832v-4s0,0,0,0c0,1,0,2,0,4,0,0,0,0,0,0Z"/>
      <path class="cls-2" d="M1314,1499c-2,0-4,0-6,0,0,0,0,0,0,0h6,0Z"/>
      <path class="cls-2" d="M1421,806c15,6,28,4,42,3,7,0,14,0,21,0,32,3,64,2,96-3,7-1,14-3,22-3,5,0,11,0,16,2,5,1,8,6,9,11,1,8,2,17,3,25,0,9-2,13-1,14-8,0-16,0-24,0-7,0-14,0-21,1-19,6-39,11-6,7-21-3-41,0-62,3-6,0-11,0-17,0-4,0-7,0-11,1-17,4-34,2-51-3-8-2-13-7-12-15,2-12-2-24-3-36-1-18-3-35-4-53,0-9-2-19-3-28-2-15-3-3-4-45-2-24-4-48-6-73,0-13,0-27-2-4,0-14-1-28-2-42,0-9-1-17-2-26,0-1,0-19,0-29,0-3,0-7,0-1,2-17,4-34,6-51,0-2,0-5,1-7,0-5,3-8,9-9,13-2,25-5,38-7,26-4,53-9,79-11,28-2,57-3,85-4,6,0,12,0,17,0,5,12,9,22,13,33,0,1,0,3,1,4,2,11,0,13-1,14-19,2-39,3-58,5-22,3-44,6-66,1-3,0-5,0-8,1-11,0-23,2-3,1-3,14-5,26-7,39-1,7,0,14,0,21,0,1,2,21,2,31,0,9,1,17,2,26,2,14,5,28-3,42,12,0,23,2,34,3,26,1,52,3,78,4,12,0,18,8,22,18,0,0,0,2,0,3,4,19,2,2-14,24-18,4-35,8-53,11-11,2-23,1-34,3-8,1-16,5-24,8-5,2-7,6-7,11,0,18,0,37,4,55,3,15,4,3,5,45,0,2,0,4,0,6Z"/>
      <path class="cls-2" d="M1623,801c6-1,1,1,13,7,5,11,7,22,8,34,0,6-3,12-6,18,0,2-4,3-7,4-6,1-12,2-18,3-26,3-52,6-78,9-6,0-11,0-17,0-1,0-21,0-31,0-8,0-16,0-24,0,0,0,0-2,0-2,3,0,6-1,1-2,16-3,31-2,47,0,2,3,38-4,57-8,4,0,9-1,14-1,1,0,19,1,29,0,11,0,16-8,14-18-1-9-2-17-4-26-1-5-4-1-7-15Z"/>
      <path class="cls-2" d="M1513,877c-27,5-53,8-8,6-14,0-27,0-41-1-7,0-15-1-22-2-9-1-13-7-15-15-9-36-16-72-17-109,0-1,0-2,2-4,0,7,1,13,2,19,0,7,2,14,4,21,2,9,4,19,5,28,2,12,3,24,5,37,1,8,8,18,19,19,4,0,7,0,11,0,17,0,33-1,5-1,1,0,21,0,31,1,7,0,13,0,2,0,9,0,18,0,27,0Z"/>
      <path class="cls-2" d="M1348,786c0-4-1-9-2-13-1-1-3-19-4-29-2-17-4-34-5-52-1-16-2-31-3-47-2-31-3-62-5-93,0-21-2-41-2-62,0-2,0-3,2-5,0,1,2,3,1,4-2,23,2,46,4,69,0,8,0,15,0,23-1,21,2,41,4,62,1,11,1,21,2,32,2,23,4,45,6,68,1,14,2,28,3,43,0,0-2,0-3,0Z"/>
      <path class="cls-2" d="M1536,624c-24-8-49-5-73-6,0,0,0-1,0-2,2,0,4-2,6-2,17-1,34-3,52-4,3,0,7,0,1,2,5,2,8,5,6,12Z"/>
      <path class="cls-2" d="M1507,802c13-6,9-9,103-4-24,5-78,7-103,4Z"/>
      <path class="cls-2" d="M1321,55c3,38,6,75,8,113,0,0-2,0-3,0-6-37-5-76-9-113h3Z"/>
      <path class="cls-2" d="M1329,469c-3-13-3-24-2-36,0-4,0-9,0-13,0-5,2-9,9-11,0,2,0,39-7,6Z"/>
      <path class="cls-2" d="M141,526c-6-21,4-39,5-58,2,7-2,49-5,58Z"/>
      <path class="cls-2" d="M1566,377h-47c29-6,39-6,48-2,0,0,0,1,0,2Z"/>
      <path class="cls-2" d="M1421,711c0,8,0,16-1,24-4-7-4-17,1-24Z"/>
      <path class="cls-2" d="M1633,797c11-1,12,0,11,14-4-5-7-1-11-14Z"/>
      <path class="cls-2" d="M1504,446c-1,2-2,3-3,5,0,0,0-1,0-2,1-1,2-3,3-4,0,0,0,1,0,2Z"/>
      <path class="cls-2" d="M1513,807h-13s0,0,0-1h13s0,0,0,1Z"/>
      <path class="cls-2" d="M152,676c-6,1-11,3-17,4,0,0,0-1,0-2,6-1,11-3,17-4,0,0,0,2,0,2Z"/>
      <path class="cls-2" d="M1416,703c-2-7,1-9,7-9-2,3-5,6-7,9Z"/>
      <path class="cls-2" d="M1591,873c4,0,9-2,13-2,0,0,0,1,0,2-4,0-9,1-13,2,0,0,0,0,0-1Z"/>
      <path class="cls-2" d="M1579,385c1,3,2,6,3,9,0,0-1,0-2,0-1-3-2-6-3-9,0,0,1,0,2,0Z"/>
      <path class="cls-2" d="M1412,551v11s0,0,0,0v-12s0,0,0,0Z"/>
      <path class="cls-1" d="M881,58c21,3,34,16,45,33,11,17,16,36,14,56-3,23-13,41-34,52-1,5-2,8-3,13-8,4-16,1-25,0-6,0-11-3-17-4-9-2-17-6-23-13-15-17-22-37-2-6,0-4,2-9,4-13,0,0,1,0,2,0,0,1,0,3-1,4-6,27,2,49,21,68,0,0,0,0,0,0,19,11,39,17,61,11,11-4,21-9,32-15,14-8,23-21,25-36,6-36-7-64-35-86-4-3-9-5-14-7-2-1-4-2-5-4,0,0,0,0,0,0Z"/>
      <path class="cls-1" d="M834,655c-2,3-4,6-5,9-4,8-4,16,2,22,9,1,21,16,35,14,2,0,4,0,6,0,24-4,36-2,33-44-2-14-6-26-21-32-1,0-2-2-3-4h0c1,3,19,8,23,18,7,19,5,37-6,53-4,5-9,9-16,1-3,0-5,0-8,2-17,5-31,0-43-11-13-11-12-26,3-36,0,0,0,0,0,0Z"/>
      <path class="cls-1" d="M845,645c6-7,13-9,21-5,9,5,16,11,21,2,5,8,3,15-5,21-7,5-15,6-24,2-5-2-8-7-8-13,0-5,5-12,1-13,2,0,4,0,5,1,2,2,3,5,0,8-1-2-3-3-4-5-4,4-7,7-5,13,1,4,7,7,12,7,7,0,13-2,16-9,3-6,0-11-4-16-1-2-3-4-5-5-12-12-16-13-31-6h0Z"/>
      <path class="cls-1" d="M837,585c4-7,12-6,18-7,8,0,17,0,25,1,0,0,0,0,0,0-4,0-8,0-12,0-11,0-22,0-33,5h0Z"/>
      <path class="cls-1" d="M837,585c-8,4-16,8-24,12,7-5,14-12,24-12,0,0,0,0,0,0Z"/>
      <path class="cls-1" d="M79,595c4-5,8-1,12-15-4,5-8,1-12,15Z"/>
      <path class="cls-1" d="M845,645c-3,3-7,7-1,1,0,0,0,0,0,0,1-6,5-9,1-1,0,0,0,0,0,0Z"/>
      <path class="cls-1" d="M881,62c-3,0-6,0-9,0,0,0,0-1,0-2,3,0,6,2,9,3,0,0,0,0,0,0Z"/>
      <path class="cls-1" d="M803,579c3-2,6-5,9-7-1,5-5,7-9,7Z"/>
      <path class="cls-1" d="M816,1773c0-9,0-18,0-27,0-8-1-16-3-24-3-15-5-3-4-46,0-8,0-15-1-23-3-26-4-52-2-78,0-9,5-16,14-2,12-5,25-8,39-9,17-1,34-2,51-3,22,0,45-2,67-2,15,0,29,0,44,0,6,0,11,4,12,1,4,23,6,45,3,69,0,5,0,1,0,15-1,16-2,32-3,49,0,13-1,26-2,39,0,24-2,48-8,72-2,8-6,11-15,11-7,0-15,0-22,2-21,2-42,5-63,7-9,1-17,3-26,3-6,0-12,0-18,0-14,1-27,3-41,4-15,0-22-7-22-22,0-8,0-17,0-25,0-2,0-3,0-5,0,0,0,0,0,0ZM859,1557l-11,2c4,1,8,3,1-2,4,0,9,2,13,2,9-1,18-4,28-6-14,0-27-1-4,5ZM821,171c4,0,6,0,9,0,16-3,33-5,49-3,7,1,11,4,13,1,3,12,4,25,4,38,0,12,0,23,1,35,0,6,0,12,1,19,4,0,7,0,11-1,0-7,0-13,0-2,0-11,0-22,0-33,0-9,0-19,0-28-1-18,3-25,19-31,2,0,4-2,7-2,16-6,32-1,49-12,2,0,3-1,5-2-1-1-19-1-28-1-8,0-16,0-24-2-13-2-18-9-2-21-1-9-1-18-2-27-2-21-6-42-4-64,0,0,0-1-1-2-4,0-8,0-13,1,0,4,0,8,0,12,0,23,0,46,0,69,0,8-3,15-8,22-8,1-19,14-31,17-11,2-21,4-32,6-2,0-3,1-5,2v19ZM954,1803c8-37,16-71,25-107-8-1-8,4-8,7-6,19-12,39-17,58-3,12-5,24-8,36,1-35,14-67,22-102-3,2-6,2-6,3-12,34-21,69-29,106,9,0,16-2,22-2ZM845,1567h-2c0,1-2,3-2,5-3,11-5,23-7,34-3,21-6,42-9,62,0,3-2,8,4,9,5,0,9-2,1-7,0-1,0-3,0-4,2-14,4-28,6-41,3-17,7-35,1-52,0-2,2-5-2-7,0,1-2,3-3,4-1,5-3,1-4,16-5,28-9,56-14,84,0,1-1,2-2,3,0,0-1,0-2,0,4-35,12-7,17-105ZM1004,1557c-9,36-18,71-22,108,9,0,8,0,1-7,4-23,9-46,13-69,1-8,3-16,5-23,0-4,0-8-6-9ZM993,1692c-6,36-17,71-21,106,6,2,8,0,9-5,2-13,5-26,7-39,4-2,8-4,12-6,0,0,0-2,0-3-2,0-5,0-7,1ZM85,172c-9,0-1,0-11,9-4,23-7,47-1,7,0,4,0,8,0,13,9,0,9,0,1-8,2-19,5-38,7-56,1-9,3-18,4-27ZM976,1557c-6,0-6,0-8,6-7,33-13,66-2,99,0,2,0,4,0,7,7,0,7,0,9-9,4-24,8-48,12-72,2-1,4-2,6-3ZM96,1802c1-1,9-1,1-9,0-8,2-16,4-25,4-2,8-4,12-61,0-4,0-7,0-11-9,15-28,95-27,105ZM993,1557c0,2-2,4-2,6-2,1-5,2-7,3-4,2-8,4-11,6,0,4,0,9,0,14,7-3,6-3,7-1,3-21,7-42,11-63,2-1,4-2,6-3,0-3,2-7-4-7ZM962,1666c5,2,6-2,6-6,1-11,2-23,4-34,4-21,8-41,12-62,0-3,2-6-1-1-1,2-3,4-4,6-7,21-2,97-19,106ZM1005,1702c-8,32-18,63-22,96,7,0,8-3,9-7,3-14,6-29,9-43,4-15,7-3,4-46ZM963,1557c-5,0-5,3-5,5-5,21-9,42-13,63-2,9-3,18-5,28,0,5,0,1,3,15,7-37,13-74,2-111ZM877,1565c-7-2-8,3-8,8-5,3-1,6-16,9,0,0,0,2,1,4,6-3,5-8,6-12,4-25,8-5,13-75,0-5,3-9,4-14ZM84,1811c7,2,7-2,8-6,3-26,6-53,1-79,0-2,0-5,0-7,0,0-2,0-2,0-8,3-11,61-15,93ZM843,1671c6,0,6-5,6-9,1-9,2-19,3-28,4-22,8-43,11-65,0-1,0-3,0-5-7,1-22,89-21,106ZM878,1715c-6,9-19,82-17,95,5,1,5-3,6-6,0-7,1-15,2-22,3-19,6-39,9-58,0-2,0-5,0-9ZM851,181c6,1,6-2,6-5,0-6,1-13,2-19,3-21,6-42,9-63,0-2,0-4,0-6,0,0-2,0-3,0,0,3-2,5-3,8-5,29-1,57-12,86ZM955,1701c0,0-1,0-2-1-1,1-3,3-4,4-2,4-3,8-4,12-5,2-11,41-16,61,0,4,0,8,0,11,0,0,1,0,2,0,8-29,15-59,23-88ZM1028,1651c0-12,0-24,0-35,0-18-6-35-4-53,0,0,0-2,0-3-1-2-3-3-4-4,0,0-1,0-2,0,4,31,1,63,1,95ZM101,1593c-7,24-12,48-15,73h1c0-4-2-8-2-11,0-8,3-15,4-23,3-13,3-26,2-39ZM994,1795c6,1,9,0,1-6,1-1,3-2,5-29,1-7,0-13-2-19-6,18-11,35-13,54ZM954,1558c0,0-1,0-2,0-6,8-18,73-14,87,6-3,11-58,17-86ZM887,1721c0,0-2,0-3,0-5,29-12,58-13,88,2,0,3-2,3-3,5-24,9-48,14-72,0-4,0-8,0-12ZM926,1766c0,0,1,0,2,0,5-2,1-4,15-61-7,2-11,6-12,12-2,12-4,25-6,37,0,4,0,8,0,12ZM918,1562c-3,7-5,13-4,21,2,2,3,4,5,6,0,5,2,9,3,13,0,0,2,0,3,0-7-31-1-62-6-94ZM923,1805c4-2,5-5,5-9-2-12-5-25-7-37,0-6,0-13-1-19,0,0-1,0-2,0-4,22-4,43,5,64ZM862,1661c1,0,2,0,3,0,0-3,2-5,3-8,3-21,6-41,1-62,0-3,2-6,3-9,2-4,1-7,0-11-9,29-13,59-18,88ZM824,1794s0,0,1,0c1-12,3-24,4-36,1-11,5-23,4-35-2,0-3,0-3,0-2,12-5,24-6,36-1,11,0,22,0,34ZM821,1659c5-3,1-59,14-88-8,15-16,73-14,88ZM87,1659c6-1,7-4,8-8,2-17,5-34,7-51,0-2,0-4,0-7,0,0-1,0-2,0-4,22-8,43-12,66ZM932,1613c0,0,1,0,2,0,1-6,2-12,3-18,1-7,2-13,3-2,0-6,4-12,0-18-1,0-3,1-3,2-2,14-4,27-6,41,0,4,0,8,0,12ZM889,1755c-5,18-1,35-1,54,2,0,4-2,4-4,0-4,1-8,2-12,0-6,0-12,3-18,3-7,3-14,2-21ZM1012,169c-5,2-3,6-3,9,0,12,3,23,2,35,0,2,0,4,1,7,1-16,1-32,1-48,0,0,0-1-2-2ZM102,1623c0,0-1,0-2,0,0,1,0,2,0,3,0,12,0,25,0,37,0,4,0,7,7,5-2-15-4-3-5-45ZM929,1666c2-2,2-2,2-3-2-23-4-45-6-68-3,24,0,47,3,71ZM1019,1687v35c3-1,5-21,6-31,0-4-2-5-6-4ZM818,1617c0,0,1,0,2,0,2-14,5-28,7-42,0,0-2,0-2,0-2,14-7,28-7,42ZM858,1712c-15-2-29,0-36,7,13-3,24-5,36-7ZM891,1611c0,5,0,1,0,15,0,5-2,9-2,14,0,4-2,8,0,13,5-13,6-26,3-41ZM995,1685c-9,0-21,1-31,5,21,0,23,0,31-5ZM1011,1663c0,0,1,0,2,0v-24c0,0-1,0-2,0v24ZM89,1565c-4,6-3,19,0,27v-27ZM816,1635c0,0-1,0-2,0l-2,13c0,0,2,0,3,0,0-4,0-9,0-13ZM1011,1777c0,0-2,0-3,0,0,5-2,11-2,16,0,0,2,0,3,0l2-16ZM916,1724c0,0,1,0,2,0,2-5,7-9,3-17-2,7-4,12-5,16ZM82,1578c-4,6-5,9-3,17,1-7,2-12,3-17ZM928,1551c5,3,1,2,15-2l-15,2ZM886,1627s0,0-1,0c0,5-1,1-2,15,2-4,3-8,4-12,0,0,0-2,0-3ZM1017,1678c2,2,4,3,5,3,0,0,2-2,2-2,0-1-2-3-3-4,0,0-2,1-5,3ZM932,1562s0,0,0,0v8s0,0,0,0v-8ZM864,1672c0-1,2-3,2-4,0,0-3-2-3-1,0,1-2,2-2,4,0,0,1,0,3,2ZM871,1665c0,0,0,2,1,2,2-1,3-2,5-3,0,0,0-1-1-2-2,0-3,2-5,3ZM822,1733s0,0,0,0v-7h-2c0,2,0,5,0,7ZM818,1669c0,0-1,0-2,0,0,1,0,3,1,4,0,0,0,0,0,0v-4ZM855,1675c0-1,2-2,2-3,0,0,0-1-1-2,0,0-2,1-2,2,0,0,0,1,1,3ZM908,1549s0,0,0,0h5s0,0,0,0h-5ZM912,1553s0,0,0,1c2,0,4,0,6,0,0,0,0,0,0-1-2,0-4,0-6,0ZM974,1549s0,0,0,0h7s0,0,0,0h-7ZM995,1677c0,0,0,1,0,2,2,0,4,0,6,0h0c-2-1-4-1-6-1Z"/>
      <path class="cls-1" d="M1211,1761c0,9-3,18-14,24-2,1-5,2-7,2-11,0-29-13-31-24-4-16,6-3,23-3,7,0,14,2,2,5,7,4,9,1,9,23ZM1185,1741c-2,2-4,4-5,6-2,2-4,4-5,6-4,6-3,12,3,17,5,4,12,5,18,2,7-3,9-8,7-15-2-9-9-13-17-16ZM117,1742c-8,4-9,5-7,13,3-5,5-9,7-13Z"/>
      <path class="cls-2" d="M821,171v-19c2,0,3-2,5-2,11-2,21-4,32-6,12-3,23-6,31-17,5-7,8-14,8-22,0-23,0-46,0-69,0-4,0-7,0-12,5,0,9,0,13-1,0,1,1,2,1,2-3,21,1,42,4,64,0,9,0,18,2,27,1,12,7,19,2,21,8,1,16,2,24,2,9,0,19,0,28,1-2,0-3,2-5,2-17,2-33,6-49,12-2,0-4,2-7,2-16,6-21,14-19,31,0,9,0,19,0,28,0,11,0,22,0,33,0,6,0,13,0,2-4,0-7,0-11,1,0-7,0-13-1-19,0-12-1-23-1-35,0-13,0-25-4-38-2-6-6-9-13-1-17-2-33,0-49,3-3,0-5,0-9,0Z"/>
      <path class="cls-2" d="M954,1803c-6,0-13,1-22,2,8-37,17-72,29-106,0-1,2-2,6-3-8,35-21,68-22,102,3-12,5-24,8-36,5-2,11-39,17-58,0-3,0-8,8-7-8,35-16,7-25,107Z"/>
      <path class="cls-2" d="M845,1567c-5,35-13,7-17,105,0,0,1,0,2,0,0-1,2-2,2-3,5-28,9-56,14-84,0-5,2-1,4-16,0-2,2-3,3-4,5,2,3,5,2,7-3,17-7,35-1,52-2,14-4,28-6,41,0,1,0,3,0,4-1,6-5,8-1,7-5-1-4-5-4-9,3-21,5-42,9-62,2-11,5-23,7-34,0-2,2-4,2-5h2Z"/>
      <path class="cls-2" d="M1004,1557c6,1,6,5,6,9-1,8-3,16-5,23-4,23-9,46-13,69-1,7-1,7-1,7,4-37,13-73,22-108Z"/>
      <path class="cls-2" d="M993,1692c3,0,5,0,7-1,0,1,0,2,0,3-4,2-8,4-12,6-3,13-5,26-7,39,0,5-3,7-9,5,4-36,15-7,21-106Z"/>
      <path class="cls-2" d="M85,172c-2,9-3,18-4,27-3,19-5,37-7,56,0,8,0,8-1,8,0-4,0-9,0-13,3-23,7-47,1-7,1-9,2-9,11-9Z"/>
      <path class="cls-2" d="M976,1557c-2,1-4,2-6,3-4,24-8,48-12,72-1,9-1,9-9,9,0-2,0-5,0-7,6-33,13-66,2-99,1-5,1-5,8-6Z"/>
      <path class="cls-2" d="M96,1802c-2-11,17-9,27-105,0,4,0,7,0,11-4,2-8,4-12,61-2,8-3,16-4,25,0,8,0,8-1,9Z"/>
      <path class="cls-2" d="M993,1557c6,0,5,4,4,7-2,1-5,2-6,3-4,21-7,42-11,63-1,7,0,7-7,1,0-5,0-9,0-14,3-2,7-4,11-6,2-1,5-2,7-3,0-2,2-4,2-6Z"/>
      <path class="cls-2" d="M962,1666c-2-9,11-84,19-106,0-2,2-3,4-6,3,4,2,7,1,1-4,21-9,41-12,62-2,11-3,22-4,34,0,4-1,8-6,6Z"/>
      <path class="cls-2" d="M1005,1702c4,16,0,31-4,46-3,14-6,29-9,43,0,4-2,8-9,7,4-33,14-64,22-96Z"/>
      <path class="cls-2" d="M963,1557c-7,37-13,74-2,111-4-5-4-1-3-15,1-9,3-18,5-28,4-21,9-42,13-63,0-3,0-6,5-5Z"/>
      <path class="cls-2" d="M877,1565c-2,5-3,1-4,14-4,25-8,5-13,75,0,4,0,9-6,12,0-2-1-3-1-4,5-3,1-6,16-9,0-5,2-1,8-8Z"/>
      <path class="cls-2" d="M84,1811c4-31,7-63,15-93,0,0,2,0,2,0,0,2,0,5,0,7-3,26-6,53-1,79,0,4,0,8-8,6Z"/>
      <path class="cls-2" d="M843,1671c-1-18,14-96,21-106,0,2,0,4,0,5-4,22-8,43-11,65-2,9-2,19-3,28,0,3,0,8-6,9Z"/>
      <path class="cls-2" d="M878,1715c0,4,0,7,0,9-3,19-6,39-9,58-1,7-1,15-2,22,0,3,0,7-6,6-2-13,1-86,17-95Z"/>
      <path class="cls-2" d="M851,181c2-29,7-58,12-86,0-3,2-5,3-8,0,0,2,0,3,0,0,2,0,4,0,6-3,21-6,42-9,63,0,6-1,13-2,19,0,3,0,6-6,5Z"/>
      <path class="cls-2" d="M955,1701c-8,29-15,59-23,88,0,0-1,0-2,0,0-4-1-8,0-11,5-2,1-41,16-61,1-4,2-8,4-12,0-2,3-3,4-4,0,0,1,0,2,1Z"/>
      <path class="cls-2" d="M1028,1651c-9-31-6-63-1-95,0,0,1,0,2,0,1,1,3,3,4,4,0,0,0,2,0,3-3,18,5,35,4,53,0,12,0,23,0,35Z"/>
      <path class="cls-2" d="M101,1593c0,13,0,26-2,39-2,7-3,15-4,23,0,3,1,7,2,11h-1c3-25,8-49,15-73Z"/>
      <path class="cls-2" d="M994,1795c2-19,7-36,13-54,2,6,3,12,2,19-2,1-3,2-5,29,0,6-4,7-1,6Z"/>
      <path class="cls-2" d="M954,1558c-5,28-11,56-17,86-3-13,8-79,14-87,0,0,1,0,2,0Z"/>
      <path class="cls-2" d="M887,1721c0,4,1,8,0,12-4,24-9,48-14,72,0,1-1,2-3,3,0-3,8-58,13-88,0,0,2,0,3,0Z"/>
      <path class="cls-2" d="M926,1766c0-4-1-8,0-12,2-12,4-25,6-37,1-6,5-1,12-12-5,21-1,41-15,61,0,0-1,0-2,0Z"/>
      <path class="cls-2" d="M918,1562c5,31-1,63,6,94,0,0-2,0-3,0,0-4-2-9-3-13-2-2-3-4-5-6,0-7,0-14,4-21Z"/>
      <path class="cls-2" d="M923,1805c-9-22-9-43-5-64,0,0,1,0,2,0,0,6,0,13,1,19,2,12,4,25,7,37,0,4,0,6-5,9Z"/>
      <path class="cls-2" d="M862,1661c4-3,9-6,18-88,2,4,3,7,0,11-1,3-3,6-3,9-3,21-7,41-1,62,0,3-2,5-3,8-1,0-2,0-3,0Z"/>
      <path class="cls-2" d="M824,1794c0-11,0-22,0-34,1-12,4-24,6-36,0,0,1,0,3,0,1,12-3,23-4,35-1,12-3,24-4,36,0,0,0,0-1,0Z"/>
      <path class="cls-2" d="M821,1659c-2-15,6-73,14-88-5,29-9,58-14,88Z"/>
      <path class="cls-2" d="M87,1659c4-23,8-44,12-66,0,0,1,0,2,0,0,2,0,5,0,7-2,17-5,34-7,51,0,4-2,7-8,8Z"/>
      <path class="cls-2" d="M932,1613c0-4,0-8,0-12,2-14,4-27,6-41,0,0,1-1,3-2,3,6,0,12,0,18,0,7-2,13-3,2-1,6-2,12-3,18,0,0-1,0-2,0Z"/>
      <path class="cls-2" d="M889,1755c1,7,0,14-2,21-2,5-2,12-3,18,0,4,0,8-2,12,0,1-2,3-4,4,0-19,6-36,1-54Z"/>
      <path class="cls-2" d="M1012,169c0,1,2,2,2,2,0,16,0,32-1,48,0-2-2-5-1-7,1-12-2-23-2-35,0-3-1-7,3-9Z"/>
      <path class="cls-2" d="M102,1623c2,15,3,3,5,45-6,2-7,0-7-5,0-12,0-25,0-37,0-1,0-2,0-3,0,0,1,0,2,0Z"/>
      <path class="cls-2" d="M929,1666c-2-24-7-47-3-71,2,23,4,46,6,68,0,0,0,0-2,3Z"/>
      <path class="cls-2" d="M1019,1687c4-1,6,0,6,4-1,1-3,21-6,31v-35Z"/>
      <path class="cls-2" d="M859,1557c13-6,26-5,4-5-9,2-18,5-28,6-4,0-8,0-13-2h0Z"/>
      <path class="cls-2" d="M818,1617c0-14,5-28,7-42,0,0,2,0,2,0-2,14-5,28-7,42,0,0-1,0-2,0Z"/>
      <path class="cls-2" d="M858,1712c-11,2-23,5-36,7,7-6,21-9,36-7Z"/>
      <path class="cls-2" d="M891,1611c4,15,2,28-3,41-2-4,0-8,0-13,0-5,2-9,2-14,0-5,0-9,0-15Z"/>
      <path class="cls-2" d="M995,1685c-8,4-1,5-31,5,1-4,22-6,31-5Z"/>
      <path class="cls-2" d="M1011,1663v-24c0,0,1,0,2,0v24c0,0-1,0-2,0Z"/>
      <path class="cls-2" d="M89,1565v27c-3-8-4-21,0-27Z"/>
      <path class="cls-2" d="M816,1635c0,4,0,9,0,13,0,0-2,0-3,0l2-13c0,0,1,0,2,0Z"/>
      <path class="cls-2" d="M1011,1777l-2,16c0,0-2,0-3,0,0-5,2-11,2-16,0,0,2,0,3,0Z"/>
      <path class="cls-2" d="M916,1724c1-5,3-9,5-16,3,8-1,12-3,17,0,0-1,0-2,0Z"/>
      <path class="cls-2" d="M82,1578c0,5-2,11-3,17-2-8-2-11,3-17Z"/>
      <path class="cls-2" d="M928,1551l15-2c-4,4-9,5-15,2Z"/>
      <path class="cls-2" d="M886,1627c0,0,0,2,0,3,0,4-2,8-4,12,0-5,1-1,2-15,0,0,0,0,1,0Z"/>
      <path class="cls-2" d="M1017,1678c2-1,4-3,5-3,1,0,2,2,3,4,0,0-2,2-2,2-2,0-3-2-5-3Z"/>
      <path class="cls-2" d="M858,1556c-2,5-6,3-1,2,4,0,7-1,11-2,0,0,0,0,0,0Z"/>
      <path class="cls-2" d="M932,1562v8s0,0,0,0v-8s0,0,0,0Z"/>
      <path class="cls-2" d="M864,1672c-1,0-3-1-3-2,0-1,1-3,2-4,0,0,2,0,3,1,0,1-1,2-2,4Z"/>
      <path class="cls-2" d="M871,1665c2,0,3-2,5-3,0,0,0,1,1,2-2,1-3,2-5,3,0,0,0-2-1-2Z"/>
      <path class="cls-2" d="M822,1733c0-2,0-5,0-7h2v7s0,0,0,0Z"/>
      <path class="cls-2" d="M818,1669v4s0,0,0,0c0-1,0-3-1-4,0,0,1,0,2,0Z"/>
      <path class="cls-2" d="M855,1675c0-2-2-3-1-3,0,0,2-2,2-2,0,0,1,2,1,2,0,0-1,2-2,3Z"/>
      <path class="cls-2" d="M908,1549h5s0,0,0,0h-5s0,0,0,0Z"/>
      <path class="cls-2" d="M912,1553c2,0,4,0,6,0,0,0,0,0,0,1-2,0-4,0-6,0,0,0,0,0,0-1Z"/>
      <path class="cls-2" d="M974,1549h7s0,0,0,0h-7s0,0,0,0Z"/>
      <path class="cls-2" d="M995,1677h6c-2,1-4,2-6,2,0,0,0-1,0-2Z"/>
      <path class="cls-2" d="M1185,1741c9,3,15,7,17,16,2,7,0,13-7,15-6,2-12,2-18-2-6-5-7-11-3-17,1-2,3-4,5-6,1-2,3-3,5-6Z"/>
      <path class="cls-2" d="M117,1742c-2,4-4,8-7,13-2-8-1-9,7-13Z"/>
    </g>
  </g>
</svg>