<?xml version="1.0" encoding="UTF-8"?>
<svg id="Layer_2" data-name="Layer 2" xmlns="http://www.w3.org/2000/svg" viewBox="0 0 2214 2873">
  <defs>
    <style>
      .cls-1 {
        fill: #000;
      }

      .cls-1, .cls-2 {
        stroke-width: 0px;
      }

      .cls-2 {
        fill: #fff;
      }
    </style>
  </defs>
  <g id="Layer_1-2" data-name="Layer 1">
    <g>
      <path class="cls-1" d="M0,15c4,0,6,0,8,0,3,0,5,1,8,0,2-3,41,0,61,0,22,0,44,0,66,0,9,0,17,0,26,0,18,0,37,0,55,0,27,0,55,0,82,0,12,0,23,0,35-1,3,0,59-3,89-3,23,0,45,1,68,3,44,4,87,4,131,0,14-1,28,0,42-1,25-2,5-4,75-5,22-1,43-1,65-1,42,0,85,1,127,2,44,0,89,0,133,1,24,0,47,0,71,0,32,0,65,0,97,0,51,0,101,0,152,0,8,0,16,0,24,0,7,0,14-1,21-2,1-1,2-2,3-4,9-1,18-2,27-3,25-3,49-2,74,0,5,2,99,6,149,6,55,0,109,0,164,0,11,0,23,0,34,0,18,0,37-1,55-2,22,0,44-1,66-2,18,0,36-2,54-4,0,0,2,0,3,0,29,2,59,0,88,0,0,0,2,0,3,0,5,11,3,23,2,34,0,2,0,5,0,7,0,29,0,58,1,88,0,17,0,35,0,52,0,23,0,45,0,68,0,24-1,49-2,73,0,4,0,7,0,11,0,21,2,42,3,63,1,34,2,67,2,101,0,22,0,44,0,66,0,15,2,3,2,45,0,4,0,8-3,12-2,32,0,65-1,97,0,49-1,97-2,146,0,25-2,51-3,76,0,5,0,11,0,16,0,17,2,34,2,51,0,14,1,29,2,43,0,9,1,18,2,27,1,24,3,49,4,73,0,18,1,37,1,55,0,27,0,54,1,81,0,24,2,49,2,73,0,13-1,27-2,4,0,2,0,4,0,6,0,28,0,56-1,84,0,13,0,26,0,39,0,16-2,31-1,47,0,2,2,39,3,59,0,16,0,31,0,47,0,1,0,19,0,29,0,29,0,59,1,88,0,23,1,45,2,68,0,25,1,5,2,75,1,3,2,6,4,9,3,33,2,66,2,99,0,18,0,37,3,55,2,21,0,41-1,62-1,26-4,51-6,77,0,14,0,29,0,43,0,26-1,52-1,78,0,32,0,63,0,95,0,25,2,5,5,75,2,18,6,36,1,54,1,7,3,14,0,21-2,5-5,7-1,7-17,0-34,0-51,0-6,0-13,0-19,2-24,4-48,3-73,2-27-1-53,0-8-1-18,0-36-2-54-3-2-1-41-2-61-2-44,0-89,0-133,0-27,0-54,0-81,0-3,0-61,0-91,0-14,0-28,3-42,4-29,2-58,3-87,4-46,2-93,3-139,5-4,1-8,3-12,4-36,1-73,3-109,4-1,0-21-1-31-2-23,0-45,0-68,0-53,0-105,0-158,0-28,0-55-2-83-2-52,0-103,2-155,3,0,0-2,0-3,0-15,0-31,0-46,0-16,0-32,0-48-2-19,0-39-3-58-3-3,0-61,0-91,1-28,0-57,0-85,1-24,0-47,3-71,4-17,0-34,2-51,1-21,0-42-2-64-3-5,0-11,0-16-1-2,0-3-2-5-3-2-2-3-4-5-5,0-4,0-8,0-12,0-8,0-15,0-23,3-33,5-66,4-1,0-45,0-9-2-135-1-57-2-114-4-171,0-28-2-57-3-85-3-53-5-105-4-158,0-33,3-67,5-1,2-47,4-94,2-141,0-26,0-51,0-77,0-13,0-27,0-4,0-27,0-54,0-81,0-19,0-39,0-58,0-46,0-91,0-137,0-4-1-8-2-12,0-44,0-89,0-133,0-5-2-1-3-15,0-26,0-53,0-79,0-37,0-74,0-111,0-26,2-51,2-77,0-36,0-71,0-107,0-37,3-75,3-112,0-44,0-87,0-131,0-4-2-79-3-119,0-3,0-61,0-91,0-17-2-34-3-51-2-28-6-55-5-83,0-21-2-43-3-64,0-16-2-31-2-47,0-18-3-36-1-55ZM3,1522c0,4,0,8,0,12,0,9,0,19,0,28,0,32,0,64,0,96,0,41,0,81,0,122,0,51,0,101,0,152,0,3,1,59,0,89-1,3-3,6-4,9-1,4-1,79-2,119,0,18,0,35,0,53,1,41,4,82,5,123,1,57,1,114,2,171,0,43,3,85,3,128,0,37-3,75-4,112,0,1,0,19,0,29,3,18,2,17,22,2,11,2,22,2,33,2,19,0,37,2,56,1,42-1,83-5,125-4,32,0,64-1,96-1,28,0,56,0,84,1,11,0,21,1,32,2,24,0,47,0,71,0,44,0,88-1,132-2,3,0,59,0,89,0,22,0,45,1,67,2,14,0,29,0,43,0,26,0,51,0,77,0,22,0,44,0,66,0,24,0,47,2,71,1,4,0,79-3,119-5,37-1,73-3,11-4,26,0,51-1,77-2,17,0,33-1,5-2,2,0,39,0,59-2,25-2,5-5,76-5,39,0,79,0,118,0,32,0,64,0,96,0,36,0,73,0,109,1,6,0,11,0,17,1,18,1,36,3,54,3,28,0,56,0,84,2,21,0,43,1,64,0,13-1,26-3,39-4,1,0,19,0,29,0,4,0,8-1,11-2,3-1,2-19,0-28-3-15-7-31-8-46-2-28-4-55-5-83,0-2-2-39-1-59,0-34,1-68,2-102,0-1,0-19,0-29,2-31,5-62,7-94,2-27,3-53,0-8-1-13-2-25-2-38,0-31,0-61-2-92,0-28-4-56-4-85,0-65-2-129-3-194,0-32,0-64-1-96,0-1,0-19,0-29,0-22-3-45-3-67,0-1,1-19,1-29,0-19,0-37,0-56,0-18,0-36,0-54,0-2,0-4,0-6,0-11,0-23,1-34,0-5,0-9,0-14-1,0-19,1-28,2-25,0-49,2-74,2-26,0-53-1-79,0-61,0-121,3-182,3-34,0-68,0-102,0-8,2-159,3-239,4-38,0-75,2-113,2-91,0-183,0-274,1-44,0-87,0-131,0-37,0-73,0-11,0-39,0-79,0-118,0-66,2-132,5-198,6-21,0-43,0-64,0-1,0-21,0-31,0-11,0-22,0-33,0-31,0-61,2-92,3-9,0-19,1-28,2-33,2-66,5-1,6-38,2-77,3-115,5-16,0-32,3-49,5ZM3,1515c3,0,6,0,8,0,27-2,53-7,8-5,6,0,11,0,17,0,4-2,79-4,119-6,25-1,49-3,74-4,19,0,39,0,58-2,15,0,31-2,46-2,29,0,57,1,86,1,21,0,43,0,64-1,35,0,71-1,106-2,22,0,45-3,67-3,49,0,97,0,146,0,66,0,133,0,199,0,5,0,101,0,151-1,39,0,78,0,117,0,54,0,109-3,163-4,47,0,93-2,14-2,48,0,95-4,143-1,21,1,42,0,63,0,26,0,51-1,77-1,28,0,55-1,83,0,42,0,84,1,126-2,1,0,19-1,29-6,0-1-1-2-1-3-1-36-2-73-3-109,0-26,0-51-2-77-2-43-4-85-6-128,0-16,0-33-2-49-4-32-3-64,0-96,3-4,3-79,3-119,0-46-3-92,0-138,2-38,3-76,4-114,0-1-1-21-1-31,0-2-1-41-2-61,0-11,0-21,0-32,0-27,0-54-2-81,0-25-2-49-3-74,0-5,0-9,0-14,4-25,3-49,2-74,0-2,0-4,0-6,0-19,0-39,0-58,0-13-3-27-1-4,2-14,2-27,0-41,0-4,0-9,0-13,0-9,0-17,0-26-19-1-37-3-56,0-7,0-14,0-21,0-4,0-9,0-13,0-3,1-59,3-89,4-4,0-79,6-119,2,0,0,0,0,0,0-51,1-102,1-153,0-54,0-107-3-161-6-44-3-88,1-132,8-6,0-13,1-19,1-21,0-42,0-63,0-45,0-9,0-135,0-29,0-59,2-88,2-13,0-25-2-38-1-2,0-39,1-59,1-25,0-5,0-75,0-43,0-87-3-13-3-48,0-95,0-143,6-6,0-11,0-17,0-17,0-35,0-52,2-39,2-78,3-117-1-24-2-49-3-73-3-36,0-72,2-108,3-27,0-54,0-81,0-2,0-5,0-7,0-2,0-4,0-6,0-16,0-33,0-49-1-22,0-44,0-66-2-15-1-29,4-45,3,0,5,2,1,2,14,1,9,3,18,4,27,0,31,6,62,5,93,0,3,0,5,0,8,0,6,0,13,0,19,0,13,0,25,0,38,2,36,6,72,7,109,0,31-1,63,0,94,0,43,3,86,4,129,0,26,0,52,0,78,0,26,0,52-2,78,0,34-2,67-3,101,0,33,0,66-2,99-2,45,0,89,0,134,0,63,1,125,2,188,0,22,2,44,2,66,0,33,0,65,0,98,0,36,0,72,0,108,0,4,0,8,1,13Z"/>
      <path class="cls-1" d="M1657,387c4,3,11,1,14,7,1,3,4,5,4,8,6,35,11,7,16,105,8,58,16,117,24,175,4,28,6,56,1,84,6,44,12,87,18,131,3,23,7,47,1,7,4,25,8,51,11,76,2,16,4,32,5,48,1,17,5,33,11,49,2,4,3,9,4,13,1,1-1,13-11,15-9,2-18,4-28,4-5,3-98,14-147,22-3,5-6,12-9,17-27,5-55,8-82,13-29,6-58,12-87,19-19,4-39,7-58,11-6,1-12,3-18,4-7,2-14-3-15-1-5-22-1-45-14-67-1-6-2-11-3-17-2-13-5-15-18-14-12,0-23,3-35,4-29,4-58,7-87,11-45,6-89,13-133,19-8,1-16,1-24,2-19,2-39,3-58,7-15,3-3,8-44,13-22,8-44,17-66,26-21,8-42,17-63,26-2,8-4,17-61,25-9,4-16,9-23,15-18,15-38,26-62,26-3,0-7,0-1,0-19,4-38,0-58-2-23-1-45-2-68-1-9,0-19,4-28,7-4,1-8,5-11,8-2,2-2,5-2,7,2,0,5,2,7,2,2,0,3,0,5,0,1-2,2-4,31-5,6,0,12,0,19-1,1,34,1,65,18,97-4,0-7,2-1,2-23,2-46,2-69,5-34,4-69,9-103,14-7,0-9,0-1-9-2-18-4-36-6-55,0-7-1-13-2-2,0-9,2-12,11-13,13-2,26-4,39-6,1-2,2-5,3-7-3-9-4-11-12-1-8,0-16,1-24,3-15,4-28,0-42-4-4,0-8-5-9-8-3-6-6-14-7-21-4-35-8-7-12-105-2-2-3-4-6-6-4-19-3-39-5-59-2-12-4-24-5-37-2-14,3-27,1-38,3-4,8-8,12-1,1-3,2-6,3-8,26-5,52-11,78-16,4,0,9-1,1-8-3,0-6,0-9,0-23,3-45,7-68,1-2,3-2,5-24-15-3-14-6-29-9-43-2-9-3-18-5-27-2-14,0-16,14-19,25-5,5-9,75-14,7-1,14-2,21-7-3-7-8-1-15-1-6,0-13,0-19,0-16,2-31,4-46,6-5,0-1,2-15,0-4-1-9-5-12-9-6-1-13-2-1-33,0-3-1-6-2-9-4-19-8-37-11-56-5-25-1-5-14-76-5-26-1-52-13-78-2-17,7-3,26-36,16-5,33-1,49-14,14-4,28-9,4-18,4-3,7-6,12-11-12,0-2,0-29,0-4,0-7,0-11,2-7,2-13-2-15-1-2-6-2-12-3-18-2-12-4-24-6-36,0-3,0-5,0-8,0-7,2-1,9-11,24-4,47-9,71-12,23-3,46-4,69-6,13-1,17,1,19,14,3,18,5,37,7,55,0,1,0,3,0,4,1,1-3,15-13,15-2,0-4,0-6,0-4,0-9,0-13,2-3,0-5,4-7,6,2,2,3,5,6,6,6,5,12,7,2,6,23-3,47-6,7-1,7-1,14-3,2-4,15-2,29,2,39,14,6,7,13,12,23,14,26,6,51,11,77,17,23,5,46,11,69,16,21,5,43,1,64,15,11,2,21,2,32-1,2-6,41-9,62-12,3-5,6-1,91-14,33-5,66-8,99-13,16-2,32-5,48-7,2-9-1-17-2-25,0-2-1-4-1-6-1-8,2-12,9-15,18-6,35-11,54-14,41-6,81-14,122-2,23-4,47-6,7-9,44-6,87-12,13-19,13-2,25-6,38-9,7-1,14-1,21-3,22-5,44-9,66-14,9-2,18-6,26-9,3-1,6-3,9-6ZM1483,1106c3,0,6,0,9,0,0,0,0,0,0,0h-1c-5,0-9,1-14,2-4,0-7,1-11,2,0,0,0,0,0,1,3-1,7-2,1-3,5,2,1,2,14-2ZM1281,113c3,0,5,0,8,0-3,0-5,0-8,0-3,0-6,0-9,1-11,1-23,2-34,4-2,0-3,1-6,3,4,0,5,1,7,1,13-2,27-4,4-7,1,0,2-2,3-2ZM509,537c4,0,9,0,13,0,8,0,15-3,23,2-3-6-3-7-7-6-1,0-19,2-29,3-12,0-23,1-35,2-9,0-17,2-26,3,0,0,0,1,0,2,19-2,38-4,56-6,1,0,3-2,4-2ZM573,693c0,5,0,9,0,14,0,0,2,0,2,0l-2-14c2,8,4,15,7,23,0-1,0-2,0-3,0-1-3-2-4-3-1-1-2-2-3-3,0-9,0-19-5-28,0,21,2,41,4,62,0,11,1,22,2,33ZM306,439c-5,1-11,3-16,3-6,0-12,0-2,1,2,16,3,31,5,46,1,1,3,11,13,11,16,0,32,0,48,0,29,2,58-5,86-8,0,0,0,0,2-2-2-11-4-23-6-35,2,4,4,9,6,14,1-9-1-15-5-23,0,4,0,6,0,9-2-6-4-12-5-18-1-5-3-7-8-6-33,3-66,5-99,8,0-1-1-3-1-3-6,0-11,2-17,3,0,0,0,1,0,2,6,0,12-1,18-2ZM1271,1225c15-2,29-4,42-6,25-4,49-9,74-14,51-9,102-18,153-26,61-1,122-2,183-3,1-2,2-4,3-6,0-6,0-12,0-17,0-34-9-67-14-1-4-22-8-45-11-67-5-35-8-7-12-105-4-31-9-62-12-93-4-35-7-71-12-106-6-44-13-88-2-131-5-28-11-56-16-83-2-7-3-9-8-7-16,3-32,4-48,6-32,4-64,8-96,14-53,9-106,18-16,27-48,8-97,16-145,25-2,4-39,1-58,15-1,3-1,3-7,15,12-1,24-2,36-4,47-7,94-15,141-22,43-7,87-14,13-2,47-7,93-15,14-25,13-3,26-6,39-1,4-1,7,0,8,4,1,3,2,7,3,11,2,8,3,17,5,25,1,35,16,71,25,106,4,16,1,32,14,48-6,8-14,11-24,9-2,0-4,0-6,0-41,6-82,11-123,18-46,8-92,17-137,26-21,4-41,8-62,11-14,2-28,3-42,5-34,5-67,11-101,17-6,1-12,3-19,4,0,4,0,7,0,1,3,13,5,27,8,4,2,8,4,15,5,23,2,14,3,28,6,42,6,34,13,67,19,101,2,1,5,2,8,31,4,0,7,0,1,0,24-3,48-5,73-8,38-4,76-9,114-13,44-5,88-8,131-13,32-3,64-7,96-16,8-2,17-4,26-5,11-1,13,0,15,11,3,14,5,29,8,43,6,3,13,61,19,91,0,3,0,6,1,1-5,0-8,0-12,1-3,4-59,8-89,12-27,4-53,1-8,13-2,3-41,4-62,6-38,5-76,11-114,16-29,4-59,7-88,11-2,0-4,1-7,2,3,28,9,54,19,8ZM1143,735c-7,0-13,0-19,0-18,2-36,4-55,6-21,2-41,4-62,6-13,1-26,4-39,5-51,3-101,1-151,17-25,3-49,7-74,1-17,2-34,4-52,5-34,3-69,3-102,11-5,1-9,3-13,7-9,11-21,18-36,18-11,0-21,2-32,2-25,1-49,2-73,11-8,3-9,4-1,15,11-1,23-2,34-3,7,0,13-2,19-4,9-3,13-1,16,8,3,8,5,15,7,23,6,22,11,44,17,66,2,7,0,9-5,1-8,2-16,3-24,5-21,3-43,6-64,1-2,0-3,1-6,3,9,5,17,5,26,4,1,0,21,0,31-1,11,0,21-1,32-2,9,0,18-2,27-2,23,0,41,8,53,27,1,2,4,4,7,5,31,9,61,18,92,26,37,1,73,2,111,22,8,0,16-1,25-3,8-2,17-5,25-7,14-3,29-6,43-8,44-8,88-16,133-23,49-7,98-12,147-18,6,0,13-2,19-4-16-83-31-165-47-248ZM1574,489c-3,0-6,0-9,0-22,3-44,7-66,11-24,4-48,8-72,11-4,6-81,11-121,16-8,1-15,3-23,4-19,3-38,6-57,9-2,3-4,6-6,9-11,2-23,4-35,6,7,54,18,106,27,159,4,0,7,0,1,0,7,0,13-1,2-2,3-4,6-7,9-11,22-3,44-8,66-11,26-4,51-8,77-12,2-3,4-8,6-12,32-6,63-12,95-18,6-1,11-3,16-4,16-3,33-6,49-9,9-2,11-5,9-14-5-25-1-51-15-76-1-7-3-13-5-19-3-12-6-24-9-36,0-3-2-6-3-9-7,1-15,0-21,6,2,5,4,11,7,16,9,21,19,41,28,62,0,2,0,4,0,6-1,4-9,9-13,9-6,0-7-5-8-9-7-19-14-37-21-56,0-2-2-4-3-6,0,0-1,0-2,0,0,7,0,14-2,22,0,9-5,12-13,9-6-2-12-5-17-8-4-2-7-4-13-3,7,31,18,6,25,92-3,0-5,0-7,0-1,0-12,0-14-11-6-31-11-63-17-94-1-7,0-9,7-9,3,0,6,0,9,0,7,3,14,6,21,1,2,1,4,2,7,4,2-1,3-19,4-29ZM1202,997c1,45,2,89,3,133,4,0,7,0,1,0,41-4,81-9,122-13,42-5,83-1,125-15,29-4,58-8,87-12,25-3,51-6,76-9,11-1,21-3,31-6,9-2,1-5,8-13-3-14-7-29-1-43-3-15-5-3-7-45-1-8-2-17-4-25-3-8-4-13-16-8-2,0-3,0-5,1-31,5-61,9-92,14-44,7-89,1-134,13-27,2-54,4-82,8-44,6-88,13-132,19-3,0-5,1-9,2ZM811,75c4,0,6,0,8,0,14-3,27-6,41-8,31-4,63-8,94-11,2-2,39-3,59-5,36-4,72-9,108-13,8-1,17-3,25-4,0-3,0-4,0-6-3-49-13-96-21-144-1-8-3-9-12-8-17,2-34,4-51,6-44,6-89,13-133,2-23,3-45,7-68,11-21,4-43,4-64,12-18,7-21,2-17,27,6,31,14,62,21,94,2,1,6,2,9,3ZM1194,999c-13,2-25,4-38,5-2,2-41,4-61,7-38,5-75,9-113,15-25,4-51,8-76,13-12,2-24,6-36,8-2,4-39,7-59,12-1,2-12,5-11,15,2,27,4,54,14,8,0,2,2,4,2,7q4,15,2,14c0,0,2,0,3,0,23-5,46-8,69-8,2,0,4,0,6,0,38-4,77-9,115-13,32-3,64-6,95-9,22-2,43-5,65-7,11-1,22-3,34-5-7-45-19-88-31-132ZM579,781c0-5,0-1-1-14-1-1-2-2-3-3,0-6,0-11-1-17-2-17-4-34-7-5-4-23-7-46-11-69-2-1-5-19-8-29-3-7-6-13-7-21,0-8-3-9-11-9-15,0-31,1-46,3-26,2-52,6-77,8-12,1-24,2-36,3-23,3-47,6-7,8-1,1-2,3-31,5-16,3-32,6-49,9,0,9,0,17,1,25,1,11,4,22,5,33,4,36,7,72,1,108,2,17,4,34,6,52,0,5,3,1,4,15,17-1,33-2,49-4,24-2,47-4,71-6,19-2,38-4,57-6,16-2,32-3,48-5,21-2,42-5,64-7,15-1,29-2,45-4ZM625,1268c-2-2-4-38-9-56-3-12-7-24-1-37-6-31-12-61-18-92-4-24-8-49-13-73-1-7-2-8-9-7-5,0-1,1-15,2-34,3-68,5-102,8-7,0-14,1-21,1-21,1-43,2-64,3-11,0-22,0-33,1-29,4-57,8-86,13-8,1-11,6-1,14,0,5,2,9,3,14,2,19,4,37,6,56,3,32,6,64,9,95,3,24,6,48,9,71,1,11,2,11,13,11,17-1,34-3,52-5,24-2,47-5,71-6,28-2,57-2,85-4,43-2,86-5,13-7,3,0,7,0,12-2ZM28,963c75-1,149-19,223-29-2-27-8-52-14-78-5,0-1,0-15,0-3,0-7,1-1,2-17,2-35,4-52,7-39,6-78,12-117,19-6,0-12,2-18,3-13,2-15,6-13,18,0,4,2,7,3,11,2,8,4,16,6,24,2,7,4,15,7,23ZM716,1044c-3,0-5-1-8-2-12-3-24-7-37-1-21-6-41-13-62-2-3,0-6,0-9-1,0,3,0,6,0,8,4,15,8,3,11,46,9,36,18,72,26,109,4,2,6,4,9,6,0,4,2,8,3,14,1-2,1-2,1-3,1-57-3-114-7-172,0-13,0-25,0-38,0-3,0-6,6-6,9,32,18,64,28,95,1,31,22,62,33,94h2c0-2,0-4,0-6,0-22-1-45,0-67,1-28,4-56,2-85,0-5,0-9,0-15ZM433,1356c-7,0-13,0-2,0-36,0-71,3-106,1-8,1-16,4-23,5-5,1-8,5-8,1,0,8,0,15,0,23,0,7,1,14,0,21,0,13,0,14,14,13,26-2,51-4,77-6,21-2,42-3,63-5,5,0,1-2,16-3,0-1,0-2-2-29-3-13-7-25-11-39ZM589,782c22-3,42-6,62-1-8-24-84-208-91-217,2,7,3,12,4,16,3,12,7,24,9,36,4,36,7,72,1,107,1,18,2,36,3,54,0,4,2,9,3,14ZM646,748c0,0,1,0,2,0,0-6-1-11-2-17-4-52-8-105-12-157,0-5-2-7-6-9-15-4-29-9-44-13-6-2-11-3-18-4,24,69,55,133,81,2ZM658,1266c2-9,39-18,57-26-6-16-11-32-17-48-5-16-11-32-16-47-5-16-11-32-16-48-5-15-7-32-15-48-1,3-2,5-2,6,1,64,9,128,7,193,0,6,1,11,2,19ZM648,569c2,3,5,171,63,186,0-3,0-5,0-6-4-17-4-34-2-52,1-11,2-23,3-34,1-15,2-31,3-46,0-1,0-19,0-3-21-6-43-12-66-19ZM709,768c-8-22-17-43-24-64-8-21-15-43-23-64-7-21-13-42-2-63,0,0-2,0-2,0,0,12,0,24,2,36,1,21,3,41,5,62,1,19,2,38,5,57,2,13,5,27,8,4,9,0,17-2,25-2,8,0,16-1,26-2ZM721,1239c17-8,33-16,48-24-6-19-11-37-16-55-5-18-11-36-16-55-5-18-1-36-15-54-4,7-4,14-4,21,0,5,0,11,0,16-2,33-5,65-4,98,0,17,3,34,7,53ZM718,766c16-4,32-3,48-7,0-4-1-7-2-9-6-2-12-4-17-6-8-31-15-63-23-94,0-2-2-3-3-5-1,1-2,2-2,2,0,14-1,28-2,42-2,21-3,42-5,63-3,23,1,46,7,69ZM727,1046c2,1,3,18,5,25,6,22,13,45,19,67,4,15,8,31,12,46,2,6,3,13,9,18,0-48,2-95,1-142-17-8-35-11-55-15ZM651,1269c-2-11-5-21-6-3-4-35-1-69-19-103-1-39-2-78-3-117,0-3-1-6-6-8,4,22,8,42,11,62,4,21,7,41,14,61,2,5,2,11,3,17,0,9,0,18,2,27,5,32,1,64,15,98,5-2,1-3,15-5ZM765,74c-3-38-5-76,1-114,0-5,0-11,0-17,0-3-3-7-5-8-1-3-2-6-3-9-2,16,24,122,36,148ZM772,639c-8,15-5,98,3,119,12,0,14,0,21-3-8-38-16-76-24-116ZM239,1013c0,0,0,2,0,3,3,0,6,0,9,0,11-2,21-4,32-5,22-2,43-4,65-7,28-4,56-7,85-6,21,0,41,0,62-4,4,0,8-1,12-1,21-2,42-3,64-5,0,0,2,0,4-2-2,0-3,0-4,0-2,0-41,2-61,3-2,0-39,1-59,2-17,0-35,1-52,3-42,4-83,9-125,14-1,1-21,4-31,6ZM807,1199c-2-3-3-6-5-9-3-9-8-17-1-26-3-14-4-28-6-42,0-5-1-9-2-14,0-5,0-9-1-14-7,24-9,101-4,117,9-4,18-8,28-12ZM614,129c0-1,0-2,0-3-11,1-22,2-34,3-21,2-42,5-63,7-26,2-53,2-79,5-47,5-95,1-142,16-9,0-12,2-17,6,13-1,26-3,38-4,21-2,42-4,63-7,4-6,8-6,119-9,35-3,7-6,105-1,3,0,5-2,8-3ZM55,981c0,0,0-2,0-2-4,0-8-1-13-1-19,0-39,0-58,2-26,3-53,3-8,5-28,2-55,5-82,9-6,0-11,3-17,4,0,0,0,1,0,2,6,0,11,0,17-1,23-3,47-7,7-8,46-3,92-4,139-6,8,0,16-1,23-2ZM23,562c64-1,126-21,188-31-15-2-29-1-44,1-22,4-44,7-66,1-14,2-28,5-42,8-12,3-24,4-36,11ZM396,13c2,0,4,0,6,0,39-3,78-5,117-8,22-2,45-5,67-7-26-4-162,8-19,16ZM559,793c-6,0-13,0-19,0-11,0-22,2-33,3-8,0-15,0-23,2-2,4-41,4-62,5-15,0-3,2-47,7,34,2,172-1,183-17ZM257,834c0,1,0,2,0,3,25,0,5-8,75-11,25-3,51-8,76-12,0,0,0-2,0-2-16,2-33,2-48,5-18,3-35,6-53,8-17,2-33,6-5,9ZM455,1288c0,0,0-2,0-3-1,0-2,0-29,2-34,4-68,9-103,14-1,1-21,2-31,4-11,2-22,4-32,2,0,0,0,0-1,1,4,7,5,7,12,6,13-3,25-6,38-8,9-2,19-1,29-2,27-3,55-7,82-11,12-2,24-3,35-4ZM409,1287c0,0,0-1,0-2-48,2-95,8-144,15,7,4,13,3,18,3,32-4,65-8,97-12,1-1,2-2,29-4ZM566,633h0c0-6-2-12-2-18,0-22-8-43-12-65,0-5-4-6-1-4,8,29,15,58,23,87ZM616,1204c0,0,1,0,2,0-7-48-17-96-29-144,0,0-2,0-2,0,1,48,19,96,29,144ZM531,525c-41,0-81,5-122,14,41-1,81-7,122-14ZM296,836c0,0,0,2,0,2,7-1,14-3,22-4,8-1,15-2,23-2,7,0,14,0,21-2,15-3,3-6,45-9,2,0,4-1,7-2,0,0,0-1,0-2l-117,19ZM433,815c6,6,1,5,15,4,22-2,44-5,66-7,5,0,11-2,16-2-32,0-64,0-97,5ZM214,585c-1,34,8,66,12,99,2-34-8-66-12-99ZM41,979c0-1,0-2,0-3-2-1-5-3-7-3-14,2-28,4-42,6-2,0-3,2-5,3,0,0,0,1,0,2l53-5ZM42,826c-4,0-6-1-8,0-16,0-31,8-46,11-2,0-4,2-6,2,19,0,52-6,61-12ZM328,533c18-2,36-3,55-8-15-4-48,0-55,8ZM41,837c-11-3-42,4-48,11,16-3,3-5,45-8,1,0,2-2,3-3ZM416,433c-2-7-2-8-8-8-12,0-25,0-37,0-6,0-12,2-18,3,0,0,0,1,0,2,17,0,34-1,52-2,6,0,6,0,1,4ZM296,1326c0,0,0,1,0,2,4,0,7,0,11,0,1-2,21-4,31-4,14,0,28-2,41-8-28,4-56,7-84,11ZM366,854c4,0,38-2,4-4,1,0,3-3,2-4,0-1-3-3-4-3-12,2-25,5-37,8,0,0,0,1,0,3ZM791,1123c1,21,3,42,15,61-5-2-1-4-15-61ZM551,1277c24,1,49,3,73,0,0,0,0-2,0-2-24,1-48,2-72,3ZM1518,1104c0,0,0,2,0,3,19-4,38-7,56-11,0,0,0-1,0-2-19,1-38,5-56,1ZM345,815c-17,2-35,0-51,7,17-1,35,0,51-7ZM376,517c-9-4-32,0-4,5,7,1,34-2,4-5ZM485,1308c24,2,47,0,7-5-23,2-47,3-7,5ZM1212,989c0,0,0,2,0,2,17-2,34-4,51-7-17,0-35,0-52,4ZM486,523c12,0,24-1,37-2,0,0,0-1,0-2-12-3-24,0-36,4ZM1403,112c0,0,0-1,0-2-8,1-16,2-24,3-8,1-15,3-23,4,0,0,0,1,0,2,16-2,32-5,47-7ZM256,1023c0,0,0,1,0,2,14-2,27-4,41-6,0,0,0-2,0-2-14,2-27,4-41,6ZM342,552c0,0,0,1,0,2,14-2,28-4,43-6,0,0,0-2,0-3-14,2-28,4-42,6ZM562,131c0,0,0-1,0-2-11,1-21,3-32,4,0,0,0,1,0,2,1-1,21-3,31-4ZM348,133c9,1,15,0,22-5-4,0-8,0-11,1-4,0-8,0-11,4ZM401,964c0,0,0-2,0-3-8,0-15,2-23,3,0,0,0,1,0,2,7,0,15-1,22-2ZM368,1004c0,0,0,1,0,2,8,0,17-2,25-2v-2c-9,0-17,2-25,2ZM356,512c-6,0-13-3-18,2,6,0,12-2,18-2ZM302,1309v2c8,0,16,0,24-1,0,0,0,0,0,0h-23ZM381,508c0,5,2,9,8,1q-3-1-8-1ZM467,131s0,0,0,0h-19s0,0,0,0h19ZM588,1032s0,0-1,0c1,5,3,11,4,16,0-4,0-9-1-13,0-1-1-2-2-4ZM519,1279s0,0,0,0h16s0,0,0,0h-16ZM228,718c0,0,1,0,2,0,0-5-1-9-2-14,0,0,0,0,0,0,0,4,0,9,1,13ZM266,56c0,0,0,1,0,2,4,0,8-2,12-2,0,0,0,0,0-1-4,0-8,1-12,2ZM355,1337v2c4,0,7-1,1-2,0,0,0-2,0-2-3,0-6,1-1,2ZM58,736c0,0,1,0,2,0v-7s0,0,0,0c0,2,0,5,0,7ZM427,977c0,0,0-1,0-2-3,0-5,0-8-1,0,0,0,1,0,2,3,0,5,0,8,1ZM433,545s0,0,0,1h6c0,0,0,0,0-1h-6ZM441,978h0c-2-2-3-2-5-2,0,0,0,1,0,2,2,0,3,0,5,0ZM387,1302s0,0,0-1c-2,0-4,0-6,0,0,0,0,0,0,0h6ZM363,1346c0,0,0-1,0-2-3,0-5,0-8,0,0,0,0,1,0,2,3,0,5,0,8,0ZM579,1308h0c-1,0-2,0-4,0,0,0,0,0,0,0,1,0,3,0,4,0ZM287,133s0,0,0-1h-6s0,0,0,1h6ZM41,547c0,0,0,1,0,2,2,0,3,0,5,0,0,0,0,0,0-1-2,0-4,0-5,0ZM134,1127s0,0,0,0h5s0,0,0,0h-5Z"/>
      <path class="cls-2" d="M1271,1225c-1-26-16-52-19-8,3,0,5-2,7-2,29-4,59-7,88-11,38-5,76-11,114-16,2-3,41-3,62-6,27-4,53-9,8-13,3-5,59-8,89-12,4,0,7,0,12-1,0-4,0-7-1-1-6-3-13-61-19-91-3-14-5-29-8-43-2-11-4-12-15-11-9,0-17,2-26,5-31,9-63,12-96,16-44,4-88,8-131,13-38,4-76,9-114,13-24,3-48,5-73,8-3,0-6,0-1,0-3-1-6-2-8-31-7-34-13-67-19-101-2-14-3-28-6-42-1-8-3-16-5-23-3-13-5-27-8-4,0-3,0-6,0-1,7-1,13-3,19-4,33-6,67-11,101-17,14-2,28-3,42-5,21-3,41-7,62-11,46-9,91-18,137-26,41-7,82-12,123-18,2,0,4,0,6,0,1,2,17,0,24-9-5-16-1-32-14-48-9-35-14-71-25-106-2-8-3-17-5-25,0-4-2-7-3-11-1-4-4-5-8-4-13,3-26,7-39,1-46,1-93,18-14,25-44,6-87,14-13,2-47,7-94,15-141,22-12,2-24,3-36,4-4-12-3-12,7-15,19-5,38-11,58-15,48-9,96-17,145-25,53-9,106-18,16-27,32-5,64-1,96-14,16-2,32-2,48-6,5-1,6,0,8,7,6,28,12,55,16,83,7,44,14,87,2,131,5,35,7,71,12,106,4,31,9,62,12,93,4,35,7,7,12,105,3,22,7,45,11,67,6,33,13,66,14,1,0,5,0,11,0,17-1,2-2,4-3,6-61,1-122,2-183,3-51,9-102,17-153,26-25,4-49,9-74,14-14,2-28,4-42,6Z"/>
      <path class="cls-2" d="M1143,735c16,83,31,165,47,248-7,1-13,3-19,4-49,6-98,11-147,18-44,7-89,15-133,23-14,3-29,5-43,8-8,2-17,5-25,7-8,2-16,3-25,3-38-2-75-12-111-22-31-8-62-17-92-26-3,0-5-3-7-5-13-19-31-28-53-27-9,0-18,1-27,2-11,0-21,1-32,2-1,0-21,0-31,1-8,0-16,0-26-4,3-1,5-3,6-3,21-3,43-6,64-1,8-1,16-3,24-5,6-1,7-4,5-1-6-22-11-44-17-66-2-8-4-15-7-23-3-9-7-1-16-8-6,2-13,3-19,4-11,1-22,2-34,3,0-11,2-12,1-15,24-9,48-1,73-11,11,0,21-2,32-2,15,0,27-7,36-18,3-4,7-6,13-7,34-8,68-9,102-11,17-1,34-3,52-5,25-3,5-6,74-1,5-7,1-14,151-17,13,0,26-3,39-5,21-2,41-3,62-6,18-2,36-4,55-6,6,0,11,0,19,0Z"/>
      <path class="cls-2" d="M1574,489c-1,1-3,19-4,29-3-1-5-2-7-4-7-3-14-7-21-1-3-1-6-1-9,0-7,0-8,2-7,9,5,31,11,63,17,94,2,1,4,11,14,11,2,0,4,0,7,0-6-31-18-61-25-92,6-1,1,1,13,3,6,3,11,6,17,8,8,3,13,0,13-9,0-7,1-14,2-22,0,0,1,0,2,0,1,2,2,4,3,6,7,19,14,37,21,56,2,4,2,9,8,9,3,0,12-5,13-9,0-2,0-4,0-6-9-21-19-41-28-62-2-5-4-1-7-16,6-5,14-4,21-6,0,3,2,6,3,9,3,12,6,24,9,36,2,6,4,13,5,19,5,25,1,51,15,76,2,1,0,12-9,14-16,3-33,6-49,9-6,1-11,3-16,4-32,6-63,12-95,18-2,4-4,8-6,12-26,4-51,8-77,12-22,4-44,8-66,11-3,4-6,7-9,11-7,0-13,2-2,2-3,0-6,0-1,0-9-53-2-105-27-159,12-2,24-4,35-6,2-3,4-6,6-9,19-3,38-6,57-9,8-1,15-3,23-4,4-5,81-11,121-16,24-3,48-7,72-11,22-3,44-7,66-11,3,0,6,0,9,0ZM1315,648c0-1,0-2,0-2-6-25-12-5-18-76,0-2-1-4-2-7-2-4-3-8-9-7-5,0-9,5-1,1,0,3,0,6,0,9,1,5,3,9,4,13,0,4,2,8,2,12-6,3-1,6-16,9-6-16-2-34-13-48-3,2-5,3-8,4-7,4-8,6-6,13,0,3,2,6,3,9-9-9-21-9-31-12-11-3-21,0-3,3-9,4-11,8-1,17,3,16,6,33,1,49,2,9,4,17,7,26,1,5,4,9,11,9,0-2,0-4,0-5-1-6-3-12-5-18-2-5,0-7,4-1,14-8,33-4,42,1,3,5,7,9,14,1,0-9-3-16-9-21-5-5-12-1-18-15,4-4,8-7,1-12,3-4,4-1,7-16,1,2,2,4,2,5,3,14,7,27,9,41,3,15,5,17,18,9,0,0,0-1,1-2-2-11-5-23-8-36,6-2,11-4,17-6,3,11,7,2,9,3,3,12,3,13,15,8,1,0,3-2,4-2ZM1347,657c12-5,15-11,12-21-3-9-5-19-6-28,0-6,0-13,2-2,3-9,8-18,12-27,5,6,5,7,13,4,6-2,12-4,18-6,9,27,11,55,11,83,8-2,15-4,21-6,2-6,2-11-2-16-1-2-3-5-3-7-3-15-6-29-9-44,0-4-2-9-3-13,1-7,22-6,31-14-5-5-1-5-15-4-19,4-38,9-55,13-6-2-11-4-16-7-7,11-13,21-19,33-5-4-9-8-12-12-3-3-5-6-7-1-3-4-6-4-9,0-2,1-3,3-4,4-4,6-4,7,0,13,5,6,9,11,16,15,2,1,4,3,5,6,6,17,14,34,16,52,0,4,2,7,3,12ZM1467,632c3,0,4,0,5,0,12,0,13-2,9-14-5-12-8-24-8-37,0-3,0-7,2-8,8-6,16-11,27-8,2,17,4,35,6,53,2,0,4,1,6,2,8,3,13-3,18-7,5-4,2-8,0-13-1-25-2-49-2-77,0-3-1-6-2-9-1-4-4-6-8-5-5,1-1,3-15,5,3,13,7,25,1,37-9,2-18,5-26,7-5-12,0-26-1-37-3,0-5,1-7,2-8,4-8,6-6,14,1,4,3,8,3,13,3,19,7,39,1,58,1,8,3,15,4,24Z"/>
      <path class="cls-2" d="M1202,997c4,0,6-2,9-2,44-6,88-13,132-19,27-4,54-6,82-8,45-4,9-6,134-13,31-5,61-9,92-14,2,0,3,0,5-1,12-5,13,0,16,8,3,8,3,16,4,25,2,15,5,3,7,45,3,14,7,29,1,43,2,8,0,11-8,13-1,3-21,5-31,6-25,3-51,6-76,9-29,4-58,8-87,12-42,5-83,1-125,15-41,5-81,9-122,13-3,0-6,0-1,0-1-44-2-88-3-133ZM1422,1076c0-1,0-2,1-4,3-7,3-8-5-11-3-1-6-2-9-3-8-3-9-5-7-14,1-7,2-14,1-22,0-9-4-13-13-15-6-1-13-2-2-2-4,0-5,3-5,6,0,7,0,13,1,2,2,1,4,2,7,3,4,13,8,25,12,38,0,2,2,3,3,4,0,0,1,0,2,0,0-14-1-27-9-41,1-3,18-3,25,5,4,4,9,9,16,8ZM1306,1028c4-3,5-6,2-9-4-4-9-8-14-11-9-5-19,0-22,1,0,2-1,3-2,5-5,9-4,14,3,21,3,3,7,5,11,7,11,8,19,18,2,33,0,6-3,1-8,13-11,4-27-8-25-2,0,0,0-2,0-3-3,0-6,0-1,0,4,12,1,22,2,29,8,5,17,5,25,0,8-5,11-13,9-22-1-8-5-15-11-21-5-5-1-9-15-14-4-4-8-8-11-13-5-8-2-13,8-14,4,0,8,0,12,0,2,3,4,6,7,1ZM1596,966c0,0,0-2,0-3-6,0-13-1-18,0-8,2-16,6-24,9-5,3-1,7-1,14,0,2,5,4,13,59,2,4,5,8,9,1,3,1,8,0,11-2,5-3,13-2,17-11-9,0-16,7-25,5-2-9-5-18-8-28,12-5,24-1,37-15-2-2-2-2-3-2-12,4-24,8-37,12-5-8-5-8-4-16,0-3,1-7,1-1,0-5,2-8,7-1,9-3,18-6,26-9,3-1,6-3,8-4ZM1619,1013c-4,3-3,6-2,9,6,18,24,23,38,19,13-4,19-15,16-28-2-1-9-16-18-2-6-2-13-4-19-7-4-2-8-4-11-7-4-4-3-9,2-13,6-5,12-5,15,0,2,3,3,6,5,9,0,0,2,2,3,1,1,0,2-1,3-2,3-7-6-19-14-18-5,0-9,2-13,4-13,8-13,19,0,27,3,2,7,3,1,5,5,2,11,5,16,7,7,3,13,2,9,26-1,2-4,5-7,5-4,0-9,0-13-1-5-2-9-6-13-9-3-2-5-4-8-6ZM1339,1094c-6-12-9-24-12-36,6-4,17,0,18-12-7,2-13,3-2,5,0-9-1-18-2-27,5-2,11-3,15-6,4-3,11,0,13-8-1,2-19,5-29,8-4,1-5,4-5,8,0,16-1,32,4,47,4,11,9,23,13,35,9-4,17-8,25-12,0,0,0-2,0-4-8,1-14,2-22,4ZM1414,1001c-4,4-2,7,0,1,9,21,18,41,3,59,3,4,5,8,8,12,4,4,8,3,9-3,0-6,0-12,0-18-3-21-6-42-9-63,0-1-1-3-2-4,0,0-2,0-2,0,0,12,2,25,3,37,0,12,1,25,2,37,0,0-1,0-2,0-3-5-7-11-1-16-3-5-6-11-9-17-3-6-5-12-8-18-3-6-2-13-7-18ZM1543,1054v-2c-5,2-8,3-11,5-14,7-21,4-26-1-6-18-3-35,8-51,0,0,1,0,3,0,3,4,6,8,1,13,5-6,1-1-1-14-6-8-11-8-17,0-5,6-9,12-1,2-3,16,0,3,8,44,3,6,8,11,16,1,9,0,17-5,22-13ZM1483,1078c0,0,2,0,2,0,2-4,4-7,2-12-5-13-1-27-11-41,0-9-3-17-4-26,0-1-2-2-3-5-2,8-3,14-1,2,5,19,9,39,14,58,0,2,1,4,2,6Z"/>
      <path class="cls-2" d="M811,75c-3-1-6-2-9-3-7-31-15-62-21-94-5-25-1-21,17-27,21-8,42-8,64-12,23-4,45-8,68-11,44-7,89-13,133-2,17-2,34-4,51-6,8-1,1,0,12,8,8,48,18,96,21,144,0,2,0,3,0,6-9,1-17,3-25,4-36,4-72,9-108,13-2,2-39,3-59,5-31,3-63,7-94,11-14,2-27,5-41,8-2,0-4,0-8,0ZM903,641c3-3,6-5,9-8,4-3,6-7,4-12-2-5-5-8-1-8-7,0-13-1-2,0-9,0-15,6-15,15,0,4,0,9,2,13,3,1,7,19,1,29,1,5,2,1,3,16,6,2,13,1,2,0,9-1,15-7,17-16,3-9-2-15-8-2-4-3-8-5-14-8ZM864,682c0,0,1,0,2-1,0-4-1-8-3-12-7-19-14-37-21-56-1,0-1,0-12,7-3,14-6,28-1,42-2,6-3,13-5,19-2,5,0,8,5,11,0-6,1-11,2-16,2-9,6-14,16-15,8-1,13,2,17,1,1,2,2,5,3,7,0,1,2,3,4,4ZM1016,595c0,3-2,5-1,7,0,6,2,12,4,17,4,1,3,19,1,29,0,3-3,6-6,8-9,6-17,4-23-6-6-1-9-21-9-33,0-2,0-4,0-7-6,5-6,5-6,9,2,7,3,15,5,22,3,1,9,18,17,24,6,5,18,6,24,3,6-4,8-1,8-17,0,0,0-1,0-2-4-17-7-34-11-51,0,0-1-1-3-3ZM924,643c1,9,3,18,8,25,8,12,2,14,31,6,1-7,13-2,1-32-3-1-9-19-17-25-1-8-19-7-25,4-3,7-5,15-7,23ZM108,667c0-1,1-3,0-4-2-9-4-18-6-27-2-11-4-22-5-33,0-6,0-7,7-9,3,0,5,0,8,0,7-1,14-3,22-4,2,0,5-1,4-6-2,0-4,0-6,0-16,2-33,4-49,7-5,0-9,3-14,5-3,1-3,3-2,5,8-1,15-2,23-3,5,24,6,49,18,7Z"/>
      <path class="cls-2" d="M1194,999c12,44,23,87,31,132-12,2-23,3-34,5-21,2-43,5-65,7-32,3-64,6-95,9-38,4-77,9-115,13-2,0-4,0-6,0-23,0-46,3-69,8,0,0-2,0-3,0q-16,1-2-14c0-2-1-5-2-7-11-26-13-53-14-8,0-1,1-13,11-15,19-4,39-8,59-12,12-2,24-6,36-8,25-5,5-9,76-13,38-5,75-1,113-15,2-3,41-4,61-7,12-1,24-3,38-5ZM9,1121c16-7,23-5,33,6,4,5,8,1,12,16,1,2,3,3,5,5,0,0,1-1,2-2-2-7-7-12-11-17-5-6-11-1-17-16,5-3,1-6,14-1,5-4,9-8,7-15-2-7-5-14-13-16-11-2-21-3-32,0-7,1-9,3-1,1,0,5,0,11,0,16,3,15,6,31,9,46,0,3,2,5,3,7,0,0,2,0,3,0-2-1-4-2-6-3ZM841,1128c5-3,8-5,12-7,14-4,2-15,24-27,3-1,0-17-1-2-11-4-22-1-32,4-2,1-4,4-5,7-3,8-4,15-2,23,5,19,1,39,15,58,0,1,1,2,2,3,1,0,2,0,2-1-2-13-4-26-6-4ZM1079,1064c3,3,5,4,6,6,6,9,13,18,19,27,5,8,12,14,22,18,0-7,5-7,9-8-11-26-21-5-32-75,0,0-2,0-3,0,2,22,18,4,2,64-3-2-4-2-5-3-14-1-25-23-34-38-2-3-4-8-9-9,0,2-1,2,0,3,4,23,9,45,13,68,0,3,3,5,5,9,4-7-2-1-3-15,0-5-2-1-3-16-1-5-2-1-3-15,0-5-1-1-2-17ZM1154,1075c6-2,11-4,16-6,6-1,1,1,1,8,0,8-3,15-8,21-6,8-12,8-18,0-1-13-15-28-13-45,0-11,7-16,19-18q7,13,14,14c-4-7-8-14-13-21-4-5-7-5-12,0-7,6-11,14-12,23-3,2,5,36,16,52,7,1,23,9,29-2,4-8,6-16,6-25,0-5-3-1-8-11-7-2-19,3-25,11ZM1031,1076c0,0,2,0,2-1-2-4-3-8-5-11-6-11-19-12-27-2-2,25-1,55,12,68,1,6,25,2,32-1-2,0-4,0-5,0-4,2-7,4-11,5-11,4-17,2-23-7-7-1-1-22-9-34,0-5,2-11,5-16,5-7,8-8,16-4,4,3,9,5,1,1,0,0,2,1,3,2ZM963,1057c0,0-1,0-2,0,0,8-2,16,0,23,3,14,8,28,12,42,0,2,1,5,3,6,3,3,7,5,11,7,0,0,0-1,0-2l-23-77ZM1046,1049c-3,8-3,11,0,18,3,11,6,22,9,34,2,7,5,14,7,22,2,0,3,0,3-2,1-1,2-2,3-4-12-22-14-46-22-69Z"/>
      <path class="cls-2" d="M579,781c-16,1-3,2-45,4-21,2-42,4-64,7-16,2-32,3-48,5-19,2-38,4-57,6-24,2-47,4-71,6-16,1-32,2-49,4-1-5-3-1-4-15-2-17-4-34-6-52-4-36-7-72-1-108-1-11-4-22-5-33,0-8,0-16-1-25,17-3,33-6,49-9,1-2,2-3,31-5,23-3,47-6,7-8,12-1,24-2,36-3,26-3,52-6,77-8,15-1,31-2,46-3,8,0,1,1,11,9,0,7,4,14,7,21,4,9,7,19,8,29,4,23,8,46,11,69,3,17,5,34,7,5,0,6,0,11,1,17,0,1,2,2,3,3,0,5,0,9,1,14ZM538,769s1,0,2,0c9,0,12-1,11-11,0-6-2-11-3-17-2-18-4-36-6-55-1-9-6-14-15-14-1,0-2,0-3,2-11,1-22,3-33,4-35,2-7,5-105,7-14,0-27,1-41,4-6,1-13,1-19,2-15,3-32,0-46,11-5,4-6,4-5,11,1,6,2,12,3,19,3,16,6,33,1,49,2,1,6,12,15,12,5,0,1,0,15,0,37-4,73-9,11-14,23-3,46-4,7-6,21-2,42-3,64-4ZM448,565c-4,0-6,0-9,0-2,2-39,4-59,6-15,1-29,1-44,1-14,0-27,0-41,0-15,1-3,5-45,7-9,1-11,3-11,13,0,12,0,23,2,35,0,9,2,18,3,28,1,12,3,14,14,14,3,0,7,0,1,0,14-2,28-4,42-5,4-3,79-6,118-12,1-1,19-2,29-4,6,0,7-2,6-9-1-4-3-8-4-12-3-17-6-33-8-5,0-4-1-8-2-13Z"/>
      <path class="cls-2" d="M625,1268c-5,0-8,1-12,2-43,2-86,5-13,7-28,1-57,2-85,4-24,2-47,4-71,6-17,2-34,4-52,5-1,0-11,0-13-11-3-24-6-48-9-71-3-32-6-64-9-95-2-19-4-37-6-56,0-5-2-9-3-14-1-8,2-13,1-14,29-4,57-9,86-13,11-1,22,0,33-1,21,0,43-2,64-3,7,0,14,0,21-1,34-3,68-5,102-8,5,0,1-1,15-2,7,0,8,0,9,7,4,24,8,49,13,73,6,31,11,62,18,92,2,12,6,24,1,37,5,18,6,37,9,56ZM584,1157c-5,0-9,1-13,1-4,1-79,3-119,3-5,1-101,2-151,3-1,0-2,4-29,7-7,2-8,6-8,12,3,21,5,42,8,63,0,6,2,13,3,19,2,1,6,12,15,1,16-3,33-5,49-7,2-2,4-2,6-3,36-2,72-5,108-7,29-2,59-3,88,1,1,0,2,0,4,0-15-33-17-68-16-103ZM518,114c2-9,0-19-2-28-3-21-6-42-9-63-1-8-2-16-3-25-2,0-4,0-5,0-11,0-22,2-33,2-27,0-53,0-8,0-28,0-56,4-83,1-13,3-27,3-4,5-6,0-8,1-9,7,0,3,0,5,0,8,2,2,4,4,7,6,2,13,4,25,7,37,3,11,6,13,17,1,12-2,25-6,37-7,22-3,44-6,66-8,43-4,86-6,13-9Z"/>
      <path class="cls-2" d="M28,963c-2-8-5-15-7-23-2-8-4-16-6-24,0-4-2-7-3-11-2-13,0-16,13-18,6-1,12-2,18-3,39-6,78-13,117-19,17-3,35-5,52-7,3,0,6-2,1-2,5,0,1,0,15,0,6,26,11,51,14,78-74,1-148,19-223,29ZM308,907c1-2,2-3,2-4-1-5-6-9-12-8-6,0-12,4-12,8,0,5,2,9,8,11,2,0,5,1,7,2,3,1,6,2,8,4,5,4,6,9,1,14-4,4-1,4-14,0-2-2-3-5-5-7,0,1-2,2-2,2,0,6,6,12,11,14,6,2,11-2,15-6,4-5,4-11,0-16-5-6-11-8-18-1-2,0-4-3-5-5,0,0,2-4,3-4,3,0,6,0,8,0,2,0,3,3,5,6ZM469,882v-3c-11,0-21,0-32,4-1,0-3,3-3,5-1,9-1,19,3,27,4,1,14,12,22,5,1,0,1-3,2-5-15,7-19,4-2-1,8-2,17-5,25-7,0,0,0-2,0-3-8,1-17,2-25,3-3-1-2-13,7-14,7-1,14-2,21-3ZM421,92c-5-5-1-9-14-13-4-4-6-1-9-15-5,2-4,6-4,9,0,1,0,19,3,29,4-7-1-15,2-22,1,4,13,18,26,18,1-16-4-3-5-44-5,12,4,24,0,37ZM37,91c0-3,0-7,0-9,3-7,11-4,18-7-6-6-12-3-17-2-3,0-5,3-6,6-1,9,0,17,2,26,2,5,6,7,11,7,4,0,9,0,12-5-7-2-18,5-19-9,6-3,11-5,17-8,0,0,0-2,0-3-5,1-11,2-17,4ZM349,91c2-6-1-9-4-11-3-3-7-2-1,0-7,7-12,24-2,35,6,6,13,8,2,3,1-1,2-3,4-7-4,2-6,3-8,3-6,2-11,0-15-5-5-9-2-21,7-27,2,2,5,5,8,8Z"/>
      <path class="cls-2" d="M716,1044c0,6-1,11,0,15,2,28-1,57-2,85,0,22,0,45,0,67,0,2,0,4,0,6h-2c-11-31-22-62-33-93-1-32-19-64-28-95-5,0-6,3-6,6,0,13,0,25,0,38,4,57,9,114,7,172,0,0,0,0-1,3-1-5-2-1-3-14-3-2-5-4-9-6-8-36-17-73-26-109-4-15-8-3-11-46,0-2,0-5,0-8,3,0,6,0,9,1,21,7,41,13,62,2,12,4,24,7,37,1,3,0,5,1,8,2Z"/>
      <path class="cls-2" d="M433,1356c4,13,9,26,11,39,2,9,1,18,2,29-6,1-11,2-16,3-21,2-42,4-63,5-26,2-51,4-77,6-13,1-14,0-14-13,0-7,0-14,0-21,0-8,0-15,0-23,0-5,2-9,8-1,8-2,15-4,23-5,35-7,71-1,106-1,6,0,12,0,2,0ZM318,1383c0,0,1,0,2,0,0,0,1-2,1-3,0-5-2-9-6-1-7-2-12,2-17,6-3,3-5,6-3,11,1,2,3,4,5,5,3,2,6,3,1,5,4,2,7,3,11,5,4,3,7,6,6,11,0,5-5,7-1,9-5,2-9,0-12-5-2-2-3-5-4-7,0,3,0,6,1,9,4,8,13,1,21,6,9-5,11-1,7-2-3-7-8-1-15-12-6-2-12-4-16-9,4-8,12-12,16-9,0,2,2,5,2,7ZM349,1419c0-2,0-3,0-5-3-13-1-14,12-1,0,0,0,0,1,1,2,4,0,11,6,14,0-7-2-13-2-2,0-14,0-14-5-19v18c-6-1-1-2-14-3,0-5-1-9-2-14-3,6-3,25-1,33,0,2,0,6,5,5ZM406,139c-2-4-3-7-5-12-2,9,0,28,5,33,0,0,2,0,4,0-2-6-3-11-5-15,4-2,8-4,11-6,4-3,9-6,8-12,0-6-7-7-11-8-2,0-5-1-8-1-2,0-3,2-6,3,8,2,15,1,2,7-3,5-7,9-13,1ZM372,1397c2,6,3,11,5,16,2,5,8,6,14,5,5-1,8-4,7-8-1-8-3-16-6-24-2-6-9-7-13-2-3,4-5,9-7,14Z"/>
      <path class="cls-2" d="M418,456c2,12,4,23,6,35-1,0-2,2-2,2-29,4-57,1-86,8-16,0-32,0-48,0-1,0-12,0-13-11-2-15-3-3-5-46,8,0,14,0,2-1,6,0,11-2,16-3s0,0,0,0c33-2,66-5,99-8,5,0,7,2,8,6,1,6,3,12,5,18,0,0,0,0,0,0ZM285,471c0-7-1-12-2-18-5,14-6,28,3,41,0-6-1-13-2-19,2-1,4-2,5-2,7-2,9-1,12,6,1,3,2,6,4,9,0,0,0,0,1,0-2-12-5-23-7-35,0,0-1,0-2,0v15c-4,0-8,1-12,2ZM345,455c0,0-1,0-2,0,1,1,3,19,4,29,0,0,1,0,2,0,0-6-1-12-2-19,5,3,9,5,15,9,1-5,3-1,4-16,4,9,6,15,9,22-1-15-5-24-12-29,0,3,0,6,0,9,0,3-2,6-3,11-6-7-1-12-14-16ZM394,478c-8,0-1-1-12-13,6-2,12-4,18-6,0,0,0-1,0-2-6,1-12,2-18,3-3-13,1-8,14-13-8-2-14,0-21,5,1,6,2,12,4,18,0,3,3,7,5,9,3,4,5,3,1-2ZM327,454c-14,7-17,21-8,3,7,7,16,5,19-4,1-3,1-7,0-11-1-7-5-12-12-16Z"/>
      <path class="cls-2" d="M589,782c0-5-2-9-3-14-1-18-1-36-3-54-3-36-6-72-1-107-1-12-6-24-9-36-1-5-3-9-4-16,6,9,83,193,91,217-2,3-41,6-62,1Z"/>
      <path class="cls-2" d="M646,748c-26-66-57-131-81-2,7,2,13,3,18,4,15,4,29,9,44,13,4,1,6,4,6,9,4,52,8,105,12,157,0,6,1,11,2,17,0,0-1,0-2,0Z"/>
      <path class="cls-2" d="M658,1266c0-8-2-13-2-19,2-64-6-128-7-193,0-1,0-2,2-6,7,17,9,33,15,48,6,16,11,32,16,48,5,16,11,32,16,47,5,16,11,31,17,48-18,8-36,17-57,26Z"/>
      <path class="cls-2" d="M648,569c23,6,44,13,66,19,0,11,0,2,0,3,0,15-2,31-3,46,0,11-2,23-3,34-2,17-2,35,2,52,0,2,0,4,0,6-13-15-61-156-63-186Z"/>
      <path class="cls-2" d="M709,768c-9,0-17,1-26,2-8,0-16,1-25,2-3-13-6-26-8-4-2-19-3-38-5-57-2-21-3-41-5-62,0-12-1-24-2-36,0,0,2,0,2,0,7,21,13,42,2,63,7,21,15,43,23,64,8,21,16,41,24,64Z"/>
      <path class="cls-2" d="M721,1239c-4-19-6-36-7-53,0-33,2-65,4-98,0-5,0-11,0-16,0-7,0-14,4-21,5,18,1,36,15,54,5,18,11,36,16,55,5,18,11,36,16,55-15,8-31,15-48,24Z"/>
      <path class="cls-2" d="M718,766c-5-23-9-46-7-69,2-21,4-42,5-63,1-14,1-28,2-42,0,0,0,0,2-2,1,2,3,3,3,5,8,31,15,63,23,94,5,2,11,4,17,6,0,3,1,6,2,9-16,5-32,4-48,7Z"/>
      <path class="cls-2" d="M727,1046c2,4,38,8,55,15-8,47-1,94-1,142-6-6-7-12-9-18-4-15-8-31-12-46-6-22-13-45-19-67-2-8-3-16-5-25Z"/>
      <path class="cls-2" d="M651,1269c-5,2-1,3-15,5-5-33-1-65-15-98-1-9-1-18-2-27,0-6-1-11-3-17-7-2-1-41-14-61-3-2-7-4-11-62,4,2,5,5,6,8,1,39,2,78,3,117,9,34,15,68,19,103,1,1,4,2,6,3Z"/>
      <path class="cls-2" d="M765,74c-12-26-37-132-36-148,1,3,21,5,3,9,2,0,5,5,5,8,1,5,2,11,0,17-6,38-4,76-1,114Z"/>
      <path class="cls-2" d="M772,639c8,39,16,77,24,116-7,4-9,4-21,3-8-21-1-104-3-119Z"/>
      <path class="cls-2" d="M239,1013c1-2,2-5,31-6,42-5,83-1,125-14,17-2,35-2,52-3,2,0,39-2,59-2,2,0,41-2,61-3,0,0,2,0,4,0-2,1-3,2-4,2-21,2-42,3-64,5-4,0-8,0-12,1-2,3-41,5-62,4-28,0-56,2-85,6-21,3-43,4-65,7-11,1-21,3-32,5-3,0-6,0-9,0,0,0,0-2,0-3Z"/>
      <path class="cls-2" d="M807,1199c-1,4-19,8-28,12-5-16-3-93,4-117,0,5,0,9,1,14,0,5,1,9,2,14,2,14,3,28,6,42,2,9,6,17,1,26,1,3,3,6,5,9Z"/>
      <path class="cls-2" d="M614,129c-3,0-5,2-8,3-35,3-7,7-105,1-4,3-8,3-119,9-21,3-42,4-63,7-13,1-26,3-38,4,5-4,8-5,17-6,47-5,95-11,142-16,26-3,53-3,79-5,21-2,42-4,63-7,11-1,22-2,34-3,0,1,0,2,0,3Z"/>
      <path class="cls-2" d="M55,981c-8,0-15,2-23,2-46,2-93,4-139,6-24,1-47,5-7,8-6,0-11,0-17,1,0,0,0-1,0-2,6-1,11-3,17-4,27-3,55-6,82-9,27-2,53-2,8-5,19-2,39-2,58-2,4,0,8,0,13,1,0,0,0,2,0,2Z"/>
      <path class="cls-2" d="M23,562c12-7,24-8,36-11,14-3,28-6,42-8,22-4,44-6,66-1,15-3,3-3,44-1-62,1-124,2-188,31Z"/>
      <path class="cls-2" d="M396,13c28-8,164-19,19-16-22,3-44,6-67,7-39,3-78,6-117,8-2,0-4,0-6,0Z"/>
      <path class="cls-2" d="M559,793c-11,6-149,18-183,17,17-5,32-6,47-7,21,0,41,0,62-5,7-1,15-1,23-2,11,0,22-2,33-3,6,0,12,0,19,0Z"/>
      <path class="cls-2" d="M257,834c17-3,33-7,5-9,18-2,35-5,53-8,16-3,32-3,48-5,0,0,0,2,0,2-25,4-5,9-76,12-25,3-5,1-75,11,0-1,0-2,0-3Z"/>
      <path class="cls-2" d="M455,1288c-12,1-24,2-35,4-27,4-55,8-82,11-1,1-19,0-29,2-13,2-25,5-38,8-7,2-8,1-12-6,0,0,1-1,1-1,11,3,22,0,32-2,1-2,2-2,31-4,34-5,68-1,103-14,1-1,19-1,29-2,0,0,0,2,0,3Z"/>
      <path class="cls-2" d="M409,1287c-1,1-2,2-29,4-32,4-65,8-97,12-6,0-11,1-18-3,49-7,97-12,144-15,0,0,0,1,0,2Z"/>
      <path class="cls-2" d="M566,633c-8-29-15-57-23-87,5-2,9-1,1,4,4,22,12,42,12,65,0,6,1,12,2,18h0Z"/>
      <path class="cls-2" d="M616,1204c-1-48-19-96-29-144,0,0,2,0,2,0,12,47,22,95,29,144,0,0-1,0-2,0Z"/>
      <path class="cls-2" d="M573,693c0-11-1-22-2-33-2-2-4-41-4-62,4,9,4,18,5,28,0,1,2,2,3,3,1,1,3,2,4,3,0,1,1,2,0,3-2-8-4-15-7-23h0Z"/>
      <path class="cls-2" d="M531,525c-4,7-81,13-122,14,4-9,81-13,122-14Z"/>
      <path class="cls-2" d="M296,836l117-19c0,0,0,1,0,2-2,0-4,2-7,2-15,3-3,6-45,9-7,1-14,0-21,2-8,0-15,1-23,2-7,0-14,2-22,4,0,0,0-2,0-2Z"/>
      <path class="cls-2" d="M433,815c34-4,65-5,97-5-5,0-11,2-16,2-22,2-44,5-66,7-4,0-9,2-15-4Z"/>
      <path class="cls-2" d="M214,585c3,33,13,66,12,99-4-33-13-66-12-99Z"/>
      <path class="cls-2" d="M41,979l-53,5c0,0,0-1,0-2,2-1,3-3,5-3,14-2,28-4,42-6,2,0,5,2,7,3,0,1,0,2,0,3Z"/>
      <path class="cls-2" d="M42,826c-9,6-42,12-61,12,2,0,4-2,6-2,16-3,3-1,46-11,2,0,4,0,8,0Z"/>
      <path class="cls-2" d="M328,533c7-7,4-12,55-8-2,5-37,6-55,8Z"/>
      <path class="cls-2" d="M41,837c-1,1-2,3-3,3-14,3-29,5-45,8,6-8,37-14,48-11Z"/>
      <path class="cls-2" d="M416,433c-4-5-4-5-1-4-17,0-34,1-52,2,0,0,0-1,0-2,6-1,12-3,18-3,12,0,25,0,37,0,6,0,6,0,8,8Z"/>
      <path class="cls-2" d="M296,1326c28-4,56-7,84-11-13,6-27,8-41,8-11,0-21,2-31,4-3,0-7,0-11,0,0,0,0-1,0-2Z"/>
      <path class="cls-2" d="M366,854c0-1,0-2,0-3,12-3,25-5,37-8,1,0,3,2,4,3,0,0-1,3-2,4-2,1-36,4-4,4Z"/>
      <path class="cls-2" d="M791,1123c5,2,1,4,15,61-11-19-13-4-15-61Z"/>
      <path class="cls-2" d="M551,1277c24-1,48-2,72-3,0,0,0,2,0,2-24,4-48,2-73,0Z"/>
      <path class="cls-2" d="M1518,1104c18-5,37-9,56-1,0,0,0,1,0,2-19,4-38,7-56,11,0,0,0-2,0-3Z"/>
      <path class="cls-2" d="M345,815c-16,7-34,6-51,7,17-6,34-5,51-7Z"/>
      <path class="cls-2" d="M376,517c-6,3-33,7-4,5,8-6,31-9,4-5Z"/>
      <path class="cls-2" d="M485,1308c23-2,47-3,7-5-23,6-46,7-7,5Z"/>
      <path class="cls-2" d="M509,537c-1,0-3,2-4,2-19,2-37,4-56,6,0,0,0-1,0-2,9-1,17-3,26-3,12-1,23-2,35-2h0Z"/>
      <path class="cls-2" d="M1281,113c0,0-2,2-3,2-13,2-27,5-4,7-1,0-3,0-7-1,3-2,5-3,6-3,11-1,23-2,34-4,3,0,6,0,9-1h0Z"/>
      <path class="cls-2" d="M1212,989c17-4,34-4,52-4-17,2-34,4-51,7,0,0,0-2,0-2Z"/>
      <path class="cls-2" d="M486,523c12-4,24-8,36-4,0,0,0,1,0,2-12,0-24,1-37,2Z"/>
      <path class="cls-2" d="M1403,112c-16,2-32,5-47,7,0,0,0-1,0-2,8-1,15-3,23-4,8-1,16-2,24-3,0,0,0,1,0,2Z"/>
      <path class="cls-2" d="M256,1023c14-2,27-4,41-6,0,0,0,2,0,2-14,2-27,4-41,6,0,0,0-1,0-2Z"/>
      <path class="cls-2" d="M342,552c14-2,28-4,42-6,0,0,0,2,0,3-14,2-28,4-43,6,0,0,0-1,0-2Z"/>
      <path class="cls-2" d="M509,538c1-1,19-2,29-3,4,0,4,0,7,6-8-5-16-2-23-2-4,0-9,0-13,0,0,0,0,0,0,0Z"/>
      <path class="cls-2" d="M562,131c-1,1-21,3-31,4,0,0,0-1,0-2,11-1,21-3,32-4,0,0,0,1,0,2Z"/>
      <path class="cls-2" d="M348,133c3-4,7-3,11-4,4,0,7,0,11-1-8,5-13,6-22,5Z"/>
      <path class="cls-2" d="M401,964c-7,0-15,1-22,2,0,0,0-1,0-2,8,0,15-2,23-3,0,0,0,2,0,3Z"/>
      <path class="cls-2" d="M418,456c0-3,0-5,0-9,4,8,6,14,5,23-2-5-4-1-6-14,0,0,0,0,0,0Z"/>
      <path class="cls-2" d="M368,1004c8,0,17-2,25-2v2c-8,0-17,2-25,2,0,0,0-1,0-2Z"/>
      <path class="cls-2" d="M306,439l-18,2c0,0,0-1,0-2,6-1,11-2,17-3,0,0,0,2,1,3,0,0,0,0,0,0Z"/>
      <path class="cls-2" d="M356,512c-6,0-12,2-18,2,5-6,12-3,18-2Z"/>
      <path class="cls-2" d="M302,1309h23s0,0,0,0c-8,0-16,0-24,1v-2Z"/>
      <path class="cls-2" d="M381,508q4,0,8,1c-5-2-7-6-8-1Z"/>
      <path class="cls-2" d="M467,131h-19s0,0,0,0h19s0,0,0,0Z"/>
      <path class="cls-2" d="M588,1032c0,1,1,2,2,4,0,4,2,8,1,13-1-5-3-11-4-16,0,0,0,0,1,0Z"/>
      <path class="cls-2" d="M519,1279h16s0,0,0,0h-16s0,0,0,0Z"/>
      <path class="cls-2" d="M228,718c0-4,0-9-1-13,0,0,0,0,0,0,0,5,1,9,2,14,0,0-1,0-2,0Z"/>
      <path class="cls-2" d="M266,56c4,0,8-1,12-2,0,0,0,0,0,1-4,0-8,2-12,2,0,0,0-1,0-2Z"/>
      <path class="cls-2" d="M355,1337c3,0,6-1,1-2,0,0,0,2,0,2l-1,2v-2Z"/>
      <path class="cls-2" d="M58,736c0-2,0-5,0-7,0,0,0,0,0,0v7c0,0-1,0-2,0Z"/>
      <path class="cls-2" d="M1469,1107c-3,1-7,2-1,3,0,0,0,0,0-1,4,0,7-1,11-2,0,0,0,0,0,0Z"/>
      <path class="cls-2" d="M573,693l2,14c0,0-2,0-2,0,0-5,0-9,0-14,0,0,0,0,0,0Z"/>
      <path class="cls-2" d="M427,977c-3,0-5,0-8-1,0,0,0-1,0-2,3,0,5,0,8,1,0,0,0,1,0,2Z"/>
      <path class="cls-2" d="M433,545h6s0,0,0,0h-6s0,0,0,0Z"/>
      <path class="cls-2" d="M441,978c-2,0-3,0-5,0,0,0,0-1,0-2h5c0,1,0,2,0,2Z"/>
      <path class="cls-2" d="M387,1302h-6s0,0,0,0c2,0,4,0,6,0,0,0,0,0,0,1Z"/>
      <path class="cls-2" d="M363,1346c-3,0-5,0-8,0,0,0,0-1,0-2,3,0,5,0,8,0,0,0,0,1,0,2Z"/>
      <path class="cls-2" d="M1483,1106c-4,4-9,4-14,2,0,0,0,0,0,0,4,0,9-1,14-2h0Z"/>
      <path class="cls-2" d="M579,1308c-1,0-3,0-4,0,0,0,0,0,0,0,1,0,2,0,4,0h0Z"/>
      <path class="cls-2" d="M1483,1106h1s0,0,0,0c-3,0-6,0-1,0,0,0,0,0,0,0Z"/>
      <path class="cls-2" d="M287,133h-6s0,0,0-1h6s0,0,0,1Z"/>
      <path class="cls-2" d="M41,547c2,0,4,0,5,0,0,0,0,0,0,1-2,0-3,0-5,0,0,0,0-1,0-2Z"/>
      <path class="cls-2" d="M134,1127h5s0,0,0,0h-5s0,0,0,0Z"/>
      <path class="cls-2" d="M1281,113c3,0,5,0,8,0-3,0-5,0-8,0,0,0,0,0,0,0Z"/>
      <path class="cls-1" d="M1315,648c-1,0-2,2-4,2-12,4-12,4-15-8-3-1-6-19-9-3-6,2-11,4-17,6,3,13,5,25,8,36,0,1,0,2-1,2-13,7-16,6-18-9-3-14-6-27-9-41,0-1-1-3-2-5-2,6-4,11-7,16-3,4-7,8-1,12,6,5,12,1,18,15,6,5,9,12,9,21-7,0-1-5-14-1-9-14-28-18-42-1-4,2-6,5-4,1,2,6,3,12,5,18,0,1,0,3,0,5-7,0-9-4-11-9-2-9-5-17-7-26-4-16-7-33-1-49-2-9,0-13,1-17,1-4,2-6,3-3,1,3,22,4,31,12,0-3-2-6-3-9-2-8-1-9,6-13,2-1,5-2,8-4,1,14,7,32,13,48,6-3,1-6,16-9,0-4-1-8-2-12-1-5-3-9-4-13,0-3-1-6,0-9,0-5,5-9,1-1,5-1,7,3,9,7,1,2,2,4,2,7,6,25,12,5,18,76,0,0,0,1,0,2ZM1188,622c7-5,11-7,15-11,3-2,6-4,8-7,3-3,5-7,3-12-2-5-6-5-1-4-5,0-9,1-14,2-4,0-6,3-5,7,0,7,2,15,3,25ZM1222,595c0,9-7,14-14,19-2,1-5,3-7,4-2,1-3,3-5,5,0,0,0,1,1,2,7-4,14-8,2-12,7-5,8-9,4-17Z"/>
      <path class="cls-1" d="M1347,657c-1-4-3-8-3-12-2-18-1-35-16-52,0-2-3-5-5-6-7-3-11-9-16-15-5-6-5-7,0-13,1-2,3-3,4-4,3-3,7-3,9,0,2,3,4,7,7,1,3,4,7,7,12,12,7-11,13-22,19-33,5,2,1,4,16,7,17-4,36-8,55-13,5-1,1-1,15,4-9,8-21,7-31,14,0,4,2,8,3,13,3,15,6,29,9,44,0,3,2,5,3,7,3,5,4,1,2,16-7,2-13,4-21,6,0-29-2-56-11-83-7,2-12,4-18,6-8,2-8,2-13-4-4,9-9,18-12,27-2,6-3,13-2,2,1,9,3,19,6,28,3,1,0,16-12,21Z"/>
      <path class="cls-1" d="M1467,632c-2-8-3-16-4-24-3-19-7-39-1-58,0-4-2-8-3-13-2-8-1-11,6-14,2,0,4-1,7-2,9,11,5,25,1,37,8-2,17-4,26-7-3-12-6-24-1-37,5-2,1-4,15-5,4,0,7,1,8,5,0,3,2,6,2,9,0,27,11,52,2,77,2,4,5,9,0,13-5,4-1,1-18,7-2,0-4-2-6-2-2-18-4-35-6-53-12-3-2,3-27,8-2,1-2,5-2,8,0,13,3,25,8,37,5,12,4,13-9,14,0,0-2,0-5,0Z"/>
      <path class="cls-1" d="M1422,1076c-7,0-12-4-16-8-7-8-15-8-25-5-1,15,8,27,9,41,0,0-1,0-2,0,0-1-2-3-3-4-4-13-9-25-12-38-3-1-5-2-7-3-1-6-1-13-1-2,0-3,2-6,5-6,7,0,13,0,2,2,9,2,13,5,13,15,0,7,0,15-1,22-1,8,0,11,7,14,3,1,6,2,9,3,7,3,8,3,5,11,0,1,0,2-1,4ZM1377,1049c9-5,14-11,18-18,2-4,2-9-2-12-6-4-13-8-22-3,2,1,4,2,6,32Z"/>
      <path class="cls-1" d="M1306,1028c-3-4-5-7-7-1-4,0-8,0-12,0-9,0-12,6-8,14,3,5,7,9,11,13,5,5,1,9,15,14,6,6,9,13,11,21,2,9,0,17-9,22-8,6-17,5-25,0-1-6-16-17-2-29,4,0,7,0,1,0,0,1,0,2,0,3-1,12,15,24,25,2,5-2,8-6,8-13,0-14-9-25-2-33-3-3-8-4-11-7-8-7-8-12-3-21,0-1,1-3,2-5,3-1,13-15,22-1,5,3,1,7,14,11,3,3,2,5-2,9Z"/>
      <path class="cls-1" d="M1596,966c-3,1-5,3-8,4-9,3-18,6-26,9-5,2-7,4-7,1,0,3,0,7-1,1-1,8-1,8,4,16,12-4,24-8,37-12,0,0,0,0,3,2-13,5-25,1-37,15,3,1,5,19,8,28,9,3,16-6,25-5-3,9-11,8-17,11-3,2-8,4-11,2-4-2-7-6-9-1-8-19-12-39-13-59,0-7,5-11,1-14,8-4,16-7,24-9,6-1,12,0,18,0,0,0,0,2,0,3ZM1556,1023c0,0-2,0-3,0,2,5,3,1,5,16,0,0,1,0,2,0-1-5-3-1-4-16ZM1549,993s0,0,1,0v-8c0,0-1,0-2,0v8Z"/>
      <path class="cls-1" d="M1619,1013c2,2,5,4,8,6,4,3,8,7,13,9,4,2,9,2,13,1,2,0,6-3,7-5,4-6-2-23-9-26-5-3-11-5-16-7-3-1-7-3-1-5-13-7-14-19,0-27,4-2,9-4,13-4,8,0,17,11,14,18,0,1-2,2-3,2-1,0-3,0-3-1-2-3-3-6-5-9-4-5-9-5-15,0-5,4-6,8-2,13,3,3,7,5,11,7,6,3,12,5,19,7,9,4,16,1,18,2,3,13-3,25-16,28-14,4-32,0-38-19,0-3-3-6,2-9ZM1621,1021c6,14,13,18,28,14-12,0-19-8-28-14ZM1665,1012c0,0-1,0-2,0,0,2,1,3,2,5,0,0,0,0,1,0,0-2,0-4-1-5Z"/>
      <path class="cls-1" d="M1339,1094c8-1,15-3,22-4,0,3,0,4,0,4-8,4-16,8-25,12-5-12-9-23-13-35-6-15-5-31-4-47,0-4,1-7,5-8,9-3,19-6,29-8-1,8-9,5-13,8-4,3-1,4-15,6,0,9,1,18,2,27,7-2,13-3,2-5-1,13-12,8-18,12,3,13,6,25,12,36Z"/>
      <path class="cls-1" d="M1414,1001c6,5,5,12,7,18,3,6,5,12,8,18,3,6,6,11,9,17,3,6,7,11,1,16,0,0,1,0,2,0,0-12,0-25-2-37,0-12-3-24-3-37,0,0,2,0,2,0,0,1,2,2,2,4,3,21,6,42,9,63,0,6,1,12,0,18,0,6-5,7-9,3-3-3-5-8-8-12-12-19-22-39-3-59-1-3-3-7,0-1Z"/>
      <path class="cls-1" d="M1543,1054c-5,8-13,12-22,13-8,0-13-4-16-1-8-14-11-28-8-44,1-8,5-14,1-2,6-7,12-7,17,0,3,4,6,8,1,14-4-5-7-9-1-13-1,0-2,0-3,0-11,16-14,33-8,51,5,15,12,17,26,1,3-2,7-3,1-5v2Z"/>
      <path class="cls-1" d="M1483,1078c0-2-1-4-2-6-5-19-9-39-14-58-1-6-1-12,1-2,2,3,3,4,3,5,2,9,3,17,4,26,1,14,5,28,11,41,2,5,0,8-2,12,0,0-2,0-2,0Z"/>
      <path class="cls-1" d="M903,641c5,3,1,5,14,8,6,5,1,11,8,2-3,9-8,14-17,16-7,0-14,2-2,0-1-6-1-11-3-16-3-1-7-19-1-29-1-4-2-8-2-13,0-9,6-15,15-15,7,0,13,0,2,0,5,0,9,4,1,8,2,5,0,9-4,12-3,2-6,5-9,8ZM893,681c4-1,7-2,9-3,3-1,6-2,9-4,7-4,8-9,2-15-6-6-13-1-22-1-2,0-4-2-6-3,1-2,2-4,3-5,6-2,1-7,12-12,2-3,2-6,0-9-3-3-6-4-1-2-3,1-5,3-7,5,0,0-2-1-2-2,0,0-2,0-4-2,3,22,8,41,16,61ZM909,63c6-7,6-9-2-13,0,4,1,8,2,13Z"/>
      <path class="cls-1" d="M864,682c-1-1-3-2-4-4-1-2-2-5-3-7-4-8-1-11-17-1-9,1-14,6-16,15,0,5-1,1-2,16-5-3-7-6-5-11,2-6,4-13,5-19,3-14,6-28,1-42,2-8,2-8,12-7,7,19,14,37,21,56,1,4,2,8,3,12,0,0-1,0-2,1ZM839,63c0,0-2,0-2,0-2,9-5,18-8,28,8-1,14-2,21-3-4-9-7-17-11-25Z"/>
      <path class="cls-1" d="M1016,595c2,1,3,2,3,3,4,17,7,34,11,51,0,0,0,1,0,2,0,7-2,13-8,17-6,4-18,2-24-3-8-7-14-14-17-24-2-7-4-15-5-22,0-4,0-4,6-9,0,3,1,5,0,7,0,12,3,23,9,33,5,9,14,12,23,6,2-2,5-5,6-8,2-1,2-19-1-29-2-6-3-12-4-17,0-2,0-4,1-7ZM1025,654s0,0,0,0c-4,4-8,7-13,11,1-1,11-2,14-1Z"/>
      <path class="cls-1" d="M924,643c2-8,4-16,7-23,6-11,15-12,25-4,8,7,14,15,17,25,4,13,0,25-1,32-11,8-23,6-31-6-5-8-7-16-8-25ZM931,639c0,1,2,18,7,25,2,3,6,5,9,5,1,1,22-1,22-2,0-14-7-25-21-32-4-2-7-1-1,2-5,6-7,13-7,2Z"/>
      <path class="cls-1" d="M108,667c-12-22-13-46-18-7-8,0-15,2-23,3-2-1-1-3,2-5,5-2,9-4,14-5,16-3,33-5,49-7,2,0,4,0,6,0,1,4-1,5-4,6-7,2-14,3-22,4-3,0-5,0-8,0-6,1-8,2-7,9,1,11,3,22,5,33,2,9,4,18,6,27,0,1,0,3,0,4Z"/>
      <path class="cls-1" d="M9,1121c2,1,4,2,6,3,0,0-2,0-3,0-1-2-2-5-3-7-3-15-7-31-9-46,0-5,0-11,0-16,0-7,3-9,1-1,11-2,21-2,32,0,9,2,11,8,13,16,2,7-1,12-7,15-5,3-9,6-14,1,6,5,12,1,17,16,5,5,1,1,11,17,0,0-1,1-2,2-2-2-3-3-5-5-4-5-8-11-12-16-1-12-18-13-33-6ZM899,1111c4-2,7-3,1-4,6-3,12-6,15-12,3-5,3-8-3-12-2-1-3-2-5-3-8-3-15,0-19,8-4,8,0,15,1,23ZM941,1083q-2,8,2,13c0-6-1-9-2-13ZM932,1088q1-8-7-9c2,3,4,5,7,9ZM926,1104c0,0,1,1,2,2,2-2,4-4,6-6,0,0-1-1-2-2-2,2-4,4-6,6Z"/>
      <path class="cls-1" d="M841,1128c2,14,4,27,6,4,0,0-1,0-2,1,0,0-2-2-2-3-5-19-1-39-15-58-2-8-2-16,2-23,1-3,3-6,5-7,1-5,2-8,32-4,1,3,13,1,1,2-4,12-1,23-24,27-4,1-7,4-12,7ZM839,112c3-2,6-2,8-4,5-3,1-5,14-9,6-5,8-16,4-21-5-6-19-8-26-3-4,3-6,7-5,12,2,8,3,16,5,24ZM869,1079c0,0-1,1-2,2,2,2,3,4,5,6,0,0,0,0,1-1-2-2-3-4-5-6Z"/>
      <path class="cls-1" d="M1079,1064c0,7,1,12,2,17,0,5,2,1,3,15,1,5,3,1,3,16,0,5,7,7,3,15-2-4-4-6-5-9-5-22-9-45-13-68,0,0,0-2,0-3,5,1,6,6,9,9,9,15,2,28,34,38,1,0,3,2,5,3-2-24-18-42-2-64,0,0,2,0,3,0,11,25,21,5,32,75-4,1-9,1-9,8-1-4-17-1-22-18-6-9-13-18-19-27-1-2-3-3-6-6ZM1106,1093c3,7,8,12,17,15-3-1-11-11-17-15Z"/>
      <path class="cls-1" d="M1154,1075c6-8,18-13,25-11,5,2,8,6,8,11,0,9-1,17-6,25-6,11-22,12-29,2-11-16-19-32-16-52,2-9,6-17,12-23,5-4,8-4,12,0,5,6,8,13,13,21q-6,0-14-14c-12,2-18,7-19,18-2,17,3,32,13,45,6,8,11,8,18,0,5-6,8-13,8-21,0-7-3-9-1-8-5,1-1,3-16,6Z"/>
      <path class="cls-1" d="M1031,1076c-1,0-3-1-3-2-1-6-5-8-1-1-7-4-11-4-16,4-3,4-5,1-5,16-1,12,1,24,9,34,7,9,13,11,23,7,4-1,7-3,11-5,1,0,3,0,5,0-8,12-22,16-32,1-22-14-32-43-12-68,8-1,21-9,27,2,2,4,3,8,5,11,0,0-2,0-2,1Z"/>
      <path class="cls-1" d="M963,1057l23,77c0,0,0,2,0,2-4-2-7-5-11-7-2-1-2-4-3-6-4-14-9-28-12-42-1-7,0-15,0-23,0,0,1,0,2,0Z"/>
      <path class="cls-1" d="M1046,1049c8,23,11,47,22,69,0,1-2,2-3,4,0,0-2,0-3,2-3-7-5-14-7-22-3-11-6-22-9-34-2-8-2-1,0-18Z"/>
      <path class="cls-1" d="M538,769c-22,1-43,3-64,4-23,2-46,3-7,6-37,4-73,9-11,14-5,0-1,0-15,0-1,0-13-3-15-12-4-16-6-33-1-49-1-6-2-12-3-19-2-7,0-7,5-11,14-11,3-8,46-11,6-1,13-1,19-2,13-3,27-3,41-4,35-2,7-4,105-7,11,0,22-3,33-4,1,0,2-2,3-2,9,0,14,4,15,14,2,18,4,36,6,55,0,6,3,11,3,17,0,1-2,12-11,11-1,0-3,0-2,0ZM273,78c1,1,2-1,29-3,2-4,4-9,6-1,2,0,39-1,59-4,37-5,74-8,111-9,11,0,13-2,11-13-2-16-5-32-7-48-1-7-3-9-11-8-34,2-68,4-102,6-14,0-28,1-42,2-37,2-74,5-11,16-12,4-13,5-12,18,0,2,0,5,0,7,3,13,6,25,9,38,0,3,2,6,3,9ZM538,762c0,0,0-2,0-3-2,0-4,0-6,0-32,0-64,2-96,6-3,4-61,8-91,8-13,0-25,6-37,8,0,0,0,1,0,2,76-7,153-14,229-21ZM316,695c11-2,23-3,34-5-12-3-23-1-34,5ZM286,695c0,0,0,1,0,2,4,0,8,0,12,0,0,0,0,0,0-1h-12ZM421,688s0,0,0,0h-6,0c2,0,4,0,6,0ZM399,689s0,0,0,0h4s0,0,0,0c-1,0-3,0-4,0Z"/>
      <path class="cls-1" d="M448,565c0,5,2,9,2,13,3,17,5,33,8,5,0,4,3,8,4,12,2,6,0,8-6,9-1,1-19,2-29,4-39,6-79,9-118,12-14,0-28,3-42,5-3,0-7,0-1,0-12,0-13-3-14-14,0-9-3-18-3-28,0-12-2-23-2-35,0-1,2-11,11-13,15-2,3-6,45-7,14-1,27,0,41,0,15,0,29,0,44-1,2-1,39-4,59-6,3,0,5,0,9,0ZM437,574c-2,0-6,0-1,0-14,0-28,0-42,2-2,1-4,2-6,4-12,0-24,2-36,3-9,0-19,1-28,3-1,2-13,7-13,17,0,9,0,19,1,28,1,11,3,22,5,33,5,0,1,0,14,0,22-2,44-5,66-7,22-2,44-4,66-6,13-1,26-3,4-5,7-1,8-2,8-9,0-8,0-15-2-23-3-13-6-25-1-4ZM446,576c-3,1,0,19,2,29,2,7,3,15,5,22,0,4,0,9,1,13,0,2,2,3,3,6,1-2,2-4,2-5-4-22-8-43-12-65ZM245,608h-3c0,6,1,12,2,18,0,0,1,0,2,0,0-6,0-12-1-18ZM248,639c0,0-1,0-2,0l2,14c0,0,1,0,2,0,0-5-1-9-2-14ZM299,578s0,0,0-1c-2,0-4,0-5,0,0,0,0,0,0,0h5Z"/>
      <path class="cls-1" d="M584,1157c0,35,1,7,16,103-2,0-3,0-4,0-29-5-59-3-88-1-36,2-72,5-108,7-2,1-4,2-6,3-17,1-33,4-49,7-1,2-13,0-15-1-1-6-2-12-3-19-3-21-5-42-8-63,0-6,0-1,8-12,9-3,19-7,29-7,5-2,1-2,151-3,4,0,79-2,119-3,4,0,8,0,13-1ZM577,1167c-8,0-15,0-22,0-44,0-89,0-133,2-35,1-7,5-106,8-8,0-16,1-24,2-8,1-1,3-1,11,0,24,1,48,6,72,0,2,2,4,3,7,11-2,21-5,31-5,37-2,75-4,112-6,44-2,89-4,133-6,11,0,12-1,12-12,0-21,0-43,0-64,0-2,0-4-1-7ZM276,1179c-5,16,0,7,6,82-2-27-4-54-6-82ZM594,1255c-2-5-3-1-5-16q-2,14,5,16ZM584,1231s0,0-1,0c0,2,0,5,0,7,0,2,0,4,0,7,0,0,0,0,0,0v-13Z"/>
      <path class="cls-1" d="M518,114c-44,3-87,6-13,9-22,2-44,5-66,8-12,2-25,5-37,7-12,2-15,0-17-1-3-12-6-25-7-37-3-2-5-4-7-6,0-3,0-5,0-8,0-6,3-7,9-7,14-1,27-2,4-5,27-6,55-9,83-1,27,0,53,0,8,0,11,0,22-1,33-2,2,0,3,0,5,0,0,9,2,17,3,25,3,21,6,42,9,63,1,9,3,18,2,28ZM5,1031c-7,0-13,0-19,0-2,1-41,2-61,4-38,3-76,5-114,8-9,0-18,2-27,4-12,2-18,1-17,22,3,23,5,46,8,68,0,5,1,1,2,17,5,0,1,0,14-1,7,0,13-2,2-3,19-2,37-3,56-6,44-7,88-11,132-14,11,0,11-1,11-12,0-13-2-26-3-39,0-12,0-25-1-37,0-4,0-7-1-12ZM498,1136c-29-1-58,0-87,5,0,0,0,2,0,2,29-2,58-5,87-7ZM51,1136c5,0,5-5,4-8-2-14-4-29-6-43,0,0-1,0-2,0,1,11,3,21,4,32,0,6,0,12,0,19ZM364,103c15,2,29,2,44,0h-44ZM35,1034s0,0,0-1c-3,0-6,0-1,0,1,1,3,1,4,1,2,0,4,0,6,0Z"/>
      <path class="cls-1" d="M308,907c-2-3-3-5-5-6-2,0-6-1-8,0-1,0-3,4-3,4,1,2,3,4,5,5,7,2,13,5,18,1,5,6,5,11,0,16-4,5-8,8-15,6-6-1-11-7-11-14,0,0,0,0,2-2,2,3,3,5,5,7,4,5,1,5,14,0,4-4,4-9-1-14-2-2-5-3-8-4-2,0-5-1-7-2-6-3-9-7-8-11,0-5,6-8,12-8,6,0,11,3,12,8,0,0,0,2-2,4Z"/>
      <path class="cls-1" d="M469,882c-7,1-14,2-21,3-9,2-1,4-7,14,8-1,16-2,25-3,0,0,0,2,0,3-8,2-17,5-25,7,0,14,5,16,2,1,0,2,0,4-2,5-8,7-18,4-22-5-4-9-4-18-3-27,0-2,1-4,3-5,1-4,21-5,31-4v3Z"/>
      <path class="cls-1" d="M421,92c3-13-5-25,0-37,0,14,7,28,5,44-13,0-16-14-26-18-3,7,2,15-2,22-4-9-2-19-3-29,0-3,0-7,4-9,3,5,5,1,9,15,4,5,9,8,14,13Z"/>
      <path class="cls-1" d="M37,91c6-1,12-3,17-4,0,0,0,2,0,3-5,2-11,5-17,8,0,14,12,7,19,9-2,6-7,6-12,5-5,0-9-2-11-7-3-8-4-17-2-26,0-3,2-5,6-6,6-1,11-4,17,2-7,3-15,0-18,7-1,2,0,5,0,9Z"/>
      <path class="cls-1" d="M349,91c-3-3-5-6-8-8-9,6-12,18-7,27,3,6,8,7,15,5,2,0,3-1,8-3-2,4-2,6-4,7-7,5-15,3-2-3-1-11-5-28,2-35,3-3,7-4,1,0,3,2,7,5,4,11Z"/>
      <path class="cls-1" d="M318,1383c0-2-2-5-2-7-4-3-12,1-16,9,4,5,1,7,16,9,6,2,12,6,15,12,4,9,2,15-7,2-8,4-17,2-21-6-1-3-2-6-1-9,1,2,2,5,4,7,3,4,7,6,12,5,4-1,9-4,1-9,0-5-2-9-6-11-3-2-7-4-11-5-3-2-7-3-1-5-2-1-4-3-5-5-2-4,0-8,3-11,5-4,1-9,17-6,4,1,7,6,6,1,0,0,0,2-1,3,0,0-1,0-2,0Z"/>
      <path class="cls-1" d="M349,1419c-5,0-5-3-5-5-2-8-2-27,1-33,0,6,2,1,2,14,4,0,9,2,14,3v-18c4,6,4,6,5,19,0,6,1,12,2,2-6-4-4-1-6-14,0,0,0-1-1-1-13-4-14-3-12,1,0,1,0,3,0,5Z"/>
      <path class="cls-1" d="M406,139c7-1,11-5,13-1-6-5-13-4-2-7,3-2,4-3,6-3,3,0,5,0,8,1,5,1,1,2,11,8,0,6-4,9-8,12-3,2-6,4-11,6,1,5,3,1,5,15-2,0-4,0-4,0-4-5-7-24-5-33,2,5,3,8,5,12Z"/>
      <path class="cls-1" d="M372,1397c2-5,4-1,7-14,4-5,11-4,13,2,3,8,5,16,6,24,0,4-2,7-7,8-6,1-12,0-14-5-2-5-3-1-5-16ZM386,1386c-8,4-11,11-8,2,2,6,6,9,11,7,5-1,7-5,5-11-2-6-5-11-7-16Z"/>
      <path class="cls-1" d="M285,471c4,0,8-1,12-2v-15c0,0,1,0,2,0,2,12,5,23,7,35,0,0,0,0-1,0-1-3-3-6-4-9-3-8-4-8-12-6-2,0-3,1-5,2,0,6,1,13,2,19-8-13-8-27-3-41,0,5,1,11,2,18Z"/>
      <path class="cls-1" d="M345,455c4,5,8,1,14,16,1-5,3-8,3-11,0-3,0-6,0-9,7,5,1,14,12,29-3-7-5-13-9-22-2,6-3,1-4,16-5-3-9-6-15-9,0,7,1,13,2,19,0,0-1,0-2,0-1-1-3-19-4-29,0,0,1,0,2,0Z"/>
      <path class="cls-1" d="M394,478c-5,5-7,6-1,2-2-3-4-6-5-9-2-6-3-12-4-18,6-5,13-7,21-5-4,5-17,0-14,13,6-1,12-2,18-3,0,0,0,1,0,2-6,2-12,4-18,6,2,12,3,13,12,13Z"/>
      <path class="cls-1" d="M327,454c6,4,1,9,12,16,0,3,0,7,0,11-3,9-12,1-19,4-9-9-6-23,8-3ZM332,471h-1c0-2,0-5,0-6,0-2-3-6-4-6-2,0-6,2-7,4-3,6-1,15,4,19,4,3,9,2,12-2,3-5,3-1-1-15-1,3-2,4-2,6Z"/>
      <path class="cls-2" d="M1188,622c-1-1-2-17-3-25,0-4,1-6,5-7,5,0,9-2,14-2,4,0,8,0,1,4,2,4,0,9-3,12-3,3-5,5-8,7-4,3-9,6-15,11Z"/>
      <path class="cls-2" d="M1222,595c4,7,3,12-4,17-6,5-13,8-2,12,0,0,0-1-1-2,2-2,3-3,5-5,2-2,4-3,7-4,7-4,13-1,14-19Z"/>
      <path class="cls-2" d="M1377,1049c-2-12-4-22-6-32,9-5,16-1,22,3,4,3,4,8,2,12-4,7-9,13-18,18Z"/>
      <path class="cls-2" d="M1556,1023c1,5,3,1,4,16,0,0-1,0-2,0-2-5-3-1-5-16,0,0,2,0,3,0Z"/>
      <path class="cls-2" d="M1549,993v-8s0,0,1,0v8s0,0-1,0Z"/>
      <path class="cls-2" d="M1621,1021c1,7,17,15,28,14-15,3-23,0-28-14Z"/>
      <path class="cls-2" d="M1665,1012c0,2,0,4,1,5,0,0,0,0-1,0,0-2-1-3-2-5,0,0,1,0,2,0Z"/>
      <path class="cls-2" d="M893,681c-8-2-13-39-16-61,2,1,3,1,4,2,0,0,2,1,2,2,3-2,5-4,7-5,4-2,7-1,1,2,3,3,3,6,0,9-3,5-6,1-12,12-2,0-2,3-3,5,2,0,4,3,6,3,9,0,16,4,22,1,6,6,5,11-2,15-3,2-6,3-9,4-3,1-6,2-9,3Z"/>
      <path class="cls-2" d="M909,63c0-5-1-9-2-13,8,3,8,5,2,13Z"/>
      <path class="cls-2" d="M839,63c3,8,7,16,11,25-7,1-13,2-21,3,3-1,5-19,8-28,0,0,2,0,2,0Z"/>
      <path class="cls-2" d="M1025,654c-3,8-4,9-14,1,5-4,9-8,13-11,0,0,0,0,0,0Z"/>
      <path class="cls-2" d="M931,639c0-7,2-14,7-2,3-3,5-4,1-2,14,7,22,18,21,32,0,1-12,21-22,2-3,0-7-3-9-5-5-7-8-15-7-25Z"/>
      <path class="cls-2" d="M899,1111c-2-9-5-15-1-23,4-8,11-11,19-8,2,0,4,2,5,3,5,4,6,6,3,12-3,6-9,1-15,12-3,1-6,2-1,4Z"/>
      <path class="cls-2" d="M941,1083c0,4,1,7,2,13q-4-5-2-13Z"/>
      <path class="cls-2" d="M932,1088c-3-3-5-6-7-9q8,0,7,9Z"/>
      <path class="cls-2" d="M926,1104c2-2,4-4,6-6,0,0,1,1,2,2-2,2-4,4-6,6,0,0-1-1-2-2Z"/>
      <path class="cls-2" d="M839,112c-2-9-3-17-5-24-1-5,1-9,5-12,6-5,21-3,26,3,4,5,2,16-4,21-4,4-9,6-14,9-2,1-5,2-8,4Z"/>
      <path class="cls-2" d="M869,1079c2,2,3,4,5,6,0,0,0,0-1,1-2-2-3-4-5-6,0,0,1-1,2-2Z"/>
      <path class="cls-2" d="M1106,1093c6,4,14,5,17,15-9-3-14-9-17-15Z"/>
      <path class="cls-2" d="M273,78c-1-3-3-6-3-9-3-13-6-25-9-38,0-2,0-5,0-7,0-13,0-14,12-18,36-12,73-14,11-16,14,0,28-1,42-2,34-2,68-4,102-6,8,0,1,0,11,8,3,16,5,32,7,48,2,11,0,13-11,13-37,1-74,4-111,9-19,3-39,4-59,4-21,0-4,6-6,1-9,2-19,4-29,3ZM466,72c-2-4-5-7-7-1,0,0-1,0-2-1,0,3,0,5-1,8-6,0-11,2-16,2-2-4-3-7-4-9-5,1-9,2-13,3-7,1-15,2-22,3-2,0-5,1-5,5,4,0,7,0,1,0,5,9,4,2,11,28,0,0,2,0,3,0-2-8-5-16-7-25,2-1,3-3,4-3,5,0,1,0,14,0,2,0,3,5,4,8,1,4,2,9,4,13,0,1,2,3,4,4,3-7-4-13-2-19,5-3,1-4,17-3,4,7,3,17,14,2-4-9-12-15-6-24ZM29,77c1,0,2,0,3,0,0-4-1-9-2-14,11,0,21,3,31,6-8-9-2-7-3-13,7-8,18-1,2-22-11-6-22-5-34-1,4,16,7,31,12,45ZM515,694c-5,5-8,11-11,17-4,6-7,7-12,2-2-2-3-5-5-7-1-2-3-2-5-4-5,14-2,35,7,41-3-11-8-2-5-32,3,3,6,5,9,8,8,6,12,5,15-5,2-4,2-9,7-12,0,2,2,4,3,7,2,8,5,16,7,24,0,2,0,5,5,5,0-8-8-38-13-44ZM333,757c1,0,2,0,3,0-1-4-2-9-3-14h15q5,8,1,8c-5-8-6-18-13-27v13h-13c-2-3-3-5-5-7,0,0-2,0-2,1,0,1,4,18,8,27ZM382,727c-8,4-14-4-21-4,1,5,5,7,9,8,4,1,8,2,12,3,2,6-2,13,5,17-2-11,4-22,0-35-2,5-3,8-4,11Z"/>
      <path class="cls-2" d="M538,762c-76,7-153,14-229,21,0,0,0-1,0-2,13-2,24-8,37-8,31,0,61-4,91-8,32-4,64-6,96-6,2,0,4,0,6,0,0,0,0,2,0,3Z"/>
      <path class="cls-2" d="M316,695c11-6,22-8,34-5-11,2-23,3-34,5Z"/>
      <path class="cls-2" d="M286,695h12s0,0,0,1c-4,0-8,0-12,0,0,0,0-1,0-2Z"/>
      <path class="cls-2" d="M421,688c-2,0-4,0-6,0h0c2-1,4-1,6-1,0,0,0,0,0,0Z"/>
      <path class="cls-2" d="M399,689c1,0,3,0,4,0,0,0,0,0,0,0h-4s0,0,0,0Z"/>
      <path class="cls-2" d="M437,574c4,15,7,27,1,4,2,7,2,15,2,23,0,7,0,8-8,9-13,2-26,4-4,5-22,2-44,4-66,6-22,2-44,4-66,7-5,0-9,0-14,0-2-12-4-23-5-33,0-9,0-19-1-28,0-1,3-15,13-17,9-2,18-2,28-3,12-1,24-2,36-3,2-1,4-3,6-4,14,0,28-1,42-2,4,0,7,0,1,0ZM34,628c3,3,5,5,8,8,8,6,18,3,2-7,0-6,0-12-2-17-1-5-5-8-11-9-5,0-1,3-12,7-2,3-2,7-3,11,0,2,0,5,0,7-5-2-1-4-15-6,3-3,6-5,8-7,5-5,5-9-2-11-7-2-14-2-21-2-7,0-9,3-7,1,2,1,5,19,7,29,0,2,2,3,3,5,7-3,13-5,19-8,5-2,7-6,7-12ZM413,629c0-9-5-17-3-27,6-1,12-2,18-3,0,0,0-2,0-3-7-3-14,2-2,2-7,0-14,0-22,0,0,1,4,2,0,31-9-7-7-2-13-27,0,6,0,12,2,17,1,4,3,9,6,13,3,5,8,4,9-2,0-4,0-8,0-12,0-5,0-1,0-15h14c4,9,1,19,9,26ZM275,652c6-6,0-16,7-21,11,0,15,8,22,16,1-11-5-17-8-24-3-7-6-15-11-22-7,9-2,21-11,27,0,4,2,7,2,11,0,4-4,7,0,12Z"/>
      <path class="cls-2" d="M446,576c4,22,8,43,12,65,0,0,0,2-2,5-2-3-3-4-3-6,0-4,0-9-1-13-1-7-3-15-5-22-2-9-5-19-2-29Z"/>
      <path class="cls-2" d="M245,608c0,6,0,12,1,18,0,0-1,0-2,0l-2-18h3Z"/>
      <path class="cls-2" d="M248,639c0,5,1,9,2,14,0,0-1,0-2,0l-2-14c0,0,1,0,2,0Z"/>
      <path class="cls-2" d="M299,578h-5s0,0,0,0c2,0,4,0,5,0,0,0,0,0,0,1Z"/>
      <path class="cls-2" d="M577,1167c0,3,1,5,1,7,0,21,0,43,0,64,0,11,0,12-12,12-44,2-89,4-133,6-37,2-75,4-112,6-1,0-2,3-31,5-1-2-2-4-3-7-4-24-6-48-6-72,0-8,2-1,1-11,8-1,16-2,24-2,35-3,7-7,106-8,44-2,89-1,133-2,7,0,15,0,22,0ZM3,124c5,12,12,16,2,13,1-4,15-13,1-22-2-5-6-9-9-13-4-5-1-8-14-13-3-4-2-7,3-11,4-3,7-2,9,2,1,2,3,3,4,5,0,0,1-1,2-2-2-3-4-7-6-1-1-1-3-2-5-2-6,0-9,4-12,8-3,4-3,8,0,12,5,5,1,9,15,13,3,3,6,6,8,1,3,6,2,9-2,14-5,4-11,5-16,2-2-1-4-4-8-7ZM378,1216c3-3,5-6,7-7,3-2,6-5,5-9,0-5-5-6-9-7-2,0-5,0-8,0-4,0-6,3-5,7,1,11,3,22,4,34,0,1,2,3,2,4,0,0,0,0,1,0,0-5,0-1-1-17,6,3,1,5,14,6,4,1,9,4,13,0-8-3-15-6-25-1ZM524,1191c4-9,1-8,17-6-5-7-7-7-14-4-4,2-8,4-7,9,0,3,3,6,6,8,4,3,9,4,13,7,4,2,8,4,8,9,0,5-6,6-1,7-5,1-1,2-16,3,4,4,8,4,12,3,5-1,9-2,13-4,7-2,9-9,5-14-2-3-6-6-1-8-5-3-11-6-17-9ZM343,1213c-2-11-2-11,7-13,3,0,8,0,1-6-8,1-14,2-21,3-2,1-2,2,0,3,4,18,5,19,24,14,1,0,2-2,4-5-6,0-1,1-14,1-6,0-9-3-11-12-1-6,0-8,6-1,3-1,6-2,9-3,0,0,0-2,0-2-4,0-9,2-14,2ZM513,1197c-4-4-7-2-11-2-4,0-8,0-11,1,0-1,1-11,8-12,3,0,6,2,8-3-12-5-21,0-21,12,0,6,1,12,3,18,0,3,2,6,4,9,4,4,7,4,12,0-11-3-13-6-12-17,3-1,6-2,9-3,3,0,6-2,11-3ZM481,1222c0,0,0-2,0-3-4,0-8,0-12,1-4,0-7,0-1-4-4-6-4-22,0-28,3-4,7-4,1,0,1,2,3,5,4,8,0-2,0-3,0-3,0,0,0-1,0-2-2-8-5-11-1-11-5,0-9,4-11,1-3,9-3,18,1,27,1,3,5,6,8,7,6,1,12,0,18-3ZM408,1197c-2,14,7,31,17,35,2-9,0-37-3-44,0,12,2,23,0,34-6-3-6-8-8-12-2-4-4-9-6-13ZM439,119c-4,14,0,33,5,37-2-12-3-24-5-37Z"/>
      <path class="cls-2" d="M276,1179c2,28,4,55,6,82-7-12-11-66-6-82Z"/>
      <path class="cls-2" d="M594,1255q-7-2-5-16c2,6,3,1,5,16Z"/>
      <path class="cls-2" d="M584,1231v13s0,0,0,0c0-2,0-4,0-7,0-2,0-5,0-7,0,0,0,0,1,0Z"/>
      <path class="cls-2" d="M5,1031c0,4,1,8,1,12,0,12,0,25,1,37,0,13,2,26,3,39,0,11,0,11-11,12-44,3-88,6-132,14-18,3-37,4-56,6-7,0-13,2-2,3-5,0-9,0-14,1,0-6-2-11-2-17-3-23-5-46-8-68-1-12,5-2,17-22,9-2,18-3,27-4,38-3,76-6,114-8,2-1,41-3,61-4,6,0,12,0,19,0ZM292,1136c0,0,2,0,2,0,0-2,0-5,0-7,0-5,0-1,0-15,0-8,2-13,9-16,8-3,15-9,19-17,3-6,1-1-6-12-9-3-18-1-28,3,0,21,1,43,3,64ZM335,1105c4-3,6-6,9-8,2-2,5-4,6-7,0-2,0-5-1-6-3-3-18-2-21,0-1,1-2,3-2,4,0,12,2,24,3,36,0,1,2,2,4,4,0-7-1-12-2-19,5,2,9,3,13,4,4,1,7,6,14,1-8-4-15-7-24-11ZM422,111c1,0,3,0,4,0-1-5-2-11-3-17,7,6,12,1,18,15,6-8,0-14,0-2,0-6-2-12-6-18,0,1,5,19,3,31-5-5-9-9-13-13-4-4-2-11-1-14,1,13,3,25,6,36ZM472,107c0-5-4-11-8-1-3,0-7,3-9,5-7,9-6,27,0,36,3,4,7,6,12,3,4-2,7-5,1-8,4-4,4-7,2-1-3-4-9-4-14,0,4,0,8,2,12,2-1,7-7,8-1,11-4,3-7,2-1-3-3-6-4-13-3-19,3-12,7-14,17-7ZM393,1093c0-3,0-5,0-7-1-7-5-8-11-5-9,4-14,16-1,25,4,11,18,13,27,2-4,0-6,0-8,2-5,2-9,0-13-3-3-4-3-9-2-13,2-4,4-9,9-8,2,0,5,4,8,8ZM405,1075c-2,6,0,23,3,3,0,1,2,2,4,4,0-9-3-29-7-34ZM368,1115c0-5-1-11-3-16-2-5,2-12-4-16-2,1,0,26,7,32Z"/>
      <path class="cls-2" d="M498,1136c-29,2-58,5-87,7,0,0,0-2,0-2,29-4,58-6,87-5Z"/>
      <path class="cls-2" d="M51,1136c0-7,0-13,0-19,0-11-2-21-4-32,0,0,1,0,2,0,2,14,4,29,6,43,0,3,1,8-4,8Z"/>
      <path class="cls-2" d="M364,103h44c-15,2-29,2-44,0Z"/>
      <path class="cls-2" d="M35,1034c-2,0-4,0-6,0-1,0-3,0-4-1,3,0,6,0,1,0,0,0,0,0,0,1Z"/>
      <path class="cls-2" d="M386,1386c2,5,5,11,7,16,2,6,0,1-5,11-5,1-9-1-11-7-3-9,0-16,8-2Z"/>
      <path class="cls-2" d="M332,471c0-2,1-3,2-6,4,5,4,1,1,15-2,5-8,5-12,2-5-4-7-13-4-19,1-2,4-4,7-4,1,0,3,3,4,6,0,2,0,4,0,6h1Z"/>
      <path class="cls-1" d="M466,72c-6,8,2,15,6,24-11-4-1-14-14-2-6-2-12,0-17,3-3,7,5,12,2,19-2-2-4-3-4-4-2-4-3-9-4-13-1-3-2-8-4-8-4-1-1,0-14,0-1,0-3,2-4,3,3,8,5,17,7,25,0,0-2,0-3,0-7-8-7-19-11-28-3,0-6,0-1,0,0-4,3-5,5-5,7-1,15-2,22-3,4,0,8-2,13-3,1,2,2,6,4,9,5,0,1-1,16-2,0-3,0-5,1-8,0,0,2,0,2,1,2,3,4,6,7,1Z"/>
      <path class="cls-1" d="M29,77c-5-14-8-29-12-45,12-3,23-4,34,1-3,11-13,14-2,22,1,6,23,4,3,13-1-2-2-6-31-6,0,5,1,9,2,14-1,0-2,0-3,0ZM307,729c-1-3-13-3-21,0,0,5,0,1,3,14,8-3,14-7,18-15Z"/>
      <path class="cls-1" d="M515,694c4,6,13,36,13,44-4,0-4-3-5-5-2-8-4-16-7-24,0-2-2-4-3-7-5,3-6,8-7,12-3,9-8,11-15,5-3-2-5-5-9-8-3,12,2,21,5,32-9-6-12-27-7-41,2,1,4,2,5,4,2,2,3,5,5,7,5,5,9,5,12-2,3-6,6-12,11-17Z"/>
      <path class="cls-1" d="M333,757c-4-8-8-17-8-27,0,0,2,0,2-1,1,2,3,4,5,7h13v-13c7,9,8,19,13,27q-5,0-1-8h-15c1,5,2,1,3,14-1,0-2,0-3,0Z"/>
      <path class="cls-1" d="M382,727c1-3,2-6,4-11,4,13-2,24,0,35-7-4-3-11-5-17-4,0-8-2-12-3-4-1-7-3-9-8,7,0,13,8,21,4Z"/>
      <path class="cls-1" d="M34,628c0,6-1,1-7,12-6,3-13,5-19,8-1-2-3-4-3-5-3-1-5-19-7-29-2-8,0-1,7-1,7,0,14,0,21,2,7,2,7,6,2,11-2,2-5,4-8,7,6,2,11,4,15,6h0ZM313,625c7-7,15-8,18-15-1-5-16-6-25,0,4,1,4,22,1,32,7-2,15-3,18-12-7-2-14-3-22-5Z"/>
      <path class="cls-1" d="M413,629c-8-7-5-17-9-26h-14c0,5,0,1,0,15,0,4,0,8,0,12-1,6-6,7-9,2-3-4-5-8-6-13-2-5-2-11-2-17,7,8,4,2,13,27,4-11,0-21,0-31,8,0,15,0,22,0,7,0,14-5,2-2,0,0,0,2,0,3-6,1-12,2-18,3-2,1,3,18,3,27Z"/>
      <path class="cls-1" d="M275,652c-4-5,0-8,0-12,0-3-1-7-2-11,9-6,4-18,11-27,5,7,8,15,11,22,3,7,1,13,8,24-7-8-11-16-22-16-6,5,0,14-7,21ZM285,612c-5,14-4,17,1,18-3-6-7-11-1-18Z"/>
      <path class="cls-1" d="M34,628c0-2,0-5,0-7,0-4,1-8,3-11,2-5,6-8,12-7,6,0,1,4,11,9,2,6,3,12,2,17-1,1-12,13-2,7-3-2-5-5-8-8,0,0,0,0,0,0ZM344,619c0,5,3,12,8,14,3,2,6,2,9,0,5-4,4-1,3-15,0,0,0-1,0-2-2-5-7-9-11-8-4,0-9,7-9,12Z"/>
      <path class="cls-1" d="M3,124c4,3,6,5,8,7,5,3,11,2,16-2,4-4,5-8,2-14-2-4-5-7-8-1-5-5-1-9-15-13-4-4-3-8,0-12,3-4,6-8,12-8,2,0,4,0,5,2,2,3,4,6,6,1,0,0-1,1-2,2-1-2-3-3-4-5-3-4-6-4-9-2-5,3-6,7-3,11,4,5,1,8,14,13,4,4,7,8,9,13,4,9,0,18-1,22-8,3-15,0-2-13Z"/>
      <path class="cls-1" d="M378,1216c9,4,17,7,25,1-4,5-9,2-13,0-4-1-8-4-14-6,0,7,0,12,1,17,0,0,0,0-1,0,0-1-2-3-2-4-2-11-3-22-4-34,0-4,1-7,5-7,3,0,5,0,8,0,4,0,8,2,9,7,0,4-2,7-5,9-2,2-4,4-7,7ZM386,1202v-3c-4,0-8-2-13-3,0,5,0,9,1,15,5-4,8-6,12-9Z"/>
      <path class="cls-1" d="M524,1191c6,3,12,6,17,9,4,2,7,5,1,8,4,6,2,12-5,14-4,2-9,3-13,4-4,0-8,0-12-3,6-1,11-1,16-3,4-1,9-2,1-7,0-5-4-7-8-9-4-2-9-4-13-7-3-2-6-5-6-8,0-4,3-7,7-9,7-3,9-2,14,4-7-2-13-2-17,6Z"/>
      <path class="cls-1" d="M343,1213c5,0,9-2,14-2,0,0,0,2,0,2-3,1-6,2-9,3-7,3-8,4-6,1,2,9,4,12,11,12,4,0,8,0,14-1-2,2-3,4-4,5-2,5-21,4-24-14-2-1-2-2,0-3,7-1,14-2,21-3-2,7-7,5-1,6-9,3-9,3-7,13Z"/>
      <path class="cls-1" d="M513,1197c-4,1-8,2-11,3-3,0-6,2-9,3-1,11,0,14,12,17-4,4-8,5-12,0-2-2-4-6-4-9-1-6-2-12-3-18,0-12,8-18,21-12-1,4-5,2-8,3-7,1-8,3-8,12,4,0,8,0,11-1,3,0,7-2,11,2Z"/>
      <path class="cls-1" d="M481,1222c-6,3-12,4-18,3-3,0-6-4-8-7-4-9-5-18-1-27,2-6,7-1,11-1,5,0,8,3,1,11,0,0,0,1,0,2,0,0,0,1,0,3-2-3-3-6-4-8-3-5-7-5-1,0-4,6-5,22,0,28,2,3,6,4,1,4,4,0,8,0,12-1,0,0,0,2,0,3Z"/>
      <path class="cls-1" d="M408,1197c2,4,4,9,6,13,2,4,2,9,8,12,2-11,0-22,0-34,4,7,5,35,3,44-9-4-18-21-17-35Z"/>
      <path class="cls-1" d="M439,119c2,12,3,25,5,37-6-4-9-23-5-37Z"/>
      <path class="cls-1" d="M292,1136c-2-21-2-43-3-64,9-4,18-6,28-3,7,2,8,6,6,12-4,9-11,14-19,17-8,3-1,8-9,16,0,5,0,1,0,15,0,2,0,5,0,7,0,0-2,0-2,0ZM32,1075c-8-5-15-3-22,0-1,0-3,3-3,4,0,6,0,12,2,19,11-5,19-1,23-22Z"/>
      <path class="cls-1" d="M335,1105c9,4,15,7,24,11-7,5-1,0-14-1-4-1-8-3-13-4,0,7,1,12,2,19-3-2-4-3-4-4-1-12-2-24-3-36,0-1,0-3,2-4,3-3,18-4,21,0,1,1,2,4,1,6-1,3-4,5-6,7-2,2-5,5-9,8ZM333,11c4-4,8-8,13-12-13-3-16,0-13,12Z"/>
      <path class="cls-1" d="M422,111c-3-12-5-23-6-36,8,2,6,1,1,14,4,4,8,8,13,13,2-12-3-21-3-31,4,5,5,12,6,18,0,6,6,12,0,2-6-5-12-1-18-15,1,6,2,12,3,17-1,0-3,0-4,0Z"/>
      <path class="cls-1" d="M472,107c-1-7-14-6-17,7-1,7,0,13,3,19,3,5,5,6,1,3,4-3,9-4,1-11-4,0-8-2-12-2,5-4,11-4,14,0,3,3,2,7-2,1-3,3-7,6-1,8-5,3-9,2-12-3-7-9-8-27,0-36,2-3,6-5,9-5,4,0,7,5,8,1Z"/>
      <path class="cls-1" d="M393,1093c-3-4-5-8-8-8-5,0-7,5-9,8-2,5-2,9,2,13,3,4,8,5,13,3,2,0,5,0,8-2-9,11-23,9-27-2-4-1,0-21,1-25,6-3,9-2,11,5,0,2,0,4,0,7Z"/>
      <path class="cls-1" d="M405,1075c3,5,7,25,7,34-2-2-3-3-4-4-3-6-4-24-3-3Z"/>
      <path class="cls-1" d="M368,1115c-6-6-9-22-7-32,6,5,3,11,4,16,2,5,2,11,3,16Z"/>
      <path class="cls-2" d="M307,729c-4,7-1,12-18,15-4-4-4-9-3-14,8-3,12-3,21,0Z"/>
      <path class="cls-2" d="M313,625c8,2,15,4,22,5-3,9-11,9-18,12-6-1-6-22-1-32,8-5,15-5,25,0-3,7-12,8-18,15Z"/>
      <path class="cls-2" d="M285,612c4,6,7,12,1,18-14,0-16-4-1-18Z"/>
      <path class="cls-2" d="M344,619c0-5,4-11,9-12,4,0,9,4,11,8,0,0,0,1,0,2,0,5,1,11-3,15-3,3-6,2-9,0-5-2-8-9-8-14Z"/>
      <path class="cls-2" d="M386,1202c-3,3-7,5-12,9,0-6,0-9-1-15,5,1,9,2,13,3v3Z"/>
      <path class="cls-2" d="M32,1075c-4,12-13,17-23,22-3-7-2-13-2-19,0-2,2-4,3-4,7-3,14-4,22,0Z"/>
      <path class="cls-2" d="M333,11c-4-11,0-14,13-12-4,4-8,8-13,12Z"/>
    </g>
  </g>
</svg>