<?xml version="1.0" encoding="UTF-8"?>
<svg id="Layer_2" data-name="Layer 2" xmlns="http://www.w3.org/2000/svg" viewBox="0 0 2226 2877">
  <defs>
    <style>
      .cls-1 {
        fill: #000;
      }

      .cls-1, .cls-2 {
        stroke-width: 0px;
      }

      .cls-2 {
        fill: #fff;
      }
    </style>
  </defs>
  <g id="Layer_1-2" data-name="Layer 1">
    <g>
      <path class="cls-1" d="M0,18c0-1,0-2,0-2C5,7,12,5,21,6c14,2,28,2,42,2,27,0,55-1,82,0,37,0,74,2,111,3,14,0,28,0,42,0,34,1,69,3,103,5,32,1,63,1,95,2,32,0,63,2,95,3,22,0,43,0,65,1,63,1,125,2,188,3,36,0,72,0,108,0,66,0,133,2,199,2,6,0,12-1,18-2,15,0,3,0,45,0,28-2,56-4,85-6,23-2,45-4,68-6,11,0,22-1,33-2,14-1,28,0,42,2,19,2,39,2,58,3,1,0,21,0,31,1,28,3,57,1,85,0,34-2,67-3,101-4,17,0,34,0,51,0,27,1,54-2,81-3,1,0,2,0,3,1,3,0,5,0,8,0,22-2,44-5,65-7,6,0,13-1,19-2,16,0,31,0,47-2,7,0,1,5,16,6,0,0,2,4,2,6-1,18-3,36-4,54-2,3-3,61-4,91-1,37-3,73-3,11,0,41,2,83,2,124,1,57,2,113,4,17,0,38,2,75,3,113,0,35,0,7,0,105,0,37,1,73,2,11,0,49,0,99,0,148,0,4-2,8-2,12,0,63-1,127-1,19,0,58,2,116,2,174,0,45,0,89,0,134,0,25,0,49,2,74,2,45,3,9,5,135,1,31,3,62,6,93,5,57,6,113,5,17,0,5,0,1,0,15,1,56,4,112,5,168,0,42,0,84,0,126,0,7,0,14-1,21-2,24,0,49,1,73,1,24,0,48,2,72,0,18,3,36,4,54,0,6,0,12,1,18,0,9,1,18,2,29-2,3-8,2-12,3-9,1-17,1-26,2-2,0-5,0-7,1-16,7-34,7-51,7-44,0-89-2-133-3-35,0-69-2-104-3-39,0-77-2-116-2-43,0-86,0-129,2-52,3-103-1-155,0-32,0-63,0-95,0-22,0-44-2-66-3-42,0-83-1-125-2-45,0-9,0-135-1-28,0-55,0-83,0-54,1-108,4-162,5-41,1-83,1-124,2-23,0-46,3-69,3-22,0-44,1-66,0-52-2-104,0-156,4-17,1-34,2-51,2-2,0-39,2-59,5,0,0-1,0-2,0-21,0-42,3-63,8-5,1-11,0-17,0-2-3-41-2-61,0-33,2-66,3-99,4-11,0-22,0-34,4-8,3-16-4-16-12,0-24-1-49-2-73,0-41-1-83-1-124,0-53,0-107,0-16,0-45,0-91,1-136,0-8,1-17,2-25,3-36,0-71,2-107,0-19,2-37,2-56,0-36,2-71,2-107,0-58,0-116,2-174,0-31,2-62,3-93,0-22,1-44,2-66,0-21,0-41,0-62,0-26,2-53,3-79,0-18,0-36,0-54,0-38,1-76,2-114,0-39,0-79,0-118,1-39,0-79-1-118,0-16,0-32-1-48,0-36-2-72-2-108,0-38,1-77,1-115,0-2-1-4-1-6,0-52,0-104,0-156,0-56,0-111-2-167,0-32-2-64-4-96,0-8,0-16,0-24,0-25-2-51-2-76,0-18,0-35,0-53,0-1,0-21-2-31-3-18,0-37-1-55,0-13-1-25-2-38,0-3,0-7,0-1-2-27-3-53-5-8,0-17-2-33-3-5,0-6,0-12-6-16ZM266,2854c3,1,6,1,8-2,0,0,0-1,0,0-2,0-5,2-7,3-7,0-13,0-2,0-16,0-32,2-49,3-2,0-5,0-7,1,9,2,17,3,26,3,17,0,33-1,49-7ZM159,183c0,9,0,17,1,24,1,17,4,34,5,51,2,27,3,53,4,8,1,3,3,59,4,89,1,34,2,67,3,101,0,42,0,84,0,126,0,31,0,63,0,94,0,3,0,59,0,89,0,62,0,123,0,185,0,15-2,31-3,46-1,15-3,31-4,46,0,25,0,5,0,75,0,34-2,69-2,103,0,6,0,119,0,179,0,73,1,145,2,218,0,48,2,96,3,144,0,39,3,78,3,117,0,71,0,143,0,214,0,66,2,131,3,197,1,58,3,115,4,173,0,47-2,94-3,141,0,1,0,2,2,29,2,0,3,0,4,0,25-2,49-3,74-5,1,0,18,2,22,12,0,0,1,2,2,2,9,0,19,1,28,2,12,1,24,2,37,0,6-1,12,0,18-1,29,0,58-1,87-3,29-1,57-3,86-5,24-1,47-2,71-3,22-1,43-2,65-3,26-1,52-1,78-3,22,0,44-3,66-4,21,0,42,0,63-1,56-2,111-5,167-7,2,0,39,0,59-1,4,0,79-2,119-3,12,0,25,0,37,0,26,0,53,0,79,0,3,0,59,0,89-1,54-2,108-6,162-5,47,0,95,1,142,2,46,0,91,0,137,0,33,0,66,0,99,0,31,0,62-2,93-4,4,0,8-1,12-2,0-5,0-9-2-13-4-18-4-37-3-56,0-11,0-23,0-34,0-15-2-31-3-46-2-32-3-65-6-97-4-37-3-74-2-111,0-25,1-49,1-74,0-26-3-51-2-77,1-48,0-97-2-145-3-48-5-96-8-145-1-23-3-45-3-68,0-33,0-67,1-1,0-46,0-92,0-138-1-53,3-105,0-158-2-44-3-88-3-132,0-27,0-54,0-81,0-4,3-79,1-119-2-42,0-85,0-127,0-31,0-63,0-94,0-33,0-65,1-98,0-3,0-59,2-89,3-4,3-81,4-121,0-31-2-61-2-92,0-16,2-32,3-48,0-25,3-49,0-74,3-17-2-34-4-52-1-13,0-26,0-39,0-13,0-25,0-38,0-1,0-2-1-4-26,7-54,5-8,15,0,3,0,6,0,8,0,9,0,17-2,26-2,13-8,17-21,16-6,0-11,0-17,4,0,3,1,7,2,11,0,7,2,15,3,22,0,7,1,14,2,22,0,2,0,5-2,6-5,3-1,6-15,7-11,2-22,2-33,3-15,2-29,4-44,6-19,3-39,6-58,7-4,3-79-4-119-5-2,0-4-2-6-2-28,0-57,0-85,1-13,0-25,1-38,3-14,1-27,4-41,5-6,0-11,0-13-6,0-2-3-4-5-4-5-2-6-5-7-9,0-5,0-1,0-15,2-2,2-4,0-6-2-25-2-49-4-74,0-1,0-2-1-4-3,0-59-1-88-2-61-1-122-2-183-3-2,0-41,0-61,0-31,1-63,4-94,5-5,0-1,0-15,0-38,0-77-1-115-2-1,0-21,0-31,0-27,0-53-3-8-2-3,2-6,2-9,2-44,0-87,2-131,2-25,0-5,0-75,0-29,0-58,2-87,4-12,0-23,0-35-3-7-2-14-3-2-5-3,0-7,0-13,0ZM164,2704c0-3,2-6,2-8,2-23,4-47,4-7,1-6,1-121,2-181,0-22,2-45,2-67,0-4-2-79-4-119-1-32-4-65-5-97,0-32,0-63,0-95-1-57-3-114-4-171,0-38,0-76,0-114,0-74,0-149,0-223,0-15,2-31,1-46-1-62-3-123-4-185,0-29,0-58,0-87,0-39,1-79,2-118,0-52,1-104,1-156,0-5,0-99,0-149,0-45-2-89,0-134,2-55,0-11,0-165,0-21-2-41-2-62,0-34,1-68,0-102-1-41-3-83-7-124-1-19,0-37-5-56-1-4,0-9,1-14,9,0,17,0,25,0,34,0,69,0,103-1,61,0,123,0,184-1,29,0,57-2,86-1,33,0,65,2,98,4,6,0,12,0,18,0,27,1,53,4,8,4,35,0,7-1,105-1,61,0,122,0,183,0,33,0,65,1,98,2,11,0,22,0,33,0,35,0,69,2,104,3,57,0,113,0,17,0,13,0,27,0,4-2,31-2,61-6,92-8,42-2,85-4,127-5,2,0,4,0,6-1,0-5,0-9,0-13,0-1,0-2,3-3,2-6,6-9,12-9,7,0,13,0,2-1,19-1,37-2,56-3,2,0,4,0,6,0,0-2,0-4,0-5,1-1,2-19,4-29,0-5,3-8,8-9,16-1,32-4,49-4,17,0,35,2,52,2,26,0,52,0,78,0,16,0,33,0,49,2,17,1,17,3,19,19,0,0,0,2,0,3,0,22,0,45,0,67,0,5,0,1,2,15,2,6,2,12,0,18-3,12-4,25-3,38,2,31,3,61,4,92,0,2,0,4,0,6,0,3-1,61-1,91,0,19,2,37,1,56-3,53-1,107-1,16,0,28,4,56,2,84-1,34-2,68-2,102,0,15,0,3,0,45,0,16,0,33,0,49,0,38,0,77,0,115,0,43-2,86-2,129,0,36,2,73,2,109,0,37,2,73,4,11,2,54,3,109,5,163,0,2-1,39-1,59,0,22,1,45,2,67,0,27,0,53,0,8,0,8-1,16-1,24,0,24,2,49,2,73,0,39,1,79,3,118,1,35,3,69,4,104,1,34,3,68,4,102,0,19-1,37-2,56,0,22,0,45,0,67,0,33,2,67,3,1,0,27,1,54,2,81,0,19,0,38,0,57,0,13,2,26,3,39,1,24,0,48,5,72,2,9-5,13-11,14-13,1-26,2-39,2-28,0-55,0-83,0-42,0-83-1-125-1-49,0-99,0-148,1-19,0-38,2-57,3-52,5-105,8-158,8-35,0-69-2-104-3-55-1-109-3-164-4-39,0-79,1-118,1-3,0-59,0-89,4-32,3-65,6-98,9-13,1-25,1-38,2-35,2-71,4-106,5-34,1-68,2-102,2-32,0-63,1-95,0-31,0-61-3-92-3-17,0-33,2-5,2-41,1-82,6-122,9-2,0-4,0-7,1,0,2,0,3,0,4,2,18-2,36-4,55-2,19-1,37,2,56,1,7,2,7,9,8,7,0,13,0,2,0,17-1,33-1,5-4,36-6,72-8,109-6,22,1,45,0,67,0,21,0,42-1,63-2,28,0,56,0,84,0,41-1,83-3,124-5,42-1,85-2,127-3,54-1,107-2,161-4,44-1,87-3,131-5,14,0,28,0,42,0,44,0,89-1,133-1,29,0,59,1,88,2,27,0,54,0,81,1,35,1,7,4,105,5,3,1,6,1,9,1,39,0,79,1,118,0,35,0,71-2,106-2,25,0,51,0,76,0,18,0,37,0,55,0,29,1,58,3,88,0,3,0,6-1,8-2,0-3,0-5,0-7,0-27,0-53-4-8-2-2-3-39,0-59,1-8,0-17,0-25,0-12-2-23-2-35,0-12,0-23,0-35,2-53,0-105-4-158-2-34-5-68-6-102,0-44,0-87,0-131,0-42,0-85,0-127,0-36-1-72-2-108,0-31,0-61-1-92-1-47-3-95-4-142,0-19-1-37-2-56-2-35-4-69-5-104-2-32-3-63-4-95,0-22-3-45-3-67,0-4,0-81,1-121,1-44,3-88,4-132,0-32,2-65,2-97,0-24,0-48,0-72,0-28-3-56-3-84,0-56,1-112,1-168,0-49-1-97-2-146,0-42-3-83-4-125-1-51-1-103-2-154,0-18-2-37-1-55,1-32,4-65,5-97,2-44,8-88,4-132,0-5,0-1,0-15-4,0-6-1-9-1-11,0-23,2-34,2-19,0-38,6-57,3-2,0-3,0-5,0-4,0-8,0-12,1-24,0-47,0-71,0-23,1-46,4-69,6-26,1-51,2-77,3-22,0-43,0-65,0-47,0-95-3-142-3-35,0-7,0-105,2-53,0-105,2-158,3-53,0-106,5-16,4-44-1-89,0-133,0-36,0-72,0-108,1-24,0-47,0-71,0-12,0-24-2-36-2-41-1-81-2-122-3-21,0-42-2-63-2-56-1-113-2-169-3-24,0-48,0-72-1-41-1-82-4-123-5-31,0-62,0-93,0-44,0-88-2-132-2-25,0-51-2-76,1-8,1-1,2-9,9,0,23,0,46,3,69,3,32,7,63,1,95,2,22,2,44,4,66,0,12,2,24,0,36-1,9-2,17-2,26,0,26,0,51,0,77,0,2,0,41,1,61,0,26,2,53,3,79,0,28,0,55,0,83,0,33,2,66,3,99,0,34,1,69,0,103,0,73,0,147,0,22,0,47,1,94,2,141,0,29,0,57,0,86,0,66,2,132,2,198,0,55,0,109,0,164,0,43-1,86-3,129-2,53-5,105-6,158-1,63-1,125-2,188,0,23,0,47,0,7,0,39,0,78,0,117,0,5-3,1-4,15-1,52-2,104-2,156,0,13,0,25,0,38,0,21,0,43,0,64,0,5-4,13,2,16,5,2,12,0,17,0,25-2,5-5,76-7,16-1,32-2,49-3ZM22,2814c0,9,2,22,3,34,0,11,4,11,12,11,26-1,53-2,79-3,15,0,3,0,45-2,33-3,65-8,98-7,11,0,13-3,12-14-2-16,0-32,3-48,1-6,1-13,1-2,0-15-2-31-2-46,0-6-2-9-8-9-13,0-27-1-4,0-27,2-54,5-81,3-8,0-16-1-24,0-26,0-52,5-78,1-18,4-2,7-2,26,0,21,0,41,0,65ZM191,168c-5,0-9-1-13,0-12,0-25,0-37,0-59,0-117,5-175,12-19,2-38,3-58,4-1,0-21,0-31,0-21,0-41,1-62,2-21,0-41,0-62,2-12,0-24,3-37,5-6,0-9,4-1,1,0,3-2,6-2,9,0,14,0,27,0,41,0,6,0,12,2,18,2,19,4,38,7,56,2,11,2,11,14,12,5,0,9,0,14,0,29,0,57,0,86,0,45,0,89-2,134-4,5-2,99-6,149-9,21-1,42-4,64-6,6,0,12-2,19-4,5,0,8-4,8-9,0-11,0-23,0-34,0,0,0-2,0-3-7-6-4-15-6-22-2-8-1-17-3-26-1-8-2-16,0-25,1-9,1-19,2-3ZM205,118h0c0,1-2,21-2,31,0,57,2,115,3,172,0,28,3,56,2,85-2,33,0,66,0,99,0,34,0,68,0,102,0,24-1,48-1,72,0,56,1,113,4,169,3,59,7,118,1,177,0,12,0,25,0,37,0,3-2,6,0,9,2,35,2,69,0,104,0,31-3,62,0,93,1,1,1,21,2,31,2,22,4,43,6,65,0-2,0-4,0-6-1-51-3-103-5-154,0-6,0-13,0-19,4-44,4-88,2-133-2-46-5-91-7-137-1-28-2-55-2-83,0-8,0-15,0-23,0-42-1-84-1-126,0-59,0-117,0-176,0-64-1-128-5-192-2-36-3-73-4-109,0-38-1-77-2-115ZM1969,178c2,0,4,2,7,2,14,0,27,0,41-2,2,0,5-2,5-3,3-12,1-24,7-38-2-9-2-18-2-28,0-7,0-14,0-22-3,0-4,0-6,0-24,0-49-2-73-2-19,0-39,0-58,0-9,0-18,0-27,0-11-2-2,0-3,4-3,1-6,3-5,8,3,0,5,0,8,0,29,0,59,0,88,2,14,0,27,2,4,13,2,21,4,42,6,66ZM2188,1595c0,0,1,0,2,0,0-7,0-15,0-22,0-21,0-41,0-62,0-41,0-81,0-122,0-48-3-97-3-145,0-61,2-121,4-182,0-25,1-49,1-74,0-33,0-66,0-99,0-41-1-81-2-122,0-21,0-43-1-64,0-19,0-37-1-56,0-38-2-77-3-115,0-36-2-72-3-108-1-53-2-107-3-16,0-23,0-45,0-65,0,4-2,11-2,18,0,27-2,54,0,82,2,56,2,112,3,168,0,17,0,33,0,5,1,37,4,73,4,11,0,7,0,14,0,21,0,52,0,105,2,157,2,4,1,81,0,121,0,37-3,74-4,111,0,3-2,6-2,9,0,36,0,73,0,109,0,38,3,77,5,115,0,19,2,37,2,56ZM1937,246c0-12,0-22,0-33-1-22-3-44-4-66,0-7-3-12-1-14-15-6-31-5-46-5-1,0-2,2-3,2-24,0-48,0-72,1-9,0-17,2-26,3-12,2-14,6-11,2,2,0,5,0,8,0,8,0,17,0,25,0,42,0,84,0,127-5,3,0,6,0,8,2,6,5,11,11,12,19,2,18,3,36,4,55,0,7,1,14,2,22h13ZM483,2711c1,2,2,3,2,3,3,0,7,0,1,0,57,0,114,2,171,0,36-2,71,0,107-2,39-2,78-4,118-7,19-1,39-2,58-5,47-6,93-1,14-9,5,0,1,0,15-2-19-1-38-2-57-1-56,2-112,3-168,5-53,2-105,5-158,7-9,0-18,1-27,2-23,2-45,6-68,6-35,0-69,0-104,0-13,0-26,0-4,0ZM1966,204c5,0,9,0,13,0,12-1,23-2,35-4,8,0,16-2,24-4,5,0,7-3,7-9,1-26,4-52,5-78,0-1,0-2-1-3,0-9,0-9-1-1-18-2-36-4-54-5-36-1-73-2-109-2-17,0-34,0-51,1-7,0-13,1-16,8-3,8-3,17-3,25,11,2,11,2,13-7,0-4,1-7,2-11,2-8,3-9,1-9,19,0,37,0,56,0,2,0,4,2,6,3,16,0,31,0,47,0,13,0,27,2,4,4,8,0,8,2,8,1-2,3-5,6,0,9,1,7-2,1-9,12-4,0-7,0-11,0-18,0-36,2-55,2v11ZM1701,2684c-36-1-75-3-113-4-31,0-61,0-92,1-28,0-55,2-83,4-14,1-28,5-41,6-15,1-31,0-46,0,9,2,17,3,26,3,32,1,63,3,95,3,42,0,83-1,125-3,44-2,87-7,129-1ZM1182,2833c2,0,3,0,5,0,33,0,66,0,99,1,21,0,41,0,62,1,27,0,54,3,81,3,4,0,79,0,119,0,23,0,47,2,7,2,21,0,42-2,64-3-166-1-333-12-499-5ZM1951,23c0,0,1,0,2,0,1-12,4-25,4-37,0-23,0-45-1-68,0-8,0-9-8-1-3,0-5,0-8-1-17-1-33-3-5-3-22,0-43-3-65,0-22,2-43,3-65,5-12,0-24,3-37,3-5,0-8,3-9,8-1,9-2,19-3,28,9,0,9,0,1-5,0-6,0-11,0-16,9-4,16-8,26-8,9,0,18,0,27,0,23-1,45-3,68-4,11,0,22,0,33,0,12,0,24,0,36,0,6,0,11,0,17,0,3,0,7,0,9,0,2,8,3,14,5,21,2,6,4,12,6,18,2,14,4,28,2,43,0,7,0,15,0,22,0,2,0,5,2,7ZM664,172c0,0,0-2,0-3-7,0-15,0-22,0-38-1-76-3-114-4-29,0-58,1-87,2-87,0-174,2-262,3-6,0-11,0-17,1-1,0-2,2-3,4,1,0,2,2,4,3,1,0,3,0,4,0,8,0,15,0,23-1,24-2,47-3,71,0,19,2,39,0,58,0,18,0,36-3,54-3,29,0,57,2,86,2,29,0,57,0,86,0,28,0,57,0,85-1,12,0,23,0,35-1ZM65,177c0,0,0,2,0,3,4,0,8,0,12,0,26,0,53,1,79,2,1,0,19,1,29,2,32,0,64,0,96,0,37,0,73,0,11,0,6,0,11,0,17-1,6,0,11,0,17-2-7-1-15-2-22-2-56-1-113-3-169-4-36,0-73-2-109-3-2,0-4,2-6,5ZM221,2444s0,0,1,0c0-4,0-8,0-13,0-11,0-23,0-34-1-5-3-99-4-149,0-47,0-94,0-141,0-4,1-81-3-121,0-8-2-15-2-23,0,0-1,0-2,0,0,16,1,32,1,48,0,35,0,7,0,105,0,26,1,53,1,79,0,59-2,119,2,178,1,24,3,47,5,71ZM1421,177c0,0,0-2,0-3-48,0-97,0-145,0-48,0-96,0-144-2-3,0-59-2-89-2-39,0-78,0-117,0-7,0-14,0-21,0,3,2,6,3,1,3,31,0,61,2,92,2,77,0,154,2,231,2,41,0,82,0,123,0,2,0,4,0,61-1ZM601,181c0,0,0-1,0-2-11,0-22,0-34,0-23,0-45,0-68,0-15,0-29,0-44,0-36,0-71-1-107-1-22,0-45,3-67,3-28,0-55-4-83,0-5,0-1,0-15,0,18,9,37,9,56,8,39-2,77-4,116-5,29,0,59,0,88,0,48,0,97-2,145-2,4,0,8,0,12,0ZM169,1059c0,0,1,0,2,0,0-8,2-16,2-23,0-39-1-79-1-118,0-33,0-65,0-98,0-36,0-72,0-108,0-17,0-33,0-5,0-21,0-43,0-64,0-24-1-48-1-72,0-35-1-71-2-106-2,2-2,41-2,61,0,17,2,35,2,52,0,24,0,49,0,73,0,26,0,51,0,77,0,18-2,36-2,54,0,36,1,71,2,107,0,19,0,39,0,58,0,45,0,9,0,135,0,8,0,15,0,23ZM2051,1092c0,0,1,0,2,0,0-19,2-38,2-56,0-38,0-76,0-114,0-54,0-108,2-162,0-27-1-54-5-81,0,5,0,1,0,15,0,32,0,64-1,96-1,5-2,1,0,15,0,42,0,83,0,125,0,9,1,18,2,28ZM14,2694c0,0,1,0,2,0,2-157,4-314,6-471-2,5-3,11-3,17,0,33,0,67-2,1,0,16-2,32-2,48,0,37,0,74,0,111,0,26-1,53-1,79,0,16,1,32,1,48,0,18,0,35,0,53,0,5,0,11,0,16ZM171,2186c0,0,1,0,2,0,2-128,0-255-5-383-1,14-1,28-1,42,0,46,0,93,0,139,0,19,0,37,1,56,0,28,2,57,2,85,0,21,0,41,0,62ZM1707,172c-6,0-18,0-29,0-25,0-5,0-75,0-15,0-3,0-45,1-23,0-46,5-69,1,75-2,15,0,218-12ZM2165,2839c-84-3-167-3-251-2,84,3,167,9,251,2ZM1715,339c68-2,136-3,204-9v-8c-68,8-136,12-204,17ZM178,2438c0,2,0,4,0,6,0,42-1,84-2,126,0,2,0,41,0,61,0,2-3,39-4,59,0,4,0,9,4,13,4-12,7-232,4-264ZM2035,2678c-47,0-93,2-14,2-46,0-92,0-131,0,85,5,178,4,271-2ZM1704,348c42,6,104,5,121-4-42,3-82-5-121,4ZM1607,2s0,0,0-1c-9-1-18-4-27-4-34,2-68,4-102,6,0,0,0,1,0,2,43-1,86-2,129-3ZM1206,2684s0,0,0,0c17,0,34,2,52,2,31,0,61,0,92,1,9,0,18,0,27-4h-171ZM35,1582s0,0-1,0l-3,15c0,0,2,0,2,0,0-5,1-1,2-15ZM1816,23c37-1,73-2,11-3-37-3-74-3-11,3ZM21,223c-4,21,0,41,4,62,2-21-2-41-4-62ZM1199,269s0,0,0,0h-81s0,0,0,0h81ZM58,2864c15-1,31,2,46-2-16,0-31-2-46,2ZM1949,259c-7-5-14-5-21-4-1,0-3,3-3,4,0,0,2,3,3,3,7,0,13-2,2-3ZM209,271c0,0,0-1,0-2-6,0-11,0-17,0-5,0-11,0-16,0-5,0-1,0-15,3,16,0,32-1,48-2ZM35,1516s0,0,0,0v54s0,0,0,0v-55ZM15,2801c-1,12,0,25,0,37,1-12,2-25,0-37ZM16,2704s0,0,0,0v44s0,0,0,0v-44ZM142,185c18,0,21,0,26-4-11-1-17,0-26,4ZM2077,2606q-2,18,1,25c0-1-1-18-1-25ZM205,1164h0v-35s0,0,0,0v35ZM394,2849c0,0,0,1,0,2,8,0,16-1,24-2,0,0,0-2,0-2-8,0-16,2-23,2ZM615,2706s0,0,0,1c8,0,17-1,25-2,0,0,0-1,0-2-8,0-17,2-25,2ZM1792,161c8,0,15,2,22,0,0,0,0-2,0-2-7,0-15,2-22,3ZM2055,29c0-1,2-17,0-24,0,0-1,0-2,0,0,7,2,14,3,24ZM1739,16c0,0,0,2,0,3,3,0,6,0,1,0,3,0,6-1,1-2h-2ZM2182,166s0,0,0,0v-26s0,0,0,0v26ZM169,14c0,0,0-1,0-2h-2c6,0,13,1,2,2ZM1722,164c-3-6-5-6-1,0h1ZM1912,103s0,0,0,1c6,0,13,2,19,2,0,0,0-1,0-2-7,0-13-1-2-2ZM1891,78s0,0,0,0h-2c7,0,13,0,2,0ZM1781,106c0,0,0,1,0,2,5,0,9-1,14-2,0,0,0,0,0-1-5,0-1,0-15,1ZM1727,152c0,0,2,0,3,0,0-4,0-7,1-11h-2c0,3-1,7-2,11ZM932,32s0,0,0,0h-15s0,0,0,0h15ZM196,8s0,0,0,0h15,0c-5,0-1,0-15,0ZM1945,229c0,0-2,0-3,0,0,4,1,7,2,11,0,0,1,0,2,0,0-4,0-7-1-11ZM2031,171c0,3,0,5-1,1,5-4,5-7,1-1ZM1837,16s0,0,0,0h-13s0,0,0,0h13ZM1912,217s0,0,0,0v-14s0,0,0,0v14ZM1708,139s0,0,0,0v-14s0,0,0,0v14ZM228,13s0,0,0,0h11s0,0,0,0h-11ZM142,33h0v-11s0,0,0,0v11ZM128,2692s0,0,0,0h9,0c-3,0-6,0-9,0ZM1958,25s0,0,0,0v-9s0,0,0,0v9ZM1803,22s0,0,0,0h-8s0,0,0,0h8ZM1722,11s0,0,0-1c-2,0-5,1-7,2,0,0,0,0,0,2,3,0,5-2,7-2ZM1938,174s0,0,0,0c0-2,0-4,0-6h0v6ZM1901,16c0,0,0,1,0,2,1,0,3,0,4-1,0,0,0-1,0-2-1,0-3,0-4,1ZM2034,2684s0,0,0,0h-5s0,0,0,0h5ZM2051,172s0,0-1,0v5s1,0,1,0c0-1,0-3,0-4Z"/>
      <path class="cls-2" d="M22,2814c0-24,0-44,0-65,0-18,3-22,2-26,26-5,52-1,78-1,8,0,16,0,24,0,27,1,54-1,81-3,13-1,27,0,4,0,7,0,8,2,8,9,0,15,2,31,2,46,0,7,0,13-1,2-3,16-4,32-3,48,1,11-1,14-12,14-33,0-66,4-98,7-15,1-3,2-45,2-26,1-53,2-79,3-8,0-12,0-12-11,0-13-2-25-3-34ZM42,2811h-2c0,7,0,15,0,22,0,8,4,1,12,9,7-1,13-3,19-4,5,0,1,0,15-2,2,0,3-3,4-4-2,0-3-2-5-1-8,1-16,3-25,4-14,2-16,0-15-13,0-2,0-3,0-5,0-1,0-2,0-3,0-9,0-19,0-28,0-11,5-16,17-17,8,0,15,0,23,0,3,0,6,0,5-4,0-1-4-3-5-2-7,0-15,1-22,2-5,0-1,1-15,3-7,3-9,6-8,14,0,19,1,38,2,58ZM221,2829c1,1,1,1,2,1,13,0,26-1,39-2,1,0,3-3,4-5,0-2,0-4,0-6,0-2,0-4,0-6,0-8,0-16,0-24-14-3-45-2-51,2,2,5,5,3,8,2,9,0,19-1,28-1,9,0,1,0,1,1,0,2,0,39,0,59,0,17,3,18-19,21-6,0-12,2-19,3ZM16,2787c-2-1-3-3-4-3,0,0-3,2-3,3,0,1,2,2,2,4,1,0,2-2,4-3ZM72,2788c0,0,1,2,2,2,1,0,2,2,3,2,0,0,2-2,3-2-1,0-2-2-3-3-1,0-3,0-4,0ZM22,2786c2-1,3-2,3-3,0-1-1-3-2-4,0,0-2,1-3,2,0,0,0,2,0,4Z"/>
      <path class="cls-2" d="M191,168c0,11,0,21-2,3-1,8,0,16,0,25,1,8,0,17,3,26,2,7,0,16,6,22,0,0,0,2,0,3,0,11,0,23,0,34,0,5-3,8-8,9-6,1-12,3-19,4-21,2-42,4-64,6-5,3-99,7-149,9-45,2-89,3-134,4-29,0-57,0-86,0-5,0-9,0-14,0-11,0-12,0-14-12-3-19-5-38-7-56,0-6-1-12-2-18,0-14,0-27,0-41,0-3,1-6,2-9,0-6,4-1,1-1,12-2,24-4,37-5,21-1,41-1,62-2,21,0,41-1,62-2,1,0,21,0,31,0,19-1,39-2,58-4,58-7,117-12,175-12,12,0,25,0,37,0,4,0,7,0,13,0ZM1503,205c0,0,0-1,0-2-2,1-4,2-6,3-4,0-7,2-7,6,0,13,0,25,0,38,0,24,3,47,9,7,2,7,2,8,9,8,1,0,2-1,3-2,34,0,69-2,103-2,3,0,7,0,1,0,24,0,47,0,71,0,13,0,25,0,38,0,3,0,6-2,9-3,14,0,27,0,41,0,2,0,4-7,61-4,8,1,12-6,9-14-2-5-2-1-3-15,0-7-1-13-2-2,0-8-2-16-3-24,0-16-1-31-2-47,0-8-8-14-16-13-22,2-44,4-67,5-44,2-87,4-131,6-21,0-42,1-63,2-39,2-78,5-118,8Z"/>
      <path class="cls-2" d="M205,118c0,38,0,77,2,115,0,36,1,73,4,109,4,64,5,128,5,192,0,59,0,117,0,176,0,42,0,84,1,126,0,8,0,15,0,23,0,28,1,55,2,83,2,46,4,91,7,137,2,44,2,89-2,133,0,6,0,13,0,19,2,51,4,103,5,154,0,2,0,4,0,6-2-22-4-43-6-65,0-1-1-21-2-31-4-31-2-62,0-93,1-35,2-69,0-104-2-3,0-6,0-9,0-12,0-25,0-37-3-59-6-118-1-177-3-56-5-112-4-169,0-24,1-48,1-72,0-34,0-68,0-102,0-33-1-66,0-99,2-28,0-57-2-85-1-57-2-115-3-172,0-1,1-21,2-31h0Z"/>
      <path class="cls-2" d="M1969,178c-2-24-4-45-6-66-13-11-26-13-4-13-29-1-59-1-88-2-3,0-5,0-8,0,0-5,2-7,5-8,1-3,19-6,3-4,9,2,18,0,27,0,19,0,39,0,58,0,24,0,49,1,73,2,2,0,3,0,6,0,0,7,0,15,0,22,0,9,0,19,2,28,3,14-4,25-7,38,0,2-4,3-5,3-14,0-27,1-41,2-3,0-6-2-7-2Z"/>
      <path class="cls-2" d="M2188,1595c0-19-2-37-2-56-2-38-4-77-5-115,0-36,0-73,0-109,0-3,2-6,2-9,1-37,3-74,4-111,0-4,1-81,0-121-2-52-3-105-2-157,0-7,1-14,0-21,0-37-3-73-4-11,0-17,0-33,0-5,0-56,0-112-3-168-1-27,1-55,0-82,0-7,2-14,2-18,0,2,0,43,0,65,0,53,2,107,3,16,0,36,2,72,3,108,0,38,2,77,3,115,0,19,0,37,1,56,0,21,0,43,1,64,0,41,2,81,2,122,0,33,0,66,0,99,0,25,0,49-1,74-1,61-3,121-4,182,0,48,2,97,3,145,0,41,0,81,0,122,0,21,0,41,0,62,0,7,0,15,0,22,0,0-1,0-2,0Z"/>
      <path class="cls-2" d="M1937,246h-13c0-8-1-15-2-22-1-18-2-37-4-55,0-8-5-14-12-19-2-2-6-2-8-2-42,4-84,5-127,5-8,0-17,0-25,0-3,0-5,0-8,0-3-13-1-18,11-2,9-1,17-3,26-3,24,0,48,0,72-1,1,0,2-2,3-2,16,0,31-1,46,5,7,3,1,7,1,14,1,22,3,44,4,66,0,11,0,21,0,33Z"/>
      <path class="cls-2" d="M483,2711c14,0,27,0,4,0,35,0,69,1,104,0,23,0,45-4,68-6,9,0,18-1,27-2,53-3,105-5,158-7,56-2,112-4,168-5,19,0,38,0,57,1-5,0-1,2-15,2-47-1-94,3-14,9-19,2-38,3-58,5-39,2-78,5-118,7-36,1-71,0-107,2-57,2-114,0-171,0-3,0-7,0-1,0,0,0,0,0-2-3Z"/>
      <path class="cls-2" d="M1966,204v-11c19,0,37-2,55-2,4,0,7,0,11,0,7-1,1-5,9-12-5-3-2-6,0-9,0-7,0-9-8-1-13-2-26-3-4-4-16,0-31,0-47,0-2,0-4-2-6-3-19,0-37,0-56,0-8,0-9,1-1,9,0,4-1,7-2,11-2,8-2,8-13,7,0-8,0-17,3-25,3-7,9-8,16-8,17,0,34-1,51-1,36,0,73,0,109,2,18,0,36,3,54,5,9,0,9,1,1,1,0,1,2,2,1,3-1,26-4,52-5,78,0,5-3,8-7,9-8,1-16,3-24,4-12,1-23,3-35,4-4,0-8,0-13,0Z"/>
      <path class="cls-2" d="M1701,2684c-42,3-85,7-129,1-42,2-83,3-125,3-32,0-63-2-95-3-9,0-17-1-26-3,15,0,31,0,46,0,14,0,28-5,41-6,28-2,55-3,83-4,31,0,61-2,92-1,38,0,77,3,113,4Z"/>
      <path class="cls-2" d="M1182,2833c166-7,333-6,499,5-21,1-42,3-64,3-23,0-47-1-7-2-4,0-79,0-119,0-27,0-54-2-81-3-21,0-41-1-62-1-33,0-66,0-99-1-2,0-3,0-5,0Z"/>
      <path class="cls-2" d="M1951,23c0-2-1-5-2-7,0-7,0-15,0-22,1-14,0-29-2-43-1-6-4-12-6-18-2-6-3-13-5-21-2,0-6,0-9,0-6,0-11,0-17,0-12,0-24,0-36,0-11,0-22-1-33,0-23,0-45,2-68,4-9,0-18,1-27,0-9,0-17,4-26,8,0,5,0,11,0,16,0,6,0,6-1,5,0-9,2-19,3-28,0-5,4-7,9-8,12,0,24-3,37-3,22-2,43-3,65-5,22-2,43,0,65,0,17,0,33,2,5,3,3,0,5,0,8,1,7,2,8,3,8,1,0,23,2,45,1,68,0,12-2,25-4,37,0,0-1,0-2,0Z"/>
      <path class="cls-2" d="M664,172c-12,0-23,1-35,1-28,0-57,1-85,1-29,0-57,0-86,0-29,0-57-2-86-2-18,0-36,2-54,3-19,0-39,2-58,0-24-2-47,0-71,0-8,0-15,0-23,1-1,0-3,0-4,0-1,0-3-2-4-3,1-1,2-4,3-4,6,0,11-1,17-1,87,0,174-2,262-3,29,0,58-2,87-2,38,0,76,3,114,4,7,0,15,0,22,0,0,0,0,2,0,3Z"/>
      <path class="cls-2" d="M65,177c2-3,4-5,6-5,36,0,73,2,109,3,56,1,113,3,169,4,7,0,15,0,22,2-5,2-11,2-17,2-6,0-11,0-17,1-37,0-73,0-11,0-32,0-64,0-96,0-1,0-19-1-29-2-26,0-53-1-79-2-4,0-8,0-12,0,0,0,0-2,0-3Z"/>
      <path class="cls-2" d="M221,2444c-2-24-3-47-5-71-4-59-2-119-2-178,0-26,0-53-1-79,0-35,0-7,0-105,0-16,0-32-1-48,0,0,1,0,2,0,0,8,2,15,2,23,4,4,3,81,3,121,0,47,0,94,0,141,0,5,2,99,4,149,0,11,0,23,0,34,0,4,0,8,0,13,0,0,0,0-1,0Z"/>
      <path class="cls-2" d="M1421,177c-2,0-4,1-61,1-41,0-82,0-123,0-77,0-154-1-231-2-31,0-61-1-92-2-3,0-6,0-1-3,7,0,14,0,21,0,39,0,78,0,117,0,3,0,59,1,89,2,48,0,96,1,144,2,48,0,97,0,145,0,0,0,0,2,0,3Z"/>
      <path class="cls-2" d="M601,181c-4,0-8,0-12,0-48,0-97,2-145,2-29,0-59,0-88,0-39,1-77,3-116,5-19,0-38,1-56-8,5,0,1,0,15,0,28-4,55,0,83,0,22,0,45-3,67-3,36,0,71,0,107,1,15,0,29,0,44,0,23,0,45,0,68,0,11,0,22,0,34,0,0,0,0,1,0,2Z"/>
      <path class="cls-2" d="M169,1059c0-8,0-15,0-23,0-45,0-9,0-135,0-19,0-39,0-58,0-36-1-71-2-107,0-18,1-36,2-54,0-26,0-51,0-77,0-24,0-49,0-73,0-17-2-35-2-52,0-2,0-41,2-61,0,35,1,71,2,106,0,24,1,48,1,72,0,21,0,43,0,64,0,17,0,33,0,5,0,36,0,72,0,108,0,33,0,65,0,98,0,39,1,79,1,118,0,8-1,16-2,23,0,0-1,0-2,0Z"/>
      <path class="cls-2" d="M2051,1092c0-9-2-18-2-28,0-42,0-83,0-125-1-5,0-1,0-15,0-32,0-64,1-96,0-5,0-1,0-15,3,27,5,54,5,81-1,54-1,108-2,162,0,38,0,76,0,114,0,19-1,38-2,56,0,0-1,0-2,0Z"/>
      <path class="cls-2" d="M14,2694c0-5,0-11,0-16,0-18,0-35,0-53,0-16-1-32-1-48,0-26,1-53,1-79,0-37,0-74,0-111,0-16,2-32,2-48,0-33,0-67,2-1,0-6,0-11,3-17-2,157-4,314-6,471,0,0-1,0-2,0Z"/>
      <path class="cls-2" d="M171,2186c0-21,0-41,0-62,0-28-2-57-2-85,0-19-1-37-1-56,0-46,0-93,0-139,0-14,0-28,1-42,6,128,7,255,5,383,0,0-1,0-2,0Z"/>
      <path class="cls-2" d="M1707,172c-69,12-143,1-218,12,23-5,46-1,69-1,15,0,3-1,45-1,25,0,5,0,75,0,12,0,23,0,29,0Z"/>
      <path class="cls-2" d="M2165,2839c-84,7-167,1-251-2,84-2,167-2,251,2Z"/>
      <path class="cls-2" d="M1715,339c68-6,136-9,204-17v8c-68,6-136,7-204,9Z"/>
      <path class="cls-2" d="M178,2438c3,32,0,253-4,264-4-4-4-8-4-13,1-2,3-39,4-59,0-2,0-41,0-61,0-42,1-84,2-126,0-2,0-4,0-6Z"/>
      <path class="cls-2" d="M2035,2678c-93,7-185,7-271,2,39,0,85,0,131,0,47,0,93-1,14-2Z"/>
      <path class="cls-2" d="M1704,348c4-9,8,0,121-4-18,9-79,1-121,4Z"/>
      <path class="cls-2" d="M1607,2c-43,1-86,2-129,3,0,0,0-1,0-2,34-2,68-5,102-6,9,0,18,2,27,4,0,0,0,0,0,1Z"/>
      <path class="cls-2" d="M1206,2684h171c-1,4-19,4-27,4-31,0-61,0-92-1-17,0-34-2-52-2,0,0,0,0,0,0Z"/>
      <path class="cls-2" d="M35,1582c0,5-1,1-2,15,0,0-2,0-2,0l3-15s0,0,1,0Z"/>
      <path class="cls-2" d="M266,2854c-16,6-32,8-49,7-9,0-17-1-26-3,2,0,5,0,7-1,16-1,32-2,49-3,7,0,13,0,2,0h0Z"/>
      <path class="cls-2" d="M1816,23c37-6,73-6,11-3-37,1-73,2-11,3Z"/>
      <path class="cls-2" d="M21,223c1,2,6,41,4,62-4-2-8-41-4-62Z"/>
      <path class="cls-2" d="M1199,269h-81s0,0,0,0h81s0,0,0,0Z"/>
      <path class="cls-2" d="M58,2864c15-5,31-3,46-2-15,4-31,1-46,2Z"/>
      <path class="cls-2" d="M1949,259c-7,0-13,2-2,3-1,0-3-2-3-3,0-2,2-4,3-4,7-1,14-1,21,4Z"/>
      <path class="cls-2" d="M209,271c-16,0-32,1-48,2,5-3,1-3,15-3,5,0,11,0,16,0,6,0,11,0,17,0,0,0,0,1,0,2Z"/>
      <path class="cls-2" d="M35,1516v55s0,0,0,0v-54s0,0,0,0Z"/>
      <path class="cls-2" d="M15,2801c3,12,2,25,0,37-1-12-2-25,0-37Z"/>
      <path class="cls-2" d="M16,2704v44s0,0,0,0v-44s0,0,0,0Z"/>
      <path class="cls-2" d="M142,185c1-5,15-5,26-4-5,4-8,5-26,4Z"/>
      <path class="cls-2" d="M2077,2606c0,8,0,16,1,25q-4-8-1-25Z"/>
      <path class="cls-2" d="M205,1164v-35s0,0,0,0v35h0Z"/>
      <path class="cls-2" d="M394,2849c8,0,16-2,23-2,0,0,0,2,0,2-8,0-16,1-24,2,0,0,0-1,0-2Z"/>
      <path class="cls-2" d="M615,2706c8,0,17-2,25-2,0,0,0,1,0,2-8,0-17,1-25,2,0,0,0,0,0-1Z"/>
      <path class="cls-2" d="M1792,161c7,0,15-2,22-3,0,0,0,2,0,2-7,2-15,0-22,0Z"/>
      <path class="cls-2" d="M2055,29c-1-9-2-17-3-24,0,0,1,0,2,0,3,7,0,14,0,24Z"/>
      <path class="cls-2" d="M1739,16h2c-4,0-7,1-1,2-3,0-6,0-1,0,0,0,0-2,0-3Z"/>
      <path class="cls-2" d="M2182,166v-26s0,0,0,0v26s0,0,0,0Z"/>
      <path class="cls-2" d="M169,14c-7,0-13-1-2-2h2c0,0,0,1,0,2Z"/>
      <path class="cls-2" d="M1722,164h-1c5-6,7-6,1,0Z"/>
      <path class="cls-2" d="M1912,103c7,0,13,1,2,2,0,0,0,1,0,2-6,0-13-2-19-2,0,0,0,0,0-1Z"/>
      <path class="cls-2" d="M1891,78h-2,0c7,0,13,0,2,0,0,0,0,0,0,0Z"/>
      <path class="cls-2" d="M1781,106c5,0,1,0,15-1,0,0,0,0,0,1-5,0-9,1-14,2,0,0,0-1,0-2Z"/>
      <path class="cls-2" d="M1727,152c0-4,1-7,2-11h2c0,4,0,8-1,11,0,0-2,0-3,0Z"/>
      <path class="cls-2" d="M932,32h-15s0,0,0,0h15s0,0,0,0Z"/>
      <path class="cls-2" d="M196,8h15c-5,0-1,0-15,0,0,0,0,0,0,0Z"/>
      <path class="cls-2" d="M1945,229c0,4,0,7,1,11,0,0-1,0-2,0,0-4-1-7-2-11,0,0,2,0,3,0Z"/>
      <path class="cls-2" d="M2031,171c3,3,4,6-1,1,0-5,1-7,1-1Z"/>
      <path class="cls-2" d="M1837,16h-13s0,0,0,0h13s0,0,0,0Z"/>
      <path class="cls-2" d="M1912,217v-14s0,0,0,0v14s0,0,0,0Z"/>
      <path class="cls-2" d="M1708,139v-14s0,0,0,0v14s0,0,0,0Z"/>
      <path class="cls-2" d="M228,13h11s0,0,0,0h-11s0,0,0,0Z"/>
      <path class="cls-2" d="M142,33v-11s0,0,0,0v11h0Z"/>
      <path class="cls-2" d="M128,2692h9c-3,0-6,0-9,0,0,0,0,0,0,0Z"/>
      <path class="cls-2" d="M1958,25v-9s0,0,0,0v9s0,0,0,0Z"/>
      <path class="cls-2" d="M1803,22h-8s0,0,0,0h8s0,0,0,0Z"/>
      <path class="cls-2" d="M1722,11c-2,0-5,1-7,2,0,0,0-2,0-2,2,0,5-1,7-2,0,0,0,0,0,1Z"/>
      <path class="cls-2" d="M1938,174v-6h0c0,2,0,4,0,6,0,0,0,0,0,0Z"/>
      <path class="cls-2" d="M266,2854c2,0,5-2,7-3,0,0,0,0,0,0-2,3-5,3-8,2,0,0,0,0,0,0Z"/>
      <path class="cls-2" d="M1901,16c1,0,3,0,4-1,0,0,0,1,0,2-1,0-3,0-4,1,0,0,0-1,0-2Z"/>
      <path class="cls-2" d="M2034,2684h-5s0,0,0,0h5s0,0,0,0Z"/>
      <path class="cls-2" d="M2051,172c0,1,0,3,0,4,0,0,0,0-1,0v-5s0,0,1,0Z"/>
      <path class="cls-1" d="M931,1984c-26,2-52,3-77,5-1,0-19,2-29,3-29,2-57,3-86,5-26,2-51,5-77,8-19,2-38,5-56,8-1,1-1,3-1,12,0,0,0,1,0,2,1,13,1,13-12,15-29,4-58,8-87,12-9,1-9,0-1-8-2-14-4-27-6-4-2-12-3-24-4-36,0-6,1-7,7-9,9-2,18-5,27-8,6-2,8-6,7-12-2-32-4-64-6-96,0-8,0-16,0-24,0-2-1-41-2-61-2-55-7-11-8-165,0-3-2-61-4-91,0-6,0-13,0-19,0-4,3-9,5-12,2-3,5-4,1-3,9,2,18,3,28,3,21,0,43,0,64,0,43,0,85-3,127-12,23-5,46-9,68-14,14-3,27-7,41-8,24-3,48-6,71,0,4,1,9,0,13,0,9,2,11,3,11,13-1,14-3,27-3,41,0,49,3,99,9,148,3,25,5,5,7,76,5,45,11,89,15,134,3,29,4,58,7,87,0,9,2,18,3,27,0,17,1,21-18,22-1,0-19,0-28,0ZM539,1972c4,0,6,0,9,0,13-2,15,0,17,12,0,2,0,3,0,5,1,1,2,11,13,1,16-1,32-2,48-3,23-2,47-3,7-5,39-3,77-7,116-9,48-3,95-5,143-8,3,0,5,0,8-1,0-9,0-17-2-25-2-17-5-33-6-5-2-17-3-35-4-52-4-38-8-75-11-113-3-44-6-88-9-133-2-41-4-83-5-124,0-6,0-11,0-17,0-3,0-6-5-7-11-1-23-4-34-4-28,2-56,5-84,8-9,0-17,3-26,5-32,6-63,14-95,18-4,5-79,9-119,9-13,0-25-1-38-2-3,0-6,0-1,0,0,4,0,8,0,12,0,18,2,36,2,54,1,32,2,63,3,95,2,35,4,69,6,104,0,4,0,7,0,11,0,13,0,26,0,39,0,19,3,38,3,57,0,32,4,64,7,96,0,6,2,12,4,19ZM532,1981c-6,0-11,0-17,1-3,0-7,1-7,5-1,12-1,25,3,36,0,2,4,4,6,4,12,0,25-2,37-4,6,0,7-3,6-9,0-5-2-1-3-15-4-2-1-2-25-19Z"/>
      <path class="cls-1" d="M42,2811c0-19-1-38-2-58,0-8,1-11,8-14,5-2,1-2,15-3,7-1,15-2,22-2,2,0,5,1,5,2,0,3-2,4-5,4-8,0-15,0-23,0-13,0-18,6-17,17,0,9,0,19,0,28,0,1,0,2,0,3,0,2,0,3,0,5,0,14,1,16,15,13,8-1,16-3,25-4,2,0,3,0,5,1-1,1-2,4-4,4-5,1-1,1-15,2-7,1-13,3-19,4-8,2-11,0-12-9,0-7,0-15,0-22h2Z"/>
      <path class="cls-1" d="M221,2829c7,0,13-2,19-3,22-3,19-4,19-21,0-2,0-39,0-59,0-9,0-1-1-1-9,0-19,0-28,1-3,0-7,2-8-2,6-4,37-6,51-2,0,8,0,16,0,24,0,2,0,4,0,6,0,2,0,4,0,6,0,2-2,5-4,5-13,0-26,1-39,2,0,0,0,0-2-1Z"/>
      <path class="cls-1" d="M16,2787c-2,1-3,2-4,3,0-1-2-2-2-4,0,0,2-3,3-3,1,0,2,2,4,3Z"/>
      <path class="cls-1" d="M72,2788c1,0,3-1,4,0,1,0,2,2,3,3,0,0-2,2-3,2,0,0-2-1-3-2,0,0-1-2-2-2Z"/>
      <path class="cls-1" d="M22,2786c0-2-1-3,0-4,0,0,2-1,3-2,0,1,2,3,2,4,0,0-2,1-3,3Z"/>
      <path class="cls-1" d="M1503,205c39-3,78-6,118-8,21-1,42-1,63-2,44-2,87-4,131-6,22-1,44-3,67-5,8,0,16,5,16,13,0,16,1,31,2,47,0,8,2,16,3,24,0,7,1,13,2,2,0,5,1,1,3,15,3,8-1,15-9,14-21-3-4,4-61,4-14,0-27,0-41,0-3,0-6,2-9,3-13,0-25,0-38,0-24,0-47,0-71,0-3,0-7,0-1,0-34,0-69,2-103,2-1,0-2,1-3,2-7,0-7,0-9-8-6-23-8-47-9-7,0-13,0-25,0-38,0-5,2-6,7-6,2,0,4-2,6-3,0,0,0,1,0,2ZM1458,321c4,0,6,0,9,0,14,0,27-2,41-3,35-2,7-3,105-6,37-3,73-2,11-3,23,0,46,0,69-1,3,0,59-1,89-2,5,0,11-1,17-2-3-35,0-69-7-103-3,0-5,0-8,0-22,0-45,0-67,0-11,0-23,0-34,1-39,3-78,5-118,1-1,0-21,0-31,0-31,2-61,4-92,6-6,0-13,0-19,1-24,4-48,8-72,7-2,0-3,0-6,2,3,34,8,68,14,103ZM1855,313c-21-1-42,0-64,0-21,1-42,0-63,0-21,0-43,0-64,1-21,0-42,2-64,3,3,2,5,2,8,2,17,0,34,0,51,0,14,0,28,0,42,0,33-3,66-4,1-3,18,0,36,0,54-3ZM1885,193c-1-3-54,0-63,3,22,0,42,1,63-3ZM1704,198c0,0,0,2,0,3,23-1,46-2,69-3,0,0,0-1,0-2-23,0-46,1-69,2ZM1445,297c0,0,1,0,2,0,0-7-1-15-2-22,0,0-2,0-3,0,0,7,2,15,3,22ZM1809,196s0,0,0,0h-15s0,0,0,0h15ZM1463,211s0,0,0,1c2,0,4,0,6,0,0,0,0,0,0,0h-6Z"/>
      <path class="cls-2" d="M539,1972c-1-7-3-13-4-19-3-32-7-64-7-96,0-19-2-38-3-57,0-13,0-26,0-39,0-4,0-7,0-11-2-35-4-69-6-104-1-32-2-63-3-95,0-18-2-36-2-54,0-4,0-7,0-12,4,0,7,0,1,0,13,0,25,2,38,2,4,0,8-4,119-9,32-4,63-12,95-18,8-2,17-4,26-5,28-3,56-6,84-8,11,0,22,2,34,4,4,0,4,4,5,7,0,6,0,11,0,17,2,41,3,83,5,124,2,44,5,88,9,133,3,38,7,76,11,113,2,17,3,35,4,52,2,17,4,33,6,5,0,8,1,16,2,25-3,0-6,1-8,1-48,3-95,5-143,8-39,3-77,6-116,9-23,2-47,3-7,5-16,1-32,2-48,3-11,0-11,0-13-1,0-2,0-3,0-5-2-12-5-14-17-12-2,0-5,0-9,0Z"/>
      <path class="cls-2" d="M532,1981c24,0,22-2,25,19,0,5,2,1,3,15,0,6,0,8-6,9-12,2-24,3-37,4-2,0-5-2-6-4-4-12-5-24-3-36,0-4,4-5,7-5,6,0,11,0,17-1ZM539,1985c-16,4-23,12-23,22,0,4,0,7,4,9,7,5,18,5,26,0,6-4,7-9,3-15-4-5-9-7-15-3-4,2-4,5,0,9,2-2,3-4,4-5,2,0,5-1,6,0,2,1,2,4,3,6,0,1-1,3-2,4-6,5-17,5-22,0-4-4-2-13,4-19,4-3,8-5,13-9Z"/>
      <path class="cls-2" d="M1458,321c-7-35-12-69-14-103,3,0,4-2,6-2,24,0,48-3,72-7,6-1,13-1,19-1,31-2,61-4,92-6,1,0,21,0,31,0,39,4,78,2,118-1,11,0,23-1,34-1,22,0,45,0,67,0,2,0,5,0,8,0,7,34,4,68,7,103-6,0-11,2-17,2-3,0-59,1-89,2-23,0-46,0-69,1-37,1-73,0-11,3-35,3-7,4-105,6-14,0-27,2-41,3-3,0-5,0-9,0ZM1809,249c-14,7-29,5-43,6-7,0-8,0-9-8-1-14,0-16,14-18,13-2,27-3,41-4,4,0,9,0,9-7-6,0-12,2-18,2-18,0-36,4-53,6-4,0-6,3-5,7,0,2,0,5,0,7,3,18,6,35,1,53,1,6,4,8,11,7,7-1,14-3,21-4,13-2,25-3,38-4,3,0,5,0,6-5-18,2-35,3-53,5,5-2,1-3,15-4,5,0,1-1,15-3,5-2,11,0,14-5-3-4-6-2-8-1-12,2-24,3-37,4-5,0-8-2-1-6-1-3-3-6-5-11,18-5,36-4,52-7-2-4-3-7-5-11ZM1677,288c0,0,1,0,2,0v-17c6,7,4,17,1,26,3-9,0-16,0-23-1-7-2-14,0-22,8,2,13,6,16,12,7,1,16,17,25,24,3,3,6,2,8-2,0-2,1-5,1-7,0-7-2-14-4-22-2-9-5-18-7-28-1-5-4-5-8-5,0,17,8,33,9,5-5-3-11-5-14-1-7-11-18-18-27-27-3-2-8-3-12-3-5,0-4,6-4,9,0,14,2,27,3,41,0,0,0,2,1,3ZM1492,276c-9,14-3,28,12,29,5,0,9,0,14,0,14,0,2-8,17-21,0-2,0-3-2-5-4-9-11-15-2-18-6-2-11-5-16-8-4-3-4-7,0-11,3-4,7-5,11-2,2,1,4,3,5,3,3-4,7,0,1,0,0-2,0-4,0-4-7-5-14-11-23-11-9,0-19,8-17,15,2,1,7,19,18,22,5,2,9,3,14,4,7,2,11,7,13,14,0,2,0,6-2,8-6,5-13,7-21,4-8-3-12-7-11-15,0-1,0-2-1-4ZM1621,238c5,0,8-1,11-2,8,0,16-1,24-2,4,0,8-2,6-8-17,1-34,3-52,4,0,1-1,3,0,5,1,8,3,16,4,23,2,11,2,23,7,33,2,5,5,6,9,5,12-4,23-7,35-11-1-7-1-7-7-6-6,1-12,3-17,4-11,1-14-2-14-14,5-5,14-1,19-1h-23c0-7,0-14-1-21ZM1592,251c2-9-4-12-7-17-5-7-1-8-18-4-12,5-18,17-17,33,1,19,2,33,38,29,3,0,6-2,8-4,3-2,4-5,1-9-2,2-4,3-7,4-8,4-17,2-22-5-1-2-2-4-4-6-9-9-7-19-2-29,3-6,8-8,14-5,3,2,6,4,9,6,2,1,4,2,7,5Z"/>
      <path class="cls-2" d="M1855,313c-18,4-36,4-54,3-33,0-67,0-1,3-14,1-28,0-42,0-17,0-34,0-51,0-3,0-5,0-8-2,21-1,42-2,64-3,21,0,43,0,64-1,21,0,42,0,63,0,21-1,42-2,64,0Z"/>
      <path class="cls-2" d="M1885,193c-2,4-4,3-63,3,9-4,53-6,63-3Z"/>
      <path class="cls-2" d="M1704,198c23,0,46-1,69-2,0,0,0,1,0,2-23,1-46,2-69,3,0,0,0-2,0-3Z"/>
      <path class="cls-2" d="M1445,297c0-7-2-15-3-22,0,0,2,0,3,0,0,7,1,15,2,22,0,0-1,0-2,0Z"/>
      <path class="cls-2" d="M1809,196h-15s0,0,0,0h15s0,0,0,0Z"/>
      <path class="cls-2" d="M1463,211h6s0,0,0,0c-2,0-4,0-6,0,0,0,0,0,0-1Z"/>
      <path class="cls-1" d="M539,1985c-5,4-1,6-13,9-6,5-8,14-4,19,5,5,16,6,22,0,1-1,3-3,2-4,0-2-1-5-3-6-1,0-4,0-6,0-2,0-2,3-4,5-4-4-3-7,0-9,5-4,11-2,15,3,4,6,3,11-3,15-7,5-18,4-26,0-3-2-4-5-4-9,0-11,8-18,23-22Z"/>
      <path class="cls-1" d="M1809,249c2,4,3,7,5,11-17,3-34,3-52,7,2,4,3,7,5,11,2,5,5,7,1,6,12-1,24-3,37-4,3,0,6-3,8,1-3,5-1,3-14,5-5,2-1,2-15,3-5,0-1,2-15,4,18-2,35-3,53-5,0,5-3,4-6,5-13,1-25,3-38,4-7,0-14,2-21,4-7,0-1-1-11-7-3-18-6-35-1-53,0-2,0-5,0-7,0-4,1-6,5-7,18-2,35-7,53-6,6,0,12,0,18-2,0,7-5,7-9,7-14,1-27,2-41,4-14,2-15,4-14,18,0,7,2,9,9,8,14-2,29,0,43-6ZM1767,295c-3-7-6-12-8-17,2,5-3,14,8,17Z"/>
      <path class="cls-1" d="M1677,288c0,0-1-2-1-3-1-14-2-27-3-41,0-4,0-8,4-9,4,0,9,0,12,3,9,9,2,15,27,27,3,4,8,7,14,1-1-17-9-33-9-5,4,0,7,0,8,5,2,9,5,19,7,28,2,7,3,14,4,22,0,2,0,5-1,7-1,4-4,5-8,2-9-7-18-14-25-24-4-5-9-1-16-12-3,7-2,15,0,22,1,7,4,14,0,23-7-8-4-18-1-26v17c0,0-1,0-2,0Z"/>
      <path class="cls-1" d="M1492,276c0,2,1,3,1,4,0,8,4,13,11,15,8,3,15,1,21-4,2-2,3-5,2-8-2-7-6-12-13-14-5-1-1-3-14-4-11-4-16-12-18-22-2-8,8-16,17-15,9,0,16,6,23,11,0,0,0,2,0,4-4,0-7-4-1,0,0,0-3-2-5-3-4-3-8-2-11,2-3,4-4,8,0,11,5,3,1,6,16,8,9,3,16,9,2,18,0,1,1,3,2,5,3,14-3,21-17,21-5,0-9,0-14,0-15-2-21-16-12-29Z"/>
      <path class="cls-1" d="M1621,238c0,8,0,14,1,21h23c-5,9-14,5-19,1,0,12,4,15,14,14,6,0,12-2,17-4,5-1,5-1,7,6-12,4-23,7-35,11-5,1-7,0-9-5-5-11-5-22-7-33-1-8-3-16-4-23,0-2,0-4,0-5,18-1,35-3,52-4,2,6-2,8-6,8-8,0-16,1-24,2-3,0-6,0-11,2Z"/>
      <path class="cls-1" d="M1592,251c-3-2-5-3-7-5-3-2-6-5-9-6-6-3-11-1-14,5-4,1-7,2,2,29,2,2,2,4,4,6,6,7,14,9,22,5,2-1,4-3,7-4,3,4,2,7-1,9-2,2-5,3-8,4-18,4-37-11-38-29,0-16,5-28,17-33,8-4,13-3,18,4,3,4,8,8,7,17Z"/>
      <path class="cls-2" d="M1767,295c-1-3-6-11-8-17,2,5,5,1,8,17Z"/>
    </g>
  </g>
</svg>