<?xml version="1.0" encoding="UTF-8"?>
<svg id="Layer_2" data-name="Layer 2" xmlns="http://www.w3.org/2000/svg" viewBox="0 0 2204 2853">
  <defs>
    <style>
      .cls-1 {
        fill: #000;
      }

      .cls-1, .cls-2 {
        stroke-width: 0px;
      }

      .cls-2 {
        fill: #fff;
      }
    </style>
  </defs>
  <g id="Layer_1-2" data-name="Layer 1">
    <g>
      <path class="cls-2" d="M0,508c0,0,0,1,1,2"/>
      <path class="cls-1" d="M8,23c1,0,3,0,4,0,18,3,37,5,55,8,2,0,4,0,6,0,22-3,44,2,67,2,9,0,17,0,26-1,9,0,18-1,27,0,16,0,33,0,49,0,32-2,64-4,96-5,34,0,69-1,103-1,24,0,48,0,72,0,31,0,62,0,93-1,9,0,17,0,26,0,34,2,67,0,101-2,35-2,69-4,104-7,5,0,11,0,16,0,21,3,42,3,63,1,51-4,103-2,154,0,26,1,53,0,79,0,41,0,81-3,122-4,4-1,79-2,119-3,3,0,59,0,89,0,22,0,43-1,65-2,27,0,54,0,81-2,23,0,47-3,7-4,13,0,26-2,39-2,29,0,58-2,87-2,2,0,4,3,6,5,5,0,9,0,14,1,24,0,48,2,72,3,5,0,11,1,16,2,12,2,23,2,35,0,5-1,1,0,15,0,8,2,15,3,23,0,6-1,13,0,2,0,21,0,41,0,62,0,9,0,18,0,28,0,0,6,0,12,0,17-3,17-2,33-1,5,1,19,1,38,2,57,0,15,4,29,3,44,0,27-2,54-3,81,0,2,0,4,0,6,0,15,0,29-1,44,0,16-2,33-2,49,0,46-1,93-2,139,0,15,1,3,2,45,1,32,2,63,3,95,1,37,3,73,4,11,0,13,0,27,0,4,1,34,3,69,3,103,0,37,0,74,0,111,0,33,1,67,2,1,0,7,0,15,0,22,0,12,0,23,0,35-2,52,0,103,0,155,0,19,0,39,0,58,0,27,1,54,1,81,0,65,1,13,2,195,0,13,0,26,0,39,0,26,0,53,1,79,1,59,3,117,3,176,0,29-1,58-2,87,0,16,0,31,0,47,0,24-1,47-2,71,0,13-3,25-3,38,0,18,0,35,2,53,2,27,4,54,7,81,3,32,6,64,5,97,0,24-3,48-4,72-2,32-3,64,0,96,2,29,2,57,5,86,2,18,6,37,9,55,2,11,5,22,5,32,0,1,0,18,9,24-3,4-6,8-1,12-11,0-23,0-35,2-32,4-64,1-97-2-21-2-41-4-62-5-15,0-3,0-45,0-18,0-35,0-53,0-14,0-27,0-41,0-21,0-42,2-63,2-3,0-6-1-9-1-42,0-83,0-125,0-4,0-7,0-11-1-2,0-4-1-6,0-1,6-21,4-32,4-5,0-99,0-149,0-25,0-5,0-75-1-11,0-21-4-31-6-7-1-14-3-22-3-34,0-69,0-103,2-2,0-4,2-6,3-55,3-109,0-164-2-29-1-57,0-86,0-43,0-86,0-129,0-3,0-61,1-91,6-5,0-11,0-16,1-17,2-34,4-52,5-18,1-35,2-53,2-21,0-41-1-62-1-36,0-72,0-108,0-11,0-22-1-33-2-12,0-25-3-37-3-33,0-66,0-1,0-2,0-41,2-61,3-13,0-26,1-39,4-1,2-21,3-31,3-9,0-18,0-27,3-2,0-3,0-6,0,0-7,0-14,0-2,0-9,0-18,0-27,0-11,1-21,1-32,0-11,0-23-1-34,0-6,0-12,1-18,0-5,2-9,2-14,2-5,1-99,0-149,0-53,0-106,1-159,0-34,3-67,4-101,2-31,4-61,6-92,1-34,2-67,3-101,0-37,2-73,2-11,0-47-2-93-2-14,0-46,0-92,0-138,0-25-1-49-1-74,0-32,0-65,0-97,0-2,0-41,0-61,0-45,0-91,0-136,0-44-2-88-2-132,0-48-1-97,0-145,1-35,1-71,1-106,0-49-1-99-1-148,0-34,0-69,0-103,0-39-2-77-2-116,0-29,2-59,2-88,0-39,2-78,2-117,0-41-3-83-9-124-2-12-2-24-3-36-2-34-5-68-1-103,2-19,0-39-1-59,0-1-1-2-2-3,0-8,0-16,3-24ZM224,69c-2,5-4,11-61,15-12,2-24,3-35-3-16-8-33-11-5-1-11,0-22,4-33-1,0,0,0,0-2,0,0,16,0,33,0,5,0,26,3,52,6,79,3,21,3,43,5,65,1,19,4,37,3,56-1,14-2,27-2,41-1,51-2,101-3,152,0,32,0,63,0,95,0,32,1,63,1,95,0,45-2,89-2,134,0,41,0,82,0,123,0,64,0,127,0,191,0,43,0,86,0,129,0,25,1,49,1,74,0,76,1,153,4,229,2,5,4,99,3,149,0,28-2,55,0,83,3,55,2,109-2,164-1,17-2,34-1,51,0,15,2,29,2,44,0,53,0,105-2,158-1,47-4,94-5,141,0,22,0,43,0,65,0,36-1,73-2,109,0,39-1,78-2,117,0,15-1,3,2,47,19,0,37-2,56-3,25,0,5-2,75-2,29,0,57-1,86-2,7,0,8,0,8,7,0,14,0,29,0,43,0,14-2,28-2,42,0,2,0,4,0,7,4,0,7,1,1,1,26,0,53,2,79,0,42-2,83-3,125,0,43,2,86,2,129-2,42-3,84-6,126-7,42,0,85,0,127,0,49,1,97,2,146,0,49-2,98-5,147-6,29,0,59,0,88,0,39,0,77,0,116-1,42,0,83,0,125,0,48-1,95,0,143,0,47,1,94,3,141,3,42,0,84,0,126,0,3,0,6,0,9,0,23,0,45-2,68-2,21,0,43,0,64,1,12,0,25-2,38,3,0-2,0-4,0-5-4-16-9-33-12-49-4-21-6-42-8-63-3-27-5-54-7-82-2-33-4-65-5-98-1-33,0-66-2-99-2-65,0-13,3-195,1-39,3-79,3-118,0-39,0-78,0-117,0-3,0-6,1-9,2-67,0-135-2-202-1-37-3-73-5-11,0-2,0-41-1-61-1-26-4-51-4-77-1-71-2-142-3-213,0-31,0-63,0-94,0-46-2-93-3-139-1-47-4-93-5-14,0-32,0-64,0-96,0-2,0-41-1-61,0-19-3-38-5-57-3-4-5-79-5-119,0-23-2-45-2-68,0-53,1-106,2-159,0-17,0-34,0-51,0-18,2-37,3-55,0-13,0-25,1-38,2-14,3-27,0-41,0-6,0-11-2-17-2-8-6-16-9-24-2-4-4-8-8-9-6,1-11,2-17,3-17,2-34,4-51,1-16-2-32-3-48-3-7,0-13,0-2,0-23,0-47,0-7,0-14,0-28,3-42,3-25,0-51,0-76,0-8,0-17,2-25,2-16,0-31,0-47-1-43,0-86-1-129-2-41,0-82-2-123-2-29,0-58,0-87,0-57,3-113,3-17,2-18,0-37,0-55,2-3,3-61,6-91,9,0,0-2,0-3,0-7-1-14-3-22-4-28-2-56-4-84-5-35-1-7-2-105-2-14,0-29,2-43,2-14,0-28-1-42-1-28,0-55,0-83,3-38,3-75,6-113,3-15-1-3-2-45-2-51,0-103,0-154,0-38,0-76,5-114,1,1-1,3-2,4-3,0,0,0-1,0-2-4,2-81,3-121,5,9,5,18,9,28,12,6,2,12,2,18,1,17,0,33-5,5-9,8-2,16-3,23-4ZM36,62c9,5,18-2,28,3,2,0,5,0,7,0,11,0,22-2,33-2,7,0,13,0,2,0,21,0,41-2,62-3,27,0,55,0,82-3,48-5,97-3,145-4,27,0,54,0,81,0,27,0,53,0,8-1,35,0,71-1,106-2,21,0,42-3,63-3,52,1,104,2,156,0,27,0,53,0,8,0,15,0,31,0,46,0,32,0,64-3,96,0,1,0,19,0,29,0,4-5,8-7,121-4,15,0,31,4,46,4,37,0,73-1,11-2,47-1,94-2,141-4,54-2,107-5,161-7,27-1,54-1,81,3,11,2,21,4,32,4,24,1,47,1,71,2,26,1,52,0,78,2,25,2,5-1,74,0,2,0,5,0,7-1,11-2,22-4,33-6,3,0,7,0,1,0,4,0,6,2,6,6,0,3,0,7,0,1-2,7-3,15-6,22-9,22-7,45-5,68,3,34,3,69,3,103,0,5,0,1-1,15-2,23-4,45-5,68,0,29,0,58,0,87,0,33,2,67,3,1,0,11,2,21,2,32,0,41,1,83,1,124,0,65,0,13,4,195,2,42,2,83,3,125,0,25-1,49-1,74,0,29,2,59,3,88,2,46,4,92,6,138,3,62,6,123,9,185,1,22,2,45,3,67,2,54,4,107,5,161,0,23,0,47,0,7,0,38,0,75,0,113-1,65-3,129-4,194,0,13,0,27,0,4-1,3-2,59-3,89-1,3-2,59-3,89,0,29-2,58-2,87,0,46,1,93,6,139,3,3,6,6,9,9,2,24,5,47,7,71,2,25,4,5,6,76,1,13,2,25,7,37,1,2,0,6,0,6,3,4,4,6,6,8-2,0-5,2-7,2-17,0-35,0-52,0-45-2-89-5-134-7-41-1-82-2-123-2-24,0-49,0-73,0-32,0-63,1-95,2-2,0-41,3-61,2-34,0-68-2-102-2-19,0-39,0-58,0-38-1-75-4-113-5-41-1-81-2-122-2-32,0-64,0-96,0-34,0-68,1-102,0-69-1-139,0-208,4-44,3-87,5-131,4-42-1-83,0-125,0-15,0-29,1-44,3-19,2-38,5-57,2-6,0-13,0-19,0-8,0-15,0-23,0-8,0-16-2-24-2-2,0-39,2-59,2-23,0-46,4-69,0-3,0-6,0-1,0,0,7,1,12,2,17,1,3,18,2,27,0,16-2,33-2,49,2,15,4,29,5,44,5,51,0,101-1,152-1,52,0,104-8,157-1,23,0,46-2,69-2,51,0,103,1,154,1,22,0,44-1,66-1,28,0,57,0,85-4,15-2,3-3,46-4,28,0,55,0,83,0,22,0,45,1,67,6,5,0,1,2,15,2,48,0,95,0,143,0,49,0,98,2,147,5,3,2,59,4,89,3,11,0,23-1,34,0,19,0,38,1,57,2,28,0,57,0,85-2,29-2,59-2,88-3,42,0,83-2,125-2,39,0,77,1,116,2,8,0,16,0,24,0,2-17,0-32-3-47-2-17-6-34-8-51,0-5-1-1-1-15-1-26-3-51-4-77,0-19-2-38-2-57,1-36,3-72,5-108,3-35,0-71-3-106-2-25-5-5-7-76-2-27-4-54,0-81,0-2,0-5,0-7,0-28,0-57,2-85,2-2,0-4,0-6,0-33,2-66,2-99,0-31,0-61-2-92,0-41-2-82-2-123,0-11,0-21,0-32,0-55-1-111-2-166,0-21,0-43,0-64,0-44-1-87-1-131,0-27,0-55,0-82,0-16-1-32,0-48,2-23,0-47,0-7,0-26-2-51-2-77,0-4,2-8,0-12,0-53-3-106-5-159-1-3-2-6-4-9-2-46-3-91-5-137,0-15,0-31,0-46-2-4,0-81,2-121,1-34,6-68,3-102,0-3,0-6,0-9,1-3,2-6,3-9,0-22,1-44-2-67-2-17-2-35-3-53-1-19-2-39,0-58,0-2,0-4,0-7-1,0-2,0-3,0-26-4-53,0-8-2-14,0-28,3-41-1-5-1-11,0-16,0-11,0-23,0-34,0-18-1-36-3-54-5-16,0-32,0-48-1-26-2-52-6-78-3-4,0-8,0-12,0-29-3-59,1-88,2-3,0-59,5-89,4-9,0-19,0-28,0-25,0-49,2-74,3-22,0-45,0-67,0-41,0-82,0-123,2-34,0-67,2-101,3-28,0-56,3-84,3-42,0-83-2-125-3-26,0-51,0-77,1-21,2-42,3-63,0-29-3-58,0-87,1-17,0-35,2-52,3-2,0-3,0-5,0-31,0-63,1-94,2-12,0-24,0-36,0-9,0-18,0-27,1-24,0-48,0-72,0-27,0-53,0-8,0-44,0-88,0-132,3-2,1-41,3-61,4-6,0-11,0-17,0-12,0-23-2-35,0-11,1-22,2-34,2-22,0-44-3-66-3-16,0-32-3-49-5-4,0-8,0-13,0,0,4,0,8,0,11,0,17,2,34,3,51,0,16,0,33,0,49,0,12-2,24-2,36,0,27,2,54,4,81,1,16,4,31,5,47,2,22,1,44,4,66,4,39,1,79,1,118,0,28-3,56-3,84,0,47-1,93,2,14,1,19,0,37,0,56,0,33,0,65,0,98,0,43,0,86,0,129,0,24,0,47,0,71,0,25-2,5-2,75,0,7,0,14,0,21,0,15,0,31,0,46,0,18,2,35,3,53,0,36,0,72,0,108,0,59,0,119,0,178,0,44,0,87,0,131,0,42,0,85,1,127,0,15,0,3,0,45,0,8,0,17,1,25,0,27,1,54,2,81,0,26,0,52,0,78,0,26-1,52-2,78,0,24,0,47-1,71,0,23-3,47-4,7-2,45-5,89-7,134-2,46-4,91-3,137,0,3,1,59,1,89,0,3,0,59-1,89,0,3,0,6,1,9,15,0,17-2,17-15,0-4,0-9,0-13,0-13,0-27,3-4,5-22,5-44,5-66,0-36,0-71,0-107,0-23,0-45,0-68,0-18-3-35-4-53-2-29-2-58,0-87,2-35,2-71,2-106,0-14,0-27,1-41,2-23,6-46,6-69,0-43,0-86,0-129,0-3-4-61-4-91,0-3,0-6,0-9,0-34-1-69,0-103,0-55,2-109,3-164,0-25,0-51,0-76,0-15,0-3,0-45,0-19-2-39-2-58,0-29,2-59,2-88,0-49,0-99,0-148,0-37-2-73-3-11,0-27-1-55-1-82,0-18,1-36,1-54,0-32,0-65,1-97,0-56,1-112,2-168,0-41,1-83,2-124,0-38,3-75,4-113,0-22-3-43-4-65-1-21-4-41-1-61-7-21-1-43-6-65,1-8,3-16,2-24-2-1,0-2,4-31ZM257,2712c-5,0-9-1-13-2-5-3-99-1-149,4-15,1-29,1-44,1-9,0-19,0-28,3-9,3-11,5-1,14,0,2,0,5,0,7,7,24,4,49,4,73,0,8,0,16,4,25,6,0,12,0,17-1,29-5,58-8,87-9,15,0,31,0,46,0,27,0,53-2,8-3,2,0,4,0,8,0,0-7,0-13,0-19-1-25-3-5-4-75,0-5,0-11,0-17ZM2117,1181h0c0,4,0,8,0,121,0,27,1,53,2,8,0,18,0,35,1,53,1,32,4,64,5,96,2,48,3,97,4,145,2,57,4,113,3,17-1,65-4,13-2,195,1,37,0,74,0,111,0,31-2,62-3,93-1,37-3,75-3,112,0,36,1,71,2,107,1,42,3,84,5,126,2,31,4,62,8,92,3,28,4,56,16,85-2-16-4-3-4-44-1-39-5-77-9-115-5-49-1-98-12-146-2-45,0-9,0-135,2-81,5-162,8-244,1-41,3-82,4-123,0-34,1-67,1-101,0-62-1-125-2-187,0-31-2-63-3-94,0-22-2-44-3-66-1-25-1-49-3-74-2-43-5-86-7-129-2-43-5-85-7-128ZM1089,2794c1,0,3,0,4,0,37,0,74,0,111,0,44,0,89,1,133,2,28,0,57,2,85,3,3,1,6,2,9,4,11,0,23,0,34,0,37,0,73,2,11,1,26,0,52-4,78-4,51,0,101,0,152,0,29,0,57,1,86,2,25,0,49,2,74,3,33,1,67,3,1,4,3,0,6,0,11-1-1-3-1-6-3-7-4-2-9-5-14-5-27-1-55-2-82-2-39,0-77,1-116,2-34,0-69,0-103,0-58,0-115-2-173-3-39,0-78-3-117-3-29,0-57,1-86,1-49,0-97,0-146,0-34,0-67,0-101,0-42,0-84,0-126,3ZM2103,154c0,0-1,0-2,0,0,9,0,17,0,26,0,32-5,64-4,96,0,43-2,87-2,13,0,46,1,92,3,138,1,33,3,66,5,99,0,7,2,15,2,22,0-28,0-56,0-84,0-11,0-23,0-34-1-32-3-64-4-97,0-31-1-63-1-94,0-23,1-47,2-7,0-15,3-29,4-44,0-22,0-43,0-65,0-8-2-16-2-23ZM1843,48h0c-7-2-14-3-22-4-29-5-59-7-89-6-35,1-7,3-106,5-18,0-37,1-55,2-3,0-7,0-12,4,6,0,1,0,14,0,46,0,91,2,137,3,8,0,15,0,23,0,22-3,44-4,67-3,14,0,28,0,42,0ZM5,1546c-1,0-2,0-4,0,0,21,0,42,0,63,0,4,0,8,0,12,0,47-3,93,1,14,2,23,2,46,4,69,1-3,2-7,2-11,0-16,0-33,0-49,0-27-2-53-2-8,0-48,0-97,0-145,0-31-2-63-3-94,0-5,0-9,0-14ZM42,2362c1,0,2,0,3,0,3-98,8-195,5-293-1,4-1,8-2,12-2,32-5,64-5,97,0,35-2,7-2,105,0,27,0,53,1,8ZM1298,2831c5,0,1,2,15,2,24,0,49,1,73,2,21,0,41-1,62-1,28,0,55,0,82,0-17-5-187-8-231-2ZM1997,283h0c9,2,19,4,28,3,25,0,49,5,73,6,13,0,27,2,4,0,15-2,29-3,44-3,3,0,5,0,9-1-1-1-2-2-2-2-64,0-128-2-191-3ZM851,2797c-68,0-135-2-202,4,68,4,135,3,202-4ZM1232,2825c-23-4-46-2-69-2-24,0-47,0-71,0-23,1-45,4-68,7,24,0,47,0,71,0,37-1,73-3,11-5,9,0,19,0,28,0ZM2105,84c0,0,2,0,3,0,2-13,11-26,5-41-8-1-15-1-22,2,5,14,1,26,14,39ZM2111,98c0,0,1,0,2,0-1-62,0-123-6-185h-2c2,62,4,123,6,185ZM1095,53c-36-3-71,0-106,0,36,6,71,5,106,0ZM1195,47c0,0,0,2,0,2h82c-27-4-54-3-82-2ZM36,114c-6,18-3,51,5,63-2-23-3-43-5-63ZM507,2809c0,0,0-1,0-2-28-3-57-1-85-1,7,2,14,2,2,3,13,0,26,0,39,0,9,0,17,0,26,0ZM96,2838l55-2v-2c-18,0-37,0-55,4ZM343,284c0,0,0-2,0-3-13-2-26-3-39-2,0,0,0,2,0,2,13,0,26,1,39,2ZM1544,48s0,0,0-1h-33s0,0,0,1h33ZM208,2834c-7-3-13-3-2,0h2ZM231,2827v2c4,0,7,2,12-3-5,0-9,0-12,0ZM39,2682s0,0,0,0v-18s0,0,0,0v18ZM2113,1008s0,0,0,0v-13h0v13ZM306,2808s0,0,0-1h-13s0,0,0,1h13ZM45,914s0,0,0,0v-4h0v4Z"/>
      <path class="cls-1" d="M0,2058c0,18,1,37,1,55,0,16,0,32,0,48,0,6,3,13,4,19,1,5,2,9-2,13-4,3-3,7-2,11,1,11,2,22,3,34,0,4-2,9-3,13"/>
      <path class="cls-2" d="M257,2712c0,7,0,12,0,17,1,25,3,5,4,75,0,6,0,12,0,19-3,0-5,0-8,0-27,1-53,2-8,3-15,0-31,0-46,0-29,0-58,3-87,9-5,0-11,0-17,1-3-9-4-17-4-25,0-25,3-49-4-73,0-2,0-5,0-7,0-9,1-12,1-14,9-3,18-3,28-3,15,0,29,0,44-1,49-5,99-7,149-4,4,0,8,0,13,2Z"/>
      <path class="cls-2" d="M2117,1181c2,43,5,85,7,128,2,43,5,86,7,129,1,25,2,49,3,74,0,22,2,44,3,66,1,31,2,63,3,94,0,62,2,125,2,187,0,34,0,67-1,101,0,41-2,82-4,123-3,81-6,162-8,244-1,45-2,9,0,135,2,49,7,98,12,146,4,38,8,77,9,115,0,14,3,28,4,44-11-29-12-57-16-85-4-31-6-62-8-92-2-42-4-84-5-126-1-36-2-71-2-107,0-37,2-75,3-112,0-31,3-62,3-93,0-37,2-74,0-111-2-65,0-13,2-195,1-57,0-113-3-17-2-48-3-97-4-145-1-32-3-64-5-96,0-18,0-35-1-53,0-27-1-53-2-8,0-4,0-8,0-121h0Z"/>
      <path class="cls-2" d="M1089,2794c42-4,84-3,126-3,34,0,67,0,101,0,49,0,97,0,146,0,29,0,57-1,86-1,39,0,78,2,117,3,58,1,115,2,173,3,34,0,69,0,103,0,39,0,77-2,116-2,27,0,55,0,82,2,5,0,9,3,14,5,1,0,2,4,3,7-4,0-7,1-11,1-33-1-67-3-1-4-25,0-49-2-74-3-29,0-57-2-86-2-51,0-101-1-152,0-26,0-52,4-78,4-37,0-73,0-11-1-11,0-23,0-34,0-3-1-6-2-9-4-28-1-57-2-85-3-44,0-89-2-133-2-37,0-74,0-111,0-1,0-3,0-4,0Z"/>
      <path class="cls-2" d="M2103,154c0,8,2,15,2,23,0,22,1,43,0,65,0,15-3,29-4,44-1,23-2,47-2,7,0,31,0,63,1,94,0,32,3,64,4,97,0,11,0,23,0,34,0,28,0,56,0,84,0-7-2-15-2-22-2-33-4-66-5-99-1-46-2-92-3-138,0-43,2-87,2-13,0-32,5-64,4-96,0-9,0-17,0-26,0,0,1,0,2,0Z"/>
      <path class="cls-2" d="M1843,48c-14,0-28,0-42,0-22,0-45,0-67,3-8,0-15,0-23,0-46,0-91-2-137-3-4,0-8,0-14,0,4-5,8-4,12-4,18,0,37-1,55-2,35-2,7-3,106-5,3-1,59,1,89,6,7,1,14,2,22,3h0Z"/>
      <path class="cls-2" d="M5,1546c0,5,0,9,0,14,0,31,2,63,3,94,0,48,0,97,0,145,0,27,2,53,2,8,0,16,0,33,0,49,0,4,0,7-2,11-1-23-2-46-4-69-4-47,0-93-1-14,0-4,0-8,0-12,0-21,0-42,0-63,1,0,2,0,4,0Z"/>
      <path class="cls-2" d="M42,2362c0-27-1-53-1-8,0-35,2-7,2-105,0-32,3-65,5-97,0-4,0-8,2-12,3,98-1,196-5,293-1,0-2,0-3,0Z"/>
      <path class="cls-2" d="M224,69c-8,1-16,3-23,4-17,4-33,8-5,9-6,0-12,0-18-1-9-3-18-7-28-12,4-2,81-3,121-5,0,0,0,1,0,2-1,1-3,2-4,3,0,0,0,0,0,0Z"/>
      <path class="cls-2" d="M1298,2831c44-6,214-3,231,2-27,0-54,0-82,0-21,0-41,1-62,1-24,0-49,0-73-2-5,0-1-1-15-2Z"/>
      <path class="cls-2" d="M1997,283c64,0,128,2,191,3,0,0,0,0,2,2-3,0-6,1-9,1-15,0-29,0-44,3-13,2-27,0-4,0-25,0-49-6-73-6-9,0-18-2-28-2h0Z"/>
      <path class="cls-2" d="M851,2797c-67,7-135,9-202,4,67-6,135-5,202-4Z"/>
      <path class="cls-2" d="M1232,2825c-9,0-19,0-28,0-37,1-73,3-11,5-24,0-47,1-71,0,23-2,45-6,68-7,24-1,47,0,71,0,23,0,46-2,69,2Z"/>
      <path class="cls-2" d="M2105,84c-5-13-9-25-14-39,7-3,14-3,22-2,7,15-3,27-5,41,0,0-2,0-3,0Z"/>
      <path class="cls-2" d="M2111,98c-2-62-4-123-6-185h2c5,62,5,123,6,185,0,0-1,0-2,0Z"/>
      <path class="cls-2" d="M1095,53c-35,6-71,7-106,0,35,0,71-4,106,0Z"/>
      <path class="cls-2" d="M1195,47c27,0,55-2,82,2h-82c0,0,0-2,0-2Z"/>
      <path class="cls-2" d="M36,114c2,2,3,41,5,63-8-13-11-45-5-63Z"/>
      <path class="cls-2" d="M507,2809c-9,0-17,0-26,0-13,0-26,0-39,0-7,0-14-1-2-3,28,0,57-2,85,1,0,0,0,1,0,2Z"/>
      <path class="cls-2" d="M96,2838c18-5,36-5,55-4v2c-18,0-37,2-55,2Z"/>
      <path class="cls-2" d="M343,284c-13,0-26-1-39-2,0,0,0-2,0-2,13-1,26,0,39,2,0,0,0,2,0,3Z"/>
      <path class="cls-2" d="M1544,48h-33s0,0,0-1h33s0,0,0,1Z"/>
      <path class="cls-2" d="M208,2834h-2c7-3,13-3,2,0Z"/>
      <path class="cls-2" d="M231,2827c3,0,7,0,12,0-5,4-8,2-12,3v-2Z"/>
      <path class="cls-2" d="M39,2682v-18s0,0,0,0v18s0,0,0,0Z"/>
      <path class="cls-2" d="M2113,1008v-13h0v13s0,0,0,0Z"/>
      <path class="cls-2" d="M306,2808h-13s0,0,0-1h13s0,0,0,1Z"/>
      <path class="cls-2" d="M45,914v-4h0v4s0,0,0,0Z"/>
      <path class="cls-1" d="M638,1965c-3,0-5,0-7,0-23,1-46-2-69-3-22-1-45,0-67-1-3,0-6,0-9,0-3,0-5-2-6-6-2-14-4-28-6-42-2-25-4-49-6-74,0-1-2-19-2-29,0-6,2-1,7-11,6-2,12-3,17-4,33-4,66-7,98-1,11-1,22-3,34-5,4-8,8-16,11-24,9-24,18-48,27-72,2-5,5-8,11-9,36-5,71-1,107-15,18-3,35-6,53-9,13-2,26-3,4-5,22-3,44-5,66-7,54-5,107-15,161-16,27,0,54-1,81-2,32-1,64-3,96-4,41,0,82-1,123-2,46,0,92,0,138,0,8,0,16-1,25-2,1,5,3,9,4,13,2,25,4,49,6,74,2,27,5,54,7,81,3,43,6,86,9,129,2,39,4,78,6,117,0,8,0,15,0,23-1,0-3,2-4,2-9,2-18,3-27,5-12,2-24,3-36,5-8,1-16,3-24,3-38,0-76,8-114,13-58,8-116,14-175,2-52,5-104,8-155,14-45,5-9,12-135,17-29,3-58,5-87,9-28,4-57,4-86,6-16,1-32,4-47,7-3,0-5,1-8,1-9,0-14-4-15-13-1-7-3-14-5-21-8-31-16-63-24-94-4-15-8-3-12-45,0-3-2-7-4-1ZM1574,1926c0-5,0-8,0-12-2-24-3-48-5-72-3-44-6-88-8-132-1-24-3-48-7-71,0-4-2-7-3-11-22-3-43-3-64-2-29,0-57,1-86,2-3,0-59,0-89,1-54,2-108,4-162,6-41,2-81,4-122,8-18,2-36,3-55,5-23,2-47,3-7,5-35,4-71,8-106,13-16,2-32,3-48,6-21,4-42,6-62,14-11,4-12,3-12,15,0,23,0,46,0,69,0,6,2,12,9,18,2,22,4,44,6,67,2,25,5,5,7,75,1,12,3,23,4,35,0,2,2,5,3,7,3,0,5-1,7-2,28-3,56-5,83-8,33-3,66-5,1-9,3-3,59-7,89-11,19-2,38-4,57-6,24-2,48-4,73-7,37-4,75-9,112-13,21-2,42-4,64-6,23-2,45-5,68-7,25-3,5-5,75-9,46-6,92-13,139-19,1-1,1-1,1-12-2-27-3-55-5-82,0-5-1-9-2-13-12,3-23,5-35,8,1,11,3,21,3,31,0,1,7,19,4,3-9-2-9-2-1-1-2-14-3-27-6-4-2-9-4-1-13-9-2,0-5,0-7,1-3,0-7,0-8-4,0-4,4-4,7-4,2-3,41-3,6-9,1,0,3,0,5,0ZM555,1939s0,0,0,0c8,0,16,0,24,0,14,0,27-1,41-3,1,0,1-2,11-12,0-8,1-15,1-23,0-2-1-41-2-61,0-12-1-24-2-36-1-13-4-15-17-14,0,0-2,0-3,0-21,2-42,4-63,6-17,1-33,3-49,8-15,5-17,7-16,23,0,1,0,3,0,4,0,16,2,31,3,47,0,18,1,35,6,52,3,11,4,12,15,11,17-1,34-2,51-3ZM678,2047c0,0,2,0,3,0-11-104-13-209-17-316-9,19-17,36-25,53-1,2-2,5-2,8,0,14,0,29,2,43,3,3,6,6,9,89,1,13,2,26,5,38,6,27,14,53,21,79,0,2,2,4,3,7Z"/>
      <path class="cls-1" d="M479,692c7,0,13-2,18-2,17-2,34-3,52-5,0,0,1,0,2,0,23,1,45-4,68-6,9,0,1,0,11,1,2,13,5,27,8,4,0,1,2,3,3,5,6-3,11-5,16-7,5-2,6-7,6-12,0-1,2-19,3-29,0-5,0-9,1-14,1-8,3-1,11-12,1,0,3,0,4,0,22-1,44-4,67-4,26,0,53-2,79-4,33-2,65-2,98-3,38-1,76-3,114-5,51-2,103-2,154-5,56-2,112-5,169-1,16-1,32,0,48-2,19-1,38-3,57-4,3,0,5,0,8,0,6,0,1,4,1,11,0,18,3,37,4,55,1,23,3,46,4,69,0,7,1,14,2,21,0,8-2,12-1,13-1,0-3,0-4,0-42,3-84,5-127,7-58,3-116,5-174,4-55,0-11,0-165,2-29,0-59,0-88,3-33,2-66,2-99,6-21,3-43,2-65,4-23,2-45,5-67,8-3,0-5,0-8,0-12,0-14-1-15-13,0-11-4-22-7-32-2-5-4-1-6-15-3-1-4-1-17-9,0,5,0,1,0,14,1,8,3,16,5,23,2,1-3,17-14,18-11,0-21,1-32,3-24,3-47,7-71,11-6,0-11,2-17,2-8,0-1,0-12-9-4-22-8-44-13-66-3-17-7-35-11-52,0-4-1-8-2-13ZM685,672c0,24,0,47,0,69,0,2,2,4,3,6,0,6,2,8,9,7,24,0,48-2,72-3,39-2,78-4,117-5,41-1,81-2,122-3,37,0,73-1,11-2,35-1,69-3,104-4,47-2,95-4,142-6,7,0,15,0,22-1,17-2,33-4,5-6,11-1,22-3,34-5,9-2,1-3,1-12,0-17-2-35-4-52-2-19-5-38-7-58,0-9-2-1-11-1-36,2-72,5-108,7-55,2-111,3-166,4-4,1-8,2-12,4-25,0-5,3-75,4-32,1-64-2-96,2,0,0-1,0-2,0-27,0-55,2-82,2-19,0-37,1-56,2-12,0-25,0-37,1-1,0-2,2-31,3ZM622,693c-3,0-5,0-7,0-2,2-4,3-6,5-12,1-24,3-36,4-6,0-12,2-17,3,0,3,0,4,0,5,4,32,9,64,18,95,2,7,3,8,11,7,29-1,58-4,87-9,12-2,15-6,14-17,0-3,0-5,0-8-2-17-5-34-7-5-1-11-2-22-4-34ZM654,748s0,0,0,0c5,0,9,0,14-2,2,0,4-3,4-4,0-2-2-5-3-5-8,0-15,0-23,0-3,0-5,2-4,5,0,3,2,5,6,5,2,0,5,0,7,0Z"/>
      <path class="cls-1" d="M65,1303c0,8,1,15,2,23,0,8,2,15,2,23,0,9-2,11-11,12-25,2-5,4-76,7-21,2-42,5-63,8-12,2-18,0-19-17-1-33-3-66-5-1,0-7-1-15-2-22,0-8,0-1,9-11,22-2,43-3,65-5,21-2,41-5,62-7,7,0,15,0,22,0,4,0,7,2,7,6,0,1,3,2,1,31,0,0,0,0,0,0,2,2,3,2,19,18,3,0,7,0,1,0,7,0,11-5,12-11,0-5,0-11,0-16,0-8,0-16,2-24,2-9,8-15,17-16,9-2,18-3,27-4,26-3,52-5,78-7,4-3,79-5,119-7,64-3,128-5,191-11,21-2,42-2,63-2,37-1,73-3,11-4,51-1,103-2,154-3,7,0,15,2,22,4,9,2,15,8,17,18,3,12,5,25,4,37-1,15,0,3-3,46-2,12-1,25-2,37,0,3,0,6,0,9-1,14-6,19-19,23-16,5-32,6-48,7-23,1-46,2-69,3-19,1-39,3-58,4-23,2-46,4-69,5-34,1-69,2-103,3-21,0-42,0-63,1-4,1-81,3-121,4-32,1-65,1-97,3-38,2-76,4-115,6-2,0-5,0-7,0-18,0-27-1-28-28,0-12,0-23-4-34-4-9-11-14-21-12-4,0-7,3-12,4ZM65,1288c9,0,17-2,26-3,8,0,15,3,16,12,0,3,0,5,1,8,1,13,2,26,3,39,2,16,6,2,22,2,14,0,28,0,42,0,16,0,33-2,49-3,28-1,55-2,83-4,16,0,31-2,47-2,27,0,55,0,82-1,36-1,72-4,108-5,29-1,57-2,86-4,13,0,26-2,39-2,17,0,35-1,52-2,29-2,57-3,86-5,21-2,42-5,63-7,14-1,21-14,21-26,0-13,0-26,0-39,0-4,0-9,0-13,0-11,0-21-1-32,0-1-1-19-3-29-2-11-6-13-17-13-14,0-28,0-42,1-11,0-22,0-33,0-16,0-33,0-49,1-76,0-151,2-227,6-25,1-5,2-75,3-36,2-71,4-107,5-26,1-53,2-79,4-21,1-42,3-64,5-22,1-43,3-64,8-17,4-21,9-22,27,0,9,0,17,0,26-1,1-7,14-17,15-8,0-15,1-23,2-5,0-7,4-4,1ZM499,1294h2c0,2,0,3,0,5,0,16,2,33,3,49,0,8,3,9,11,9,11,0,22,0,33-1,17-2,34-4,5-6,9,0,17-1,26-2,9,0,12-4,12-13,0-4,0-8,0-12-2-26-4-51-6-77-2-19-2-19-21-18-23,2-46,3-69,5-1,0-2,3-31,4-5,0-8,3-9,9,0,16-2,31-3,47Z"/>
      <path class="cls-1" d="M1407,337c1-29-4-54-8-79-3-16-5-32-8-48,0-3,0-5,0-8,0-13,4-14,14-15,11-2,21-1,32-3,11-1,22-3,33-5,0,0,1,0,2,0,22,0,44-3,65-7,2,0,3,0,5,0,38,2,75-5,113-4,7,0,13-2,2-2,8,0,16,0,24,0,7,0,15,0,22,0,35-1,7-3,105-5,2-1,4-3,61-5,3,0,7,0,1,0,4,0,6,2,6,6,2,14,5,28,7,42,2,25,4,49,5,74,1,18,1,37,2,55,0,2,0,4,0,6,0,9-3,11-13,12-1,0-21,0-31,0-13,0-27,1-4,2-8,0-17,0-25,1-28,2-56,4-84,6-31,2-62,4-93,6-31,2-61,4-92,5-35,0-7,6-104,11-19,3-24,0-27-19-1-9-1-19-1-24ZM1901,34c0-9,0-17,0-25-3-32-5-63-3-95,0-13,1-27-2-4-3-1-2-1-13-9-3,0-6,0-9,0-47,0-95-1-142,2-17,1-33,2-5,4-31,3-63,7-94,1-8,0-17,0-25,2-26,3-52,5-79,4-8,0-17,0-25,1-17,1-33,1-51,8,0,0-1,0-2,2,0,3,0,6,1,9,1,15,4,3,4,45-2,35,6,7,8,104,0,0,0,2,1,3,5,0,1,1,16,1,18,0,35,2,53,0,22-1,44-5,66-7,25-3,5-5,76-7,34-3,67-5,101-7,2,0,4,0,6,0,34,0,68-2,102-4,3,0,5,0,8-1ZM1907,322c5-25,2-101-4-113-5,38,0,75,4,113ZM1646,354c-25,2-49,4-74,7,25,0,5,0,74-7ZM1452,371c-5,0-11,0-16,0-5,0-1-2-16,4,12,3,22,0,32-3ZM1537,186h0c-5,0-11-1-16,0-5,0-1,2-15,2h0c1,0,2,0,3-2ZM1403,231h1c0-6-1-13-2-19,0,0-1,0-2,0,0,6,2,12,3,19ZM1664,353s0,0,0,1c2,0,3,0,5,0-2,0-3,0-5,0Z"/>
      <path class="cls-1" d="M82,123c8,0,15-2,22-2,33-1,67-3,1-4,9,0,18,0,27,0,53-1,107-2,16-3,1,0,2,0,3,0,11,0,17,4,17,16,2,39,3,78,4,117,0,6-2,12-3,19-11,0-21,0-3,0-15,0-29,1-44,2-34,3-68,7-102,8-21,0-42,3-63,4-29,3-57,7-86,1-2,0-5,0-7,0-6,0-8-1-8-7-3-21-5-42-7-63-3-22-6-45-9-67,0-7-1-13-2-2,0-3,0-6,1-11ZM424,121c-7,0-13,0-2,0-45,2-9,3-136,5-5,2-99,5-149,8-6,0-12,1-18,2,0,11-2,2-2,3,2,2,5,4,5,6,0,12,2,25,2,37,0,4,0,8,1,14,8,0,15,0,22-1,38-4,76-9,114-13,44-4,89-7,133-11,16-1,32-3,47-4,2-7,2-116,0-127Z"/>
      <path class="cls-2" d="M1574,1926c-2,0-4-1-5,0-2,6-4,5-6,9-3,0-6,0-7,4,2,4,5,4,8,4,2,0,5,0,7-1,9-1,12,0,13,9,3,13,4,27,6,4,1,8,0,8,1,1,3-11-3-2-4-3,0-1-2-2-3-31,11-2,22-5,35-8,0,5,2,9,2,13,2,27,3,55,5,82,0,11,0,1-1,12-46,6-92,13-139,19-25,3-5,6-75,9-22,3-45,5-68,7-21,2-42,4-64,6-37,4-75,9-112,13-24,3-48,5-73,7-19,2-38,4-57,6-3,3-59,8-89,11-33,3-66,6-1,9-28,2-56,5-83,8-2,0-4,0-7,2,0-2-2-5-3-7-2-12-3-23-4-35-3-25-5-5-7-75-2-22-4-44-6-67-7-6-8-12-9-18,0-23,0-46,0-69,0-12,1-11,12-15,2-8,41-1,62-14,16-3,32-4,48-6,35-4,71-9,106-13,23-2,46-3,7-5,18-1,36-3,55-5,4-4,81-7,122-8,54-2,108-5,162-6,3,0,59,0,89-1,29,0,57,0,86-2,21,0,43,0,64,2,0,4,2,7,3,11,4,24,6,48,7,71,2,44,5,88,8,132,1,24,3,48,5,72,0,4,0,7,0,12ZM763,1821c0-8-1-15,0-22,0-16,2-32,2-48,0-12,0-24-1-36,0-6,0-13-4-19-1,0-2,0-3,0-11,3-22,6-34,9-5,1-6,3-5,8,2,7,4,14,4,2,1,22,2,44,2,66,0,35-1,71-2,106,0,17,0,33,0,5-1,23-3,46-5,69,0,8,2,12,11,11,5,0,11-2,16-3,8-2,8-3,8-11,0-24-2-49-2-73,0-24,0-48,4-72,4-19,6-21,25-21,0,0,0,0,0,0,8,0,8,0,9,7,1,9,3,17,3,26,1,24,2,49,3,73,1,2,3,41,4,61,0,8,3,11,12,1,6,0,12-2,18-3,1-2,13-5,12-16,0-15-2-29-3-44-1-21-3-41-4-62,0-2,0-4-1-6-2-25-5-5-4-75,0-2,0-41,1-61,0-7,2-14,3-22,0-5,0-8-4-1-9,2-18,4-27,6-11,3-11,3-11,14,0,16,3,31,4,47,0,21,0,42,0,63,0,5-2,8-7,9-9,0-17,1-27,2ZM1029,1858c9,0,17,0,24,0,9,0,11,0,1-1,0-7-3-14-3-21-3-29-5-59-5-89,0-13-1-26-1-39,0-14-2-16-17-14,0,0,0,0,0,0-18,3-2,5-18,24,3,28,6,56,5,85,0,5,0,9,0,14,0,3,0,5,0,7-11,2-21,3-32,5,0-12-2-23-2-34,0-21,0-42,0-64,0-1-2-19-3-29,0-3-1-6-5-6-13,0-27,9-29,2-2,11,0,21,2,31,4,19,6,37,6,56,0,8,0,16,2,24,1,1,3,19,4,29,1,8,5,1,13,9,3,0,7-1,1-1,7,0,15-3,22-2,5,0,9,0,12-5,3,4,5,8,6,1ZM1113,1722c3,0,6,0,8,0,6,0,11-6,11-11,2-21-18-39-38-35-1,0-3,0-4,1-9,8-19,16-19,29,0,15,4,29,15,4,9,9,18,18,27,28,8,9,14,19,16,3,1,5,1,11,0,16-2,6-12,11-18,1-9,0-15-6-18-14-3-1-3-21-2-32,1-11,0-12-1-12-12,0-16,4-17,16,0,3,0,6,0,9-2,27,16,51,39,56,13,3,27,2,4-4,5-2,1-6,13-11,15-24,14-53-9-73-12-1-24-21-36-32-4-4-8-1-11-15-2-4-1-8,5-9,2,4,5,8,7,12ZM1186,171c0,7,2,14,1,2-1,35-3,7-5,105,0,1,0,12,1,14,2,0,5,0,7,0,7-1,14-3,2-5,1-3,1-3,9-13-1-16-3-32-5-49,0-11-2-23-3-34,0-13-2-26-3-38,14-8,3-5,44-1,0-9-3-17-6-24-3-7-5-9-13-8-6,0-13,0-19,0-15,0-29,0-44,0-14,0-28,3-42,5-1,0-2,1-4,3,3,12,6,24,8,35,15,3,28-5,43-3ZM1404,1713c9-6,16-1,23-15,3-2,5-6,4-9-5-12-1-24-24-27-8-2-16,0-24,0-6,0-12,3-16,7-6,7-13,15-18,22-14,19-18,41-2,64-1,17,4,33,1,49,2,6,7,1,11,15,3,3,6,5,9,8,6,6,13,1,21,12,32,8,64-7,8-36,4-8,6-16,8-25,3-19,0-23-19-24-9,0-12,2-15,1-2,7-4,13-6,2-4,16-15,24-31,25-5,0-1,0-14-3-8-6-14-13-16-22-2-15-3-31-3-47,0-14,6-26,16-36,8-8,14-8,19,2,2,3,3,6,5,9ZM853,1788c2,11,4,22,5,34,0,8,4,14,1,19,12,1,27,12,42,14,0,0,1,0,2,0,12-4,23-1,3-21,8-14,15-29,13-46-1-13-2-27-8-39-2-4-3-8-4-11-5-22-21-33-41-4-2,0-6,0-9,0-9,6-18,11-22,22-3,7-6,14-8,22-2,7-3,15-6,22-3,8-5,16-5,24ZM1267,1807s0,0,0,0c0,8-1,15-2,23,0,7,4,12,11,11,8,0,16,0,24-1,4,0,7-3,7-7,0-4,0-7,0-11,0-1,0-2,0-3,3-37,0-74,2-112,0-2,0-4,0-6,0-6-6-11-12-11-4,0-9,0-13,0-9,1-11,3-11,12,0,6,0,13,0,19-2,37-5,74-7,111ZM1254,1974c0,7,1,13,2,21-4-5-7-9-1-12-5-7-11-1-2-7-7,3-15,7-21,12-9,7-11,19-6,32,4,1,12,15,24,14,3,0,5,0,8,0,13,0,22-8,25-21,0,0,0-2,2-4,2,5,3,9,4,13,1,3,1,8,6,7,5-1,2-5,2-8,0-4-2-7-3-12,4-1,8-2,11-3,5-2,11-5,16-8,1-8,7-25-5-29-12-5-23-3-35,5ZM977,1955c-2-7-4-12-6-18-2-6-3-12-5-18-2-5-4-9-8-13-3-3-6-3-9,2-2,3-3,7-5,11-3,6-4,13-9,18-5-7-1-13-15-19-2-3-4-5-7-7-5-3-8-2-1,4,0,3-1,7-1,11,0,11-1,22-2,33,0,6,2,7,9,4-3-1-1-28,4-38,4,6,9,11,13,17,2,3,4,6,6,8,4,4,7,3,9-2,2-4,2-8,3-11,2-6,4-12,1-16,8,13,8,28,14,41,3-2,6-3,9-5ZM915,2031c3,13,5,25,8,38,2,8,6,11,14,1,14-2,27-8,35-2,13-18,6-38-15-45-9-3-17-3-26-1-12,3-15,7-16,19ZM1044,1966c6-2,11-4,15-5,5-2,1-4,15-7,8-4,12-11,11-21-2-13-14-25-28-27-5,0-1,0-15,0-7,0-1,2-9,9,0,2,0,5,1,7,2,12,5,24,7,36,0,3,2,5,3,8ZM1318,2031c0-6-2-12-3-18,0-7,0-13,0-2,0-6,0-12,5-18,9,8,17,15,25,22,11-6,7-19,16-26,0,3,1,6,2,8,2,13,3,26,5,38,0,3,0,6,4,5,4,0,4-4,3-7-1-4-1-8-2-13-1-12-3-24-4-36,0-7-5-11-11-17-7,12-8,25-13,38-3-2-5-3-7-5-6-9-14-14-23-19-4-2-6-2-7,3-3,2-1,4,3,59,0,3,2,5,6,4ZM1442,1952c-2,2-2,3-2,3-3,18,1,35,5,52,0,0,0,1,0,2,1,1,3,3,4,2,2,0,4-2,4-4,0-3,0-6-1-9-2-1-5-2-7-31,11,8,2,17,29,25,2,2,5,4,8,5,5,1,1,2,14,3,5-4,5-8,4-13-4-15-8-3-12-45,0-2-2-3-4-6-1,3-2,5-2,7,0,2,1,4,2,7,3,11,5,23,6,36-19-8-33-22-48-34ZM1016,1916c0-3,0-6,0-9,0-2-4-4-5-3-9,2-17,5-26,7-4,1-6,5-5,9,3,15,6,29,9,44,0,5,4,6,9,5,7-2,15-3,22-5,2,0,4-3,4-5,0-2-2-4-4-4-4,0-8,0-12,0-9,1-11,0-12-11,3-1,7-2,1-3,3-1,8,0,7-7-7,0-13,1-19,2,0-3,0-5-1-7-1-8-1-8,7-1,5,0,1-1,16-2ZM1141,1987c-2,0-3-1-4,0-13,2-27,5-4,7-5,1-5,5-5,9,1,1,3,2,4,31,1,6,2,12,5,17,2,6,7,8,13,6,9-2,18-6,27-8,3,0,5-3,3-6-1-3-4-2-6,0-9,4-17,7-27,6-3-6-4-13-3-19,5-1,9-2,13-4,3-1,1,2,1-6-9,0-18,1-28,2,0-8-1-15-2-22,2,0,3-2,5-2,9-1,18-2,27-3,4,0,8,0,8-7ZM1032,2055c-3,0-4,0-5,0-7,2-14,3-21,5-5,1-8-1-1-6,0-3,0-6-1-1,8-3,15-5,23-7,4-1,7-3,5-8-1,2-19,6-3,5,0-5,0-1-1-14,0-5,2-8,7-9,6-1,12-2,19-4,2,0,3-2,5-2,0-1,0-2-1-2-11-3-22-2-32,4-8,5-9,1-7,19,2,7,3,14,4,22,0,5,1,11,2,16,0,5,4,8,9,7,9-1,17-2,26-4,4-1,8-4,1-11ZM1392,1986c-1-2-2-3-2-5,0-3-1-5-2-8-2-11,0-12,1-14,8-1,16-3,24-4-1-7-1-8-6-6-8,2-15,4-23,6-11,3-14,8-15,19-1,15,5,27,1,4,0,2,5,4,7,4,13-1,25-3,38-5,0,0,2-2,2-3,0,0-1-3-2-3-4,0-8-1-12,0-6,0-12,3-18,4-7,1-8,0-1-7,0-2,0-5,0-9,1-3,19-6,29-8,0,0,0-2,0-3-1-1-19-2-3,0ZM106,2061c2,0,3,0,4-1,9-3,13-9,14-18,0-14,2-28,3-43,0-4,0-8-5-1-4,18-8,36-12,56-5-5-8-8-1-12-5-8-9-16-14-24-4-6-4-6-1-3,1,18,21,36,31,54ZM1124,1961c5-5,6-1,8-15,0-2,1-6,3-7,6-4,13-2,19,0,5,0,6,5,7,9,1,4,2,8,8,8,0-3,0-6,0-8-7-16-14-31-2-47-1-3-3-6-8-5-9,18-14,38-19,58,0,2,0,4,1,7ZM116,1985c0,0-2,0-2,0-3,4-3,8-2,13,3,16,7,32,11,48,0,0,1,0,2,0,9-2,19-4,28-7,2,0,5-3,2-7-9,0-17,8-27,4-4-18-7-35-11-52ZM1095,1908c2,16,4,31,7,45,0,3,4,7,7,9,2,2,5,0,5-3,0-1,0-3,0-4-1-16-6-32-1-48,0,0,0,0-2-2-2,0-4,0-7,2Z"/>
      <path class="cls-2" d="M555,1939c-17,1-34,2-51,3-11,0-12,0-15-11-5-17-6-35-6-52,0-16-2-31-3-47,0-1,0-3,0-4-1-16,1-19,16-23,16-5,33-6,49-8,21-2,42-4,63-6,0,0,2,0,3,0,13,0,16,1,17,14,1,12,2,24,2,36,0,2,2,41,2,61,0,8,0,15-1,23,0,1-2,11-11,12-14,1-27,2-41,3-8,0-16,0-24,0,0,0,0,0,0,0ZM592,1904c-3,2-7,4-11,5-5,2-1,4-15,4-18,0-35-3-46-19,0,0,0,0,0,0-7-7-1-16-9-25,2-25,26-45,51-43,12,0,22,5,28,16,1,17-2,4-22,41-1,0-17-9-14-18,0-2,3-4,6-5,2,0,4,1,6,3,2,1,3,4,5,6,6-8,4-14-3-15-7-1-14,0-19,7-4,6-4,13,0,2,5,8,13,12,22,1,13-2,22-1,29-21,3-5,4-11,2-17-5-17-21-34-44-33-27,2-58,21-56,61,0,8,3,15,8,22,18,24,45,28,71,21,3,0,7-3,1-5,5-4,5-7,1-13Z"/>
      <path class="cls-2" d="M678,2047c-1-2-3-4-3-7-7-26-15-53-21-79-3-13-4-26-5-38-3-3-7-6-9-89-1-14-2-29-2-43,0-3,0-5,2-8,8-17,16-34,25-53,5,107,6,212,17,316,0,0-2,0-3,0Z"/>
      <path class="cls-2" d="M685,672c11-1,21-3,31-3,12,0,25,0,37-1,19,0,37-1,56-2,27,0,55-2,82-2,0,0,1,0,2,0,32-3,64,0,96-2,25-1,5-3,75-4,4-2,8-3,12-4,55-1,111-2,166-4,36-1,72-4,108-7,9,0,1,0,11,1,2,19,5,38,7,58,2,17,3,35,4,52,0,9,0,1-1,12-11,2-22,3-34,5-17,2-33,4-5,6-7,0-15,0-22,1-47,2-95,4-142,6-35,1-69,3-104,4-37,1-73,2-11,2-41,0-81,1-122,3-39,1-78,3-117,5-24,1-48,2-72,3-8,0-9,0-9-7,0-2-2-4-3-6,0-23,0-45,0-69ZM705,705c1,1,2,2,3,29,2,12,4,24,6,36,0,6,4,9,1,9,7,0,15,2,22,1,18-1,29-18,24-35-2-7-7-12-16-13,4-5,7-9,1-13,4-6,4-14-2-18-5-3-11-6-16-6-14,0-28,2-41,1ZM1347,717h-2c-13-12-26-24-39-37-2-2-5-2-7-2,0,0-2,4-2,6,0,5,0,9,1,14,5,18,6,37,8,55,0,7,2,8,9,6,2,0,3-2,6-3-3-1-5-19-8-29-2-7-4-14-1-22,2,1,3,4,5,5,9,9,17,18,26,26,5,5,11,9,2,8,0-5,0-9,0-14-2-18-4-35-6-52,0-4-2-8-3-12-9,3-1,3-9,1,0,11,2,23,3,34,0,2,0,4,0,7ZM1042,689c-4,0-7,0-9,1-8,2-8,3-7,11,0,3,0,7,1,1,1,11,2,21,4,32,1,8,2,15,4,23,2,7,7,1,12,5,2-2,3-6,3-9,0-7-2-14-3-21,0-3,0-6,0-9,7,0,13-2,2-3,2,13,3,25,7,36,11,0,13-1,12-8-3-16-6-32-8-48-1-8-2-16-3-24-11-2-14,0-12,11,1,7,2,14,3,22-8,1-15,2-22,3,0-6-2-11-2-15,0-5,0-1,0-17ZM1431,682c0-9-5-16-9-23,0-1-3-2-5-3-1-3-31,6-35,17-6,17-8,34-1,51,5,13,15,2,28,23,2,5,39-13,36-34,0-2,0-4-1-6-2-9-6-13-15-13-9,0-17,2-25,4-6,1-6,3-2,1,8-1,16-3,25-4,6,0,9,3,9,9,0,12-8,21-2,22-4,0-9,0-12-2-1-7-16-17-15-3,0-3,0-5,0-8-2-9,2-17,8-24,9-12,19-1,24,3q3,7,13,6ZM831,763c-6-18-11-36-17-54-1-3-3-6-5-9-8-11-2-1-26,2-3,7-6,15-6,23-1,16,2,32,6,47,0,2,2,3,3,4,4-5,4-5,4-9,0-6-1-12-1-18,0-7,2-9,9-1,3,0,5,0,8,0,7,0,1,1,13,8,1,4,2,8,3,12,2,4,4,7,11,3ZM1086,726c0,12,4,22,14,3,4,3,9,6,15,3,12-5,22-17,21-3,0-11-5-21-1-3-6-12-16-13-26-4-9,8-13,19-13,31ZM869,71c0,0,2,0,3,0,1-2,3-4,3-6,0-9-12-2-21-17-6,2-12,6-17,9-2,1-3,4-4,7-2,14,7,27,2,3,5,1,11,3,16,5,5,2,6,7,6,11,0,4-2,8-6,9-5,2-1,2-14-1-5-3-9-8-11-14-1-3-2-6-7-5-2,12,3,24,13,29,11,5,25,3,33-6,5-5,7-14,3-19-5-6-9-13-18-15-9-2-17-6-22-15-3-5-3-8,0-12,5-5,1-6,16-4,2,5,4,9,6,13ZM1212,702c0,5,1,9,2,13,2,14,4,28,7,41,0,5,4,6,8,5,4-1,6-4,5-8-3-14-5-28-7-42,0-3,0-7,0-11,8-1,16-2,23-3,5,0,8-5,7-1,0-5-4-5-8-5,0,0-2,0-3,0-17,2-33,4-5,6-6,0-7,2-7,7,0,7,3,9,9,9,4,0,8-1,14-2ZM952,752c-2,1-4,3-7,4-8,5-12,4-18-4-9-1-8-22-5-34,1-5,4-9,8-12,4-4,8-3,11,2,1,2,3,5,4,7,2,0,3,0,5-1,9-3,1-7,3-14-6-7-13-9-22-7-8,3-14,9-16,18-5,15-3,3,1,45,4,14,28,21,39,12,0,0,1-2,2-2,9-8,8-18,9-3-6,1-1,2-15,3v12ZM1145,736c-8,5-9,11-4,17,8,1,18,12,31,7,13-5,17-19,8-3-7-8-16-13-26-16-8-3-9-8-4-14,3-4,7-7,13-5,1,2,2,5,3,7,1,1,4,2,6,2,2,0,3-3,4-5,1-6-2-1-8-12-11-4-22,0-29,11-6,9-4,2,5,26,4,3,1,4,15,6,4,1,8,2,11,5,4,2,5,6,3,11-2,4-5,5-9,5-9-1-18,0-2-13ZM1279,76q11-4,1-15c-2-1-4-21-5-31-1-9-2-18-3-28,0-5-3-7-7-6-2,0-4,1-6,2-1,12,8,72,12,78ZM901,77c1,0,2,0,4,0,0-4,2-8,2-12-3-22-6-44-1-66,0-3,0-6-4-5-4,0-5,3-4,7,0,0,0,2,0,3,3,22,6,45,1,67,0,3,2,5,3,8Z"/>
      <path class="cls-2" d="M622,693c1,12,2,23,4,34,2,17,4,34,7,5,0,3,0,5,0,8,0,12-3,15-14,17-29,6-58,8-87,9-8,0-9,0-11-7-9-31-14-63-18-95,0-1,0-3,0-5,6,0,11-2,17-3,12-2,24-3,36-4,2-2,4-3,6-5,2,0,4,0,7,0ZM572,751c0-7,0-9-4-1-1-1-22,4-19,18,2,12,17,19,29,15,16-5,28-24,22-44-5-17-17-21-27-19-16,3-31,1-4,25-1,18-11,29-1,42,1,15,28,2,45,15,2,0,3-2,5-3,0,0,0-2,0-2-3,0-6,0-9,0-5,0-9,0-14,0-3,0-8-1-1-3-13-13-2-28-7-45,6-9,15-15,26-18,18-4,22,0,25,17,2,13-5,24-18,27-6,2-12,0-15-5-2-4-2-7,1-1,3-3,6-4,9,0,0,0,2,0,3,2Z"/>
      <path class="cls-2" d="M654,748c-2,0-5,0-7,0-4,0-6-2-6-5,0-3,1-5,4-5,8,0,15,0,23,0,1,0,3,3,3,5,0,1-2,3-4,4-5,0-9,1-14,2,0,0,0,0,0,0Z"/>
      <path class="cls-2" d="M65,1288c-3-6-1-9,4-1,8-1,15-2,23-2,1,0,15-5,17-15,1-9,0-17,0-26,0-18,4-23,22-27,21-5,43-7,64-8,21-1,42-3,64-5,26-2,53-3,79-4,36-2,71-4,107-5,25-1,5-1,75-3,76-4,151-5,227-6,16,0,33,0,49-1,11,0,22,0,33,0,14,0,28,0,42-1,11,0,14,2,17,13,2,9,3,19,3,29,0,11,0,21,1,32,0,4,0,9,0,13,0,13,0,26,0,39,0,12-7,25-21,26-21,2-42,5-63,7-29,2-57,4-86,5-17,0-35,2-52,2-13,0-26,2-39,2-29,1-57,2-86,4-36,2-72,4-108,5-27,0-55,0-82,1-16,0-31,2-47,2-28,1-55,2-83,4-16,0-33,2-49,3-14,0-28,0-42,0-16,0-21-4-22-2-1-13-2-26-3-39,0-3,0-5-1-8-2-8-8-13-16-12-9,0-17,2-26,3ZM1134,1335c4-2,6-4,8-4,7-2,9-7,8-13,0-1-1-19-2-29,0-3,0-6,3-7,7-2,14-4,21-6,2,17,3,32,0,48,0,8,0,8,8,12,3-6,4-13,3-2,0-7,0-14,0-2,2,3,3,6,4,8,7,13,24,18,33,8,13-14,14-3,7-47,0-2-3-4-5-6-11-7-25-2-32,1-3,5-4,11-6,16,0-21,1-41,2-62,0-5,0-11-3-15-3,0-6,0-9,1-7,2-8,4-8,11,0,4,0,7,0,11,0,11,2,23,2,35-7,2-13,4-19,6,0-12,0-22,0-31,0-1-3-2-6-3-2-7-8-1-14-6-1,6-18,14-21,26,0,2,0,4,0,8,11-6,12-19,24-22,0,2,2,3,2,5,0,9,3,18,2,27-2,26-4,52-6,77,0,3,0,7,0,12ZM725,1346c1,0,2,0,3,0,0-4,2-8,2-11,0-9-1-18-2-27,0-9,0-9,7-11,12-4,23-9,32-17,7-7,12-14,9-25-2-7-5-13-8-19-7-12-18-16-31-15-5,0-1,2-14,4-1,4-11,6-11,16-1,33,6,65,1,98,0,3,2,5,3,8ZM1439,1253c0,12-1,23-1,32-2-6-4-1-6-16-5,2-7,5-7,9,0,4,0,7,1,11,1,7,6,1,12,12,7,1,12-2,15-7,3-5,5-11,5-16,1-18,2-35,2-53,0-5,0-11-2-16-1-3-4-7-7-9-8-6-15-2-22,3-1,6-15,16-13,28,2,12,8,19,19,22,3,0,7,0,12,1ZM1105,1261c-6-3-11-4-17-2-5,11-1,22-14,33-3,6-5,7-12,6-6-1-1-6-13-11-3-5-6-6-1-2,4,14,13,22,26,25-12,23-17,23-28,19-5,6-5,7,1,11,6,4,11,3,17,0,14-8,23-2,3-33,8-14,13-29,2-45ZM877,1336c8-6,8-6,5-14-4-1-2-2,0-29,0-3,2-6,5-6,4,0,7,1,8,4,2,4,4,8,5,12,1,4,3,7,8,7,1-5,2-1,5-14,3-4,8-6,13-9,1,5,2,7,3,1,0,9,2,17,2,26,0,5,1,8,6,7,3-9,4-35,0-43-6-14-18-16-28-7-2,2-4,5-5,7-3-3-5-5-8-6-8-5-13-5-21,1-1,1-2,2-4,3-7,4-8,4-7,12,0,9,3,18,3,27,0,6,3,1,9,11ZM1279,1253c-4,1,0,14,1,11,5-1,1,0,15,0,0,3,0,6,0,8,0,11,0,21,1,32,0,9,1,1,11,11,2-17-4-34-2-52,8,0,15-2,22-3,2-1,0-13-8-12-4,0-6,0-8-3-4-5-7-1-7-17,0-8-3-9-11-6v3c-8,0-15,1-23,2ZM139,1258c6,6,6,6,6,14,0,1,1,19,4,28,6,0,8-2,8-6,0-8,0-17,0-25,0-5-3-1-5-14-6-9-13-1-22-3-2,1-3,3-5,4-11,3-1,3-9,14,1,9,2,19,3,29,0,4,2,9,2,13,9-4,1-1,9-17,0-1,2-2,5-29,0-3,3-5,4-7ZM1271,1261c3-5,2-1-1-13-3-3-7-4-11-2-3,1-6,3-9,5-9,8-12,27,4,34,5,2,1,5,14,8,5,4,4,9-1,12-8,4-16,0-18-8-2-8-3-8-12-7,0,18,1,29,28,27,11-1,16-9,14-2-2-12-8-19-2-22-5,0-7-4-7-8,0-5,2-9,6-11,4-2,8-1,1,3,0,0,2,0,4,2ZM996,1317c-1-8-2-16-3-25,0-5-1-9-3-14-4-14-18-18-27-8-5,5-1,12-12,19-5,16,5,3,22,29,7,0,13-3,2,0,0,0,2,0,3-2ZM1005,1322c4,0,7-2,6-8-2-1-4-2-6-29-2-7,0-12,8-16,11-6,13-7,22,2,2,2,4,4,7,2-2-11-6-16-14-17-6,0-13,0-18,5-5,5-11,9-16,13,0,16,5,4,11,47ZM785,1334q11-4,8-13c-1-4-3-9-4-13,0-3-1-7-1-1,0-5,6-12,12-13,4-1,8,1,11,7,1,2,2,5,4,9,2-3,4-5,4-7,0-9-9-18-18-17-4,0-8,2-11,3-12,6-14,9-12,23,0,7,1,13,3,2,0,3,2,6,4,1ZM1349,1316c1,0,11-2,11-9,0-15-1-3-2-45,0-2-2-5-3-5-2,0-4,1-6,2-4,4-3,9-3,14,0,11,1,22,2,34,0,3,0,5,1,8ZM848,1279c-1,0-1,1-1,1,1,12,3,24,4,36,0,0,0,2,0,2,2,1,3,4,5,4,1,0,4-1,5-3,1-2,2-4,2-6-2-14-4-27-6-42Z"/>
      <path class="cls-2" d="M499,1294c0-16,2-31,3-47,0-6,3-8,9-9,1-1,2-3,31-4,23-2,46-4,69-5,19-2,19-2,21,18,2,26,4,51,6,77,0,4,0,8,0,12,0,9-3,12-12,13-9,0-17,1-26,2-17,2-34,4-5,6-11,1-22,0-33,1-8,0-1-1-11-9-1-16-2-33-3-49,0-2,0-3,0-5h-2ZM577,1335c-8,0-14,0-2,0-15,0-25-8-34-19-2-3-3-7-3-11,0-2,15-43,35-47,2-5,38,3,4,27,0,1-7,2-17,23-6,1-11,0-15-4-4-3-5-7-3-11,2-4,5-7,1-8,1,2,2,4,3,6,6,0,7-3,8-8,0-7-6-14-13-13-8,0-14,5-18,12-4,8-5,16,0,24,6,9,14,11,24,12,12,1,24-4,29-15,6-13,7-26,0-4-8-13-26-24-41-21-14,3-27,8-37,19-7,8-13,17-16,27-5,15-3,31,8,4,13,1,28,2,46,21,7,0,13,0,2-4-1-4-3-9-4-12Z"/>
      <path class="cls-2" d="M1901,34c-3,0-5,1-8,1-34,1-68,3-102,4-2,0-4,0-6,0-34,2-67,4-101,7-25,2-5,4-76,7-22,2-44,6-66,7-18,1-35,0-53,0-5,0-11,0-16-1,0-1-1-2-1-3-3-35-1-69-8-104,0-15-2-3-4-45,0-3,0-6-1-9,1,0,2-2,2-2,18,2,34-6,51-8,8,0,17-2,25-1,26,0,53,0,79-4,8-1,17,0,25-2,31-3,63-7,94-1,17-2,33-3,5-4,47-3,95-2,142-2,3,0,6,0,9,0,1,0,1,0,13,9,4,13,3,27,2,4-2,32,0,63,3,95,0,8,0,16,0,25ZM1634,336c4-1,7-2,11-3,6-1,7-5,6-9,0-5-2-1-2-15,0-18-2-35-3-53,0-1-3-2-7-29-2,0-3,0-4,0-2,0-4,1-6,2-1,3-1,3-1,13,0,8,0,16,1,24,0,4,0,7-5,8-14,3-27,6-42,6,0-14-2-27-3-41-6,2-12,3-16,5-2,0-4,4-4,6,0,7,0,14,0,21,2,24,4,47,6,71,0,3,2,5,2,9,6-2,12-4,17-6,7-2,7-2,6-9-1-11-3-22-5-34,16-2,3-7,45-6,4,14-1,29,1,41ZM1457,305c-2,18,7,29,2,38,4,3,1,5,16,5,7,0,13,0,2-1,11-2,21-12,22-23,0-18-8-31-21-42-6-5-14-9-22-12-4-2-6-5-6-9,0-6,7-13,14-14,7-1,13,3,15,1,2,5,4,1,6,15,1-3,12-4,12-1,0-17-19-34-36-32-13,2-22,1-27,23-6,15-3,26,11,34,5,3,1,5,15,7,4,2,9,5,13,7,7,5,8,13,7,2-1,8-8,1-14,12-7,2-13,0-18-4-2-2-5-4-7-6-4-3-7-6-5-13,2-5-1-7-6-7-3,0-5,0-9,0ZM1701,324c6-1,15-3,23-6,7-2,14-6,18-13,8-13,1-27,4-42-2-4-4-8-6-11-6-1-14-17-26-2-2-4-44,7-51,26-9,22-5,39,13,57,6,6,14,8,25,9ZM1782,287c5,0,1-2,15-3,11-2,22-7,3-14,9-8,12-18,1-29-2-11-1-15-19-17-17-5-34-4-5,4-7,4-12,8-1,17,0,4,0,9,2,13,4,19,9,38,9,57,0,1,0,3,0,4,1,4,4,7,8,7,4,0,8-4,8-9,0-2,0-3,0-5,0-8-2-16-3-25Z"/>
      <path class="cls-2" d="M1907,322c-4-38-9-76-4-113,6,12,9,88,4,113Z"/>
      <path class="cls-2" d="M1646,354c-24,7-49,7-74,7,25-2,49-4,74-7Z"/>
      <path class="cls-2" d="M1452,371c-1,2-2,6-32,3,6-6,12-4,16-4,5,0,11,0,16,0Z"/>
      <path class="cls-2" d="M1537,186c-1,0-2,2-3,3h0c5-2,1-3,15-3,5,0,11,0,16,0h0Z"/>
      <path class="cls-2" d="M1403,231c0-6-2-12-3-19,0,0,1,0,2,0,0,6,1,13,2,19h-1Z"/>
      <path class="cls-2" d="M1664,353c2,0,3,0,5,0-2,0-3,0-5,0,0,0,0,0,0-1Z"/>
      <path class="cls-2" d="M424,121c3,11,3,12,0,127-15,1-31,3-47,4-44,4-89,6-133,11-38,4-76,9-114,13-7,0-14,0-22,1,0-5-1-1-1-14,0-12-3-25-2-37,0-2-3-4-5-6,0-9,0-19,2-3,6,0,12-2,18-2,5-3,99-6,149-8,45-2,9-4,136-5,7,0,13,0,2,0ZM157,214c3,0,5-1,6-2,21,0,41-2,62-2,26,0,52,0,78,0,18,0,37,0,55,0,11,0,23,0,34,1,4,0,8,0,9-4,1-9,0-18-1-27-82,7-164,14-245,21,0-3,2-4,3-4,12-7,24-14,36-21,6-4,7-5,4-12-13,3-57,32-68,44,4,3,7,6,11,9,16,9,32,18,49,27,3,2,8,4,1,0,3-5-3-6-6-7-11-6-22-12-33-18-1,0-2-2-3-4Z"/>
      <path class="cls-1" d="M763,1821c1,0,18-1,27-2,5,0,7-4,7-9,0-21,0-42,0-63,0-16-3-31-4-47,0-11,0-12,11-14,9-2,17-4,27-6,3,2,4,5,4,1-1,7-3,14-3,22,0,2,0,4-1,61,0,25,2,5,4,75,2,2,0,4,1,6,0,21,3,41,4,62,1,15,2,29,3,44,0,11-2,14-12,16-6,1-12,2-18,3-8,0-11-1-12-1-2-2-3-4-4-61-1-24-2-49-3-73,0-9-2-17-3-26-1-7-2-7-9-7,0,0,0,0,0,0-2,0-22,2-25,21-4,24-5,48-4,72,0,24,2,49,2,73,0,8,0,9-8,11-5,1-1,2-16,3-8,0-11-3-11-11,2-23,4-46,5-69,0-17,0-33,0-5,0-35,2-71,2-106,0-22,0-44-2-66,0-7-2-14-4-2-1-5,0-7,5-8,11-3,22-6,34-9,0,0,2,0,3,0,4,6,3,13,4,19,0,12,1,24,1,36,0,16-2,32-2,48,0,7,0,14,0,22ZM746,1709c-8-1-11,2-11,7,0,7-2,15-3,22,0,29,0,58,0,87,0,2,0,3,0,5,0,19,2,38,1,57-2,43-5,86-7,129,0,4,0,8,1,11,1-2,11-3,11-11,0-12,0-23,0-35,0-26,2-53,3-79,0-14,2-29,3-43,0-6,3-8,9-9,12-1,24-3,37-4,5,0,8,2,9,6,0,2,0,5,0,8,2,41,4,82,6,124,0,7,0,15,2,22,0,5,2,1,3,16,6,0,1,0,16-1,0-4,0-7,0-1-1-23-3-46-4-7,0-34,0-68,0-102,0-19,0-38-1-57,0-11,0-22,0-33,0-16,0-32,0-48,0-4,0-7-1-11-3,0-6,2-8,2-12,3-12,3-12,16,1,36,2,72,4,109,0,6-3,11-9,11-12,1-23,2-35,3-5,0-8-2-9-7,0-6-1-11-1-17,0-28,0-57-3-85,0-5-2-9-3-13ZM758,177c4-21,3-41-2-61,0,0-2-1-3-2,2,22,3,42,5,63ZM743,2017c4-8,4-15,0-28v28ZM827,1954s0,0,1,0v-28s0,0-1,0v28ZM829,1966c0,0-1,0-2,0,0,7,1,14,2,2,0,0,1,0,2,0,0-7-1-14-2-21ZM831,2007s0,0,0,0v-5h0c0,2,0,3,0,5Z"/>
      <path class="cls-1" d="M1029,1858c-1-2-4-6-6-1-3,4-7,5-12,5-7,0-14,1-22,2-3,0-7,1-1,1-8,0-11-1-13-9-2-9-3-19-4-29,0-8-2-16-2-24,0-19-2-38-6-56-2-1-4-2-2-31,2-11,16-19,29-2,4,0,5,3,5,6,1,1,3,19,3,29,0,21,0,42,0,64,0,11,1,22,2,34,11-2,21-3,32-5,0-2,0-5,0-7,0-5,0-9,0-14,0-28-3-56-5-85-2-18,0-21,18-24,0,0,0,0,0,0,14-2,17,0,17,14,0,13,1,26,1,39,0,3,2,59,5,89,0,7,2,14,3,21,1,9,0,1-1,1-7,0-14,0-24,0ZM1027,1729c-2-11,1-22-3-32,0,9,0,17,0,26,0,2,2,4,2,6v35s0,0,0,0v-35ZM104,1849c5-2,8-3,12-5,0-5,0-8,0-12,0-12-2-24-3-36-2-31-3-62-4-93,0-11-1-12-14-1,0,4,0,8,0,13,1,3,2,59,4,89,0,14,2,27,3,41,0,4,2,8,3,13ZM1015,1827c-2,0-4,0-5,0-6,2-11,3-17,5-8,2-12,0-13-8,0-2,0-4,0-6,0-19,0-37,0-56,0-2-1-41-5-61,0-1-1-2-2-3-6,0-8,2-8,8,0,4,0,8,0,12,2,35,4,7,6,105,0,8,0,16,4,23,9,0,18,0,27,0,13,0,15-3,14-15,0-1,0-2-1-4ZM1029,1774h-1c0,13,0,25,0,37,0,13,2,25,3,37,0,0,0,0,0,0,0,0,0,0,2,0-1-25-3-5-4-75ZM957,1723s0,0,1,0v-5c0,0,0,0-1,0v5ZM98,1696s0,0-1,0c0,1,0,3,0,4,0,0,1,0,2,0v-4ZM983,1745s0,0,0,0c0,0,0,2,0,3v-3ZM986,1825s0,0,0,1c1,0,2,2,4,2,0,0,0,0,0-1-1,0-2-2-4-3Z"/>
      <path class="cls-1" d="M1113,1722c-2-4-5-8-7-12-6,2-7,6-5,9,3,5,6,11,11,15,12,11,24,22,36,32,24,2,25,48,9,73-3,4-8,8-13,11-13,6-27,7-4,4-22-5-41-29-39-56,0-3,0-6,0-9,0-12,5-16,17-16,1,0,11,1,1,12-1,11,0,21,2,32,2,8,9,13,18,14,6,0,16-4,18-1,1-5,1-11,0-16-3-11-8-22-16-3-9-9-18-19-27-28-11-11-15-25-15-4,0-13,9-21,19-29,0,0,2-1,4-1,2-4,41,14,38,35,0,5-6,1-11,11-3,0-5,0-8,0ZM1084,1799c0-5,0-9,0-12,0-3-2-6-5-6-4,0-7,1-7,5,0,2,0,5,0,7,0,14,4,27,1,39,6,12,31,21,43,15,0,0,1,0,2,0,7-5,14-1,21-15,5-4,7-9,7-16,0-11-3-21-7-31-5-12-12-23-23-31-7-5-15-11-21-16-7-7-1-15-9-25,1-9,8-12,16-7,2,1,4,3,7,4,0,0,3,0,4,0,0-1,2-3,1-4-1-4-3-7-5-11-6-11-27-14-33,2-2,5-3,12-3,17,0,11,6,18,13,26,12,14,25,28,36,43,7,1,11,21,1,34-1,8-9,17-16,19-11,3-25-3-31-12-5-8-8-17-7-25ZM1095,1682h12c-4-3-8-4-12,0ZM1162,1796h-3c0,4,2,7,3,1,0,0,1,0,2,0,0-3-2-6-2-9ZM1121,1693c0,0,2-1,2-2-2-1-4-3-5-4,0,0,0,0-1,1,1,2,3,3,4,5Z"/>
      <path class="cls-1" d="M1186,171c-15-2-28,7-43,3-3-11-6-23-8-35,2-1,3-2,4-3,14-2,28-4,42-5,15-1,29,0,44,0,6,0,13,0,19,0,8,0,1,1,13,8,3,8,6,15,6,24-14,5-3,2-44,1,0,12,2,25,3,38,0,11,2,23,3,34,1,16,3,32,5,49,0,1,0,1-9,13-7,2-13,3-2,5-2,0-5,0-7,0-9-2-1-5-1-14,2-35,3-7,5-105,0-7,0-13-1-2ZM125,1692c-3-7-5-12-8-16-32-3-61,7-92,8v15c15,2,29-6,44,1,0,23-2,47-2,7,0,24,1,48,5,72,8-1,15-2,22-3,0-14-1-27-4-4-4-17-6-35-4-52,0-11,0-23-1-34,0-1,0-13,11-15,9-2,18-4,29-7ZM1179,1704c-1,0-2,0-29,4,1,0,2,0,29-4ZM1191,1812s0,0,0,0c0-2,0-4,0-5h0v5ZM1144,1689s0,0-1,0c0,1,0,3,1,4,0,0,0,0,1,0,0-1,0-3-1-4Z"/>
      <path class="cls-1" d="M1404,1713c-2-3-3-6-5-9-5-1-12-11-19-2-9,1-15,22-16,36,0,16,0,31,3,47,1,1,8,17,16,22,4,3,9,4,14,3,16-1,27-9,31-25,2-7,4-13,6-2,3-8,6-1,15-1,19,1,21,5,19,24-1,9-3,17-8,25-16,29-48,44-8,36-9-2-15-6-21-12-3-3-6-5-9-8-4-5-9-1-11-15-5-16-11-31-1-49,2-23,6-45,2-64,6-8,12-15,18-22,4-5,1-7,16-7,8,0,16-1,24,0,14,3,19,15,24,27,2,4,0,7-4,9-7,5-15,1-23,15ZM1455,1767c-3,0-5,0-7-1-6-2-9,0-11,6-1,4-3,8-4,12-7,21-16,29-38,31-11,1-18-3-24-12-9-13-12-27-13-42-1-19,3-36,1-53,3-7,7-13,14-17,8-5,13-4,2,2,3,2,5,5,8,8,5-4,1-8,15-12-3-4-7-7-7-1,0-6-4-9-9-11-7-3-15-4-22,0-6,3-12,5-17,8-3,2-7,4-9,7-9,12-16,26-17,42,0,1,0,21,0,31,0,12,0,23,0,35,2,18,14,33,3,4,3,14,71,0,79-38,2-8,5-15,2-24ZM134,1725c0,0-2,0-2,0-2,18-7,35,0,53,0-18,1-35,2-53ZM1444,1759c0,0,0,1,0,2,3,0,6,0,9,1,9,0,1,3,9,11-1,6-2,12-3,17,3-4,4-9,5-13,2-15-2-2-17-19,0,0-1,0-2,0Z"/>
      <path class="cls-1" d="M853,1788c0-9,2-16,5-24,3-7,4-15,6-22,2-7,5-14,8-22,4-11,14-16,22-22,2-1,6-2,9,0,2,7,36,18,41,4,0,4,2,8,4,11,6,12,6,26,8,39,2,17-5,32-13,46-6,11-18,17-3,21,0,0-1,0-2,0-15-2-3-4-42-14-6-5-9-11-1-19-1-11-3-22-5-34ZM862,1785c1,14,3,28,9,41,9,17,23,23,39,18,16-4,28-15,33-31,7-24,5-47-4-7-5-11-9-23-21-31-12-9-25-8-33,4-15,21-19,45-22,69Z"/>
      <path class="cls-1" d="M1267,1807c2-37,5-74,7-111,0-6,0-13,0-19,0-9,2-11,11-12,4,0,9,0,13,0,6,0,11,4,12,11,0,2,0,4,0,6-2,37,0,74-2,112,0,1,0,2,0,3,0,4,0,7,0,11,0,4-3,7-7,7-8,0-16,1-24,1-7,0-11-4-11-11,0-8,1-15,2-23,0,0,0,0,0,0ZM1299,1669c-18-2-19-1-19,16,0,18,0,37-1,55-1,27-3,53-5,8,0,14,2,16,16,15,7,0,9-3,1-1,0-22,2-44,2-66,0-16,0-31,0-47,1-14,0-28-4-43ZM1273,1789s0,0,0,0c0-3,0-5,0-8,0,0,0,0,0,0v8Z"/>
      <path class="cls-1" d="M1254,1974c12-8,23-9,35-5,12,5,15,21,5,29-5,4-1,6-16,8-3,1-6,2-11,3,0,4,2,8,3,12,0,3,3,7-2,8-4,1-5-4-6-7-1-4-2-8-4-13-1,2-2,3-2,4-3,13-12,2-25,21-3,0-5,0-8,0-12,0-2-5-24-14-5-13-3-25,6-32,6-5,13-9,21-12,8-3,14,0,2,7,3,4,6,7,1,12,0-8-1-15-2-21ZM1213,2002c0,9,3,16,8,21,3,3,6,3,1,2,16-6,2-2,9-33-4-5-1-1-17-7-7,3-8,1-1,16,0,0,0,0,0,0ZM1265,2001c12,1,21-3,25-11,2-4,2-7,0-1-5-7-16-9-24-5-3,2-5,4-4,8,1,6,3,12,4,18ZM1206,2003c-5,11-2,21,7,21-2-7-5-14-7-21ZM1248,2023c6-7,4-13,4-18,0,5-2,1-4,18Z"/>
      <path class="cls-1" d="M977,1955c-3,2-6,3-9,5-7-13-6-28-14-41-6,5-8,11-1,16-1,4-2,8-3,11-2,5-6,5-9,2-2-2-4-5-6-8-4-6-8-11-13-17-5,1-7,27-4,38-7,3-9,2-9-4,0-11,0-22,2-33,0-4,0-7,1-11,1-5,5-7,1-4,3,2,5,4,7,7,5,6,1,13,15,19,6-5,7-12,9-18,2-4,3-7,5-11,2-4,6-5,9-2,3,4,6,8,8,13,2,6,4,12,5,18,2,6,4,11,6,18Z"/>
      <path class="cls-1" d="M915,2031c0-12,4-16,16-19,9-2,18-2,26,1,21,7,28,27,15,45-8,12-21,18-35,2-7,1-12-2-14-1-3-12-6-25-8-38ZM943,2022c-4,0-7,0-1,1-4,1-8,3-8,8,2,11,4,23,6,34,0,3,3,5,6,5,15,0,27-9,3-23,3-17-2-24-2-25-2,0-3,0-5,0ZM924,2021c8-1,15-3,23-4-9-4-16,0-23,4Z"/>
      <path class="cls-1" d="M1044,1966c-1-3-2-6-3-8-2-12-5-24-7-36,0-2-1-5-1-7,0-7,2-9,9-9,5,0,1,0,15,0,14,2,27,14,28,27,1,9-3,16-11,21-5,3-1,5-15,7-4,2-9,3-15,5ZM1048,195c1-1,17-7,22-14,3-4,2-1-1-14-5-7-19-9-27-5,2,11,4,22,6,33Z"/>
      <path class="cls-1" d="M1318,2031c-5,0-5-2-6-4-5-2-6-39-3-59,0-4,3-5,7-3,9,5,17,1,23,19,1,2,4,3,7,5,5-13,7-26,13-38,5,6,1,9,11,17,0,12,3,24,4,36,0,4,0,9,2,13,0,3,0,6-3,7-4,0-4-3-4-5-2-13-3-26-5-38,0-2-1-5-2-8-9,7-5,2-16,26-8-7-16-14-25-22-5,6-5,12-5,18,0,7,0,13,0,2,0,6,2,12,3,18Z"/>
      <path class="cls-1" d="M1442,1952c15,12,29,26,48,34-1-13-3-24-6-36,0-2-2-4-2-7,0-2,0-3,2-7,2,3,3,4,4,6,4,15,8,3,12,45,2,5,0,9-4,13-4,0-9-1-14-3-3,0-6-3-8-5-9-8-18-17-29-25,2,1,5,2,7,31,0,3,1,6,1,9,0,1-2,3-4,4,0,0-2-1-4-2,0,0,0-1,0-2-4-17-7-34-5-52,0,0,0-1,2-3ZM1473,1983c0,0,0,1-1,2,4,4,7,9,16,9-6-5-1-8-14-11Z"/>
      <path class="cls-1" d="M1016,1916c-6,0-11,1-16,2-8,2-8,2-7,1,0,2,0,4,1,7,6,0,13-1,19-2,0,7-4,6-7,7-3,1-7,2-1,3,0,1,3,12,12,11,4,0,8,0,12,0,2,0,4,3,4,4,0,2-2,4-4,5-7,2-15,3-22,5-5,1-8,0-9-5-3-15-6-29-9-44,0-4,0-7,5-9,9-3,17-5,26-7,1,0,4,2,5,3,0,2,0,5,0,9Z"/>
      <path class="cls-1" d="M1141,1987c0,7-4,7-8,7-9,0-18,2-27,3-1,0-2,0-5,2,0,7,1,14,2,22,1,0,18-2,28-2,0,8-7,5-1,6-4,2-8,3-13,4-1,7,0,13,3,19,1,0,18-3,27-6,2,0,5-2,6,0,2,3,0,5-3,6-9,3-18,6-27,8-6,2-1,0-13-6-2-5-4-11-5-17-2-1-3-2-4-31,0-4,0-8,5-9,13-3,27-5,4-7,1,0,2,0,4,0Z"/>
      <path class="cls-1" d="M1032,2055c-1,7-5,1-1,11-8,2-17,3-26,4-5,0-8-2-9-7,0-5-1-11-2-16-1-7-2-14-4-22-2-9,0-14,7-19,1-6,21-7,32-4,0,0,0,1,1,2-2,0-3,2-5,2-6,1-12,2-19,4-5,0-7,4-7,9,0,5,0,9,1,14,11,1,2-3,3-5,1,5-1,7-5,8-7,2-15,5-23,7,0,3,0,7,1,1,1,5,4,7,1,6,7-1,14-3,21-5,1,0,2,0,5,0Z"/>
      <path class="cls-1" d="M1392,1986c11-3,2-2,3,0,0,0,0,2,0,3-9,3-19,5-29,8,0,3,0,6,0,9,2,7,2,8,1,7,6,0,12-3,18-4,4,0,8,0,12,0,0,0,2,2,2,3,0,0-1,3-2,3-12,2-25,4-38,5-2,0-6-2-7-4-5-13-12-25-1-4,0-12,4-16,15-19,8-2,15-4,23-6,5-1,5-1,6,6-8,1-16,3-24,4-11,2-11,3-1,14,0,3,0,5,2,8,0,1,1,2,2,5Z"/>
      <path class="cls-1" d="M106,2061c-11-18-21-36-31-54,6-3,7-3,1,3,5,8,9,16,14,24,2,4,6,7,1,12,4-2,8-38,12-56,5,2,5,6,5,1,0,14-2,28-3,43,0,9-5,16-14,18,0,0-2,0-4,1Z"/>
      <path class="cls-1" d="M1124,1961c0-3-2-5-1-7,5-2,1-4,19-58,5,0,6,3,8,5,7,15,14,31,2,47,0,2,0,5,0,8-6,0-7-4-8-8-1-4-2-8-7-9-7-1-13-3-19,0-2,1-2,4-3,7-2,5-3,1-8,15ZM1156,1928c-4-8-7-14-1-2,0,0-2,0-2,0-1,7-6,13-4,21,5,0,1-1,17-2Z"/>
      <path class="cls-1" d="M116,1985c4,17,7,35,11,52,1,4,18-4,27-4,2,4,0,6-2,7-9,3-19,5-28,7,0,0-2,0-2,0-4-16-7-32-11-48-1-5,0-9,2-13,0,0,2,0,2,0Z"/>
      <path class="cls-1" d="M1095,1908c3,0,5-1,7-2,0,0,2,1,2,2,3,16,8,31,1,48,0,1,0,3,0,4,0,3-3,4-5,3-3-2-6-6-7-9-3-15-5-29-7-45Z"/>
      <path class="cls-1" d="M592,1904c4,6,4,1-1,13-3,2-6,4-1,5-26,6-53,3-71-21-5-7-7-14-8-22-2-4,29-6,56-61,22-1,38,16,44,33,2,6,1,12-2,17-7,11-16,18-29,21-1,2-17-2-22-1-4-6-4-14,0-2,5-6,11-8,19-7,7,1,8,7,3,15-2-2-3-4-5-6-2-1-4-3-6-3-2,0-5,3-6,5-3,9,4,18,14,18,19,0,32-24,22-41-6-11-16-15-28-16-25-1-49,18-51,43,0,1,1,19,9,25,0,0,0,0,0,0,11,16,28,19,46,19,5,0,1-2,15-4,4-1,7-3,11-5Z"/>
      <path class="cls-1" d="M705,705c12-8,26-1,41-1,5,0,12,3,16,6,6,4,6,12,2,18-3,4-6,8-1,13,9,2,13,6,16,13,5,17-5,34-24,35-7,0-15,0-22-1-6,0-9-4-1-9-2-12-4-24-6-36-1-9-2-18-3-29ZM751,717c-5-7-9-14-19-11-8,3-13,6-13,15,0,14,2,28,6,41,0,3,3,5,4,8,1,0,18-3,25-8,7-5,7-12-2-15-5-2-1-1-16-2-3,0-6,0-9,0-2-6,0-9,4-13,6-5,12-1,19-16Z"/>
      <path class="cls-1" d="M1347,717c0-2,0-4,0-7,0-11-2-23-3-34,0-7,0-7,9-1,0,4,2,8,3,12,2,17,4,35,6,52,0,4,0,9,0,14-9,1-15-3-2-8-9-8-18-17-26-26-2-2-2-4-5-5-3,8,0,15,1,22,2,1,5,19,8,29-3,1-4,2-6,3-7,2-8,0-9-6-2-19-3-37-8-55-1-4-1-9-1-14,0-2,1-6,2-6,2,0,5,0,7,2,13,13,26,25,39,38h2Z"/>
      <path class="cls-1" d="M1042,689c0,7,0,12,0,17,0,5,1,1,2,15,8,0,14-2,22-3-1-8-2-15-3-22-2-11,1-14,12-11,0,8,2,16,3,24,3,16,6,32,8,48,1,7-1,8-12,8-4-11-5-23-7-36-7,0-13,2-2,3,0,3,0,6,0,9,0,7,2,14,3,21,0,3-1,7-3,9-5,4-1,2-12-5-2-7-3-15-4-23-1-11-2-21-4-32,0-3,0-7-1-1-2-8,0-9,7-11,2,0,4,0,9-1Z"/>
      <path class="cls-1" d="M1431,682q-1,1-13-6c-5-14-15-15-24-3-5,7-9,15-8,24,0,3,0,5,0,8-1,13,5,23,15,3,3,2,8,2,12,2,12-1,2-1,2-22,0-6-3-1-9-9-8,0-16,2-25,4-4-7-4-9,2-1,8-2,17-4,25-4,9,0,13,3,15,13,0,2,0,4,1,6,3,21-15,39-36,34-13-3-23-1-28-23-7-17-5-34,1-51,4-1,24-2,35-17,2,0,4,1,5,3,4,7,9,14,9,23Z"/>
      <path class="cls-1" d="M831,763c-7,3-9,0-11-3-1-4-2-8-3-12-2-7-5-9-13-8-3,0-5,0-8,0-6,1-8,4-9,1,0,6,0,12,1,18,0,4,0,4-4,9-1-2-3-3-3-4-4-16-7-31-6-47,0-8,3-16,6-23,6-12,18-13,26-2,2,3,4,5,5,9,6,18,11,35,17,54ZM809,728c-4-8-7-15-11-22-11,5-14,13-1,27,6-1,13-3,21-5Z"/>
      <path class="cls-1" d="M1086,726c0-12,4-23,13-31,1-9,2-8,26,4,5,9,9,19,1,3,1,13-9,25-21,3-6,2-11,0-15-3-1-7-14-17-14-3ZM1122,726s0,0,1,0c-2-5-4-11-7-16-4-8-11-8-15,0-4,8-5,16-3,24,1,5,8,9,13,9,5,0,8-3,9-1,0-2,0-5,0-7Z"/>
      <path class="cls-1" d="M869,71c-2-4-4-8-6-13-6-2-11,0-16,4-4,5-4,7,0,12,5,8,13,12,22,15,9,2,13,8,18,15,4,5,2,15-3,19-8,9-22,11-33,6-9-5-15-17-13-29,5-2,6,2,7,5,2,6,5,11,11,14,5,3,9,3,14,1,4-2,6-5,6-9,0-5,0-1-6-11-5-2-11-4-16-5-13-4-22-17-2-3,0-2,2-5,4-7,5-4,11-8,17-9,9-3,21,8,21,17,0,2-2,4-3,6,0,0-2,0-3,0Z"/>
      <path class="cls-1" d="M1212,702c-6,0-1,1-14,2-6,0-9-2-9-9,0-5,0-7,7-7,16-2,33-4,5-6,0,0,2,0,3,0,4,0,8,0,8,5,0,5-3,9-7,1-7,1-14,2-23,3,0,4,0,7,0,11,2,14,5,28,7,42,0,4,0,7-5,8-4,1-7,0-8-5-2-14-4-28-7-41,0-4-1-8-2-13Z"/>
      <path class="cls-1" d="M952,752v-12c4,0,9-2,15-3-1,12,0,22-9,3,0,0-1,2-2,2-11,9-35,2-39-12-4-15-6-3-1-45,3-9,8-15,16-18,8-3,16,0,22,7,7,7,6,11-3,14-1,0-3,0-5,1-1-2-3-5-4-7-3-5-6-7-11-2-3,3-7,8-8,12-3,12-4,24,5,34,6,7,1,8,18,4,2-1,4-3,7-4Z"/>
      <path class="cls-1" d="M1145,736c1,12,11,12,2,13,4,0,7,0,9-5,2-4,0-8-3-11-3-2-7-3-11-5-5-2-1-3-15-6-1-6-12-17-5-26,7-1,19-15,29-11,6,2,9,6,8,12,0,2-2,4-4,5-2,0-5,0-6-2-2-2-2-5-3-7-6-2-1,2-13,5-6,6-4,11,4,14,1,3,19,8,26,16,9,11,5,25-8,3-13,5-23,2-31-7-5-6-4-12,4-17Z"/>
      <path class="cls-1" d="M1279,76c-4-6-14-66-12-78,2,0,4-2,6-2,5,0,7,1,7,6,0,9,2,19,3,28,2,11,3,21,5,31q2,11-1,15Z"/>
      <path class="cls-1" d="M901,77c0-3-2-5-3-8-3-22-6-45-1-67,0,0,0-2,0-3,0-3,0-6,4-7,4,0,4,3,4,5,3,22,7,44,1,66,0,4-1,8-2,12-1,0-2,0-4,0Z"/>
      <path class="cls-1" d="M572,751c-2,0-3-1-3-2-3-4-6-3-9,0-3,3-3,6-1,1,3,5,9,7,15,5,13-3,2-14,18-27-3-18-7-21-25-17-11,3-19,9-26,18-12,17-6,33,7,45,2,2,7,3,1,3,5,0,9,0,14,0,3,0,6,0,9,0,0,0,0,2,0,2-2,1-3,3-5,3-17,5-35,0-45-15-9-13-9-24,1-42,9-15,24-22,4-25,1-2,22,2,27,19,6,2-6,38-22,44-13,4-27-3-29-15-2-14,9-19,19-18,4,0,5,3,4,1Z"/>
      <path class="cls-1" d="M1134,1335c0-5,0-8,0-12,2-26,5-52,6-77,0-9-1-18-2-27,0-2-1-3-2-5-12,3-13,16-24,22,0-4-1-6,0-8,3-12,11-19,21-26,6-4,12-1,14,6,3,1,5,2,6,3,0,1,0,2,0,31,7-2,13-4,19-6,0-12-2-23-2-35,0-4,0-7,0-11,0-8,1-1,8-11,3,0,6-1,9-1,4,5,4,1,3,15-1,21-2,41-2,62,2-5,4-11,6-16,7-13,22-17,32-1,2,1,4,3,5,6,7,17,6,33-7,47-9,1-27,5-33-8-1-3-2-5-4-8,0,7,0,14,0,2,1,7,0,14-3,2-9-3-9-4-8-12,2-16,0-31,0-48-8,2-15,4-21,6-3,1-4,4-3,7,0,1,1,19,2,29,0,7,0,12-8,13-2,0-4,2-8,4ZM1226,1283c0-8-1-13-5-17-6-6-11-6-16,0-5,6-7,13-7,2,0,6,0,11,5,15,6,7,13,7,18,0,4-5,6-12,6-18Z"/>
      <path class="cls-1" d="M725,1346c0-3-3-5-3-8-3-33-11-65-1-98,0-11,1-13,11-16,5-2,1-3,14-4,13-1,24,3,31,15,3,6,6,13,8,19,3,1-2,18-9,25-9,9-21,13-32,17-8,3-8,2-7,11,0,9,1,18,2,27,0,4-1,8-2,11-1,0-2,0-3,0ZM727,1287c13-2,23-6,32-13,7-5,8-11,7-18-4-2-17-27-36-2-4,2-7,4-6,9,1,14,2,28,3,43Z"/>
      <path class="cls-1" d="M1439,1253c-5,0-8,0-12-1-11-3-18-1-19-22-2-12,3-22,13-28,7-4,14-8,22-3,3,2,6,6,7,9,2,5,3,1,2,16,0,18-1,35-2,53,0,5-3,11-5,16-3,6-8,9-15,7-6-1-11-5-12-12,0-4-1-7-1-11,0-4,1-7,7-9,2,5,4,1,6,16,9-9,1-2,1-32ZM1442,1212c-4,0-8,0-11,1-8,2-13,9-12,16,2,7,12,13,19,11,2,0,4-2,4-4,0-8,3-16,0-24Z"/>
      <path class="cls-1" d="M1105,1261c-7,16-13,31-2,45-7,13-17,26-3,33-6,3-11,4-17,0-6-4-6-5-1-11,1,4,16,4,28-19-13-4-23-11-26-25,5-4,8-3,1,2,3,6,7,1,13,11,7,2,9,0,12-6,5-11,1-22,14-33,6-1,11,0,17,2Z"/>
      <path class="cls-1" d="M877,1336c-6-2-9-5-9-11,0-9-2-18-3-27,0-8,0-9,7-12,1,0,3-2,4-3,7-6,13-7,21-1,2,1,4,3,8,6,2-2,3-5,5-7,1-1,22-7,28,7,3,8,2,34,0,43-5,0-6-3-6-7,0-9-1-17-2-26,0-3-1-6-3-1-5,3-1,5-13,9-3,4-3,9-5,14-5,0-7-3-8-7-1-4-3-8-5-12-2-3-4-5-8-4-4,0-5,3-5,6-2,1-3,2,0,29,3,8,3,8-5,14Z"/>
      <path class="cls-1" d="M1279,1253c8,0,15-1,23-2v-3c9-3,11-2,11,6,0,7,3,12,7,17,2,3,4,4,8,3,9-1,11,2,8,12-7,0-15,2-22,3-2,17,4,34,2,52-1,0-11-2-11-11,0-11,0-21-1-32,0-2,0-5,0-8-5,0-1,0-15,0-9,3-13,0-1-11ZM132,1249c-3-4-4-7-7-1q0,9,7,1Z"/>
      <path class="cls-1" d="M139,1258c-2,3-4,5-4,7-3,9-6,19-5,29,0,7,0,13-9,17,0-5-2-9-2-13-1-1-1-19-3-29-2-11-2-11,9-14,2,0,4-3,5-4,8-7,16-6,22,3,3,4,5,9,5,14,0,8,0,17,0,25,0,4-2,7-8,6-3-9-4-18-4-28,0-8,0-8-6-14Z"/>
      <path class="cls-1" d="M1271,1261c-2,0-3-1-4-2-2-5-6-5-1-3-4,2-6,6-6,11,0,5,2,8,7,8,12,2,18,1,2,22,2,1-4,18-14,2-18,2-28-8-28-27,9-1,1,0,12,7,2,9,11,13,18,8,6-3,6-8,1-12-4-3-9-6-14-8-16-8-13-27-4-34,2-2,6-3,9-5,4-2,8-2,11,2,3,4,4,8,1,13Z"/>
      <path class="cls-1" d="M996,1317c-1,0-2,2-3,2-7-2-13,0-2,0-17,0-27-13-22-29,2-7,7-14,12-19,9-1,23-5,27,8,1,4,2,9,3,14,1,8,2,16,3,25ZM978,1272c-12,3-14,13-17,22-1,4-1,8,3,11,5,3,1,4,16,0,4-2,6-6,5-1,0-8-1-16-7-23Z"/>
      <path class="cls-1" d="M1005,1322c-6-7-11-31-11-47,5-4,11-9,16-13,5-5,11-5,18-5,8,0,12,5,14,17-3,3-5,0-7-2-9-9-11-8-22-2-7,3-9,9-8,16,2,1,4,2,6,29,1,5-1,7-6,8Z"/>
      <path class="cls-1" d="M785,1334c-1-3-3-6-4-1-1-7-2-13-3-2-1-14,0-17,12-23,3-2,7-3,11-3,9-1,19,8,18,17,0,2-2,3-4,7-2-4-3-7-4-9-3-6-7-9-11-7-6,1-12,8-12,13,0,3,0,7,1,1,1,5,2,9,4,13q2,9-8,13Z"/>
      <path class="cls-1" d="M1349,1316c0-3-1-6-1-8,0-11-1-22-2-34,0-5-1-1,3-14,1-1,4-3,6-2,1,0,3,3,3,5,0,15,2,3,2,45,0,7-1,8-11,9Z"/>
      <path class="cls-1" d="M848,1279c2,14,4,28,6,42,0,2,0,5-2,6,0,1-3,3-5,3-2,0-3-2-5-4,0,0,0-1,0-2-1-12-3-24-4-36,0-8,0-9,1-1Z"/>
      <path class="cls-1" d="M577,1335c1,3,2,7,4,12-7,4-13,4-2,4-18,0-32-11-46-21-11-8-13-25-8-4,4-1,9-19,16-27,1-11,23-16,37-19,15-3,33,7,41,21,8,13,7,27,0,4-5,1-17,16-29,15-1-1-18-4-24-12-5-8-4-16,0-24,4-7,1-11,18-12,8,0,14,5,13,13,0,4-2,8-8,8,0-2-2-4-3-6-5,0-8,4-1,8-2,4-1,8,3,11,4,3,9,5,15,4,1-2,18-13,17-23-2-24-2-31-4-27-19,5-36,27-35,47,0,4,1,8,3,11,9,1,19,19,34,19,6,0,12,0,2,0Z"/>
      <path class="cls-1" d="M1634,336c-12-12-6-27-1-41-15-2-3,4-45,6,2,12,3,23,5,34,1,7,0,8-6,9-5,1-11,3-17,6,0-3-2-6-2-9-2-23-4-47-6-71,0-7,0-14,0-21,0-2,2-5,4-6,5-2,1-3,16-5,1,15,2,28,3,41,15,0,29-3,42-6,4,0,5-4,5-8,0-8-1-16-1-24,0-1,0-1,1-13,2,0,4-1,6-2,0,0,2,0,4,0,4,9,6,19,7,29,1,18,2,35,3,53,0,5,1,1,2,15,0,5,0,8-6,9-4,0-7,2-11,3Z"/>
      <path class="cls-1" d="M1457,305c3,0,6,0,9,0,4,0,7,2,6,7-2,6,1,9,5,13,2,2,5,4,7,6,5,4,11,6,18,4,7-2,13-4,14-12,1-8,0-16-7-2-4-3-9-5-13-7-5-3-1-5-15-7-14-8-17-19-11-34,5-12,14-2,27-23,17-3,36,15,36,32,0,6-2,7-12,1-2-5-4-1-6-15-3-7-8-11-15-1-7,1-14,8-14,14,0,4,2,7,6,9,7,4,15,7,22,12,13,11,21,25,21,42,0,11-11,21-22,23-7,0-13,2-2,1-5,0-11-2-16-5-13-9-21-2-2-38Z"/>
      <path class="cls-1" d="M1701,324c-11,0-19-3-25-9-18-19-22-35-13-57,7-19,31-3,51-26,12,3,2,9,26,2,2,4,4,8,6,11,7,15,4,28-4,42-4,7-11,11-18,13-8,3-17,4-23,6ZM1706,249c-8,0-17,2-21,1-4,9-6,19-6,29,0,7,3,12,9,16,13,9,4,2,47-12,0-1,0-2,1-4,7-21-9-4-3-4Z"/>
      <path class="cls-1" d="M1782,287c1,9,2,17,3,25,0,2,0,3,0,5,0,4-4,9-8,9-4,0-7-3-8-7,0-1,0-3,0-4,0-2-4-38-9-57,0-4,0-9-2-13-2-9,2-13,1-17,16-9,33-9,5-4,8,2,17,7,19,17,2,11,0,21-1,29-9,7-19,12-3,14-5,0-1,2-15,3ZM1778,273c18,0,3-7,4-19,8-1,4-18-9-19-9,0-18,2-28,3-5,0-6,4-6,8,0,9,1,18,2,28Z"/>
      <path class="cls-1" d="M157,214c2,2,2,3,3,4,11,6,22,12,33,18,3,2,8,3,6,7-2,4-7,2-1,0-16-9-33-18-49-27-4-2-7-6-11-9,11-12,55-41,68-44,2,7,2,8-4,12-12,7-24,14-36,21-1,0-2,2-3,4,81-7,162-14,245-21,2,8,2,18,1,27,0,5-5,4-9,4-11,0-23,0-34-1-18,0-37,0-55,0-26,0-52,0-78,0-21,0-41,2-62,2-2,0-4,0-6,2Z"/>
      <path class="cls-2" d="M746,1709c1,4,3,9,3,13,3,28,4,56,3,85,0,6,0,11,1,17,0,5,4,8,9,7,12,0,23-2,35-3,6,0,9-5,9-11-1-36-3-72-4-109,0-12,0-12,12-16,2,0,5-1,8-2,0,4,1,8,1,11,0,16,0,32,0,48,0,11,0,22,0,33,0,19,1,38,1,57,0,34,0,68,0,102,0,23,2,46,4,7,0,3,0,6,0,1-5,0-1,0-16,1-1-6-3-11-3-16,0-7-2-15-2-22-2-41-4-82-6-124,0-3,0-5,0-8-1-4-4-7-9-6-12,1-24,3-37,4-6,0-8,3-9,9,0,14-2,29-3,43-1,26-2,53-3,79,0,12,0,23,0,35,0,8-1,9-11,11,0-4-2-8-1-11,2-43,5-86,7-129,0-19,0-38-1-57,0-2,0-3,0-5,0-29,0-58,0-87,0-7,2-15,3-22,0-5,4-9,11-7Z"/>
      <path class="cls-2" d="M758,177c-2-21-3-42-5-63,1,0,3,1,3,2,5,2,5,41,2,61Z"/>
      <path class="cls-2" d="M743,2017v-28c4,13,4,2,0,28Z"/>
      <path class="cls-2" d="M827,1954v-28s0,0,1,0v28s0,0-1,0Z"/>
      <path class="cls-2" d="M829,1966c0,7,1,14,2,21,0,0-1,0-2,0,0-7-1-14-2-2,0,0,1,0,2,0Z"/>
      <path class="cls-2" d="M831,2007c0-2,0-3,0-5h0v5s0,0,0,0Z"/>
      <path class="cls-2" d="M104,1849c-1-5-3-9-3-13-1-14-2-27-3-41-1-3-3-59-4-89,0-4,0-8,0-13,12-2,13-2,14,1,1,31,3,62,4,93,0,12,2,24,3,36,0,4,0,8,0,12-4,1-7,3-12,5Z"/>
      <path class="cls-2" d="M1015,1827c0,1,1,3,1,4,1,13-2,15-14,15-9,0-18,0-27,0-4-7-4-15-4-23-2-35-4-7-6-105,0-4,0-8,0-12,0-5,2-8,8-8,0,0,1,2,2,3,3,2,5,4,5,61,0,19,0,37,0,56,0,2,0,4,0,6,1,8,5,11,13,8,6-2,11-4,17-5,2,0,3,0,5,0Z"/>
      <path class="cls-2" d="M1029,1774c1,25,3,5,4,75,0,0-1,0-2,0,0,0,0,0,0,0-1-12-3-25-3-37,0-12,0-25,0-37h1Z"/>
      <path class="cls-2" d="M1027,1729c0-2-2-4-2-6,0-9,0-17,0-26,4,1,1,21,3,32h0Z"/>
      <path class="cls-2" d="M1027,1729v35s0,0,0,0c0-12,0-24,0-35,0,0,0,0,0,0Z"/>
      <path class="cls-2" d="M957,1723v-5s0,0,0,0v5s0,0,0,0Z"/>
      <path class="cls-2" d="M98,1696v4s0,0,0,0c0-1,0-3,0-4,0,0,0,0,1,0Z"/>
      <path class="cls-2" d="M983,1745v3c0,0,0-2,0-3,0,0,0,0,0,0Z"/>
      <path class="cls-2" d="M986,1825c1,0,2,2,4,3,0,0,0,0,0,1-1,0-2-2-4-2,0,0,0,0,0-1Z"/>
      <path class="cls-2" d="M1084,1799c-1,8,2,17,7,25,6,1,2,16,31,12,7-2,15-11,16-19,2-13-3-24-1-34-11-15-23-29-36-43-7-8-13-15-13-26,0-6,1-12,3-17,6-16,27-13,33-2,2,3,4,7,5,11,0,1,0,3-1,4,0,0-3,0-4,0-2-1-4-3-7-4-8-5-14-2-16,7-2,1,1,19,9,25,7,6,14,11,21,16,11,8,18,19,23,31,4,1,7,2,7,31,0,7-2,12-7,16-7,5-14,1-21,15,0,0-1,0-2,0-12,5-37-4-43-15-7-12-1-25-1-39,0-2,0-5,0-7,0-4,4-6,7-5,4,0,5,3,5,6,0,4,0,7,0,12Z"/>
      <path class="cls-2" d="M1095,1682c4-4,8-3,12,0h-12Z"/>
      <path class="cls-2" d="M1162,1796c0,3,2,6,2,9,0,0-1,0-2,0,0-3-2-6-3-9h3Z"/>
      <path class="cls-2" d="M1121,1693c-1-2-3-3-4-5,0,0,0,0,1-1,2,1,4,3,5,4,0,0-2,1-2,2Z"/>
      <path class="cls-2" d="M125,1692c-11,3-2,5-29,7-1,2-12,5-11,15,0,11,2,23,1,34-1,18,0,35,4,52,3,13,5,25,4,4-7,0-14,2-22,3-4-25-5-48-5-72,0-23,0-47,2-7-15-7-29,0-44-1v-15c31,0,6-12,92-8,2,4,4,9,8,16Z"/>
      <path class="cls-2" d="M1179,1704c-9,3-19,5-29,4,9-4,19-4,29-4Z"/>
      <path class="cls-2" d="M1191,1812v-5h0c0,2,0,4,0,6,0,0,0,0,0,0Z"/>
      <path class="cls-2" d="M1144,1689c0,1,0,3,1,4,0,0,0,0-1,0,0-1,0-3-1-4,0,0,0,0,1,0Z"/>
      <path class="cls-2" d="M1455,1767c3,9,0,17-2,24-7,37-49,52-79,38-16-7-27-22-3-4-1-11,0-23,0-35,0-1,0-21,0-31,1-16,8-3,17-42,2-3,5-5,9-7,6-3,11-5,17-8,8-4,15-3,22,0,4,2,8,5,9,11,0,3,4,6,7,1-5,4-1,8-15,12-3-3-6-5-8-8-7-6-12-6-2-2-6,4-11,1-14,17-8,17-11,35-1,53,0,15,4,3,13,42,6,9,13,13,24,12,22-3,31-1,38-31,1-4,3-8,4-12,2-6,5-7,11-6,2,0,5,0,7,1Z"/>
      <path class="cls-2" d="M134,1725c0,18-1,35-2,53-7-18-3-35,0-53,0,0,2,0,2,0Z"/>
      <path class="cls-2" d="M1444,1759c0,0,1,0,2,0,16,0,2,4,17,19,0,5-2,9-5,13,1-6,2-12,3-17,2-8,0-11-9-11-3,0-6,0-9-1,0,0,0-1,0-2Z"/>
      <path class="cls-2" d="M862,1785c3-24,7-49,22-69,9-12,21-12,33-4,11,8,16,19,21,31,9,23,11,46,4,7-5,16-17,27-33,31-16,5-3-1-39-18-7-13-8-27-9-41Z"/>
      <path class="cls-2" d="M1299,1669c4,14,5,28,4,43-1,16,0,31,0,47,0,22-1,44-2,66,0,7-2,9-1,1-14,1-17,0-16-15,2-27,3-53,5-8,0-18,0-37,1-55,0-17,1-17,19-16Z"/>
      <path class="cls-2" d="M1273,1789v-8s0,0,0,0c0,3,0,5,0,8,0,0,0,0,0,0Z"/>
      <path class="cls-2" d="M1213,2002s0,0,0,0c1-7,3-14,1-16,7-3,13,2,17,7,11,13,7,27-9,33-4,1-7,0-1-2-5-5-8-12-8-21Z"/>
      <path class="cls-2" d="M1265,2001c-1-6-3-12-4-18,0-4,0-6,4-8,8-4,19-2,24,5,2,3,3,7,0,1-4,8-13,12-25,11Z"/>
      <path class="cls-2" d="M1206,2003c2,7,5,14,7,21-8,0-12-1-7-21Z"/>
      <path class="cls-2" d="M1248,2023c2-8,3-14,4-18,0,5,2,11-4,18Z"/>
      <path class="cls-2" d="M943,2022c1,0,3,0,5,0,17,0,23,8,2,25-3,14-15,23-3,23-4,0-6-2-6-5-2-11-4-23-6-34,0-5,4-7,8-8,3-1,7,0,1-1Z"/>
      <path class="cls-2" d="M924,2021c7-5,14-8,23-4-8,1-15,3-23,4Z"/>
      <path class="cls-2" d="M1048,195c-2-11-4-22-6-33,8-4,22-1,27,5,3,4,4,1,1,14-5,7-12,13-22,14Z"/>
      <path class="cls-2" d="M1473,1983c4,3,8,7,14,11-9,0-12-6-16-9,0,0,0-1,1-2Z"/>
      <path class="cls-2" d="M1156,1928c-7,0-12,1-17,2-1-9,3-15,4-21,0,0,2,0,2,0,3,6,6,12,1,2Z"/>
      <path class="cls-2" d="M751,717c-7,6-13,11-19,16-4,3-7,7-4,13,3,0,6,0,9,0,5,0,11,0,16,2,8,3,9,1,2,15-7,5-15,8-25,8-1-2-3-5-4-8-4-13-7-27-6-41,0-9,5-13,13-15,1-3,13,4,19,11Z"/>
      <path class="cls-2" d="M809,728c-8,2-15,3-21,5-3-13,0-22,1-27,3,7,7,14,11,22Z"/>
      <path class="cls-2" d="M1122,726c0,2,0,5,0,7-2,7-4,9-9,1-5,0-12-4-13-9-2-8-2-17,3-24,5-8,11-8,15,0,3,5,5,11,7,16,0,0,0,0-1,0Z"/>
      <path class="cls-2" d="M1226,1283c0,6-2,13-6,18-5,7-12,7-18,0-4-4-5-9-5-15,0-7,3-14,7-2,5-7,1-7,16,0,4,4,5,9,5,17Z"/>
      <path class="cls-2" d="M727,1287c-1-15-2-29-3-43,0-5,2-7,6-9,19-7,32,0,36,2,1,7,0,14-7,18-9,7-19,11-32,13Z"/>
      <path class="cls-2" d="M1442,1212c3,9,1,17,0,24,0,1-3,3-4,4-7,2-17-4-19-11-1-7,4-14,12-16,3,0,6,0,11-1Z"/>
      <path class="cls-2" d="M132,1249q-7-1-7-1c2,4,4,6,7,1Z"/>
      <path class="cls-2" d="M978,1272c6,8,6,16,7,23,0,4,0,8-5,1-6,3-11,2-16,0-4-3-4-7-3-11,3-9,5-19,17-22Z"/>
      <path class="cls-2" d="M1706,249c21,0,37,19,3,4,0,1,0,3-1,4-7,14-34,21-47,12-5-4-9-9-9-16,0-1,2-2,6-29,4-9,13-1,21-1Z"/>
      <path class="cls-2" d="M1778,273c0-1-1-19-2-28,0-4,1-7,6-8,9-1,18-3,28-3,13,0,16,9,9,19-1,12-22,19-4,19Z"/>
    </g>
  </g>
</svg>