<?xml version="1.0" encoding="UTF-8"?>
<svg id="Layer_2" data-name="Layer 2" xmlns="http://www.w3.org/2000/svg" viewBox="0 0 2186 2838">
  <defs>
    <style>
      .cls-1 {
        fill: #000;
      }

      .cls-1, .cls-2 {
        stroke-width: 0px;
      }

      .cls-2 {
        fill: #fff;
      }
    </style>
  </defs>
  <g id="Layer_1-2" data-name="Layer 1">
    <g>
      <path class="cls-1" d="M0,0C19,0,36,0,53,0c26,0,51,1,77,2,12,0,23,0,35,0,19,0,39,2,58,3,48,1,96,3,145,4,16,0,31,0,47-1,35-2,71,0,106,2,13,0,26,0,39,1,32,0,65,2,97,3,32,0,64,0,96,0,29,0,58,0,87,0,58,0,116,0,174,0,12,0,23,0,35,0,39,0,79,2,118,3,36,0,73,2,109,2,28,0,56-1,84-1,15,0,3,1,45,0,24,0,48-2,72-2,4,0,8,0,12,0,22,0,44,0,66,0,15,0,29,0,44,0,42,0,85,0,127,0,2,0,4,4,6,4,23,1,46,1,69,2,23,0,45,0,68,2,11,0,23,1,34,2,11,0,23,0,34-3,12-3,25-3,38-1,6,0,12,0,19,0,2,0,4,1,8,2,0,6,0,11,0,17,0,12,2,25,3,37,0,7,2,14,1,21-2,18,0,35,0,53,1,18,2,36,3,54,0,24,2,48,2,72,0,29,0,57-3,86-2,15,0,31-1,47-1,35-3,71-4,106,0,41-2,81-1,122,0,23,0,45-3,68-4,28-4,56-2,84,2,3,3,59,4,89,1,28,3,55,4,83,0,33,0,67,0,1,0,39,0,77,1,116,0,43,0,86,1,129,0,35,0,71,4,106,0,9,0,19,0,28,0,24,0,49,0,73,0,43-2,85-3,128,0,4-2,8,1,12,2,24,2,48,3,72,0,22,0,44,1,66,0,19,0,37,0,56,0,18,2,35,3,53,0,5,0,11,0,16-3,2-2,4-2,6,0,39-2,78-3,117,0,31,0,63,0,94,0,21,0,42,2,63,0,21,2,43,3,64,1,21,2,43,3,64,1,2,4,4,5,6,0,24,0,47-2,71,0,29-1,58-3,87-1,25-3,5-5,75,0,9,1,18,4,26,0,4,1,7,2,12-15,2-28,3-42,3-22,0-43,0-65,2-29,2-58,6-87,8-24,2-49,2-73,3-27,1-55,3-82,4-12,0-23,0-35,0-32,1-64,3-96,4-11,0-21-2-32-3-4-4-8-5-121-4-2,0-4,3-6,3-22,0-45,0-67,0-14,0-29,0-43,0-17,0-33,0-5,0-51-3-102-3-154-2-38,1-77,0-115,0-2,0-39,0-59,0-46,0-93-2-139-3-37,0-73,0-11,2-3,0-6,0-9-3-7,0-14,0-21,0-52,0-103,1-155,2-44,0-87,0-131-1-32,0-64,0-96,0-19,0-37,0-56,0-43,1-85,3-128,4-15,0-31,1-46,2-5,0-1,2-16,3-4-2-6-6-7-13-3-23,2-47,0-7,0-18-1-35-1-53,1-45,3-91,4-136,0-38,1-76,2-114,0-2,2-39,2-59,0-48,0-95,0-143,0-41-1-81-1-122,0-52,0-105,0-157,0-28,2-57,3-85,2-47,0-94-1-141,0-22-2-44-2-66,0-12-2-25-2-37,0-34,0-67,0-101,0-4,3-81,3-121,0-72,0-143,0-215,0-43,2-86,2-129,0-46,2-93,2-139,0-4,0-79,1-119,1-63,3-126,4-189,0-38,0-76,0-114,0-19-3-39-4-58-1-16-2-33-4-49,0-9-2-17-2-26,0-26,0-52-2-78,0-14-1-29-2-43,0-13,0-25,0-38,1-15-1-3-2-45,0-7,0-15-1-22,0-6,0-13-1-19,0-3,0-5,0-8-2-23-3-46-5-69,0-8,0-16-2-24C5,3,2,21,0,12,0,9,0,5,0,0ZM2153,29c-5,0-9,0-13-2-13-4-27-3-41-1-6,0-12,3-19,3-18,0-36,0-54-2-18,0-35-3-53-2-36,2-73,1-109-4-5,0-1-1-15-1-23,0-46,0-69,0-21,0-41,0-62,0-26,0-52,0-78,0-17,0-33,0-5,0-4-2-79-1-119,0-23,0-47,1-7,1-27,0-54,0-81,0-13,0-25,2-38,2-79-1-157-3-236-4-46,0-93-1-139,0-25,0-51,0-76,0-46,0-93,0-139,0-29,0-59,0-88,0-14,0-27-1-41-2-21,0-41-1-62-1-33,0-66,0-99,0-35,0-7,0-105,0-24,0-49-2-73-2-17,0-33,0-5,0-35-3-7-5-105-3-2,0-4,0-6,0-17,0-35,0-52,0-2,0-5,0-7,0,0,1,0,2,0,3,3,24,6,49,8,73,0,9,2,18,3,27,0,22,5,43,3,65,0,2,0,4,0,6,2,16,4,31,2,47,0,7-1,15-1,22,0,2,0,4,0,6,0,22,0,45,0,67,0,1,2,21,3,31,2,25,4,5,5,75,2,3,3,59,3,89,0,38-2,76-3,114,0,27,0,55-2,82,0,17-2,34-2,51,0,39,0,77-1,116,0,15,0,29,0,44,0,4,0,81,0,121,0,4-2,81-2,121,0,35,0,69,0,104,0,49-2,97-3,146,0,42-2,84-2,126,0,24,1,48,2,72,2,47,4,95,6,142,1,36-2,72-3,108-2,64-2,127-2,191,0,61,2,122,2,183,0,29,0,59,0,88,0,26-2,52-3,78,0,33,0,66-2,99-1,41-4,82-5,123,0,26-1,53,1,79,0,9,0,19-1,29-2,14,0,28,2,43,8,0,15,0,21-1,13,0,27,0,4,0,28,0,57-2,85-3,32,0,64,0,96,0,39,0,78,0,117,0,51,0,101,0,152,0,53,0,107-5,16,0,34,3,67,0,101,0,34,0,69,0,103,0,42,0,85,2,127,2,28,0,56,0,84,0,29,0,57,0,86,0,37,0,75,0,112,0,23,0,45,2,68,2,2,0,41,0,61,0,19,0,37,2,56,1,37-2,74-5,112-4,21,0,42,1,63,3,25,2,5,5,75,4,35-2,7-3,105-4,2,0,4,0,6,0,24-1,49-4,73-4,41,0,82-4,123-7,22-2,43-5,65-6,16-1,31,0,47,0,7,0,14-1,22-2,0-6-2-11-2-17,0-5-1-1,0-15,4-24,7-49,6-74-1-39,0-79,3-118,2-27,0-54-2-81-2-22-4-43-5-65,0-32,0-63-5-95,0-2,0-3,0-5,0-54-2-108,0-162,1-19,0-37,1-56,0-19,0-38,0-57,0-8,0-16,0-24,0-12,2-23,2-35,0-15-2-31-2-46-1-23-4-46-1-69,0-8,1-16,0-24-2-36-3-71-5-107,0-19-3-37-3-56,1-61,3-122,5-183,0-24,0-49,0-73,0-15,0-29,0-44-3-35-4-71-4-106,0-18,0-35,0-53,0-39-2-77-2-116,0-19,0-39,0-58,0-44-1-89-3-133-1-44-4-89-6-133-2-32-5-65,0-97,4-27,6-54,4-81,0-1,0-3,0-4,0-25,1-51,2-76,0-26,0-53,1-79,0-19,1-38,2-57,1-27,2-53,3-8,0-14,2-27,1-41,0-34-2-68-3-102,0-11-1-22-2-33,0-21-1-41-2-62,0-6,0-11-1-17-1-13-2-25-4-38,0-4,0-8-1-12Z"/>
      <path class="cls-1" d="M1217,968c-2-22-4-44-6-66,0-7,0-14,0-21,0-11,6-16,17-17,25-1,5-5,75-9,12-2,25-3,38-5,29-4,57-1,86-13,55-6,11-12,165-17,3-3,6-7,9-1,9,0,18,0,27-2,24-2,48-6,71-7,48-2,96-1,144-17,39-5,78-1,117-15,1-1,2-3,31-3,12,0,21,1,22,22,0,6,2,12,4,18,2,7,6,13,9,2,7,15,4,32,4,47,0,16,2,31,5,47,3,13,2,26,3,4,0,7,0,14,0,21,0,7,0,15,3,22,1,3,1,6,2,1,1,1,1,11-1,13-14,2-29,4-44,5-5,6-101,12-151,17-25,3-51,5-77,7-25,1-5,6-74,8-31,3-62,7-93,1-44,3-87,8-13,13-47,6-93,11-14,17-22,3-44,4-66,6-26,3-53,5-79,8-6,0-11,0-17,0-8,0-12-5-14-12-2-11-4-22-6-32-2-11-3-21-4-32-2-24-4-48-6-72,0,0,2,0,3,0ZM1488,1087c-4,0-8,0-12,0,0,0,0,0,0,1,4,0,8,0,12,0,4,0,7-1,11-2,0,0,0,0,0-1-3,1-7,2-1,3ZM208,785c-8,0-13,1-19,2-23,2-46,4-69,7-29,3-58,6-86,9-38,4-76,8-113,12-47,5-94,12-141,16-39,4-78,6-118,9-26,2-52,5-77,9-18,3-35,7-53,11-32,6-64,11-95,18-27,6-55,12-77,33-5,5-7,9-6,16,2,2,4,4,7,61,5,35,9,69,18,103,3,1,6,13,17,14,26,0,51-2,76-7,6-1,12-2,19-3,33-4,67-7,1-11,39-4,79-8,118-11,22-2,44-4,67-6,14-1,28-3,43-4,13-1,26-3,4-4,16-2,32-4,48-5,34-2,68-3,101-1,45-8,9-13,136-19,27-3,54-5,82-8,1,0,11-2,12-12,0-5,0-1,2-14,5-15,1-31,0-47,0-11-4-22-2-34,0-3,0-6-1-9-7-31-13-63-2-94-2-7-4-15-7-22ZM1414,854s0,0,0-1c-3,0-6,0-8,0-23,2-46,4-68,7-11,1-22,4-33,7-19,5-38,11-57,17-6,2-11,3-17,6-8,4-11,13-6,21,8-5,16-11,24-16,21-1,43-17,65-21,25-5,5-9,74-14,9-2,18-4,27-6ZM1248,1111c-12-19-15-38-18-58-3-2-5-4-8-6,0,4-1,9,0,13,1,11,2,21,4,32,3,2,7,4,1,6,1,7,4,12,13,13ZM1219,885c0,0,0,1,0,2,12-3,23-7,35-1,12-4,24-7,36-1v-2c-26,2-49,1-72,21ZM1232,102c0,22,2,44,12,65-4-22-8-43-12-65ZM2105,845c0-12-3-24-12-36,0,14,7,25,12,36ZM1668,822c0,0,0-1,0-2-5,0-1,1-16,2-5,0-1,2-15,3,0,0,0,1,0,2,1-1,21-3,31-4ZM2112,1009c4-11,4-13,0-22v22ZM2104,853c0,0-2,0-3,0,1,5,3,1,4,15,0,0,1,0,2,0l-3-15ZM2118,1018c1,0,2,0,3,0,0-3,0-5,0-8,0,0-1,0-2,0,0,3,0,6,0,8ZM1222,963h0c0,2,0,4,0,6,0-2,0-4,0-6ZM2111,931s0,0,1,0c0-2,0-4,0-6h-1c0,2,0,4,0,6Z"/>
      <path class="cls-1" d="M441,942c7,0,13-1,18-2,44-2,87-1,131-16,46-7,93-14,14-19,28-3,56-4,85-6,42-3,84-7,126-1,23-2,46-3,69-5,15-1,29-3,44-4,13-1,25-2,38-4,9-1,18-2,28,0,6,1,9,4,1,9,3,15,6,29,9,44,4,22,8,45,12,67,5,25,6,5,1,74,0,2,0,4,0,6,0,1-5,16-15,18-53,8-105,16-158,24-11,2-23,2-34,3-27,2-53,4-8,8-4,6-79,13-119,2-17,3-34,4-51,6-24,3-47,9-71,11-37,4-73,11-109,19-7,2-14,3-22,3-11,0-13-2-15-12-2-8-4-16-5-23-3-24-7-48-15-71,0-3-2-6-2-9,0-19-7-36-11-55-3-15-6-3-8-45,0-2,0-3,0-5-2-6-3-11,2-17,2-2,2-5,3-8ZM673,915h13s0,0,0,0c-4,0-9,0-13,0l-28,4c5,1,11,0,16,0,4,0,8-3,12-4ZM456,958c-2,1-3,17,0,25,6,23,12,45,16,68,5,26,7,53,11,79,1,1,4,19,6,28,1,5,4,8,1,8,3,0,5,0,8,0,18-4,36-4,54-6,32-3,64-9,96-14,3-5,6-11,9-14,29-4,58-5,88-7,6,0,13,0,19,0,41-4,82-9,123-14,26-3,52-6,78-1,24-4,48-9,72-14,9-2,1-4,9-12,0-2,0-4-1-6-3-14-7-28-11-42-5-19-1-38-14-57-2-13-2-26-4-4-1-12-3-24-4-38-9,0-17,0-26,1-26,2-52,5-78,7-34,3-68,5-102,7-29,2-57,4-86,7-32,3-63,5-95,9-25,3-49,6-74,5-5,0-11,0-16,1-33,3-66,7-98,13-11,2-22,4-32,8-4,2-9,3-13,4-9,1-18,2-28,3ZM1133,1049c0,0,1,0,2,0,0-1-2-2-3-31-2-16-3-32-6-47-4-15-6-31-8-46-1-11-3-21-5-32,0,0-2,0-2,0-1,2-3,3-4,5,0,3,0,6,0,9,2,2,3,4,5,6,0,6,2,11,3,17,1,6,3,12,5,18,4,16,8,33,12,49ZM1145,1073c8-23,3-94-7-108,3,37,5,72,7,108ZM88,902v3c45-3,9-7,135-1,0,0,0-1,0-2-45,3-9,7-135,1ZM674,1148c35,0,69-11,104-14-35,0-7,6-104,14ZM483,1177c5,5,11,6,17,5,15-3,3-6,46-9,0,0,0,0,0-2-18,1-37,0-54,7-2,0-6,0-9,0ZM113,936h-2c2,2,4,4,6,6,0,0,2,0,2,0-2-2,0-4-7-6ZM539,1166c22,2,43-2,64-7-21,2-42,5-64,7ZM1128,914c0-12-4-26-9-32-4,2-3,6,0,8,5,5,6,11,8,18,0,2,1,4,2,6ZM462,1038c0,0-2,0-3,0,2,1,5,2,7,3,0-11,0-21-4-31ZM446,99c0,0,2,0,3,0,1-1-2-19-5-28,0,9,2,19,2,28ZM814,905s0,0,0,1c6,0,12,0,18,0,5,0,1-1,15-2,0,0,0-1,0-2-11,0-21,2-32,3ZM652,1156c0,0,0-1,0-2-5,0-1,2-15,3,0,0,0,1,0,2,5,0,1-2,15-2ZM1101,882c0,0,0-1,0-2-2,0-5,0-7,1,0,0,0,0,0,0h7ZM478,115s0,0,0,0c0,2,0,3,1,5,0,0,0,0,1,0,0-2-1-3-2-5ZM702,914s0,0,0,0c-2,0-4,0-5,0,0,0,0,0,0,0,2,0,4,0,6,0ZM72,912s0,0,0,0h-6s0,0,0,0c2,0,4,0,6,0Z"/>
      <path class="cls-1" d="M843,534c21,2,46-3,72-6,5,0,9,0,14-2,17-3,23,5,26,22,3,18,4,36,6,55,0,8,0,15,0,23,0,8,0,15,2,22,3,9,4,19,4,29,0,5,0,11,0,16,0,11-2,14-12,16-32,7-64,1-97,14-2,2-39,7-59,1-23,3-46,6-69,9-37,6-74,11-111,17-6,0-12,2-19,3-24,2-47,8-71,14-3,0-5,1-8,2-18,3-36,5-53,8-6,0-9-1-13-5-8-7-1-16-11-26-7-43-15-85-22-128-1-7-1-14-1-21,0-9,2-1,1-14,15-6,3-8,45-12,41-9,83-17,125-24,13-2,26-3,4-4,25-3,5-5,76-8,41-4,81-9,127-9ZM641,565c4,0,8,1,11,2,0,0,0-1,0-2-4,0-8,0-11,0-3,0-6,1-9,2,0,0,0,1,0,2,3-1,5-3,8-4ZM716,55c-3,0-6,0-9,0,0,0,0,0,0,1,3,0,6,0,9,0,32-2,64-5,96-7,9,0,19-2,28-3,0-1-1-2-2-2-38,3-77,6-115,9-2,0-5,2-7,3ZM953,69c0-12,1-22,0-31-2-32-5-63-7-95,0-5-1-11-2-16-1-7-2-8-1-8-12,0-23,2-35,3-41,4-81,9-122,13-3,3-61,6-91,1-26,3-52,6-78,8-25,2-51,3-76,6-28,3-55,9-83,13-8,1-9,3-1,1-1,22,1,43,5,65,4,22,9,44,13,67,1,7,4,13,1,17,5,3,9,5,15,5,8,0,17,0,25,0,22-2,44-5,66-8,32-4,64-9,96-14,2-3,4-5,59-9,19-3,38-8,57-1,41-6,82-12,123-18,14-2,29-5,45-8ZM775,723c33,0,77-7,122-18-16,0-11,14-122,18ZM535,769c0,0,0-2,0-2-25,0-49,11-73,4-2,5,0,7,4,7,4,0,7,0,11,0,9-1,18-2,28-4,1-2,21-3,31-5ZM948,543c2,29,5,56,7,83,4-1,0-68-7-83ZM539,762c23-3,46-7,69-1-23-1-46,3-69,1ZM46,754c2,12,11,15,26,9-1,2-18-3-26-9ZM895,711c0,0,0,1,0,2,16-3,31-6,47-9,0,0,0-1,0-2-14,2-28,5-42,7-2,0-4,1-5,2ZM444,692c0,0-1,0-2,0,2,9,3,18,5,26,0,0,1,0,2,0-2-9-3-18-5-26ZM435,667c0,0,2,0,3,0,0-5-2-1-2-15h-2c0,5,0,1,1,15ZM618,557c0,0,0,1,0,2,4,0,9,0,13,0,0,0,0-1,0-2-4,0-9,0-13,0ZM961,663c0,0,1,0,2,0,0-3-1-7-2-1h-2c0,4,1,7,2,1ZM744,555s0,0,0,1c2,0,4,0,7,0,0,0,0-1,2-2-4,0-6,1-9,1ZM602,559s0,0,0,0h6s0,0,0,0c-2,0-4,0-6,0ZM658,741h0c2,0,4,0,6,0,0,0,0,0,0,0h-6ZM443,734h2c0-2-1-3-2-5,0,0,0,0-1,0,0,1,0,3,0,4Z"/>
      <path class="cls-1" d="M1812,653c-9,2-19,4-28,5-42,4-84,6-126,8-47,2-93,6-139,11-59,6-119,13-178,17-14,0-27,3-41,4-18,1-36,2-54,3-9,0-18,3-28,5-8,1-17,1-25,2-4,0-6-2-8-5-2-4-5-8-6-13-5-26-14-51-15-77,0-18-2-36-5-54-2-13-4-26-5-4-1-12,1-14,12-17,31-7,62-15,94-21,51-9,102-19,154-22,51-3,102-4,154-7,47-2,95-3,142-6,14,0,27-4,41-5,9,0,18-1,27,0,8,0,14,8,15,16,0,3,0,5,0,8-1,9,0,18,4,26,0,0,0,0,0,0,1,2,9,4,8,6,0,24,0,49,5,73,1,8,2,16,3,26ZM1198,506c-6-2-12,0-17,4,6-1,11-3,17-4,2-2,39-5,59-7-1,0-3,2-4,2-13,2-26,5-39,6-14,0-26,5-39,1-3,0-5,3-5,7,2,17,4,34,6,5,2,12,5,23,7,35,4,2,6,41,1,61,4,17,1,16,2,15,54-5,108-1,162-15,39-3,78-6,117-9,64-4,128-9,191-13,36-2,72-4,108-6,1,0,11-2,11-12,0-3,0-6,0-9,0-12-2-25-3-37,0-13,0-27-3-4-1-4,0-9-1-14,0-5-1-11-1-16,0-16-9-32-8-48,0-4-3-7-7-7-9,0-17-2-26-2-22,1-43,4-65,4-46,0-91,3-137,8-27,3-54,4-82,6-26,2-52,4-78,7-21,2-42,5-63,8-2,3-4,5-6,8,9-2,19-3,28-5,21-3,43-7,64-1,14-2,29-2,43-4,38-4,76-9,114-1,6,0,12-1,18-2-2-1-3-1-5-1-3,2-59,3-89,5-4,3-8,5-12,9-38,4-75,12-112,22-4,1-8,4-13,5ZM1201,694c9,0,17,0,25,0,24-1,47-3,71-4,5-2,99-6,148-1,4-4,81-9,121-12,65-5,131-1,196-15,11,0,21-3,32-4,0,0,0-1,0-2-6,0-13,2-19,2-14,0-27,0-41,0-31,2-62,4-94,6-78,5-156,1-233,16-26,2-52,5-77,9-16,2-31,5-47,4-2,0-41,2-6,6-7,1-14,2-22,3ZM1407,468c58-3,117-6,175-9-58,0-117,0-175,9ZM1181,662c-3-19-6-38-1-57-2,2,2,39,1,57ZM1775,449c-1-4-19-2-28,2,9,0,19-1,28-2ZM1164,523c0,0-2,0-2,0,0,7,0,13,5,19,0-6-2-13-2-19ZM1207,7c0,0,0,1,0,2,4,0,8-1,12-2,0,0,0,0,0-1-4,0-8,0-12,0ZM1187,683c0,0,2,0,3,0,0-3-1-6-2-9,0,0-1,0-2,0,0,3,0,6,0,9ZM1161,514c0,0,1,1,2,2,2-2,3-4,5-6,0,0-1-1-2-2-2,2-3,3-5,5ZM1799,543h0v-5h0v5Z"/>
      <path class="cls-1" d="M412,1592c46-8,91-16,136-23,28-5,55-1,83-14,43-5,86-1,129-14,28-3,56-5,86-7,3,8,5,14,7,21,7,25,15,49,22,74,3,12,6,24,9,36,5,19,11,39,15,58,6,24,1,48,17,72,9,34,19,69,3,103,3,11,8,21,13,31,4,9,2,12-8,15-46,13-94,19-141,28-17,3-34,8-51,11-22,5-44,9-67,13-3,6-59,13-89,18-34,6-68,12-103,17-8,1-16,3-25,5-2,0-5,0-7,1-8,0-1,0-11-8-4-21-8-43-12-64-3-19-7-37-1-56-3-25-6-51-8-76-3-36-6-72-9-108-3-35-5-7-8-106,0-5-1-9-1-14,0-4,0-8,1-12ZM953,1935c0-2,0-3,0-4-4-12-8-24-12-36-5-15-9-3-13-45-13-51-26-102-39-153-6-22-11-44-17-66-7-25-15-5-23-75-6-18-2-18-24-17-25,1-49,3-74,6-25,2-5,5-75,8-19,2-37,4-55,7-25,4-5,9-75,13-42,7-84,14-126,24-1,0-2,1-5,2,0,4,0,9,0,14,2,34,4,68,7,103,1,19,4,37,6,56,3,51,6,102,15,152,6,33,12,66,18,99,2,1,4,11,13,1,31-5,62-9,93-15,38-7,76-15,114-22,28-6,56-11,83-17,12-3,24-6,36-8,28-5,55-1,83-14,23-3,44-12,67-18,0,0,2-1,3-2Z"/>
      <path class="cls-2" d="M208,785c2,8,5,15,7,22,7,31,13,62,2,94,0,3,1,6,1,9-2,11,2,22,2,34,0,15,5,31,0,47-1,4-1,9-2,14,0,1-2,11-12,12-27,2-54,4-82,8-45,6-91,1-136,19-33,6-68,7-101,1-16,1-32,4-48,5-13,1-26,3-4,4-14,1-28,3-43,4-22,2-44,4-67,6-39,4-79,7-118,11-33,3-67,7-1,11-6,0-13,2-19,3-25,6-51,8-76,7-1,0-14-4-17-14-9-34-14-68-18-103-3-2-5-4-7-61,0-7,2-11,6-16,22-21,5-27,77-33,31-7,63-12,95-18,18-3,35-8,53-11,26-4,52-7,77-9,39-4,78-6,118-9,47-5,94-11,141-16,38-4,75-8,113-12,29-3,58-6,86-9,23-2,46-4,69-7,6,0,12-1,19-2ZM1935,84c-4-7-4-8-11-6-16,3-31,7-47,11-7,2-13,4-2,7-7,3-1,7-9,15,1,1,2,2,3,31,1,9,3,17,3,26,1,13,3,26,7,38,4,11,11,15,23,12,8-2,17-4,25-6,11-3,22-6,34-1,2,0,4-2,6-4-2-1-3-3-4-3-6,0-11,0-17,2-15,4-3,8-44,12-2,0-4,0-7,0-3-1-7-19-1-28-4-11-3-13,7-18,16-8,33-14,51-18,3,0,7,0,7-7-3,0-7,0-1,1-8,2-16,5-25,8-1,3-19,5-29,8-4,1-8,0-9-4-2-1-4-19-6-29,0-5,2-1,6-13,12-7,23-14,37-17,8-1,15-3,23-4,5,0,1-2,13-6ZM1464,976c12-3,23-6,34-9,19-5,23-2,31,16,6,14,15,27,23,4,0,0,3,1,4,0,0,0,2-3,1-4,0-2-2-4-3-6-3-7-6-13-1-2-3-6-7-11-11-17-4-6-1-12-15-18,3-2,5-4,7-6,5-5,1-9,14-14,6-8,5-14,0-21-2-3-5-5-8-7-12-8-25-9-39-9-16,0-3,6-45,9-4,0-6,4-7,8,0,4,0,8,0,12,5,17,9,34,15,5,7,19,12,38,14,58,0,2,2,4,3,7,4-6,4-15,0-35-2-12-7-23-1-35ZM1549,901c0,0-1,0-2,0,0,6,0,7,6,16,17,26,33,53,5,79,4,6,7,11,11,17,5,6,11,9,18,7,7-2,9-8,9-15,0-17,0-34,0-51,0-23,0-47,0-7,0-4,2-8-4-11-1,3-2,6-3,9-1,0-3-2-5-3,0,6,0,1,0,14,0,28,2,55,3,83,0,7-2,14-3,21,0,3-3,6-5,1-8-8-15-14-21-21-6-7-11-16-16-24-5-8-8-17-13-25-5-8-4-18-1-26,0,0-1,0-2,0,0,4,2,8,3,13,0,0,0,0-1,0-5-8-9-15-14-23ZM132,964c0,0,2,0,3-1,0-6-3-11-5-16-9-21-23-26-43-14-1,0-2,1-3,2-8,5-11,12-9,21,3,18,11,32,26,42,7,4,14,9,21,14,5,4,1,9,13,15,8,12,3,21-11,22-5,0-1,0-14-3-8-5-16-11-23-17-3-3-5-8-7-12-1-2-3-5-4-7-2,2-3,4-2,5,2,8,4,15,7,23,4,9,11,16,2,18,9,2,19,4,27,0,18-7,29-22,16-43,0-1-2-3-3-4-1-14-24-25-39-33-5-3-11-6-16-1-3-2-5-7-5-1,0-8,9-18,17-21,1-3,17-1,23,8,3,4,4,8,6,12,2,3,3,7,5,1ZM204,833c0,0,1,0,2-1,0-2,0-3-2-5-2-3-5-5-5-8-2-8-8-11-14-12-15-3-27,4-37,13-8,7-9,18-3,27,2,3,3,5,4,8,3,9,9,15,16,19,13,8,26,17,4,25,14,9,14,18,9,31-4,9-11,15-21,15-8,0-16-1-22-7-12-11-25-21-28-38,0,0,0,0-2-1,0,1-2,2-2,3,2,1,3,2,1,28,23,23,42,27,68,15,17-8,19-29,4-4-3-2-5-4-7-7-12-18-3-28-49-38-16-8-18-18-11-31,5-9,13-11,21-13,1-4,12-3,19,6,3,4,7,8,1,11ZM142,92c-1-5-1-5-5-5-18,0-36,5-54,9-5,1-1,5-11,1-1,6-2,13,0,2,3,18,6,36,1,54,3,11,3,22,1,32,5,7,6,9,15,7,9-2,18-3,26-5,5-1,1-3,14-5,1,0,2-4,2-6-2,0-4-1-5,0-7,2-13,5-2,6-6,1-13,2-2,2-7,0-8-2-1-9-2-7-4-14-6-21-1-5-3-11-4-17,12-3,24-6,36-9,7-2,14-2,22-4,2,0,3-2,4-4,0,0,0-1-1-2-5,0-1,1-14,2-13,2-25,5-38,8-7,1-9,0-1-5-2-13-4-26,0-4,0-5,3-7,7-8,1-3,19-5,29-7,8-2,17-2,26-3ZM1712,1011c1,0,2-1,3-2-4-44-14-88-22-132-4,1-7,3-1,4,0,8,0,15,0,22,4,34,15,67,18,102,0,0,0,1,0,2,0,0,0,2,2,3,2-2,4-3,4-3,2,2,3,3,5,5ZM1835,962c0,0-2-2-2-2-2,1-5,2-7,3-3,2-6,5-9,8-18,15-36,17-55,6-7-4-12-9-13-18,0-4-3-8-3-11-1-6-2-13-3-2,0-5,1-1,2-15,1-12,7-22,15-31,6-6,13-9,21-7,7,1,14,3,2,4,4,0,7,0,7-4-5-2-1-4-14-7-6-4-12-4-18-2-17,6-28,18-35,35-7,19-6,37,0,56,5,16,14,29,32,31,22,3,4-4,57-19,2-2,3-5,5-8Z"/>
      <path class="cls-2" d="M1414,854c-9,2-18,4-27,6-25,5-5,1-74,14-23,4-45,11-65,21-8,4-16,1-24,16-4-8-2-18,6-21,5-2,11-4,17-6,19-6,38-11,57-17,11-3,22-5,33-7,23-3,46-5,68-7,3,0,6,0,8,0,0,0,0,0,0,1Z"/>
      <path class="cls-2" d="M1248,1111c-9-2-12-6-13-13-3-2-7-4-1-6-2-11-3-21-4-32,0-4,0-9,0-13,3,2,6,4,8,6,3,2,6,39,18,58Z"/>
      <path class="cls-2" d="M1219,885c23-11,46-18,71-21v2c-11,3-24,7-36,1-12,3-23,7-35,1,0,0,0-1,0-2Z"/>
      <path class="cls-2" d="M1232,102c4,22,8,43,12,65-1-2-11-43-12-65Z"/>
      <path class="cls-2" d="M2105,845c-5-11-12-21-12-36,1,11,12,23,12,36Z"/>
      <path class="cls-2" d="M1668,822c-1,1-21,3-31,4,0,0,0-1,0-2,5,0,1-2,15-3,5,0,1-1,16-2,0,0,0,1,0,2Z"/>
      <path class="cls-2" d="M2112,1009v-22c4,9,4,11,0,22Z"/>
      <path class="cls-2" d="M2104,853l3,15c0,0-1,0-2,0-1-5-3-1-4-15,0,0,2,0,3,0Z"/>
      <path class="cls-2" d="M2118,1018c0-3,0-6,0-8,0,0,1,0,2,0,0,3,0,5,0,8-1,0-2,0-3,0Z"/>
      <path class="cls-2" d="M1488,1087c3-1,7-2,1-3,0,0,0,0,0,1-4,0-7,1-11,2h0Z"/>
      <path class="cls-2" d="M1488,1087c-4,0-8,0-12,0,0,0,0,0,0-1,4,0,8,0,12,0,0,0,0,0,0,0Z"/>
      <path class="cls-2" d="M1222,963c0,2,0,4,0,6,0-2,0-3,0-5h0Z"/>
      <path class="cls-2" d="M2111,931c0-2,0-4,0-6h1c0,2,0,4,0,6,0,0,0,0-1,0Z"/>
      <path class="cls-2" d="M456,958c1-1,19-2,28-3,5,0,9-2,13-4,1-4,21-6,32-8,32-6,65-1,98-13,5,0,11-1,16-1,25,0,49-3,74-5,31-4,63-6,95-9,29-2,57-5,86-7,34-2,68-5,102-7,26-2,52-5,78-7,8,0,16,0,26-1,2,13,3,26,4,38,1,13,1,27,4,4,4,19,9,38,14,57,3,14,7,28,11,42,0,2,0,4,1,6,0,8,0,11-9,12-24,5-48,1-72,14-26,4-52,7-78,1-41,5-82,9-123,14-6,0-13,0-19,0-29,2-59,3-88,7-3,4-6,1-9,14-32,5-64,1-96,14-18,2-37,2-54,6-3,0-5,0-8,0-6,0-9-3-1-8-2-9-5-19-6-28-4-26-6-53-11-79-4-23-1-45-16-68-2-8-1-16,0-25ZM658,1022c3-3,4-5,6-8,4-8,9-15,11-23,4-14-6-28-21-31-15-4-3-2-44,3-15,5-18,1-14,25,8,36,18,72,23,108,0,1,0,3,0,4,1,1,3,2,4,4,0,0,2,0,2-1-3-22-7-44-1-65,1-3,19-5,28-8,9-3,1-3,16,5,14,18,29,35,44,53,0,1,2,2,3,3,2,0,4,1,6,2,0,0,0-1,1-2-1-2-2-4-4-6-5-5-1-1-15-15-6-7-12-14-18-21-7-8-13-17-2-26ZM108,959c1,0,2,0,3,0,0-3,0-6,0-8-1-4-3-8-6-11-16-18-19-19-41-11-5,2-1,6-13,1-9,15-15,31-13,48,0,8,1,16,3,24,3,1,7,2,12,29,8,14,24,19,37,14,15-5,25-18,34-3,1-2,2-4,2-7,2-11,1-22-4-33-2-4-4-6-8-6-13,2-26,5-39,7-1,0-2,2-3,3,1,0,2,2,2,2,11-5,22,0,33-2,8,0,1,1,1,9,0,1-3,19-6,28-5,14-18,21-32,17-13-4-24-1-27-25-3-15-6-31-4-47,1-13,6-25,15-35,12-13,3-1,37,6,2,5,6,1,9,15ZM51,105c16-7,31-12,45-2,11-6,18-16,22-27,2-6,1-13,0-2,0-3-2-6-5-7-1-5-19-1-29-12-14-4-29-1-44,5-1,4-4,9-4,14,0,12,1,25,3,37,4,31,9,63,9,94,0,7,0,7,9,7,3-25-7-48-8-71ZM914,977c0,0,1,0,2,0,1,1,3,2,4,3,8,11,17,23,25,35,11,14,21,29,32,43,1,2,4,3,6,4,9-5,1-14,9-22-2-31-5-62-8-92,0-2-2-4-3-6,0,0-1,0-2,0,0,4,0,9,0,13,2,24,4,48,6,72,0,8,0,17-4,27-13-17-25-32-36-49-11-17-21-34-32-51-8,3-9,8-7,15,3,11,5,23,7,34,4,23,7,45,11,68,0,4,3,7,9,4-9-32-16-65-17-98ZM856,1053c0,0-1,0-2,0-3,6-5,11-8,17-5,1-13,16-24,16-12,0-22-4-28-16-11-22-14-45-8-69,4-15,11-29,24-4,12-9,28-3,31,11,0,4,1,7,2,11,0,2,2,4,3,7,4-2,3-5,2-7-1-2-3-5-2-7,2-1-4-16-1-21-11-1-29-7-36,5-5,8-1,17-14,25-3,6-5,12-6,18-1,5,0,11-2,17-5,27,5,49,22,68,3,3,6,5,1,6,16,3,31,1,42-13,5-6,9-12,5-21,0-2,0-4,0-7ZM729,959c0,0-1,0-2,0v15c-3-5-2-11-6-16,0,2-2,3-2,3,9,45,17,9,26,135,0,0,0,2,1,3,5-6,5-6-1-31-2-11-4-22-6-32-1-1-7-2-5-31,2,7,4,15,6,23,2,8,3,16,5,24,2,8,4,16,6,23,2,8,1,16,6,25,1-2,2-3,2-4-1-45-19-9-29-134,0-1-1-3-2-4ZM879,942c0,3-2,6-2,9,0,6,0,13,0,19,2,15,5,3,7,44,3,18,5,36,8,53,0,4,1,8,7,9,2-12-13-126-2-135Z"/>
      <path class="cls-2" d="M1133,1049c-4-16-8-33-12-49-2-6-3-12-5-18-1-5-3-11-3-17-2-2-4-4-5-6,0-3,0-6,0-9,0-2,2-3,4-5,0,0,2,0,2,0,2,11,4,21,5,32,2,15,4,31,8,46,4,15,4,32,6,47,1,1,2,2,3,31,0,0-1,0-2,0Z"/>
      <path class="cls-2" d="M1145,1073c-3-37-5-71-7-108,11,14,16,85,7,108Z"/>
      <path class="cls-2" d="M88,902c45-3,9-7,135-1,0,0,0,1,0,2-45,3-9,7-135,1v-3Z"/>
      <path class="cls-2" d="M674,1148c34-8,69-14,104-14-35,4-69,14-104,14Z"/>
      <path class="cls-2" d="M483,1177c4,0,7,2,9,0,17-6,36-5,54-7,0,0,0,2,0,2-15,3-3,6-46,9-6,1-12,0-17-5Z"/>
      <path class="cls-2" d="M113,936c6,19,5,4,7,6,0,0-2,0-2,0-2-2-4-4-6-6h2Z"/>
      <path class="cls-2" d="M539,1166c21-2,42-5,64-7-21,5-42,9-64,7Z"/>
      <path class="cls-2" d="M1128,914c0-2-1-4-2-6-1-6-3-13-8-18-2-2-3-6,0-8,5,6,1,21,9,32Z"/>
      <path class="cls-2" d="M462,1038c4,1,5,2,4,31-2-1-5-2-7-3,0,0,2,0,3,0Z"/>
      <path class="cls-2" d="M446,99c0-9-2-19-2-28,3,9,6,18,5,28,0,0-2,0-3,0Z"/>
      <path class="cls-2" d="M814,905c11,0,21-2,32-3,0,0,0,1,0,2-5,0-1,2-15,2-6,0-12,0-18,0,0,0,0,0,0-1Z"/>
      <path class="cls-2" d="M673,915c-4,1-8,3-12,4-5,1-11,1-16,0l28-4s0,0,0,0Z"/>
      <path class="cls-2" d="M652,1156c-5,0-1,2-15,2,0,0,0-1,0-2,5,0,1-2,15-3,0,0,0,1,0,2Z"/>
      <path class="cls-2" d="M673,915c4,0,9,0,13,0,0,0,0,0,0,1-4,0-9,0-13,0,0,0,0,0,0,0Z"/>
      <path class="cls-2" d="M1101,882h-7s0,0,0,0c2,0,5,0,7-1,0,0,0,1,0,2Z"/>
      <path class="cls-2" d="M478,115c0,2,1,3,2,5,0,0,0,0-1,0,0-2,0-3-1-5,0,0,0,0,0,0Z"/>
      <path class="cls-2" d="M702,914c-2,0-4,0-6,0,0,0,0,0,0,0,2,0,4,0,5,0,0,0,0,0,0,0Z"/>
      <path class="cls-2" d="M72,912c-2,0-4,0-6,0,0,0,0,0,0,0h6s0,0,0,0Z"/>
      <path class="cls-2" d="M953,69c-16,3-3,6-45,8-41,6-82,12-123,18-19,3-38,7-57,1-2,3-4,6-59,9-32,5-64,9-96,14-22,3-44,6-66,8-8,0-17,0-25,0-6,0-1-2-15-5-6-4-9-1-1-17-4-22-9-44-13-67-4-21-6-43-5-65,0-7,2-9,1-1,28-5,55-1,83-13,25-3,5-4,76-6,26-2,52-6,78-8,3-3,61-6,91-1,41-4,81-9,122-13,12-1,23-2,35-3,8,0,9,0,1,8,0,5,2,11,2,16,3,32,5,63,7,95,0,1,0,2,0,31ZM811,591c0,2,0,4,0,7,8,0,16-2,24-3,0,5,0,9,1,13,2,16,4,31,6,46,1,9,6,16,11,24,4-1,0-17,2-25,5,4,2,11,9,14-3-13-6-25-8-37-2-12-7-24-5-38,12-4,23-7,34-11-3-3-6-5-9-8-7,1-15,3-23,4-12,2-25,5-37,7-3,0-6,1-4,6s0,0,0,0ZM502,678c-6-2-11,0-15,4,5-1,1-3,15-4,1-2,2,5,22,16,1,5,1,11,9,16-1-7-1-12-3-16-7-22-15-43-22-65-3-9-8-14-17-17-6,5-7,12-8,2,0,5-1,11-3,16-5,2-9,41-14,61-2,7,4,12,5,18,2-3,3-6,3-9,2-13,4-26,6-38,0-3,1-6,5-7,8,0,16,0,24,0,1,0,2,2,3,3-4,2-9-1-11,4ZM674,697c16,0,28-9,3-26,1-8,2-16,0-24,0-7-3-14-7-19-8-1-17-19-3-23-6-2-11-2-16,0-9,5-17,11-21,21-7,19-5,38,7,54,9,12,22,17,37,17ZM58,645c3-5,6-9,7-13,3-6,5-12,7-19,1-4,1-9-4-1-9-2-19-6-28-2-5,2-1,4-15,6-5,3-11,6-1,12,0,6,2,12,6,16,2,2,4,5,5,7,3,7,5,14,7,21,5,14,8,29,17,43,5,7,7,9,14,5,1-5,19-12,28-19,7-7,7-16,0-24-1-2-3-4-4-6-2-6-7-9-12-11-6-2-12-5-18-7ZM771,597c0,3,2,6,3,9,2,7,5,14,7,21,3,11,3,22-1,33-5,12-14,15-23,5-5-5-1-12-14-18-5-9-8-2-11-3-1-4-1-8-7-11,0,6-1,11-1,16,0,24,1,43,31,54,6,3,15,4,22,4,8,0,15-8,16-16,0-8,0-17-1-25-3-15-6-29-1-44,0,0,0,0-1-1-3,0-6,1-9,2Z"/>
      <path class="cls-2" d="M775,723c12-5,106-18,122-18-45,11-89,18-122,18Z"/>
      <path class="cls-2" d="M716,55c2-1,5-3,7-3,38-3,77-6,115-9,0,0,1,0,2,2-9,1-19,2-28,3-32,3-64,5-96,7h0Z"/>
      <path class="cls-2" d="M535,769c-1,2-21,3-31,5-9,1-18,3-28,4-4,0-7,0-11,0-3,0-6-2-4-7,25,6,48-5,73-4,0,0,0,2,0,2Z"/>
      <path class="cls-2" d="M948,543c7,16,11,73,7,83-2-27-5-54-7-83Z"/>
      <path class="cls-2" d="M539,762c22-7,45-11,69-1-23,3-46,7-69,1Z"/>
      <path class="cls-2" d="M46,754c8,7,16,11,26,9-15,5-24,2-26-9Z"/>
      <path class="cls-2" d="M895,711c2,0,4-1,5-2,14-2,28-5,42-7,0,0,0,1,0,2-16,3-31,6-47,9,0,0,0-1,0-2Z"/>
      <path class="cls-2" d="M444,692c2,9,3,18,5,26,0,0-1,0-2,0-2-9-3-18-5-26,0,0,1,0,2,0Z"/>
      <path class="cls-2" d="M435,667c0-5,0-1-1-15h2c0,5,2,1,2,15,0,0-2,0-3,0Z"/>
      <path class="cls-2" d="M618,557c4,0,9,0,13,0,0,0,0,1,0,2-4,0-9,0-13,0,0,0,0-1,0-2Z"/>
      <path class="cls-2" d="M961,663c0-3-1-7-2-1h2c0,3,1,6,2,1,0,0-1,0-2,0Z"/>
      <path class="cls-2" d="M744,555c2,0,5,0,9-1-1,1-1,2-2,2-2,0-4,0-7,0,0,0,0,0,0-1Z"/>
      <path class="cls-2" d="M602,559c2,0,4,0,6,0,0,0,0,0,0,0h-6s0,0,0,0Z"/>
      <path class="cls-2" d="M641,565c-3,1-5,3-8,4,0,0,0-1,0-2,3,0,6-1,9-2,0,0,0,0,0,0Z"/>
      <path class="cls-2" d="M641,565h11c0,0,0,1,0,2-4,0-8-1-11-2,0,0,0,0,0,0Z"/>
      <path class="cls-2" d="M658,741h6s0,0,0,0c-2,0-4,0-6,0h0Z"/>
      <path class="cls-2" d="M443,734c0-1,0-3,0-4,0,0,0,0,1,0l2,4h-2Z"/>
      <path class="cls-2" d="M716,55c-3,0-6,0-9,0,0,0,0,0,0-1,3,0,6,0,9,0,0,0,0,0,0,0Z"/>
      <path class="cls-2" d="M1268,497c2-3,4-5,6-8,21-3,42-6,63-8,26-3,52-5,78-7,27-2,55-3,82-6,45-5,91-7,137-8,22,0,43-3,65-4,9,0,17,1,26,2,4,0,7,2,7,7,0,17,7,32,8,48,0,5,0,11,1,16,0,5,0,1,1,14,4,13,3,26,3,4,0,12,2,25,3,37,0,3,0,6,0,9,0,1,0,11-11,12-36,2-72,4-108,6-64,4-128,9-191,13-39,3-78,5-117,9-54,5-108,1-162,15-19,2-16,3-2-15-5-2-7-41-1-61-2-12-5-23-7-35-3-17-4-34-6-5,0-4,2-6,5-7,13-4,25-9,39-1,13,0,26-4,39-6,2,0,3-1,4-2h0c4,0,8-1,12-2h0ZM1758,6h0c2,1,3,2,6,4-5-43-14-83-34-121-13,12-17,31-33,41-11-6-2-14-26-24-4-6-9-8-16-7,0,2-2,4-2,6-1,9-2,17-3,26-1,13-2,26-2,39,0,12,0,25,0,37,0,2,0,4,1,7,4-2,6-3,9-5,2,3,3,6,5,11,3-8,2-13,0-18-5-23-3-46-3-7,0-5,0-1,4-15,14,4,18,17,23,26,7,1,13,2,2,3,6-12,13-24,19-36,0,0,2,0,2,0,2,9,3,18,5,27,1,6,1,12,4,17,7,14,9,29,1,45,0,6,0,12,1,18,0,2,2,3,3,5,2-1,4-2,5-4,1-3,1-6,2-1ZM1357,573c3,8,6,15,8,23,2,8,5,15,7,23,2-2,2-6,4-6,7-3,4-8,3-12-1-6-3-11-4-17-3-22-15-42-23-63-3,2-6,4-9,6,3,1,6,2,9,31-15,7-29,7-43,9-7-9-4-22-11-3-6,5-7,1-5,17,6,18,12,36,19,53,3,8,8,16,13,24,1-1,2-2,2-2,0,0,0-2,0-3,0-1-4-18-8-26-4-9-3-12,5-17,1-6,2-9,32-1ZM1557,617c6-4,7-9,6-14-2-12-4-24-5-35,0-3,0-6,0-9,16-2,31-4,46-6,2,0,6,2,7,4,9,9,11,21,13,33,0,4,1,7,2,11,3-1,4-3,4-5,0-7,0-15,0-22-3-21-7-42-1-63,0-4,0-9-1-13,0-2-2-3-4-4-1,1-3,2-4,4,0,3,0,5,0,8,0,11,2,23,3,36-19,0-38,2-58,3,0-12-2-22-1-32,0-7-2-11-8-15-3,5-1,1-1,15,0,11,1,23,2,34,0,16,1,32,3,48,0,7,4,15,6,23ZM1238,628c-3-8-6-17-9-27,8-4,16-9,23-13,9,6,18,1,26,16,8,6,14,14,21,2,1-3,2-5,0-6-5-5-9-11-15-16-8-6-15-14-21-22,3-4,6-8,8-12,9-13,3-26-13-28-12-2-23,0-35,3-11,3-16,12-15,23,0,4,0,9,0,13,0,6,0,12,6,16,3,2,5,6,6,9,3,8,5,16,8,24,0,3,2,5,3,8,3-3,6-5,9-8ZM1508,61c6-3,9-6,8-13-1-4,0-9-2-13-6-2-6-41-9-61,0-7,0-8,7-9,6-1,11-3,17-4,6-1,8-5,1-11-1,0-2-1-3-1-14,1-28,2-43,4-8,0-16,2-24,4-4,0-7,2-5,7h31c1,13,3,26,4,39,0,18,0,35,0,53,0,3-1,7,3,11,7-8,0-17,5-25,0,6,1,11,2,18ZM1424,625c0,0,2,0,3,0,0-2,0-5,0-7-3-15-6-3-9-45,0-5,0-8,3-12,1-14,17-3,2-47,0-2,0-5,0-7-6,3-9,6-11,12-2,8-5,15-8,22-2,5-5,1-8,16-7-6-13-11-18-17-5-6-9-13-15-22,0,5-1,7,0,9,2,4,4,8,6,11,5,6,1,11,15,17,4,4,6,8,6,14,0,7,2,14,3,21,2,7,5,14,6,21,1,6,4,1,8,14Z"/>
      <path class="cls-2" d="M1201,694c8-1,15-2,22-3,2-4,4-7,6-6,16,0,31-2,47-4,26-4,51-7,77-9,78-6,156-11,233-16,31-2,62-4,94-6,14,0,27,0,41,0,6,0,13-1,19-2,0,0,0,1,0,2-11,1-21,3-32,4-65,5-131,1-196,15-4,3-81,8-121,12-49,4-99,9-148,1-24,0-47,3-71,4-8,0-16,0-25,0Z"/>
      <path class="cls-2" d="M1256,498c-2,2-39,5-59,7h0c4-2,8-4,12-5,37-1,74-18,112-22,4-4,8-6,12-9,3-2,59-3,89-5,2,0,3,0,5,1-6,0-12,2-18,2-38,1-76,5-114,1-14,2-29,2-43,4-21,3-43,7-64,1-9,2-19,3-28,5,0,0,0,0,0,0-4,0-8,1-12,2h0Z"/>
      <path class="cls-2" d="M1407,468c58-9,116-1,175-9-58,3-117,6-175,9Z"/>
      <path class="cls-2" d="M1181,662c-7-18-12-37-1-57,3,19,6,38,1,57Z"/>
      <path class="cls-2" d="M1775,449c-9,0-19,1-28,2,9-4,18-5,28-2Z"/>
      <path class="cls-2" d="M1164,523c0,6,2,13,2,19-5-6-5-12-5-19,0,0,2,0,2,0Z"/>
      <path class="cls-2" d="M1207,7c4,0,8,0,12,0,0,0,0,0,0,1-4,0-8,1-12,2,0,0,0-1,0-2Z"/>
      <path class="cls-2" d="M1198,506c-6,1-11,3-17,4,5-5,1-6,17-4,0,0,0,0,0,0Z"/>
      <path class="cls-2" d="M1187,683c0-3,0-6,0-9,0,0,1,0,2,0,0,3,1,6,2,9,0,0-2,0-3,0Z"/>
      <path class="cls-2" d="M1161,514c2-2,3-3,5-5,0,0,1,1,2,2-2,2-3,4-5,6,0,0-1-1-2-2Z"/>
      <path class="cls-2" d="M1799,543v-5h0v5h0Z"/>
      <path class="cls-2" d="M953,1935c-1,1-2,2-3,2-22,6-44,14-67,18-28,4-55,9-83,14-12,2-24,6-36,8-28,6-55,11-83,17-38,8-76,15-114,22-31,6-62,1-93,15-1,2-12,0-13-1-6-33-12-66-18-99-1-5-12-101-15-152-1-19-4-37-6-56-3-34-5-68-7-103,0-5,0-9,0-14,2-1,3-2,5-2,42-1,83-17,126-24,25-4,5-9,75-13,18-3,37-5,55-7,25-3,5-5,75-8,25-2,49-4,74-6,22-1,18-1,24,17,8,25,15,5,23,75,6,22,12,44,17,66,13,51,26,102,39,153,4,15,9,3,13,45,4,12,8,24,12,36,0,1,0,3,0,4ZM705,161c-2-11-3-19-5-28,7,0,13-2,19-3,5,1,2,21,11,29,0-6-2-11-2-17,4,0,7-1,1-2,4,4,2,12,1,13-1-4-4-8-3-11,3-8-4-12-8-17,0,3,0,6,0,1-3,0-6,0-9,0-2-4-3-8-5-11-3,3-33,4-38,1,4,0,8,0,11,0,5,8,1,18,1,26ZM885,1789c2-6-2-1-3-15,0-5-3-1-4-14-2-4-2-1-9-11-6,7-6,16-8,25-8-4-1-14-19-15-3,12,2,31,1,35-2-9-5-17-8-27,9,5,11,14,2,14,5-7,0-17,6-24,7,1,6,23,15,32ZM475,1706c9,2,17,0,23-7,5-5,3-11-4-13-2,0-5-2-7-2,2-4,4-7,6-1,2-4,0-7-3-8-8-1-16-1-23,6,4,11,13,21,9,35ZM67,1789c5,11,4,23,1,36,2-5,3-7,4-1,7,2,13,4,21,6-4-11-16-6-2-15,3-3,5-6,8-9,3-3,5-7,2-1-2-3-6-5-9-5-6,0-12,2-17,8ZM483,1756c4-4,6-7,9-1,3-4,2-8-2-9-6-2-12-2-18,0-4,2-5,4-4,9,4,1,7,21,11,32,8,3,13-2,18-8,4-5,3-9-3-11-3-1-6-1-11-2ZM562,1721c6,9,4,2,13,28,0-11-7-19-5-29,5,0,9-2,15-3-11-4-29,0-38,6,2,6,3,13,5,19,0,3,1,6,0,9,0,2-2,4-4,5-1,0-4-2-5-3-2-5-3-9-4-14,0-2-1-4-2-7,0,0-2,0-3,0,0,1,2,2,9,28,3,3,7,2,9,0,2-3,3-7,3-11,0-8-2-16-4-24,4-1,8-2,11-3ZM535,1663c2,12,5,23,16,32,1-11,3-23,6-35,4,0,8-2,13-3,2,1,5,18,7,27h2c1-1-4-19-4-27,4-4,1,0,12-8-12,3-24,5-36,8,1,11,6,22,0,32-9-7-7-19-15-25ZM516,1888c-1-5-2-3-3,6,4,1,3,22,1,32,0,0,2,0,2,0,0-4-1-8-2-12,7-4,14,5,24,0-8-3-13-4-2-7,5-6,1-12,15-18ZM637,1975c1,0,2,0,3,0,0-4-1-8-1-13,0-4-1-9,0-14,5,4,7,11,15,12,0-7,2-13,3-2h2c2,4,4,9,7,13,2,4,2,11,8,12,0-7-9-26-13-3-2-2-4-3-7-5-2,8-3,14-4,2-6-3-7-12-16-12-2,12,0,24,3,36ZM478,1642c3,0,6-1,9-2,4-2,8-5,8-11,0-5-3-7-8-9,0,0-2-1-2-2,0-5,8-8,4-15-6-3-12-2-18,0-4,2-6,4-4,9,4,9,7,18,11,29ZM493,1996c-8-4-13-7-2-1,2-4,4-7,6-11,2-3,5-6,7-1,2-3,2-6-1-8-6-3-12-1-17,2-5,2-4,6-3,1,2,1,4,21,6,31,0,1,0,3,0,4,0,0,2-1,3-2,0-3,0-6,1-9,6,0,1,6,18,1ZM77,1934c5-6,8-9,11-13,3-5,2-8-2-1-6-3-16-1-22,5,2,5,4,11,7,16,3,5,2,12,9,18,0-8,6-8,11-8,3,0,5,0,5-4-6-1-12-2-2-4ZM825,178q8,16,14,14c-2-4-7-8-7-13,0-7-4-12-6-18,0-1-2-3-3-4,0,0-1,0-2,0,0,5,2,9,2,14-5,1-1,2-13,3-4-4-2-11-9-11,1,11,7,28,11,33,3-3,1-6,0-9-1-5,0-8,6-9,2,0,4,0,6-1ZM647,1732c5-5,9-8,12-11,3-3,5-5,3-1-2-4-5-8-9-8-5,0-11,0-15,4,6,12,3,26,11,39,1-3,2-5,3-7,5-1,1,6,16-1-7-2-13-4-2-7ZM741,1887v-9c5-2,1,2,17-2-8-2-14-4-21-6,2-3,5-6,6-8,2-4,5-8,2-12-3-4-8-6-13-6-6,0-8,4-7,1,3,9,6,19,1,28,0,2,3,3,6,5ZM612,1611c4-4,8-7,1-11,3-5,2-9-3-1-4,0-9,0-14,0-6,1-7,5-6,1,1,7,2,13,4,2,0,2,1,4,2,6,0,0,1,0,2,0,0-3,1-6,2-9,4,0,12,0,14,0-3-2-6-4-1-6ZM749,1573c0,11,3,25,8,3,1-8-4-14-3-22,6,2,9,1,17,9,0-6,1-11,2-17,4,4,6,7,8,11,2,4,2,9,7,1-4-11-4-23-18-3-1,7-2,13-3,19-8,0-9-12-18-1ZM491,1841c0-2,2-4,3-5,2-2,4-5,6-7,2-3,4-6,2-1-2-4-6-4-1-3-4,1-8,3-12,4,2,17,7,32,11,34,0-2,2-3,3-5,6,0,11,4,19,2-6-7-14-4-2-1ZM663,1641c0,1,6,3,11,36,0-4,0-7,0-1,5-3,11,4,18-3-7-2-12-3-2-5,4-4,7-7,1-1,5-5,4-1-3-12-6-2-12,0-17,3ZM837,1836c8-3,14-6,21-8-9-3-16,2-23,5-1,0-2,2-2,3-1,12,0,24,7,33,5,7,16,6,2-1-15,1-18,0-19-13,5-3,9-5,14-8,0,0,0-2-1-2-5,1-9,3-15,5,0-5,0-9-1-14ZM792,1714c5,9,3,12-5,13-5,0-1-2-12-7-2-7-2-13,2-19,4-6,5-7,12-6-2-7-3-8-9-6-1,4-18,26-6,38,6,6,16,5,21,0,4-5,2-14-4-17-4-2-7,0-1,5,3,0,6,0,9,0ZM453,1894c1,5,3,9,4,13,1,7,3,14,4,21,0,2,2,4,3,5,0,0,1,0,2,0,0-3,0-7-2-1-1-6,0-1,5-14,3-2,6-5,9-8,5-5,4-1-3-12-8-3-16-2-23,5ZM869,1864c0,0,0,1,0,2,6,0,11,0,17,0,7,0,13-5,13-1,0-5-4-9-11-12-5-2-1-3-14-4-6-2-6-6-2-11,3-3,6-5,1-8-1,2-13,3-16,7-4,5-2,12,4,15,3,1,6,2,9,3,3,1,7,2,1,3,2,0,4,3,4,5,0,2-2,4-4,5-3,1-6,2-1,3-3,0-7,1-1,2ZM462,1646c4-6,2-1,0-14-5-1-8-21-19-29-2,6-3,11-4,16-1,5-2,1-3,15,0,4-5,9,1,14,1-12,6-19,19-18,2,5,4,1,6,17ZM529,1992c-2-7-4-14-6-2-2-6,0-13-6-18h-2c0,5,1,9,2,15-5,0-1,1-15,2-2-4-3-7-6-11-2,13,3,32,1,36,0-4-1-7-2-1-2-8,0-1,8-11,2,0,4,0,5,0q6,13,11,17ZM629,1794c-4,0-6-1-8,0-9,4-15,17-11,26,3,6,7,11,14,12,7,0,12-3,16-9,3-4,0-11-5-13-5-2-1,0-12,7,4,0,7-2,12-3,0,3,1,6,0,8-4,7-14,7-19,1-6-6-5-16,2-22,2-2,5-4,1-7ZM797,1651c4,3,8,3,12,2,5-2,1-3,15-6,3-2,3-7,0-11-3-3-7-4-1-6-3-2-6-3-12-5,7-3,12-6,18-8-2-1-4-2-5-2-3,0-6,2-9,3-4,2-8,4-8,9,0,5,5,6,9,7,3,1,7,3,1,4,2,0,4,2,6,3-8,8-17,7-25,1ZM891,1902c-6,1-12,3-17,4,0-6,0-7,3-8,3-1,6-2,9-3,1,0,3-2,5-4-14,0-23,4-24,11-2,11,4,22,12,25,6,2,11,0,14-5-15,2-15,1-19-8,3-1,5-2,8-3,3-1,7,0,8-6ZM725,179c-4,1-8,2-11,3-3-4,0-1-6-13-2,12,2,3,8,35,0-2,0-4,0-6-2-11,0-12,11-13,6,3,1,12,9,14-1-14-6-29-11-34,0,5,0,9,0,14ZM603,187s0,0-1,0c2,9,4,18,6,28-14-1-18-13-28-2,1,7,2,12,3,17,0,5-1,11,5,17v-2c3,3,4,5,6,6,4,2,8,5,12,6,5,2,8-1,6-7-2-7-3-14-5-2,0-3-3-5-4-8ZM752,1916c-6-2-1,2-15,3-11,4-12,5-1,17,0,4,2,8,4,11,3,5,8,6,13,5,4,0,8,0,9-6-14,3-15,2-19-6,1-6,1-4,11-12-5,1-9,2-14,4,2-12,15-8,2-17ZM618,1747c0,0,2,0,3,0,2-4,0-7,0-11,0-5,0-8,4-11,3-2,5-4,8-6,5-5,5-1,2-14-3-4-1-6-15-4-6,2-8,5-7,1,2,12,4,25,6,37ZM44,178c3-8,5-17,16-16,4,6,4,14,11,18-1-5-4-1-5-15-2-5-3-11-5-16-1-4-3-8-4-11,0-2-3-3-6-5-4,16-8,29-8,45ZM448,1822c5,3,7,37,14,42-1-6-3-11-3-14,5-7,1-11,13-17,4-8,0-14-9-14-5,0-9,2-15,3ZM737,1716c7,5,12,9,18,13,1,0,4,1,5,0,1,0,2-4,2-5-3-9-7-17-1-26,0,0-1,0-2,0,2,8,4,16,6,24-12-3-14-15-23-21-2,14,0,29,5,33,0-7,0-12-2-19ZM917,1888c-9-2-14,0-16,4-2,5,0,8,7,12,3,1,5,3,8,4,2,1,3,3,5,6-7,2-13,4-21,7,7,4,11,2,16,1,4-1,9-2,1-7,1-5-3-8-7-1-2-2-5-3-8-5-2-1-4-3-7-6,4-3,8-4,12-7ZM769,1636c-3-1-3-11,6-14,3-1,6-2,1-3-16-4-23,2-21,16,0,6,2,11,5,16,3,7,9,9,16,6,1,0,2-2,4-4-14,0-15,0-17-11,5-3,11-5,16-8v-2c-3,0-6,1-8,2-3,0-6,1-8,2ZM608,1948c0,0-2,0-2,0-1,11,3,28,9,36,0-8-1-14-2-2,4,0,7-1,9-1,1,4,2,7,3,11,4-11,3-21-2-31,0,0-2,0-2,0,0,5,0,9,1,15-4,0-8,1-11,1-1-4-2-8-3-11ZM631,1866c0-1-1-2-2-3-2,0-4,0-6,2-8,6-1,21-4,29,7,9,18,1,25,0,4-5,3-12-4-15-5-2-12,1-12,7,3-1,6-3,8-3,2,0,5,0,6,2,0,1,0,5,0,6-6,7-17,5-2-4-2-6-2-12,3-17,2-2,5-4,7-5ZM674,1889c6,3,7,4,9,3,6-2,13-8,12-12,0-6-6-8-11-1-3-1-7-2-11-3,3-5,7-9,12-8,0,0,2-2,3-3,0,0,0-2-1-2-6-3-9,2-13,5-3,3-8,5-6,1,1,2,4,4,6,6,1,0,3,0,5,0,3,1,6,3,1,4-3,7-9,9-17,1ZM579,1837c0,0,1,0,2,0,0-3,0-6-2-8,0-3-1-5-2-9,8,5,14,9,21,13,2,0,5,0,6,0,1-2,2-5,2-7-3-7-7-15-1-22,0,0-1,0-2,0,3,8,5,16,8,23,0,0-1,1-2,2-5-3-9-6-14-9-5-3-8-9-16-8,2,9,6,17,9,26ZM502,1675c0,13,5,21,14,24,9,3,17-3,16-13-1-1-8-16-15-22-5-3-9-3-12,2-2,3-3,7-3,8ZM502,1752c0,1,6,18,14,19,4,0,8,0,1-4,2-5,4-11,2-16-3-6-6-11-1-16-3-4-6-4-1,0-5,5-7,11-7,17ZM629,1642c-1-2-15,2-2,7-4,4-3,9,3,11,4,1,8,2,11,3,2,0,5,3,5,4,0,2-1,6-3,6-4,2-8,2-13,4,5,4,1,5,15,1,4-3,8-6,7-11,0-6-5-8-1-1-2,0-4,0-6-1-2,0-4-2-8-3,7-4,12-7,19-11ZM444,1671c-2,13-3,26-5,38,0,0,1,0,2,1,1-1,3-2,4-4,0-2,0-5,0-8,0-4,3-5,6-6,3,0,5,1,6,4,1,2,1,5,3,8,0,2,3,3,4,4h2c-4-14-8-27-21-37ZM724,1883q-11,1-16-8c2-2,4-4,5-6-1,0-2-2-2-2-4,0-7-1-7-6,0-4,3-5,6-6,4-1,7-3,11-4-7-3-1-2-24,5,1,6,2,12,4,18,2,5,5,1,8,13,5,4,9,3,13-4ZM633,159c0,0-1,0-2,0,3,9,2,19,7,27,0,0,2,0,2,0,0-4,0-9,0-14,4,0,8,0,11-1,2,5,4,8,6,12,0,0,2,0,3-1-5-9-4-2-11-28,0,3,0,7,1,11-4,0-8,1-11,2-2-3-3-6-5-8ZM775,1878c6-4,5-8,4-13,0-5-2-1-3-15-1-4,0-9-6-13,2,11,4,21,5,31-1-6-11-17-2-23,2,13,9,23,19,32ZM713,1928c-7-5-11-3-16,0-6,3-6,9,0,12,2,1,5,2,7,3,3,2,5,3,9,6-4,2-7,3-9,3-2,0-5,0-8-1,3,6,7,8,12,6,4,0,8-2,8-7,0-5-3-8-7-1-2-1-4-2-6-3-2-1-3-3-6-5,6-2,9-3,15-4ZM854,1903c-3-7-4-7-9-6-6,2-11,8-12,16,0,7,2,13,8,16,7,4,14,5,21,0,0,0,0-2,0-3-5,0-9,0-14,0-9-1-12-8-9-16,2-6,6-7,15-6ZM657,1642c-2-2-2-3-3-3-15,0-19,6-17,2,0,4,1,7,3,1,2,3,5,7,8,9,4,3,7,1,8-5-8,1-11-3-13-9,2-5,1-5,11-11-5,1-8,2-12,4q-2-9,5-12c3-1,6-2,1-4ZM79,1909c0,0-1,0-2,0,0,1,0,3,0,4,3,6,6,11,9,17,2,3,4,5,7,7,2,1,5,2,6,1,2,0,3-4,3-6,0-6-2-11-3-17,0-4-3-8-4-12,0,0-2,0-2,0,0,2,0,4,0,6,1,5,3,11,4,16,0,1,0,3-1,6-9-7-1-17-16-24ZM515,1633c8,0,14-6,11-13-2-4-3-9-5-13-3-8-8-9-14-4-7,6-7,2,0,26,2,2,6,3,7,4ZM555,1846c0,0-1-1-2-2-12,2-21,0-24-8,0-3,0-6,0-9,1-7,8-8,14-1-7-4-9-4-14,0-6,6-8,16-4,23,4,7,16,13,23,1,2,0,4-3,6-4ZM579,1955c3,9,2,19,7,26,0,0,2,0,2,0-1-9-2-18-4-27,6-3,11-5,15-7-14-1-3,3-35,9,5,0,9,0,14-1ZM559,1886c-3-6-7-6-1-4-6,3-11,9-11,16,0,8,2,14,8,18,6,4,11,2,15-3-14,0-19-4-18-15,0-8,6-13,17-12ZM551,1969c0,3,0,6,0,9,0,3,0,6,0,9,6-9,9-31,8-39-6,3-2,1-6,14-8,0-11-8-2-11,3,1,11,13,19,18ZM78,1778c5,9,4,19,14,24-2-9-8-16-7-25,4-1,7-3,1-4v-2c-6,0-11,0-16,1-5,0-11,0-15,8,6,0,1-1,14-2ZM82,1841c-2-5-5-6-9-3-6,4-1,1-11,17,0,6,0,11,5,16,5,5,12,5,18,0-14-2-18-5-17-13,0-8,7-16,15-17ZM711,1668c4-1,2-36-4-41,0,5,1,1,1,15,0,5,3,1,0,16-3-5-4-9-7-13-2-4-4-8-9-9,6,11,9,23,18,32ZM573,1626c1,0,2,0,3,0-2-9-3-19-5-27,4-4,11,0,14-5-9-3-23-1-29,5,3,0,6,1,1,2,2,9,4,18,6,27ZM756,1657c-15-3-19-6-17-14,1-4,4-7,6-1,3-5,7,0,11,0-3-8-4-1-9-8-7,3-13,15-13,22,0,6,3,1,9,12,4,2,9,3,13-2ZM532,16c-4,9,0,17,4,25,2,3,5,6,9,5,4-1,7-5,6-9,0-9-3-17-4-26,0,0-2,0-2,0,0,2,0,5,0,7,0,6,2,12,2,18,0,2-2,4-4,5,0,0-4-1-5-3-2-2-3-5-4-7-1-5-3-1-4-15ZM66,1584c0,1,0,4,0,4,5,5,1,1,16,15,0,2-2,7,2,11,4-13,5-29,1-37,0,7-2,12-3,17-8,0-1-7-17-11ZM71,171c-5-7-11-9-17-4-7,5-1,16-6,22,4,5,14,8,19,4-3-1-6-2-9-4-6-3-8-6-7-11,2-6,7-9,13-9,2,0,4,0,7,1ZM737,1777c0,8,6,11,11,14,5,3,9,5,8,12,0,1,1,3,2,5,4-13,1-25-6-3,0,4,0,7,1,1-8,0-12-7-17-1ZM797,1878c-4-14-7-26-11-38,0,0-2,0-4-2,0,13,5,25,9,37,0,1,3,2,5,3ZM818,1897c-4,8-2,18,4,32,1,3,2,7,8,6-2-4-4-8-5-12-2-4-3-8-4-12-1-4-2-8-3-13ZM567,1881c0,0-2,0-3,0,0,1,3,2,8,29,0,1,3,2,5,3,0,0,1-1,2-2-3-5-6-9-7-14-2-5-3-11-4-17ZM732,1667c1-9-5-34-8-38-1,8,3,29,8,38ZM523,1885c0,11,3,21,11,3-2-1-6-2-11-3ZM56,181c-4,11,0,27,8,32-3-11-6-21-8-32ZM68,1736c0-1-2-21-7-3,0,1,0,21,7,3ZM52,185c-2-1-3-2-1-28,0,1,3,2,1,28ZM725,1732c1,0,3,0,4-1-4-8-5-17-1-25,0,9,3,17,6,26Z"/>
      <path class="cls-1" d="M1935,84c-3,4-8,5-13,6-8,1-15,3-23,4-14,2-25,9-37,17-4,3-7,7-6,13,2,1,4,2,6,29,1,5,5,5,9,4,1-3,19-5,29-8,8-2,16-5,25-8,3,0,6,0,1-1,0,6-4,6-7,7-18,4-35,1-51,18-1,5-11,7-7,18,3,9,7,18,1,28,2,0,5,0,7,0,15-4,3-8,44-12,5-1,11-2,17-2,0,0,2,1,4,3-3,2-4,3-6,4-11,3-22,7-34,1-8,2-17,4-25,6-12,3-18,0-23-12-5-12-6-25-7-38,0-9-2-17-3-26-1-1-2-2-3-31,0-7,2-12,9-15,7-2,13-5,2-7,15-4,31-8,47-11,7-2,7-1,11,6ZM1861,86v2c3,0,4-2,6-3,0,0,0-1,0-2-2,0-3,2-5,3Z"/>
      <path class="cls-1" d="M1464,976c3,12,8,24,1,35,4,21,4,3,0,35-1-3-2-5-3-7-3-2-7-39-14-58-6-16-1-33-15-5-1-4-1-8,0-12,0-4,2-7,7-8,15-3,29-9,45-9,14,0,27,1,39,9,3,2,6,4,8,7,6,7,6,13,0,21-4,5-9,1-14,14-2,2-4,3-7,6,5,6,1,12,15,18,4,5,7,11,11,17,4,6,6,13,1,2,1,2,2,4,3,6,0,1,0,4-1,4,0,0-4,0-4,0-8-13-17-26-23-4-8-18-12-21-31-16-11,3-22,6-34,9ZM1462,969c15-3,28-6,42-9,13-3,22-11,28-23,2-5,2-8-1-13-1-14-25-17-41-15-8,0-17,3-25,5-8,2-13,7-11,15,2,13,6,26,9,4ZM1538,994c0,0,1,0,2-1l-4-7c0,0-1,0-2,1,1,2,3,5,4,7Z"/>
      <path class="cls-1" d="M1549,901c5,8,9,15,14,23,0,0,0,0,1,0,0-4-2-8-3-13,0,0,1,0,2,0,5,8,5,18,1,26,5,8,8,17,13,25,5,8,1,16,16,24,6,7,13,13,21,21,2-4,4-7,5-1,1-7,3-14,3-21,0-28-2-55-3-83,0-4,0-8,0-14,3,2,4,3,5,3,0-2,2-5,3-9,6,3,4,8,4,11,0,23,0,47,0,7,0,17,0,34,0,51,0,7-1,13-9,15-7,2-14,0-18-7-4-5-7-11-11-17-17-26-33-53-5-79-5-9-6-1-6-16,0,0,1,0,2,0ZM1635,978s0,0,1,0v-8s0,0-1,0v8ZM1635,997h0v-6s0,0,0,0v6Z"/>
      <path class="cls-1" d="M132,964c-2-3-3-7-5-1-2-4-4-9-6-12-7-9-13-11-23-8-9,3-18,13-17,21,0,3,2,8,5,1,5,4,1,7,16,1,15,9,29,19,39,33,0,1,2,3,3,4,13,21,2,36-16,43-8,3-18,1-27,0-1-2-16-9-2-18-3-7-5-15-7-23,0-1,0-3,2-5,1,2,3,4,4,7,2,4,4,9,7,12,7,6,15,12,23,17,4,2,1,3,14,3,14,0,18-1,11-22-4-5-8-1-13-15-6-5-14-1-21-14-16-1-23-24-26-42-2-9,1-16,9-21,1,0,2-1,3-2,2-11,34-7,43,14,2,5,6,1,5,16,0,0-2,0-3,1ZM1327,1024c-3-2-23-38-49-4,5,4,8,6,11,9,13,1,29,16,38,32ZM1281,1044s0,0,1-1c-1-1-3-2-4-3,0,0,0,0-1,1,1,1,2,2,3,4Z"/>
      <path class="cls-1" d="M204,833c-3-4-7-7-1-11-7-8-9-9-19-6-8,3-17,5-21,13-7,13-5,22,11,31,19,1,37,2,49,38,2,3,5,5,7,7,15,12,13,32-4,4-27,12-46,9-68-15-7-7-8-18-1-28,0,0,1-2,2-3,0,0,2,0,2,1,3,17,16,27,28,38,6,6,14,7,22,7,1,0,18-6,21-15,5-13,5-23-9-31-13-8-26-17-4-25-8-5-14-11-16-19,0-3-3-5-4-8-6-1-5-2,3-27,1-9,22-16,37-13,7,1,13,4,14,12,0,3,4,5,5,8,0,1,1,3,2,5,0,0-1,0-2,1ZM2036,892l2-2c-12-8-23-18-36-23,0,0,0,1-1,2,12,8,24,16,36,23ZM206,913c-2,9-4,17-6,26,12-11,13-17,6-26Z"/>
      <path class="cls-1" d="M142,92c-9,0-17,1-26,3-1,2-19,5-29,7-4,1-6,4-7,8-3,13,0,27,0,4,0,5,3,6,1,5,13-2,25-5,38-8,5,0,1-1,14-2,0,0,0,1,1,2-1,1-3,3-4,4-7,2-14,2-22,4-12,3-23,6-36,9,2,6,3,12,4,17,2,7,4,14,6,21,2,7,3,8,1,9,7,0,13,0,2-2,7-2,13-4,2-6,2,0,4,0,5,0,0,2,0,5-2,6-4,2-9,4-14,5-9,2-18,4-26,5-9,2-1,0-15-7-7-1-7-21-1-32-4-18-7-36-1-54,0-6,0-13,0-2,1-5,6-9,11-1,18-4,36-8,54-9,4,0,4,0,5,5Z"/>
      <path class="cls-1" d="M1712,1011c-1-1-3-3-5-5,0,0-2,1-4,3,0-1-1-2-2-3,0,0,0-1,0-2-3-35-14-68-18-102,0-7,0-15,0-22,3-1,6-2,1-4,8,45,18,88,22,132-1,0-2,1-3,2ZM1697,931c-2-12-5-25-7-37,0,0-1,0-2,0,2,1,3,2,5,3,0,2,3,4,4,6,0,6,0,12,0,17,0,0,1,0,2,0l-3-17ZM1706,983s0,0,0,0c0,3,0,6,1,9,0,0,0,2,0,2,0,0,0,0,1,0,0-4-2-7-3-11Z"/>
      <path class="cls-1" d="M1835,962c-2,3-3,6-5,8-16,14-35,22-57,19-19-3-27-15-32-31-6-18-7-37,0-56,7-17,18-29,35-35,6-2,12-2,18,2,4,3,9,5,14,7,0,5-3,5-7,4-7-2-14-3-2-4-8-1-15,1-21,7-8,9-14,18-15,31,0,5-2,1-2,15,0,7,1,13,3,2,0,4,3,8,3,11,2,8,6,14,13,18,19,11,38,9,55-6,3-3,6-6,9-8,2-1,4-2,7-3,0,0,2,2,2,2Z"/>
      <path class="cls-1" d="M658,1022c7,9,13,17,2,26,6,7,12,14,18,21,5,5,1,1,15,15,2,2,3,4,4,6,0,0,0,1-1,2-2,0-4,0-6-2-1,0-2-2-3-3-15-18-29-35-44-53-6-8-7-8-16-5-9,3-18,5-28,8,3,22,7,43,1,65,0,0-2,0-2,1-1-1-3-2-4-4,0,0,0-3,0-4-5-37-15-72-23-108-4-15,0-2,14-25,15-5,29-6,44-3,14,3,24,17,21,31-2,8-7,15-11,23-1,2-3,4-6,8ZM616,1031c4-2,7-3,1-4,6-2,12-4,18-7,12-7,2-17,22-31,1-12-7-22-19-22-1,0-2,2-29,4-7,2-11,7-1,14,2,15,6,31,9,46Z"/>
      <path class="cls-1" d="M108,959c-3-5-6-1-9-15-7-16-25-19-37-6-9,1-14,22-15,35-2,16,0,31,4,47,3,15,14,21,27,25,14,4,27-3,32-17,4-9,7-18,6-28,0-8-2-1-1-9-11,1-23-3-33,2,0,0,0,0-2-2,1-1,2-3,3-3,13-3,26-5,39-7,4,0,6,2,8,6,5,11,6,22,4,33,0,2,0,5-2,7-9,12-19,24-34,3-13,5-29,0-37-14-5-9-9-19-12-29-2-8-3-16-3-24-2-18,4-34,13-48,3-4,8-8,13-1,22-8,26-7,41,11,3,3,4,7,6,11,0,2,0,5,0,8-1,0-2,0-3,0Z"/>
      <path class="cls-1" d="M51,105c0,23,11,47,8,71-9,0-9,0-9-7,0-32-6-63-9-94-1-12-3-25-3-37,0-5,3-1,4-14,15-6,29-9,44-5,1,3,2,8,29,12,2,1,5,5,5,7,0,7,1,14,0,2-4,11-12,21-22,27-14,7-29,13-45,2ZM507,1035c24,5,45-8,54-25,6-11,4-21-4-29-9-1-21-11-33-1-13,1-2,6-21,2-2,15,0,3,4,45ZM573,985c0-5-3-6-5-7,0,0,0,0-1,1,2,2,4,3,7,6ZM573,995c0,0-1,0-2,0v8c0,0,1,0,2,0v-7Z"/>
      <path class="cls-1" d="M914,977c2,33,9,65,17,98-6,3-8,0-9-4-4-23-7-45-11-68-2-11-4-23-7-34-2-7,0-12,7-15,1,17,2,34,32,51,11,16,24,32,36,49,5-1,5-18,4-27-1-24-4-48-6-72,0-4,0-9,0-13,0,0,1,0,2,0,0,2,2,4,3,6,3,31,6,62,8,92,0,8,0,17-9,22-2-1-4-2-6-4-11-14-21-29-32-43-8-12-17-23-25-35,0-1-2-2-4-3,0,0-1,0-2,0Z"/>
      <path class="cls-1" d="M856,1053c0,2,0,5,0,7,5,8,0,14-5,21-11,14-26,16-42,13-4,0-7-3-1-6-18-19-27-42-22-68,1-6,0-11,2-17,1-6,3-12,6-18,4-9,9-17,14-25,7-13,25-15,36-5,6,6,12,11,1,21,0,2,1,5,2,7,1,3,2,5-2,7-1-2-3-4-3-7-1-3-2-7-2-11-4-15-19-21-31-11-13,1-2,24-24,4-5,24-3,47,8,69,6,12,16,16,28,16,11,0,19-6,24-16,3-6,6-11,8-17,0,0,1,0,2,0Z"/>
      <path class="cls-1" d="M729,959c0,1,2,3,2,4,1,45,19,9,29,134,0,0,0,2-2,4-5-9-4-17-6-25-2-8-4-15-6-23-2-8-4-16-5-24-2-8-3-15-6-23-2,11,4,21,5,31,2,11,3,22,6,32,6,25,6,24,1,31,0-1-1-2-1-3-9-45-17-9-26-135,0,0,0-2,2-3,4,5,4,11,6,16v-15c0,0,1,0,2,0Z"/>
      <path class="cls-1" d="M879,942c6,9,21,123,2,135-6-1-6-5-7-9-3-18-5-36-8-53-2-15-5-3-7-44,0-6,0-13,0-19,0-3,1-6,2-9Z"/>
      <path class="cls-1" d="M674,697c-15,0-28-6-37-17-12-16-14-35-7-54,3-1,12-16,21-21,5-3,11-2,16,0,13,4,22,13,3,23,4,5,6,13,7,19,0,8,0,16,0,24-2,16-14,26-3,26ZM637,644c0,16,5,28,15,39,13,12,33,4,38-7,7-15,7-29,0-44-2-5-6-11-11-14-5-3-12-4-19-6,0,0-1,0-2,0-12,2-2,11-22,23,0,3,0,7,0,9ZM659,608c0,0,0-1,0-2-2,0-4,1-6,2,0,0,0,0,0,1,2,0,4-1,6-2Z"/>
      <path class="cls-1" d="M58,645c7,3,13,5,18,7,6,2,1,5,12,11,0,2,2,4,4,6,6,8,7,18,0,24-8,7-18,14-28,19-7,4-9,2-14-5-8-13-11-28-17-43-3-7-5-14-7-21-1-3-3-5-5-7-5-5-6-11-6-16,0-7,5-1,1-12,5-2,1-4,15-6,1-4,19,0,28,2,5,1,5,6,4,1-2,6-4,13-7,19-2,4-4,7-7,13ZM57,654c3-6,6-1,8-15,3-5,6-1,8-16,3-7,0-12-8-13-5,0-9,0-14,0-16,0-2,6-15,22,6,17,12,34,18,51,2,5,4,1,6,16,7-3,13-5,18-7,7-3,11-9,13-17,1-4,0-7-4-9-6-3-13-5-19-8-3-1-7-2-12-4ZM584,701c15,1,23-2,28-11,2-5,4-1-1-17-2,17-16,21-26,28ZM588,705h-12c5,6,9,4,12,0ZM577,651c4,1,9,3,13,4-4-3-7-8-13-4ZM542,632c0,0,1,0,2,0,0-2-1-4-2-6h-1c0,2,0,4,1,6Z"/>
      <path class="cls-1" d="M502,678c2-5,7-2,11-4-1-1-2-3-3-3-8,0-16,0-24,0-4,0-4,4-5,7-2,13-4,26-6,38,0,3-2,6-3,9-2-6-7-11-5-18,5-2,1-41,14-61,1-5,2-1,3-16,1-7,2-15,8-2,9,3,14,8,17,17,7,22,15,43,22,65,1,5,2,9,3,16-7-5-8-1-9-16-2-11-12-17-22-16h0ZM494,627c-6,13-12,24-11,39,9-2,17-7,27-3-5-12-1-24-16-36ZM503,626c0,0-1,0-2,0,1,8,4,15,1,21-3-7-5-14-8-22ZM489,625c0,0,2,0,3,0,0-3,4-5,0-1-1,4-2,7-3,9Z"/>
      <path class="cls-1" d="M771,597c4,0,6-2,9-2,0,0,1,0,1,1,3,15,7,29,1,44,1,8,1,17,1,25,0,8-7,15-16,16-7,0-16,0-22-4-21-11-31-31-31-54,0-5,0-1,1-16,6,3,6,7,7,11,3,1,6,2,11,3,3,7,8,13,14,18,9,9,18,7,23-5,4-11,5-22,1-33-2-7-5-14-7-21-1-3-2-6-3-9ZM729,636s0,0,1,0c0-2,0-5-1-7,0,0-1,0-2,0,0,2,1,5,2,7Z"/>
      <path class="cls-1" d="M811,591c-2-4,1-5,4-6,12-2,25-5,37-7,8-2,17-3,23-4,3,3,6,5,9,8-11,3-22,7-34,11-2,14,3,26,5,38,2,12,5,24,8,37-7-3-4-11-9-14-1,8,2,16-2,25-6-9-1-16-11-24-2-15-4-31-6-46,0-4,0-8-1-13-8,0-16,2-24,3,0-3,0-5,0-7q8,1,13-2c-5,0-9,1-13,2ZM849,661c4-16-1-54-9-62,3,22,3,43,9,62Z"/>
      <path class="cls-1" d="M502,678c-5,1-1,3-15,4,4-4,9-7,15-4,0,0,0,0,0,0Z"/>
      <path class="cls-1" d="M1758,6c0,3,0,7-2,1,0,2-3,3-5,4-1-2-3-3-3-5,0-6,0-12-1-18,0-15-3-3-1-45-3-5-3-12-4-17-2-9-3-18-5-27,0,0-2,0-2,0-6,12-13,24-19,36-7,0-13-2-2-3-5-9-9-22-23-26-3,5-4,1-4,15,0,23-1,47,3,7,1,5,3,11,0,18-2-5-4-7-5-11-3,1-5,3-9,5,0-3-1-5-1-7,0-12,0-25,0-37,0-13,1-26,2-39,0-9,2-17,3-26,0-2,1-4,2-6,7-1,12,1,16,7,7,1,15,18,26,24,16-9,2-28,33-41,2,38,29,78,34,121-3-2-4-3-6-4,0-5-2-11-2-16,0,0-2,0-2,0,0,4,0,8,0,12,0,1,3,2,4,3Z"/>
      <path class="cls-1" d="M1357,573c-12,0-22,4-32,1-8,5-9,8-5,17,4,8,8,17,8,26,0,0,0,2,0,3,0,0,0,0-2,2-4-8-9-16-13-24-7-18-13-36-19-53-2-7-2-12,5-17,7,8,4,21,11,3,14-2,28-3,43-9-3-1-6-2-9-31,4-2,6-4,9-6,8,21,19,4,23,63,0,6,2,11,4,17,0,5,4,1-3,12-1,0-1,4-4,6-2-8-4-15-7-23-2-8-5-15-8-23ZM1362,56c-2,1,4,29,1,36-1-13-3-25-1-36ZM1325,573c0,0,0-1,0-2-5,1-1,0-13,6,4-1,9-3,13-4ZM1313,583s0,0,0,1c2-1,3-2,5-3,0,0,0,0,0-1-2,1-3,2-5,3Z"/>
      <path class="cls-1" d="M1557,617c-2-9-5-16-6-23-2-16-2-32-3-48,0-11-1-23-2-34,0-5-2-1,1-15,6,4,8,8,8,15,0,1,0,2,1,32,2-1,39-2,58-3-1-13-2-24-3-36,0-3,0-5,0-8,0-1,2-3,4-4,1,1,3,2,4,4,0,4,0,9,1,13,3,21,7,42,1,63,1,7,0,15,0,22,0,2-1,3-4,5,0-4-1-7-2-11-2-12-4-24-13-33-2-2-5-4-7-4-15,2-3,4-46,6,0,3,0,6,0,9,2,12,4,24,5,35,0,5,0,1-6,14ZM1608,546c4,5,7,9,1,13,0,0,1,0,2,0,0-4-1-9-2-13-4,0-6,0-1,2ZM1575,55c0,0,0,1,0,2,5,0,9-2,14-2,0,0,0-1,0-2-5,0-9,1-14,2Z"/>
      <path class="cls-1" d="M1238,628c-3,3-6,5-9,8,0-2-2-5-3-8-3-8-5-16-8-24-1-3-3-7-6-9-5-4-6-1-6-16,0-4,0-9,0-13,0-12,4-2,15-23,11-3,23-5,35-3,16,3,22,15,13,28-3,4-5,8-8,12,6,9,13,16,21,22,6,4,1,1,15,16,1,1,0,3,0,6-7-7-13-15-21-2-7-6-16-1-26-16-7,4-15,8-23,13,3,1,6,19,9,27ZM1225,59c1-2,29-13,35-19,2-3,4-6,6-9,2-4,0-7-3-9-11-8-3-8-41,0-2,1-4,4-4,6,2,11,5,21,7,32Z"/>
      <path class="cls-1" d="M1508,61c0-7-2-12-2-18-5,7,2,17-5,25-4-4-3-7-3-11,0-18,0-35,0-53,0-13-2-26-4-39h-31c-2-6,2-7,5-7,8-1,16-3,24-4,14-2,28-3,43-4,0,0,2,0,3,1-1,5-3,1-1,11-6,1-11,3-17,4-7,1-8,3-7,9,3,2,3,41,9,61,1,4,0,9,2,13,2,6-2,9-8,13ZM1504,579s0,0,0,0c0,1,0,2,0,3,0,0,0,0,0,0,0-1,0-2,0-3Z"/>
      <path class="cls-1" d="M1424,625c-4-4-7-8-8-14-2-7-4-14-6-21-2-7-3-14-3-21,0-6-2-1-6-14-5-6-11-11-15-17-3-3-5-7-6-11,0-2,0-5,0-9,6,9,1,16,15,22,5,6,11,11,18,17,3-6,6-1,8-16,3-7,6-15,8-22,1-6,5-9,11-12,0,3,1,5,0,7-3,17-1,33-2,47-3,4-4,7-3,12,3,15,6,3,9,45,0,2,0,5,0,7,0,0-2,0-3,0ZM1413,585s0,0,1,0c0-3-1-7-2-1,0,0,0,0-1,0,0,3,1,7,2,1Z"/>
      <path class="cls-1" d="M1256,499c4,0,8-1,12-2-4,0-8,1-12,2Z"/>
      <path class="cls-1" d="M705,161c-9-8-5-19-1-26-3,0-7,0-11,0,5-6,8-7,38-1,1,3,3,7,5,11,3,0,6,0,9,0,0-4,0-7,0-1,3,6,1,9,8,17,0,3,2,6,3,11-8-2-6-9-1-13-2,0-6,0-1,2,0,6,2,12,2,17-8-8-6-19-11-29-6,0-12,2-19,3,2,9,3,18,5,28Z"/>
      <path class="cls-1" d="M885,1789c-9-9-8-22-15-32-7,7-1,17-6,24-9,0-12-9-2-14,3,1,5,18,8,27-8-4-13-23-1-35,9,0,12,11,19,15,2-9,1-18,8-25,6,0,7,6,9,11,2,5,3,9,4,14,0,5,6,8,3,15Z"/>
      <path class="cls-1" d="M475,1706c4-14-4-24-9-35,7-7,15-7,23-6,4,0,5,4,3,8-2,3-4,6-6,1,3,0,5,2,7,2,7,3,8,8,4,13-6,7-14,9-23,7ZM478,1686c4-6,7-1,11-15-7-2-12-2-17,2,2,4,3,7,6,13ZM483,1703c6-2,11-4,12-11-5-3-1-4-16,0,1,4,2,7,4,11Z"/>
      <path class="cls-1" d="M67,1789c5-6,11-7,17-8,3,0,7,2,9,5,2,3,0,7-2,1-3,3-6,6-8,9,4,8,16,4,2,15-8-2-14-4-21-6-1,3-2,6-4,1-6-12-5-25-1-36ZM691,1787c-6,0-11,0-13,3-3,4-2,8,1,12,6-4,9-8,12-15Z"/>
      <path class="cls-1" d="M483,1756c5,1,8,1,11,2,6,2,7,7,3,11-5,6-11,11-18,8-4-11-7-22-11-32-2-4,0-7,4-9,6-3,12-2,18,0,4,1,5,5,2,9-2,3-5,6-9,1ZM489,1742c-7-2-12-3-17,2,1,3,3,7,5,12,4-5,8-9,11-14ZM495,1764c-5-3-1-3-16,0,1,4,2,7,3,12,6-3,11-5,13-11Z"/>
      <path class="cls-1" d="M562,1721c-3,0-7,2-11,3,1,9,3,16,4,24,0,4-1,8-3,11-2,3-6,4-9,0-6-8-1-17-9-28,0,0,2,0,3,0,0,2,1,4,2,7,1,5,2,1,4,14,0,2,4,4,5,3,2,0,4-3,4-5,0-3,0-6,0-9-1-6-3-13-5-19,9-6,27-9,38-6-6,1-11,2-15,3-2,1,5,18,5,29-9-8-7-19-13-28Z"/>
      <path class="cls-1" d="M535,1663c8,6,6,18,15,25,7-1,2-21,0-32,12-3,24-5,36-8-2,7-9,4-12,8,0,9,5,17,4,27h-2c-2-8-4-17-7-26-5,1-9,2-13,3-3,11,4,24-6,35-1-9-14-2-16-32Z"/>
      <path class="cls-1" d="M516,1888c-5,6-1,12-15,18,7,2,12,4,2,7-9,6-16-3-24,0,0,4,1,8,2,12,0,0-2,0-2,0-7-9-6-22-1-32,1-9,19-12,3-6ZM495,1905c4-5,8-1,12-15-14,0-16,3-12,15Z"/>
      <path class="cls-1" d="M637,1975c-3-12-4-23-3-36,9,0,1,9,16,12,1-7,3-13,4-2,3,2,6,3,7,5,4,4,12,23,13,3-7-2-6-8-8-12-3-4-5-9-7-14h-2c0,7-2,14-3,2-8-1-1-8-15-12-2,5,0,9,0,14,0,4,0,8,1,13-1,0-2,0-3,0Z"/>
      <path class="cls-1" d="M478,1642c-4-1-8-2-11-29-2-4,0-7,4-9,6-2,12-4,18,0,4,6-3,1-4,15,0,0,2,1,2,2,4,1,8,3,8,9,0,5-4,9-8,11-3,1-6,2-9,2ZM487,1608c-7-1-12-1-16,4,1,3,3,5,5,9,4-5,7-8,11-13ZM491,1628q-6-3-14,0c2,3,4,6,6,7,4,1,7-1,8-6Z"/>
      <path class="cls-1" d="M493,1996c-8,5-12-2-18-1,0,3,0,6-1,9,0,0-2,1-3,2,0-1,0-3,0-4-2-1-4-21-6-31,0-4-1-8,3-1,6-3,11-5,17-2,3,2,3,5,1,8-2,3-5,6-7,1-2,3-4,7-6,11,7,3,13,6,2,1ZM471,1976c5-5,1-8,11-14-12-2-15,2-11,14Z"/>
      <path class="cls-1" d="M77,1934c8,1,14,2,2,4,0,4-3,5-5,4-5,0-1,0-11,8-7-6-7-12-9-18-3-5-5-11-7-16,6-6,15-9,22-5,4,2,5,5,2,1-3,4-6,8-11,13ZM767,1927c0,0,2,0,3,0,3-3,7-6,7-12-4,0-9-2-11,2-1,2,0,6,1,1Z"/>
      <path class="cls-1" d="M825,178c-2,0-4,0-6,1-5,1-7,4-6,9,0,3,2,6,0,9-5-6-1-22-11-33,7,0,5,8,9,11,4,0,8-2,13-3,0-5-2-1-2-14,0,0,1,0,2,0,1,1,3,2,3,4,2,6,5,12,6,18,0,4,5,8,7,13q-6,2-14-14Z"/>
      <path class="cls-1" d="M647,1732c8,3,14,4,2,7-6,7-1,0-16,1,0,2-2,4-3,7-8-13-5-27-11-39,5-5,1-5,15-4,5,0,8,4,9,8,2,4,0,7-3,1-4,3-7,7-12,11ZM647,1725c4-4,7-6,1-9,0-1,0-6,0-6-3,0-7-1-1,0,0,0-2,4-2,7,0,2,1,4,2,9Z"/>
      <path class="cls-1" d="M741,1887c-3-3-5-4-6-5-4-9-7-19-1-28-2-5,1-9,7-1,5,0,1,1,13,6,3,4,0,8-2,12-2,3-4,5-6,8,7,2,13,4,21,6-7,5-12,0-17,2v9ZM734,1865c4-5,9-8,6-13-2-3-5-5-1-2,1,4,2,8,4,15Z"/>
      <path class="cls-1" d="M612,1611c4,2,7,4,1,6-2,1-1,1-14,0,0,3-1,6-2,9,0,0-1,0-2,0,0-2-2-4-2-6-1-6-2-13-4-2-1-6,0-9,6-1,4,0,9,0,14,0,5,0,7,5,3,1-3,4-6,7-1,11ZM619,1597c-14-4-16-3-12,1,4-4,8-7,12-1Z"/>
      <path class="cls-1" d="M749,1573c9-2,1,1,18,1,0-6,2-11,3-19,14,7,15,19,18,3-6-1-5-6-7-1-2-4-4-7-8-11,0,6-1,11-2,17-8,1-11-7-17-9-2,8,4,14,3,22-5-5-8-19-8-3Z"/>
      <path class="cls-1" d="M491,1841c5,5,14,3,2,1-7,2-12-2-19-2,0,1-2,3-3,5-4-1-9-17-11-34,4-1,8-3,12-4,4,0,7,0,1,3,2,4,0,7-2,1-2,2-4,5-6,7-1,2-2,3-3,5ZM497,1821c-6-1-1-1-13,3-1,3,0,7,0,11,6-4,1-7,12-14Z"/>
      <path class="cls-1" d="M663,1641c5-4,1-5,17-3,7,2,8,6,3,12-3,3-6,6-1,1,7,2,13,3,2,5-6,6-12,0-18,3,0,3,0,6,0,1-5-6-11-26-11-36ZM67,1655c5-4,8-7,12-1-6-4-9-3-14,0,0,3,1,6,2,1Z"/>
      <path class="cls-1" d="M837,1836c0,5,0,9,1,14,6-2,11-3,15-5,0,0,0,2,1,2-5,3-9,5-14,8,0,12,3,14,19,13-4,7-15,8-2,1-7-1-8-22-7-33,0-1,1-3,2-3,7-3,14-8,23-5-6,3-13,5-21,8Z"/>
      <path class="cls-1" d="M792,1714c-3,0-5,0-9,0,3-5,6-7,1-5,6,3,8,12,4,17-5,6-15,7-21,0-12-12-4-33,6-38,6-2,7-2,9,6-7-1-8,0-12,6-4,6-5,12-2,19,2,5,6,8,12,7,8-1,1-5,5-13Z"/>
      <path class="cls-1" d="M453,1894c6-7,14-8,23-5,7,2,8,7,3,12-3,3-6,6-9,8-6,3-7,8-5,14,0,3,1,7,2,1,0,0-1,0-2,0,0-2-2-3-3-5-2-7-3-14-4-21,0-4-2-8-4-13ZM477,1895c-8-3-13-5-18,0,0,4,2,8,3,14,5-5,9-9,15-14Z"/>
      <path class="cls-1" d="M869,1864c3,0,7-1,1-2,3,0,7-1,1-3,2,0,4-3,4-5,0-2-2-4-4-5-3-2-7-2-1-3-3,0-6-2-9-3-6-3-7-1-4-15,3-4,6-6,16-7-4,3-7,6-1,8-5,4-4,8,2,11,5,2,1,3,14,4,8,3,12,7,11,12,0,5-6,9-13,1-6,0-11,0-17,0,0,0,0-1,0-2Z"/>
      <path class="cls-1" d="M462,1646c-3-7-4-12-6-17-13-1-17,7-19,18-6-6-2-1-1-14,0-5,2-1,3-15,1-5,3-9,4-16,11,8,14,2,19,29,2,3,4,8,0,14ZM453,1623c-3-4-5-7-7-1,0,0-1,0-2,0,0,4-2,8-3,14,5-2,8-3,12-4Z"/>
      <path class="cls-1" d="M529,1992q-5-4-11-17c-2,0-4,0-5,0-8,0-1,2-8,11,0,3,1,6,2,1-7-4-11-23-1-36,2,4,4,7,6,11,4,0,9-1,15-2,0-5-2-1-2-14h2c5,4,4,11,6,17,2,7,4,13,6,2Z"/>
      <path class="cls-1" d="M629,1794c-5,3-7,5-1,7-7,7-8,16-2,22,5,6,15,5,19-1,1-2,0-5,0-8-5,1-8,2-12,3,2-6,7-9,12-7,5,2,7,9,5,13-4,5-9,9-16,9-7,0-12-6-14-12-4-9,2-22,11-26,2,0,4,0,8,0Z"/>
      <path class="cls-1" d="M797,1651c8-3,17-2,25-1-2-1-4-2-6-3-3-2-7-3-1-4-4-1-8-2-9-7,0-5,4-7,8-9,3-1,6-2,9-3,1,0,3,1,5,2-6,3-11,5-18,8,6,3,9,4,12,5,3,2,7,4,1,6,3,3,4,9,0,11-4,3-1,4-15,6-4,1-8,1-12-2Z"/>
      <path class="cls-1" d="M891,1902c-2,6-6,5-8,6-3,1-5,2-8,3,4,1,4,1,19,8-3,6-8,7-14,5-8-3-14-14-12-25,0-6,1-1,24-11-2,2-3,3-5,4-3,1-6,2-9,3-3,2-3,2-3,8,5-1,11-2,17-4Z"/>
      <path class="cls-1" d="M725,179c0-5,0-9,0-14,5,6,1,2,11,34-8-2-3-11-9-14-12,1-12,2-11,13,0,2,0,4,0,6-6-6-1-23-8-35,5,3,3,8,6,13,3-1,7-2,11-3Z"/>
      <path class="cls-1" d="M603,187c1,3,3,5,4,8,2,7,4,13,5,2,1,5-1,8-6,7-4-1-8-4-12-6-2-1-3-3-6-6v2c-6-6-4-12-5-17,0-5-2-1-3-17,1,7,15,19,28,2-2-1-4-19-6-28,0,0,0,0,1,0Z"/>
      <path class="cls-1" d="M752,1916c-5,8-18,4-2,17,5-1,9-2,14-4-1,8-1,6-11,12,4,8,4,8,19,6,0,5-5,6-9,6-5,0-1,0-13-5-2-3-3-7-4-11-2-12-1-13,1-17,4-2,9-5,15-3Z"/>
      <path class="cls-1" d="M618,1747c-2-12-4-25-6-37,0-5,2-8,7-1,5-2,12,0,15,4,3,4,3,9-2,14-2,2-5,5-8,6-5,3-5,6-4,11,0,4,3,7,0,11,0,0-2,0-3,0ZM62,1723c4-3,7-5,1-8,1-2,2-6,1-7-2-2-6-3-9-4-2,0-6,2-6,4,0,5-1,1,3,15Z"/>
      <path class="cls-1" d="M44,178c0-15,4-29,8-45,3,2,5,3,6,5,2,4,3,7,4,11,2,5,3,11,5,16,2,5,4,9,5,15-7-4-7-12-11-18-11,0-13,8-16,16ZM445,1763c5-2,7-3,1-5-1-5-2-1-8-13,0,6-2,11-3,18Z"/>
      <path class="cls-1" d="M448,1822c5-1,1-3,15-3,9,0,13,6,9,14-3,6-8,1-13,17,0,3,2,8,3,14-7-5-9-12-14-42ZM457,1841c3-2,5-3,6-4,5-5,6-1,4-12-4-3-9-1-14,2,0,4,2,9,3,15Z"/>
      <path class="cls-1" d="M737,1716c0,7,1,13,2,19-5-4-7-19-5-33,9,6,11,18,23,21-2-8-4-16-6-24,0,0,1,0,2,0,3,8,7,17,1,26,0,1,0,4-2,5-1,0-4,0-5,0-6-4-11-8-18-13Z"/>
      <path class="cls-1" d="M917,1888c-4,3-8,4-12,7,3,2,5,4,7,6,3,2,5,3,8,5,4,2,8,5,7,1-1,5-6,6-1,7-5,1-9,3-16-1,8-3,13-5,21-7-2-3-4-4-5-6-2-2-5-3-8-4-7-4-9-8-7-12,2-5,7-7,16-4Z"/>
      <path class="cls-1" d="M769,1636c3,0,6-1,8-2,2,0,5-1,7-2v2c-4,3-1,5-15,8,2,11,3,12,17,11-2,2-2,4-4,4-7,2-13,0-16-6-2-5-4-11-5-16-2-14,5-2,21-16-3,1-6,2-1,3-8,3-9,4-6,14Z"/>
      <path class="cls-1" d="M608,1948c0,3,2,6,3,11,3,0,7,0,11-1,0-6,0-1-1-15,0,0,2,0,2,0,5,1,6,2,2,31,0-3-2-7-3-11-3,0-6,0-9,1,0,6,1,12,2,2-6-8-1-26-9-36,0,0,2,0,2,0Z"/>
      <path class="cls-1" d="M631,1866c-2,2-5,3-7,5-4,5-5,11-3,17,3,9,14,11,2,4,1-1,2-5,0-6,0-1-4-3-6-2-3,0-5,2-8,3,0-6,7-1,12-7,6,3,8,9,4,15-7,9-19,9-25,0-6-9-4-23,4-29,2-1,4-1,6-2,0,1,1,2,2,3Z"/>
      <path class="cls-1" d="M674,1889c7-2,13-3,17-1-4-1-7-3-1-4-2,0-4,0-5,0-2-2-5-3-6-6-2-5,2-8,6-1,4-3,7-7,13-5,0,0,1,2,1,2,0,1-2,3-3,3-6,0-9,3-12,8,4,1,7,2,11,3,5,2,1,4,11,1,0,4-6,1-12,12-2,0-3,0-9-3Z"/>
      <path class="cls-1" d="M579,1837c-3-8-7-16-9-26,8-1,11,5,16,8,5,3,9,6,14,9,0,0,1-1,2-2-3-8-5-16-8-23,0,0,1,0,2,0,3,7,7,14,1,22,0,2,0,5-2,7,0,1-5,1-6,0-7-4-13-8-21-13,1,4,2,7,2,9,0,3,1,6,2,8,0,0-1,0-2,0Z"/>
      <path class="cls-1" d="M502,1675c0-1,1-5,3-8,3-5,7-5,12-2,7,6,14,12,15,22,1,1-7,16-16,13-9-3-14-12-14-24ZM512,1669c-6,4-8,1-5,17,2,5,9,11,15,1,2,0,5-2,6-4,3-4-1-15-6-18-3-2-7-3-1-5Z"/>
      <path class="cls-1" d="M502,1752c0-7,2-12,7-17,4-4,7-4,1,0,4,5,7,11,1,16,3,5,0,11-2,16-2,4-6,5-1,4-8-2-14-1-14-19ZM513,174c-9,6-9,21,2,27,6,3,1,0,11-5,1-6,0-11-4-16-3-2-6-4-9-6Z"/>
      <path class="cls-1" d="M629,1642c-7,4-12,7-19,11,4,2,6,3,8,3,2,0,4,0,6,1,5,2,9,4,1,1,0,5-3,8-7,11-5,3-1,2-15-1,5-1,1-2,13-4,2,0,3-4,3-6,0-1-3-3-5-4-4-1-8-2-11-3-6-2-7-7-3-11,5-5,1-1,2-7Z"/>
      <path class="cls-1" d="M444,1671c13,1,17,22,21,35h-2c-1,0-3-1-4-3-1-2-2-5-3-8-1-3-3-5-6-4-3,0-6,2-6,6,0,3,0,5,0,8,0,2-3,3-4,4,0,0-1,0-2-1,2-12,3-24,5-38ZM451,1685c-2-1-2-2-3-3,0,0-2,2-2,3,0,0,1,2,2,2,0,0,2-1,3-2Z"/>
      <path class="cls-1" d="M724,1883c-4,6-8,8-13,4-4-4-7-8-8-13-2-6-3-12-4-18,13-6,17-7,24-5-4,2-8,3-11,4-3,1-6,2-6,6,0,4,3,6,7,6,0,0,0,0,2,2-2,2-4,4-5,6q5,1,16,8Z"/>
      <path class="cls-1" d="M633,159c2,2,3,5,5,8,3,0,7-1,11-2,0-4,0-7-1-11,8,8,7,19,11,28,0,0-2,0-3,1-2-4-4-7-6-12-4,0-7,0-11,1,0,6,0,1,0,14,0,0-2,0-2,0-5-8-4-18-7-27,0,0,1,0,2,0Z"/>
      <path class="cls-1" d="M775,1878c-11-9-17-2-19-32,8,6,1,17,2,23-2-1-3-2-5-31,7,4,5,9,6,13,1,5,2,1,3,15,0,5,2,9-4,13Z"/>
      <path class="cls-1" d="M713,1928c-6,2-1,3-15,4,3,3,4,4,6,5,2,1,4,2,6,3,4,2,8,5,7,1,0,5-5,6-8,7-5,1-9,0-12-6,3,0,6,2,8,1,2,0,5-2,9-3-4-3-7-5-9-6-2-1-5-2-7-3-6-4-6-9,0-12,4-2,9-4,16,0Z"/>
      <path class="cls-1" d="M854,1903c-9,0-12,0-15,6-3,8,0,15,9,16,4,0,9,0,14,0,0,1,0,2,0,3-7,5-14,3-21,0-6-3-8-9-8-16,1-7,6-14,12-16,4-1,5,0,9,6Z"/>
      <path class="cls-1" d="M657,1642c-4,1-7,2-1,4q-7,3-5,12c4-1,7-2,12-4-2,7-9,6-11,11,2,6,5,1,13,9-1,6-4,7-8,5-3-2-6-5-8-9-2-3-2-7-3-1-2-14,3-2,17-2,0,0,0,0,3,3Z"/>
      <path class="cls-1" d="M79,1909c6,7,8,18,16,24,0-2,2-4,1-6-1-5-3-11-4-16,0-2,0-4,0-6,0,0,2,0,2,0,1,4,3,8,4,12,1,5,3,11,3,17,0,2-1,5-3,6-2,0-5,0-6-1-3-2-5-4-7-7-3-5-6-11-9-17,0-1,0-3,0-4,0,0,1,0,2,0Z"/>
      <path class="cls-1" d="M515,1633c-1,0-5-2-7-4-7-6-8-2,0-26,6-5,12-4,14,4,2,4,3,9,5,13,3,7-3,13-11,13ZM517,1606c-8,1-1,3-11,8,0,5,1,11,6,13,2,0,6,1,8,0,2,0,2-5,2-7,0-5-3-9-5-14Z"/>
      <path class="cls-1" d="M555,1846c-2,1-3,3-6,4-7,2-19-3-23-1-4-7-2-17,4-23,4-4,7-4,14,0-6,2-13,3-14,1,0,3,0,6,0,9,3,8,11,11,24,8,0,0,1,1,2,2Z"/>
      <path class="cls-1" d="M579,1955c-5,0-9,0-14,1,5-6,21-1,35-9-5,2-9,4-15,7,1,9,2,18,4,27,0,0-2,0-2,0-5-8-4-17-7-26Z"/>
      <path class="cls-1" d="M559,1886c-1,0-16,4-17,12,0,1,4,14,18,15-4,6-9,7-15,3-6-4-9-1-8-18,0-8,5-13,11-16,4-2,8-2,1,4Z"/>
      <path class="cls-1" d="M551,1969c-8-5-16-8-19-18,9,2,12,12,2,11,4-4,0-11,6-14,2,8-2,3-8,39,0-3,0-6,0-9,0-3,0-6,0-9Z"/>
      <path class="cls-1" d="M78,1778c-5,0-9,0-14,2,4-8,1-7,15-8,5,0,1,0,15-1v2c-2,1-6,3-9,4,0,9,5,17,7,25-1-5-9-16-14-24Z"/>
      <path class="cls-1" d="M82,1841c-8,0-15,9-15,17,0,8,4,12,17,13-5,6-12,6-18,0-4-4-6-1-5-16,1-7,5-13,11-17,4-3,7-2,9,3Z"/>
      <path class="cls-1" d="M711,1668c-9-9-12-21-18-32,5,0,7,5,9,9,2,4,4,8,7,13,3-6,0-11,0-16,0-5,0-1-1-15,5,5,8,31,4,41Z"/>
      <path class="cls-1" d="M573,1626c-2-9-4-18-6-27-4,0-7-1-1-2,6-6,2-8,29-5-3,5-1,1-14,5,2,9,3,18,5,27-1,0-2,0-3,0Z"/>
      <path class="cls-1" d="M756,1657c-5,6-9,4-13,2-5-2-8-7-9-12,0-8,6-19,13-22,4-2,6,0,9,8-4,0-8-5-11,0-2,3-5,7-6,1-2,8,2,11,17,14Z"/>
      <path class="cls-1" d="M532,16c1,5,2,1,4,15,0,3,2,5,4,7,1,1,4,3,5,3,2,0,4-3,4-5,0-6-2-12-2-18,0-2,0-5,0-7,0,0,2,0,2,0,1,9,3,17,4,26,0,4-2,8-6,9-4,1-7-2-9-5-4-8-8-16-4-25Z"/>
      <path class="cls-1" d="M66,1584c6,4,8,1,17,11,0-5,2-11,3-17,4,8,3,24-1,37-4-4-1-9-2-11-6-6-11-1-16-15,0,0,0-3,0-4Z"/>
      <path class="cls-1" d="M71,171c-3,0-5-1-7-1-6,0-11,3-13,9-1,5,0,9,7,11,3,1,6,2,9,4-5,3-15,0-19-4-4-6-1-17,6-22,6-4,12-3,17,4Z"/>
      <path class="cls-1" d="M737,1777c6,3,9,1,17,1,0-4,0-7-1-1,7,5,9,18,6,3-1-2-2-3-2-5,1-7-3-9-8-12-6-3-12-6-11-14Z"/>
      <path class="cls-1" d="M797,1878c-3-2-5-2-5-3-4-12-8-23-9-37,2,0,3,1,4,2,4,12,7,24,11,38Z"/>
      <path class="cls-1" d="M818,1897c1,6,2,1,3,13,1,4,2,8,4,12,1,4,3,7,5,12-6,1-7-3-8-6-6-14-8-24-4-32Z"/>
      <path class="cls-1" d="M567,1881c1,6,2,11,4,17,2,5,5,1,7,14,0,0-1,1-2,2-2-1-4-2-5-3-5-9-9-18-8-29,0,0,2,0,3,0Z"/>
      <path class="cls-1" d="M732,1667c-6-9-1-3-8-38,4,4,1,29,8,38Z"/>
      <path class="cls-1" d="M523,1885c5,9,9,19,11,3-8-8-11-18-11-3Z"/>
      <path class="cls-1" d="M56,181c3,1,5,2,8,32-7-5-12-2-8-32Z"/>
      <path class="cls-1" d="M68,1736c-6-9-7-2-7-3,5,9,6,2,7,3Z"/>
      <path class="cls-1" d="M52,185c-6-9-9-18-1-28,7,8,8,18,1,28Z"/>
      <path class="cls-1" d="M725,1732c-3-8-7-16-6-26,5,8,7,16,1,25-1,0-3,0-4,1Z"/>
      <path class="cls-2" d="M1861,86c2,0,3-2,5-3,0,0,0,1,0,2-2,0-3,2-5,3v-2Z"/>
      <path class="cls-2" d="M1462,969c-3-14-6-27-9-4-1-8,3-13,11-15,8-2,17-5,25-5,16-2,3,1,41,15,3,4,4,8,1,13-6,12-15,2-28,23-13,3-27,6-42,9Z"/>
      <path class="cls-2" d="M1538,994c-1-2-3-5-4-7,0,0,1,0,2-1l4,7c0,0-1,0-2,1Z"/>
      <path class="cls-2" d="M1635,978v-8s0,0,1,0v8s0,0-1,0Z"/>
      <path class="cls-2" d="M1635,997v-6s0,0,0,0v6h0Z"/>
      <path class="cls-2" d="M1327,1024c-9-15-25-22-38-32-3-3-6-5-11-9,26,3,47,2,49,4Z"/>
      <path class="cls-2" d="M1281,1044c-1-1-2-2-3-4,0,0,0,0,1-1,1,1,3,2,4,3,0,0,0,0-1,1Z"/>
      <path class="cls-2" d="M2036,892c-12-8-24-16-36-23,0,0,0-1,1-2,14,5,24,15,36,23l-2,2Z"/>
      <path class="cls-2" d="M206,913c7,9,6,15-6,26,2-9,4-17,6-26Z"/>
      <path class="cls-2" d="M1697,931c-1-2-4-4-4-6-2-1-3-2-5-3,0,0,1,0,2,0,2,12,5,25,7,37h0Z"/>
      <path class="cls-2" d="M1697,931l3,17c0,0-1,0-2,0,0-6,0-12,0-17,0,0,0,0,0,0Z"/>
      <path class="cls-2" d="M1706,983c0,4,2,7,3,11,0,0,0,0-1,0,0,0,0-2,0-2,0-3,0-6-1-9,0,0,0,0,0,0Z"/>
      <path class="cls-2" d="M616,1031c-3-16-6-31-9-46-1-7,2-13,1-14,1-2,2-4,29-4,12,0,2,1,19,22-1,14-1,25-22,31-5,3-12,5-18,7-3,1-6,2-1,4Z"/>
      <path class="cls-2" d="M507,1035c-4-15-6-3-4-45,1-13,8-18,21-2,12-1,24,0,33,1,8,9,1,19,4,29-9,18-3,31-54,25Z"/>
      <path class="cls-2" d="M573,985c-3-3-5-4-7-6,0,0,1-1,1-1,2,1,5,2,5,7Z"/>
      <path class="cls-2" d="M573,995v7c0,0-1,0-2,0v-8c0,0,1,0,2,0Z"/>
      <path class="cls-2" d="M637,644c0-2,0-5,0-9,2-12,1-21,22-23,0,0,1,0,2,0,6,2,13,3,19,6,5,3,9,8,11,14,6,14,6,29,0,44-5,12-26,19-38,7-11-1-15-23-15-39Z"/>
      <path class="cls-2" d="M659,608c-2,0-4,1-6,2,0,0,0,0,0-1,2,0,4-1,6-2,0,0,0,1,0,2Z"/>
      <path class="cls-2" d="M57,654c5,2,9,3,12,4,7,2,13,5,19,8,4,2,5,4,4,9-2,8-6,13-13,17-6,3-12,5-18,7-2-6-5-11-6-16-6-17-12-34-18-51-5-16-2-21,15-22,5,0,9,0,14,0,8,1,11,6,8,13-2,6-5,11-8,16-2,4-5,9-8,15Z"/>
      <path class="cls-2" d="M584,701c11-7,24-11,26-28,6,7,4,12,1,17-4,9-13,12-28,11Z"/>
      <path class="cls-2" d="M588,705c-3,4-7,6-12,0h12Z"/>
      <path class="cls-2" d="M577,651c6-4,9,1,13,4-4-1-9-3-13-4Z"/>
      <path class="cls-2" d="M542,632c0-2,0-4-1-6h1c0,2,1,4,2,5,0,0-1,0-2,0Z"/>
      <path class="cls-2" d="M494,627c6,13,1,24,16,36-1-5-17,0-27,3-1-14,4-26,11-39Z"/>
      <path class="cls-2" d="M503,626c3,7,5,14,8,22-6-6-9-13-1-21,0,0,1,0,2,0Z"/>
      <path class="cls-2" d="M489,625c0-3,2-6,3-9,4,5,0,7,0,1,0,0-2,0-3,0Z"/>
      <path class="cls-2" d="M729,636c0-2-1-5-2-7,0,0,1,0,2,0,0,2,0,5,1,7,0,0,0,0-1,0Z"/>
      <path class="cls-2" d="M849,661c-7-2-6-4-9-62,8,8,13,46,9,62Z"/>
      <path class="cls-2" d="M811,591c4,0,8-1,13-2q-5,3-13,2s0,0,0,0Z"/>
      <path class="cls-2" d="M1758,6c-1-1-4-2-4-3,0-4,0-8,0-12,0,0,2,0,2,0,0,5,2,11,2,16,0,0,0,0,0,0Z"/>
      <path class="cls-2" d="M1362,56c7,11,9,23,1,36-6-6-12-25-1-36Z"/>
      <path class="cls-2" d="M1325,573c-4,1-9,3-13,4,3-6,8-5,13-6,0,0,0,1,0,2Z"/>
      <path class="cls-2" d="M1313,583c2-1,3-2,5-3,0,0,0,0,0,1-2,1-3,2-5,3,0,0,0,0,0-1Z"/>
      <path class="cls-2" d="M1608,546c4,0,7-1,1-2,0,5,1,9,2,13,0,0-1,0-2,0-3-4-6-7-1-13Z"/>
      <path class="cls-2" d="M1575,55c5,0,9-1,14-2,0,0,0,1,0,2-5,0-9,2-14,2,0,0,0-1,0-2Z"/>
      <path class="cls-2" d="M1225,59c-3-1-5-21-7-32,0-2,2-5,4-6,11-8,3-8,41,0,3,2,5,6,3,9-2,3-3,6-6,9-6,7-25,18-35,19Z"/>
      <path class="cls-2" d="M1504,579c0,1,0,2,0,3,0,0,0,0,0,0,0-1,0-2,0-3,0,0,0,0,0,0Z"/>
      <path class="cls-2" d="M1413,585c0-3-1-7-2-1,0,0,0,0,1,0,0,3,1,7,2,1,0,0,0,0-1,0Z"/>
      <path class="cls-2" d="M478,1686c-3-6-4-9-6-13,5-4,1-4,17-2-3,5-6,9-11,15Z"/>
      <path class="cls-2" d="M483,1703c-1-4-2-8-4-11,6-3,11-2,16,0-1,6-6,8-12,11Z"/>
      <path class="cls-2" d="M691,1787c-2,7-6,11-12,15-3-4-4-8-1-12,3-4,7-4,13-3Z"/>
      <path class="cls-2" d="M489,1742c-4,5-7,9-11,14-2-5-4-9-5-12,5-5,1-4,17-2Z"/>
      <path class="cls-2" d="M495,1764c-2,6-7,8-13,11-1-4-2-8-3-12,6-2,11-3,16,0Z"/>
      <path class="cls-2" d="M495,1905c-4-12-1-15,12-15-4,5-8,9-12,15Z"/>
      <path class="cls-2" d="M487,1608c-4,5-7,8-11,13-2-4-3-6-5-9,4-6,9-5,16-4Z"/>
      <path class="cls-2" d="M491,1628c-1,5-4,8-8,6-2,0-4-4-6-7q8-3,14,0Z"/>
      <path class="cls-2" d="M471,1976c-5-13-2-16,11-14-1,6-6,1-11,14Z"/>
      <path class="cls-2" d="M767,1927c0-3-2-7-1-1,2-4,7-2,11-2,0,6-4,8-7,12,0,0-2,0-3,0Z"/>
      <path class="cls-2" d="M647,1725c-1-4-2-6-2-9,0-2,0-7,2-7,3,0,7,0,1,0,0,0,1,5,0,6-2,3-6,5-1,9Z"/>
      <path class="cls-2" d="M734,1865c-2-6-3-1-4-15,5-3,9-2,1,2,2,5-2,8-6,13Z"/>
      <path class="cls-2" d="M619,1597c-4,3-8,6-12,1-4-12-3-14,12-1Z"/>
      <path class="cls-2" d="M497,1821c-1,7-6,1-12,14,0-5-2-9,0-11,2-4,7-4,13-3Z"/>
      <path class="cls-2" d="M67,1655c0-4-1-7-2-1,4-4,8-4,14,0-4,3-7,6-12,1Z"/>
      <path class="cls-2" d="M477,1895c-6,5-9,9-15,14-1-6-2-1-3-14,5-5,1-3,18,0Z"/>
      <path class="cls-2" d="M453,1623c-4,1-7,2-12,4,1-6,2-1,3-14,0,0,1,0,2,0,2,3,4,6,7,1Z"/>
      <path class="cls-2" d="M62,1723c-4-5-3-1-3-15,0-2,4-4,6-4,3,0,6,2,9,4,0,0,0,5-1,7-3,3-6,5-1,8Z"/>
      <path class="cls-2" d="M445,1763c1-7,2-12,3-18,6,3,6,8,8,13-3,1-6,3-1,5Z"/>
      <path class="cls-2" d="M457,1841c-1-6-2-1-3-15,5-3,9-5,14-2,3,2,0,7-4,12-1,1-3,2-6,4Z"/>
      <path class="cls-2" d="M512,1669c4,2,7,4,1,5,5,3,8,13,6,18-1,2-4,4-6,4-6,0-13-4-15-1-3-8-1-13,5-17Z"/>
      <path class="cls-2" d="M513,174c3,2,7,4,9,6,5,4,5,1,4,16-1,6-6,8-11,5-11-6-11-2-2-27Z"/>
      <path class="cls-2" d="M451,1685c-1,1-2,2-3,2,0,0-2-2-2-2,0,0,1-2,2-3,0,0,2,2,3,3Z"/>
      <path class="cls-2" d="M517,1606c2,5,4,9,5,14,0,2,0,6-2,7-2,1-6,1-8,0-4-2-7-8-6-13,0-5,3-7,11-8Z"/>
    </g>
  </g>
</svg>