<?xml version="1.0" encoding="UTF-8"?>
<svg id="Layer_2" data-name="Layer 2" xmlns="http://www.w3.org/2000/svg" viewBox="0 0 3603 2422">
  <defs>
    <style>
      .cls-1 {
        fill: #000;
      }

      .cls-1, .cls-2 {
        stroke-width: 0px;
      }

      .cls-2 {
        fill: #fff;
      }
    </style>
  </defs>
  <g id="Layer_1-2" data-name="Layer 1">
    <g>
      <path class="cls-1" d="M109,2142c5,42,1,83,15,128-67,12-13,23-193,34-65,11-13,21-195,32-64,1-128,2-192,3-65,1-13,22-195,3-63,7-125,31-191,25-28-153-56-3-64-455,17-3,31-8,46-9,12-11,24-21,36-32,105-1,209-2,314-31,71-7,141-17,211-25,32-4,41,0,47,33,11,57,19,115,28,173,0,4,2,7,4,15,42,0,77-16,1-49,42-6,88-114,146-159,36-28,34-68-7-88-54-27-112-48-168-71-23-1-47-18-71-28-28-11-51-28-65-56-4-7-8-13-12-19-17-27-4-43-73-38-51,8-102,18-153,28-4,65,22,126,3,186-127,2-251,39-375,57-63,9-125,17-188,23-35,4-37,2-42-32-6-37-8-75-12-113-6-63-9-127-19-189-5-34,7-48,42-51,183-16,366-31,55-46,5,0,1,0,2,2,4,38,9,77,13,118,4,1,79-3,119-6,19-2,38-5,56-7,4-4,68,12,89,46,28,45,7,73,119,9,44,15,89,29,134,44,18,6,37,12,52,23,25,18,51,17,79,14,69-7,139-11,209-16,101-7,202-15,303-22,61-4,122-7,182-1,43-2,43,0,52-41,1-6,3-12,6-23,38,11,67,36,99,53,32,17,66,31,92,58-18,38-114,121-156,135-5-18-1-35-15-56-13,0-27-1-4,0-137,15-275,3-412,44-1,1-2,18-299,27-33,3-67,3-98,13-21,6-42,24-57,41-28,32-5,7-78,103-13,16-32,29-5,39-22,12-46,2-71,31ZM102,1895c-306,35-606,49-904,94-6,36,39,366,55,401,82,4,841-118,907-146-19-113-38-227-58-349ZM216,1844c35-2,63-3,91-7,7-8,141-18,211-27,74-1,148-21,222-32,24-4,26-8,25-33-4-57-7-114-11-171-2-31-6-62-8-93-48-8-514,3-558,46,1,103,19,207,3,316ZM1974,1818c81-7,16-15,24-22,2,19,4,37,7,6,23-18,42-31,59-45,17-14,42-19,53-43-46-24-9-46-14-72-1,27-3,47-4,66-75,0-145,11-218,26,0,11,1,19,2,31Z"/>
      <path class="cls-1" d="M2182,26c25-9,42,3,61,11,37,16,74,33,11,5,24,11,47,24,73,37-6,9-9,16-13,18-31,16-63,32-95,47-35,17-71,33-107,49-7,3-13,6-24,11-6-18-12-34-18-53-35,0-72-2-108,0-106,7-212,16-319,24-125,9-251,16-376,27-119,1-237,23-355,37-21,2-29-6-3-24-2-33-4-66-5-99,0-17,1-24,27-25,48-2,96-5,144-8,17-9,339-19,509-27,103-5,205-7,308-12,58-3,116-7,175-11,34-2,34-3,39-37,0-5,3-1,4-16ZM2358,368c0-3-1-7-2-1-48-18-97-35-147-54-1,15-3,29-4,42-5,3-7,5-9,5-78,4-157,7-235,11-27,1-3,7-23,36,87-2,173-13,258-11,5,2,8,36,13,56,53-27,1-51,148-75ZM1014,416c9,12,12,21,18,22,11,3,23,2,34,1,52-3,104-6,156-9,149-8,299-16,448-24,76-4,152-8,228-13,7,0,13-4,2-7,0-3-1-7-2-1-12,0-24,0-36,0-108,3-216,3-323,8-78,4-156,14-235,19-83,5-167,8-251,12-16,0-32,0-57,0ZM1162,397c63,3,127,7,19-8-64-1-126,5-19,8ZM1235,449c-47,3-94,5-14,8,0,3,0,6,0,8,47-8,94,4,14-16ZM1619,417c0,1,0,3-1,4h119c0-1,0-3,0-4h-118ZM1789,409c0,1,0,3,0,4h91c0-1,0-3,0-4h-92ZM1511,431c0-1,1-3,2-4h-71c0,1,0,3,0,4h7ZM1849,367c0-2,0-3,0-5-8,0-15,0-23,1,0,1,0,2,0,3h23ZM1877,363c0,1,0,2,0,4h24c0-2,0-3,0-5-8,0-16,0-24,1Z"/>
      <path class="cls-1" d="M2489,615c1,235,2,472,31,709,2,52,8,104,12,155,3,32-4,4-36,44-122,13-244,27-367,4-54,5-109,7-163,11-25,2-5,4-76,6-12,0-25,0-39,0-2-11-4-2-5-28-19-191-29-382-35-573-3-9-12-18-19-27-3-43,0-43,41-49,194-27,389-33,584-47,19-1,38-3,57-4,3,0,7,3,15,6ZM1886,1529c204-12,402-27,599-43,2-13,4-2,4-28,0-1-1-2-2-3-15-135-28-27-27-406,0-47,0-94,0-141-2-73-4-147-2-218-4-7-557,32-594,46,8,272,17,545,41,821Z"/>
      <path class="cls-1" d="M2933,311c197-14,389-28,586-42,7,49,16,96,2,143,6,8,9,159,12,239,7,152,15,304,21,456,4,87,6,175,9,262,5,125,1,251,15,376,0,2,4,4,7,61-7,2-13,6-18,6-43,2-86,3-129,6-128,1-255,2-383,3-33,3-39-3-42-37-11-124-23-247-33-371-8-97-14-195-21-292-8-119-15-238-21-357-4-71-6-142-9-213-4-75-9-149-14-224,0-12,0-25,0-44ZM3575,1776c-21-494-26-985-79-1479-37,3-72,6-107,8-44,3-88,7-133,1-75,5-149,1-224,15-15,1-3,5-45,7-19,3-25,13-23,32,7,73,16,146,2,219,7,127,9,254,16,38,8,144,18,288,28,432,5,73,11,147,19,22,7,61,16,122,25,188,167-12,332-12,502-33Z"/>
      <path class="cls-1" d="M855,105c8,15,2,31,25,48,11,4-21,8-63,81-15,0-28-3-37-15-6-9-13-19-19-29-6-9-12-16-25-12-11,4-16,11-15,23,3,26,6,53,1,79,7,43-6,57-48,6-56,4-111,11-166,16-106,1-212,2-318,3-3,3-42-6-45-36-2-25-3-51-4-76,0-12-3-24-4-36-3,0-7,0-1,0-2,1-5,2-7,3-5,28-33,54-6,55-45,0-67-25-51-77,3-1,12-18,2-29-8-7-17-14-24-22-15-16-18-48-6-68,11-18,48-37,66-31,7,2,13,8,17,14,4,6,7,14,1,21,4,1,1,18,23,15,15-3,17-13,16-26,0-25-1-51-2-76,0-12,0-25,0-39,42-15,83-14,123-17,118-6,236-11,353-17,29-1,57-5,9-9,3,46,5,87,7,127,24,8,37,0,44-2,9-22,24-39,45-5,31-16,57-5,61,3,2,16-4,34-6,52ZM165,967c1,27,2,45,4,64,4,39,9,78,13,117,4,42,5,83,9,125,2,24,7,27,32,25,32-2,63-4,95-7,116-12,232-24,348-36,35-4,4-9,37-46-8-86-17-171-26-257,0-3-3-7-7-14-165,1-332,19-504,29ZM718,1103q48-3,68,39c1,2,23,24,43,13,21-12,29-31,28-54,0-22-9-3-38-4-3,0-5-5-8-7,9-13,2-24,26-37,8-18-3-32-23-33-22,0-31,16-36,33-8,28-26,42-54,46-3,0-6,4-1,7,0,1,2,19,3,31ZM73,1062c-35,6-55,22-56,42-1,17,17,35,44,41,4,0,8,0,11,1,6,2,13,4,25,8-11,6-16,8-21,12-11,9-24,18-32,3-13,19-8,36,8,46,16,1,36,8,48-8,7-1,1-23,15-34,6-12,9-28,19-35,16-12,14-25,9-42-44,4-64-21-7-63Z"/>
      <path class="cls-1" d="M62,5c17,11,33,216,48,321,1,9,2,18,2,27-1,22-11,33-33,35-5,4-101,7-151,12-71,7-141,15-212,21-43,4-86,8-129,1-27,2-37-6-39-3-9-96-19-192-25-288-5-79,0-8,76-84,129-8,258-16,387-25,1,0,2-4,3-4,16,0,31,3,46,5ZM11,62c0,18,2,35,3,51,5,83,11,167,16,25,2,25,5,29,3,29,28,0,56,0,84-3,67-6,134-12,2-2,63-7,125-16,186-25,5-54-23-282-39-317-158,1-318,7-479,34Z"/>
      <path class="cls-1" d="M679,474c13,111,25,222,38,335-13,2-27,4-42,6-129,12-258,24-386,36-35,3-71,8-106,12-39,5-45,0-46-38-2-53-3-106-6-16-2-37-7-73-11-11-3-39,2-45,39-48,62-5,124-9,186-13,105-7,21-15,315-22,6,0,12,1,19,2ZM151,536c3,101,5,199,13,297,22,0,38,1,55,0,135-12,271-19,404-44,51-1,59-19,52-7-7-53-15-106-18-159-4-64-2-63-68-58-114,9-228,15-342,23-31,2-62,7-96,11Z"/>
      <path class="cls-1" d="M912,412c-44-13-54-47-6-83-3-17-2-35-4-53-6-56-3-81-87-87-5,0-9,0-22-1,63-18,11,12,12,7,3,2,4,4,5,6,3,43,17,77,65,85,2,0,4,3,5,5,0,0,0,2,1,3-64,51-47,47-41,112,2,25,6,51,4,76-3,42-31,67-82,71,12-8,17-14,24-16,31-1,45-33,46-63,0-25,0-51-6-75-9-4-1-76,31-104Z"/>
      <path class="cls-2" d="M102,1895c2,122,39,236,58,349-65,28-824,15-907,146-15-35-61-365-55-401,297-45,598-6,904-94ZM325,2173c-3,13-36,11-39-19-3-26-1-53-2-8,0-14-2-29-3-43-53,0-55,2-55,48,0,82,0,164,2,247,0,5,3,9,5,15,18-3,35-5,56-8,0-22,0-42,0-62,0-14-3-31,16-33,2-2,19,16,22,29,2,14,3,28,5,41,1,8,4,17,7,28,16-2,31-5,43-7,3-6,5-8,5-1-2-96-4-192-7-288,0-14-6-25-23-24-16,1-31,3-32,24,0,15,0,3,0,45,0,31,0,63,0,95ZM1037,2198c-28-23-53-44-78-65-28-24-31-35-15-69,11-23,23-45,35-68,23-46,19-55-33-64-2,0-5,0-9,2-21,4-36,85-69,127-7-34-13-62-18-89-5-5-59,3-59,47,0,19,1,38,4,57,9,56,2,112,31,168,0,2,3,3,8,7,17-3,36-7,57-12-4-26-7-49-11-75,29,17,38,54,69,56,3,2,61,0,88-23ZM565,2043c14,83,28,166,42,251,28-3,54-7,83-1-6-41-12-8-18-119,15,12,24,27,33,41,27,42,32,44,8,32,2,0,4-3,9-7-6-4-12-83-18-125-3-19-6-37-11-56-14-54-14-53-68-37-2,0-3,4-5,5-7,27,26,49,7,82-34-26-66-5-99-74-1,5-2,9-34,16ZM572,2192c-2-47-6-84-24-119-19-35-52-48-82-32-26,14-47,35-55,65-14,51-14,102,5,153,21,55,63,68,111,35,2-14,33-31,38-55,3-19,6-37,7-48Z"/>
      <path class="cls-2" d="M216,1844c-1-11-2-214-3-316,43-16,509-54,558-46,3,3,6,61,8,93,4,57,7,114,11,171,2,25,0,3-25,33-74,11-148,22-222,32-7,1-141,19-211,27-27,3-55,4-91,7ZM291,165c9-13,17-23,23-34,8-15,3-27-14-32-28-9-53,13-49,43,6,42,13,84,2,125,27,3,48-3,63-17,22-2,21-46-4-63-11-8-24-13-4-22ZM64,154c-2,0-4-1-6-2-9,14-19,28-31,45-6-16-11-28-16-4l-8,3c8,28,16,55,25,89,5-13,7-2,1-27,16,5,31,1,46,15,1-3,3-5,4-8-14-7-28-15-45-24,7-18,14-35,21-51ZM551,1701c-28-12-35-47-68-5-6,27-6,52-3,77h8v-61c3,12,38,47,69,51,13-24,0-43-9-62,1,14,2,28,4,45ZM392,1561c-19,0-35,18-36,41,0,24,18,48,38,5,19,2,39-18,39-38,0-22-23-52-41-52Z"/>
      <path class="cls-2" d="M1974,1818c0-12-1-2-2-31,72-15,143-26,218-26,1-19,2-39,4-66,5,26,94,48,14,72-11,25-36,3-53,43-17,14-36,28-59,45-3-23-5-41-7-6-81,7-159,15-24,22Z"/>
      <path class="cls-2" d="M2358,368c-48,24-96,48-148,75-5-21-8-36-13-56-85-2-171,9-258,11-7-29-4-34,23-36,78-4,157-7,235-11,2,0,4-2,9-5,1-13,2-27,4-42,5,18,99,36,147,54,0,3,1,7,2,1Z"/>
      <path class="cls-2" d="M1014,416c25,0,41,0,57,0,84-4,167-6,251-12,78-5,156-16,235-19,108-5,215-6,323-8,12,0,24,0,36,0,0,3,1,7,2,1-7,2-13,6-2,7-76,5-152,9-228,13-149,8-299,16-448,24-52,3-104,6-156,9-11,0-23,2-34-1-5-1-9-11-18-22Z"/>
      <path class="cls-2" d="M1162,397c63-3,126-18,19-8-63,15-126,11-19,8Z"/>
      <path class="cls-2" d="M1235,449c-46,2-93,8-14,16,0-3,0-5,0-8,47-3,94-5,14-8Z"/>
      <path class="cls-2" d="M1619,417h118c0,1,0,3,0,4h-119c0-1,0-3,1-4Z"/>
      <path class="cls-2" d="M1789,409h92c0,1,0,3,0,4h-91c0-1,0-3,0-4Z"/>
      <path class="cls-2" d="M1511,431h-7c0-1,0-3,0-4h71c0,1-1,3-2,4Z"/>
      <path class="cls-2" d="M1849,367h-23c0-1,0-2,0-3,8,0,15,0,23-1,0,2,0,3,0,5Z"/>
      <path class="cls-2" d="M1877,363c8,0,16,0,24-1,0,2,0,3,0,5h-24c0-1,0-2,0-4Z"/>
      <path class="cls-2" d="M1886,1529c-24-276-33-549-41-821,37-14,554-53,594-46,16,72,18,145,2,218,2,47,1,94,0,141,0,136,12,271,27,406,1,1,2,2,2,3,0,7-2,15-4,28-197,16-395,32-599,43ZM2192,1439c69-33,134-64,199-95-19-29-153-123-199-138-22,16-7,4-13,61-87,6-173,13-263,19-2,38-1,7,9,104,87-12,172-2,258-16,3,25,6,45,9,66ZM217,779c-25,1-48,2-71,3-51,2-101,5-152,7-29,2-33,7-3,35,2,19,3,37,5,56,24,14,48,7,71,5,55-5,111-8,167-12,19-1,28,7,33,24,5,15,1,3,15,47,4-23,77-42,112-63,19-11,37-22,55-34,23-17,21-32-3-45-19-11-36-23-56-33-4-2-78-47-127-55-7,22-13,42-21,66Z"/>
      <path class="cls-2" d="M3575,1776c-169,22-335,22-502,33-9-66-19-127-25-188-8-73-14-146-19-22-1-144-2-288-28-432-7-127-9-254-16-38-4-73-13-146-2-219-2-19,4-29,23-32,15-2,3-6,45-7,75-5,149-1,224-15,44-3,88-6,133-1,35-3,7-5,107-8,53,494,58,985,79,1479ZM3293,1388c-21,3-43,3-63,1-62,24-107,66-127,132-21,73-3,162,95,189,29,8,59,16,89,18,124,8,195-84,181-205-9-81-87-14-176-144ZM3256,398c-102,1-155,42-179,129-2,71,24,172,108,192,27,7,55,14,82,14,27,0,56-5,81-15,44-17,63-56,73-1,17-73,5-139-54-19-34-3-78-25-112-3ZM3435,1085c8-98-51-155-139-165-27-3-55,4-83,5-29,1-5,16-7,35-49,48-64,108-58,174,2,25,14,47,34,62,68,51,144,69,226,39,57-21,89-61,89-124,0-9,0-18,0-27Z"/>
      <path class="cls-2" d="M165,967c172-1,338-19,504-29,4,7,7,11,7,14,9,86,18,171,26,257,4,37-2,43-37,46-116,12-232,24-348,36-31,3-63,5-95,7-26,2-3-1-32-25-4-42-5-83-9-125-3-39-9-78-13-117-2-19-2-38-4-64ZM25,1146c-3-4-6-72-8-105-3,0-7,0-1,0,3,42,0,84,15,124,4,1,12,22,21,26,11,6,28,1,38,5,1-5,18-2,2-32,3-15-9-24-22-32-19-12-33,2-54,13ZM618,1159c-22-6-57,2-61-26,11-3,23-4,32-8,6-3,13-12,12-16-3-1-1-2-17-26-3-3-16,0-19,5-8,13-16,28-2,43-4,17,4,32,19,42,14,9,35,4,54-13ZM512,1182c3-1,6-2,8-3-4-21-7-42-12-62-6-21-23-25-41-11-8,6-16,13-26,22,9,16,2,39,18,58q9-58,24-74c32,13,9,52,29,71ZM389,1196c2,0,36-13,37-3,0-2-25-48-45-49-14,0-26,18-27,4,0,25,12,39,35,39Z"/>
      <path class="cls-2" d="M718,1103c-1-12-2-22-3-31,4-3,7-6,1-7,28-4,45-19,54-46,5-17,13-34,36-33,2,0,31,14,23,33-6,13-17,24-26,37,3,3,5,6,8,7,28,9,37,17,38,4,1,23-7,42-28,54-2,11-33,7-43-13q-2-42-68-39Z"/>
      <path class="cls-2" d="M73,1062c6,42,26,67,7,63,5,17,7,3-9,42-1,7-13,23-19,35-5,11-8,24-15,34-12,16-32,18-48,8-16-1-21-27-8-46,8-12,21-2,32-3,4-4,1-6,21-12-12-4-19-6-25-8-4,0-8,0-11-1-26-6-45-24-44-41,1-2,21-37,56-42Z"/>
      <path class="cls-2" d="M11,62c162-27,322-24,479-34,16,35,45,263,39,317-61,8-124,17-186,25-67,8-134,14-2,2-28,2-56,3-84,3-25,0-28-3-3-29-6-83-11-167-16-25-1-16-2-33-3-51ZM282,202c-17,6-29,16-32,35-5,13-1,26-15,39,12,24,16,27,35,18,27-13,42-44,36-76-2-13-14-3,1-37,9,14,12,37,37,27,16-6,19-17,13-5,6-2,13-5,15-6,8,16,13,31,22,43,2,3,18,0,23-5,1-9,12-22,0-33h1c0-1-3-22,15-2,2,14,3,26,5,45,26-29,9-47,0-67-35,26-74,26-116,34-3,3-9,11-16,18q-21,21-49-2c7-28,38-53,7-91-8,12-15,21-21,3-8-2-16-3-2-4-17,17-32,31-47,46-1,1,0,4,0,6,1-4,19-9,32-14-3,41-25,75-16,113,8-19,14-4,18-6,7-31,13-62,32-88,7-2,13-5,2-7,11,33-2,51-25,73,13,13,23,23,34,33h1ZM506,106c-19,6-28,7-23,22,3,8,3,19,1,27-3,16-1,32-13,48-6,29-7,58,8,85,5,9,14,18,24,21,1,4,35-2,4-36,5-16,2-29-19-4,5,9,8,13,8,18,4,19-8,41-25,44-24,5-2-18-26-3-3-5-4-13-3-18,5-31,11-62,17-93,3-14,6-28,11-49Z"/>
      <path class="cls-2" d="M151,536c34-4,65-9,96-11,114-8,228-14,342-23,66-5,64-6,68,58,3,53,11,106,18,159,7,51,0,61-52,7-134,25-269,32-404,44-16,1-33,0-55,0-8-98-9-196-13-297ZM472,674c1,17,7,3,33,34-6-39-12-74-18-11-2,0-4,0-6,0,4,27,7,53,11,8-8-2-14-3-2-5-5-29-23-51-43-72-2,39-3,77,7,115,9-27-12-55,2-83,12,14,23,26,34,39ZM253,596c-5,4-15,9-15,13,4,4,1,79,16,119,28-2,56-3,65-34,9-29-18-34-36-44,7-2,33-31,25-59-19-5-39-16-56,6h1ZM389,683c5,14,9,26,13,38-4-43-7-87-3-127-23,28-29,8-16,136,2-28-2-53,33-46ZM535,648c12-6,21-1,3-14,2-1,2-6,4-11-13,3-23,5-4,9,3-17,1-33,8-42,7-8,23-7,35-1-21-1-38-6-54,8,2,4,4,8,27,119,13-6,23-1,33-15,0-2-1-4-2-6h-32c-3-13-6-23-9-38Z"/>
      <path class="cls-1" d="M325,2173c0-32,0-63,0-95,0-15,0-3,0-45,0-21,16-23,32-24,17-1,22,9,23,24,2,96,5,192,7,288,0,2-2,4-5,1-12,2-27,4-43,7-3-11-6-19-7-28-2-14-2-28-5-41-2-13-1-31-22-29-19,2-16,19-16,33,0,2,0,4,0,62-2,3-38,5-56,8-2-6-5-11-5-15,0-82-1-164-2-247,0-46,2-48,55-48,0,14,2,28,3,43,0,27,0,53,2,8,3,3,9,32,39,19ZM348,2317c15,4,24,1,26-14,0-6,1-13,1-19-1-77-2-155-4-232,0-9-5-19-7-27-2,0-3,8-3,25,0,18,2,35,2,53,1,29,3,57,4,85-62,11-64,9-69-51,0-6-1-13-1-19,0-24,0-47,0-74-12,3-22,2-25,6-5,8-7,19-7,29,0,8,2,16,4,239,0,2,3,4,4,6,27-4,28-4,3-23,2-14,1-28,1-42,0-26,6-32,29-36,22-3,25,11,28,27,4,22,8,45,12,66Z"/>
      <path class="cls-1" d="M1037,2198c-28,22-59,25-88,23-31-2-4-39-69-56,4,27,7,5,11,75-21,4-4,8-57,12-4-4-8-6-8-7-1-56-21-112-31-168-3-19-4-38-4-57,0-44,9-51,59-47,6,27,11,55,18,89,32-42,48-87,69-127,4-1,7-2,9-2,52,9,56,17,33,64-11,23-24,45-35,68-16,34-13,45,15,69,25,21,5,42,78,65ZM866,2141c3-1,7-3,1-4,18,18,38,36,55,56,12,13,24,17,41,13,12-3,24-6,42-1-22-19-4-35-58-5-38-33-41-45-2-91,4-9,1-17,15-27,11-22,21-45,33-71-16-5-28-8-41-12-2,51-43,96-7,143-27-34-17-72-32-102-34,0-44,9-38,46,1,67,24,134,37,204,15-4,26-8,39-12-4-3-8-57-11-84Z"/>
      <path class="cls-1" d="M565,2043c14-7,25-11,34-16,33,25,65,49,99,74,19-33-14-56-7-82,2-2,3-5,5-5,54-16,54-16,68,37,5,18,8,37,11,56,7,42,12,84,18,125-5,4-7,6-9,7-48,12-53,1-8-32-9-15-19-29-33-41,6,39,12,78,18,119-29,4-55,7-83,1-14-85-28-168-42-251ZM581,2042c0,86,25,159,35,237,22-3,39-6,6-1-7-46-14-88-2-13,3-1,6-3,9-4,7,8,16,14,22,23,14,18,26,37,41,55,18,22,22,22,55,5-13-64-13-131-39-196-13,2-25,3-37,4-2,31,24,58,4,88-49-6-76-55-128-72Z"/>
      <path class="cls-1" d="M572,2192c-2,1-4,29-7,48-4,24-18,41-38,55-48,33-9,2-111-35-19-5-19-101-5-153,8-3,29-51,55-65,3-17,63-3,82,32,18,34,23,72,24,119ZM562,2184c1-32-12-84-26-105-26-4-53-44-87-11-11,11-23,25-28,4-17,55-16,11,11,162,11,22,34,33,57,26,32-9,57-28,65-63,4-17,5-35,7-5Z"/>
      <path class="cls-1" d="M291,165c16,9,29,14,4,22,25,17,26,43,4,63-15,14-37,2-63,17-7-42-14-83-2-125-4-3,21-52,49-43,17,5,22,17,14,32-6,11-14,2-23,34ZM258,1602c8,5,16,96,23,141,34-4,56-17,56-34,1-24-2-29-37-37-26-12-28-16-11-41,6-9,11-18,21-35-23,3-36,5-53,7Z"/>
      <path class="cls-1" d="M64,154c-7,17-13,33-21,51,17,9,31,16,45,24-1,3-3,5-4,8-15-5-3-1-46-15-2,7-5,13-1,27-1-34-17-61-25-89l8-3c5,12,9,24,16,4,12-17,21-31,31-45,2,0,4,1,6,2Z"/>
      <path class="cls-1" d="M551,1701c-1-17-3-31-4-45,1,19,22,38,9,62-31-4-39-38-69-51v62h-8c-2-26-3-5,3-77,32,4,39,38,68,5Z"/>
      <path class="cls-1" d="M392,1561c17,0,41,3,41,52,0,19-2,4-39,38-19-2-38-26-38-5,0-22,17-41,36-41ZM421,1609c0-18-14-35-28-35-14,0-25,12-25,28,0,19,16,39,3,38,13-1,24-15,23-3Z"/>
      <path class="cls-1" d="M2192,1439c-3-2-6-41-9-66-86-4-171,3-258,16-1-34-11-67-9-104,9-7,176-13,263-19,7-2-8-45,13-61,46,16,18,109,199,138-65,31-131,63-199,95ZM2205,1402c5-26,93-49,142-75-53-33-99-62-152-95v65c-56-9-22,2-254,16,0,15,2,3,3,48,88-9,17-14,252-17,3,21,5,36,8,57Z"/>
      <path class="cls-1" d="M217,779c8-24,14-44,21-66,49,8,86,35,127,55,19,1,37,22,56,33,24,14,26,28,3,45-17,13-36,24-55,34-36,21-72,41-112,63-5-16-1-31-15-47-5-17-15-25-33-24-56,4-111,7-167,12-24,2-47,9-71-5-2-19-3-37-5-56-3-28,1-33,3-35,51-3,101-5,152-7,23-1,45-2,71-3ZM235,831c-18-2-114-75-15-87,0,16-2,32-2,48-84,12-168,3-253,2,3,17,5,3,7,46,85-3,167-6,252-1,5,18,1,37,16,58,43-25,85-49,13-75Z"/>
      <path class="cls-1" d="M3293,1388c89,4,167,63,176,144,14,121-57,213-181,205-3-2-6-9-89-18-98-28-117-116-95-189,19-65,64-108,127-132,19-7,42-7,63-1ZM3293,1708c14-2,28-2,41-6,58-18,11-72,94-16-12-69-74-119-144-112-37,4-71,17-101,39-49,35-74,126-26,174,38,39,82,61,137,64Z"/>
      <path class="cls-1" d="M3256,398c33,5,77,0,112,3,59,51,71,117,54,19-1,43-29,83-73,1-25,1-54,15-81,15-27,0-55-7-82-14-83-2-128-121-108-192,24-87,77-128,179-129ZM3261,423c-37,0-62,9-92,31-5,37-72,113-5,171,7,18,17,35,36,42,26,1,51,22,78,29,49,13,88-11,127-37,34-23,34-58,34-92,2-9-62-141-134-144Z"/>
      <path class="cls-1" d="M3435,1085c0,9,0,18,0,27,0,63-33,103-89,124-82,3-157,12-226-39-2-15-32-37-34-62-6-66,8-126,58-174,19-19,41-34,7-35,28-1,56-8,83-5,88,1,147,67,139,165ZM3274,1219c79,6,148-54,13-15-5-26-17-58-36-73-94-68-159-64-225,24-2,3-4,6-6,9-38,64-9,155,56,175,26,8,55,9,82,14Z"/>
      <path class="cls-1" d="M25,1146c21-11,35-25,54-13,13,8,25,17,22,32-2,12-1,28-2,32-1,5-27,0-38-5-9-5-17-16-21-26-15-4-12-83-15-124,3,0,7,0,1,0,3,33,5,65,8,105ZM322,1166c-15-1-24-19-35-21-12-3-26,13-23,24,3,15,15,22,28,2,9-2,16-12,3-22Z"/>
      <path class="cls-1" d="M618,1159c-19,17-4,22-54,13-15-1-24-25-19-42,4-15,11-3,2-43,3-4,16-8,19-5,8,7,14,17,17,26,1,4-6,14-12,16-1,5-21,6-32,8,5,46,4,2,61,26ZM559,111c16,9,25,9,29-4,0-3-4-8-6-12-7,5-14,9-23,16Z"/>
      <path class="cls-1" d="M512,1182c-2-19,3-57-29-71q-15,16-24,74c-17-19-9-42-18-58,1-9,18-15,26-22,18-14,35-1,41,11,6,2,8,41,12,62-3,1-6,2-8,3Z"/>
      <path class="cls-1" d="M389,1196c-23,0-36-14-35-39,0-22,13-4,27-4,2,0,46,29,45,49,0,17-16,3-37,3ZM38,1127c-17,34-16,49,0,56,14,7,27,0,32-12,11-28-19-26-31-44Z"/>
      <path class="cls-1" d="M427,157c11,11,9,24,0,33-5,5-21,8-23,5-9-12-14-27-22-43-3,1-9,4-15,6,6,32,3,44-13,5-25,1-28-13-37-27-24,7-12,24-1,37,5,32-9,63-36,76-19,9-23,7-35-18,8,3,16,11,23,9,2-4,32-21,37-38,5-16,8-35-14-45-1-1-21-2-34-33,5-22,36-4,25-73-7,3-14,5-2,7s0,0,0,0c6-9,13-18,21-3,31,38,0,63-7,91q28,23,49,2c7-7,13-15,16-18,42-8,81-8,116-34,9,2,26,38,0,67-2-19-4-32-5-45-18-2-15,11-15,21-7-3-13-5-22-9-4,14-13,27,9,39,4-12,8-22,12-32ZM343,163c-14,9-14,2-6,33q25-1,6-33Z"/>
      <path class="cls-1" d="M506,106c-5,21-8,35-11,49-6,31-12,62-17,93,0,6,0,13,3,18,6,12,2,34,26,3,18-3,29-25,25-44,0-4-4-8-8-18,21,11,24,24,19,4-6,17-3,4-4,36-9-4-19-12-24-21-15-27-14-56-8-85,3-16,1-32,13-48,2-9,2-19-1-27-5-15,4-16,23-22Z"/>
      <path class="cls-2" d="M281,203c21,1,18,29,14,45-5,18-17,34-37,38-7,1-15-6-23-9,5-13,1-26,15-39,11-12,21-24,32-35,0,0-1,0-1,0Z"/>
      <path class="cls-1" d="M251,104c-19,26-26,57-32,88-4,2-1,4-18,6-8-38,14-72,16-113-13,6-23,1-32,14,0-2,0-5,0-6,15-15,3-29,47-46,4,0,12,2,2,4,0,0,0,0,0,0Z"/>
      <path class="cls-1" d="M282,202c-11,12-21,24-32,35,3-19,15-29,32-35Z"/>
      <path class="cls-1" d="M252,597c17-22,37-12,56-6,8,28-18,38-25,59,18,1,44,15,36,44-1,31-38,32-65,34-6-4-12-8-16-119,0-4,1-9,15-13,2,38,5,77,7,121,15-5,28-6,37-12,18-12,15-29-5-36-9-3-18-5-31-9,14-21,26-37,4-59-21-1-35-2-49-3Z"/>
      <path class="cls-1" d="M389,683c-35-6-31,19-33,46-13-55-7-108,16-136,24,4,27,83,3,127-4-12-8-24-13-38ZM362,618c-1,17-2,35-4,55,3-14,31-15,4-55Z"/>
      <path class="cls-1" d="M535,648c3,14,6,25,9,38h32c0,2,1,4,2,6-1,5-21,9-33,15-23-39-25-79-27-119,16-14,33-18,54-8-12,3-28,2-35,1-7,8-5,24-8,42,17-4,28-6,4-9-2,5-2,9-4,11-9,5-18,9-3,14Z"/>
      <path class="cls-1" d="M472,674c-11-13-22-25-34-39-14,28,6,56-2,83-1-38-9-76-7-115,2,21,38,43,43,72h0Z"/>
      <path class="cls-1" d="M471,675c6,1,11,3,2,5-4-27-7-54-11-8,2,0,4,0,6,0,6,35,11,71,18,11-26-4-31-17-33-34,0,0,0,0,0,0Z"/>
      <path class="cls-2" d="M348,2317c-4-22-8-44-12-66-3-16-6-3-28-27-23,3-28,9-29,36,0,14,0,28-1,42-2,19-3,19-3,23-1-2-4-4-4-6-1-8-3-16-4-239,0-1,2-2,7-29,2-4,13-4,25-6,0,27,0,5,0,74,0,6,0,13,1,19,4,6,6,61,69,51-1-28-3-57-4-85,0-18-2-35-2-53,0-17,9-25,3-25,2,9,7,18,7,27,2,77,3,155,4,232,0,6,0,13-1,19-2,15-11,18-26,14Z"/>
      <path class="cls-2" d="M866,2141c4,27,7,54,11,84-13,4-24,7-39,12-13-7-27-137-37-204-6-37,4-46,38-46,15,3,4,68,32,102,27-47,5-92,7-143,14,4,25,7,41,12-12,26-22,49-33,71-4,9-1,17-15,27-22,46-19,58,2,91,18,15,36,31,58,5-18,5-3,8-42,1-16,4-29,0-41-13-17-2-37-37-55-56-3,1-7,3-1,4Z"/>
      <path class="cls-2" d="M581,2042c52,17,79,66,128,72,2-31-6-57-4-88,12-1,23-3,37-4,26,65,26,132,39,196-33,17-37,17-55-5-14-18-27-37-41-55-6-8-15-15-22-23-3,1-6,3-9,4,7,42,13,84,2,13-21,3-38,6-6,1-1-78-35-151-35-237Z"/>
      <path class="cls-2" d="M562,2184c-2,15-3,33-7,5-7,35-33,53-65,63-23,7-46-5-57-26-28-52-29-107-11-162,5-15,16-29,28-4,33-33,61-29,87,11,14,21,27,73,26,105ZM482,2259c15-15,29-23,32-34,13-41,1-82-15-119-8-12-23-14-32-3-6,7-11,17-14,26-16,45,4,83,29,129Z"/>
      <path class="cls-2" d="M258,1602c17-2,3-4,53-7-1,17-15,27-21,35-17,25-16,29,11,41,17,8,38,12,37,37,0,18-22,3-56,34-7-45-15-91-23-141Z"/>
      <path class="cls-2" d="M421,1609c0,15-1,29-23,3-14,2-3-19-3-38,0-16,11-28,25-28,14,0,28,17,28,35Z"/>
      <path class="cls-2" d="M2205,1402c-3-21-5-37-8-57-82,3-164,8-252,17-1-18-2-33-3-48,34-15,198-25,254-16v-65c52,33,99,62,152,95-49,26-92,48-142,75Z"/>
      <path class="cls-2" d="M235,831c-45,26-87,5-13,75-6-21-11-4-16-58-86,3-168,7-252,1-2-16-4-29-7-46,84-17,169-8,253-2,0-16,2-31,2-48,36,12,132,67,15,87Z"/>
      <path class="cls-2" d="M3293,1708c-54-4-98-25-137-64-48-49-22-139,26-174,3-22,64-35,101-39,69-7,131,44,144,112,16,88-36,142-94,16-13,4-27,4-41,6Z"/>
      <path class="cls-2" d="M3261,423c72,3,136,54,134,144,0,34,0,69-34,92-39,26-78,5-127,37-27-7-52-19-78-29-19-8-29-24-36-42-22-58,0-133,5-171,3-22,55-31,92-31Z"/>
      <path class="cls-2" d="M3274,1219c-27-4-56-6-82-14-66-2-94-111-56-175,2-3,4-6,6-9,66-88,131-92,225-24,2,14,31,47,36,73,19,96-51,156-13,15Z"/>
      <path class="cls-2" d="M322,1166c-14,11-21,21-3,22-13,2-25-5-28-2-2-1,12-27,23-24,1,2,19,11,35,21Z"/>
      <path class="cls-2" d="M559,111c1-7,16-11,23-16,2,4,7,9,6,12-4,13-13,13-29,4Z"/>
      <path class="cls-2" d="M38,1127c12,18,42,16,31,44-5,12-17,19-32,12-15-7-16-22,0-56Z"/>
      <path class="cls-2" d="M427,157c-4,1-7,2-12,32-22-13-14-25-9-39,9,3,15,6,22,9,0,0-1-1-1-1Z"/>
      <path class="cls-2" d="M343,163q19,23-6,33c-9-13-8-24,6-33Z"/>
      <path class="cls-2" d="M252,597c14,0,29,2,49,3-15,21-26,38-4,59,13,4,23,6,31,9,2,8,23,25,5,36-9,6-22,8-37,12-3-44-5-82-7-121,0,0-1,1-1,1Z"/>
      <path class="cls-2" d="M362,618c27,4,27,41-4,55,1-2,3-38,4-55Z"/>
      <path class="cls-1" d="M482,2259c-25-47-45-84-29-129,3-9,8-19,14-26,1-11,24-9,32,3,25,37,28,78,15,119-3,11-18,19-32,34ZM484,2235c38-28,37-83-2-125-35,3-3,8,2,125Z"/>
      <path class="cls-2" d="M484,2235c-31-45-37-94-2-125,39,42,4,97,2,125Z"/>
    </g>
  </g>
</svg>